<svg xmlns="http://www.w3.org/2000/svg" viewBox="0 0 54.8 109.51"><defs><style>.cls-1{fill:#595756;}.cls-2{fill:#211f1f;}.cls-3{fill:#3d3b3b;}.cls-4{fill:#615c5b;}.cls-5{fill:#3b3a39;}.cls-6{fill:#464443;}.cls-7{fill:#bdbbbc;}.cls-8{fill:#2d2c2b;}.cls-9{fill:#5b5a59;}.cls-10{fill:#262524;}.cls-11{fill:#151515;}.cls-12{fill:#323131;}.cls-13{fill:#454140;}.cls-14{fill:#404040;}.cls-15{fill:#525150;}.cls-16{fill:#373635;}.cls-17{fill:#161717;}.cls-18{fill:#191818;}.cls-19{fill:#262626;}.cls-20{fill:#969190;}.cls-21{fill:#20201f;}.cls-22{fill:#1d1b1a;}.cls-23{fill:#222523;}.cls-24{fill:#212120;}.cls-25{fill:#201f1e;}.cls-26{fill:#3c3a3a;}.cls-27{fill:#272626;}.cls-28{fill:#2b2a2a;}.cls-29{fill:#272625;}.cls-30{fill:#3e3b3a;}.cls-31{fill:#151514;}.cls-32{fill:#474645;}.cls-33{fill:#454444;}.cls-34{fill:#313130;}.cls-35{fill:#4a4949;}.cls-36{fill:#504e4d;}.cls-37{fill:#0b0a0a;}.cls-38{fill:#232221;}.cls-39{fill:#9f9c9b;}.cls-40{fill:#c8cacb;}.cls-41{fill:#949090;}.cls-42{fill:#3e3e3d;}.cls-43{fill:#0f0f0f;}.cls-44{fill:#252827;}.cls-45{fill:#353c39;}.cls-46{fill:#1f1d1d;}.cls-47{fill:#272727;}.cls-48{fill:#3f3f3e;}.cls-49{fill:#353534;}.cls-50{fill:#2a2a2a;}.cls-51{fill:#3a3939;}.cls-52{fill:#312f2e;}.cls-53{fill:#3f3e3d;}.cls-54{fill:#323231;}.cls-55{fill:#474746;}.cls-56{fill:#131212;}.cls-57{fill:#161615;}.cls-58{fill:#242423;}.cls-59{fill:#020201;}.cls-60{fill:#07130e;}.cls-61{fill:#282827;}.cls-62{fill:#100f0f;}.cls-63{fill:#484847;}.cls-64{fill:#585655;}.cls-65{fill:#121212;}.cls-66{fill:#010000;}.cls-67{fill:#6b6868;}.cls-68{fill:#575555;}.cls-69{fill:#555454;}.cls-70{fill:#7a7776;}.cls-71{fill:#181918;}.cls-72{fill:#262425;}.cls-73{fill:#464544;}.cls-74{fill:#666463;}.cls-75{fill:#504f4e;}.cls-76{fill:#555352;}.cls-77{fill:#615e5d;}.cls-78{fill:#494847;}.cls-79{fill:#4d4d4a;}.cls-80{fill:#69716d;}.cls-81{fill:#383737;}.cls-82{fill:#5f5c5b;}.cls-83{fill:#696665;}.cls-84{fill:#5f5c5c;}.cls-85{fill:#4c4b4a;}.cls-86{fill:#747170;}.cls-87{fill:#464746;}.cls-88{fill:#454445;}.cls-89{fill:#606161;}.cls-90{fill:#222120;}.cls-91{fill:#0b0a09;}.cls-92{fill:#3d3d3c;}.cls-93{fill:#575655;}.cls-94{fill:#615f5e;}.cls-95{fill:#4f4d4d;}.cls-96{fill:#5b5958;}.cls-97{fill:#787574;}.cls-98{fill:#625f5f;}.cls-99{fill:#848080;}.cls-100{fill:#6f6c6b;}.cls-101{fill:#6d6a69;}.cls-102{fill:#5f5d5e;}.cls-103{fill:#6f6d6c;}.cls-104{fill:#7b7877;}.cls-105{fill:#52504f;}.cls-106{fill:#6a6767;}.cls-107{fill:#676564;}.cls-108{fill:#62605f;}.cls-109{fill:#605d5c;}.cls-110{fill:#545251;}.cls-111{fill:#2f2f2e;}.cls-112{fill:#595958;}.cls-113{fill:#6c6969;}.cls-114{fill:#666362;}.cls-115{fill:#5f5d5c;}.cls-116{fill:#615e5e;}.cls-117{fill:#6f6b6b;}.cls-118{fill:#5e5c5b;}.cls-119{fill:#878383;}.cls-120{fill:#817e7e;}.cls-121{fill:#434242;}.cls-122{fill:#757271;}</style></defs><title>blackPants</title><g id="Layer_2" data-name="Layer 2"><g id="Layer_1-2" data-name="Layer 1"><path class="cls-1" d="M39.62,4l-.07.5c-.38.61.52,1.7-.76,2-1-.86-.59-2.4-1.6-3.22-1,1.42.49,3.28-.82,4.64C34.75,7,33.27,5.93,32.74,4a1.15,1.15,0,0,1,.52-.84C34.81,2.67,35,1.79,34,.59c1.59-.93,2.91-.85,3.9.92a13.28,13.28,0,0,0,1.27,1.66A.62.62,0,0,0,39.62,4Z"/><path class="cls-2" d="M30.16,91.55l.09-.12-.08-.12c-.5-.89-.26-1.91-.5-2.84a21.54,21.54,0,0,0,.22-4c0-.51-.22-1.19.5-1.41s1.07.44,1.37,1a3,3,0,0,1,.29.77c0,2.11.65,4.17.64,6.3-.07,1.12.25,2.23.19,3.35-1.45,1.51-1.53-.41-2.19-.87C30.24,93,30.45,92.2,30.16,91.55Z"/><path class="cls-3" d="M23.94,76.78c1,3.53.58,7.23,1.39,10.78.14.61.26,1.23.39,1.84l0,.46a7.5,7.5,0,0,1-.55,5.76c-.39.38-.78.74-1.38.42a2.29,2.29,0,0,1-.19-2.69c1.15-2.07.78-4.16.31-6.27a4,4,0,0,1-.16-.76,15.73,15.73,0,0,0-.4-3.86,17.23,17.23,0,0,1-.18-3.73C23.28,78,23.27,77.27,23.94,76.78Z"/><path class="cls-4" d="M52.19,107.19c-1.49.29-2.58,1.84-4.32,1.4-.29-.67.34-.83.64-1.18a6.41,6.41,0,0,1,.73-.52,8.14,8.14,0,0,0,1-.69,3.82,3.82,0,0,0,1.29-1.63,2.09,2.09,0,0,1,.77-.87c.54-.43.67-1.22,1.36-1.51a.7.7,0,0,1,.55.18,6.85,6.85,0,0,1-1.38,3.83l-.07.48C52.84,107.14,52.62,107.27,52.19,107.19Z"/><path class="cls-5" d="M18.59,3l1.94-.44c2.93-.59,5.89-.14,8.83-.27.7.88-.14,1.09-.64,1.18C24.55,4.18,20.55,6,16.19,5.57c-1.8-.5-4,.32-5.35-1.62,1.68-.75,3.47-.65,5.24-.73C16.92,3.19,17.79,3.46,18.59,3Z"/><path class="cls-6" d="M18.59,3a39.31,39.31,0,0,1-7.71,1C9.41,4.8,8,4,6.48,4c-.42-.13-.82-.28-.93-.78C7,2.05,8.57,3,10.08,2.92Z"/><path class="cls-7" d="M29.63,2.46l-9.1.09c.19-.14.37-.4.55-.4a67.12,67.12,0,0,0,11.41-1.1l.2.27a.85.85,0,0,1-.36.53,14.71,14.71,0,0,1-2.14.86A.56.56,0,0,1,29.63,2.46Z"/><path class="cls-8" d="M32.45,1.46a1.39,1.39,0,0,0,0-.41L34,.59c.89,0,1.54.2,1.44,1.34s-.84,1.59-1.94,1.52C33.67,2.51,32.79,2.13,32.45,1.46Z"/><path class="cls-9" d="M10.08,2.92c-1.45.36-3.06-.48-4.43.57,0,.78-.38.49-.74.25a7.6,7.6,0,0,1-.67-1.3A1.14,1.14,0,0,1,4.1,1.9C6.3,1.05,8.06,2.74,10.08,2.92Z"/><path class="cls-9" d="M1.81,3,3.2,2l.9-.11.19.26C4,3.48,3,3.87,1.87,4.07a.35.35,0,0,1-.21-.33c0-.15,0-.22.07-.22Z"/><path class="cls-10" d="M4.17,92.2,7,89.8c.57-.14,1-.68,1.62-.69a1,1,0,0,1,.62.35A2.33,2.33,0,0,1,9,91.87c-1.31,1.39-2.43,3-4.17,3.91a1.49,1.49,0,0,0-2.22.5c-.37.59-.69,1.27-1.51,1.38l-.28-.15C.83,95.05,2.82,93.82,4.17,92.2Z"/><path class="cls-11" d="M20.09,101l-.11.82h0c-.47.66-.62,1.55-1.44,2l-.46.47c-.25.66-.6,1.2-1.4,1.22-1.53-1.12-1.93-2.38-.53-3.89.1-.19.21-.38.32-.56a21.81,21.81,0,0,0,1.73-3c.18-.39.33-.79.5-1.18a1.81,1.81,0,0,1,.87-.94c2.18-.06.67,2.07,1.63,2.73A9.78,9.78,0,0,1,20.09,101Z"/><path class="cls-12" d="M6.52,108.62a1.88,1.88,0,0,1-1.37-.5c-.26-.26-.65-.41-.69-.85s0-.74,0-1.11a2.12,2.12,0,0,1,.06-.57,1.89,1.89,0,0,1,.66-1,.86.86,0,0,1,.57.06,6.13,6.13,0,0,0,1.6.74c.89.3,1.79.57,2.69.86,1.86.37,2.6,1.23,1.24,3a4.34,4.34,0,0,1-.72,0C9.26,108.6,7.82,109,6.52,108.62Z"/><path class="cls-13" d="M2.77,106.66C.56,104.9-.59,102.75.31,99.86A1.68,1.68,0,0,1,.93,101,13.83,13.83,0,0,0,3,105.39a1.55,1.55,0,0,1,.35,1.27A.35.35,0,0,1,2.77,106.66Z"/><path class="cls-14" d="M11,109.12a1.34,1.34,0,0,0-.16.39c-1.44-.31-3-.19-4.34-.89A9.83,9.83,0,0,1,11,109.12Z"/><path class="cls-10" d="M.49,101.34.31,99.86a2.82,2.82,0,0,1,.48-2.35l.12.08C1.6,98.94,2.06,100.25.49,101.34Z"/><path class="cls-15" d="M2.77,106.66l.51-.08a1.2,1.2,0,0,1,1.41.56l.46,1A3.21,3.21,0,0,1,2.77,106.66Z"/><path class="cls-16" d="M27.3,61.87c0-1.4-.49-2.78-.13-4.19,1.31,0,1.11,1.12,1.16,1.85A10.73,10.73,0,0,0,29,62.45c.29,4.39.58,8.78,1,13.17a4.24,4.24,0,0,1,.12.88c0,.08-.07.22,0,.24.32.07,0,.09,0-.23s.31-.62.71-.65c1.48,1.41.44,3.43,1.23,5,0,1.28.43,2.62-.58,3.73-.55-.21-.33-1.08-1.18-1.23-.56,1.68,0,3.44-.28,5.12l-.42-1C29.1,78.91,28.61,70.36,27.3,61.87Z"/><path class="cls-17" d="M23.82,78.83l.07,3.82a3.14,3.14,0,0,1,.18,1.84c-.31.68,0,1.56-.71,2.1C21.72,86,22.6,84.4,22,83.38c-.5-2-1.56-4-.57-6.23,1.14-1.26,0-2.85.59-4.19.41-1.13,0-2.39.6-3.49l.26-.25A9,9,0,0,1,23.41,73C24,74.94,23.27,76.93,23.82,78.83Z"/><path class="cls-18" d="M22.37,51.68a22.14,22.14,0,0,0,0,6c-.4,3.86.41,7.67.52,11.51l0,0c-1.9-1.18-1.41-3.2-1.54-4.89-.26-3.41.14-6.85-.31-10.26a7.2,7.2,0,0,1,.09-3.77.77.77,0,0,1,.64-.43C22.51,50.3,22,51.14,22.37,51.68Z"/><path class="cls-19" d="M23.82,78.83C23,77,23.51,75,23.41,73a9,9,0,0,1,.53,3.74Z"/><path class="cls-20" d="M4.6,24.12l.07-3.37a.48.48,0,0,1,.69.1,5.46,5.46,0,0,1,.47,2.65c.25,1.25.43,2.53.78,3.77.34,2.8.54,5.61,1,8.41.12,1,.32,2-.49,2.82-1.17-1.72-.45-3.93-1.46-5.69-.75-.71-.23-1.66-.46-2.46-1-1.16-.3-2.55-.5-3.82C3.68,25.75,5,24.92,4.6,24.12Z"/><path class="cls-21" d="M40.21,25.55a88.64,88.64,0,0,1,.56,12.93,2.42,2.42,0,0,1-2.44.09c-.86-2.2-.38-4.53-.57-6.78-.35-4.08-.66-8.19-.62-12.3a11.36,11.36,0,0,0-.23-3.39,4.62,4.62,0,0,1-.15-.74c-.17-1.38.09-2.79-.35-4.14a4.08,4.08,0,0,1-.12-.78c0-2.1.5-4.18.31-6.29a.68.68,0,0,1,.65-.8c1.28.91,1.27,2.35,1.21,3.63a26,26,0,0,0,1,8.37c.12,1-.29,2,.29,3v.72C40.31,21.2,39.53,23.42,40.21,25.55Z"/><path class="cls-22" d="M38.72,38.51c.68,0,1.36-.42,2.05,0,.69,1.92-.05,4,.79,5.92l.1,1.78c0,5.49.69,10.93,1,16.4a18.6,18.6,0,0,0,.07,5.72c.12.37.21.74-.2,1-1.39-.58-.93-1.85-1-2.89-.39-4.27-.45-8.56-.87-12.83-.07-.73-.07-1.46-1-1.7-1.19-2.93-.6-6-.41-8.93,0-.7-.06-.6-.54-1C37.71,41.14,37.84,39.67,38.72,38.51Z"/><path class="cls-8" d="M39.24,15.46c-.93-2.32-1.77-4.58-1-7.21.44-1.59-.27-3.24-.89-4.78a.72.72,0,0,1,0-1c1.27,1,1.38,2.44,1.42,3.89a36.94,36.94,0,0,0,1,8.18l-.09,1C39.54,15.68,39.39,15.68,39.24,15.46Z"/><path class="cls-23" d="M40.21,25.55c-1-2.1-.31-4.32-.44-6.48A21.37,21.37,0,0,1,40.21,25.55Z"/><path class="cls-23" d="M39.24,15.46h.46l.06,2.88C38.82,17.52,39.4,16.43,39.24,15.46Z"/><path class="cls-24" d="M53.09,94.79a2.6,2.6,0,0,0,.63,1.79.61.61,0,0,0,0,.42c.45,1.79,1.4,3.58,0,5.37-.32.61-.63,1.22-.95,1.82-2.47-1.16-1-3.26-1.18-5,.21-1.71-.8-3-1.6-4.34-.51-1.2-1.83-2-1.78-3.48a5.58,5.58,0,0,1,1.08-1.63c.57-.14.79.23,1,.66l1.37,1.88Z"/><path class="cls-25" d="M49.32,89.84c0,.81-.13,1.47-1.12,1.53-1.17,0-1.7-1-2.42-1.63a5,5,0,0,0-3-1.69,2.33,2.33,0,0,1-1.27-.48,1.08,1.08,0,0,1-.12-1,2.08,2.08,0,0,1,1.08-.83,11.28,11.28,0,0,1,3,0,4.63,4.63,0,0,1,2.84,2.73c.11.54.62.64,1,.91.14.1.19.19.15.3S49.37,89.84,49.32,89.84Z"/><path class="cls-26" d="M45.43,86a8,8,0,0,1-2.85,0,9.53,9.53,0,0,1,.29-4.56,3,3,0,0,0-.32-2.13A4.36,4.36,0,0,1,42.41,76a3.37,3.37,0,0,1,.44-1.34.52.52,0,0,1,.62-.15c.5,3.38,0,6.91,1.45,10.15C45.39,85,45.81,85.37,45.43,86Z"/><path class="cls-27" d="M10,72.09C9.34,65.42,9.82,58.71,9.4,52l.27-.17c1.29.44.28,2.58,2,2.7.58,1.73.17,3.47.07,5.21-1,.26-.75,1.17-.95,1.85A3.83,3.83,0,0,0,11,64c.16,6.21.94,12.38,1.53,18.55a7.25,7.25,0,0,1-1.68,5.77c-.45.63-.82,1.38-1.82,1.11H8.52c-.31-.92.91-1.29.76-2.14,1.77-2,1.62-4.29,1.24-6.65C10.8,77.73,10,74.94,10,72.09Z"/><path class="cls-28" d="M35.9,102.82c-.75-.89-1.7-1.64-1.95-2.86a2.7,2.7,0,0,0-1.08-1.87l0,0c-.08-.77-.62-1.84,1-1.48a2.87,2.87,0,0,1,.82.65,9.41,9.41,0,0,0,2,2.08,5.81,5.81,0,0,1,1.93,2.1,17.8,17.8,0,0,0,2.17,2.65,2.43,2.43,0,0,1,.5,1.19,1.17,1.17,0,0,1-.71,1c-1.64,0-2.39-1.68-3.8-2.16a3.14,3.14,0,0,1-.48-.42C36.28,103.42,36.41,103,35.9,102.82Z"/><path class="cls-29" d="M40.67,106.2l.49-1a2,2,0,0,1,1-1.12.77.77,0,0,1,.58.19c.48,1.38,1.64,2.17,2.66,3.09a.76.76,0,0,1,.09.66,2,2,0,0,1-2,.09c-.83.19-1.41-.56-2.18-.59a4,4,0,0,0-.17-.36C40.92,106.89,40.37,106.75,40.67,106.2Z"/><path class="cls-30" d="M43.49,108.14c.65-.16,1.43.2,2-.45a2.33,2.33,0,0,1,3.35,0l-.94.89a10.51,10.51,0,0,1-4.29-.07A2.62,2.62,0,0,1,43.49,108.14Z"/><path class="cls-31" d="M32.45,1.46c.65.5,2,.64,1,2l-.5.47c-1.25,1.61-3.24,1.37-4.91,1.93-1.77.4-3.61-.08-5.37.41a4.13,4.13,0,0,1-.78.15,6,6,0,0,1-2-.12c-1.16-.68-3,.49-3.74-1.39,4.69.31,9-1.42,13.44-2.44a.25.25,0,0,1,.31,0,6.19,6.19,0,0,0,2.53-1Z"/><path class="cls-32" d="M28.18,5.36,33,3.92c.74,1.61,2.59,2.26,3.35,3.85.75.87-.11,2,.5,2.92,0,.15,0,.31,0,.46.46,1,.13,2,.21,3-.36.75-.77.32-1,0a14.88,14.88,0,0,1-1.92-3.24c.08-1.85,0-3.58-2.27-4.21-.68-.19-1-.74-1.6.26-.76,1.22-1.37.16-1.86-.53A3.67,3.67,0,0,1,28,5.92.54.54,0,0,1,28.18,5.36Z"/><path class="cls-23" d="M36.82,10.69c-.81-.86-.32-1.95-.5-2.92,0-1.62,0-3.25-.11-4.87-.06-1.35.47-1,1.13-.45l0,1C36.1,5.8,37.4,8.31,36.82,10.69Z"/><path class="cls-33" d="M38.31,101.86c-.63-.66-.82-1.74-1.91-1.94-.07-1.27-1.13-1.73-2-2.38L34,97.07c-.59-.73-1.55-1.25-1.43-2.41a8.87,8.87,0,0,1-.47-3.35,13.93,13.93,0,0,0-.5-6.72h0c0-1.28,0-2.56,0-3.85a.47.47,0,0,1,.66.08,2.48,2.48,0,0,1,.44,1c1.41,2.71.59,5.86,1.74,8.62a9.2,9.2,0,0,1,2.28,4.17c.22,2.1,2.08,3.52,2.35,5.61a3,3,0,0,1,.06,1.16C38.93,101.72,38.72,102,38.31,101.86Z"/><path class="cls-16" d="M31.55,84.59c.84.08,1,.66.95,1.36-.22,1.78.54,3.64-.45,5.36C32.18,89.05,31.25,86.87,31.55,84.59Z"/><path class="cls-34" d="M32.52,94.66c.48.8,1,1.6,1.43,2.41-1.27-.57-.85.55-1.05,1.06-.58-1.16-1.16-2.32-1.73-3.49l-.24-1.36C31.83,93.32,31.49,94.78,32.52,94.66Z"/><path class="cls-35" d="M53.69,102.37c1.06-1.79-.19-3.58,0-5.37a4.65,4.65,0,0,1,.51,5.37Z"/><path class="cls-36" d="M9,87.51a3.44,3.44,0,0,0,.46,0c.08.84-.67,1.25-1,1.91-.51.18-1,.57-1.55.41l.58-.9A2.64,2.64,0,0,0,9,87.51Z"/><path class="cls-19" d="M22.44,83.14c1.06.91-.11,2.46.95,3.37.95.65.54,1.78.87,2.65.12.3.32-.25.07,0a2.16,2.16,0,0,1,0-2.13c.74,2.16,1.32,4.3-.16,6.43-.58.84-.31,1.83-.24,2.76h0c-.74.88-2.06,1.17-2.43,2.42h0a.33.33,0,0,1-.54,0c-.12-.45-1.86.18-.72-1.18.49-.59.13-1.17-.72-1.23-.27-.51,0-.94.21-1.37,1.75-2.67,2.93-5.44,2.07-8.75C21.61,85.05,21.4,83.91,22.44,83.14Z"/><path class="cls-37" d="M24.36,87v2.29l-.28.07-.69-2.83c.08-.66-.23-1.42.48-1.92.52.56,0,1.37.46,1.93A3.44,3.44,0,0,0,24.36,87Z"/><path class="cls-19" d="M24.33,86.52c-.64-.53-.38-1.27-.46-1.93s0-1.29,0-1.94C24.71,83.87,24.19,85.23,24.33,86.52Z"/><path class="cls-34" d="M32.87,98.09c.89.32,1.66.7,1.08,1.87A3,3,0,0,1,32.87,98.09Z"/><path class="cls-38" d="M7.08,38.5,7,35.75a.5.5,0,0,1,0-.68c1.1.11,1,1,1.13,1.75a38.61,38.61,0,0,1,.53,5.58,15.54,15.54,0,0,0,.7,2.09c.26.87.17,1.79.35,2.67.33,1.6.79,3.22-.25,4.75L9.4,52l-.81-3.57Q7.84,43.49,7.08,38.5Z"/><path class="cls-35" d="M42.57,104.29h-.45a1.39,1.39,0,0,1-.69-1.13.81.81,0,0,1,.34-.55c1.19-.44,2.19.56,3.42.41,1.49-.19,2.77-.47,3.63-1.79a2.53,2.53,0,0,1,.42-.5c1.08-.41,1.17-2.49,2.94-1.74.31,1.73-1.13,3.64.56,5.21-.4.08-.82.14-1,.59a8,8,0,0,1-1.93,1.7,5.77,5.77,0,0,1-1.92.48,1.05,1.05,0,0,1-.58-.3c0-1.21-.61-1.69-1.8-1.39A2.87,2.87,0,0,1,42.57,104.29Z"/><path class="cls-39" d="M47.4,106.58l.48.09c.44.32,1.14-.1,1.48.52l-.55.5H45.46a.35.35,0,0,0-.32-.11C45.38,106.09,46.47,106.51,47.4,106.58Z"/><path class="cls-40" d="M49.36,107.19c-.54,0-1.14.09-1.48-.52l1.85-.59c.48-.08.66.13.57.6Z"/><path class="cls-41" d="M50.3,106.68l-.57-.6a4.08,4.08,0,0,1,2-1.31C52,106,50.85,106.1,50.3,106.68Z"/><path class="cls-3" d="M21.54,98.58c0-1.63,1.25-2,2.43-2.42C23.77,97.57,22.37,97.8,21.54,98.58Z"/><path class="cls-3" d="M21,98.53l.54,0A3.15,3.15,0,0,1,20.09,101C20,100,20.68,99.34,21,98.53Z"/><path class="cls-42" d="M40.67,106.2l.47,1c-1.26.08-1.83-1.13-2.84-1.51l-1.52-1.87C38.69,103.61,39,106,40.67,106.2Z"/><path class="cls-43" d="M16.19,4.9C17.27,6.05,19,4.73,20,5.84c-1.49,1.2-3.25.48-4.88.69h-.82c-.68,0-1.35,0-2,0-1.43-.07-2.86.07-4.28-.08-2.11-.22-2.47-1-1.4-3A14.53,14.53,0,0,1,10.88,4C12.57,4.7,14.42,4.58,16.19,4.9Z"/><path class="cls-44" d="M6.63,3.5C5.69,5.87,7.15,6,8.86,5.88c1.16,0,2.33,0,3.5,0-.15,1.29-1.28,1.43-2.1,1.42-2.81-.07-3.73,1.57-4,4a3.24,3.24,0,0,1-.25.91,1.06,1.06,0,0,1-.48.52c-1.4-.71-1-2.27-1.61-3.36.06-.89.15-1.78.18-2.67A3.32,3.32,0,0,0,4,4.53c-.19-.4-.54-.84-.07-1.2a.89.89,0,0,1,1.22.16c.18.3.36.31.53,0Z"/><path class="cls-8" d="M32.47,1.46a2.22,2.22,0,0,1-2.53,1A5.67,5.67,0,0,1,32.47,1.46Z"/><path class="cls-45" d="M5.12,3.49c-.34.06-.82-.21-1,.24-.05.16.34.46.52.7-.36.46-.88.8-1.08,1.39-.47,1.11.74,2.4-.38,3.42A13.18,13.18,0,0,1,1.82,4L4.29,2.16C5.43,2.07,4.66,3.16,5.12,3.49Z"/><path class="cls-36" d="M20,95.15l-.46,1c-.17.31-.34.63-.5.95a12.6,12.6,0,0,0-1.9,1.75,2.08,2.08,0,0,1-2.81.05,3.53,3.53,0,0,1-.85-1c-.52-.59-.12-1.43-.59-2-.37-2.43-2.21-3.22-4.24-3.78-.07-.09-.14-.17-.2-.26A3.43,3.43,0,0,0,9,89.38c.49-.31,1-.63,1.45-.95l.28.09c.42.27.57.77.9,1.1,1.13-.31,1-1.3,1.06-2.08.16-2,1.13-3.79.78-5.81-.07-.39.26-.74.56-1,1.23-.65-.19-2.43,1.28-3,1.46.66,1.06,2,.88,3a7.5,7.5,0,0,0,.24,3.68,2,2,0,0,1-.05.64c-.52,1-.07,2.1-.46,3.1-.83,1.4-1.55,2.68,0,4.23.83.85.3,2.32.8,3.93-.18-2.22,1.48-3.2,1.81-4.82.12-.59.94-.33,1.47-.11a1.76,1.76,0,0,1,.68.7A7.68,7.68,0,0,1,20,95.15Z"/><path class="cls-15" d="M10,106.68a4.94,4.94,0,0,1-2.89-1l0-.29a5.79,5.79,0,0,0-.48-1.73,7.22,7.22,0,0,0-3.2-4.36,1.35,1.35,0,0,1-.4-1c.25-1.11.06-2.49,1.65-2.83l3.83-3.8.09.08c.85.5,1.6,1.17,1.42,2.22s-1.22,1-2.07,1.14C5.26,95.56,7.37,97,7.29,98c-1.37,1.62.69,1.84,1.2,2.49,1,1.23,2.17,1,3.25-.21.72-.78,1.74-.33,2.64-.35.84,1.34.25,2.46-.51,3.56a2.24,2.24,0,0,1-.51.46,1.84,1.84,0,0,1-.66.12,4.38,4.38,0,0,0-2.43.42c-.64.3,0,.53.21.74a1.29,1.29,0,0,1,.66.75C11.1,106.79,10.74,107.1,10,106.68Z"/><path class="cls-46" d="M4.66,95.56c-1,.72-.62,2.12-1.4,3-.45,1.89-1.31,3.77,0,5.66a2.65,2.65,0,0,1,.27.62,1.26,1.26,0,0,1-.19,1,.45.45,0,0,1-.6,0c-1.37-1.14-1.68-2.83-2.24-4.39.7-1.18.14-2.51.42-3.75.81-.49,1-1.44,1.48-2.11C3.13,94.52,4,94.07,4.66,95.56Z"/><path class="cls-47" d="M16.85,105.33c-.08.66,0,1.39-.74,1.77l-1.73.59c-1.36.43-2-.48-2.7-1.39-.38-1.44,1-1.77,1.64-2.51h0c.72-.8,1.15-1.8,1.85-2.61a1.55,1.55,0,0,1,1-.15,1.17,1.17,0,0,1,.55.38C16.08,102.74,14.91,104.1,16.85,105.33Z"/><path class="cls-48" d="M15.24,101.39a4.39,4.39,0,0,1-1.92,2.4c.38-1.27,1.3-2.4,1-3.84a1,1,0,0,1,0-1.44c1.21.35,2.41.84,3.13-.84.28-.66,1-.61,1.67-.6a1,1,0,0,1-.47,1c-.65,1.12-1.68,2-1.94,3.36l0,0-.49,0C15.88,101.13,15.55,100.71,15.24,101.39Z"/><path class="cls-49" d="M16.67,101.39c-.91-2,1.14-2.33,1.94-3.36A6.77,6.77,0,0,1,16.67,101.39Z"/><path class="cls-14" d="M11.88,106.19c.87.42,1.4,1.45,2.5,1.5l-3,1.37c-.3-.9.13-2.25-1.44-2.38.61,0,1-.32.94-1C11.43,105.43,11.61,105.89,11.88,106.19Z"/><path class="cls-50" d="M2.73,105.73l.5,0c.66-.37,1,.11,1.44.48s.51.63,0,1l-1.41-.56C3.1,106.3,2.91,106,2.73,105.73Z"/><path class="cls-50" d="M5.15,104.77a1,1,0,0,1-.47.93c-.71,0-1.09-.45-1.46-1h0c-.49-.81-.08-1.11.69-1.21A1.46,1.46,0,0,1,5.15,104.77Z"/><path class="cls-15" d="M7.06,105.72c-.68,0-1.38,0-1.46-.94l.3-.26c.94-.18,1.63-.1,1.2,1.16Z"/><path class="cls-51" d="M3.22,104.75l1.46,1c0,.16,0,.32,0,.48l-1.44-.48C3.23,105.39,3.23,105.07,3.22,104.75Z"/><path class="cls-15" d="M5.15,104.77l-1-1,.27-.23a1.14,1.14,0,0,1,1.31.21.8.8,0,0,1-.11,1l-.05,0-.22,0Z"/><path class="cls-25" d="M24.33,31.31l0-.48a4.88,4.88,0,0,0,.47-.55c1.35-1,1.38.19,1.51.95.22,1.31-.08,2.66.25,4a4.32,4.32,0,0,1,.17.71,27.65,27.65,0,0,0,.84,4.59,17.56,17.56,0,0,1,.57,7.35,8.11,8.11,0,0,1-.73,2.09.45.45,0,0,1-.65.08L26.3,48.1c.11-3.24-.91-6.37-1-9.59-.63-1.23.18-2.63-.47-3.85h0C24.43,33.58,25,32.34,24.33,31.31Z"/><path class="cls-52" d="M26.79,50h.43c1.16,1,.05,2.78,1.18,3.84.44.83.22,1.93,1.06,2.6a3.84,3.84,0,0,1,.3,1.71c-.22,1.41,0,2.87-.44,4.27a.46.46,0,0,1-.65.06c-1.75-1.22-.22-3.46-1.5-4.83Z"/><path class="cls-53" d="M21.91,43.31c0,2.24.05,4.47.07,6.71l-.48,0a2.51,2.51,0,0,1-.69-2c-.06-1.33-.07-2.65-.18-4-.05-.68-.4-1.66.88-1.73a1.73,1.73,0,0,1,.37.16Z"/><path class="cls-54" d="M28.67,62.51h.49c1.37,1.09,1.23,2.6,1.14,4.11a11.87,11.87,0,0,0,.4,3.75c.05,1.86,1.23,3.73-.09,5.56v1c-1.47-.74-.42-2-.66-2.88-.31.55.23,1.37-.34,1.94A63.74,63.74,0,0,1,28.67,62.51Z"/><path class="cls-55" d="M30.61,75.93c.3-2-.62-3.8-.49-5.74a2.64,2.64,0,0,1,1.74-.67,1.2,1.2,0,0,1,.62.14c.32.81,0,1.72.41,2.52-.8,1.47.23,3.13-.44,4.63-.55,1.27.8,2.74-.41,3.94h-.48C30.48,79.29,31.72,77.38,30.61,75.93Z"/><path class="cls-56" d="M29.6,76V73.31c1,1.29,0,2.69,1,3.58a4.15,4.15,0,0,1-.52,2.49C29.42,78.07,29.74,77,29.6,76Z"/><path class="cls-57" d="M21.51,42.33c-.8,1.94.35,3.9-.11,5.84-.87,1.87.1,3.79-.17,5.67,0,.32,0-.07,0,.24,0,.06.12-.17.23-.22.94,1.3.37,2.77.44,4.15.19,3.76-.41,7.58,1,11.23-.16,1.28.5,2.64-.44,3.82-2.3-1.64-1.6-4.15-1.84-6.39A47.22,47.22,0,0,0,20,58.88c-.45-4.64-.54-9.31-1.06-14a3.54,3.54,0,0,1,.58-2.72,1.47,1.47,0,0,1,1.62-.4C21.43,41.85,21.58,42,21.51,42.33Z"/><path class="cls-48" d="M20,95.15c0-1-.42-2,.47-2.88,0-.07-.13-.15-.12-.21.85-4.7-.84-9.25-.87-13.9a4.67,4.67,0,0,1,.49-1.4c.36-.62.41-1.42,1.06-1.88,1.26.5,1.08,1.48.84,2.48-.89,2,.37,3.85.53,5.78a6.67,6.67,0,0,0,.11,3.71C23.39,90.19,21.94,92.71,20,95.15Z"/><path class="cls-58" d="M21.91,77.36c-.56-.7-.17-1.75-.9-2.39a4,4,0,0,1-1-2.17c0-2-.74-4.1.57-6l.42,0c-.15,2.21.79,4.19,1.43,6.22C21.82,74.44,23.79,76.14,21.91,77.36Z"/><path class="cls-59" d="M21.48,53.86l-.06,1.37c.32-2.35-1.93-4.74,0-7.06,0,.61.07,1.22.1,1.82C21.5,51.28,21.49,52.57,21.48,53.86Z"/><path class="cls-44" d="M5.09,20.85a.87.87,0,0,0-.42-.1,23.46,23.46,0,0,0-1-5.38,14.64,14.64,0,0,0-.16-4.67C5.41,11.32,4.86,13,5,14.26c.06.74-.21,1.53,0,2.13a5.51,5.51,0,0,1,.62-3.8l0,0c.59-.19.94.12,1.22.58-.1,2.72,1.41,5.37.4,8.14C6.61,22,6,22,5.46,21.16c-.14-.81,0-1.65-.13-2.47-.07-.31-.43.16-.16,0,.11-.07.18,0,.18.15C5.32,19.52,5.63,20.24,5.09,20.85Z"/><path class="cls-60" d="M5.62,12.59,5,17.09c-.9-2.5.13-4.8-1.46-6.39-.47-.4-.32-.95-.34-1.46.54-1.27-1.16-2.53,0-3.8.5.08.69.44.81.87,0,.92.67,1.79.28,2.76Z"/><path class="cls-61" d="M7.13,35.13c0,.21-.07.41-.11.62A48.28,48.28,0,0,1,6.08,27l.39-.14a1.21,1.21,0,0,1,.55.59C7.4,30,8.47,32.56,7.13,35.13Z"/><path class="cls-62" d="M5.09,20.85,5.27,18c.62,1.25.24,2.25.38,3.2a2.29,2.29,0,0,1,.45,1.64,1.91,1.91,0,0,1-.25.65.46.46,0,0,1-.61.09Z"/><path class="cls-44" d="M5.24,23.61a2.71,2.71,0,0,1,.4,0,1.22,1.22,0,0,1,.85.73,2.58,2.58,0,0,1-.33,2.59L6.08,27Z"/><path class="cls-63" d="M38.72,38.51c0,.64-.2,1.38.06,1.9,1.76,3.54.55,7.33,1,11,0,.21.24.39.37.59,1.24,2.61.51,5.46.9,8.18a11.22,11.22,0,0,1,.11,4.51c-.28.56-.72,1.38-1.17.32-.32-.77-1-.89-1.4-1.39-.49-1.21,1.08-2.59-.33-3.72a10.41,10.41,0,0,1-1.16-.34,12.38,12.38,0,0,0-1.45.38,1.51,1.51,0,0,1-.63-.13c-1-1.48.45-1.76,1.2-2.26,1-.65,1.28-1.19.13-1.9-.35-.22-.71-.41-.7-.87,0-.83.71-1.14,1.22-1.58-.59-.11-1.31-.07-1.09-1a13.15,13.15,0,0,1,.92-1.93,13.55,13.55,0,0,1,.69-4.13,2.24,2.24,0,0,0-.76-2.58c-1.44-1.25-.82-3.17-1.65-4.64-.39-.69.79-1.29,1.05-2.16.72-2.34-.84-4.25-.76-6.41,2.08-1.73,1.16-4,1.17-6.16,0-1.69-.94-3.56.72-5a.61.61,0,0,1,.57.27Z"/><path class="cls-64" d="M37.31,19.31c-1.06,2.7.2,5.41,0,8.11-.11,1.24,0,2.78-1.86,2.93a.41.41,0,0,1-.52.07,7.14,7.14,0,0,1-.24-1.72c.18-.78.72-1.45.64-2.3v-.93a1.87,1.87,0,0,0-1.08-2,.79.79,0,0,1-.35-.86c.56-2,1.73-3.87,2-6a1.35,1.35,0,0,1,.85-1.32.65.65,0,0,1,.6.25,2,2,0,0,0,0,.43A5.25,5.25,0,0,1,37.31,19.31Z"/><path class="cls-23" d="M37.29,15.51a2.12,2.12,0,0,0-.44,0,.61.61,0,0,1,0-1c0-1.12,0-2.24,0-3.36C37.78,12.52,37.13,14.06,37.29,15.51Z"/><path class="cls-23" d="M37.31,19.31V15.94c.92,1,.32,2.29.45,3.43A1.74,1.74,0,0,0,37.31,19.31Z"/><path class="cls-65" d="M40.71,65.38q-.27-6.7-.53-13.41c.08-.44-.12-1.16.49-1.16s.46.72.48,1.16q.49,7.83,1,15.67c0,.55-.06,1.13.41,1.56l.12,1.39c.5,1.76-.11,3.59.36,5.35-.12,1.12-.76,2.26.08,3.36.51.74,0,1.65.39,2.4-.13.83-1,1.54-.13,2.52s-.73,1.11-.76,1.82c-.21.41-.59.45-1,.48-.69-.06-.61-.61-.64-1-.43-5.62-.29-11.26-.8-16.87A4.31,4.31,0,0,1,40.71,65.38Z"/><path class="cls-66" d="M41,46.13v3.29l-.16,0-.35-3.28Z"/><path class="cls-67" d="M43.08,87.52c2.48.25,3.39,2.6,5.12,3.84.52,1.21,1.85,1.88,2.13,3.24-.07,1.18,1.42,2.53-.41,3.5-1.72-.54-2.05-2.38-3.22-3.43-1.16-.85-.53-2.47-1.46-3.41C44.85,89.82,43,89.2,43.08,87.52Z"/><path class="cls-68" d="M49.8,98c1-1,.2-2.3.53-3.42.92,1.33,2.18,2.52,1.85,4.38-1.45-.08-1.22,2.31-2.86,1.93a1,1,0,0,1-.34-.53,3.06,3.06,0,0,1,.26-1.58A1.82,1.82,0,0,1,49.8,98Z"/><path class="cls-25" d="M43,75.94c-.82-1.74-.26-3.56-.36-5.35.18.5.35,1,.52,1.5,0,.78,0,1.56,0,2.34Z"/><path class="cls-69" d="M40.71,65.38c.29,5.65.59,11.3.86,17,.06,1.4,0,2.79,0,4.19l.09.89c-.41.43-.82.29-1.25,0a7.24,7.24,0,0,0-.9-.76c-1.47-.77-1.74-1.67-.91-3.25.75-1.42,1.25-3.11.22-4.73a1.18,1.18,0,0,1,.3-1.82,1.55,1.55,0,0,0,.29-2.28,2.84,2.84,0,0,1-.15-.64c.12-1.29.87-2.51.35-3.85,0-.55,0-1.1,0-1.65a9,9,0,0,0-.05-1.56,2.3,2.3,0,0,0-.67-1,2.12,2.12,0,0,1-.5-1.88,1.29,1.29,0,0,1,.39-.56C40.67,62.81,39.87,64.93,40.71,65.38Z"/><path class="cls-70" d="M40.61,87a1,1,0,0,0,1.08.39l1.39.1c.66,1.35,2.59,1.9,2.41,3.79-1.76,0-2.77-1.51-4.21-2.1a24.67,24.67,0,0,1,1.61,2c.3.54.43,1-.28,1.37a4.39,4.39,0,0,0-1.14.9,2.59,2.59,0,0,1-3.37-1,2.25,2.25,0,0,1-.24-1.42c.15-1.1.93-2.25-.26-3.25C38.12,85.75,39.46,86.73,40.61,87Z"/><path class="cls-25" d="M43.47,81.7c-.66-.71-.32-1.59-.39-2.4C43.78,80,43.43,80.89,43.47,81.7Z"/><path class="cls-57" d="M10.43,88.43c0-.15-.2-.37-.15-.44,2.92-3.89,1-8,.77-12.13s-.89-8.24-.62-12.39c-.31-.52-.46-1.19.14-1.42s.44.55.63,1A10.36,10.36,0,0,1,11,61a1,1,0,0,1,.47-.58,1.23,1.23,0,0,1,1.2.93c.67,3.78.19,7.6.33,11.4.11,2.94-.23,5.88.22,8.8a15.33,15.33,0,0,1-.46,5.72,2.72,2.72,0,0,1-2.35,1.12Z"/><path class="cls-46" d="M9.52,51.91c-.17-1.61.24-3.28-.46-4.83.66-1.32.26-2.58-.09-3.91-.27-1-1-2.37.89-2.81,1.15,1.93,1.24,4.07,1.27,6.23a37.77,37.77,0,0,0,.16,6.64,1.3,1.3,0,0,1,.1,1.12c-.63.28-1.53,1.39-1.44-.5C10,53.18,10.12,52.45,9.52,51.91Z"/><path class="cls-71" d="M11.39,54.35l-.47-.48c-.5-1.48-.17-3-.21-4.49,0-1,.51-1,1.21-.54A2,2,0,0,1,12.45,50c.23,2.41-.13,4.83.24,7.24a5.22,5.22,0,0,1,.19.78c.06,1.07.35,2.18-.54,3.08l-.94-.48a.3.3,0,0,1-.11-.32c0-.11.07-.16.11-.16Z"/><path class="cls-71" d="M11.39,61.06v2.31c-.83.23-.12-1-.83-.77-.14,0-.09.57-.13.87a1.2,1.2,0,0,1,0-1.92C10.7,61.28,10.84,60.77,11.39,61.06Z"/><path class="cls-72" d="M11.39,61.06l-1,.49c.33-.48-.82-1.94,1-1.44v.48C11.39,60.74,11.39,60.9,11.39,61.06Z"/><path class="cls-73" d="M41.64,102.82v.48c-.12.54-.13,1.19-1,1-1.19-.42-1.63-1.56-2.34-2.43l.45-.49C41.18,100.69,41.53,100.87,41.64,102.82Z"/><path class="cls-34" d="M34.44,97.54c1.1.43,2.85.32,2,2.38A5.9,5.9,0,0,1,34.44,97.54Z"/><path class="cls-42" d="M40.65,104.29l1-1a1,1,0,0,1,.48,1,.87.87,0,0,1-1,1A1,1,0,0,1,40.65,104.29Z"/><path class="cls-42" d="M47.4,106.58c-.59.7-1.72.18-2.26,1-1.33-.73-2.75-1.39-2.57-3.29a8.29,8.29,0,0,0,3.93.31C47.94,104.49,48.84,105.12,47.4,106.58Z"/><path class="cls-32" d="M22,5.88a3.7,3.7,0,0,1,.47,0c1.92-.49,3.84-.07,5.76,0l0,0c.76,1.35-.36,1.75-1.14,2.4s-1.33.52-2-.13c-.87-.81-2.33-.56-3.12-1.6A.54.54,0,0,1,22,5.88Z"/><path class="cls-49" d="M28.19,5.86c-1.92.94-3.84-.29-5.76,0,1.85-1,3.84-.25,5.75-.5C28.18,5.53,28.19,5.7,28.19,5.86Z"/><path class="cls-49" d="M22,5.88c0,.15,0,.31,0,.46a2.58,2.58,0,0,1-2,.66c-1.11,0-2.23.06-3.34,0-.75-.06-1.65,0-1.83-1.06L20,5.84Z"/><path class="cls-74" d="M36.83,14.51c0,.31,0,.63,0,1-.19,2.14-1.71,3.92-1.62,6.14,0,.83-.62,1-1.29,1.07a1.22,1.22,0,0,1-1.65,0c-.17-.27,0,0-.19-.14-.93-.65-.34-1.34-.13-2-.8,0-1.73.35-2.3-1,.1,1.53-.27,2.69-.15,3.89.07.75-.09,1.47-1.13,1.39-1.64-1.64-1.11-3.49-.56-5.35.37-1.29,1-2.62-.62-3.56a1.51,1.51,0,0,1-.53-.36c.26-1.14.27-1.83-1.29-1.24-1.24.47-1.89,2-3.45,1.78a1.79,1.79,0,0,1-.48-.47,4.08,4.08,0,0,1-.3-3c.15-.83.5-1.57-.49-2.08.07-1.14.86-1.28,1.76-1.26a6.65,6.65,0,0,0,1.67.11c2.37.09,4.25-1.5,6.53-1.88C33.4,7,34.08,7.36,34.13,10a1,1,0,0,0,.3.63Z"/><path class="cls-75" d="M34.43,10.67c-.27-.28-.82-.71-.77-.8,1-1.75-1.5-1.31-1.49-2.4-.32,1.7-2.6-.55-2.81,1.4a1.93,1.93,0,0,1-.33.59c-1.8-1.62-3.38,1.34-5.15.25-.53-.6-.53-.6.15-1.43C22.41,8.44,20.78,8.8,20,7A.56.56,0,0,1,20,6.37l1.91,0c1.19.85,3.11.17,3.92,1.84.81-.74,2.44-.64,2.34-2.3.39.39,1.06.24,1.78-.2.37-.22,1.26-.33,1.32-.2.59,1.23,2.2.85,2.83,1.81A3.67,3.67,0,0,1,34.43,10.67Z"/><path class="cls-76" d="M41.64,102.82c-.13-2.14-2-.86-2.88-1.45,0-1.77-1.06-3.14-1.95-4.55-.43-.68-1-1.3-.46-2.15.54-.35,1.09-.13,1.64,0a6.15,6.15,0,0,1,3.94,5.19c1.3,2.19,2.4,2.62,4.71,1.94.86-.25,1.67-1.09,2.67-.37A4.9,4.9,0,0,1,43,103.19,7.15,7.15,0,0,0,41.64,102.82Z"/><path class="cls-1" d="M32,80.75c.54-1.44-1.17-2.88,0-4.32,1.54-.6,1.73.6,2.1,1.57a3.84,3.84,0,0,1,.35.54A7.33,7.33,0,0,0,35.23,82c.65,1.18,1.36,2.62,0,3.93a1.24,1.24,0,0,1-.61.32,1,1,0,0,1-1.06-.74,9.39,9.39,0,0,1-.1-1.18c-.2-2-.35-2.21-1.43-2.66Z"/><path class="cls-1" d="M37.81,95.14l-1.46-.47c-1.28-.78-.38-3.1-2.39-3.37-.62-1.21.47-2.51-.2-3.73.13-.7.7-1.07,1.15-1.54h0c1.5.29,1,1.63,1.4,2.55a3.12,3.12,0,0,1,0,.68c-.42,1.28.25,2.3.79,3.35C37.37,93.42,38.71,94,37.81,95.14Z"/><path class="cls-55" d="M34,87.47c1.52,1.27-.3,2.56,0,3.83-.94-1-.69-2.31-.78-3.38A27.19,27.19,0,0,0,32,81.7c1.26-.55,1.65.18,1.76,1.24.09.86.11,1.74.15,2.61C33.64,86.19,34.18,86.83,34,87.47Z"/><path class="cls-11" d="M9.48,40.41c-.68,1.34,0,2.62.28,3.87a2.65,2.65,0,0,1-.7,2.8C9,46.14,9,45.2,9,44.27c-.34-.47-.19-1.25-.92-1.48a25.75,25.75,0,0,0-.94-7.66c.19-2.74-.47-5.42-.56-8.14-.56-.9.16-2-.45-2.89l-.48-.48v-.49c.39-.31.14-1.28,1.06-1a2.93,2.93,0,0,1,.79,1.15c.66,1.7.4,3.52.76,5.26a14.82,14.82,0,0,1,.47,3.75C8.87,35,10.13,37.62,9.48,40.41Z"/><path class="cls-46" d="M8.07,42.79c1.65-.35.63,1,.92,1.48Z"/><path class="cls-77" d="M49.31,101.38c-1.85.31-3.38,1.86-5.58,1.06A2.72,2.72,0,0,1,41.64,100a1.44,1.44,0,0,1,1.62-.33,1.12,1.12,0,0,1,.49.45c1,1.88,2.32.73,3.39.24.85-.39,1.48-1,2.17.1,0,.17,0,.34,0,.5S49.31,101.23,49.31,101.38Z"/><path class="cls-49" d="M6.6,13.06l-.95-.49A10.1,10.1,0,0,1,6.2,8.64,2.28,2.28,0,0,1,8.82,6.82a5,5,0,0,0,3.54-1l1.93,0c.22,1.87-1.09,2.26-2.48,2.52-1.54.27-3,.71-3.53,2.39C7.62,11.49,6.65,11.94,6.6,13.06Z"/><path class="cls-78" d="M8,10.66C8.11,8.27,10,8,11.66,7.88a2.83,2.83,0,0,0,2.63-2,1.77,1.77,0,0,1,.46,0c1.7.93,3.54.2,5.29.46,0,.15,0,.3,0,.45-.61,1.13-1.7.64-2.57.67-1.72.06-3,.42-2.6,2.56a2.16,2.16,0,0,1-.42,1.58,1,1,0,0,1-.95.22c-1.17-1.57-2.54-2.24-4.38-1A.87.87,0,0,1,8,10.66Z"/><path class="cls-79" d="M3.65,6.29c-.15-.28-.31-.56-.46-.85.06-1,.73-1.06,1.48-1,.53.66,0,1.3,0,2A.65.65,0,0,1,3.65,6.29Z"/><path class="cls-80" d="M3.65,6.29l1,.1c0,.91.41,1.87-.34,2.68C4.31,8.09,3.37,7.33,3.65,6.29Z"/><path class="cls-81" d="M9.48,40.41l-1.4-8.13c.43-.43-.1-1.22.57-1.57,1.37.45,1.24,1.66,1.43,2.73.63,3.39.76,6.89,2.76,9.93.64,1,.21,2.34.42,3.52.31,3.38.23,6.8,1,10.14A39.82,39.82,0,0,1,15,64.34a82,82,0,0,0-.92,8.43c0,2.67.36,5.31.21,8A3,3,0,0,0,14,83c.21,2.3-.79,4.41-1.21,6.6-.24,1.2-1,2-1.87.26.68-.67.64-1.78,1.44-2.39.91-1.86.3-3.85.48-5.77-.52-6-.1-11.91-.23-17.87a29.26,29.26,0,0,0-.25-6.13h0c-.69-2.52.23-5.15-.49-7.67v-1a4.2,4.2,0,0,1-1.43-2.41A15.84,15.84,0,0,0,9.48,40.41Z"/><path class="cls-82" d="M20,91.78l-1.17-.1c.43,1.77-2.23,2.43-1.55,4.31a.82.82,0,0,1-.59,1.12c-.74.19-.6-.57-.69-.93-.47-1.82-.23-3.77-2-5.29-.54-.47.72-2.12,1.67-2.94.7-.88-.23-2,.47-2.89h0c1.65-1.69,1.87.55,2.75,1C21.16,87.29,21.23,87.68,20,91.78Z"/><path class="cls-64" d="M18.59,86.5c-.62-.77-.91-2.11-2.4-1.44-.58-1.38-1.31-2.64-.57-4.32a2.57,2.57,0,0,0-.39-2.87c-1.65-.61-1.37-1.38-.19-2.23a2,2,0,0,1,.69-.06c.32-.52.84,1.44,1.2-.14.25-1.08,1.23-1.3,2.28-.94a13,13,0,0,0,1.3,2.41l-.48,1c-.55.26-1.05.74-.82,1.29.83,1.92-.27,4.08,1.22,6.09C21.42,86.56,19.49,86.4,18.59,86.5Z"/><path class="cls-83" d="M7.08,98a5.61,5.61,0,0,0-.23-.65c-.29-.68-1.71.8-1.43-.62.17-.89,1-2.25,1.77-2.14,3.65.52,2.16-1.25,1.39-2.77,3.58.15,4.47,1,4.74,4.26-1,.32-1-1.22-1.9-1.1-.45.34-.25.66.09.92.52.4,1.63.22,1.47,1.24s-1.19.9-1.89,1.2a4,4,0,0,1-.7.18C9.24,98.65,8.07,98.93,7.08,98Z"/><path class="cls-84" d="M7.08,98H10.9a5.28,5.28,0,0,0,2.9-.49,1,1,0,0,1,.48,1V100c-.63.64-1.26,1.34-2.12.12-.29,1,.61,1.61,0,2.26-2.76,0-4.6-2-6.76-3.45C5.66,98.25,6.58,98.48,7.08,98Z"/><path class="cls-85" d="M18.59,86.5l2.38-1c-1.6,0-2.45-.58-2.18-1.38.66-1.9-.13-3.61-.31-5.39s.68-1.21,1.55-.85c.71,3.15.29,6.45,1.46,9.59.56,1.5-.74,3.17-1,4.82L20,91.78c-.71-1-.22-2.38,0-3.09.65-1.89-.4-1.68-1.47-1.79,0,0-.1-.13-.1-.19S18.56,86.57,18.59,86.5Z"/><path class="cls-78" d="M15.24,76c-1.26.63-.67,1.28,0,1.92,0,.75-.54,1.4-.13,2.25s-.19.89-.83.62a25.54,25.54,0,0,1-.42-12A4.08,4.08,0,0,0,13.94,66c-.34-.68-.23-1.44.8-1.58a2.57,2.57,0,0,0,.21.24,3.23,3.23,0,0,1,.41,2.72c0,.31,0,.63,0,.95.39,1.56-.78,3-.41,4.53a4.52,4.52,0,0,0,.2,1.46,4.22,4.22,0,0,1,.35.82A.87.87,0,0,1,15.24,76Z"/><path class="cls-86" d="M13.8,97.54c-.73,1.58-1.8,1.11-2.9.49.32-.76,1.43-.15,1.72-1-.28-.68-.81-.25-1.21-.35a1.59,1.59,0,0,1-1.2-1.52c0-.41.56-1,1-1.19.75-.35,1.1.38,1.45.88s.44.81.66,1.21Z"/><path class="cls-27" d="M12.36,87.47c-.07,1-.08,2.12-1.44,2.39-.17-.47-.33-1-.49-1.43C11,87.91,11.45,87.27,12.36,87.47Z"/><path class="cls-64" d="M16.19,85.06c-.4.92,1,2.14-.47,2.89C15.69,87,14.93,85.84,16.19,85.06Z"/><path class="cls-51" d="M4.18,103.78a.89.89,0,0,0-.95,1c-1.85-2.14-1.85-3.52,0-6.24l.45.47c.52,1.56,2.64,3,.5,4.81Z"/><path class="cls-87" d="M4.21,103.8c1.38-1.77-1-3.14-.5-4.81,1.81,1.11,3.25,2.49,3.36,4.79a1,1,0,0,1-1.43,0Z"/><path class="cls-88" d="M10,105.7c-.49-.26-1.13-.54-1.05-1.13s.81-.77,1.31-.73c.88.06,1.74-1.09,2.62-.06C12.67,105.6,10.8,104.88,10,105.7Z"/><path class="cls-48" d="M10,105.7c.52-1.31,2.31-.71,2.88-1.92h.48c.17,1.19-1.46,1.29-1.44,2.4l-1-.47Z"/><path class="cls-89" d="M5.64,103.79H7.07c-.09.63,1.88,1.24,0,1.9-.08-.93-.77-.94-1.45-1C5.64,104.42,5.64,104.1,5.64,103.79Z"/><path class="cls-49" d="M15.24,101.39c.12-.41-.46-1.08,0-1.17s.62.74.92,1.16Z"/><path class="cls-53" d="M20,42.34c-.81.88-.52,2-.41,2.94.54,4.61.72,9.23.91,13.87.46,1.34.15,2.73.2,4.1a.46.46,0,0,1-.77.11,1.93,1.93,0,0,1-.68-1.49c.18-5-1.67-9.83-1.47-14.84a1.77,1.77,0,0,1,.1-.72c0-.25.55-.34.14-.73a2.93,2.93,0,0,1-.77-2.44,23.56,23.56,0,0,0-.72-8.55c-.36-1.68.51-3.94.06-6,.17-2.36.16-4.73.37-7.08.09-1-.1-2.14,1.23-2.53.92,0,1.19.56,1.14,1.36a3,3,0,0,0,.16,1.81c.38.56,1,.91,1.31,1.54s.37,1.4-.05,1.81c-1.62,1.55-1,3-.14,4.61.7,1.37-.3,3.16.83,4.53V38c-.43.41-.79-.56-.77-.27C20.79,39.35,20.11,40.8,20,42.34Z"/><path class="cls-29" d="M21.46,34.66c-.23-.07-.59-.08-.66-.23-1-2.28-.35-5-1.8-7.18-.41-.62.43-.65.73-.95a3,3,0,0,0,.76-2.66C19.26,21,19.43,20.5,21.6,20.69a1.87,1.87,0,0,1,.28,1.71c-.47,3,.11,6-.32,9Z"/><path class="cls-77" d="M21.56,31.41c0-3.06,0-6.11,0-9.17.39-.61-.14-1.74.85-1.95s1.41.94,2.05,1.52A5.39,5.39,0,0,1,25.06,23a2.41,2.41,0,0,1,.12.66,5.71,5.71,0,0,0,.19,3,6.28,6.28,0,0,1-.57,4.13l-.22,0h-.22c-.18-2.3-.35-4.6-.54-6.9-.05-.7,0-1.61-1-1.56s-.72.94-.74,1.53c0,1.59,0,3.18,0,4.77C22,29.61,22.24,30.59,21.56,31.41Z"/><path class="cls-90" d="M20,42.34c-.25-.6-1.65-.79-.25-1.94.85-.7.05-2.59.93-3.82L21.45,38c.71,1.33-.44,2.5-.33,3.78Z"/><path class="cls-51" d="M24.33,31.31a2.93,2.93,0,0,1,.51,3.35A7.13,7.13,0,0,1,24.33,31.31Z"/><path class="cls-51" d="M24.84,34.66c.9,1.19.36,2.56.47,3.85A7.9,7.9,0,0,1,24.84,34.66Z"/><path class="cls-55" d="M29.65,66.34c.49-1.36-.26-2.57-.49-3.83-.44-1.44,0-2.86,0-4.29,1.28-.66.2-1.31,0-1.95-2.13-.08-.39-1.71-1-2.42a1.51,1.51,0,0,1-.44-1c0-1.46,0-2.92,0-4.38v-.36c.35-2.6-.43-5.12-.49-7.68-.35-1.6-.52-3.23-1-4.81h0c0-2.85-.47-5.67-.66-8.5,1.14-.62,1.56.3,1.92,1a8.39,8.39,0,0,1,.81,4.29c-.13,2.12.53,4,.93,5.93-.11.54-.53,1.05-.33,1.61,1,2.79-.45,5.78.42,8.42,1.06,3.25.07,7.31,3.51,9.7a.87.87,0,0,1,.43.81c-.69,3.41.3,7-.74,10.33-.06.23-.3.36-.52.46h0c-.68.46-1,.09-1.21-.54C30.52,68.19,30,67.3,29.65,66.34Z"/><path class="cls-51" d="M25.81,27a24.74,24.74,0,0,1,.46,8.66c-.91-1.42-.41-3-.45-4.5s-.6-.5-1-.33c0-1.59,0-3.18,0-4.77-.22-.44-.38-1,0-1.31s.85,0,1.19.33A1.58,1.58,0,0,1,25.81,27Z"/><path class="cls-91" d="M28.17,52.93c0,.31,0,.62,0,.92-.88.42-.85-.2-.86-.77,0-1-.06-2-.1-3,.1-.65-.22-1.41.49-1.91l0,0C28.33,49.67,27.56,51.36,28.17,52.93Z"/><path class="cls-51" d="M26.26,35.63a7.9,7.9,0,0,1,1,4.81A8.91,8.91,0,0,1,26.26,35.63Z"/><path class="cls-54" d="M29.15,56.27a3,3,0,0,1,1.45,2.45l-1.43-.51C29.17,57.57,29.16,56.92,29.15,56.27Z"/><path class="cls-92" d="M29.65,66.34c1.37.71,1.25,2.48,2.37,3.37-.5.7-1.25.4-1.9.48C29.37,69,29.71,67.63,29.65,66.34Z"/><path class="cls-93" d="M32,69.7c-.16-2.65,1.41-5.29,0-8a.27.27,0,0,1,0-.23c1.68-3-1.15-4.48-2.4-6.39-.39-.58,0-.75-.05-1.06-.23-1.19.61-2.31-.67-3.71-1.06-1.15-1.05-4.17-.41-5.4,1-2,0-3.42-.35-4.82s.51-1.2,1-1.64l.26.21a11.5,11.5,0,0,1,1.07,2.79c-.11,2.45.57,4.8.87,7.2-.59,1.28.3,2.49.25,3.75.26-3,2.88-2.15,4.63-2.76a2,2,0,0,1,1.08.82c-.31.71-1.09,1.18-1.11,2.09.82.49.86-.74,1.45-.72.71,1.65-1.19,1.81-1.73,3.07,1.7-.36,1.93.82,2.1,1.89.22,1.35-1.29.54-1.63,1.17s-1.8.39-1,1.61c.76,1.74.41,3.56.34,5.33,0,1-.64,2-.17,3.17.26.63-.6.79-1,1.08l-.45.42c-.84.63,1,2.93-1.56,2.49C32,71.38,32.27,70.49,32,69.7Z"/><path class="cls-94" d="M32.52,72.11c.28-.37,1.48-.09.77-1.17-.51-.79-.47-1.49.65-1.73,1.6.83,3,1.63,1.21,3.69-.65.75-.51,2-.57,3,0,.86.12,1.78-.63,2.46-1.08-.2-.49-2.06-1.91-1.92C32.29,75,31.43,73.44,32.52,72.11Z"/><path class="cls-58" d="M20.5,63.46c0-1.44,0-2.88,0-4.31A19,19,0,0,1,21,66.84l-.05,0C20.24,65.77,19.72,64.71,20.5,63.46Z"/><path class="cls-85" d="M20.51,76.91c-2,.09-1.3-1.4-1.44-2.41a1.47,1.47,0,0,1-.18-1.86c.74-.62,1.22-.16,1.67.41.63.53.37,1.26.45,1.92C20.91,75.63,21.22,76.4,20.51,76.91Z"/><path class="cls-78" d="M20.56,73.05l-1.5-.46c-1.34-.53-.34-1.11,0-1.69a9.48,9.48,0,0,0-.19-5.58,2.79,2.79,0,0,1-.05-.7c-.32-2.38-1.71-4.57-1.3-7.08.11-3-.9-5.9-.69-8.9.07-.91-.11-2,1.33-2,.94.69-.1,1.48.09,2.15,1.29,4.53,1.44,9.2,1.87,13.84,0,.28.28.54.43.8.15,1.12.31,2.23.46,3.34C20,68.83,20.76,71,20.56,73.05Z"/><path class="cls-95" d="M12.83,46.67c-.86-3.78-2.58-7.3-3.21-11.16-.26-1.57.45-3.41-1.11-4.68-.39-.79-.17-1.8-.9-2.48l-.55-5.21a3.38,3.38,0,0,0-.17-1.41.51.51,0,0,1,.19-.5c.4-2.76-1.24-5.39-.48-8.17A1.73,1.73,0,0,1,8,10.66c.89.08,1.35-.81,2.15-.95,1.62-.28,3.11-.39,3.15,1.92a1.58,1.58,0,0,1,.46,1.27c0,.45-.1,1-.67,1.06s-.64-.38-.78-.72a3.28,3.28,0,0,0-.92-1.3c-.17-.37-.52-.67-.67-.58a4.38,4.38,0,0,0-1.92,3.87c0,2.69.36,5.37.15,8.06,0,.56.49.78.72,1.18A20.69,20.69,0,0,1,10.79,27a4.89,4.89,0,0,1,0,2.12,11.88,11.88,0,0,0,.66,4.73c.6,2.24,1.7,4.36,2,6.68a5,5,0,0,0,1.53,3.13,2.48,2.48,0,0,1-1.39,3.12A.74.74,0,0,1,12.83,46.67Z"/><path class="cls-38" d="M7.08,21.23a3.38,3.38,0,0,1,0,.45c.18.52,0,.62-.5.51l-1,.94c0-.64,0-1.27,0-1.9A1.27,1.27,0,0,0,7.08,21.23Z"/><path class="cls-38" d="M6.12,24.1C7,25,6.45,26,6.57,27a3.05,3.05,0,0,1-.41,0C6.15,26,6.13,25.05,6.12,24.1Z"/><path class="cls-96" d="M37.31,50.51a1,1,0,0,1-1-.48c-2.48-.21-.75-1.89-1-2.88C35.72,45,34.5,43.5,33.3,42c-1.74-2.5-1.71-2.94.33-4.35,1.42-.53,1.43-1.73,1.38-2.95-.06-1.43-.66-2.78-.69-4.22a.4.4,0,0,1,.57-.11h.52a10.84,10.84,0,0,1,1.3,7.07,1.1,1.1,0,0,1-.63.94c-.47.23-1.37.25-.08.77.83.34,1,.83.27,1.82-.54.7.48,1.89,1.11,2.47A2.09,2.09,0,0,1,38,46.17C37.27,47.56,38,49.14,37.31,50.51Z"/><path class="cls-94" d="M34,68.75c.51-.4,2-.31.63-1.58-1.23-1.12,1-1.3.76-2.52-.35-1.59,0-3.34,0-5h.48c.81.19,1.13-.37,1.45-.93l1,1c.24,1.76.24,1.76-1.62,2A4.89,4.89,0,0,1,38.75,64a3.25,3.25,0,0,0,.49,1.92,2.41,2.41,0,0,1-.68,1C37.88,69.65,36.18,70.34,34,68.75Z"/><path class="cls-93" d="M38.75,64,36,61.65c1.55,0,2.46-.55,2.27-2,.32.17.49-1.29,1,0,.58,1.46-.13,2.6-.51,3.84Z"/><path class="cls-93" d="M37.32,58.68c-.09.51.27,1.21-.29,1.51s-.88-.15-1.16-.58Z"/><path class="cls-97" d="M34.89,30.34h-.45a2,2,0,0,1-.66.44c-3,.33-3.38.07-3.2-2,.22-.43.68-.56,1-.84.72-.56-.18-.39-.32-.56a5.66,5.66,0,0,1-2.07-.54c-.55-.34-1.11-.75-1-1.46s.68-.48,1.13-.48c.75,0,.33-.53.35-.82.14-1.89,1.06-2.55,2.87-1.88.34.56.89.47,1.42.48l.48.48c-1,1.67,1,1.61,1.45,2.4v.95a3.35,3.35,0,0,0-1,2.42A1.17,1.17,0,0,1,34.89,30.34Z"/><path class="cls-74" d="M35.87,25.55c-1.54.1-2.4-.84-3.19-1.92.55-.71,1.36.38,1.74-.48C36.41,23,35.74,24.54,35.87,25.55Z"/><path class="cls-98" d="M34.9,28.92c-.37-.08-.91-.52-.7-.59,1-.31-.17-2.47,1.67-1.83C36.08,27.52,35.34,28.16,34.9,28.92Z"/><path class="cls-99" d="M41.63,93.23l-1.17-.85,2.29-.23c-.27-1.25-2-1.66-1.5-3.17,1.76.11,2.94,1.31,4.24,2.32.29,0,.81-.57.81.23a3.62,3.62,0,0,0,.61,2.66c1.22,1.14,1,2.67.75,4s-1.33,1.44-2.46.8-1.47-1.66-2.34-2.36a2.38,2.38,0,0,1-.47-.48c-.38-.74-.35-1.65-.9-2.34A.55.55,0,0,1,41.63,93.23Z"/><path class="cls-97" d="M42.6,96.1c1.67-.33,1.41,1.68,2.52,2.1.53.2.85,1,1.61.57a1.2,1.2,0,0,0,.46-1.65c-.36-1,.61-2-.28-2.93,1.37,1,2,2.47,2.89,3.83l0,1c-.69.31-1.48.26-2.14.82a3.17,3.17,0,0,1-4.09.15h0C42.72,98.8,41.91,97.63,42.6,96.1Z"/><path class="cls-100" d="M43.55,100c1.57-.13,3.29.51,4.51-1.19.42-.58,1.16,0,1.72.22-.15.48-.31,1-.47,1.43-1.75-.68-2.66,1.28-4.33,1.33S42.71,101.62,43.55,100Z"/><path class="cls-101" d="M34,68.75c1,1.11,1.92-.27,2.94-.19,1.85.14.42-1.31.78-1.92.1-.16.39-.2.59-.29a2.51,2.51,0,0,1,.8,1.43A37.51,37.51,0,0,1,39.7,74c0,.16,0,.32,0,.48a6.86,6.86,0,0,0-1.24,3.7c0,.72.48.24.77.15,1.76,1.64.76,3.79.07,5.08-.89,1.67-.8,2.2.78,2.84.24.09.35.49.52.74-.82.68-2.27-.58-2.82.93.06.1.12.2.17.3a.77.77,0,0,1-.49.44,1,1,0,0,1-.92-.37,3.5,3.5,0,0,1-.42-2A10,10,0,0,0,34,78.35h0c.11-1.41,0-2.82.16-4.25a3.33,3.33,0,0,1,1.76-2.88c-.76-.72-2-.78-1.93-2C34,69.06,34,68.9,34,68.75Z"/><path class="cls-94" d="M39.7,74a15.76,15.76,0,0,1-1-6.24c.13-.82,0-2,1.44-1.43v1.9a1.54,1.54,0,0,0,0,1.93C41,71.6,39.92,72.76,39.7,74Z"/><path class="cls-102" d="M39.24,78.36c-.13,1.09-1.19.62-1.8,1a4.33,4.33,0,0,0,.72-2.88,1.83,1.83,0,0,1,1.55-2c1.31.93,1.44,1.82-.07,2.68C39.18,77.46,38.49,77.67,39.24,78.36Z"/><path class="cls-93" d="M40.19,66.36c-1.06-.1-.8,1.12-1.44,1.43-.57-.34-.46-.91-.48-1.44l1-.48A1,1,0,0,1,40.19,66.36Z"/><path class="cls-93" d="M40.19,70.19c-1.22-.64-.66-1.29,0-1.93Z"/><path class="cls-100" d="M42.6,96.1c.15,1.33,1,2.47.95,3.85H41.64c-1-1.84-1.43-4.1-3.83-4.81.62-1.19-1.59-1.21-1-2.39.32-.65.75-1,1.44-.48a4.07,4.07,0,0,0,3.36,1c0,.16,0,.32,0,.47.77.62.16,1.79,1,2.4Z"/><path class="cls-101" d="M38.27,92.27l-1.44.48c-1-.92-1.72-2-1-3.38,1.11.64,1.4-.39,1.92-.94h0c1.25.58.66,1.53.48,2.4Z"/><path class="cls-100" d="M38.28,90.83c-.12-.81.32-1.73-.48-2.4,0-.16,0-.32,0-.48C39.84,88.59,38.65,89.78,38.28,90.83Z"/><path class="cls-27" d="M12.36,57.7c1.07,1.66.76,3.67.66,5.32-.37,6.24,0,12.46-.18,18.68a3,3,0,0,1-.45-1c0-6.53,0-13.05-.05-19.58C12.35,60,12.35,58.83,12.36,57.7Z"/><path class="cls-27" d="M10.44,46.66l1.43,2.41c-.74-.33-1-.06-1,.72,0,1.36,0,2.72,0,4.08C9.86,51.53,10.71,49.06,10.44,46.66Z"/><path class="cls-27" d="M11.87,50c1,2.5.24,5.12.49,7.67C11.35,55.2,12.12,52.58,11.87,50Z"/><path class="cls-103" d="M31.07,28.43C30.23,31.79,33,29.78,34,30.35c.95,1.48.27,3.38,1.39,4.93.46.63-1,1.42-1.26,2.33-1.07.56-2.17,1.21-2.66-.65-.2-.78-1.06-.87-1.48-1.42.4-1,.74-2-.58-2.74a1.87,1.87,0,0,1-1-1.57,15.67,15.67,0,0,0-1-5.54c-.17-.46-.09-1.16.78-1.11.68-.06,1.08-.41.84-1.1-.59-1.65.3-3.06.59-5.32.54,1.53,1,2.29,2.19,1.7.59-.28,1.63-.24,1.84.59.28,1.11-.81.56-1.28.79-.91.44.21.61.15,1-2.44,0-2.81,1.3-2.05,3.31-.72.54-1.27-.53-1.95-.25C29,27,30.6,26.34,31.55,27,31.59,27.53,31.19,27.93,31.07,28.43Z"/><path class="cls-1" d="M18.58,19.3c-1.31.22-.87,1.26-.94,2.05-.22,2.51.06,5.06-.49,7.55-.7.42.46,1.86-1,1.85a17.89,17.89,0,0,1-.48-10.9c0-.23.1-.45.16-.67.18-1.56.59-3-1.49-4-1.09-.52-.76-2.35,0-3.59v-.7c0-4.25.18-4.4,4.63-4A4.37,4.37,0,0,0,20,6.82c1-.31,1.14,2.07,2.42.9s1.63.9,2.56.44c.19,1-2,0-1.13,1.55-.33.48-.65.49-1,0-1.94-1.5-4-1.11-6-.3-1,.4-1.64.93-1,2.09a6.28,6.28,0,0,0,2,3.74c.72.92,2.64-.27,2.82,1.6a1.32,1.32,0,0,1-.45.46c-.5.46-1.75.2-1.43,1.47A.53.53,0,0,1,18.58,19.3Z"/><path class="cls-93" d="M28.19,24.58c-.71.52-.4,1.11-.1,1.69.72,1.35,1.41,2.66.66,4.29a1.28,1.28,0,0,0,.73,1.61c1.69.89,2.16,2,.63,3.46.49,1.22.57,2.31-.95,2.88h0a9.2,9.2,0,0,1-1.37-6.12c.15-1.53.33-4.23-2-5.41,0-.63,0-1.26,0-1.89A2.21,2.21,0,0,1,26,23.25a3.91,3.91,0,0,1,.31-.57,6.23,6.23,0,0,0,.37-4.77c-.27-.94-.53-1.86.6-2.44,2.54-.21,1.76,2.25,1.55,2.81A11.08,11.08,0,0,0,28.19,24.58Z"/><path class="cls-104" d="M17.63,15.48c-1.25-1-2.62-1.9-1.93-3.84,1-3.29,2.72-3.61,5.29-1,.11.5,1.24.19.79,1.43-.29.81-.73,2.29.17,3.35A5.1,5.1,0,0,1,17.63,15.48Z"/><path class="cls-105" d="M27.23,15.47a2.73,2.73,0,0,0-.07,2.21c.46,1.85,1.12,3.93-.9,5.45-1.15-.83-1-2-.91-3.2.32-1.46-.39-1.91-1.68-1.59-.9.22-1.74.78-2.67.14a.88.88,0,0,1-.15-.63c1.63-1.64,3.19-3.44,5.91-2.39Z"/><path class="cls-106" d="M21,10.68c-.08,0-.18,0-.23,0C18.68,9,17,9.22,15.7,11.64c-1.9-.94-.89-2,.12-2.55A14.79,14.79,0,0,1,19.7,7.88,3.33,3.33,0,0,1,22.91,9.7C22.15,9.79,21.15,9.39,21,10.68Z"/><path class="cls-93" d="M26.76,15.46A17.19,17.19,0,0,0,21,17.86c-.51.29-.81,0-1.09-.38A.51.51,0,0,1,20,16.9h.47c1,.41.72-1,1.45-1,1.37-.54,2.09-2,3.66-2.38.83-.19,1.74-.37,2.17.21C28.54,14.79,27,14.79,26.76,15.46Z"/><path class="cls-107" d="M22,16c-.36.51-.37,1.54-1.45,1a1.09,1.09,0,0,0-1.64-.65c-.73.32-1.15,0-1.24-.78l4.32,0Z"/><path class="cls-94" d="M34,78.35c3.19,1.71,2.71,4.88,2.77,7.65,0,.78.42,1.62.11,2.42-.19.43-.43.75-1,.48-.33-1-.25-2.05-.95-2.88A3.79,3.79,0,0,0,35,82.79a11.46,11.46,0,0,0-1.56-2.56C32.73,79.36,35.26,79.37,34,78.35Z"/><path class="cls-33" d="M34,87.47a1.16,1.16,0,0,1,0-1.92,1,1,0,0,0,1,.48A1.45,1.45,0,0,1,34,87.47Z"/><path class="cls-100" d="M35.87,88.9l1-.48h1c-.08.81.31,1.91-.85,2.18-.82.19-1-.59-1.07-1.24Z"/><path class="cls-44" d="M7.61,28.35c1.4.44.72,1.61.9,2.48,0,.52.08,1.08-.43,1.45C7.92,31,7.77,29.66,7.61,28.35Z"/><path class="cls-44" d="M6.59,22.19l.5-.51c.56.5.62,1,0,1.46A1,1,0,0,1,6.59,22.19Z"/><path class="cls-108" d="M14.28,11.63a1.54,1.54,0,0,0,0,.48c.37.92-.8,2.15,1.15,2.89,1.12.43,2,2.59.77,4.31-2.54-.91-3.91-2.87-4.75-5.3a2,2,0,0,0-.8-.82c-.59-.27-1.66-.38-1.27-1.3s1.28-.64,2-.27c1.57-.24,1.34,1.07,1.61,2,.53-.67.2-1.37.31-2Z"/><path class="cls-78" d="M12.83,46.67h.48c.61,0,1.59,0,1.44.79-.39,2.12,1,3.94.77,6-.13,1.4-.2,3.07,1.64,3.8.33.13.3.7.37,1.08a6,6,0,0,0-1.48,5.1,1,1,0,0,1-1.29,1l0,0c-1-3-.64-6.32-1.44-9.42C12.6,52.25,12.87,49.45,12.83,46.67Z"/><path class="cls-109" d="M19.55,71.15c-.06.51-1.45.58-.49,1.44,0,.64,0,1.28,0,1.91-1,.48-2.63.49-1.41,2.31-.94.17-1.3-.65-1.94-.86-.38-.37-.18-.76-.06-1.14a.88.88,0,0,0-.18-1A2.48,2.48,0,0,1,15,73a10.56,10.56,0,0,1,.32-2.56,1.87,1.87,0,0,1,.35-.57c.83-.73,1.89-.67,2.88-.84a1.19,1.19,0,0,1,.63.21A4.54,4.54,0,0,1,19.55,71.15Z"/><path class="cls-36" d="M16.19,75a1,1,0,0,0-.47,1h-.48V75c-.13-.68.21-1.09.85-.94C16.49,74.14,16.47,74.63,16.19,75Z"/><path class="cls-110" d="M14.76,64.43c1.18-.6,1-1.62.81-2.65-.49-2.36-.49-2.35,1.48-2.71.08,0,.07-.58.1-.88.22-.37.42-.75,1-.49,0,1.85-.05,3.67,1.12,5.28a1.31,1.31,0,0,1-.15,1.93C17.57,63.42,16.8,63.3,16,66.85c-.31.38-.65.68-1.19.46C15.35,66.35,14.54,65.39,14.76,64.43Z"/><path class="cls-64" d="M14.76,67.31l1-.48c1.92-.35,2.3,1.15,2.88,2.4-.78.86-2.06.21-2.88,1-.39-.6-.11-1.54-1-1.92Z"/><path class="cls-36" d="M14.76,68.26c2.15-.27,1.61.8,1,1.92h0c-.48.82,0,1.9-.75,2.65l-.21.24a2,2,0,0,1-.11-2.57A3.16,3.16,0,0,0,14.76,68.26Z"/><path class="cls-64" d="M16.19,75c0-.26,0-.68-.38-.6-.22,0-.39.39-.57.6l-.49-.47c-.11-.76.2-1.09,1-1C16.73,73.74,17,74.19,16.19,75Z"/><path class="cls-36" d="M15.72,73.55a1.67,1.67,0,0,0-1,1c-.76-.48-.12-1,0-1.44h0c.16-.22.32-.23.48,0Z"/><path class="cls-1" d="M18.11,57.7l-1,.49c-2.54-1.33-1.82-3.64-2.25-5.84-.34-1.8.09-4.16-1.59-5.68a4.44,4.44,0,0,0,1.44-2.87c-1.54-2.33-1.05-3.31,1.76-3.49,1,.34.74,1.17.85,2,.18,1.31,0,2.7.74,3.92,0,.16,0,.32,0,.48-1.63,1.1-.51,2.7-.57,4C17.44,53,18.32,55.32,18.11,57.7Z"/><path class="cls-78" d="M18.1,46.19c-1.86-.86-.76-2.59-1-3.87-.17-.77,0-1.5-.86-1.9l-.2-.27A9.51,9.51,0,0,0,15.67,35a5.71,5.71,0,0,1,.28-4l.25-.23c.78-.41.17-1.51.95-1.93.34,1.77,1.22,3.44-.2,5.32-.42.56.59,2.29,1.09,3.41.27.59.81,1.23.5,1.77-1.29,2.26-.72,4.45,0,6.67Z"/><path class="cls-51" d="M20.06,17.36l.94.5v.48c1.64.53,3.47.59,4.79,1.92a7.37,7.37,0,0,0,.47,2.87h0a1,1,0,0,1-1.42,0h0c-.22-.3,0-.81-.49-1a3.09,3.09,0,0,1-1.59-1.61c-1,.23-.67,1.27-1.23,1.7,0-.5-.05-1-.07-1.49-.75-.57-1.43-.72-1.64.45-.11.6,0,1.24-.76,1.47-1.25-1,.36-2.35-.49-3.37v-.47C18.82,18.09,19,17.28,20.06,17.36Z"/><path class="cls-111" d="M19.07,22.67c.18-.61.34-1.22.54-1.81s.24-1.24.87-1.28.71.72,1,1.17c-2.68.17-.14,2.1-1,2.89Z"/><path class="cls-105" d="M24.84,23.14h1.42a3.19,3.19,0,0,1-.47,1.95c-1.2-.58-.88.4-1,1C23.8,25.05,24.83,24.1,24.84,23.14Z"/><path class="cls-105" d="M24.36,22.15c.21-.28.57-.48.71-.1s-.14.72-.22,1.09A1,1,0,0,1,24.36,22.15Z"/><path class="cls-52" d="M28.17,52.93c-.9-1.54-.29-3.22-.44-4.83C28.65,49.64,28,51.32,28.17,52.93Z"/><path class="cls-112" d="M29.84,62.15A3.12,3.12,0,0,1,29.77,60C30.67,60.7,30.65,61.37,29.84,62.15Z"/><path class="cls-113" d="M34,41.87c1.06,1.6,2.52,3.06,1.92,5.27-.3.49-.95.64-1.2,1.13-1.19,2.32-1.92,2.39-3.6.32-1.4-.18.3-2-1.15-2.16,1.1-1.64-.87-3.4.19-5C31.56,40.2,32.73,41.2,34,41.87Z"/><path class="cls-114" d="M34,41.87c-1.3,0-2.51-.72-3.84-.48a4.54,4.54,0,0,1-.95-2.88c.71-.83.62-1.93.95-2.88.8-.08,1.93-.63,1.88.84-.07,1.88,1,1.26,2,1.07a.28.28,0,0,1,.12.32C34,38,34,38,34,38,31.05,39.3,33.24,40.59,34,41.87Z"/><path class="cls-98" d="M31.07,48.59a9,9,0,0,0,1.41.85c.51.18,1.22.33,1.56-.13.64-.86-1-.54-.73-1.46l2.56-.71c.11.43.67,1,.14,1.27-1.67,1,.07,1.12.34,1.62C35,50,34.1,51.23,32.58,51c-.71-.12-.56,1.29-.44,2.06.08.5,0,.77-.54.8-.32,0-.87-.16-.75-.35C31.81,51.87,29.8,50.15,31.07,48.59Z"/><path class="cls-115" d="M18.59,69.23c-1.24-.47-1.37-2.26-2.88-2.4a10.27,10.27,0,0,1,.17-2.1c.22-.71.44-1.7,1.47-1.55s1.94.37,1.73,1.73c0,.16,0,.32,0,.48a15.91,15.91,0,0,1,0,3.84Z"/><path class="cls-110" d="M19.07,69.23c-.56-1.28-.87-2.56,0-3.84,1.47,1.81.74,3.8.49,5.76C18.86,70.64,19.15,69.89,19.07,69.23Z"/><path class="cls-116" d="M16.2,40.42C14.35,41,14,42.13,14.75,43.8A1.33,1.33,0,0,1,13.42,43c-.73-2.42-1.38-4.87-2.09-7.3-.2-.68.21-1.37-.76-2.08-1.32-1-.53-2.78-.5-4.24A15.77,15.77,0,0,1,10.43,27l.33-.08c.82.5.67,1.39.81,2.14a4.87,4.87,0,0,0,2.85,4,8.46,8.46,0,0,1,1.78,7.33Z"/><path class="cls-117" d="M11.87,14c.77,2.32,2.77,3.62,4.33,5.29h0c-.8.63-.2,2.68-2.16,2.14-1.3-.95-1.67-2.72-3-3.77C10.88,21,12.33,24,10.44,27v0a2.9,2.9,0,0,1-1-2.41c-.87-1.63.27-3.4-.36-5-.26-2-.18-3.85,1.4-5.35A1.34,1.34,0,0,1,11.87,14Z"/><path class="cls-118" d="M11.87,14l-1,.48c-2.13,1.11-1.77,3-1.43,4.8,1.19,1.77.06,3.53,0,5.29-.79-.1-1.4-.36-1.24-1.34a23.21,23.21,0,0,0-.14-7.71c-.29-1.75,1.42-4.51,2.77-4.8.9-.18.37.58.54.88-.56.11-1.24-.25-1.8.58C10.52,12.62,12.28,12.15,11.87,14Z"/><path class="cls-98" d="M34,38v-.48c1.77-2.39-.87-4.8,0-7.19.16,0,.32,0,.48,0a9,9,0,0,1,.84,6.84C35,38.14,34.51,37.94,34,38Z"/><path class="cls-119" d="M31.07,28.43c-.84-.81,0-1.08.48-1.45.64.09,1.71-.16,1.53.83S31.8,28.34,31.07,28.43Z"/><path class="cls-97" d="M42.6,96.1c-1.55-.31-.76-1.55-1-2.4C43.17,94,42.39,95.26,42.6,96.1Z"/><path class="cls-120" d="M35,76.34c-.19-.23-.41-.37-.42-.53s.08-.51.21-.56c.36-.14.57.12.56.45C35.31,75.88,35.13,76.06,35,76.34Z"/><path class="cls-108" d="M13.79,21.22c1.72.51,1.07-1.95,2.41-1.91-.9,3.84-.35,7.68,0,11.52h0c-.36.3-.17.83-.49,1.15a2.59,2.59,0,0,1-1.55.46c-1.14-.88-.24-1.95-.23-2.92s.33-1.83.4-2.76c.17-1.39.28-2.76-.79-3.93a1,1,0,0,1,0-1.46Z"/><path class="cls-53" d="M20.06,17.36l-1.48,1.47c-1-.23-1.34-.7-.35-1.35A7.38,7.38,0,0,1,20,16.9C20,17.06,20.05,17.21,20.06,17.36Z"/><path class="cls-121" d="M25.79,20.26c-2,.28-3.15-1.38-4.79-1.92a3.2,3.2,0,0,0,2.27-.54,1.62,1.62,0,0,1,2.36.18C26.31,18.68,26.64,19.44,25.79,20.26Z"/><path class="cls-64" d="M15.24,73.06h-.48c.33-1,.24-2,1-2.88A4.86,4.86,0,0,1,15.24,73.06Z"/><path class="cls-1" d="M15.71,31.78a1,1,0,0,1,.49-1,21.25,21.25,0,0,0,.59,6.93c.21,1.11-.6,1.75-.59,2.66-.81-.68-.35-1.42-.16-2.19.25-1,.42-2.09-.94-2.58s-.28-1.72-.84-2.44a.4.4,0,0,1-.14-.35c0-.13,0-.19.06-.19C14.64,32.3,15.32,32.28,15.71,31.78Z"/><path class="cls-122" d="M14.28,32.75c0,.15,0,.3,0,.46-2.84-.06-3-2.24-3.33-4.24-.11-.69.18-1.46-.49-2,.13-2.39.26-4.77.37-7.16a1.62,1.62,0,0,0-.18-.9c-.35-.6-1-1.14-.4-1.91.24-.32.49-.31.67.11.32.74,2.63-.9,1.68,1.5-.38,1,2.11,1.11,1.21,2.62h0a2.17,2.17,0,0,1-1.29.47c1.55,1.42,1.87,3.37,2.25,5.3s-.86,3.47-.48,5.29c.12.1.17.2.13.31S14.32,32.75,14.28,32.75Z"/><path class="cls-108" d="M9.48,19.3c-1.06-1.38-.34-2.86-.12-4.26.08-.48.67-1.41,1.55-.54C9.54,15.83,9.41,17.54,9.48,19.3Z"/><path class="cls-117" d="M14.75,27c-.22-1.54-1.75-2.46-1.8-4.17,0-1-1.3-.38-2.13-.57.77-1.59,2-.81,3-1-.11.36-.43.79-.06,1.09C15.3,23.62,15.26,25.24,14.75,27Z"/><path class="cls-116" d="M14.28,32.75c0-.16,0-.32,0-.47.34-.57.91-.48,1.44-.5C15.67,32.76,15,32.75,14.28,32.75Z"/></g></g></svg>