<svg xmlns="http://www.w3.org/2000/svg" viewBox="0 0 52.85 66.2"><defs><style>.cls-1{fill:#43393c;}.cls-2{fill:#3e3638;}.cls-3{fill:#7d7176;}.cls-4{fill:#423c41;}.cls-5{fill:#b6adb6;}.cls-6{fill:#1d1b1b;}.cls-7{fill:#282729;}.cls-8{fill:#020102;}.cls-9{fill:#cdc1d1;}.cls-10{fill:#3e3538;}.cls-11{fill:#5b4a52;}.cls-12{fill:#342b2e;}.cls-13{fill:#b19aa7;}.cls-14{fill:#675e5f;}.cls-15{fill:#0b0607;}.cls-16{fill:#362e32;}.cls-17{fill:#433e3d;}.cls-18{fill:#675f60;}.cls-19{fill:#d1d0d0;}.cls-20{fill:#443f3d;}.cls-21{fill:#332d2e;}.cls-22{fill:#e2d6e4;}.cls-23{fill:#cec0d3;}.cls-24{fill:#dcd5de;}.cls-25{fill:#d1cbd9;}.cls-26{fill:#2d272c;}.cls-27{fill:#0d070b;}.cls-28{fill:#e3dcec;}.cls-29{fill:#252025;}.cls-30{fill:#282125;}.cls-31{fill:#0a0608;}.cls-32{fill:#010000;}.cls-33{fill:#cfc6d2;}.cls-34{fill:#251f21;}.cls-35{fill:#e3d7e7;}.cls-36{fill:#3a3234;}.cls-37{fill:#e0d8e5;}.cls-38{fill:#6e6067;}.cls-39{fill:#cdc4d4;}.cls-40{fill:#2c2429;}.cls-41{fill:#e0d4e5;}.cls-42{fill:#e0dce1;}.cls-43{fill:#d2c9d6;}.cls-44{fill:#d3c8d7;}.cls-45{fill:#ece4ef;}.cls-46{fill:#d8c8dd;}.cls-47{fill:#373131;}.cls-48{fill:#453b35;}.cls-49{fill:#d7c6df;}.cls-50{fill:#fbf6f9;}.cls-51{fill:#e1cfe4;}.cls-52{fill:#ded4e4;}.cls-53{fill:#eae4ec;}.cls-54{fill:#0e0c0d;}.cls-55{fill:#464044;}.cls-56{fill:#e9e2ea;}.cls-57{fill:#9a8794;}.cls-58{fill:#2f282b;}.cls-59{fill:#342d33;}.cls-60{fill:#e2d6e8;}.cls-61{fill:#ddcee3;}.cls-62{fill:#d7c9df;}.cls-63{fill:#2e2828;}.cls-64{fill:#d1c7d6;}.cls-65{fill:#c7b7b3;}.cls-66{fill:#382d2a;}.cls-67{fill:#d9cdda;}.cls-68{fill:#372f2c;}.cls-69{fill:#392f2c;}.cls-70{fill:#41393d;}.cls-71{fill:#e6dde6;}.cls-72{fill:#e3d6e9;}.cls-73{fill:#cfbcaa;}.cls-74{fill:#a796a0;}.cls-75{fill:#080708;}.cls-76{fill:#373034;}.cls-77{fill:#dac2b3;}.cls-78{fill:#4c4440;}.cls-79{fill:#4b403f;}.cls-80{fill:#d1c3d7;}.cls-81{fill:#cabdd0;}.cls-82{fill:#f9f2f7;}.cls-83{fill:#5d4f56;}.cls-84{fill:#302827;}.cls-85{fill:#d8d0d9;}.cls-86{fill:#3d3531;}.cls-87{fill:#272420;}.cls-88{fill:#332a29;}.cls-89{fill:#423b36;}.cls-90{fill:#665e62;}.cls-91{fill:#403c3a;}.cls-92{fill:#90868e;}.cls-93{fill:#5c5c5f;}.cls-94{fill:#e3ccb5;}.cls-95{fill:#dbc6af;}.cls-96{fill:#d9bfa5;}.cls-97{fill:#e1ccb6;}.cls-98{fill:#dfc9b1;}.cls-99{fill:#16100c;}.cls-100{fill:#201d1f;}.cls-101{fill:#e6d1bc;}.cls-102{fill:#d4c4b2;}.cls-103{fill:#362d25;}.cls-104{fill:#54463b;}.cls-105{fill:#382f26;}.cls-106{fill:#dacdbf;}.cls-107{fill:#19110a;}.cls-108{fill:#594a3e;}</style></defs><title>computer</title><g id="Layer_2" data-name="Layer 2"><g id="Layer_1-2" data-name="Layer 1"><path class="cls-1" d="M.5,6C.06,5.77.1,5.33,0,5L.58,4A5.24,5.24,0,0,1,2.1,1.15l.74,0c1.44,1.25,3.1-.57,4.57.34-.4.78-1.21,1-1.9,1.32a4.43,4.43,0,0,1-1,.25c-.31.06-.62.13-.93.22C1.48,4.57,2.57,6.65,2.34,8.4a1.31,1.31,0,0,1-.45.54.83.83,0,0,1-1-.19C.58,7.86,1.18,6.83.5,6Z"/><path class="cls-2" d="M49,63.85c-1.31.88-2.91-.13-4.24.63l-1,.07a2.29,2.29,0,0,1-1.1.16c-.84-.16-1.82.05-2.35-.91.68-1.27,1.91-.78,2.95-.94s2.39.44,3.33-.65c.78-1.07-.13-2.69,1.16-3.59,1.16.68,1,1.56.38,2.51-.05,1-.39,2,.85,2.53Z"/><path class="cls-3" d="M3.13,65.82a.54.54,0,0,0-.06-.35c.87-1.72.08-3.58.44-5.34a3.27,3.27,0,0,0,.18-1.61c0-.83.41-1.13,1.21-.85a8.9,8.9,0,0,1,0,3.81c-.48,1.31-.16,2.7-.37,4l-.63.67H3.52A.37.37,0,0,1,3.13,65.82Z"/><path class="cls-4" d="M15.43,1.05C17.3.34,19.24.73,21.16.67a.38.38,0,0,1,.18.31c0,.13,0,.19-.06.19-.74.64,1.29.9.23,1.59-2.23.91-4.56.27-6.84.47-1.23,0-2.46,0-3.7,0A3.82,3.82,0,0,1,9.76,3a1.54,1.54,0,0,1-.65-.47.51.51,0,0,1,.28-.65,17.48,17.48,0,0,1,4.15-.29C14.21,1.55,15,1.76,15.43,1.05Z"/><path class="cls-5" d="M44.69,0c.78.29,1.83-.34,2.4.69a1.58,1.58,0,0,1-.69.44,41.14,41.14,0,0,1-4.84.19c-2.26.93-4.58.74-6.92.45-1.18-.15-2.53.36-3.43-.87a.5.5,0,0,1,.55-.49C34.19,0,36.61.57,39,.41,40.9-.06,42.81.16,44.69,0Z"/><path class="cls-5" d="M31.23.2a.72.72,0,0,0,.2.29,2,2,0,0,0-.22.27c-1.51,1.78-3.54.71-5.33,1a2.47,2.47,0,0,1-1.15-.36.47.47,0,0,1-.14-.69Z"/><path class="cls-6" d="M9.21,2.09a2.61,2.61,0,0,1,0,.4,2.82,2.82,0,0,1-3.81,0,4.11,4.11,0,0,1,2-1l1.8.08c.17.11.22.22.17.33S9.27,2.09,9.21,2.09Z"/><path class="cls-7" d="M15.43,1.05c0,1.11-.81,1-1.56.93-1.23-.49-2.62.29-3.83-.46C11.77.56,13.66,1.46,15.43,1.05Z"/><path class="cls-8" d="M10,1.52c1.25.45,2.64-.33,3.83.46l-4.66.11V1.6Z"/><path class="cls-9" d="M24.59.68c0,.12,0,.24,0,.35a2.09,2.09,0,0,1-3.18,0,1.15,1.15,0,0,1-.21-.33Z"/><path class="cls-10" d="M4.49,65.52a3.8,3.8,0,0,1-.15-3.89l.27.2c.42,1,.57,2.21,2,2.37,4.38.2,8.75,0,13.12.09a6.48,6.48,0,0,1,3.05.37.77.77,0,0,1,.36.74l-16.32,0Z"/><path class="cls-11" d="M1.15,8.77l.8,0,.31.29c.68,1.48.32,3,.37,4.58-.52,2.79.54,5.62-.17,8.41-.54,3.56-.17,7.14-.24,10.7-.07,3.26,0,6.51,0,9.77,0,1,.21,2.1-.76,2.86a22.61,22.61,0,0,1-.32-2.59C1.05,35,1,27.2,1,19.39.9,15.85.08,12.3,1.15,8.77Z"/><path class="cls-12" d="M1.43,45.42c.05-7.05.09-14.1.16-21.15,0-.84-.29-1.76.39-2.51.91.88.69,2,.75,3.11.11,2.28-.11,4.55,0,6.83.11,4.4-.28,8.82.23,13.21a6.09,6.09,0,0,1,.17.85c0,1.83.33,3.68-.27,5.49-.58.76-.94.23-1.31-.22Z"/><path class="cls-13" d="M1.15,8.77,1,19.39A24.31,24.31,0,0,1,.38,11,37.53,37.53,0,0,0,.5,6C1.48,6.74.79,7.88,1.15,8.77Z"/><path class="cls-14" d="M4.94,57.78c-1.7,0-.54,1.82-1.43,2.35a2.77,2.77,0,0,0-1-2.33.79.79,0,0,1-.14-.94A5.21,5.21,0,0,1,5,56.23a3.27,3.27,0,0,1,1.69.3.71.71,0,0,1,.31.58c-.26.61-.85.69-1.39.84A.85.85,0,0,1,4.94,57.78Z"/><path class="cls-15" d="M2.56,56.73c0,.36-.05.72-.08,1.07l-.24,0L2,57.74c-.73-1.21.16-2.62-.45-3.84L1.51,51l.92.53c1.08,1,.59,2.38.7,3.61A2.19,2.19,0,0,1,2.56,56.73Z"/><path class="cls-14" d="M1.57,53.9c.9,1.19.31,2.56.45,3.84-.5,0-1.45,0-1-.56C2,56.09,1.22,54.94,1.57,53.9Z"/><path class="cls-16" d="M23.13,65.4V65l.31-.3a29,29,0,0,1,10,0,.52.52,0,0,1,.25.73Z"/><path class="cls-16" d="M39.93,65l-1.43-.14c0-.75.58-.79,1.12-.87.89.35,1.88,0,2.76.44-.16,1.13-.87.71-1.49.53Z"/><path class="cls-17" d="M49.94,7.87a27.66,27.66,0,0,1,.1,5.46c.56,2.3-.17,4.68.41,7l.09,2.22c0,1.39,1,2.93-.56,4.12-1.23-.67-1.1-1.86-1.11-3,0-4.24,0-8.48,0-12.72C49.06,9.88,48.38,8.48,49.94,7.87Z"/><path class="cls-18" d="M49.94,7.87c-.77.88-.13,2-.51,3a.63.63,0,0,1-.65-.29A6,6,0,0,1,48.42,8a10.85,10.85,0,0,1,0-1.14,2.49,2.49,0,0,1,.48-1.44,1,1,0,0,1,1.1,0A.84.84,0,0,1,50,6.4Z"/><path class="cls-19" d="M50,6.4l0-.93c-.75-1.24-2.34-2-2.14-3.78,1.17.17,1.59,1.38,2.56,1.84.05.51,0,1.07.44,1.45C50.69,5.5,50.57,6.08,50,6.4Z"/><path class="cls-20" d="M50.45,20.31c-.94-2.28-.23-4.66-.41-7A25.93,25.93,0,0,1,50.45,20.31Z"/><path class="cls-20" d="M50,26.56c1-1.24.23-2.7.53-4L51,25.11l-.12,1.95c-.3.35-.07,1.21-1,1a1.35,1.35,0,0,1-.29-.6A1,1,0,0,1,50,26.56Z"/><path class="cls-21" d="M50.09,28l.81-.94c.56,7.52-.18,15.06.28,22.59.07,1.26.19,2.53.29,3.79v.47c.31.58,1.09,0,1.39.56-.23,1.41-1.66.78-2.36,1.39a2.41,2.41,0,0,1-2.8.11,1,1,0,0,1-.19-1.12c2.43-.52,2.56-2.29,2.32-4.27q0-9.16,0-18.32a8.43,8.43,0,0,0-.22-2.6A1.67,1.67,0,0,1,50.09,28Z"/><path class="cls-22" d="M2.05,31.72c0-3.32.44-6.64-.07-10,0-1.91.43-3.84-.41-5.71-.39-.86.37-1.62.44-2.45a11.24,11.24,0,0,0,.06-4.83L2,8.81l.13-.5c1.15-1-1-3.16.91-3.32a7.89,7.89,0,0,1,3.21.26,4.47,4.47,0,0,0,1.42,0c.76.08,1.82-.08,2,.78s-.76,1.24-1.49,1.5-1,.67-.24,1.25a5.3,5.3,0,0,1,.39,3.46c-.77,3.21,0,6.55-.82,9.76a6.62,6.62,0,0,1-.38,1.86c-1.51-.12-1.63-.37-1.38-2.62-.33,1.57.54,3.35-.72,4.77-1.24.17-1-.86-1-1.41.16-1,0-2.07.11-2.58C4,25,4.7,28.58,2.69,31.72A.37.37,0,0,1,2.05,31.72Z"/><path class="cls-23" d="M7.76,5.91c-1.67-.14-3.41.24-5.14-.77.13,1.16.89,2.42-.54,3.17-.59-2.16-.83-4.24,1.37-5.73C3.8,3.15,4,4,4.94,3.72c1.24-.3,1.77.62,2.45,1.32a1.42,1.42,0,0,1,.49.35A.4.4,0,0,1,7.76,5.91Z"/><path class="cls-24" d="M7.77,5.44c-.4-.29-1.31.63-1.35-.7,0-1-.85-.44-1.43-.37C3.66,4.52,3.05,4,3.45,2.58l1,.06a18.91,18.91,0,0,0,5.26,0l1,0c.28.24.84.08.93.56s-.36.72-.71.74C9.62,4,8.8,4.93,7.77,5.44Z"/><path class="cls-23" d="M9.68,2.66a7.61,7.61,0,0,1-5.26,0l1-.14a12.17,12.17,0,0,0,3.81,0Z"/><path class="cls-25" d="M47.19,62.54c-.27,1.13-1.2.77-1.93.84-1.65.17-3.33,0-4.93.56-.26.35-.64.28-1,.29-.62,0-1.2.26-1.82.21a1.42,1.42,0,0,1-1-.38c.44-1.64,1.33-2.42,3.11-1.79a10.35,10.35,0,0,0,2.37.16c2.18.22,3.76-.36,4.1-2.82a1.37,1.37,0,0,1,.67-1,.42.42,0,0,1,.58.31A13.78,13.78,0,0,1,47.19,62.54Z"/><path class="cls-26" d="M47.19,62.54,47,58.92c-.45-.85-.79-1.68.51-2.11.05.59.09,1.18.14,1.76C47.32,59.87,48.06,61.3,47.19,62.54Z"/><path class="cls-27" d="M39.46,64l.87-.1c.79.35,1.79-.29,2.48.53l-.19.08-.2,0-2.91-.1q-.28-.09-.21-.24C39.35,64.09,39.4,64,39.46,64Z"/><path class="cls-28" d="M4.94,57.78a2.16,2.16,0,0,0,.44,0c.68-.48,1-.1,1.2.51a19.67,19.67,0,0,1,.56,2.53,1.62,1.62,0,0,1-.28,1.05c-1,.93-1.81,1.38-1.74-.62,0-.64,0-1.28,0-1.85-.33.65.62,1.77-.69,2.19l-.11.06C4.7,60.38,3.78,58.92,4.94,57.78Z"/><path class="cls-9" d="M14.49,2.59c2.44-.24,4.93.41,7.34-.42,1-1,2.23-.52,3.36-.55,2.12-.07,4.24,0,6.36,0,.59,0,1.19,0,1.79,0,3.06.3,6.14-.11,9.2.12a1.11,1.11,0,0,1,.25,1.79c-.68.33-1.21-.36-1.86-.28a86.13,86.13,0,0,1-9.23.4A20.52,20.52,0,0,0,27,3.22a18.4,18.4,0,0,0-4.32.27,9.62,9.62,0,0,1-2,.2c-1.08,0-2.15,0-3.23,0a6,6,0,0,1-2.8-.41A.51.51,0,0,1,14.49,2.59Z"/><path class="cls-29" d="M31.77,2.12l-9.94,0-2.35-.25c.36-1.15,1.33-.6,1.89-.92l3.18,0,1,.16a27.78,27.78,0,0,0,4.91.16C31,1.37,31.79,1.09,31.77,2.12Z"/><path class="cls-23" d="M14.49,2.59V3a1.64,1.64,0,0,1-.22.63l-.22.25A13,13,0,0,1,7.77,5.44h0A2.55,2.55,0,0,1,10.55,3.5c1.35,0,.19-.56.11-.88A11.45,11.45,0,0,1,14.49,2.59Z"/><path class="cls-30" d="M42.76,2c-3.17.58-6.37-.06-9.55.17-.22-1.34,1.08-.43,1.41-1,2.28.17,4.57.43,6.78-.49,1.71.48,3.48-.06,5.2.32l.08,1C45.37,2.58,44.07,2.19,42.76,2Z"/><path class="cls-31" d="M34.62,1.18c-.32.54-1.2.25-1.41,1a1.8,1.8,0,0,1-1.44,0c-1.14-1-2.52-.32-3.77-.53-.81-.14-1.71.24-2.44-.4L31.21.76Z"/><path class="cls-32" d="M46.6,1c-1.73-.14-3.51.51-5.2-.32a15.56,15.56,0,0,1,5.23,0A1.53,1.53,0,0,0,46.6,1Z"/><path class="cls-33" d="M4.45,61.57c.84-.61.11-1.67.61-2.3,1.53.13-1.6,3.45,1.73,2.34a1.63,1.63,0,0,1,.56.81,1.27,1.27,0,0,0,1.48.91c2.06-.34,4.2.88,6.26-.56.9-.63,1.8.63,2.7,1.06a.64.64,0,0,1,.12.71,1.37,1.37,0,0,1-.79.17c-3.75-.1-7.5.21-11.24-.16C3.44,64.49,4.68,62.68,4.45,61.57Z"/><path class="cls-34" d="M5.88,64.55l11.78-.14c1.89-.57,3.84-1.57,5.47.55h0c-4.83,0-9.67,0-14.5,0C7.71,64.91,6.72,65.19,5.88,64.55Z"/><path class="cls-13" d="M2.07,8.77A6.14,6.14,0,0,1,2,13.6Z"/><path class="cls-35" d="M2.42,32a6.75,6.75,0,0,1,1.05-3.79c1.2-1.67-.42-3.86.44-5.76a5.63,5.63,0,0,0,.14-1.49c.83,1.9-.28,3.69.84,5.15,1.14,2.31.87,4.79.66,7.21-.09,1.12-.44,2.27,0,3.29,1.48,3.48.71,6.86-.27,10.25-.82,1.11-1.53.55-2.24-.14a4.8,4.8,0,0,1-.47-1,.42.42,0,0,0-.1-.39A92.25,92.25,0,0,1,2.42,32Z"/><path class="cls-36" d="M2.42,32l.05,13.3c-.92-1.53-.39-3.21-.43-4.82-.09-2.91,0-5.82,0-8.73A1.51,1.51,0,0,0,2.42,32Z"/><path class="cls-14" d="M2.57,45.66l.38.57c1.32,2.75.79,5.6.45,8.44a.92.92,0,0,1-.82.76l-.15-3.87Q2.49,48.61,2.57,45.66Z"/><path class="cls-37" d="M2.58,55.43c.83-3,.14-6.14.37-9.2.68.26,1.1,1,1.94,1,1.14-.53,2.19-.56,3,.59-.12.69-.69.78-1.22.94-1.09.12-1.2.85-1,1.73,0,.2,0,.4.06.6.2.65,1.07.79,1.18,1.44s1.72.82.87,1.84C7,55.16,6.3,54,5.53,54.15a.94.94,0,0,1-.47-.06c.14.19.34,0,.51.07,1.54.33.55,1,.26,1.65a4.32,4.32,0,0,1-1,.9c-.77,0-1.54.43-2.31,0Z"/><path class="cls-33" d="M6.8,60.63c-1-.67.06-2.41-1.42-2.87.36-.5,1-.31,1.43-.5a2.35,2.35,0,0,1,1.09-.55c1.77-.19,3.55,0,5.31-.24a50,50,0,0,0,9.86-.12,4.12,4.12,0,0,1,3.26.31c.1,1.69-1.63,1-2.26,1.74-1.37.7-2.76.24-4.16.14-2.59-.18-5.18,0-7.76-.08-1.82.31-4-.37-5.08,1.95Z"/><path class="cls-38" d="M7.78,57.26h-1l0-.53a.51.51,0,0,1,.2-.68,2.74,2.74,0,0,1,1.15-.34c1.19,0,2.45-.31,3.51.55.1.91-.59.71-1.1.77C9.63,57.14,8.67,56.79,7.78,57.26Z"/><path class="cls-39" d="M6.89,56.37c0,.12-.07.24-.1.36l-1.92,0a.92.92,0,0,1,.5-.87A1.11,1.11,0,0,1,6.89,56.37Z"/><path class="cls-40" d="M23.13,65c-1.74-1.06-3.67-.15-5.47-.55a1.26,1.26,0,0,0,.25-.31c.67-.87,1.66-.82,2.59-.83,3.62-.05,7.24,0,10.85.16a40,40,0,0,0,6.17.64l1.94,0a1.31,1.31,0,0,0,0,.39l-1,.45-4.63.18Z"/><path class="cls-41" d="M50,26.56l-.11.93c-1.18-.06-1.43-.93-1.46-1.83-.12-4.55-.11-9.1,0-13.65a1.73,1.73,0,0,1,.69-1.46,1.64,1.64,0,0,0,.3.29c0,4.43,0,8.86,0,13.28C49.4,25,49.28,25.87,50,26.56Z"/><path class="cls-41" d="M42.76,2c1.31-.92,2.62-.57,3.92,0l-.07.17C46,3.56,46.14,4.59,48,4.9c1,.18.69,1.29,1,2v1a2.58,2.58,0,0,1-1,1.27,5.45,5.45,0,0,0-.55,5.39c.34.78.68,1.56,1,2.33.32,2.78,0,5.56.12,8.33.14,2.44,1.13,4.75,1.62,7.15v17.9c-.4.85.62,2.18-.84,2.65a2.71,2.71,0,0,1-3.14-1,1.76,1.76,0,0,1-.25-.62c.29-.73-.41-1-.68-1.49a5.39,5.39,0,0,1-.17-2.22c0-.81-.66-1-1.25-1.18s-1.29-.26-1.17-1.16c.45-.59,1.19-.71,1.74-1.1-1.25-.15-3.24.53-3.44-1s1.76-1.61,3.07-1.75c.94-.1,1.48-.47,1.3-1.51a1.89,1.89,0,0,1,.38-2.73c1.56-1.67.21-3.25-.16-4.87-.6-6.31-1.36-12.62-1.2-19-.2-.56-.3-1.16-.46-1.74a6.79,6.79,0,0,1-.07-2.11c0-.16-.06-.32-.1-.48-.37-.38-.52.23-.81.19a2.32,2.32,0,0,1-1,0A13.85,13.85,0,0,0,38.67,9c-2.88.07-5.76-.12-8.63.22A23.53,23.53,0,0,0,25.15,9a9.89,9.89,0,0,1-2-.18,22.48,22.48,0,0,0-7.41-.08,5.29,5.29,0,0,1-2.65,0,1.35,1.35,0,0,1-.59-.41.71.71,0,0,1,.13-.64c.73-.48,1.75-.4,2.31-1.21a2.5,2.5,0,0,1,.95-.54,4.52,4.52,0,0,1,3.4.31.62.62,0,0,1,.06.69,1,1,0,0,1-.67.13c.17.13.37,0,.53,0a4.6,4.6,0,0,1,1.39-.32c4.7.49,9.13-1.13,13.7-1.67.1-.2.8,0,.46-.29-.83-.78-2.66.06-3-1.74l9.53-.43a9.57,9.57,0,0,0,1,.88C42.93,3.11,42.79,2.52,42.76,2Z"/><path class="cls-42" d="M48.07,8.81l.89-1c.06.9.11,1.8.17,2.7,0,5-.05,9.91-.09,14.86,0,.83,0,1.62.86,2.08l.19.51c0,.48,0,1,0,1.44a2.75,2.75,0,0,1-.15,2.39.94.94,0,0,1-.87-.95c-.31-3.7-1.52-7.33-.63-11.14a10.39,10.39,0,0,0-.34-3.27c-.74-1-.46-2.24-.53-3.38a10.28,10.28,0,0,0,0-2.93A1.85,1.85,0,0,1,48.07,8.81Z"/><path class="cls-43" d="M49,6.86c-.64-1.94-3.34-1.3-3.72-3.36.66.09,1.06-.57,1.36-1.35l2.48,3.26Z"/><path class="cls-44" d="M46.16,51c2.16,2,3.18,2,3.93,0,.22-.08.33,0,.31.23a3.36,3.36,0,0,0-.06.94c.65,2.49-.57,3.08-2.73,2.74-1.57,1.07-3.34.46-5,.61a3,3,0,0,1-1.51-.38c.26-1.19.26-1.2,1.43-1.34,1.73-.2,3.46.17,4.94,0-2.37-.86-5.41-.18-7.61-2.36.54-1.44,1.86-1,2.93-1.24C43.9,50.51,45.19,50.12,46.16,51Z"/><path class="cls-26" d="M42.32,55a23.39,23.39,0,0,1,5.29,0l0,1h0a3.38,3.38,0,0,1-1.21.54c-3.34.16-6.68,0-10,.08a7.91,7.91,0,0,0-2.86.29,22.67,22.67,0,0,1-4.12.2A4.37,4.37,0,0,1,27,56.48.63.63,0,0,1,27,55.7c1.19-1,2.64-1,4.08-1C34.81,54.67,38.57,54.65,42.32,55Z"/><path class="cls-20" d="M50.4,51.24a.65.65,0,0,0-.31-.23q-.08-9.59-.16-19.18l.15-2.39a3.52,3.52,0,0,1,.37,1.09C50.45,37.43,50.42,44.33,50.4,51.24Z"/><path class="cls-2" d="M46.56,55.88h1.12l-.13.92c-.63.59-.29,1.42-.51,2.11a1.38,1.38,0,0,0-.31-.28l-.26-.16a1.8,1.8,0,0,1-.24-.55,3.54,3.54,0,0,1,0-1.52A2.13,2.13,0,0,1,46.56,55.88Z"/><path class="cls-45" d="M7.92,47.76l-3-.56a10.05,10.05,0,0,1,.79-4.57C6.52,41,5.27,39.15,5,37.4c-.69-3.75.29-7.55-.06-11.32,0-1.79.86-3.46.61-5.32.49,1.15.15,2.55,1.28,3.4.89.81.64,1.89.69,2.9.1,2.29-.2,4.6.24,6.86-.22-.25.28,0,0,.23s0,.28,0,.18a4.36,4.36,0,0,1,.12-2c1-1.17,1.15-.09,1.31.53.38,1.36.44,2.81,1.19,4.06.36.56.83,1,1.22,1.56.44,1.78.13,3.89,2.34,4.89.48.22.24.84-.09,1.25s-.72.51-.4,1c1.79,2.55-.49,2-1.7,2.21-.94.13-1.92,0-2.86.22A1.31,1.31,0,0,1,7.92,47.76Z"/><path class="cls-46" d="M34.65,5.44C30.41,7,23.51,7.69,16.73,7.22a5.19,5.19,0,0,1,2.56-.34c1.2-.52,2.45-.09,3.51-.23-1.05-.2-2.32.27-3.51-.25H15.45A14.71,14.71,0,0,0,13.17,6c.24.31.91.1.95.7-.19.74-1.07.56-1.44,1.07a.9.9,0,0,1-.19.15c-1.57,1.16-3.53,0-5.15.86-.46,0-1.06.16-1.25-.39s.32-.82.78-1l2.7-1c-.7-.73-1.29-.46-1.81-.54,0-.16,0-.32,0-.47L14,3.52a8.43,8.43,0,0,0,1.67.77C15.16,4,14.5,3.93,14,3.52L14.49,3h2.87a5.06,5.06,0,0,0,3.37,0h1.92c.55-.2.87.21,1.26.44,2.71.83,5.32,2.11,8.31,1.36A2.42,2.42,0,0,1,34.65,5.44Z"/><path class="cls-47" d="M7.31,34.71c-.92-3.48-.14-7-.53-10.55.15-3.25.31-6.5.45-9.75,0-.79-.1-1.6.52-2.25a.52.52,0,0,1,.74.16,7.35,7.35,0,0,1,.23,4.23c-.56,2.55-.21,5.12-.23,7.68s.42,5.3-.46,7.88C7.64,32.94,8.77,34.18,7.31,34.71Z"/><path class="cls-48" d="M8.24,12.16H7.75c-.4-1.1.31-2.33-.41-3.38-.56-.72-.51-1.06.52-1,1.54.09,3.09.09,4.63.14a1.75,1.75,0,0,0,.26.29c-.77,1.13-2.16.41-3.1,1a3.9,3.9,0,0,0-.47,1.53A2.12,2.12,0,0,1,8.24,12.16Z"/><path class="cls-49" d="M46.58,56.32c0,.64.08,1.28.13,1.91-.72.48-1.54.09-2.21.27a5.7,5.7,0,0,1,2.23.17v0c-.53,4.51-.89,4.85-6.66,4.32-1.45-.13-2.55-.14-3.5,1a9.64,9.64,0,0,1-4.8.06c-4.62-.42-9.24,0-13.86.09l-.08-.19C18.91,59.23,19.88,58.53,26,58c-.67-.15-1.35.22-1.89-.26.59-.89,1.8-.1,2.42-.89l.24-.27a12.64,12.64,0,0,0,2.88-.23l4.07-.11A6.83,6.83,0,0,1,36,56.08c.7.13,1.52-.33,2.09.43.08.43-.6.47-.52.58,1,1.43,0,1.47-1,1.34-1.61-.2-3.19-.69-4.36-.51,3.43,1.09,7.21-.15,11-.72-1.19,0-2.34.31-3.51.4-.84.07-1.69.08-1.13-1.21A23.74,23.74,0,0,1,46.58,56.32Z"/><path class="cls-16" d="M31.77,64c1.6-.12,3.2.39,4.8-.06l1,.12A8.14,8.14,0,0,1,31.77,64Z"/><path class="cls-50" d="M6.83,62.53c0-.31,0-.61,0-.92s0-.65,0-1h0a1.29,1.29,0,0,1,2.13-.35,1.61,1.61,0,0,1,.32,2.42A1.88,1.88,0,0,1,6.83,62.53Z"/><path class="cls-51" d="M34.65,5.44c-2.19.06-4.43-.3-6.54.62a2.33,2.33,0,0,1-.65.1C27,3.39,24.33,5.19,23.13,4c.8-.8,1.86-.52,2.82-.66.51-.07,1.09,0,1-.78a14.07,14.07,0,0,1,4.79.49c1.41,1.28,3.44.79,5.07,1.82C36.29,5.79,35.38,5.3,34.65,5.44Z"/><path class="cls-23" d="M27,2.56c.83.71.49,1.19-.37,1.3C25.46,4,24.29,4,23.13,4a1,1,0,0,0-.48-1C24,2.08,25.54,2.76,27,2.56Z"/><path class="cls-23" d="M20.73,3a2.82,2.82,0,0,1-3.37,0Z"/><path class="cls-43" d="M42.33,3.5c-.56,0-1.43.28-1-.88C42,2.54,42.29,2.85,42.33,3.5Z"/><path class="cls-52" d="M6.83,62.53l2.36,0c.38-.5.37-1.44,1.39-1.18.85.31,1.69,1,2.65.17-.28-1-1.16-.67-1.78-.91-1.76-1-.67-1.92.13-2.82,3.49.08,7-.45,10.45.39a2.91,2.91,0,0,0,2.06-.44h2.34l0,.33a34.5,34.5,0,0,0-3.54.65c-1.73.49-3.44,1.09-3.85,3.23a2.72,2.72,0,0,1-1.25,1.94c-1.12.61-2-1.5-3.54,0-.79.76-2.9.16-4.42.12-.79,0-1.58-.18-2.37-.22S6.87,63,6.83,62.53Z"/><path class="cls-53" d="M6.89,56.37l-1.52-.53c.81-1.2.08-1.56-1.28-1.62,1.32-.61,2.3-.08,3.38-.15-1.11-.51-1-2.32-2.67-2.31-.11,0,.31-.58.63-.79h.31a4.51,4.51,0,0,0,2.47,0c1.5-.4,3-.79,4.45.13.38.47,1.78.79.24,1.56a1,1,0,0,0,.21,0c.81-.06,1.47.2,1.55,1.07S14,54.9,13.29,55.11a24,24,0,0,1-5.51,1.13Z"/><path class="cls-54" d="M12.57,51.53c-1.59-.65-3.19-.16-4.79,0-.8-.18-1.66,0-2.38-.53h0a3,3,0,0,1,0-.43c-.79-1.24.43-1.65,1-2.34l1.57-.44.81-.07c1.29-.5,2.64-.2,4-.22.77,0,2.14-.41,2,.9S14.94,51.61,12.57,51.53Z"/><path class="cls-55" d="M6.35,48.2c.33,1-1.31,1.29-1,2.34C5,49.46,4.48,48.34,6.35,48.2Z"/><path class="cls-56" d="M11.58,57.81c.43.78-1.5,1.59,0,2.35.26.87-.28,1.2-1,1.44-.74-.08-.93.68-1.45.95.09-1.74-.41-2.75-2.38-1.92C6.57,58.9,7.1,58,9.07,58.19A9.67,9.67,0,0,0,11.58,57.81Z"/><path class="cls-57" d="M23.11,56.84a23.71,23.71,0,0,1-10.2,0l0-.34c1.12-1.27,2.65-.24,3.91-.7A26.06,26.06,0,0,1,20.6,56a7.6,7.6,0,0,1,2.3.56Z"/><path class="cls-58" d="M7.78,57.26c1.11-1.12,2.71,0,3.87-.85.63-.42,1,0,1.37.42l-.11,0C11.27,57.78,9.51,57.34,7.78,57.26Z"/><path class="cls-59" d="M27,55.83v.48a.85.85,0,0,1-.5.41l0,.15-3.4,0,.12,0v-.12c.3-1.34,1.57-.83,2.35-1.24A1.51,1.51,0,0,1,27,55.83Z"/><path class="cls-60" d="M13,56.83c-.56.19-.92-.28-1.37-.42l-3.87-.17c2-.22,3.62-1.73,5.71-1.69a.72.72,0,0,0,.79-.72c0-.47-.4-.62-.76-.81s-1.2.31-1.37-.38c-.09-.34,1,.22.88-.58,0-.2-.3-.36-.46-.53,1.93-.58.61-2.69,2.06-3.61-2.17-.62-4.05-.1-5.9-.23,1.49-1.2,3.41.06,5-.82-.2-1.08-1.41-.87-2.05-1.67l2.55-1.33c-3.56-.66-2.66-3.39-3.22-5.4.6-1.38,1.81-.93,2.86-.95a11.69,11.69,0,0,1,3,.86c-.61.94-.61.94-2.92.8,2,.53,4.15-.9,5.92.78,2.14-1.84,3.58.56,5.35.92a3,3,0,0,1,1.92,1.34,1.29,1.29,0,0,1,.13.7,17.52,17.52,0,0,0-3.54,8.63c-.3,2.18-2.89,4.39-5.24,4.5-.53,0-1.11-.27-1.56.26C15.68,57.06,14.17,55.66,13,56.83Z"/><path class="cls-61" d="M16.89,56.31c.08-.52.23-.76.9-.76,2.86,0,4.77-2.46,5.47-5.09s.67-6,3.71-7.58c1.22-1.9,2.87-2.58,5.32-2.13,1.57.28,3.17,1.31,3.54-1.69.15-1.23,2.26-1.3,3.8-.7.49.19,1.29,2,2,.06.1-.27.74,0,1.13,0a10.4,10.4,0,0,1,3.39,1.07c.27,1.82-.39,2.69-2.34,2.41A3.05,3.05,0,0,0,41.14,43c1.43,1.2,3.89-.32,5.18,2.38-1.5-1.1-2.43,0-3.51-.1-1.55,1.93-3.3.91-4.91.21a6.8,6.8,0,0,0-4.07-.86c-3,.49-3.74,2-2.23,4.87,2.24.81,4.77,0,6.93,1.27.4.23.9.29,1.23.66,2.1,1.1,4.64.59,6.69,1.8,1.1.64,2.24-.85,3.58.29a17,17,0,0,1-5.69.9c-1.15,0-2.39-.42-3.45.41-2.49.61-5,.12-7.51.28a9.47,9.47,0,0,0-2.81.19c-1.27-.32-2.38.5-3.6.53l-1.44.08c-1.6.05-3.15.63-4.78.42C19.46,56.92,18.18,56,16.89,56.31Z"/><path class="cls-62" d="M46.17,39.52c-1.48-.28-3.05,0-4.39-.85-.45.88.84,1.07.4,1.83-.49.35-.83-.06-1.15-.37-1.21-1.2-2.46-2-4.29-1.23-.87.37-.76.36-.06.83.53.34,0,.93-.32,1.14-.82.45-1.48,1.37-2.65.89A6,6,0,0,0,27,42.88V42.4c-.07-1.34-2-1.93-1.43-3.54,0-.11-.16,0-.18,0-1.8,1.3-3.68.06-5.51.1a5.48,5.48,0,0,1-3-.38A5,5,0,0,1,13.94,38a.59.59,0,0,1,.23-.7,22.84,22.84,0,0,1,3.57-.83c3.25-.13,6.51,0,9.76-.06a9.62,9.62,0,0,1,1.61.12,2.36,2.36,0,0,1,.68.27c1,1.69,2.33,2,4.14,1.21a19,19,0,0,1,2.91-.92,13.17,13.17,0,0,1,3.6-.1c.71.52.93.19.93-.53a1.59,1.59,0,0,1,.63-.33,6.28,6.28,0,0,1,3.56.38,1.91,1.91,0,0,1,.62.39.46.46,0,0,1,0,.65C44.77,38.23,45.53,38.87,46.17,39.52Z"/><path class="cls-63" d="M8.75,8.89c1.17-1.2,2.71-.2,4-.68l2.42.06a36.56,36.56,0,0,1,8.1,0l1.79.08c1.65.56,3.4-.12,5.06.42,2.89-1,5.87-.11,8.8-.4.77.55,1.85-.27,2.55.59-.72,1.34-2.19.92-3.29,1.4a100.66,100.66,0,0,1-15.72-.53c-3.73-.76-7.49-.22-11.23-.35a4.16,4.16,0,0,0-.72.12,2.33,2.33,0,0,1-1,0C9.11,9.46,9,9.13,8.75,8.89Z"/><path class="cls-64" d="M30.92,50c-1.1-1.68-.71-3.41-.13-5.12.11-.34.56-.89.73-.85,2,.49,4-1.08,6,.48a4.75,4.75,0,0,0,5.31.74c.74.7,1.79.52,2.64.94.57.29.76.54.19,1a.92.92,0,0,1-.7.16,17.58,17.58,0,0,0-8.28-.18c-1.72.36-3.65-.6-5.16.85,0,.23-.06.46-.08.69A2.14,2.14,0,0,1,30.92,50Z"/><path class="cls-65" d="M46.18,37.15l-.49,0a4.71,4.71,0,0,1-1.14-3.49,11.56,11.56,0,0,0-.37-4c-.29-4.35,0-8.72-.13-13.07.15-1.33-.37-2.78.69-3.95.15.35.45.71.43,1-.41,6.42.85,12.74,1,19.13C46.42,34.26,47.47,35.71,46.18,37.15Z"/><path class="cls-66" d="M44.64,16.46l.15,13.24c.07.78.63,1.65-.4,2.23-1.29-1-.49-2.63-1.08-3.85a11.92,11.92,0,0,1-.25-5.28c.09-2.77-.06-5.55,0-8.32-.07-1.35.41-2.75-.39-4a1.36,1.36,0,0,1-.43-1,1.78,1.78,0,0,1,2.15-.21c.63.61-.25,1.13-.1,1.72C44.77,12.75,44.2,14.64,44.64,16.46Z"/><path class="cls-67" d="M48.07,8.81v1.41c-.64.81-.22,1.61,0,2.42v3.83c-1-1.12-2-2.21-1.66-3.95a18.88,18.88,0,0,0,.22-2.61C46.72,9,46.86,8.23,48.07,8.81Z"/><path class="cls-68" d="M44.4,9.22c-.7.15-1.54-.2-2.06.57-1.43,1.47-2.36,1.49-4,.07l3.06-1c.26-.38.6-.32,1-.14h.93a.74.74,0,0,1,1,.07C44.29,8.94,44.34,9.08,44.4,9.22Z"/><path class="cls-69" d="M23.27,8.27h-8.1A24.74,24.74,0,0,1,23.27,8.27Z"/><path class="cls-22" d="M14,6.87c-.29-.48-.8-.43-1.26-.53s-.6-.27-.44-.67A.44.44,0,0,1,13,5.41c.77.43,2.24-.87,2.43,1L15,6.87C14.65,6.91,14.32,7.14,14,6.87Z"/><path class="cls-61" d="M46.18,37.15c.7-1.45-.36-2.9,0-4.34,1.15,1.6,1.69,3.2,0,4.78C46.17,37.44,46.17,37.3,46.18,37.15Z"/><path class="cls-70" d="M45.23,47.17a.72.72,0,0,1,.41,0,6.48,6.48,0,0,0,.12,2.84c.36.24.69.48.4,1h0a10.07,10.07,0,0,1-3.45-.39C44.3,50,44.45,48.37,45.23,47.17Z"/><path class="cls-68" d="M44.64,16.46c-.81-1.8-.24-3.68-.34-5.52.15.56.29,1.12.44,1.69C44.71,13.9,44.67,15.18,44.64,16.46Z"/><path class="cls-71" d="M14,6.87c.32,0,.65-.53,1,0-.3,1.5-1.45.8-2.29.9C12.6,6.7,13.41,6.94,14,6.87Z"/><path class="cls-69" d="M30.12,8.77c-1.69-.18-3.44.51-5.06-.42A13.11,13.11,0,0,1,30.12,8.77Z"/><path class="cls-72" d="M19.29,6.4h3.27v.48H19.29Z"/><path class="cls-73" d="M42.32,8.73l-1,.14-2.45-.5C40.07,8.29,41.25,8,42.32,8.73Z"/><path class="cls-44" d="M46.16,51c-.13-.33-.27-.65-.4-1,.43-.19.92-.41,1.15.2S46.63,51,46.16,51Z"/><path class="cls-74" d="M44.24,8.8l-1-.07c0-.43-.07-1.08.43-1.1C44.43,7.6,44.23,8.31,44.24,8.8Z"/><path class="cls-23" d="M35.81,3.86a3.41,3.41,0,0,1,2.48-.2A3.57,3.57,0,0,1,35.81,3.86Z"/><path class="cls-9" d="M40.76,5.28c.32-.49.85-.87,1.19-.54.52.49-.11.6-.47.65A2.48,2.48,0,0,1,40.76,5.28Z"/><path class="cls-41" d="M48.09,12.64c-1.63-.8-.78-1.61,0-2.42C47.76,11,48.94,11.83,48.09,12.64Z"/><path class="cls-75" d="M45.23,47.17c-.19,1.63.4,3.82-2.52,3.47-.9.58-2.11,0-3,.79L30.92,50l-.07-1.37c.22-.19.31-.36-.05-.5-.06-.88-.3-1.69,1.23-1.57,3.23.27,6.46-.28,9.68-.51A4.2,4.2,0,0,1,45.23,47.17Z"/><path class="cls-76" d="M30.57,55.3c3.41-.67,6.89,0,10.32-.47l1.43.12C38.43,55.84,34.49,55.2,30.57,55.3Z"/><path class="cls-25" d="M46.58,56.32c-2.7.22-5.44-.5-8.09.48a.32.32,0,0,1-.49,0c-.55-.71-1.38-.38-2.07-.56a.45.45,0,0,1,.36-.32l10.27,0A.94.94,0,0,1,46.58,56.32Z"/><path class="cls-76" d="M26.47,56.72l.5-.41,2.66.06A6.55,6.55,0,0,1,26.47,56.72Z"/><path class="cls-76" d="M36.29,55.91l-.36.32-2.23,0C34.48,55.55,35.41,55.89,36.29,55.91Z"/><path class="cls-25" d="M46.73,58.67c-.67,0-1.37.23-2-.18.65-.47,1.36-.16,2-.26A.41.41,0,0,1,46.73,58.67Z"/><path class="cls-77" d="M7.86,32.09c0-2.62-.05-5.25-.07-7.88.31-.36.17-.89.45-1.25s1-.55.76-1.06c-1.79-3.28-.19-6.63-.15-9.93,0-.6.9-1.7,1.36-2.58l-.05-.14a.56.56,0,0,1,.73.06c1.41,1.26,3.14.52,4.72.72,1.35.17,2.86-.37,3.95.92.53,1.77,0,2.63-1.93,2.22-1-.29-2.12-1.4-2.84-.81s-.33,2.18-.33,3.35c0,2,.85,3.88.21,5.82.06,0-.45.24.08.16.31,0-.1,0,.23.07.6.89,1.18,1.8,0,2.65-.73.53-.27,1.14-.18,1.71.23,1.56.6,3.11-.11,4.64-.85-.23-.95-.1-1.28.81a51.11,51.11,0,0,1-2.3,4.63,2.33,2.33,0,0,1-1,.91c-1.25-1.29-1.38-2.93-1.46-4.6,0-.06-.06-.17-.09-.17a3.1,3.1,0,0,0-.42.08A.32.32,0,0,1,7.86,32.09Z"/><path class="cls-78" d="M10.14,37.11l.53-1a2.68,2.68,0,0,1,2.09-.4c1,.28,2.06.52,1.39,2a1.41,1.41,0,0,1-.21.35,7.67,7.67,0,0,0-2.93.43C10.26,38.31,10.22,37.69,10.14,37.11Z"/><path class="cls-79" d="M7.86,32.09a.9.9,0,0,0,.31.33V36.6a1.64,1.64,0,0,1-.86-1.89C8.12,34,7.59,33,7.86,32.09Z"/><path class="cls-23" d="M14,3.52A5,5,0,0,1,17.28,4.8c-1.66-.21-2.7-.14-3.27-1.28Z"/><path class="cls-22" d="M11.13,6.86a4.21,4.21,0,0,1-.58-.81c-.15-.39.09-.58.46-.53a.56.56,0,0,1,.51.66C11.5,6.36,11.32,6.53,11.13,6.86Z"/><path class="cls-51" d="M21.78,4.21a2.31,2.31,0,0,1-2.11,0A2.28,2.28,0,0,1,21.78,4.21Z"/><path class="cls-73" d="M10.21,9.39C11,10.94,9.63,12,9.1,13.1a3.35,3.35,0,0,0-.34,1.24,44.83,44.83,0,0,0,0,4.78c.05.8-.41,1.6.78,2.39.87.59-.32,1.49-1.32,1.68a25.05,25.05,0,0,1,0-6.7l.06-4.33.46-1.43c.47-.37.32-1,.5-1.43Z"/><path class="cls-48" d="M8.18,16.49c0,2.23,0,4.47,0,6.7l-.43,1C8,21.64,7.35,19,8.18,16.49Z"/><path class="cls-77" d="M9.2,9.3c.41.68.26,1.16-.5,1.43,0-.62,0-1.23.05-1.84Z"/><path class="cls-80" d="M38,56.79h.49c1.1.93,2.22.28,3.37.11a6,6,0,0,1,4,.43c-2.57.68-5.29.25-7.87,1.19s-5.21-1.09-7.89-.07c1.77-1.06,3.65-.87,5.51-.61,1.23.17,1.2.23,1.47-.93C37.14,56.81,37.69,56.83,38,56.79Z"/><path class="cls-81" d="M31.73,62.9h-5.1v-.17h5.1Z"/><path class="cls-82" d="M10.64,61.6l1-1.44h.24a2.13,2.13,0,0,1,2.39,1.15.73.73,0,0,1-.59,1.08C12.6,62.42,11.25,63.34,10.64,61.6Z"/><path class="cls-37" d="M5.4,51a5.44,5.44,0,0,1,2.38.53C6.76,52.3,6.11,51.51,5.4,51Z"/><path class="cls-37" d="M9.61,53.65a1.59,1.59,0,0,1,1.63,0A1.36,1.36,0,0,1,9.61,53.65Z"/><path class="cls-83" d="M20.75,56.33a15.7,15.7,0,0,1,4.78-.42c-.6.76-1.67.12-2.3.78C22.39,56.69,21.49,57,20.75,56.33Z"/><path class="cls-61" d="M16.88,38.56c1.21-1.11,2.41-.1,3.62-.05,1.95.1,3.89.73,5.58,0,0,1.4,1.48,2.45.89,3.85-1.53-1.26-3.89-.95-5.16-2.71-.07-.09-.41-.13-.44-.07-1.17,1.74-2.09.64-3.42,0s-2.91-.12-4.79-.12C14.56,38.58,16,39.59,16.88,38.56Z"/><path class="cls-62" d="M29.29,43.85c-.18.23-.28.49-.45.56s-.43-.18-.36-.4.27-.33.44-.44S29.13,43.73,29.29,43.85Z"/><path class="cls-62" d="M28.86,46.58l-.44.4a1.56,1.56,0,0,1-.28-.5c0-.1.15-.28.28-.34C28.77,46,28.79,46.27,28.86,46.58Z"/><path class="cls-84" d="M14.15,37.69l-.65-.22c1.17-.88-.3-.83-.44-1.25.17-.16.3-.41.55-.44,4.41-.52,8.82-.85,13.21.19.45,1.46-.78.83-1.23.86-2.74.22-5.5-.27-8.23.3Z"/><path class="cls-85" d="M36.57,37.61c-1.32,1.08-3,1.09-4.57,1.65-1.31.49-2-.7-2.15-2,.68-1,1.7-.7,2.64-.75a6,6,0,0,1,1.19.17C34.6,37.09,35.79,36.74,36.57,37.61Z"/><path class="cls-86" d="M44.31,31.83c.64-.6.32-1.42.48-2.13l.9,7.41-3.83-.52c-.13-1.35,2.16-.52,1.83-2C43.68,33.59,43.43,32.58,44.31,31.83Z"/><path class="cls-87" d="M29.37,37.07l-1.44,0a.82.82,0,0,1-.12-1,1.54,1.54,0,0,1,.61-.38c1-.21,2-.29,2.92-.59a20,20,0,0,1,6.94.25.65.65,0,0,1,.31.72,1.63,1.63,0,0,1-1.07.61C34.81,36.94,32.06,36.44,29.37,37.07Z"/><path class="cls-88" d="M27.91,36.13l0,1-10.57,0c1.67-1.05,3.51-.25,5.25-.49,1.45-.2,3,.4,4.36-.4A.64.64,0,0,1,27.91,36.13Z"/><path class="cls-89" d="M38.49,36.18c0-.16,0-.31,0-.46,1.41-1.22,3.11-.55,4.68-.71.4,0,.79.14,1.19.18.53.76,0,.89-.59,1s-1.38-.19-1.9.44a.84.84,0,0,1-.41.14,3.19,3.19,0,0,1-2.78.15A.48.48,0,0,1,38.49,36.18Z"/><path class="cls-90" d="M38.49,36.18c0,.12,0,.25,0,.37.47,1.06,2.11-.57,2.34,1l-4.3,0c-1-.28-2,.15-3-.41.62-.85,1.54-.45,2.33-.57a2.53,2.53,0,0,0,1.62-.45Z"/><path class="cls-91" d="M37.55,36.18c-.24.43-.51.83-1.08.85a8.1,8.1,0,0,0-3.73,0l-2.89.16-.48-.17A20.6,20.6,0,0,1,37.55,36.18Z"/><path class="cls-92" d="M40.87,37.58c-.46-1.07-2,.23-2.34-1l2.92.18C41.68,37.3,41.64,37.68,40.87,37.58Z"/><path class="cls-73" d="M19.29,11.2c-2.18-1-4.48-.27-6.72-.47-1-.08-2,.14-1.93-1.35,3.83-.66,7.68-.35,11.52-.15q8.07.62,16.15.62a6.12,6.12,0,0,0,4-.06H43c1.09,1.38,0,3.09.7,4.54l0,8.85c-1.26.08-1.31-.93-1.54-1.74-.62-2.1-.39-4.26-.51-6.41-.07-1.44-.08-3-2.46-2.19a1.92,1.92,0,0,1-2.58-1c-.21-.64-.45-.12-.64-.14a21.57,21.57,0,0,0-4.75.07c-.77.11-2.14.09-2.13-.53,0-1.32-.66-.42-.91-.43a15.49,15.49,0,0,1-1.67,0c-.75-.09-.69,0-1.14.42a2.35,2.35,0,0,1-2.26.39C21.91,11,20.48,12.13,19.29,11.2Z"/><path class="cls-69" d="M22.16,9.23c-3.84.14-7.69-.42-11.52.15l-.48-.13A33.15,33.15,0,0,1,22.16,9.23Z"/><path class="cls-93" d="M30.8,48.16c.41,0,.71-.65,1.19-.23a.43.43,0,0,1,.06.4c-.28.49-.77.34-1.2.33Z"/><path class="cls-94" d="M23.13,11.2h2.36l-1.9-1c2.24.27,4.46,0,6.67.09.13.74-1,.19-.83,1a50.55,50.55,0,0,1,8.79-.12c0,.83-1,.24-1.23,1.06,1.09-.48,2.47,1.19,3.22-.76.82.77,2.2,1,2.15,2.58a27.86,27.86,0,0,0,.42,7.62,2,2,0,0,0,.94,1.55c-.69,1.57.48,3.1.1,4.67a1.43,1.43,0,0,1,.15.44c.11,1.86.11,1.86-1.56,2.74-2.78,1.47-2.78,1.48-4.73,1.45A6.92,6.92,0,0,1,34.2,32c-1-.42-.21-1.86-1.25-2.26a2.38,2.38,0,0,0-1.42.13,2.82,2.82,0,0,1-1.65.05c-1-.39-.29.52-.55.66a1.55,1.55,0,0,1-.6.24,13.78,13.78,0,0,0-4.75,0,2.63,2.63,0,0,1-1.42,0c-.67-.2-1.76-.2-1.72-1,0-1.07,1.17-.67,1.92-.83a1.88,1.88,0,0,1-1.69-1.14,22,22,0,0,1-1-7.07,61.64,61.64,0,0,0-.2-6.22C19.6,12.14,20.91,10.93,23.13,11.2Z"/><path class="cls-95" d="M33.69,31.36c2.4.8,4.88.38,7.33.47.08,0,.2,0,.23,0,1,1.05.72-2.59,1.93-.49a4.41,4.41,0,0,1,.24-.67,7.69,7.69,0,0,0,.4-2.81c.16,1.32.32,2.65.49,4l0,3.36c-.08.3-.22.53-.58.46-.75-.42-.42-1.74-1.1-1.85-1.89-.29-3.86-.65-5.73,0a3,3,0,0,1-1.56.38,10.83,10.83,0,0,0-5.89.29c-1.13.38-1.75-.34-2.27-1.24-.74-1.26.43-1.43,1.05-1.93a9,9,0,0,1,3.51-1A1.88,1.88,0,0,1,33.69,31.36Z"/><path class="cls-68" d="M43.74,14.34,43.05,9.8C44.56,11.11,43.42,12.84,43.74,14.34Z"/><path class="cls-96" d="M28.41,31.85c0,.59-1.38.42-.82.87s.28,2,1.7,1.33c2-1,4.16-.38,6.2-.54,1.4-.12,3-.36,4.53-.63,2.35-.41,3.36.41,3.75,2.77l-5.29.07-7.68,0c-.93.45-2-.15-2.9.4h0l-.94.11a88.49,88.49,0,0,0-13.91,0l-2.39-.11c.88-2.61,3.06-4.76,2.29-8.29,1.52,1.06.57,2.45,1.53,3.05.69,2.28,2.19,2.5,4.19,1.73a7.17,7.17,0,0,1,3.95-.31c.26.05.48.31.78.16-.41-.13-.38-.42-.28-.75a2.39,2.39,0,0,1,1.43-.48,18.68,18.68,0,0,1,2.8.05A1.59,1.59,0,0,1,28.41,31.85Z"/><path class="cls-97" d="M23.12,31.92l1.32.85a22.77,22.77,0,0,0-7.42.9c-2.44.78-2.74-.9-2.53-2.8a21.43,21.43,0,0,0-.4-5.41c-.07-.27-1.26-1.93.8-1.58a2,2,0,0,0-.49-2.06l0,0c-.24-2.33-.36-4.69-.78-7a2.9,2.9,0,0,1,.84-3c.93-.68,2.11-.26,2.89.75s.67,2.4.42,3.62a6,6,0,0,0,.54,4.59c1.35,2.1.08,4.62,1.24,6.7,0,.58-.58.81-.83,1.25,0,.7.56,1,1,1.33C20.74,31,22.4,30.57,23.12,31.92Z"/><path class="cls-98" d="M19.29,28c.07-1.18-1.8-1.84-1.33-2.63,1.4-2.38-.59-3.93-1-5.85-.47-2.29.74-4.55.39-6.87,1.1.14,2.32.43,1.92-1.44,1.28.2,2.56-1.24,3.84,0a2.5,2.5,0,0,0-2.71,2.71c.76,3.84-.32,7.76.77,11.55.24.82.34,1.69.5,2.54A1.66,1.66,0,0,1,19.29,28Z"/><path class="cls-99" d="M14.4,21.82c0,.52.26,1.2-.59,1.25-.18,0-.54-.43-.54-.68,0-.93.63-.64,1.15-.55Z"/><path class="cls-100" d="M32.74,37.08a3.76,3.76,0,0,1,3.73,0l-2.87.17Z"/><path class="cls-88" d="M27.9,36.14a4.07,4.07,0,0,1,2.9-.4C29.92,36.5,28.87,36,27.9,36.14Z"/><path class="cls-101" d="M26,12.64a9,9,0,0,1,4.44-.36c-1.7,1.76-.84,3.89-.38,5.55A16.44,16.44,0,0,1,30.82,25c-.31,1.93,1.51,1.89,2.56,2.94l-5,.62c.21-.68,1-.83.72-1.75-.87-3.08-1.18-6.34-2.26-9.33A14.09,14.09,0,0,1,26,12.64Z"/><path class="cls-102" d="M19.29,28h2.4c.39,1,2.34-.15,2.08,1.19-.16.81-1.8-.34-2.61.57,2.57,1,5.36-.62,7.86.7-.54,1.54-2,.55-2.9,1a2.2,2.2,0,0,1-1.08,0,15.59,15.59,0,0,1-5.13-1.13c-.73-.51-1.29-1.23-2-1.78C18.13,27.86,18.76,28,19.29,28Z"/><path class="cls-103" d="M25.89,31.27,29,30.46a.27.27,0,0,0,.34-.1c.61-.69,1.65-.33,2.3-.93.33-.6.93-.31,1.4-.43.4,1.23.4,1.23-1.43,1.83l-3.22,1-1-.08C27,31.37,26.26,31.86,25.89,31.27Z"/><path class="cls-102" d="M31.63,30.83c.48-.61,1.68-.65,1.43-1.83.71.66,1.93,1.17.63,2.36Z"/><path class="cls-102" d="M31.66,29.43a2.72,2.72,0,0,1-2.3.93c0-.32-1.09-.63-.09-.88A9.51,9.51,0,0,1,31.66,29.43Z"/><path class="cls-104" d="M34.93,23.7a.68.68,0,0,1-.79-.65c-.07-.38-.06-.8.46-.86a.73.73,0,0,1,.82.63A.67.67,0,0,1,34.93,23.7Z"/><path class="cls-102" d="M27.54,29.29A1.71,1.71,0,0,1,26,29.23s.1-.46.24-.52C26.79,28.46,27.22,28.74,27.54,29.29Z"/><path class="cls-101" d="M26,12.64H23.69c.8-.52,1.58-.72,2.32,0Z"/><path class="cls-96" d="M32.67,31.87c0,.41,0,.72-.41.73-.06,0-.19-.34-.18-.53a1.69,1.69,0,0,1,.18-.55Z"/><path class="cls-105" d="M19.82,29.88c1.67.88,3.61.71,5.32,1.41-.07.3-.38.34-.56.53l-1.46.1c-1.23-.65-2.82-.34-3.87-1.46C19.13,30,19.32,29.76,19.82,29.88Z"/><path class="cls-106" d="M34.58,35a4.87,4.87,0,0,1,3.33,0Z"/><path class="cls-107" d="M24.58,31.82l.56-.53.75,0c.49.2,1.12,0,1.53.5A5.37,5.37,0,0,1,24.58,31.82Z"/><path class="cls-108" d="M19.82,29.88l-.57.58a2.48,2.48,0,0,1-1.33-1.85C19.08,28.24,19.22,29.4,19.82,29.88Z"/></g></g></svg>