<svg xmlns="http://www.w3.org/2000/svg" xmlns:xlink="http://www.w3.org/1999/xlink" viewBox="0 0 79.7 51.3" enable-background="new 0 0 79.7 51.3"><defs><path id="a" d="M0 0h79.7v51.3h-79.7z"/></defs><clipPath id="b"><use xlink:href="#a" overflow="visible"/></clipPath><path clip-path="url(#b)" fill="#A3DAE7" d="M9.1 31.3c.8-3.3 3.2-4.2 5.8-4.6.4-.1.9-.1 1.4-.1l.8.1c.2 0 .8 0 1.1.1.7.4 1.3.9 1.9 1.3.5.3.8.5 1.1.9.5.6.7 1.3 1.1 1.9l.5 1.1c.1.1.2.3.2.4 0 .1-.1.1-.1.1v.4c0 .4 0 .8-.1 1.3l-.1.3c-.2.7-.5 1.1-.8 1.5l-.3.5c-.1.1-.3.3-.5.4-.3.3-.6.6-.9.8-.6.5-1.4.7-2.2 1-.5.2-.9.5-1.5.5-.5 0-1.1-.2-1.7-.3-1-.1-2.3-.5-3-1-.4-.3-.7-.8-1-1.2-.7-.9-1.2-1.5-1.5-2.6l-.3-.7v-1.3c0-.2.2-.5.1-.8M.2 22.6c.8-3.2 3.2-4.2 5.8-4.6.4-.1.9-.1 1.4-.1l.8.1c.2 0 .8 0 1.1.1.7.4 1.3.9 1.9 1.3.4.3.8.5 1.1.9.5.6.7 1.3 1.1 1.9l.5 1.1c.1.1.2.3.2.4 0 .1-.1.1-.1.1v.4c0 .4 0 .8-.1 1.3l-.1.3c-.2.7-.5 1.1-.8 1.5l-.3.5c-.1.1-.3.3-.5.4-.3.3-.6.6-.9.8-.6.5-1.4.7-2.2 1-.5.2-.9.5-1.5.5-.5.1-1.1-.2-1.7-.2-1-.1-2.3-.5-3-1-.4-.3-.7-.8-1-1.1-.7-.9-1.2-1.5-1.5-2.6l-.3-.7c-.1-.6-.1-1-.1-1.5 0-.2.2-.5.2-.8M74.8 27.8c.9 3.2-.6 5.3-2.7 6.9-.3.3-.7.6-1.1.8l-.7.3c-.2.1-.7.4-1 .4-.8 0-1.6-.1-2.3-.2-.5 0-.9 0-1.4-.2-.7-.2-1.3-.7-1.9-1.1-.3-.2-.6-.4-1-.7l-.4-.3v-.2c0-.1-.1-.3-.2-.4-.2-.3-.4-.7-.6-1.1v-.3c-.2-.7-.1-1.2-.1-1.7v-.5c0-.2.1-.4.2-.6.1-.4.2-.8.4-1.2.3-.7.9-1.3 1.4-1.9.3-.4.6-.9 1-1.2.4-.3 1.1-.4 1.6-.7.9-.5 2.2-.7 3.1-.6.5.1 1 .3 1.5.5 1.1.4 1.8.7 2.6 1.4l.6.5c.3.3.5.7.7 1.1.2.4.2.9.3 1M79.4 19.2c.9 3.2-.6 5.3-2.7 6.9-.3.3-.7.6-1.1.8l-.7.3c-.2.1-.7.4-1 .4-.8 0-1.6-.1-2.3-.2-.5 0-.9 0-1.4-.2-.7-.2-1.3-.7-1.9-1.1-.3-.2-.6-.4-1-.7-.1-.1-.3-.1-.4-.3v-.2c0-.1-.1-.3-.2-.4-.2-.3-.4-.7-.6-1.1v-.3c-.2-.7-.1-1.2-.1-1.7v-.5c0-.2.1-.4.2-.6.1-.4.2-.8.4-1.2.3-.7.9-1.3 1.4-1.9.3-.4.6-.9 1-1.2.4-.3 1.1-.4 1.6-.7.9-.5 2.2-.7 3.1-.6.5.1 1 .3 1.5.5 1.1.4 1.8.7 2.6 1.5l.6.5c.3.3.5.7.7 1.1.1.3.1.7.3.9"/><path clip-path="url(#b)" fill="#FF6A13" d="M57.6 51.3c-1.7 0-4.6-.1-6.7-.1-1.3 0-2.8.2-3.8-.1h-1.2c-1 0-2.5.1-3.2-.1-2.3 0-4.6 0-6.9-.1-.9-.2-2.4-.2-3.4-.2h-1.4c-.8-.2-2-.2-2.9-.2h-1.4c-.5-.1-1.3.1-1.9-.1-.5-.1-1.4.1-2-.1-.7-.2-1.8-.1-2.3-.1l-.1-.1c0-.8-.1-1.6-.3-2.3v-.8l-.4-3.1c-.3-1.1-.1-2.2-.3-3.2 0-.5 0-1.1-.1-1.6l-.4-3.9v-1c-.3-1.2-.1-2.6-.3-4-.7-4.2.2-10.3 1.2-13.8.4-1.4.6-2.6 1.1-3.9.4-1 1.7-2.3 2.3-3.2.5-.6 1-1.2 1.4-1.8.3 0 .4-.4.6-.5.7-.5 1.5-.8 2.1-1.3.9-.7 1.8-1.7 2.8-2.3 1.1-.7 2.5-1.1 3.7-1.5 1.2-.4 2.5-.4 3.9-.7 1.3-.3 2.9-.4 4.3-.8l1.5-.1c1.2-.3 3-.6 4.3-.2 1.5.4 3 .8 4.4 1.2.5.1.8.1 1.2.3.8.4 1.6 1 2.4 1.5.7.5 1.5.7 2.3 1.2.6.4 1.6 1.6 2.1 2.3l1 1.1c1.3 1.7 2.6 3.9 3.2 6.1.4 1.5.2 3.3.5 4.9.2.9-.1 2.1.1 2.9 0 1.1 0 2.2.1 3.3.1.4.2 1.4.1 1.8 0 .1-.1.3-.1.5.1.7 0 1.6 0 2.7 0 1.2.1 3.1-.1 4v3.7c0 1.5.2 3.4-.1 4.7-.2.9 0 1.8-.1 2.6l-.2 2.4-.2 2.5c-.1.5.1.9-.2 1.1-.3.2-1.2.1-1.7.1-1.1 0-2.2 0-3.3.1-.4.1-1.2 0-1.6.2"/><path clip-path="url(#b)" fill="#fff" d="M56.2 16.9c.3.3.7.7 1 1.1l-.1.1-.3.3-1.3 1.2c-.2.2-.5.6-.7.7l-.1.1-.3.3-.8.8-.1.1c0 .1-.1.1-.2.2l-.2.2-.1.1-.2.2s-.1.1-.1.2l-.1.1-.1.1-.1.1-.2.2c-.1.1-.3.3-.3.4l-.2.2h-.1l-.1-.1c-.1 0-.1-.1-.2-.2l-.1-.1c-.1-.1-.2-.2-.2-.3l-.1-.1-.2-.2s-.1-.1-.1-.2c0 0 0-.1.1-.1l.2-.2.2-.2.4-.4.2-.2.3-.3.2-.2s.1-.2.2-.2l.3-.3.3-.3c.2-.2.4-.4.7-.6.1 0 .1-.1.2-.2s.2-.2.4-.3l.2-.2s.1-.1.2-.1l.3-.3.3-.3.1-.1.3-.3.3-.3.1-.1c0-.1 0-.2.1-.3M52.5 17.4l.2.2c.1 0 .3.3.4.4l.6.5.3.3c.1.1.1.2.2.2s.1.1.2.2l.4.4.2.2c.1.1.3.3.4.3l.2.2c.1 0 .1.1.2.2l.3.3.3.3.1.1c.1.1.2.1.2.2l.1.1.1.1c.1 0 .1.1.2.2l.2.2c0 .1-.3.3-.4.4-.1 0-.2.2-.2.2-.2.2-.4.3-.5.5l-.1-.1-.1-.1-.2-.2c-.2-.1-.3-.3-.5-.5-.2-.1-.3-.2-.3-.3l-.3-.3s-.1-.1-.2-.1l-.1-.1-.1-.1-.2-.1c-.1-.1-.2-.2-.3-.2l-.2-.2-.4-.4c-.1 0-.1-.1-.2-.2l-.2-.2-.3-.3-.1-.1-.1-.1-.1-.1-.1-.1c-.1-.1-.2-.2-.4-.3l-.4-.4.3-.3.1-.2c0-.1.1-.1.1-.1l.1-.1s.1-.1.1-.2l.1-.1c.2 0 .3-.1.4-.2M26.7 17.3c.1 0 .1 0 .2.1s.2.2.3.2l.6.5c.1 0 .1.1.1.1l.1.1c.1 0 .1.1.2.2s.2.2.3.2l.1.1.3.2.1.1.2.1.7.5.1.1c.1.1.2.2.3.2l.1.1c.2.1.4.4.7.5.1 0 .2.2.2.2.1.1.2.2.4.3 0 0 .1 0 .1.1.1 0 .1.1.2.2l.3.2c-.1 0-.1.1-.2.2l-.1.1-.1.1-.3.3-.1.1-.1.1c0 .1-.1.1-.2.2l-1.2-.9-.1-.1-.3-.2-.2-.1-.4-.3s-.1 0-.1-.1l-.3-.2-.1-.1-.7-.5-.3-.3-.1-.1-.1-.1c-.1 0-.2-.2-.2-.2l-.2-.2c0-.1-.1-.1-.1-.1l-.1-.1-.1-.1c-.1-.1-.3-.2-.4-.4l-.3-.3c0-.2.4-.6.8-1M31.7 17.9v.1l-.1.1c-.1.1-.2.2-.2.3 0 0 0 .1-.1.1l-.1.1c-.1.2-.3.4-.5.6l-.2.2-.3.3c0 .1-.1.1-.2.2l-.2.2-.3.3-.2.2-.1.1-.1.1-.4.5-.1.1-.1.1-.2.2c-.1.2-.3.3-.4.4l-.1.1-.3.3-.2.1-.2.2-.3.3-.3-.2-.6-.6-.2-.2.1-.1.2-.2.1-.1.1-.2c0-.1.1-.1.2-.2s.2-.2.3-.4l.2-.2c.1-.2.3-.4.5-.5l.1-.1.2-.2.1-.1s.1-.1.1-.2l.1-.1c.1-.1.2-.2.2-.3l.1-.1.3-.3.1-.1c.1-.2.3-.3.4-.4l.1-.1.4-.4.1-.2.1-.2.2-.2c.1-.1.2-.2.2-.3l.1-.1.2-.2s.1 0 .1.1l.2.2c.1 0 .1.1.2.2.1 0 .1.1.2.2l.3.3c.1.2.2.3.2.3M56.5 47.6h-1.4c-.3-.1-1.1 0-1.4 0-.4-.1-.8 0-1.1 0-.6-.1-1.3.1-1.9-.1h-.8c-.3 0-.7 0-.9-.1h-2.2c-.3-.1-.6 0-.9 0-.3 0-.8 0-1.1-.1-.3-.1-.9 0-1.2 0-.3-.1-.7 0-.9 0-1.4 0-2.7 0-4.1-.1l-2.1-.1h-.7l-2-.1h-.8l-1.2-.1h-.6l-1.2-.1-3.2-.3c-.1-.2 0-.5 0-.7.1-.1 0-.3 0-.4.1-.5 0-1.1.2-1.7.2-1 .4-1.9.7-2.8.9-2.1 2-4 3.2-5.7.5-.6 1-1.5 1.6-1.9.9-.7 1.9-1.3 2.9-2 .5-.3 1-.7 1.6-1l.6-.5c.2 0 .4 0 .6-.1.6-.1 1.2-.1 1.8-.3l1.7-.3h.6c.3-.1 1-.2 1.4-.1.9.2 1.9.4 2.7.8.5.2 1 .7 1.5 1 .5.4 1.1.7 1.7 1.1l1.6 1.6 1.2 1.2.6.5c.4.5.7 1 1 1.5.8 1.3 1.3 2.8 1.8 4.4l.2 1.1c.2.8.3 1.7.5 2.6 0 .3 0 .7.1 1-.1.5-.1 1.3-.1 1.8"/><path clip-path="url(#b)" fill="#E21C79" d="M46.7 47.3h-1.9c-.3-.1-.6 0-.9 0h-5.699999999999999c-.3-.1-.7 0-1 0h-.4l-.9-.1h-1.7999999999999998l-1.5-.1v-.5l.1-.8c.1-.5.2-.9.3-1.3.4-1 .9-1.9 1.5-2.7.2-.3.5-.7.7-.9.4-.3.9-.6 1.4-.9l.7-.5c.1-.1.2-.2.3-.2h.3c.3-.1.6-.1.8-.1.3-.1.5-.1.8-.1h.3c.2 0 .5-.1.6 0 .4.1.9.2 1.3.4.2.1.5.3.7.5l.8.5c.2.3.5.5.8.8l.6.6.3.2.5.7c.4.6.6 1.3.8 2.1l.1.5.3 1.2v.5c.2-.4.2 0 .1.2"/></svg>