<svg xmlns="http://www.w3.org/2000/svg" xmlns:xlink="http://www.w3.org/1999/xlink" viewBox="0 0 45 39.4" enable-background="new 0 0 45 39.4"><defs><path id="a" d="M0 0h45v39.4h-45z"/></defs><clipPath id="b"><use xlink:href="#a" overflow="visible"/></clipPath><path clip-path="url(#b)" fill="#878A8C" d="M16 10.8c.2-.1 1-.1 2.5-.1h1.5v3.8000000000000003h-4v-3.3c0-.2-.1-.3 0-.4"/><path clip-path="url(#b)" fill="#F8B4C3" d="M10.8 12.6c-.1-.2-.1-.6-.1-.8l-.1-.4c0-.4-.1-.9-.1-1.4-.3-2-.5-4-.8-6.1-.1-.4-.1-.9-.2-1.4l-.1-.5c0-.2 0-.6-.1-.8h.3s0 .1.1.1l.6.2 1.4.6 2.1.9c.4.2.8.4 1.3.6.3.1.6.2.9.4l.7.3 2 .9c.4.2 1 .4 1.3.6l-.2.2-.6.4-1.8 1.3-5.5 4.2c-.1.1-.2.2-.3.2-.4.2-.6.4-.8.5M25.2 5.5c.2-.2.5-.3.7-.4.1-.1.2-.2.4-.2l1.2-.6 5.4-2.9c.4-.2.8-.4 1.2-.7.2-.1.3-.2.4-.3.2-.1.6-.3.7-.4v.4c0 .2.1.4 0 .7 0 .5-.1 1-.1 1.6-.1.7-.1 1.5-.1 2.2l-.1 1.4v1c.2.1.1.4.1.7 0 .7-.1 1.4-.1 2.2 0 .4 0 1-.1 1.4l-.3-.1-.6-.4-1.9-1.2-5.9-3.7c-.1-.2-.2-.3-.3-.3-.2-.2-.4-.3-.6-.4M35.2 26.5c.1.2.1.6.1.8l.1.4c0 .4.1.9.1 1.4.3 2 .5 4 .8 6.1.1.4.1.9.2 1.4l.1.5c0 .2 0 .6.1.8-.1 0-.2 0-.3-.1l-.1-.1-.6-.2-1.4-.6-2.1-.9-1.2-.6c-.3-.1-.6-.2-.9-.4l-.7-.3c-.7-.2-1.3-.6-2-.9-.4-.2-1-.4-1.3-.6l.2-.2.6-.4 1.8-1.3 5.5-4.2c.1-.1.2-.2.3-.2.3-.2.5-.3.7-.4M36 13.9l.7.5.3.3 1 .9 4.8 3.8 1.1.9.4.3.7.5c-.1 0-.2.1-.2.2h-.1l-.6.3c-.5.2-1 .4-1.5.5-.7.2-1.4.5-2.1.8l-1.3.5-.9.4c-.2.1-.5.1-.7.3-.7.3-1.3.5-2 .7-.4.1-.9.4-1.4.5v-.3l.1-.7.3-2.2c.4-2.3.7-4.6 1.1-6.8 0-.1 0-.3.1-.4.1-.5.1-.8.2-1M20.3 33.9c-.2.2-.5.3-.7.4-.1.1-.2.1-.4.2l-1.2.6-5.4 2.9c-.4.2-.8.4-1.2.7-.2.1-.3.2-.4.3-.2.1-.6.3-.7.4v-.4c0-.2-.1-.4-.1-.7 0-.5.1-1 .1-1.6.1-.7.1-1.5.1-2.2l.1-1.4v-1l.1-.8c0-.7.1-1.4.1-2.2 0-.4 0-1 .1-1.4l.3.1.6.4 1.9 1.2 5.9 3.7c.1.1.2.1.4.2.1.3.3.5.4.6M10.2 26.2c-.2 0-.6-.3-.7-.4l-.4-.2-1.2-.7-5.5-2.8-1.2-.6-.5-.2-.7-.4v-.1c.1 0 .1-.1.2-.2h.1l.5-.4c.4-.3.9-.5 1.4-.8l1.9-1.2 1.2-.7c.3-.2.5-.4.8-.5.2-.1.5-.2.7-.4.6-.4 1.2-.7 1.9-1.1.3-.1.7-.5 1.2-.6v1c0 .7 0 1.5.1 2.2l.2 6.9v.4c-.1.4 0 .6 0 .8M20.5 3.8h1.6c.6 0 1.5 0 2.2.1.3 0 .9 0 1.1.1 1.2.3 2.6.4 3.6 1 2 1 3.3 2.5 4.5 4.2.4.6 1.1 1.3 1.4 1.9.1.2.1.4.2.5.5 1.1.9 2.2 1.2 3.4.1.8.2 1.5.2 2.3v.8c0 .2.1.4.2.6 0 .1.1.2.2.3.1.2 0 .7-.1.8v.4l-.1 1.1v.4c-.1.5-.1 1-.3 1.5-.3 1.1-.6 2.2-1.1 3.2-.2.4-.2.8-.5 1.2-.8 1.3-2.3 2.3-3.5 3.2h-.1l-.3.3c-.1.1-.2.1-.3.1-1.1.7-2.2 1.4-3.4 2l-.7.4c-.2.1-.4 0-.5 0-.2.1-.4.1-.7.1h-.3l-1.5.2c-1 .2-2.2.3-3.1.1-.3 0-.6 0-.9-.1l-1.8-.7c-.7-.3-1.5-.4-2.1-.8-.6-.3-1.2-.6-1.8-1l-.6-.5-.9-.6-.4-.2-.4-.6-.3-.3c-.1-.2-.2-.4-.4-.6l-.3-.3c-.2-.4-.1-.8-.2-1.2-.2-.5-.4-1-.5-1.5 0-.2-.1-.4-.1-.7-.3-1-.7-2.4-.6-3.6v-.6c0-.7 0-1.5.1-2.2v-.3c.1-.5.1-1.1.2-1.7.1-.3 0-.6 0-.9.6-2.1 1.5-4 2.5-5.6.3-.5.5-.9.8-1.3l.4-.5c.9-1.2 2.1-2.2 3.4-3.1l1-.7c.2-.1.5-.2.7-.4.2-.1.5-.3.8-.4.3.2 1.3.3 1.5.2"/><path clip-path="url(#b)" fill="#009E4D" d="M19 20.2h1.3l.2.3s0 .1.1.1c0 .1.1.1.2.2l.6.5.1.1.2.1s.1 0 .1.1h.9000000000000001l.6-.1c.1 0 .3-.1.4-.2l.4-.3.2-.2c.1-.1.2-.1.2-.2l.3-.5s0 .1.1.1l.2.2.1.1c.1.1.2.2.3.4l.2.2.1.1s0 .1.1.1c0 .1-.1.2-.2.3-.1.1-.1.2-.1.3l-.1.1-.1.1-.1.1-.1.2s0 .1-.1.1c-.1.1-.3.2-.4.2-.1.1-.2.2-.3.2-.1 0-.1 0-.2.1l-.6.2h-1c-.3 0-.7 0-.9-.1-.4-.1-.9-.3-1.2-.5l-.3-.3c-.1-.1-.2-.2-.3-.4l-.1-.2-.1-.3c0-.1 0-.2-.1-.2l-.1-.3s0-.1-.1-.1v-.2c-.4-.2-.4-.3-.4-.4"/><path clip-path="url(#b)" fill="#fff" d="M15.7 15.5c.1.1.1.3.1.3v1.1c0 .2 0 .4.1.6v2.6999999999999997c-.1.3-.3.5-.5.7-.1.1-.2.2-.2.3-.1.1-.2.1-.3.1l-.3.2s-.1 0-.1.1h-1.2l-.2-.1-.3-.2c-.4-.3-.7-.6-.9-1v-.2c0-.2 0-.4-.1-.7l-.1-.8v-1.6c0-.4 0-.7-.1-1.1h1l1-.1h1.3c.2 0 .4 0 .6-.1.1-.2.2-.1.2-.2"/><path clip-path="url(#b)" fill="#FF6A13" d="M12.6 16.4c.2 0 .7-.1 1.6 0h1v2.4h-2.8000000000000003v-2.2c.2-.1.2-.1.2-.2"/><path clip-path="url(#b)" fill="#fff" d="M33.7 16.6h.1v3.7l-.1.4c-.1.2-.1.4-.1.6l-.1.3c0 .1 0 .1-.1.2l-.3.3c-.2.2-.4.5-.7.6-.1 0-.2.1-.2.1l-.5.2h-.5l-.6-.2-.6-.3-.1-.1c-.1-.1-.2-.2-.3-.4v-.1l-.1-.3c0-.1-.1-.3-.1-.5v-4.000000000000001h4.1c.1-.5.2-.5.2-.5"/><path clip-path="url(#b)" fill="#FF6A13" d="M30.4 17c.2 0 .7-.1 1.6 0h1v2.4h-2.8000000000000003v-2.2c.2 0 .1-.1.2-.2"/></svg>