<svg xmlns="http://www.w3.org/2000/svg" viewBox="0 0 33.75 28.24"><defs><style>.cls-1{fill:#e36b43;}.cls-2{fill:#d97037;}.cls-3{fill:#ca7f4c;}.cls-4{fill:#da7743;}.cls-5{fill:#de6d3d;}.cls-6{fill:#ef7038;}.cls-7{fill:#e48244;}.cls-8{fill:#e89255;}.cls-9{fill:#e76230;}.cls-10{fill:#cb8241;}.cls-11{fill:#e07a4b;}.cls-12{fill:#fadfa1;}.cls-13{fill:#f6d783;}.cls-14{fill:#fad37c;}.cls-15{fill:#fee8c6;}.cls-16{fill:#f9d791;}.cls-17{fill:#f8d179;}.cls-18{fill:#dc4c2b;}.cls-19{fill:#f7d177;}.cls-20{fill:#dc6c3f;}.cls-21{fill:#cf602b;}.cls-22{fill:#f9d885;}.cls-23{fill:#d2754a;}.cls-24{fill:#fbd479;}.cls-25{fill:#f0c166;}.cls-26{fill:#f6d88b;}.cls-27{fill:#fbdd8e;}.cls-28{fill:#f9dc8f;}.cls-29{fill:#f7e0b4;}.cls-30{fill:#cf8890;}.cls-31{fill:#e14d7f;}.cls-32{fill:#f6d690;}.cls-33{fill:#f6d787;}.cls-34{fill:#f3c65d;}.cls-35{fill:#f5c0a8;}.cls-36{fill:#f5bda6;}.cls-37{fill:#e05f82;}.cls-38{fill:#eb939d;}.cls-39{fill:#e66285;}.cls-40{fill:#ea3879;}</style></defs><title>crown</title><g id="Layer_2" data-name="Layer 2"><g id="Layer_1-2" data-name="Layer 1"><path class="cls-1" d="M25.5,26,24,26.07a2,2,0,0,1-2.39,0c-5.54-.71-10.92.49-16.34,1.34a1.17,1.17,0,0,1-.22-1.16C7.1,24,10,24.51,12.55,24a14.06,14.06,0,0,1,3.31,0,6.47,6.47,0,0,1,.76,0,15.27,15.27,0,0,0,3.31,0,11.07,11.07,0,0,1,1.91.11c1.81.74,4-.42,5.64,1.17C27.17,26.43,26.06,25.43,25.5,26Z"/><path class="cls-2" d="M25.5,26c.55-.64,1.33-.34,2-.47,4.2-.75,3.37-4.13,3.62-6.94a2.44,2.44,0,0,1,.37-1.08.91.91,0,0,1,.67-.32c1.15.25.58,1.58,1.32,2.09a3.65,3.65,0,0,1,.26,1.12,5.35,5.35,0,0,1-.21,1.91c-.86,1.47-.36,3.3-1.21,4.77a1,1,0,0,1-1.11,0A17.75,17.75,0,0,1,25.5,26Z"/><path class="cls-3" d="M5.27,26.4l0,1c-1.3.49-2.62,1.65-3.87-.1a2.56,2.56,0,0,0,.1-.34,1.15,1.15,0,0,1,.82-.36C3.33,26.67,4.24,25.64,5.27,26.4Z"/><path class="cls-4" d="M24.06,8.72c.83-1.24,2.23-1.71,3.42-2.43a17.08,17.08,0,0,0,3.88-2.7c1.23-1.3,2-.72,2.11.79a20,20,0,0,1-.24,6.37,1.29,1.29,0,0,1-.56-.84c-.2-.84.06-1.75-.4-2.54q-.2-.25-.36-.51c-2-.89-2.8,1.35-4.32,1.68-.9.41-1.76.91-2.7,1.26a1.34,1.34,0,0,1-.66,0C23.8,9.51,23.63,9.16,24.06,8.72Z"/><path class="cls-5" d="M2.44,1.53l3,3.34C6.15,5.62,7,6.18,7.66,7c.92.47.77,1.92,2,2.14a.48.48,0,0,1,.59,0,.88.88,0,0,1,0,.64,1,1,0,0,1-.81.52C7.54,9.76,6.42,8.18,5,7,3.67,5.62,1.74,4.68,1.65,2.39,1.71,1.92,1.72,1.4,2.44,1.53Z"/><path class="cls-6" d="M33.07,9.55c0,.4.11.8.16,1.2,0,2.56,0,5.11,0,7.67a.59.59,0,0,1-.15.87c-.7-.47-.12-1.59-1-2a2.33,2.33,0,0,1-.42-.75c-.27-2-.08-4-.15-6,.15-1.28-.38-2.68.71-3.78l.45,0C33.22,7.68,32.64,8.68,33.07,9.55Z"/><path class="cls-7" d="M19.24,3.93l0,.46a1.2,1.2,0,0,1-.6,1.12,2.7,2.7,0,0,1-2.16-1.34C16.24,3.47,15.82,3,15,3.09a1.54,1.54,0,0,1-.73-1,.64.64,0,0,1,.18-.57c1-.88,1.83-1,2.73.18A22.88,22.88,0,0,0,19.24,3.93Z"/><path class="cls-8" d="M22.2,7.66l.89.38,1,.68a1,1,0,0,0,.4.95.44.44,0,0,1,0,.64C22.21,11,21.3,9.15,20,8a1.24,1.24,0,0,1,0-1C21.08,6.12,21.33,7.87,22.2,7.66Z"/><path class="cls-9" d="M.6,18.36.45,13.67A87.28,87.28,0,0,1,.5,1h0c1-.45,1,.14,1,.88.22,2.6.11,5.21.14,7.82A10.37,10.37,0,0,0,2,13a26.09,26.09,0,0,1,.11,6c-.14.54-.28,1.33-.89,1.19C.28,20,.85,19,.6,18.36Z"/><path class="cls-10" d="M.6,18.36c.14.33.26.67.41,1a4,4,0,0,0,.28.43l.26-.6a.64.64,0,0,1,.71.33C2.54,22,3.66,24.46,2.4,27H1.53c-.41-1.27-.28-2.67-1-3.87,0-.46-.07-.93-.11-1.39-.18-.93-.55-1.87,0-2.81Z"/><path class="cls-11" d="M1.41,13.06C.5,9.48,1.18,5.85,1,2.24,1,1.72,1.41,1.12.5,1,.42.64.38,0,.71,0c1,0,1.33.81,1.73,1.53A.93.93,0,0,0,2,2.45c.12,2.13.26,4.25.23,6.39C2.09,10.27,2.59,11.82,1.41,13.06Z"/><path class="cls-11" d="M.5,1q0,6.32,0,12.63A42.11,42.11,0,0,1,.5,1Z"/><path class="cls-12" d="M24.5,10.1c0-.14,0-.29,0-.43l.09,0a.46.46,0,0,1,.6-.09c.73.41,1,1.19,1.53,1.78s.82,1.11,1.3-.21c.31-.88,1.55-.33,2.38-.13a2.06,2.06,0,0,1,1.58,2.11c.11,1.23-.52,2.5.14,3.72a.61.61,0,0,1,0,.44l-.37.05a1.12,1.12,0,0,1-1.24.25c-.83-.62-.08-1.62-.57-2.32a3,3,0,0,0-.55-.68c-1.31-.56-1.49.54-1.79,1.29s.29,1.31,1,1.64c.44.2.93.24,1.37.44,1.15.78,1,1.86.72,3a2.72,2.72,0,0,1-3.16,1.42c-.3,0,0,.46,0,.14,0-.12,0-.16.19-.13.42.08,1.05-.21,1.14.46.07.48-.44.6-.81.69a4,4,0,0,1-2.53-.33,6.19,6.19,0,0,0-3-.34c-1.29.11-.89.93-.82,1.64l-1.9,0a4,4,0,0,0-2.91,0l-.24,0-.23-.07a.78.78,0,0,1-.14-.89c0-.25.58-.12.34-.41-.86-1-.3-2.07.59-2.11,1.6-.07,2-1.21,2.77-2.14,1.85-.19,3-1,3.1-3.07,0-1,.26-1.78-1.06-2.13a1.59,1.59,0,0,1-1-1.9A6.75,6.75,0,0,1,24.5,10.1Z"/><path class="cls-13" d="M16.36,23.61c0,.32,0,.63,0,.94-3.78.05-7.57,0-11.07,1.85-1-.21-1.78,1-2.87.57q-.23-3.82-.47-7.67c1.23-1.21,1.81-3,3.28-4,.77.78.9-.74,1.55-.45a2.3,2.3,0,0,1,.52,2.2c-.19,1.28.49,1.86,1.53,2.24.41.61.84,1.33.21,1.94-1,.93-1.89-.1-2.87-.29-.21,1.06.3,2.22-.67,3.11C7.53,22,10,22.45,12.19,23.24,13.62,23.74,15.05,22.79,16.36,23.61Z"/><path class="cls-14" d="M21.62,24.54l-1.64-1c2.69-2.8,5.61-.5,8.48-.35-.37-.89-1.16-.27-1.61-.95a5.74,5.74,0,0,0,3.42-1.06c1.09-.65-.31-2.57,1.45-2.88.28,2.06-.42,4.05-.46,6.08,0,1-.58,1.16-1.41,1.11s-1.57,0-2.35,0C25.65,24.48,23.47,25.55,21.62,24.54Z"/><path class="cls-15" d="M16.81,24.6a2.17,2.17,0,0,1,2.91,0C18.75,24.61,17.79,25,16.81,24.6Z"/><path class="cls-16" d="M31.72,18.32c-1.14.63.38,2.6-1.45,2.88-.3-1,.78-2.37-.93-2.88-.4-1.1,0-1.34,1-.94h1.38Z"/><path class="cls-17" d="M32.24,6.8l-.15,3.86-.19.12c-1-1.55-3.23-.92-4.37-2.27l-.16-.29c1.15-.76,2.27-1.58,3.47-2.27C31.69,5.45,32.31,5.64,32.24,6.8Z"/><path class="cls-17" d="M25,9.71h-.42a6.31,6.31,0,0,1,2.82-1.49l.07.07c.24.52,1.58.8.65,1.54A2.18,2.18,0,0,1,25,9.71Z"/><path class="cls-18" d="M33.07,9.55c-.78-.82-.23-1.81-.38-2.71C33.48,7.65,33,8.63,33.07,9.55Z"/><path class="cls-19" d="M6.75,15c-.77.51-.23,1.5-.76,2.18-1-.27-.5-1.13-.67-1.69a1,1,0,0,1-.3-.9c.33-1.26,1.21-2.45.52-3.85A7.21,7.21,0,0,1,5,7.3a1.14,1.14,0,0,1,.36-.53l4.3,3.42a1.18,1.18,0,0,0,1-.17c.39-.34.78-.67,1.31-.25.66,2,.44,3.33-.71,4.24a2.38,2.38,0,0,1-1.32-.15c-1.07-1.1-1.56-.38-2,.63A1.29,1.29,0,0,1,6.75,15Z"/><path class="cls-13" d="M5.33,6.77l0,.53A1,1,0,0,0,5,8.13c.33,1.75-.13,2.39-1.75,1.19C2.66,8.91,2,9,1.47,8.73,1.63,6.64,1,4.48,2,2.45,2.36,4.46,4.41,5.17,5.33,6.77Z"/><path class="cls-20" d="M11.5,9.6l-.88,1.05a1.06,1.06,0,0,1-.5-1V9.19a5.34,5.34,0,0,0,1.12-2.26C12.38,5.34,12.9,3.34,14.4,2a1,1,0,0,1,.53,1,.89.89,0,0,1,.25.9,3.24,3.24,0,0,1-.27.6,28.75,28.75,0,0,0-2.49,4.21A1.81,1.81,0,0,1,11.5,9.6Z"/><path class="cls-21" d="M10.12,9.7a1,1,0,0,1,.5,1c-.64.51-.71-.19-1-.46C9.79,10,10,9.87,10.12,9.7Z"/><path class="cls-22" d="M25,9.71c1,.43,2-.14,3-.1-.18-.48-.33-.9-.49-1.32a5,5,0,0,1,2.15.89,13.87,13.87,0,0,1,2.5,1.48c0,2.08,0,4.15,0,6.23-1.22-.67-.62-1.7-.51-2.61.25-2-.87-3.24-2.86-3.08-.36,0-.61.13-.57.54s.82.2.56.76c0,.08-.3.08-.45.06-.79-.14-1.95.48-2.2-.78C25.88,10.93,25,10.56,25,9.71Z"/><path class="cls-23" d="M22.2,7.66c-1.08.76-1.25-.92-2.09-.77-.95,0-1.5-.46-1.34-1.5a1,1,0,0,1,.5-1Z"/><path class="cls-24" d="M18.77,5.39l1.34,1.5c0,.29.08.58.13.88-.38.33-1.39.34-.55,1.28.69.77,1.33,1.65.51,2.75a1.86,1.86,0,0,1-.94.32,2.29,2.29,0,0,1-1.94-.73A1.62,1.62,0,0,0,15,10.82c-1.25.55-1.72-.66-1.87-1.79C12.64,7,14.71,5.76,14.9,3.92h0a1.42,1.42,0,0,1,1.93,0Z"/><path class="cls-25" d="M16.83,3.93l-1.93,0,0-.93C16.64,1.13,16.49,3,16.83,3.93Z"/><path class="cls-26" d="M20.19,11.58c.18-1-.6-1.59-.93-2.37C19,8.68,17.67,9,18.35,8c.51-.8,1.21-.57,1.89-.21,1.49.65,2.23,2.65,4.26,2.33-1.31.07-1.79,2-3.34,1.51A.66.66,0,0,1,20.19,11.58Z"/><path class="cls-27" d="M1.47,8.73C3,7,3.47,9.14,4.33,9.6c.78-.69-.78-2.15,1-2.3.17,1.12.33,2.23.5,3.35a8.5,8.5,0,0,1-.48,3.84v1C4.23,16.77,4.13,19,1.93,19.3a2.79,2.79,0,0,1-.39-.1q-.06-3.07-.13-6.14Z"/><path class="cls-28" d="M16.36,23.61c-1.68.2-3.21,1.09-5.06-.28-.8-.6-2.82.34-4.28-.18,0,1.6-1.16,1.26-2.88,1.58,2.5-1.59.49-3.55,1.64-5.21,1,.56,1.48,2.2,2.83,1.54.6-.31-.12-1.16.06-1.76L9,19.19c2.44.58,3.1-1.12,3.69-2.9.81-1.95,2.35-2.3,4.23-1.94.51.51.51,1.24.79,1.85.21,1.25,1.4,1.5,2.2,2.15a.82.82,0,0,1-.16.93c.8,1.76-.82,2.09-1.72,2.45-1.29.51-1.4.34-.79,1.42.18.32.08.37-.15.42A4.17,4.17,0,0,1,16.36,23.61Z"/><path class="cls-29" d="M19.73,19.28l0-.93c.19-.69.85-.88,1.32-1.25a4.83,4.83,0,0,0,.56-.65,3.12,3.12,0,0,0,.23-.49c.15-.51-.18-.85-.43-1.22s-.47-.62-.71-.93c-.4-.71-1.46-.76-1.67-1.66a.66.66,0,0,1,.26-.52l.93-.05,1,0c.11,1.86,1.45,2,2.89,2C22.71,19.29,22.71,19.29,19.73,19.28Z"/><path class="cls-30" d="M30.35,17.38a.88.88,0,0,0-1,.94c-2.81-.52-3.48-1.86-1.81-3.87.61-.74,1.54-1.59,2.29,0-.17.4-1,.71-.67,1,.51.51.73-.48,1.21-.55C31.29,15.74,30.57,16.56,30.35,17.38Z"/><path class="cls-31" d="M30.36,14.92c-.14.8.06,1.94-1.28,1.73A1.3,1.3,0,0,1,28,15.3c.1-1.24,1.16-.67,1.84-.84Z"/><path class="cls-32" d="M6.75,15a1,1,0,0,1,1-.47.39.39,0,0,1,.57,0c-.88,1.66.3,3.16.39,4.75h0c-1.45.29-2.25-.05-1.95-1.78A15.59,15.59,0,0,0,6.75,15Z"/><path class="cls-33" d="M19.26,11.63c0,.15,0,.31,0,.47a21.86,21.86,0,0,1-2.42,2.39c-1.51.16-2.94.48-3.81,1.92a11.3,11.3,0,0,1-1.35-.67,1.8,1.8,0,0,1-.93-1.28,1.16,1.16,0,0,1,.35-.92A3.4,3.4,0,0,0,11.5,9.6a1,1,0,0,1,.5-.91,1.09,1.09,0,0,1,1.48.05c.14.77.24,1.69,1.17,1.79s.87-1.18,1.73-1.62C17.12,10,17.38,11.75,19.26,11.63Z"/><path class="cls-13" d="M5.32,14.49c.21-1.27-.48-2.66.48-3.84C7.07,12.11,6.19,13.3,5.32,14.49Z"/><path class="cls-33" d="M8.2,14.5H7.72c.09-.78-.31-1.82,1-1.91.68,0,1.32-.06.88.94a2.5,2.5,0,0,1-.92,1.11A.48.48,0,0,1,8.2,14.5Z"/><path class="cls-32" d="M8.68,14.46a.88.88,0,0,1,1-.94l1.44,0,0,1a1.76,1.76,0,0,1-1.78.36A1.16,1.16,0,0,1,8.68,14.46Z"/><path class="cls-34" d="M13.48,8.74,12,8.69a11.25,11.25,0,0,1,2.9-4.77,3.17,3.17,0,0,0,1,2.72C13.3,5.75,14,7.84,13.48,8.74Z"/><path class="cls-35" d="M8.68,14.46l.53,0a1.33,1.33,0,0,1,.14.44c.16.91-.55,2.26.9,2.56s1.1-1.4,1.74-2.05a.89.89,0,0,1,1,.95c.26,1.9-1.23,2.73-2.39,3.65-.8.63-1.37-.29-1.94-.77-1.42-1.47-2.15-3-.48-4.79Z"/><path class="cls-36" d="M16.82,14.49c.06-1.56,1.25-2,2.42-2.39.48.68,1.74.4,1.86,1.52a1,1,0,0,1-.57.23,3.1,3.1,0,0,1-.61-.09,1.37,1.37,0,0,0-1.37.26c-.61.61-.57,1.51-1,2.2l-.24.2C16.62,15.91,16.91,15.15,16.82,14.49Z"/><path class="cls-36" d="M21.62,17.36l-1.92,1a1.9,1.9,0,0,1-2.39-1.93l0,0A7.62,7.62,0,0,1,21.62,17.36Z"/><path class="cls-37" d="M20.2,13.53l.9.09.57.85c.22.62,1,1.11.46,1.92l0,0c-1.09.73-2.31,1.21-3.43.3a2.35,2.35,0,0,1-.37-3.18,1.13,1.13,0,0,1,1.9,0c-.84.74-.26,1.44.09,2.19C20.66,14.94,19.72,14.26,20.2,13.53Z"/><path class="cls-38" d="M18.3,13.54c0,3.45.41,3.77,3.8,2.88l-.48.94a5.4,5.4,0,0,1-4.28-1A3,3,0,0,1,18.3,13.54Z"/><path class="cls-38" d="M22.13,16.39c-.16-.64-.31-1.28-.46-1.92C22.41,15,23.06,15.49,22.13,16.39Z"/><path class="cls-39" d="M12,15.46c0,.95.74,2.07-.6,2.69A1.81,1.81,0,0,1,9.19,18c-1-1.1-.65-2.32,0-3.48l1.85,0Z"/><path class="cls-40" d="M20.2,13.53a1.36,1.36,0,0,0,.23.41c.86.86.83,1.8-.22,2.29-.7.34-.94-.86-1.19-1.22-.72-1,.11-1.49,1.18-1.48Z"/></g></g></svg>