<svg xmlns="http://www.w3.org/2000/svg" viewBox="0 0 66.33 91.9"><defs><style>.cls-1{fill:#e28e52;}.cls-2{fill:#fad881;}.cls-3{fill:#eea859;}.cls-4{fill:#f3b53e;}.cls-5{fill:#f6ca64;}.cls-6{fill:#ed8549;}.cls-7{fill:#d97346;}.cls-8{fill:#f7d37a;}.cls-9{fill:#e8b188;}.cls-10{fill:#da8a5e;}.cls-11{fill:#f9da93;}.cls-12{fill:#d9876c;}.cls-13{fill:#eea06b;}.cls-14{fill:#e99e5e;}.cls-15{fill:#e08d3b;}.cls-16{fill:#e9984e;}.cls-17{fill:#e9a185;}.cls-18{fill:#fad393;}.cls-19{fill:#db8663;}.cls-20{fill:#e4a65b;}.cls-21{fill:#dd8252;}.cls-22{fill:#fbd39b;}.cls-23{fill:#e79846;}.cls-24{fill:#e6a86c;}.cls-25{fill:#fbdd99;}.cls-26{fill:#fcd382;}.cls-27{fill:#fcd991;}.cls-28{fill:#f39b70;}.cls-29{fill:#e48351;}.cls-30{fill:#e69f51;}.cls-31{fill:#eb975a;}.cls-32{fill:#de8f40;}.cls-33{fill:#eda74e;}.cls-34{fill:#eb8135;}.cls-35{fill:#d68b41;}.cls-36{fill:#ea8a4b;}.cls-37{fill:#f3b06e;}.cls-38{fill:#e28e5c;}.cls-39{fill:#f6d162;}.cls-40{fill:#d98a41;}.cls-41{fill:#fbd783;}.cls-42{fill:#f9ce62;}.cls-43{fill:#f9d677;}.cls-44{fill:#f7d796;}.cls-45{fill:#e6924b;}.cls-46{fill:#fbdd97;}.cls-47{fill:#fcd985;}.cls-48{fill:#ecb95e;}.cls-49{fill:#f6d882;}.cls-50{fill:#f3c15e;}.cls-51{fill:#e6b348;}.cls-52{fill:#f0b356;}.cls-53{fill:#f8e0a8;}.cls-54{fill:#eeedc1;}.cls-55{fill:#ef9357;}.cls-56{fill:#fcecc7;}.cls-57{fill:#ea9a67;}.cls-58{fill:#f5a765;}.cls-59{fill:#b5a866;}.cls-60{fill:#f7c95b;}.cls-61{fill:#f8f1d4;}.cls-62{fill:#f8e4ae;}.cls-63{fill:#fcebb1;}.cls-64{fill:#f4c877;}.cls-65{fill:#a5b57d;}.cls-66{fill:#f8ca5a;}.cls-67{fill:#f8d065;}.cls-68{fill:#f2d06d;}.cls-69{fill:#f4cb56;}.cls-70{fill:#fcc934;}.cls-71{fill:#ec794b;}.cls-72{fill:#fcedc2;}.cls-73{fill:#f4c25e;}.cls-74{fill:#f6b341;}.cls-75{fill:#f8ce68;}.cls-76{fill:#fac55e;}.cls-77{fill:#f5e6b0;}.cls-78{fill:#fae7b1;}.cls-79{fill:#f6dc99;}.cls-80{fill:#fce5a9;}.cls-81{fill:#fae2a9;}.cls-82{fill:#f8e6b8;}.cls-83{fill:#f9ecc1;}.cls-84{fill:#f6d682;}.cls-85{fill:#f9d885;}.cls-86{fill:#f9d36d;}.cls-87{fill:#f8bd4c;}.cls-88{fill:#f9df9a;}.cls-89{fill:#f9d36f;}.cls-90{fill:#fadc8d;}.cls-91{fill:#fad87f;}.cls-92{fill:#f8e5b0;}.cls-93{fill:#fbe9b9;}.cls-94{fill:#f9db92;}.cls-95{fill:#ecbe7c;}.cls-96{fill:#e8865d;}.cls-97{fill:#bb7f48;}.cls-98{fill:#fae6b6;}.cls-99{fill:#75c08e;}.cls-100{fill:#fad67b;}.cls-101{fill:#f8d678;}.cls-102{fill:#fada89;}.cls-103{fill:#f9dd8f;}.cls-104{fill:#f8d471;}.cls-105{fill:#fcdb92;}.cls-106{fill:#fbd67a;}.cls-107{fill:#e3b679;}.cls-108{fill:#dae7bc;}.cls-109{fill:#fbeabf;}.cls-110{fill:#faeec9;}.cls-111{fill:#fbe3a7;}.cls-112{fill:#f8d77c;}.cls-113{fill:#f8cf59;}.cls-114{fill:#f9cd50;}.cls-115{fill:#f9d164;}.cls-116{fill:#fbdb89;}.cls-117{fill:#f8df9b;}.cls-118{fill:#fae2a2;}.cls-119{fill:#fadd8e;}.cls-120{fill:#f8d77f;}.cls-121{fill:#d4946e;}.cls-122{fill:#fadba2;}.cls-123{fill:#fbf2d6;}.cls-124{fill:#f8d472;}.cls-125{fill:#fcdc96;}.cls-126{fill:#fbde95;}.cls-127{fill:#fdf1d4;}.cls-128{fill:#fbebc0;}.cls-129{fill:#f8d36f;}.cls-130{fill:#f8d26b;}.cls-131{fill:#f8d168;}.cls-132{fill:#f5cc49;}</style></defs><title>dress5</title><g id="Layer_2" data-name="Layer 2"><g id="Layer_1-2" data-name="Layer 1"><path class="cls-1" d="M8.25,68.73c-1.11-3.6-.65-7.4-1.45-11l0-1.42c-.65-3.58-1.4-7.15-1-10.83a24.7,24.7,0,0,0,.18-3c.54-1.45-.17-3.13.86-4.49a.76.76,0,0,1,.77.29c.88,2,.3,4.1.43,6.15s-.24,4,.29,6c.51,3.31.6,6.67.9,10a12.63,12.63,0,0,1,.22,3.13,11.64,11.64,0,0,0,.12,2.83c.07.22.12.44.17.67.13.88.13,1.78.33,2.66s.28,1.84.28,2.78c-.14.69,0,1.6-1.1,1.6l0,0c-.53-.74.15-1.71-.49-2.42h0C8.16,70.74,8.91,69.62,8.25,68.73Z"/><path class="cls-2" d="M60.07,63.5c-.06.62.58,1.22,0,1.84-2.37-1-3-3.53-4.43-5.32a22.06,22.06,0,0,1-1.58-2.67,24.93,24.93,0,0,1-1.45-3.41,1.09,1.09,0,0,1,.24-.95l.48-.07c1.71,2.76,3,5.81,5.33,8.13.55.77.85,1.67,1.4,2.43Z"/><path class="cls-3" d="M48.18,45.1c2.07,2.07,2.64,5,4.33,7.32a.57.57,0,0,0,0,.46,1,1,0,0,1-1,.25,9.91,9.91,0,0,1-3.73-5.79C47.9,46.6,47.46,45.73,48.18,45.1Z"/><path class="cls-4" d="M51.52,52.92l.95,0a.83.83,0,0,1,.4.11l.05.84A2.3,2.3,0,0,1,53,55.75C51.05,55.58,51,54.38,51.52,52.92Z"/><path class="cls-5" d="M32.74,17.4c.17.81-.19,1.71.45,2.43.38,2.36,1.57,4.58,1.23,7.06-.78,1-1.13,2.49-2.84,2.29a.73.73,0,0,1-.43-.46,3.61,3.61,0,0,0-.34-2.92,3,3,0,0,0-.3-.59c-.15-.17,0-.59-.42-.53a1.23,1.23,0,0,1,.07.66,1.45,1.45,0,0,1-.3.56C28.61,27,26.74,25.64,25.54,27c-.52.56-.32,1.44-.86,2a.77.77,0,0,1-.63,0c-.74-.89-.32-2.4-1.61-3a1.49,1.49,0,0,1-.37-.54c.6-1.44,1.95-1.94,3.19-2.59.13-.06.69.1.37-.36-.08-.12-.43-.1-.63-.24-.41-1.07-.11-1.62,1.05-2.06,1.32-.51,3-.58,3.73-2.13a1.84,1.84,0,0,1,.57-.78C31.55,18.27,31.56,18.27,32.74,17.4Z"/><path class="cls-6" d="M32.74,17.4l-.17.16c-.75.68.32,2.35-.81,2.38-1.51,0-.52-1.89-1.34-2.61-1.14-1.52-.88-3.1-.21-4.71,1.71-1,2.3-.24,2.35,1.46,0,.78-.3,1.59.2,2.33C32.76,16.74,32.75,17.07,32.74,17.4Z"/><path class="cls-7" d="M22.16,7.76c.55-.31,1-.67,1-1.39,1-.93.09-2.42,1-3.37.41-.12.61.12.77.43.48,1.1-.12,2.3.3,3.41,0,1-.73,1.5-1.29,2.13a5.38,5.38,0,0,1-1.56,1.12c-.6.23-1.12.6-1.72.85a1.76,1.76,0,0,1-1,0c-.54-.25-1-.55-1.06-1.22.14-.81.85-1,1.45-1.25S21.54,8.25,22.16,7.76Z"/><path class="cls-8" d="M32.77,3.94l0,.43a.82.82,0,0,1,.12.9c-.48.69-.86-.69-1.34-.06a1.49,1.49,0,0,1-1.72-.61,1.66,1.66,0,0,1,1-2.4,6.44,6.44,0,0,1,1.55-.35C33.69,2.32,32.92,3.19,32.77,3.94Z"/><path class="cls-9" d="M32.76,16.41c-.73-.6-.47-1.45-.45-2.18,0-1.36-.57-1.82-1.84-1.62l-.29-.18a1.31,1.31,0,0,1,0-1.31,2.19,2.19,0,0,1,1.14-.72.93.93,0,0,1,.92.27A11.44,11.44,0,0,1,32.76,16.41Z"/><path class="cls-10" d="M31.75,4.9c.69-.56.53.47.91.5a1.93,1.93,0,0,1,0,2.79l-.42,1c-1.55.48-1.28-.77-1.5-1.57a4.47,4.47,0,0,1,.09-1.15A2.93,2.93,0,0,1,31.75,4.9Z"/><path class="cls-11" d="M31.27,7.29c.18.7-.42,1.81.95,1.91v1.47h-.87a2.41,2.41,0,0,1-.93-2.75C30.58,7.54,30.79,7.24,31.27,7.29Z"/><path class="cls-12" d="M25,0a1.16,1.16,0,0,0,.5,1.1.72.72,0,0,1,.22.57,4,4,0,0,1-.58,1.84.44.44,0,0,1-.58,0L24.16,3A4.37,4.37,0,0,1,25,0Z"/><path class="cls-13" d="M9.19,74.07c.73-.52.46-1.32.57-2,1.69.64.92,2.32,1.42,3.47a7,7,0,0,1,.15,2.59,16.22,16.22,0,0,0,.32,4c.18.74.7,1.78-.63,2.17-1.06-.11-.9-1.11-1.28-1.73C9.57,79.76,9,76.94,9.19,74.07Z"/><path class="cls-14" d="M8.25,68.73c.89.85.39,1.93.48,2.91A4.16,4.16,0,0,1,8.25,68.73Z"/><path class="cls-14" d="M8.72,71.63c.86.66.43,1.59.49,2.42C8.59,73.33,8.82,72.45,8.72,71.63Z"/><path class="cls-15" d="M54.36,57.21c1.44,2.1,2.88,4.21,4.34,6.3.44.63.93,1.22,1.39,1.83l.5,1.07a1.82,1.82,0,0,1,.19,1.72c-.91.6-1.3-.16-1.67-.72-1.88-2.84-3.81-5.65-5.52-8.61a1.94,1.94,0,0,1-.11-.72C53.58,57.6,53.64,57.07,54.36,57.21Z"/><path class="cls-16" d="M62,82.64l-.32.52c0,.81-.74.94-1.17,1.36h0c-1.9,2-4.47,2.61-7,3.25A1.8,1.8,0,0,1,52.33,87c0-.25,0-.53.24-.64q4.36-2.34,8.88-4.42C61.84,82,62.12,82.17,62,82.64Z"/><path class="cls-17" d="M63,70.23c1.71,2.78,3.76,5.44,3.3,9-1.42.07-1.59-1.12-1.92-2a26.92,26.92,0,0,0-2-4.82,2,2,0,0,1-.14-.69A1.73,1.73,0,0,1,63,70.23Z"/><path class="cls-18" d="M62.52,72c1.3,1.28,1.68,3,2.25,4.63.34,1,.49,2,1.5,2.58-1,.79-1.26,2.34-2.81,2.45-.26-.45,0-.83.18-1.21.76-1,.28-2-.25-2.92C63.09,75.73,61.3,74.12,62.52,72Z"/><path class="cls-19" d="M63,70.23c-.16.44-.31.88-.47,1.31-1.23.13-1.08-1.21-1.77-1.66-.28-.51-.64-1-.14-1.58,0-.63,0-1.26,0-1.89A17.15,17.15,0,0,1,63,70.23Z"/><path class="cls-20" d="M64,80.75c-.16.32-.32.64-.49,1L62,82.64l-.49-.49a.51.51,0,0,1-.14-.36c0-.13,0-.19,0-.19a3,3,0,0,1,1.43-1.07,1.21,1.21,0,0,1,.88,0Z"/><path class="cls-21" d="M10.18,6.85l.88,1C12,9,13.4,9.16,14.61,9.75c0,.61-.47.78-.94.92a9.46,9.46,0,0,1-2.86,0,2.87,2.87,0,0,1-.64-.23,16.43,16.43,0,0,0-2-1.59A2.93,2.93,0,0,1,7.8,8.3c-.28-1-1-1.74-1.29-2.68-.1-.8.07-1.42,1-1.47C9,4.52,9.39,5.86,10.18,6.85Z"/><path class="cls-22" d="M4.85,2.9C5.11,1.72,6,2.06,6.79,2.08c0,.3.11.6.17.9H6.77a1.58,1.58,0,0,1-.62.38A1.17,1.17,0,0,1,4.85,2.9Z"/><path class="cls-23" d="M35.61,27.08h.91c.53.29.69.85,1,1.32l3.37,5.34A1.16,1.16,0,0,1,40.64,35c-1,.56-1.07-.32-1.34-.81a19.25,19.25,0,0,0-1.6-2.09,7.13,7.13,0,0,1-1.25-1.95C36.15,29.11,34.93,28.36,35.61,27.08Z"/><path class="cls-24" d="M43.75,37.59l.56.9,2.42,4.3c-.45.32-.87.11-1.28-.1-1.32-1.27-2.59-2.57-2.81-4.52a1.15,1.15,0,0,1,.38-.56l.33-.11A1.37,1.37,0,0,0,43.75,37.59Z"/><path class="cls-24" d="M40.46,34.63c.14-.29.28-.59.41-.88a10.59,10.59,0,0,1,2.48,3.75l-.15.12C41.23,37.6,41.06,35.92,40.46,34.63Z"/><path class="cls-5" d="M37.5,28.41a1.67,1.67,0,0,1-1-1.32l.84-.14C37.4,27.44,37.45,27.92,37.5,28.41Z"/><path class="cls-25" d="M8.7,60.62C8,57.3,8.09,53.91,7.75,50.55a.41.41,0,0,1,0-.63c1.47.47,2.62,1.23,2.57,3-.77,1.62.23,3.42-.54,5.06A17.86,17.86,0,0,1,9,60.41Z"/><path class="cls-26" d="M7.82,50c0,.18,0,.36-.07.54-.84-2.47-.27-5-.41-7.53-.09-1.66-.1-3.33-.14-5l.38-.13C10,39.4,9.36,41.53,8.79,43.66c-.53,1.28-.23,2.62-.32,3.94C8.41,48.44,8.54,49.34,7.82,50Z"/><path class="cls-27" d="M10.7,78.33a18.53,18.53,0,0,0-.94-6.27c.09-.79-.52-1.56-.08-2.37a4.38,4.38,0,0,1-.14-2.27c1.27-.36,1.2.72,1.23,1.34a26.85,26.85,0,0,0,1.42,6.14,13.08,13.08,0,0,1,.07,1.88,3.48,3.48,0,0,1-.4,1.81C11.33,79.12,11,78.83,10.7,78.33Z"/><path class="cls-28" d="M6.34,45.23a46.17,46.17,0,0,1-.41-10.57c1.22.24,1.18,1.33,1,2-.53,1.85-.09,3.75-.49,5.59C6.39,43.27,6.36,44.25,6.34,45.23Z"/><path class="cls-29" d="M6.42,42.29c-.37-2.53.47-5.14-.49-7.63,0-.16,0-.32,0-.47.35-.66.76-.71,1.21-.1A4.06,4.06,0,0,1,6.83,38C6.63,39.43,7.28,40.93,6.42,42.29Z"/><path class="cls-25" d="M8.78,63.9c0-1.09,0-2.18-.08-3.28l.09-.08a.56.56,0,0,1,.69.17,8.75,8.75,0,0,1,.85,4.53,2.86,2.86,0,0,1-.41,1.51.45.45,0,0,1-.68.06h0C8.64,65.91,9.35,64.8,8.78,63.9Z"/><path class="cls-28" d="M6.83,38c0-1.42,0-2.84,0-4.26l.42-.07A3.47,3.47,0,0,1,7.33,38h-.5Z"/><path class="cls-14" d="M8.78,63.9c.73.88.37,1.93.46,2.91C8.37,66,8.9,64.87,8.78,63.9Z"/><path class="cls-14" d="M9.24,66.81l.45,0c.12.1.16.2.13.3s-.07.15-.11.15l0,2.39C8.88,68.83,9.35,67.78,9.24,66.81Z"/><path class="cls-30" d="M2.06,15.4a.81.81,0,0,0-.43-.93c-.19-.77-.39-1.54-.58-2.31a1.87,1.87,0,0,1-.14-1.43c.51-.4.89-.09,1.28.21,1,1.78,1.92,3.65,3,5.41a1.51,1.51,0,0,1-.08,1c-.78.66-.36,1.9-1.21,2.54C3.31,18.37,3.35,16.61,2.06,15.4Z"/><path class="cls-31" d="M1.08,10.66l0,1.5A9,9,0,0,1,0,9.3c.09-.19.17-.39.26-.58a.72.72,0,0,1,1,.13A1.47,1.47,0,0,1,1.08,10.66Z"/><path class="cls-28" d="M6.79,33.75l-.85.44c-.41-1.38.25-2.87-.42-4.22l.33-.17a1,1,0,0,1,.82-.09,3,3,0,0,1,.2,4Z"/><path class="cls-32" d="M45.62,42.31l1.11.48a4.66,4.66,0,0,1,1.45,2.31c-.29.68.79,1.42-.09,2.08-1.31.11-1.63-.88-2-1.81C45.9,44.36,44.82,43.47,45.62,42.31Z"/><path class="cls-33" d="M54.36,57.21a1.07,1.07,0,0,0-.51,1c-.41.12-.67-.11-.91-.4-.39-.65-.64-1.3-.06-2,0-.67,0-1.33,0-2C53.45,54.93,54.39,55.87,54.36,57.21Z"/><path class="cls-34" d="M26.88,91.35l-2.77-.09c-1-.73-.4-1.13.33-1.39A8.23,8.23,0,0,1,27,89.68h2.81c1.89,0,3.79.11,5.68-.1l.67-.22c.44-.15.88-.29,1.33-.41a4.54,4.54,0,0,1,.66-.11,34.57,34.57,0,0,0,3.77-.66c.2-.07.41-.12.61-.17.51-.1,1-.19,1.53-.34a2.8,2.8,0,0,1,.63-.12,22.86,22.86,0,0,0,3.15,1,.84.84,0,0,1-.15.92h0c-.74.46-1.8-.14-2.42.71-1.11.52-2.44.34-3.46,1.12l-.21,0-.18.09-3.79,0A62,62,0,0,1,26.88,91.35Z"/><path class="cls-35" d="M47.66,89.42l0-1c.94-1.26,2.46-1.28,3.76-1.78a1.2,1.2,0,0,1,1,.27,1.12,1.12,0,0,1,1,.5l-1.08.9Z"/><path class="cls-35" d="M45.25,90.12c.49-1.29,1.58-.57,2.42-.71C47,90.12,46.07,90,45.25,90.12Z"/><path class="cls-36" d="M27,90.32c-.8,0-1.59,0-2.39,0s-.72.4-.53.92l-1.91,0c-.49-.7-1.51,0-2-.78-.14-.45-1-.8-.18-1.38a51,51,0,0,1,5.66.17C26.3,89.3,27,89.45,27,90.32Z"/><path class="cls-37" d="M14.5,89,14,88.83c-.95-1-.7-1.64.64-1.85a3.58,3.58,0,0,1,1.82.28c.8.3,1.69.49,2,1.48-.3.73-1.11.16-1.52.6Z"/><path class="cls-38" d="M16.94,89.34c.35-.56.94-.42,1.46-.51a1.07,1.07,0,0,1,1.31-.11.48.48,0,0,1,.18.39c0,.15,0,.22-.08.22.14.39.27.78.4,1.17Z"/><path class="cls-39" d="M52.88,55.82c.16.64.31,1.28.47,1.92-.32,1.2-1.1,1.32-1.49.26-1.28-3.47-4-5.92-6-8.87-.8-1.16-1.81-2.54-.61-4.11a1.17,1.17,0,0,1,1.38.21,2.54,2.54,0,0,0,1.43,2,23.54,23.54,0,0,0,3.43,5.74C51.76,54,51.8,55.14,52.88,55.82Z"/><path class="cls-40" d="M1.09,8.77l-.83,0C.4,6.68,2.47,5.77,3,4H3c.52-.1,1.26.14,1.28-.78l.54-.29L6.31,3C6.42,5.39,4,6,3.08,7.76a5.32,5.32,0,0,1-.48.47C2.15,8.57,1.74,9,1.09,8.77Z"/><path class="cls-41" d="M25.07,26.5c1.34-1.57,3.3-.06,4.78-.95a6.19,6.19,0,0,1,1.46,2.87c0,.16,0,.32,0,.48,1.26.78-.17,1.25-.27,2.21,2.53-.32,4.16.9,5.06,3.16a1.77,1.77,0,0,1,.28.63,1,1,0,0,1-.36.92c-.91.4-1.48-.15-2.07-.72a5.56,5.56,0,0,0-3.3-1.37c.24,1.74,3.1,1.73,2.22,3.84a1.65,1.65,0,0,1-.58.39c-1.43.33-3.06,0-4.16,1.41-.38.5-1,.4-1.45-.11A1.82,1.82,0,0,1,26.54,37c.5-.94,1.56-1.74.78-3A15.32,15.32,0,0,1,25.07,26.5Z"/><path class="cls-42" d="M24.1,28.89h.5c1.89,1.76,2,4.24,2.61,6.53-.21.76-.65,1.42-.88,2.18s.41,1.82-.49,1.79a2.47,2.47,0,0,1-2.43-1.87,9.64,9.64,0,0,0-1.36-3A6.22,6.22,0,0,1,21.88,30C22.47,29.3,22.92,28.33,24.1,28.89Z"/><path class="cls-43" d="M36.11,34.66a1.16,1.16,0,0,1-1.18-1c-.3-1.81-1.52-2-3-1.91-.71,0-1.72.39-2-.77s.71-1,1.35-1.24c.1,0,0-.55,0-.84,1.6.31,1.55-1.84,2.88-1.94h0a37.84,37.84,0,0,1,2.72,6.14A1.73,1.73,0,0,1,36.11,34.66Z"/><path class="cls-44" d="M30.47,12.61c0,1.58,0,3.15,0,4.72,0,.34-.07.67-.1,1-2,1.18-4.51,1.06-6.42,2.47a15.53,15.53,0,0,1-5.31-.13,2.15,2.15,0,0,1-1.31-2.27c1.42-.66,2.67.54,4.08.39.86-.09,1.77.1,2.44-.59a4.83,4.83,0,0,1,3.6-1.49,1.76,1.76,0,0,0,1.77-1.58c.23-.9-.22-2.09,1.07-2.54Z"/><path class="cls-45" d="M25.09,22.2c.69.11,1.25-.79,2.35-.05L22.16,25.5c-.29.94-1.11,1-1.89,1.16a31.13,31.13,0,0,1-3.47.48c-.91-.08-1.92.12-2.46-.94.13-1.48,1.48-1.19,2.34-1.61a17.61,17.61,0,0,0,4.83-1.29C22.73,23,23.7,21.94,25.09,22.2Z"/><path class="cls-46" d="M20.29,26.09a3.39,3.39,0,0,0,1.87-.59l.49.08c1,1.55.28,2.92-.44,4.29.09,1.6-.35,3.26.46,4.79.32.6.51,1.18-.33,1.54a36.18,36.18,0,0,1-3.56-8.08C18.36,27,19.44,26.52,20.29,26.09Z"/><path class="cls-47" d="M25.09,22.2c-1.12.5-2,1.46-3.37,1.47-.43-2,.73-2.88,2.39-3.41a9.59,9.59,0,0,1,6.21-1.93c-.5,2.06-2.58,1.86-3.91,2.33A1.62,1.62,0,0,0,25.09,22.2Z"/><path class="cls-48" d="M27,35.62q-1.2-3.36-2.39-6.72c.11-.81-.33-1.73.47-2.4,1.17,2.32,1.13,5.12,2.87,7.2C28.33,34.69,28.36,35.5,27,35.62Z"/><path class="cls-49" d="M22.21,29.87c.15-1.43.29-2.86.44-4.29,1.91.48,1.41,2,1.45,3.31Z"/><path class="cls-50" d="M31.31,28.42a3.17,3.17,0,0,1-1.46-2.87l0,0a1,1,0,0,1,1.4,0C31.23,26.5,33.18,27.45,31.31,28.42Z"/><path class="cls-51" d="M31.3,25.53H29.9c.06-.68-.71-1.22-.33-2A3.7,3.7,0,0,1,31.3,25.53Z"/><path class="cls-52" d="M36.6,33.21c-.81-2.09-2.54-3.81-2.4-6.25l1.41.12c.13,1.11,1,1.87,1.43,2.82-.48.66.17,1.1.31,1.65C37.52,32.26,37.84,33.11,36.6,33.21Z"/><path class="cls-53" d="M10.23,10.13l3.28.1c2,1.47,4.2.06,6.29.41h.95a2.23,2.23,0,0,1,1.41.86.57.57,0,0,1-.16.86c-2.95.71-6,.59-9,.72C11.51,12.65,10.18,12,10.23,10.13Z"/><path class="cls-54" d="M22.18,12.09l-.46-.48c-.28-.72.17-1.22.52-1.75l1.38-1.13c.68-.36,1.18-1,1.83-1.37a17.15,17.15,0,0,1,1.81-.93A1.87,1.87,0,0,1,29,6.7c.61,1.64-1,1.74-1.73,2.38-1.51,1.38-2.85,3.05-5,3.64A.42.42,0,0,1,22.18,12.09Z"/><path class="cls-55" d="M19.8,10.64a13.48,13.48,0,0,1-3.86.95,2.07,2.07,0,0,1-2.43-1.36l1-.45,1.8-.14a3.56,3.56,0,0,1,2.53,0Z"/><path class="cls-56" d="M22.24,9.86c.6.81-.38,1.16-.52,1.75a1.62,1.62,0,0,1-1-1C21.1,10.11,21.48,9.62,22.24,9.86Z"/><path class="cls-57" d="M18.82,9.69l-2.53,0a8.14,8.14,0,0,1,4-.83Z"/><path class="cls-57" d="M25.54,7.77c-.7.2-1,1.12-1.92,1,.48-.64,1-1.27,1.45-1.9a.4.4,0,0,1-.16-.37c0-.13.05-.2.09-.2a1,1,0,0,1,1.14.46C26.31,7.29,25.88,7.5,25.54,7.77Z"/><path class="cls-58" d="M25.07,6.35v.48c-1.41-1,0-2.28-.47-3.37l.43,0a1.33,1.33,0,0,1,.48.64A2.24,2.24,0,0,1,25.07,6.35Z"/><path class="cls-59" d="M25.54,1.5V1.1c2.25.08,4.54-.48,6.73.45,0,.16.07.32.1.48-.42.46-1,.43-1.55.53a7.75,7.75,0,0,1-2.8.08,7.87,7.87,0,0,1-1.08-.09C26.31,2.42,25.73,2.21,25.54,1.5Z"/><path class="cls-11" d="M25.54,7.77,26,6.85c-.85-1.75,0-2.41,1.65-2.56a6.31,6.31,0,0,1,1.84,0l.4.08a3.24,3.24,0,0,0,1.87.48l-.42,1.44A5.58,5.58,0,0,1,30,7a1.21,1.21,0,0,1-.55-.22A1.83,1.83,0,0,0,27,6.82,1.41,1.41,0,0,1,25.54,7.77Z"/><path class="cls-60" d="M27.91,2.11a6,6,0,0,1,2.91.45c-.75.4-.66,1.23-.94,1.86h0C27.47,4.35,27.12,3.94,27.91,2.11Z"/><path class="cls-56" d="M22.19,12.57l6.72-5.75a.67.67,0,0,1,1,0h0a3.11,3.11,0,0,1,.93,1,8.35,8.35,0,0,0,.54,2.88l-1,.54c-1-1.05-1.91-.73-2.84.21s-.27,1.68.35,2.42a2,2,0,0,1,.44,1.09c-.61,2.34-2.22,1.41-3.57,1-.77-.22-1.48-.79-1.91.36s-1.29,1.89-2.55,1.37c-1.41-.58-1.14-1.9-1-3.07a1.78,1.78,0,0,1,.73-1.18c.06,0,.19-.07.19-.1,0-.39.76.54.61-.45C20.74,12.11,21.63,12.31,22.19,12.57Z"/><path class="cls-61" d="M28,14.5c-2.17-1.88-2.13-3.35.29-4.51.86-.41,2.55-1.14,2.13,1.22-.05.46-.09.92-.14,1.38-.68.88-.23,1.9-.39,2.85C29,15.68,28.53,14.94,28,14.5Z"/><path class="cls-62" d="M30.81,7.79a.88.88,0,0,1-.93-1c.43-.32.74-1,1.45-.48l-.06,1Z"/><path class="cls-63" d="M25.54,1.5,27,2c0,1.27-.56,2-1.89,1.87,0-.16,0-.32-.07-.48C25.15,2.77,24.9,2,25.54,1.5Z"/><path class="cls-64" d="M16.48,87.91c-1-.07-2.54-1.81-2.44.93a4.45,4.45,0,0,1-3.35-4.75c1.3-.25.49-1.19.38-1.63a13.41,13.41,0,0,1-.37-4.13l.92.5.27.22a20.94,20.94,0,0,1,1.56,5c.21,1.33.74,2.06,2.15,1.92a3.36,3.36,0,0,1,.71,0c.7.09,1.59,0,1.7,1C18.15,88.06,16.92,87.45,16.48,87.91Z"/><path class="cls-65" d="M4.93,27l0-1c.33-.41.53-.94,1-1.19a1.57,1.57,0,0,1,1-.1,1.3,1.3,0,0,1,.55.38c.34.78-.07,1.55-.05,2.33a8.76,8.76,0,0,1-.08,1,1.6,1.6,0,0,1-.92,1.38l-.58,0C5.56,28.85,6.55,27.48,4.93,27Z"/><path class="cls-2" d="M45.22,45.22a7.94,7.94,0,0,0,2.4,5.18c1.79,2.05,3.8,4,4.43,6.89.15.69.46,1.46,1.3.45.16.16.33.31.5.46s0,.28.06.42a14.32,14.32,0,0,0,2.38,4.5,9,9,0,0,1,1.13,3.31c.18.76.77,1.47.69,2.21-.24,2.25.88,3.6,2.7,4.6a1,1,0,0,1-.34,1,4.87,4.87,0,0,1-2.5.42c-1.85,0-3.77-.29-5.21,1.38-.3.36-.87.24-1.32,0a3.22,3.22,0,0,1-.26-3.61,28.23,28.23,0,0,0,1.46-4A1.51,1.51,0,0,1,54,67.82c.54,0,1,.41,1.65.38a4,4,0,0,0-1.86-3.67,59.72,59.72,0,0,0-3.6-6.64c-1.44,1.2-.49,3.11-1.34,4.45a2.25,2.25,0,0,1-2.49-.45,4.16,4.16,0,0,1-1.5-4.81,19.53,19.53,0,0,0,1.33-3.29c.48-1.26-.07-2.09-.55-3.23C44,46.8,40.89,43.87,40,39.77a2.07,2.07,0,0,0-1.57-1.89c-1.61-.35-1.38-1.22-.54-2.21.87-.32,1.47.41,2.22.57,1.47,1.12,1.92,2.84,2.64,4.41C43,42.51,44.64,43.57,45.22,45.22Z"/><path class="cls-66" d="M60.57,74v-1c-1.21-1.31-2.49-2.55-2.41-4.59a1.79,1.79,0,0,0-1.4-1.67c-.45-1.65-.22-3.46-2.06-4.69-.83-.55-.94-2.22-.79-3.5,2.52,3,4.07,6.71,6.68,9.68l.51,1.37a10.83,10.83,0,0,1,1.08,4c.08,1.25-.38,1.83-1.64,1A.59.59,0,0,1,60.57,74Z"/><path class="cls-67" d="M52.39,86.94l-.9,0c-2.43.15-4.74,1.15-7.21,1h0c-.53.58-1.41-.25-1.91.47h0c-1.42.42-3,.17-4.32,1l-.48,0c-.89-1.82.06-2.77,1.62-3.42,3.91.07,7.65-1.41,11.58-1.15a3.67,3.67,0,0,0,2.57-1.09,2.83,2.83,0,0,1,.59-.38,4.31,4.31,0,0,0,3.44-2.45,1.4,1.4,0,0,1,.52-.38C59,80.89,60,79,61.18,80.2c-.59.67.59.91.37,1.5,0,.15,0,.3,0,.45C58.75,84.27,55.44,85.34,52.39,86.94Z"/><path class="cls-68" d="M60.61,74.49c1.14.47,1.32.1,1.19-1.06s-1-2.42-.7-3.76c.93.28.75,1.39,1.4,1.88,0,.16,0,.33,0,.49-.13,2.09,1.22,3.81,1.45,5.81a3.63,3.63,0,0,1-2.46,1.05c-.52-1-1.61-1.63-1.7-2.87A2.17,2.17,0,0,1,60.61,74.49Z"/><path class="cls-69" d="M61.56,78.83a2.37,2.37,0,0,1,2.41-1,1.72,1.72,0,0,1,0,2.9l-.06,0c-.33-.13-.45-.63-.84-.57-.15,0-.07.41-.08.63l-1.42.94c-.3-.44-1-.74-.49-1.44A1.1,1.1,0,0,1,61.56,78.83Z"/><path class="cls-70" d="M63,80.76c-.69-.34-.89-.82-.41-1.5a.68.68,0,0,1,.79-.36c1,.33,0,1.31.55,1.8Z"/><path class="cls-36" d="M26.88,91.35l10.73,0A26,26,0,0,1,26.88,91.35Z"/><path class="cls-71" d="M3.89,19.87c.55-.75-.91-2.3,1-2.5a2.85,2.85,0,0,1,.68,2.23,9.6,9.6,0,0,1-.23,2.33c-.23.61-.51,1.18-1.24,1.33a.63.63,0,0,1-.21-.94Z"/><path class="cls-72" d="M7.25,25.09a2.09,2.09,0,0,1-.43,0c-.17-.3,0-.56.11-.81.29-.56-.08-.83-.47-1.1-.19-.1-.36-.22-.54-.33a1.71,1.71,0,0,1-.69-2c1.56-2.18.24-4.34-.1-6.49A3.78,3.78,0,0,1,5,12.68a3.76,3.76,0,0,1,.62-1.19c1.19-.83.47-2.6,1.68-3.42a.8.8,0,0,1,.92.21,2.14,2.14,0,0,1,.09.34c.21,1,1.09,1.22,1.88,1.52h0a4.32,4.32,0,0,0,2.84,2.45c0,1.47-1,1.3-1.83,1.38.48.23,1.25-.06,1.84.4A7.82,7.82,0,0,1,14.53,16a4.05,4.05,0,0,1,.85,2.21,7.66,7.66,0,0,1,.19,2.13c-.11.48-.35,1-.9.95C12.91,21,12.28,22.61,11.16,23c-.13.45-.07.58.05.71.52.54,1.93.18,1.75,1.22-.16.88-1.33.76-2.09.7C9.66,25.53,8.3,26.3,7.25,25.09Z"/><path class="cls-73" d="M2.53,7.79c.82-1.94,3-2.86,3.78-4.79a1.78,1.78,0,0,1,.46,0l.9,1.45c-.93.08-.81.76-.79,1.39L6.7,6.1A10.28,10.28,0,0,0,5.06,7.69C4.34,8.39,3.42,9,2.53,7.79Z"/><path class="cls-53" d="M10.23,10.14c-1.33.37-2.72.8-1.88-1.52C9.4,8.61,9.83,9.36,10.23,10.14Z"/><path class="cls-73" d="M8.26,8.28h-1a1.37,1.37,0,0,1-.92-1.42,1.59,1.59,0,0,1,.42-1l.07-.06A3.13,3.13,0,0,1,8.26,8.28Z"/><path class="cls-74" d="M42.35,40.9,40,36.57c-1.23-1.36-3-2.52-1.92-4.79a5.7,5.7,0,0,1,2,2.93.25.25,0,0,0,.21,0c.07,0,.12-.08.18-.13,1.13.81,1.48,2.32,2.74,3-.13.15-.25.3-.38.44-.27.86.34,1.46.62,2.15.15.4.71.8.2,1.2S42.68,41.34,42.35,40.9Z"/><path class="cls-75" d="M38,31.78c-.13,1.9,1.41,3.14,1.92,4.79-.9.21-1.38-.44-1.94-.94l-.3-.08a4.8,4.8,0,0,1-1.61-.89h0c.16-.49.33-1,.49-1.45,1.39-.94-.74-2.35.44-3.31C37.06,30.69,37.75,31.13,38,31.78Z"/><path class="cls-76" d="M42.35,40.9c.28.11.61.37.85.3.52-.14.1-.43,0-.67-.31-.79-1.41-1.47-.39-2.47a17.49,17.49,0,0,0,2.8,4.25c-.14,1.15,1,1.83,1,2.92H45.22C43.75,44.12,42.5,42.88,42.35,40.9Z"/><path class="cls-77" d="M9.25,60.58a3.42,3.42,0,0,1-.46,0c-.06-2.35,1.4-4.57.54-7-.14-.4.44-.58.85-.65l.32.1a3,3,0,0,1,1.09,2,1.39,1.39,0,0,0,.75,1.84C12.44,59.93,11.56,61,9.25,60.58Z"/><path class="cls-78" d="M7.82,50c.17-2.24-.49-4.53.45-6.71a1.09,1.09,0,0,1,1.31-.18c.25.2.54.47.47.77A10.32,10.32,0,0,0,11,51.14a1.7,1.7,0,0,1-.18,1.79.45.45,0,0,1-.6,0h0C9.85,51.55,8.54,51,7.82,50Z"/><path class="cls-79" d="M9.71,43.3H8.27c.6-1.93.82-3.78-.94-5.28-.26-1.44.39-3-.46-4.34-.17-1.29.31-2.64-.44-3.86.14-.47.29-.94.44-1.4,1,0,1,.91,1,1.54,0,2.86,1.54,5.38,1.83,8.16,0,1.2,1.28,1.9,1.2,3.13q-.51.9-1,1.86Z"/><path class="cls-80" d="M11.62,78.83c0-.65,0-1.29,0-1.93,1.54-.31,1.25-1.55,1.35-2.6.07-.76,0-1.84,1-1.84,1.2,0,1,1.17,1.08,2,.06.58-.56,1.56.81,1.37.62.71,1.21,1.27,2,.16.22-.31.56-.07.77.21a4,4,0,0,1,.32,2.1c-.05,1,.18,2.2-1,2.7s-2-.18-2.76-1c-.52.43,0,1.74-1.12,1.68a2.28,2.28,0,0,1-1.86-1.33c-.27-.49-.23-1.09-.59-1.54Z"/><path class="cls-81" d="M9.71,67.3a2.26,2.26,0,0,1,0-.45l0-1.49c.34-.56.39-1.45,1.41-1.21.75.17.91.78,1,1.4s0,1.61.69,2.18a2.39,2.39,0,0,1,.47.58c.5,2.15-.56,4.11-.8,6.17a.68.68,0,0,1-.91.5C10.26,72.6,10.64,69.79,9.71,67.3Z"/><path class="cls-82" d="M11.63,75a33.42,33.42,0,0,0,1.43-6.71c2,2,3.3,4.37,3.06,7.34l-.17.33-1.53.62C14.21,75.3,15,74,14.1,72.7c-1,1.18-.39,2.47-.55,3.63-.23,1.68-.91,1.64-1.92.57Z"/><path class="cls-83" d="M12.59,68.25c-1.47-.28-.81-1.47-.95-2.31-.09-.52.13-1.19-.59-1.4s-.85.59-1.33.82c-.15-1.59-.31-3.19-.47-4.78,2.51-.11,2.45-2.15,2.86-3.84a.64.64,0,0,1,.17-1.05,2.21,2.21,0,0,1,1.35,2.74,29.47,29.47,0,0,0-.62,9C13.05,67.72,12.79,68,12.59,68.25Z"/><path class="cls-53" d="M6.82,6.83l.49,1.44c-.83,1,.61,2.9-1.43,3.33-.57.13-.46.6-.5,1,.37,1.67.81,3.33,1.07,5,.18,1.15.61,2.52-1,3.15-.41-.22-.21-.72-.45-1,0-.8-.07-1.59-.1-2.38,0-.33,0-.66,0-1-.49-1.5-1.61-2.77-1.68-4.4-.07-1.45-.5-3.17,1.75-3.5.68-.1.48-.71.63-1.13C5.82,6.76,6.12,6.34,6.82,6.83Z"/><path class="cls-84" d="M6.82,6.83c-.4.07-.84.12-.76.67C6.23,8.68,7.22,10.57,4.56,9c-.4-.23-.49.41-.63.77a5.09,5.09,0,0,0,.37,3.87,5.4,5.4,0,0,1,.61,2.72A11.71,11.71,0,0,1,2,11.17c.84-1-.28-2.35.54-3.37h0c1.06.34,2,.29,2.43-.93.33-.91,1-1.05,1.85-1C6.81,6.19,6.82,6.51,6.82,6.83Z"/><path class="cls-73" d="M2.52,7.8a15,15,0,0,0,.41,2.68c.45,1.41-.89.14-1,.69l-.9-.51c0-.63,0-1.26,0-1.89Z"/><path class="cls-85" d="M19.81,89.33l-.06-.41A1.89,1.89,0,0,1,21.36,88c3.73,1.23,7.58.53,11.38.69,1.28,0,1.69-.78,1.78-1.8a16.32,16.32,0,0,0-.69-6.13c-.62-2.12-2.58-1-3.86-1.56-1.11-.56-.71-1.4-.43-2.22,1.13-1.58.77-2.62-1.13-3.11a7.43,7.43,0,0,1-1.12-.39c-.86-.4-2-.71-1.88-1.87s1.26-.61,1.94-.74c1.41-.25,2.34-1.3,3.54-1.9,1.85,0,1.64,1.61,2.2,2.63.27.49.64.92.95,1.39a9.65,9.65,0,0,1,.67,1.22c.07,3.45,1.33,6.71,1.76,10.1a5.78,5.78,0,0,1,.18,1c-.38,1.48,1.15,3-.07,4.44l-.48.11c-2.07.55-4.22-.19-6.29.4l-2.78,0C24.7,89.42,22.14,90.23,19.81,89.33Z"/><path class="cls-86" d="M36.58,89.79c.38-1.48-.77-2.79-.46-4.26a.56.56,0,0,1,.47-.2c.94-.17.29-.85.4-1.29a3.9,3.9,0,0,1,.37-2.4,4.25,4.25,0,0,0,1.93-3.87c-.26-3.2.84-6.24.91-9.4a1.19,1.19,0,0,1,.93-.51,1.91,1.91,0,0,1,.71.1c1.79,1,1.78,2.71,1.16,4.16-.93,2.18-.41,4.47-.92,6.65-.08.37.12.87-.1,1.17-1.48,2-1.95,4.39-3,6.56-1.26.55-1.47,1.64-1.44,2.85Z"/><path class="cls-87" d="M44.28,87.94c2.4-.37,4.62-2,7.21-1a13.8,13.8,0,0,1-3.86,1.47C46.36,89.26,45.4,88.06,44.28,87.94Z"/><path class="cls-36" d="M29.81,90.3c2.05-.82,4.2-.25,6.29-.4C34.05,90.84,31.91,90.17,29.81,90.3Z"/><path class="cls-87" d="M38,89.37c1.21-1.36,2.83-.87,4.32-1A10.26,10.26,0,0,1,38,89.37Z"/><path class="cls-87" d="M42.36,88.42c-.06-.35-.56-.93.38-.77.51.08,1,.2,1.53.3C43.77,88.65,43,88.38,42.36,88.42Z"/><path class="cls-88" d="M21.23,88.41l-1.48.51-1.35-.09a3.6,3.6,0,0,0-1.92-.92c.16-.57,1.11-.28,1.13-1-1.19-1.26-3.26.77-4-.7a22.11,22.11,0,0,1-2-7.38c.8.94,1.32,2.17,2.81,2.42,0-.6.09-1.22.14-1.86.57-.27.87.29,1.2.47,2.37,1.31,2.55,1.23,2.57-1.51,0-.8,0-1.6,0-2.4a7.13,7.13,0,0,1,.2-2.6c.21-2.82,1.11-5.71-.77-8.34a1.06,1.06,0,0,1-.24-.91c.92-2.05-.35-4.21.32-6.27a1.56,1.56,0,0,1,.39-.62c1.61.15,2,1.62,2.78,2.64-1.53,3.8.66,7.61-.06,11.45-.42,2.23-.94,4.54-.14,6.87A9.92,9.92,0,0,0,22.3,81.4c.42.76.63,1.86-.1,2.18-2.36,1-1.11,2.67-.95,4.14A1.25,1.25,0,0,1,21.23,88.41Z"/><path class="cls-89" d="M27,35.62a1.66,1.66,0,0,0,1-1.92c1.11,1.39.09,2.39-.71,3.31-.64.74-.83,1.5-.07,2s.88-.55,1.26-.92c1.15-1.15,2.57-.34,3.85-.58a33.46,33.46,0,0,0,3.6,7.64c.68,1,1.39,1.92,2,2.94.65,1.53-.35,3.76,1.95,4.59a6.82,6.82,0,0,1,.92.77c1.39,1.37,2,3.6,1.1,4.74-1.19,1.54-2.76,1.27-4.33.62a2.52,2.52,0,0,1-.35-2.56,4.24,4.24,0,0,1,1.25-1.16c-.57.07-.68.6-1,.82a3.94,3.94,0,0,1-2.29-4.3c.49-2.19,0-3.34-2-4.12A1.74,1.74,0,0,1,32,46.05c-.09-1.6-1.18-2.57-2.09-3.66-.59-.32-.7-2.74-2-.32.64.57,1.74-.5,2.18.53,1.36,2.62-.18,5.15-.3,7.72,0,1-.42,2-.55,2.92.45-.69-.34-2.29,1.05-2.36s1.61,1.41,1.83,2.44a8,8,0,0,0,2.92,5c1.45,1.11,1.24,2.24-.46,2.73-1.41.41-1.65,1.24-1.69,2.47s.3,2.57-.51,3.72c-1.2.23-1-.79-1.22-1.39,0-.88-1-1.61-.41-2.57.77-1.19.06-1.87-.87-2.47a2,2,0,0,1-.43-.56c-2.68-4.6-2.26-10-4-14.89-.42-1.19-.8-2.4-1.24-3.59s-1.18-2.25-1.6-3.46c-.23-.74-.86-1.4-.46-2.26.57-.34.44-.9.47-1.42a5,5,0,0,1,.79,1.13c.47,1.31.56,2.86,2.57,2.92C26.65,38,25.06,36.18,27,35.62Z"/><path class="cls-90" d="M38,35.63c.31.51-1.44,2.22.92,1.53.54-.16.87.17,1,.72.71,2.39,1.28,5.2,3,6.72,2.08,1.85,1.27,4.93,3.63,6.37.94.57,1,1.36.25,2.38s-.08,2.72-1.63,3.39a2.38,2.38,0,0,1-.65-1.51c-.67-1.69-2.25-1.61-3.64-1.87a2.48,2.48,0,0,1-.6-.26,5.26,5.26,0,0,1-1.86-3.36,4,4,0,0,0-1.18-2.23,13.22,13.22,0,0,0-2.41-3.77c-1.62-1.69-1.49-4.11-2.14-6.2-.17-1-.42-1.89-1.69-1.93-1.55-.06-1.32-1.25-1.08-2.1.33-1.15,1.11-.38,1.85-.34,1.93.11,2.48,2.33,4.28,2.45a1.39,1.39,0,0,1,1.92,0Z"/><path class="cls-91" d="M32.75,37.54c.56.09,1.45-.19,1.2.91-.58,2.55.73,4.31,2.4,5.94a4.7,4.7,0,0,1,1.2,3.23c.15.11.2.21.15.32s-.1.16-.15.16c-1.55-.74-1.74-2.6-3-3.61-.23-.19-.27-.69-.51-.78-3.29-1.29-2.33-3.79-1.8-6.17Z"/><path class="cls-43" d="M38,35.62H36.11v-1C36.87,34.75,37.88,34.33,38,35.62Z"/><path class="cls-92" d="M7.25,25.09h5.6c-.82-.76-1.5-.38-2.08-.56a.87.87,0,0,1-.68-1.25c.22-.74,3.34-3.07,4.08-2.81.47.17.78.6,1-.16.65-2.45-1.49-5.41-4.19-5.81-.53-.08-1.23.05-1-.86s.6-.52,1.16-.25a1.39,1.39,0,0,0,2-.81,6.47,6.47,0,0,1,5.53.49c.8-.37-1.37-1.85.77-1.44.93.18,1.87.31,2.81.46v.48c-.12.29-1-.61-.7.56.22.89-.84.1-1.22.41-1.41,1.33-1.29,3.58-2.88,4.8l1,1.92c.47.37-.07.93.2,1.28.44.56,2.21-.06,1.56,1.31-.52,1.08-1.46,2.29-3.12,1.82-.42-.45-1-.32-1.49-.33a2.61,2.61,0,0,1,1.35.2.35.35,0,0,1,.18.36c0,.13-.07.2-.11.2l-2.46.84c-1.15,1.13-2.58.64-3.91.68-.62-.29-1.35-.23-1.7-.42,1,.22,2,.75,1.16,2.32a14,14,0,0,1-3.14-1.06Z"/><path class="cls-93" d="M17.39,18.34c.73-1.73.77-3.89,2.88-4.8a8,8,0,0,0-.45,1.81c0,.78-.38,1.86,1,2s1.24-.73,1.42-1.64c.38-2,1.39-1.38,2.48-.51A2,2,0,0,0,28,14.5c.88-.2,1.36.43,1.89.94a1.91,1.91,0,0,1-2.22,1.91,4.86,4.86,0,0,0-3.54,1.39C21.88,20.43,19.59,19.25,17.39,18.34Z"/><path class="cls-94" d="M16.93,25.1l0-.52h0c1.53.15,1.84-1.54,3.52-1.93-1.37-.6-2.58.05-3.34-.87.2-.73,1.41-.58,1.27-1.52h5.75c-1.26.81-1.68,2.21-2.39,3.41A9,9,0,0,1,16.93,25.1Z"/><path class="cls-95" d="M22.2,36.08,23.15,38c-.33,1-.78,1.41-1.53.3a10.72,10.72,0,0,1-1.46-3.51A18.37,18.37,0,0,0,19,31.94c-.69-1.62-.78-3.5-2.13-4.83a.42.42,0,0,1,.12-.58l3.31-.44c-1.87,1.49-.72,3.06,0,4.47A17.89,17.89,0,0,1,22.2,36.08Z"/><path class="cls-96" d="M17,26.53a2.1,2.1,0,0,0-.09.42c-1.75,1.26-3.71.54-5.59.62-.7-.23-1.53-.36-1.1-1.45l4.27-.18C15.14,26.85,16.14,26.35,17,26.53Z"/><path class="cls-62" d="M29.87,6.81H27C28,5.31,28.91,5.33,29.87,6.81Z"/><path class="cls-8" d="M25.1,3.91A4.72,4.72,0,0,0,27,2l.92.07c-.49,1.74.76,2,2,2.32-.54.69-1.33.52-2,.44-1.56-.16-2,.64-1.88,2l-.92-.5Z"/><path class="cls-97" d="M4,23.56a2.36,2.36,0,0,1,.1-.46c.29-.3.57-.61.85-.91,1,.43,1,1.36,1.17,2.2A1.08,1.08,0,0,1,6,25c-.07.63-.35,1-1,1Z"/><path class="cls-98" d="M6.88,27.46c1.12-.18,2.34-.64,2.86,1,1.65,1.43.94,3.37,1.12,5.12-.06,1.49.2,3-.55,4.43a1.67,1.67,0,0,1-.61.54c-.66-.1-1.12-.23-1.13-1.14,0-3.08-1.52-5.89-1.7-8.95C6.87,28.1,6.87,27.78,6.88,27.46Z"/><path class="cls-99" d="M6,25a3.43,3.43,0,0,1-.09-.44c-.2-.71-.76-1.5.43-1.9h.54c.19.61,1.24,1.06.35,1.87l-.37.51Z"/><path class="cls-100" d="M39,86.5c.18-2.23.54-4.29,2.22-6.09,1-1.1.9-3.55.6-4.38-.71-1.92.53-3.08.78-4.52a3.71,3.71,0,0,0-.72-3.25c-.19-2.93,2.48-4.47,3.36-6.89a1.21,1.21,0,0,1,1.44.17c.67.8,1.59.36,2.4.48a1.2,1.2,0,0,1,.34.57,1.85,1.85,0,0,1,0,.47c-.42,3.9-.26,4.14,3.28,5l.22.25c-.12,1.55.46,3.18-1.24,4.47-.56.43-.16,2.1-.2,3.21a1,1,0,0,1-.64.24,1,1,0,0,1-.57-.35c-.51-2.43-1.09-4.84-2.84-6.72-.37-.39-.86-1.29-1.51-.63a1.31,1.31,0,0,0,.26,2.08c1.73,1.37,2.74,3.06,2.11,5.38-.9.57-1.33,0-1.61-.73-.39-1-.88-2.1-2.18-1.53s.26,1.53-.09,2.3c-.93,1.09-.63,2,.34,2.88a1.64,1.64,0,0,1-.16,2.82c-1,.73-1.68,1.69-2.77,2.72A13,13,0,0,1,45.49,84a9.9,9.9,0,0,0,4.8-.84A6,6,0,0,1,51.4,83a8.39,8.39,0,0,1,1.5.08,1.6,1.6,0,0,1,1,.54,2.38,2.38,0,0,1-2.44,1.85C47.2,85,43.2,86.88,39,86.5Z"/><path class="cls-101" d="M46.67,61.54H45.23a3.41,3.41,0,0,1-.71-.06c-1.32-.26-3.35-.88-3.78.16-.61,1.48-1,3.54.39,5.15.36.42.76.88.26,1.47h-1c-2,1.16-3-.32-3.76-1.7a7.24,7.24,0,0,1,.88-7.9,5.87,5.87,0,0,0,.94,0c1.08-.16,2.69.62,3-1,.3-1.36.23-2.95-1.33-3.88-.31-.19-.48-.6-.72-.91a.66.66,0,0,1,1,0h.48c1.43.66,2.92,1.18,4.32,1.92v1.92A5.16,5.16,0,0,0,46.67,61.54Z"/><path class="cls-102" d="M51,75.94h.48c.16,0,.4,0,.46,0,2.32-3.24,5.72-1.44,8.64-1.89,0,.16,0,.32,0,.47,0,.53.07,1.1-.49,1.46-.69,1.65-.26,3.87-2.41,4.79-1.1,1-2.25,1.9-3.36,2.87H52.92a3.33,3.33,0,0,1-.38-3.37,2,2,0,0,1,1.78-1c1.92,0,2.6-1.14,2.81-3-1.29,0-2.21.33-2.61,1.61-.3,1-1.16,1.48-1.89,2.08C50.83,79.14,50.65,77.65,51,75.94Z"/><path class="cls-103" d="M49.07,62.5V62c-1.47-1.69,0-3.28.29-4.87.09-.62,1.37-.63,1.54.33.47,2.56,3.15,4.14,3,6.94,0,.1,0,.2-.07.3-.35.68.05,1.18.42,1.68s.71,1.2.13,1.86H52.91C50.27,67.25,50.29,64.46,49.07,62.5Z"/><path class="cls-104" d="M56.76,66.81c1.31-1,1.28.77,2,1-.84,2.26,1.55,3.41,1.8,5.3-2-.07-3.48-.64-2.89-3.16C58,68.75,57.2,67.8,56.76,66.81Z"/><path class="cls-105" d="M54.35,68.26l-.48-1.92a1.4,1.4,0,0,1,0-1.92h0c1.18.36,2.93,3.1,2.69,4.19C56.38,69.44,55.73,69.34,54.35,68.26Z"/><path class="cls-106" d="M57.71,80.74c1.49-1.25.77-3.61,2.41-4.79.16,1.12,2.09,1.35,1.44,2.88-.17.47-.33,1-.5,1.43C59.9,80.13,59,81.69,57.71,80.74Z"/><path class="cls-100" d="M54.35,83.61a4,4,0,0,1,3.36-2.87C57.3,82.53,56.38,83.72,54.35,83.61Z"/><path class="cls-107" d="M6.3,22.68c-.64.52-.38,1.25-.43,1.9-.31-.79-.63-1.59-.94-2.39L5,19.75l.45,1C5.15,21.66,5.84,22.12,6.3,22.68Z"/><path class="cls-108" d="M5.38,12.59c-.57-.49-.71-1.18-.16-1.62s.57.26.66.63A1,1,0,0,1,5.38,12.59Z"/><path class="cls-92" d="M7.19,24.54c-.12-.62-.23-1.25-.35-1.87C7.38,23.21,9.08,23.54,7.19,24.54Z"/><path class="cls-109" d="M12.11,55.78v1c-1.94.16-.69-1.26-.95-1.92a.69.69,0,0,1,1,0A.7.7,0,0,1,12.11,55.78Z"/><path class="cls-83" d="M12.11,54.82h-.95l-1-1.92h.48l.24-.2a1,1,0,0,1,.57.24c.44.46,1,.88.82,1.63C12.24,54.65,12.17,54.73,12.11,54.82Z"/><path class="cls-109" d="M11.15,52.9h-.48A4.61,4.61,0,0,0,9.82,50c-.38-.78-1.5-1.6-.3-2.62.05,0,.1-.18.08-.2-1.37-1.35,0-2.62.11-3.92h0c.67-.47.32-1.45.95-1.93.05-1.08-2.12-1.41-1-2.86,0-.17,0-.33,0-.49,1.94-.31,1.8,1.43,2.41,2.44A8.05,8.05,0,0,1,11.29,46c-1,2,1.4,3.52.52,5.46C11.59,51.91,11.62,52.52,11.15,52.9Z"/><path class="cls-78" d="M10.66,41.37c-.08.76.34,1.77-.95,1.93C9.8,42.54,9.39,41.54,10.66,41.37Z"/><path class="cls-78" d="M18.35,57.7c.38,1-1.16,2.53.74,3.25a1.44,1.44,0,0,1-.19.86c-1.56,1.58-.49,3,.13,4.52,1.28,3.27.37,6.46-.68,9.61-.83.33,0,2-1.37,1.8-1-.11-1-1-1-1.8h0c1.22-3.26,2.16-6.54.1-9.83-.9-1.43-.62-2.89-.32-4.4.69-3.42-.05-6.76-.64-10.1a4.46,4.46,0,0,1,.33-3,17.12,17.12,0,0,0,.2-7A14.08,14.08,0,0,1,16,35.66a2.92,2.92,0,0,0-.51-3.1,4,4,0,0,1-.89-4.19,1.21,1.21,0,0,1,.49-.56c.7-.08,1.07.48,1.55.82a6.19,6.19,0,0,1,2.46,3.47,8.86,8.86,0,0,1-.9,6.2A1.64,1.64,0,0,0,18,40.08c1,1.66.65,3.34.16,5a3.32,3.32,0,0,1-.29.64c-.36,3.25-1.31,6.51.27,9.69C18.5,56.2,18,57,18.35,57.7Z"/><path class="cls-110" d="M16,49.06c-.88,2.36.05,4.62.55,6.85a12.4,12.4,0,0,1-.38,6.56c-.78,2.46,1.23,3.76,1.65,5.67.58,2.61-.51,5-.72,7.54,0,.12-.72.17-1.1.25-.23-2.83-1.93-5.1-2.89-7.66l-.47,0A17.48,17.48,0,0,1,13,58.77a2.71,2.71,0,0,0-.9-3v-1h0c2-.11,2.91.88,3.08,2.77.26-1.92-1.15-3.39-1.42-5.16-.11-.67-.68-.51-1.09-.11s-.72,1.16-1.53.58h0c-.22-1.56.81-3.29-.86-4.7-.44-.37-.19-1.56.28-2.26,1.16-1.69,1.13-3.6,1.06-5.52,1.39.25.95,1.41,1.09,2.25.18,1.07-.25,2.24.52,3.21,1,.1.8-1.46,1.85-1.18A5.66,5.66,0,0,1,16,49.06Z"/><path class="cls-111" d="M21.23,88.41c-.5-.84-1.88-1.31-.84-2.73s-1.27-.87-1.13-1.94c1.11-.41,3.38.6,2.93-2-.37-.49-.18-1.11.29-1.1,2.07,0,3.74-1,5.55-1.75.61-.23,1.23.25,1.84,0,1.28.59,3-1.25,4,.61A12.64,12.64,0,0,1,35,88a1.57,1.57,0,0,1-1.82,1.42c-3.11,0-6.22-.1-9.33,0C22.7,89.46,22.17,88.53,21.23,88.41Z"/><path class="cls-112" d="M31.79,65.37c.07.67-.22,1.42.48,1.93a1.6,1.6,0,0,1,.5.62c.36,1.39,1.12,2.79,0,4.18-.92-.78-.16-2.67-1.92-2.88l-.31-.12a12.64,12.64,0,0,0-4.29-3.66c-1-.47-2.06-1.39-2-2.53.11-1.79-1-1.8-2.15-2-1-.38-.74-1.82-1.85-2.07-2.88-3.36-3.13-9.72-.56-13.82,1.21-.16,1.88-2.14,3.12-1.38,1,.61.47,2.21.75,3.35.78,3.14,1.11,6.36,1.92,9.48.2,1.33.79,2.54,1.09,3.84.45,3.24.88,3.72,4,4.37A2.4,2.4,0,0,1,31.79,65.37Z"/><path class="cls-112" d="M30.83,69.22c-1.13,2-2.92,2.47-5.18,2.35.82,1.55,2.38,1.59,3.66,2s1.33,1.42,1.83,2.13-.47,1.17-1.27,1.25c-1.27,1.65-3.13,2.36-5,3-1.65.59-2.76,0-2.9-1.86.51-.71,1.15-.13,1.73-.16.81,0,1.92-.2,2.13-.75.3-.79-.61-1.62-1-2.45-.2-.49-1.24-.69-1.93-.44s-.45.9-.46,1.44c0,.72.43,1.66-.81,1.85a1.76,1.76,0,0,1-1.41-2.15c.22-2.19.54-4.37.59-6.58a.91.91,0,0,1,.78-.78c2.86,1.9,6,1.32,9.17,1.19Z"/><path class="cls-102" d="M22.19,68.26c-.41.06-.84.21-.88.65-.21,2.19-.36,4.38-.57,6.57-.1,1.11.62,1.53,1.44,1.9a.3.3,0,0,1,.12.32c0,.11-.07.16-.11.16.43,1.59,1,2.23,2.9,1.37,1.61-.74,3-1.94,4.78-2.33.23.64-.49,1.28,0,1.92-2.53.56-4.59,2.72-7.44,2.25-.05,0-.16.41-.24.62-2.77-2.06-2.32-5-2.24-7.92.08-3.15,1.42-6.27-.35-9.46-.87-1.58,1-3.06,1.15-4.69a.64.64,0,0,1,0-1c1.35,0,.63,1.53,1.44,1.92A8.94,8.94,0,0,1,22.19,68.26Z"/><path class="cls-113" d="M34.19,74a1,1,0,0,1-.49-1,.71.71,0,0,1-.07-.92c.37-.27.76,0,1.14,0s.66-.35.64-.8c0-.23-.06-.52-.29-.59-.52-.17-.64.31-.82.63a2,2,0,0,1-.78.86c-1-1.44-.24-3.27-1-4.78,0-1,0-1.92,0-2.87a1.52,1.52,0,0,1,1.24-1.77,1.48,1.48,0,0,1,1.81,1.17,42.44,42.44,0,0,1,2.22,11.87,1.59,1.59,0,0,1-1.8.5C35,75.88,35,74.6,34.19,74Z"/><path class="cls-114" d="M35.63,75.94h1.92c1.55,1.36,1.55,3.13,0,5.76v2.88c-.34.3,0,1.26-1,1h-.47v-1A24.12,24.12,0,0,0,35,78.16C34.75,77.31,34.17,76.3,35.63,75.94Z"/><path class="cls-115" d="M35.63,75.94c-1,1.65,0,3.28.36,4.75a6.11,6.11,0,0,1,.12,3.89c-.9-3.47-1.94-6.92-1.92-10.56C35.33,74.16,35.46,75.06,35.63,75.94Z"/><path class="cls-89" d="M33.71,72.1c0,.32,0,.64,0,1l-1-1c.24-1.48-.37-2.88-.47-4.32.16-.21.31-.22.47,0,.39.51,1,.82.66,1.74a2.26,2.26,0,0,0,.3,2.58Z"/><path class="cls-115" d="M32.75,67.78h-.47c0-.16,0-.32,0-.48,0-1.28,0-2.55,0-3.83-.08-1.7-.14-3.23,2.36-2.95,1,.11,1.35-1,.58-1.37-3-1.32-3.28-4-3.93-6.62A1.53,1.53,0,0,0,30.2,51.2c-.74,1.34.05,2.94-.65,4.45a1.7,1.7,0,0,1-1.05-2c.57-2.17.58-4.43,1.07-6.54.39-1.67.09-3.22.3-4.8,1.53.59,2.9,1.23,2.58,3.34-.11.71.44,1.23,1.26,1.49,2.18.7,2.8,1.94,2,4.34-.44,1.39.68,3,1.79,4.27v2.88c0,1.59-.79,3-1,4.6-.29,2.58,1.1,4.78,3.86,5,.63,3.76-.9,7.38-.68,11.14a2,2,0,0,1-2.19,2.3c-.18-1.92,1.31-3.84,0-5.76q-1.2-5.81-2.41-11.6C35,63.67,34.79,63,34,63.17a1.29,1.29,0,0,0-1.2,1.27C32.75,65.55,32.76,66.67,32.75,67.78Z"/><path class="cls-2" d="M41.39,68.26c-2.49-1.63-1.14-4.36-1.85-6.51-.15-.45.07-1.1.63-1.06,1.71.11,3.64-1,5.06.85-.09,1.23.51,2.7-1.52,3.12-.74.15-.88,1.21-.88,2s.05,1.47-1,1.57Z"/><path class="cls-67" d="M36.59,85.54l1-1c.34.64.35,1.3-.32,1.65C36.73,86.48,36.66,85.92,36.59,85.54Z"/><path class="cls-116" d="M20.75,58.66v1c-1.37-.23-1.45-1.75-2.39-2.41A22.38,22.38,0,0,0,17.53,54c-1-3-.18-5.86.34-8.77h0a1.32,1.32,0,0,1,1.92,0C18.69,49,18,52.75,19.26,56.64A3.08,3.08,0,0,0,20.75,58.66Z"/><path class="cls-117" d="M17.87,45.22c-.08,2,.21,4.08-.42,6.09-.4,1.24.81,2.2.85,3.37,0,.84.56,1.68.06,2.53,0,.17,0,.33,0,.49-2.31-3.64-1.6-7.65-1.41-11.6C17,45.52,17.36,45.3,17.87,45.22Z"/><path class="cls-117" d="M19.79,45.22H17.87c-.76-.95.43-1.94-.07-3-.17-.36.29-1.16-.44-1.67A1.12,1.12,0,0,1,17,39c1.77-2,1.52-4.41,1.8-6.74.3,0,.25-.4.49-.49,1.75,1.7,1.46,4.29,2.73,6.25.69,1.09.76,0,1.1,0l1.45,3.36c-.19.34-.63.67-.49,1,1.07,2.79.61,5.77,1.14,8.63a2.73,2.73,0,0,0,.44,1.09c1.31,1.92,1.19,2.73-.62,4.59-.5-2.13-1.37-4.14-1.49-6.38s-1.2-4.29-1.06-6.73C22.29,45.57,21,45.21,19.79,45.22Z"/><path class="cls-118" d="M25.07,56.74c.31-.82.63-1.64.91-2.47.1-.29.28-.78.15-.91-2.52-2.52-2-5.6-1.73-8.67,0-.48-.81-1-1-1.55-.35-1-.68-2.2,1.2-1.76,2.17,3.95,2.86,8.32,3.27,12.69.22,2.37,2.31,4,2,6.5a2.92,2.92,0,0,1,.74,1.7,1.8,1.8,0,0,1-.77,2.07c-.78.38-1.27-.41-1.7-.93A20.88,20.88,0,0,0,26,60.58C25.85,59.26,24.78,58.17,25.07,56.74Z"/><path class="cls-119" d="M26,60.58c1.11-.17,1.56.56,1.9,1.41A4.56,4.56,0,0,0,29.62,64c1.3-1.07-.13-2.36.26-3.47h.47a2.55,2.55,0,0,1,1,2.88c-1,.92.88,1.13.48,1.91C27.11,64.81,26.28,64.12,26,60.58Z"/><path class="cls-120" d="M40.43,52.9h-1c-1.42.09-2-.61-1.93-2,.05-.94,0-1.88,0-2.82v-.48C39.69,48.74,39,51.41,40.43,52.9Z"/><path class="cls-115" d="M29.45,39.45c.83,1.84.46,3-1,3.68-.5.25-1.24.27-1.33-.44C26.93,41.05,28.48,40.63,29.45,39.45Z"/><path class="cls-115" d="M39.81,55.2c-.9.64-1.62.89-2.22.3a1.34,1.34,0,0,1,.21-1.26C38.71,53.74,39.06,54.74,39.81,55.2Z"/><path class="cls-112" d="M31.31,63.46l-1-2.88C31.82,61.15,32.22,62.08,31.31,63.46Z"/><path class="cls-2" d="M45.23,54.82a5.13,5.13,0,0,1-4.32-1.92C42.66,52.85,44.26,53.12,45.23,54.82Z"/><path class="cls-121" d="M10.22,33.56a21.69,21.69,0,0,0-.48-5.14c.55-1.43-.42-1.84-1.63-2.14a3,3,0,0,1,2.09-.16.85.85,0,0,0,.93.86,26.1,26.1,0,0,1,.6,3.05A20.56,20.56,0,0,0,12,32.62C11.86,33.76,11.47,34.48,10.22,33.56Z"/><path class="cls-94" d="M16.91,24.58H14.45c1.26-.58,1.89-.66,2.46,0Z"/><path class="cls-122" d="M11.21,29.87c-.29-.95-.79-1.9-.08-2.89l5.76,0c1.78-.19,1.41,1.41,1.81,2.29a14,14,0,0,1,.62,2.53c-.13.2.23.88-.49.49l-2.4-3.36c-.45-.19.05-1.33-1-1H15c-.65.48-.45,1.91-1.79,1.63-.58-.54-1.13-.93-1.42.25A.44.44,0,0,1,11.21,29.87Z"/><path class="cls-123" d="M10.22,33.56c1.23.45,1.35-.34,1.37-1.23-.32-2,1.05-1.15,1.73-.87a4.54,4.54,0,0,1,2.52,5.35,9.1,9.1,0,0,0-.21,5.34c.16.74.85,2.06-.64,2.59a1.18,1.18,0,0,0-.47,1c0,.83-.23,1.44-1.23,1.3s-1.08-.76-1.18-1.55c-.23-1.7.55-3.49-.48-5.11-.8-.67-.6-2.14-1.91-2.4C10.52,36.6,10.05,35,10.22,33.56Z"/><path class="cls-102" d="M45.24,84.57c-1.59-.27-3.05.38-4.54.82l-.65-.8a40,40,0,0,1,4-3.17c1.48-.93,1.15-1.53.07-2.48s-2.39-2.16.18-3c.28-.4.26-.91.48-1.33s.51-.83,1.08-.75.72.54.9,1a5.09,5.09,0,0,1,.2,1.4,3.07,3.07,0,0,0,2.48,3c2.19.58,2.79,2.09,2.06,4.35h-1C47.89,81,46.94,81.16,45.24,84.57Z"/><path class="cls-2" d="M51.47,83.61c-.12-2.09-.35-3.84-3.24-4-1.45-.06-2.14-1.78-1.91-3.25a2.15,2.15,0,0,0-.43-2.16c-1,.13-.36,1.83-1.62,1.69-.17-.89-1.78-1.18-1.09-2.37a2,2,0,0,1,1.94-.7,2,2,0,0,1,2,2c.06.63.28,1.07,1,1.11a1.74,1.74,0,0,1,2.4,0H51c.64,1.28.45,3,1.92,3.84,0,1.28,0,2.55,0,3.83Z"/><path class="cls-124" d="M50.51,75.94h-2.4c-.29-2-.37-4-2.71-5.06-1.94-.88-.21-2.52.07-3.46.36-1.16,1.19.21,1.67.62A9.34,9.34,0,0,1,50.51,75.94Z"/><path class="cls-125" d="M45.24,84.57c-.87-2.59,1.3-3.22,2.82-3.55s2.16,1.2,2.45,2.6C48.93,84.91,47.05,84.54,45.24,84.57Z"/><path class="cls-2" d="M49.07,62.5c.85.43,1.88.79,1.59,2s.4,1.77,1.24,2.26a1.67,1.67,0,0,1,1,1.48c-.87,0-1.74,0-2.6,0s-1.75-.73-1.55-1.4C49.22,65.39,48.1,63.87,49.07,62.5Z"/><path class="cls-126" d="M52.88,79.78c.23-1.36,1.89-1.94,1.2-3.37a29.36,29.36,0,0,1,3.59-1.25c.43-.1.27.55.23.94C57.56,79.15,56.72,79.78,52.88,79.78Z"/><path class="cls-2" d="M53.87,64.42v1.92c-.51-.06-.89-.26-.92-.85A.89.89,0,0,1,53.87,64.42Z"/><path class="cls-127" d="M11.15,52.9c1.33,0,.7-2.52,2.5-1.89,1.6.56.57,2.1,1.18,3.09,1,1.64,1.93,3.45-.22,5.9.15-2.68-.25-4.5-2.5-5.18Z"/><path class="cls-109" d="M15,44.74a11.59,11.59,0,0,0-.29-3.44A4.57,4.57,0,0,1,15,37.43a4,4,0,0,0-2-5.59c-.5-.2-1.28-.65-1.39.49-.62-.74-.38-1.62-.38-2.46l.41,0c.12.09.21.33.28.33.3,0,0-.11,0-.18.09-.8.43-1.1,1.19-.63,1.1.15.77-1.59,1.89-1.42.06,1.67-.46,3.48,1.51,4.59.51.29.59,1.21.38,1.79-1.57,4.36-.05,8.81-.44,13.2-.05.56,0,1.13-.49,1.53Z"/><path class="cls-109" d="M15.47,27.94c1.18-.54.93.35,1,1A.88.88,0,0,1,15.47,27.94Z"/><path class="cls-128" d="M34,85.31c-.94.63.57,3.28-1.67,2.74-1.56-.39-3.48,1.12-4.42-.45-.64-1.08-2.48-.65-2.36-2.29.08-1.09,2.69-4.8,3.45-4.83A4.52,4.52,0,0,1,34,85.31Z"/><path class="cls-129" d="M22.19,68.26V60.58c1.31,0,2.87-.52,2.49,2-.19,1.32,1.15,2.33,2.31,2.71a6,6,0,0,1,3.84,4c-2,1.6-4.32.68-6.48.83A2.18,2.18,0,0,1,22.19,68.26Z"/><path class="cls-130" d="M22.12,57.69c-2.12.05-2.88-1.09-2.53-3.83a5.36,5.36,0,0,0,.07-2.11c-.24-.86-.86-2.26.24-2.34.77,0,3.08-.45,2.8,2-.2,1.72,1.21,3.16.57,5.22C22.92,57.7,22.64,57.57,22.12,57.69Z"/><path class="cls-131" d="M22.19,77.86c0-.16,0-.32,0-.48-.1-.54-.16-1.09-.3-1.62-.28-1-.14-2.39.75-2.36s2.73-.18,3,1.65c0,.23.11.45.14.69.11.89,2.58.87,1.27,1.72C25.9,78.19,23.93,79.8,22.19,77.86Z"/><path class="cls-132" d="M33.71,72.1a3.84,3.84,0,0,0,0-.48A2,2,0,0,1,35,69.54c.56-.27.8.43.92.84.24.83.55,1.83-.22,2.45s-1.4-.25-2-.73Z"/><path class="cls-123" d="M13.1,29.37c-.34.08-1,0-.72.55s1.57.33.79,1.07c-.54.49-1.41-.21-1.55-1.14.35-.59-.83-1.62.44-1.86C13.06,27.8,13.06,28.67,13.1,29.37Z"/></g></g></svg>