<svg xmlns="http://www.w3.org/2000/svg" viewBox="0 0 43.71 88.84"><defs><style>.cls-1{fill:#1d1d1d;}.cls-2{fill:#4f4e4f;}.cls-3{fill:#121111;}.cls-4{fill:#2b241d;}.cls-5{fill:#4c4949;}.cls-6{fill:#292827;}.cls-7{fill:#434345;}.cls-8{fill:#312f2f;}.cls-9{fill:#2e2d2b;}.cls-10{fill:#302f2f;}.cls-11{fill:#1a1919;}.cls-12{fill:#453d2b;}.cls-13{fill:#424142;}.cls-14{fill:#201a12;}.cls-15{fill:#4b494b;}.cls-16{fill:#181717;}.cls-17{fill:#1c1a19;}.cls-18{fill:#464446;}.cls-19{fill:#1e1b18;}.cls-20{fill:#161515;}.cls-21{fill:#4b4a4c;}.cls-22{fill:#3d3d3e;}.cls-23{fill:#555;}.cls-24{fill:#3c3b3d;}.cls-25{fill:#141313;}.cls-26{fill:#585556;}.cls-27{fill:#4f4d50;}.cls-28{fill:#020203;}.cls-29{fill:#4e4c4d;}.cls-30{fill:#494849;}.cls-31{fill:#181819;}.cls-32{fill:#535152;}.cls-33{fill:#525051;}.cls-34{fill:#585657;}.cls-35{fill:#4f4d4f;}.cls-36{fill:#5a5759;}.cls-37{fill:#555354;}.cls-38{fill:#565454;}.cls-39{fill:#535053;}.cls-40{fill:#3e3e41;}.cls-41{fill:#514f51;}.cls-42{fill:#625f62;}.cls-43{fill:#4a484a;}.cls-44{fill:#454446;}.cls-45{fill:#595659;}.cls-46{fill:#4e4c4e;}.cls-47{fill:#5c595b;}.cls-48{fill:#161516;}.cls-49{fill:#1a1a1b;}.cls-50{fill:#060607;}.cls-51{fill:#5b595b;}.cls-52{fill:#5e5b5d;}.cls-53{fill:#545253;}</style></defs><title>dress1</title><g id="Layer_2" data-name="Layer 2"><g id="Layer_1-2" data-name="Layer 1"><path class="cls-1" d="M14.43,86.83l-4-1.85c.83-.89,1.74-.28,2.62-.14,1.89.3,3.74,1.24,5.7.36A2.7,2.7,0,0,1,19.79,85a3.85,3.85,0,0,1,.68.1,13,13,0,0,0,3.65.64c1.05,0,2.08.36,3.14.09,4.74.61,9.38-.42,14.06-.87.64,0,1.4-.08,1.42.93a.53.53,0,0,0-.07.35c-3.93,2.72-8.34,2.83-12.86,2.37C24.68,88,19.64,86.71,14.43,86.83Z"/><path class="cls-2" d="M42.74,85.91c-.31-.68-.9-.5-1.44-.5-1,.25-2,.57-3-.32-1.62-1.44-1-2.53.49-3.65a4.13,4.13,0,0,0-2,1.6c-.88,1-2.1,1.41-3.13.41s-.46-2.06.29-3a.38.38,0,0,1,.16-.18,5.59,5.59,0,0,0,3.74-5c2,.27,1.34,2.46,2.51,3.37.73-.45.26-1.56,1.06-2,1.22.28.87,1.37,1,2.13.32,1.77.42,3.58,1.35,5.18A1.94,1.94,0,0,1,42.74,85.91Z"/><path class="cls-3" d="M43.71,84c-.65.25-.93.1-1.07-.67-.38-2.2-.89-4.38-1.35-6.57-1.06-1.43-.77-3.19-1.17-4.78-.3-3.43-1.26-6.8-1-10.28.09-.8,0-1.66.76-2.24.83-.11.77.52.85,1,.59,3.92,1.45,7.81,1.68,11.75S43.47,80,43.71,84Z"/><path class="cls-4" d="M12,.38l.52,1.48a.81.81,0,0,1-.82.25c-2.48.68-4.26,2.57-6.44,3.76-.57,0-.76-.41-.83-.9A3.36,3.36,0,0,1,5.58,3L6,2.51a8.63,8.63,0,0,1,1.25-1A16.58,16.58,0,0,1,10.16,0a1.5,1.5,0,0,1,1.26.33Z"/><path class="cls-5" d="M22.5,6.17l1.05-.91,1.39-1.12c.43-.35.53-1,1-1.25h0c.28-.51.42-1.12,1-1.46h0l1-.11c.91-.12,1.8-.2,1.9,1.1-1.66.61-2.79,1.9-4,3.06C24.84,6.36,23.85,7.25,22.5,6.17Z"/><path class="cls-6" d="M4.78,4.7a1.08,1.08,0,0,0,.51,1c1.13,2.21.58,4.69,1.11,7a7.69,7.69,0,0,1-.16,1.65,22.22,22.22,0,0,0-.07,7.5,6.44,6.44,0,0,1-.44,3.57,1.51,1.51,0,0,1-.54.61c-.57,0-1.17.12-1-.8v-.64c-.19-.86.49-1.53.5-2.34C5,16.55,4.29,10.88,3.83,5.2,4.12,5,4.27,4.49,4.78,4.7Z"/><path class="cls-7" d="M4.23,25.25a1.05,1.05,0,0,0,1,.63C7.34,27,8,30.62,6.09,31.57c-.82.42-.25.73-.21.87a19.74,19.74,0,0,1,.78,5,1.8,1.8,0,0,1-2.26,2c-.43-3.86.1-7.7.2-11.45-.51.77.7,2.14-.75,2.75,0-1.28-.05-2.56-.07-3.84Z"/><path class="cls-8" d="M4.74,22.27a3.5,3.5,0,0,1-.5,2.34C3.66,23.67,4.57,23.05,4.74,22.27Z"/><path class="cls-9" d="M3.19,45.09c.41-2.28-.08-4.63.56-6.88,1.32,3.14.78,6.38.48,9.6a.74.74,0,0,1-.87.63L3.2,46Z"/><path class="cls-10" d="M38.81,47.94l.09,1c-.08,1.73.18,3.5-.7,5.12-1.36.67-1.22-1-2-1.26-.53-.42-1.3-.4-1.73-1,.07-1,.89-1,1.52-1.08a1.31,1.31,0,0,0,1.21-1.62c-1.17-5-.9-10-1.11-15,.46-.92.89-.61,1.33,0a4.9,4.9,0,0,0,.48.94l.1,1.24a43.71,43.71,0,0,1,.84,4.84A11,11,0,0,1,39,43.89,2.9,2.9,0,0,1,38.7,45,7.47,7.47,0,0,0,38.81,47.94Z"/><path class="cls-11" d="M36.56,27.57l.81,2.21.12,2.27c.19.32.11.53-.25.64C35.73,31.16,35.32,29.47,36.56,27.57Z"/><path class="cls-12" d="M38.34,41.24c-.84-1.61-.33-3.32-.34-5a2.34,2.34,0,0,0,.31.24l.08.92A2.93,2.93,0,0,1,38.34,41.24Z"/><path class="cls-13" d="M37.31,32.55l.18-.5c.79.89.43,1.94.41,3l-.48-.51A2,2,0,0,1,37.31,32.55Z"/><path class="cls-14" d="M3.36,48.44c1-3.38.3-6.82.39-10.23,0-.53,0-1.06-.08-1.59l.18-5.94c1-1.16.15-2.62.94-3.86v13c.45,1.72,0,3.46.18,5.19,0,.8,0,1.61,0,2.42A2.66,2.66,0,0,1,4.45,49a.84.84,0,0,1-1.13,0Z"/><path class="cls-15" d="M37.92,75.32c-.11.37-.43.88-.29,1.1,1.37,2.14.53,3.06-1.71,3.23-1,.07-1.26.88-1.81,1.42a1.38,1.38,0,0,0-.16,2.1,1.46,1.46,0,0,0,2.28-.35c.48-.84,1.55-1.17,1.7-2.23.07-.51.26-1,.9-.78s.55.75.51,1.2c-.1,1.1.64,3-1.85,2.18,1.2.87,1.72,2.82,3.81,2.22-3.91.64-7.78,1.69-11.81,1.11-.86-.12-1.73-.1-2.6-.14-.06-.09-.11-.19-.18-.28-.29-.85-.15-2.13-1.3-2.28-.93-.12-1.42.86-1.88,1.6a1.19,1.19,0,0,1-.69.61c-.82-.52-1.84-.21-2.68-.63h0c-.13-.54.16-.72.63-.69.16,0,.25.13.19,0-.25-.37-1.13-.11-1.42-.77.05-.84-.09-1.24-1.18-1.14-3.38.32-3.8-.06-4.22-3.23-.13-1-1-1.39-1.43-.83-.63.75-2,.6-2.11,2.07-.1,1-1.51,1.2-2.49,1.51a1.6,1.6,0,0,1-.64-.2c-1.71-1.07-2.89-2.75-4.6-4.05-.61.65-.49,1.47-.65,2.19a1.43,1.43,0,0,1-.35.56,1.64,1.64,0,0,1-.94.27c-1.43-1-.93-2.22-.54-3.47C.94,77,.89,77,1,76.49c.75-5.35,1.23-10.73,2-16.08.23-.35.49-.62,1-.45.55,1.35,0,2.66,0,3.83.12-1.47,0-3.52,2.65-2.94a1.54,1.54,0,0,1,.14,2c-1.17,2.38-1.36,5-1.77,7.55,0,.48,0,1,0,1.45,0,3,.46,3.69,2.26,3.35.63-.12,1.11-.37.93-1.08-.57-2.29.06-4.57.11-6.83A13.17,13.17,0,0,0,6.7,60.91c-.83-.39-2.5.2-2-1.74.24-.92.66-1.49,1.67-1,1.63.87,3.7,1.18,4.1,3.55a1.55,1.55,0,0,0,1.64,1.45c.87-.07,1-.9,1.2-1.59a2.13,2.13,0,0,1,1-1.56A10.11,10.11,0,0,0,16.88,59a2,2,0,0,1,2.6.08,1.93,1.93,0,0,1,.31,2.39,7.72,7.72,0,0,0-.85,2.67c-.71,1-.05,2.39-.78,3.45-.36.54,0,.33.41.46A3.43,3.43,0,0,1,20,73.78c-.3.32-1,.58-.52,1.09s1,.2,1.46-.24a2.38,2.38,0,0,0,.47-1.09,4.59,4.59,0,0,1,.62-1.8c1.09-1.41,1.8-2.77-.16-4.06-.14-.09,0-.45,0-.69a10.09,10.09,0,0,1,1.32-2.52A2.59,2.59,0,0,1,26,63.64c1,.34.48,1.36.58,2.1-.05.72,0,1.44,0,2.15-.23,1.44.37,3-.83,4.32-.55.6.5.56.78.78,1.84,1.5,2.06,2.81.56,3.89a1.69,1.69,0,0,1-1.32.32c-1.45-.17-1.06,1.31-1.62,2a.62.62,0,0,0,.18,1,2,2,0,0,0,2.21-.29c1.62-1,2.49-2.68,3.64-4.08s2-1.57,3.41-.55c1.72,1.2,2.1.94,2.36-1.09.22-1.72.21-3.33-1.15-4.68-1-1-.1-2.76-1.39-3.68A3.17,3.17,0,0,1,33,64.49c-.06-1.36-.75-2.77.64-4,.4-.35-.52-1.06-.27-1.71a.91.91,0,0,1,.37-.55,1.85,1.85,0,0,1,1.67,0c2,.81,2.59,2.59,2.93,4.44.4,2.2,1.2,4.29,1.53,6.5-1.26.84-1,2.24-1.27,3.43C38.42,73.54,38.7,74.56,37.92,75.32Z"/><path class="cls-16" d="M1.5,80.62a2.7,2.7,0,0,0,.41-.06c1.61-.44,2.8.72,4.19,1.11,3.36,1.58,7,1.82,10.6,2.56.93.19,1.91.24,2.5,1.16-1.85,2-3.86.26-5.79.2-1,0-1.9-.81-3-.61l-7-1.56-1-1.31C2.09,81.61,1.11,81.51,1.5,80.62Z"/><path class="cls-17" d="M3.34,60.45C2.68,66.74,2.23,73.05.77,79.8L.41,77.62c-.31-2.41.65-4.71.59-7.1.31-1.28.61-2.56.92-3.84.51-1.31.13-2.67.24-4C2.24,61.75,2,60.71,3.34,60.45Z"/><path class="cls-18" d="M1.5,80.62c.29.5.58,1,.86,1.49a2,2,0,0,1-1.41-1Z"/><path class="cls-9" d="M3.34,60.45c-1.13,1-.83,2.29-.91,3.53-.07.91.31,1.92-.51,2.7,0-6,1-11.84,1.4-17.76l1,0a1.63,1.63,0,0,1,.63,1.47,61.51,61.51,0,0,1-1.09,9.56Z"/><path class="cls-19" d="M22.5,6.17c2.06.44,3-1.22,4.07-2.37.94-1,1.85-1.71,3.27-1.47.75-.65,1.51-.22,2.26,0a3.06,3.06,0,0,1,1.43.84L35,3.8l.47.51-.45,2.85c-.61,2.64-.06,5.31-.29,8-1.45.4-.66-.71-.94-1.23C33.61,15.37,35,17,33.5,18.3c-1.25-.5-1-1.64-1.06-2.61A32.69,32.69,0,0,1,33,8c.19-1.16,1.14-2.53-.82-3.13-.2-.06-.4-.14-.6-.22-1.22-.4-2.5-1.46-3.5.35a12.79,12.79,0,0,1-2.24,2.17C23.63,8.73,21.09,9,18.49,9a13.38,13.38,0,0,1-1.4-.44,9.16,9.16,0,0,1-5.44-5c-.26-.56-.68-1.12-.08-1.73l1,0C16.09,7,17.62,7.63,22.5,6.17Z"/><path class="cls-20" d="M33.56,18.26v-4.8h.28l.6,1.88c.68.27.07,1.1.63,1.42L36,22.52c.92,1.22,0,2.56.23,3.83-.38.54.16.83.33,1.22a8.81,8.81,0,0,0,.75,5c0,.65.07,1.29.11,1.94l-1-.85c-1.2-.27-1-1.31-1.11-2.12-.35-2.28-.63-4.58-1.18-6.82-.23-.88-.52-1.75-.72-2.64C33.19,20.79,32.54,19.49,33.56,18.26Z"/><path class="cls-21" d="M35.07,16.75c-.59-.3-.47-.92-.63-1.42.28-2.72-.53-5.52.61-8.17A76.71,76.71,0,0,0,35.07,16.75Z"/><path class="cls-12" d="M38.47,44.94a.38.38,0,0,0,.38.09v1l0,1.9C38.08,47,38.47,46,38.47,44.94Z"/><path class="cls-22" d="M19.2,85.39c-3.66-.94-7.5-1.07-11.09-2.35a6,6,0,0,1-2.38-1,1.36,1.36,0,0,1,1.95,0h0c1.17.36,2.32-.1,3.49-.11a7.57,7.57,0,0,1,4.15.8,3.93,3.93,0,0,0,2.55.47c.76-.11,1.44-.06,1.81.75a2.3,2.3,0,0,1,1.51.64l-1,.81Z"/><path class="cls-22" d="M20.16,85.4a5.31,5.31,0,0,1,2.89.45.8.8,0,0,1,.95-.09.45.45,0,0,1,0,.6A7.36,7.36,0,0,1,20.16,85.4Z"/><path class="cls-15" d="M24,86.36c0-.16,0-.31,0-.47,1.1-.8,2.07-.77,2.87.43l0,.06C25.92,87.08,25,86.08,24,86.36Z"/><path class="cls-23" d="M37.92,75.32c-.21-1.88.34-3.69.45-5.53.08-1.33.89-.66,1.46-.71a17.38,17.38,0,0,1,1,2.88,20.14,20.14,0,0,1,.5,4.77c-.28,1,.67,2.82-.86,3-1.21.18-1-1.73-1.56-2.59A14.77,14.77,0,0,1,37.92,75.32Z"/><path class="cls-24" d="M40.79,72a4.73,4.73,0,0,1-1-2.88c-2.19-2.67-1.5-6.26-2.92-9.21-.27-.56-.52-.36-.69-.36-.76,0-1.06-.24-.7-1,.37-.56,1.26-.6,1.39-1.39a7,7,0,0,0,.34-1.81.75.75,0,0,1,.52-.4,1.24,1.24,0,0,1,.71.16,4.22,4.22,0,0,1,1.27,4.08,3.58,3.58,0,0,0,0,2.31C39.57,65,40.44,68.47,40.79,72Z"/><path class="cls-25" d="M39.8,61.47a2.65,2.65,0,0,1-.4-2.26,4.55,4.55,0,0,0-1.47-4.05.64.64,0,0,1,0-.95c.29-1.78.19-3.63,1-5.31h0c.59,1.24-.16,2.63.45,3.87h0c.4,1.09,0,2.28.45,3.36a.56.56,0,0,1,.07.42c.48.76-.1,1.7.42,2.46l0,.48C39.6,60,39.92,60.79,39.8,61.47Z"/><path class="cls-10" d="M39.34,52.77c-.89-1.21-.4-2.57-.45-3.87C39.59,50.13,39.31,51.46,39.34,52.77Z"/><path class="cls-24" d="M39.8,56.12c-.49-1.07-1-2.14-.45-3.36A7,7,0,0,1,39.8,56.12Z"/><path class="cls-24" d="M40.29,59c-.79-.71-.48-1.61-.42-2.46A3.77,3.77,0,0,1,40.29,59Z"/><path class="cls-26" d="M11.57,1.88a9.48,9.48,0,0,0,5.72,6.29c.64.34.72.82.2,1.28-1.18,1.05-2.43,2-4.12,1a9.26,9.26,0,0,0-1.32-3.75,2.61,2.61,0,0,0-4.31.49c-.29.67-1,1.49-.08,2.16s1.77,1.47,2.78.67c1.38-1.1,2.26-.67,3.11.56-.18,1.39-1.32,2.27-1.84,3.51S10,15.21,9.19,14c-.44-.69-.34-2.12-1.84-1.28a1.7,1.7,0,0,1-.89.86c-.41,0-.49-.36-.65-.63a33.27,33.27,0,0,1-.52-7.18c1.44-2.19,4-2.89,6-4.35,0,0,.16,0,.18.07A3.81,3.81,0,0,1,11.57,1.88Z"/><path class="cls-27" d="M6.24,13.4a1,1,0,0,0,.48-1c1.14-.77,2-.53,2.34.8A2.35,2.35,0,0,0,10.39,15c1.82.87,1.82,1.54.12,2.79a4.75,4.75,0,0,0-1.72,1.61,1.46,1.46,0,0,0-.15,1.37c.3.56.84.37,1.27.21,1.79-.7,3.23.12,4.66,1,.44,1.06,0,1.64-1,1.93-.6.17-1.24.15-1.85.3-2.67.62-3.27,1.51-3.38,5-.09,1.36-.77,2.95,1.9,2.38,1-.22,1.86,1.27,2.89,1.82.69,1.35-.42,2.36-.66,3.53a2.47,2.47,0,0,1-.34.54,1.91,1.91,0,0,0-1,2,3.69,3.69,0,0,1-.22,1.27c-1,.9-1.85,1.63-.76,3.27.69,1.05.2,2.63-.45,3.87-1.3.16-1.71-.77-1.76-1.72a6.81,6.81,0,0,0-.51-3.2c-.52-.9-.23-2-.65-3.52C6.07,41,5.45,42,5.65,43.25c.11.78.24,1.61-.72,2a.74.74,0,0,1-.61-.22c.17-1.75-.28-3.56.47-5.27C6.65,38,6,36,5.62,33.87c-.21-1-1.32-2.4.83-2.82.22,0,.5-1,.47-1-1.68-1-.1-3.2-1.65-4.18a3.91,3.91,0,0,1,.05-.48,4.31,4.31,0,0,0,.75-3.58A22.7,22.7,0,0,1,6.24,13.4Z"/><path class="cls-7" d="M6.24,13.4c.36,3.54-.18,7.11.3,10.66.08.59-.66,1-1.22,1.34-.12-1.16.72-2.21.42-3.4a27.64,27.64,0,0,1,0-7.6c0-.5,0-1,.07-1.5Z"/><path class="cls-28" d="M5.74,14.4V22A13.73,13.73,0,0,1,5.74,14.4Z"/><path class="cls-29" d="M37.89,49.42c.1,1.2-.36,1.9-1.66,1.89-.6,0-1.24-.08-1.7.46a1.34,1.34,0,0,1-.85.52,6.91,6.91,0,0,1-5.1-1.08,4.93,4.93,0,0,1,.09-3.7c2,.44,2.16-.7,1.8-2.18-.43-1.72-1.44-3.28-.7-5.24a1.23,1.23,0,0,0-1.53-1.54c-.74.11-1.53-.23-1.38-.89.51-2.14-1.12-1.47-2.05-1.74a1.47,1.47,0,0,1-.18-1.05,5,5,0,0,1,1.76-2.45c1.25-.94,2.57-1.23,3.84-.05.7.65,1.69.85,2.34,1.55a1.1,1.1,0,0,1,.32,1.23c-.15.26.11,0-.11.18s-.17.13,0,0c.68-.73-.15-1.15-.32-1.7-.07-1.65-.59-3.25-.35-4.92a1.71,1.71,0,0,1,.52-1,.74.74,0,0,1,.72.18,1.07,1.07,0,0,1,.27.38c.55,3.68,2.29,7.09,2.48,10.84.1,2.14-.51,4.25-.41,6.41a7,7,0,0,0,.85,3.42c-.08,1.11-1,.48-1.56.76-.28.05,0,.2.06.14.43-.42,1.22,0,1.61-.61A1,1,0,0,1,37.89,49.42Z"/><path class="cls-13" d="M37.89,49.42l-1.41,0h0A2.75,2.75,0,0,1,35,46.78c-.23-3.11.54-6.14.49-9.25,0-1.6-1.34-2.24-1.43-3.63-.13-2-.59-4.06-.9-6.09.23-1.24-.2-2.76,1.45-3.4A30.85,30.85,0,0,1,36,31.67c.09.67-.16,1.42.48,2C37.3,38.86,36.55,44.23,37.89,49.42Z"/><path class="cls-30" d="M37.9,54.21l0,.95h-.5c-1.2.76-2.27,1-3.07-.58C34,53.82,32.68,54,32.54,53c1.16-1.07,2.57-.75,3.93-.69S37.12,53.79,37.9,54.21Z"/><path class="cls-31" d="M36.47,52.27c-1.23.56-2.69.2-3.87.95-.6.75-1.6.46-2.31.9-.45.31-.6.89-1.08,1.17A1.22,1.22,0,0,1,28,54.62,2,2,0,0,1,28,53.13a1.7,1.7,0,0,1,.78-.83c1.56-.63,3.28.14,4.84-.5l.93,0C35.19,51.88,36,51.54,36.47,52.27Z"/><path class="cls-32" d="M4.78,45.08c.81-1.64-.16-3.58.93-5.24.36-.56.54-1.21,1.24-1.15s.72.75.72,1.32c0,1.5-.19,3,1.14,4.17.45.39,0,.84-.25,1.26-.63,1.22.17,1.89,1,2.52,1.85-.81,3.47,0,4.9,1a3.16,3.16,0,0,1,1.59,3.44c-.46,1.69-2.05,1.4-3.36,1.51a14.31,14.31,0,0,1-2.85-.16c-1.18-.63-2.86.14-3.75-1.23-.93,3.64-.81,3.87,2.9,5a15.6,15.6,0,0,0,2.51.8c1,.12,2.09-.11,3,.61a1.23,1.23,0,0,1-.11,1.52c-.55.38-.5,1-.48,1.51a2.23,2.23,0,0,1-1.54,2.18A1.59,1.59,0,0,1,10.32,63c-.35-2.87-2.7-3.48-4.69-4.51-.56,1.65-.56,1.65,1.09,2.45h0a2.83,2.83,0,0,0-2.9,3.3V59.93c-.64-2-.09-4.07.16-6.06a33.24,33.24,0,0,0,.3-5c0-.46,0-.93.07-1.39C4.87,46.77,4.26,45.83,4.78,45.08Z"/><path class="cls-9" d="M4.78,45.08c-.1.82.29,1.73-.43,2.43l0-2.44Z"/><path class="cls-33" d="M33.6,65.72c.5,0,1.2.19,1.18.63-.12,3.06,2.86,5.37,1.81,8.78-.54,1.71-1.09,1.85-2.44,1.36-.94-.35-1.58-2-2.5-1.41A9.43,9.43,0,0,0,29,78.36c-1.36,2.33-3.18,3.28-5.08,2.44-.84-.38-1.39-.66-.49-1.67a7.12,7.12,0,0,0,1-2.41c.25-.71.64-1.3,1.29-.5.43.51.61,1,1.1.18.31-.53,1.36-.89.54-1.76s-1.54-1.89-3-1.75a.56.56,0,0,1-.68-.51c0-.18.24-.54.36-.54,3.39.12,1.21-2.49,1.84-3.72,1.52-.55,1.36.8,1.7,1.54.46,1-.13,2.23,1.1,3.54.35-2.38,2.05-3.74,2.79-5.68C31.87,66.6,32.23,65.54,33.6,65.72Z"/><path class="cls-34" d="M33.6,65.72a2.27,2.27,0,0,0-1.44,1.76c-.19,2.23-3,3.26-2.56,5.83.1.57-.83.66-1.35.44C27.52,73.43,26.9,73,27.1,72c.28-1.46.4-2.94-1.18-3.85v-2.4c2.26-1.37,2.56-2.75,1.12-5a9.67,9.67,0,0,0-1.31-2.24,3.52,3.52,0,0,1-.1-3.13c1.79.41,1.4-1.92,2.69-2.13l0,1.37c.72.87.66,2.41,2.22,2.54,1,.2,2.2,0,3.08.78a.47.47,0,0,1,0,.59V59a6.39,6.39,0,0,1-3.48,1.74c2,.28,2.9,1.74,3.47,3.54Z"/><path class="cls-35" d="M26.4,58.52c1.44,1.81,2.92,3.57,1.81,6.16-.48,1.14-1.05,1.75-2.29,1L26,64.11c-2.6-.65-2.62,2-4,3a2.12,2.12,0,0,1-.51-.38c-.91-.66-2.05-1.09-2.41-2.32a.59.59,0,0,1-.44-.18c-.89-1.16-.08-2,.49-2.94.37-.6.72-1.3.05-1.92a1.44,1.44,0,0,0-2.12,0,3.14,3.14,0,0,1-2.74,1V59c.59-.7,1.61-.73,2.08-1.79s4-.92,4.66.15A4.06,4.06,0,0,0,26.4,58.52Z"/><path class="cls-18" d="M22.08,66.68v.48a1.85,1.85,0,0,1,0,.23c.13,1.39,2.62,0,2.19,1.75a6.84,6.84,0,0,1-1.74,2.76c-.68.76-.43,1.66-.7,2.46-.35,1.08-.91,1.6-2.06,1.45-.6-.09-1.35.1-1.5-.78a1.21,1.21,0,0,1,.83-1.52c1.13-.32,1.84-.93,1.61-2.19A3.79,3.79,0,0,0,18.09,69c-.62-.11-.72-1-.62-1.25.38-1.09,1.11-2.09.15-3.23l1.1-.27h.48C19.31,66.1,20.93,66.1,22.08,66.68Z"/><path class="cls-32" d="M6.72,60.92c1.88,1.34,2,3.31,2.16,5.4C9.07,69,8,71.57,9,74.19c.27.73.2,1.59-.81,1.55-1.31,0-3,.81-3.66-1.18A11.15,11.15,0,0,1,4.32,72c1.29-.08.83,1.4,1.69,1.72,1.8-2.66.77-5.59.43-8.83C6.07,67.11,8.15,70,4.32,70.52c.53-2.87.41-5.91,2.23-8.45.2-.28.12-.76.17-1.15Z"/><path class="cls-18" d="M19.68,84c-3.3.51-6.17-2.09-9.57-1.32A2.38,2.38,0,0,1,7.68,82c1.16-.63.8-1.48,2-2,1.4-.59,1.77-2.37,3.43-2.33a1.72,1.72,0,0,1,1.81,1.57c.32,3.29.68,3.6,3.74,2.85.55-.13,1.21-.7,1.73.06C21,83.1,20,83.41,19.68,84Z"/><path class="cls-36" d="M4.32,70.52c1.88-.93,2.3-2.33,1.56-4.28a2.58,2.58,0,0,1,.54-2.78,14.22,14.22,0,0,1,0,11.45c-1.65-.23-1.37-2-2.14-3Z"/><path class="cls-37" d="M12,70.67c.26-1.17.68-2.31,2-2.51,1.1-.16,2.25-.1,1.47,1.61a4.08,4.08,0,0,0-.3,1.35c-.07,1.09-.33,2.26-1.6,2.15S12.16,71.8,12,70.67Z"/><path class="cls-18" d="M7.68,82H5.73L1.91,80.56c-.68-1.33.08-2.35.78-3.48C4.31,78.79,6.44,80,7.68,82Z"/><path class="cls-33" d="M33.59,64.28c-.92-.89-1.14-2.4-2.77-2.7-.78-.14-1-.85-.07-1.49A8.76,8.76,0,0,1,33.6,59c.57.79,1.25,1.51,0,2.41S33.92,63.32,33.59,64.28Z"/><path class="cls-38" d="M26.86,86.32A5.16,5.16,0,0,0,24,85.89l-.94,0A2.51,2.51,0,0,1,25.62,83C27,83.18,27.27,84.88,26.86,86.32Z"/><path class="cls-33" d="M33.6,58.52c0-.15,0-.3,0-.45,1.07-1.15,2.27-1.8,3.85-1,.15,1.53-.88,1.5-1.92,1.46Z"/><path class="cls-39" d="M14.4,22c-1.76.09-3.43-1.48-5.33-.08-.7.5-1.47-.25-1.38-1.3A3.72,3.72,0,0,1,10,17.34c.56-.25,1.35-.25,1.33-1.1,0-.69-.65-.8-1.18-1a2,2,0,0,1-1.48-1.7c-.13-1.35-1.11-1.09-1.95-1.13,1.26-1.35,2.16-1.12,2.84.78.2.56,0,1.4,1,1.27.76-.09,1-.7,1-1.41,0-1.35,1.63-1.44,1.92-2.56h0c1.49-.44,3.55.05,3.85-2.35a1,1,0,0,1,1,.4c.53.37.93.8.59,1.51-1.65.8-2.36,1.85-1,3.51a1.62,1.62,0,0,1,.22,2.17c-1,1.46-.08,1.77,1.18,1.88a3.28,3.28,0,0,1,2.81,1.54c0,1.15-1.23.8-1.84,1.41a7.43,7.43,0,0,0,5.1-1,4,4,0,0,1,4.47-.07,1,1,0,0,1-.42,1.6c-2.94,1.05-2.94,3.26-2.42,5.73a1.74,1.74,0,0,1-2.58,0c-1-1.53-2.18-.95-3.42-.85-.56,0-1,.11-.93.73s.63,1.27,1.34,1,1.58-1.11,2.19.08-.35,1.75-1,2.44a3.35,3.35,0,0,1-.52.41c-1.4.92-2.75,1.69-4.59,1.08s-2.68.8-3.56,2a.87.87,0,0,1-1-.18,2.25,2.25,0,0,1-2.06-.87c-.25-.31-.33-.9-1-.59-3,1.34-2.34-.77-2.18-2.38a4,4,0,0,0,5-2.07,5,5,0,0,1,1.9-2.54C15.84,24.25,14.29,23.1,14.4,22Z"/><path class="cls-21" d="M29.76,19.64c-2.86-1.06-4.92,1.54-7.53,1.63-.39,0-.76.25-1.14.25-.79,0-1.51-.39-1.55-1.16s.71-.7,1.28-.72a1.35,1.35,0,0,0,1.26-.48l.26-.21c.73-.27,1.7.24,2.23-.57,1.28-2,3.44-2.12,5.42-2.63a6.28,6.28,0,0,0,.57-.31c.76-.77.31-1.84.68-2.7.17-.42.3-1,1-.66,0,0,.18.28.12.07A6.66,6.66,0,0,1,33,6.68c.45-.12.71,0,.59.5a61.67,61.67,0,0,0-.5,8.8c.05.78-.17,1.61.44,2.28A12.42,12.42,0,0,0,34,22.05c-1.93,1-2.3-.21-2.43-1.73C31.65,18.29,30.21,20.26,29.76,19.64Z"/><path class="cls-21" d="M25.88,6.64a6.11,6.11,0,0,1,1.91-1.91,10.78,10.78,0,0,1,3.91-.47,2.2,2.2,0,0,1,.44,0c.11.19,0,.59.18.61,2.19.33,1.51,1.14.37,2.05-.13.62.05,1.37-.7,1.74a.63.63,0,0,1-.57-.26c-.47-1.21-1-2.21-2.55-1.16A2.24,2.24,0,0,1,26,6.93,2.69,2.69,0,0,1,25.88,6.64Z"/><path class="cls-21" d="M18.72,10c-.16-.49-.32-1-.47-1.47,2.64-.24,5.29-.47,7.63-1.93l.05.05c.2,1.26-.77,1.62-1.61,2a7.22,7.22,0,0,0-2.69,1.79A2.86,2.86,0,0,1,18.72,10Z"/><path class="cls-40" d="M31.7,4.26a3.49,3.49,0,0,1-3.91.47C28.75,1.68,30.33,3.87,31.7,4.26Z"/><path class="cls-40" d="M32.16,6.68l1.35-.87c-.35-.57-3.14.64-1.37-1.5,1.84.26,2.5,1.13,1.48,2.87l-.5-.5A.65.65,0,0,1,32.16,6.68Z"/><path class="cls-39" d="M32.16,19.64C32.09,21,32,22.33,34,22.05l.57,2.36c0,1.21-1.07,2.16-.62,3.6.2.64-.5-.26-.83-.2h-.49c-1.76-1.77-.89-4.28-1.74-6.34A1.36,1.36,0,0,1,32.16,19.64Z"/><path class="cls-41" d="M29.7,53.74c.83-1,1.95-.26,2.9-.52.67.73,2.62-.52,2.48,1.71,0,.46,1.53.1,2.35.23,0,.14,0,.29,0,.43a3.11,3.11,0,0,1-3.67,1.28c-.42.6.37-2-.77-.26-.62.94-2,.41-2.95-.41A5.72,5.72,0,0,1,29.7,53.74Z"/><path class="cls-31" d="M33.61,56.68a8.11,8.11,0,0,0,3.81-1.09c.79.48.24,1,0,1.47l-3.85,1-2.82-.52C31.3,55.91,32.79,57.36,33.61,56.68Z"/><path class="cls-42" d="M13.44,10.52a2,2,0,0,0-2.95.29c-1.07,1-2.28-.53-3.39-1.05s-.73-1.19-.23-2.1C7.67,6.18,8.56,5,10.39,5.07c2.14.1,3.69,2.94,3,5.45Z"/><path class="cls-43" d="M13,33.56h1c.66-.17.82.36,1,.78.43,1.23,1.21,1.23,2.29.89,2.16-.7,2.65-.36,3,1.81.44,2.44,1.45,2.89,3.74,2,1.77-.69.24-2.2,1-3.07.75-.29,1.31-1.42,2.3-.67.74.56.69,1.25.18,2.08s0,1.1.71.63,1.13-1,1.49,0,1.67,1.83.89,2.78c-1,1.19-.41,1.91.09,2.93a4.78,4.78,0,0,1,.58,2.77c-.11.75.38,1.77-.39,2.23-1.12.66-1.15-1.08-2-1.18-1.3.2-2.58-.39-3.91.87-1.1,1-1.18-.81-1.68-1.69-1,2.48-.38,5.52-3.66,7.11,2.15.75,3.32-.06,4.58-.32s2.61-.33,1.79,1.71c.18,1.11-.44,2.35.48,3.36-.4,1.63-1.33,2.18-2.72,1.09A1.58,1.58,0,0,0,22,59.24a1.46,1.46,0,0,1-.85-.13c0-3.41-2.55-1.41-3.91-1.92-.3-.11-.42-.07-.4.21.17,2-1.3,1.54-2.42,1.61L11,59c.46-1.56,1.8-.95,2.78-1.06,2.05-.22,2.15-.34,1.39-2.53a8.56,8.56,0,0,1-1.07-.7c-.45-.43-1.22-.57-1.24-1.38,1-.29,2.86.5,2.81-1.28A2.86,2.86,0,0,0,13,48.94c-.91,0-1.33-.8-2-1.11-.88.3.07,1.41-.76,1.72-.79-.32.23-1.3-.6-1.59-.2-1.83.62-3.6-1-5.47-1.16-1.3,1.56-.78,2-1.73.58-1.13,1.43-1.74,2.71-1.22a2.55,2.55,0,0,1,1.64,2.66c0,1.22-.49,2-1.91,1.72-.57-.12-1.29-.67-1.62.25-.28.77.21,1.37.76,1.87a2.72,2.72,0,0,0,2.1,1c2.21-.37,3.46.66,4.25,2.57.18.43.46.86,1.48.84.05-3.23.12-6.49-1-9.59a3.25,3.25,0,0,0-3.08-1.93A7,7,0,0,1,12,37.4C11.55,35.93,13.15,35,13,33.56Z"/><path class="cls-44" d="M12,37.4c2.41,1,5.39.26,7.44,2.74a3.82,3.82,0,0,1,.76,3.42c-.3,2.23,1.2,4.3.46,6.57-.19.61-.11,1.37-.9,1.48a1.39,1.39,0,0,1-1.49-1c-.81-1.89-1.42-3.78-4.35-2.9-1.15.35-2.4-1.15-3.17-2.23a2.32,2.32,0,0,1,.08-2.5c.36-.53,1-.37,1.52-.11s1.23,1.17,1.82.29A2.25,2.25,0,0,0,14,40.72a1.71,1.71,0,0,0-2-.82,8,8,0,0,0-1.42.86V39.32A6.33,6.33,0,0,1,12,37.4Z"/><path class="cls-45" d="M14.4,22c.41.66.79,1.34,1.25,2,.8,1.08,1.21,1.92-.78,1.69a1.07,1.07,0,0,0-1.22.91c-.13,2.1-1.5,2.85-3.13,3.81s-2.26,1.12-2.84-.7c0-5.14.42-5.68,5.37-6.22C14.08,23.39,14.46,23,14.4,22Z"/><path class="cls-43" d="M12,37.4a2.27,2.27,0,0,1-1.44,1.92C10.52,38.29,10.47,37.25,12,37.4Z"/><path class="cls-7" d="M7.55,34.18c-.11.12-.23.4-.4.43-.52.09-.42-.36-.4-.63s.18-.52.28-.52C7.41,33.45,7.54,33.75,7.55,34.18Z"/><path class="cls-35" d="M25.92,55.16c0-1.39-.74-1.87-1.78-1.15S22,54.52,21,55a1.11,1.11,0,0,1-1.61-.56,1.18,1.18,0,0,1,.45-1.63c1.42-1,2.71-2.08,2-4.32-.22-.66,1-1.7.91-2.83,0-.32.37-.47.73-.4s.46.39.54.71c.18.73-.27,1.59.56,2.43.94-3,2.64-1.69,4.27-.88.41,1.28-.16,2.56,0,3.84a1,1,0,0,1,0,1.45l-.48.47c-.54.39-.44,1-.49,1.52s.29,1.41-.51,1.68C26.25,56.79,26.56,55.4,25.92,55.16Z"/><path class="cls-46" d="M25,36c-.16,1.06,1.77,1.86.48,3a6.59,6.59,0,0,1-4.73,1.18c-1.28,0-1-1.4-1-2.32,0-1.82-.13-3.26-2.61-1.89s-2.46-1.07-3.15-2.35A2.49,2.49,0,0,1,17.39,31c2.1,1.1,3.17-.52,4.69-.84,1.15,1.43-.26,3.09.41,4.57.19.44-.76,1.07.17,1.36a1.07,1.07,0,0,0,1.4-.59c.18-.34.39-.7.9-.54Z"/><path class="cls-47" d="M32.16,19.64a2.73,2.73,0,0,0,0,3.74c.52.74.24,2.91.46,4.42v1c-1,.41-1,.41-1.67-.62,0,.59.32,1,.35,1.46a1.69,1.69,0,0,1-1.45,1.86,1.55,1.55,0,0,1-1.88-1,19.52,19.52,0,0,0-1-2.63.93.93,0,0,1-.1-.95c-.88-1.1-.78-5.36.28-5.88.88-.42,2.46.62,2.6-1.32.49-.34,1-.66,1.48-1s.66-.51,1-.21S32.25,19.23,32.16,19.64Z"/><path class="cls-39" d="M27.36,27.32a5,5,0,0,1,1,2.61c.17.82.64,1.36,1.5,1.1a1.28,1.28,0,0,0,1-1.62,9.46,9.46,0,0,1-.1-2.13c0-.43.17-.85.69-.68s.52.49.25.93c-.69,1.16-.53,1.71.95,1.23-.5,1.76,1.11,3.52,0,5.28a3.88,3.88,0,0,1-3.05-1.38c-1.09-1.38-2.28-.23-3.23.52A9.16,9.16,0,0,0,25,35c-.81.52-.21,1.54-.85,2.26-.84-.15-1.74-1.28-2.77.05.8-2.45.29-4.83.74-7.11h0a1,1,0,0,1,.88-.28C25.38,30.64,27.05,30.16,27.36,27.32Z"/><path class="cls-43" d="M28.8,52.77V51.32c.65-.37.57-.22,1.39.24,1,.59,2.27.13,3.41.24C32.11,52.67,30.32,52,28.8,52.77Z"/><path class="cls-39" d="M30.88,36.06c.54-.82,1.21-.48,1.76-.58a1.59,1.59,0,0,1-.12.44C32.11,36.61,31.58,36.51,30.88,36.06Z"/><path class="cls-39" d="M32.64,34c.49.07,1,.19.87.83s-.48.55-.87.61Z"/><path class="cls-13" d="M36.48,49.4c-.55.64-1.2.57-2,.28.66-.51,1.35-.18,2-.28Z"/><path class="cls-35" d="M33.61,56.68c-.78.81-2.14-.21-2.84.87-2.65.54-2-1.62-2.42-2.94l.88.64c.47.14.51.8,1,.87,1,0,2.09,1.21,3-.37C33.46,55.47,33.42,56.37,33.61,56.68Z"/><path class="cls-48" d="M30.27,56.12c-1.28.83-.89-.34-1-.87.08-.53-.06-1.12.47-1.51A3.86,3.86,0,0,1,30.27,56.12Z"/><path class="cls-49" d="M15.38,54.68c1.71.71.93,2.16.77,3.23s-1.28.53-2,.63c-1.05.15-2.2-.41-3.15.43A10.7,10.7,0,0,0,8.59,58c-3.86-.92-4.36-2.09-2.69-6.44.76,2,2.67.62,3.77,1.61-.43.64-1.2.66-1.8,1-1.51.49-1,1.26-.1,1.72a10.63,10.63,0,0,0,5.76,1C15,56.81,14.6,55.28,15.38,54.68Z"/><path class="cls-50" d="M7.68,53.71c.52-.71,1.32-.36,2-.52l3.19.11,1.52.87A5.88,5.88,0,0,1,7.68,53.71Z"/><path class="cls-15" d="M22.08,66.68c-1.76.15-3.19-.08-2.88-2.4.17-.35.33-.72.82-.67C19.13,65.68,21.68,65.46,22.08,66.68Z"/><path class="cls-43" d="M23.17,61c-.2.09-.4.26-.59.25a.28.28,0,0,1-.21-.48c.12-.14.4-.16.62-.19C23,60.53,23.1,60.77,23.17,61Z"/><path class="cls-51" d="M18.72,10h3.36c.7.94,1.39,1.88,2.18,2.77,1.78,2,.37,5.92-2.18,6.35h0a10.14,10.14,0,0,0-4.06-1c-1.68.05-1.57-1.53-.91-2.14,1.29-1.17.41-1.8-.16-2.67C15.61,11.29,16.18,10.26,18.72,10Z"/><path class="cls-46" d="M27.36,27.32c.06,4.15.05,4.16-4.15,3.18-.38-.08-.75-.2-1.13-.3.39-.5.8-1,1.15-1.5a.69.69,0,0,0-.21-1c-.4-.27-.75-.2-.88.32-.5,2-1.49.23-2,.11-1.19-.28-1.08-1.45-.75-2.36a1,1,0,0,1,1.69-.4c.34.31.64.45,1,0,1-1.49,1.62-1.22,2.07.42s1.77.95,2.8,1.08Z"/><path class="cls-39" d="M22.08,19.16a3.87,3.87,0,0,0,.59-6.76c-.91-.7-.44-1.57-.59-2.36-.57-1.44.82-1.3,1.43-1.61.91-.47,1.95-.67,2.42-1.74,1.16.14,2.22.94,3.45-.38.9-1,2.13.23,2.29,2.29-.77.83-1.47.93-2.07-.16-.17-.16.36-.33,0-.5s.15,0-.15.18a2,2,0,0,1-1.35,2.06c-1.38.56-1.35,1.73-1.1,2.81a2,2,0,0,0,2.23,1.41c1.73-.1,1.7.7,1,1.88-2,.6-4.29.62-5.58,2.85C24,20.21,23,19.17,22.08,19.16Z"/><path class="cls-52" d="M29.76,8.12c.38,1.16,1.24.48,1.91.48h0c1.06,2.74-.6,5.13-1,7.68h-.48c-.14-.6.59-1.77-1.16-1.12-1.19.44-2.74-.94-2.88-1.81s-.8-3.13,1.16-3.41c1.58-.23,1.26-1.91,2.39-2.3.13.11.17.21.13.32S29.8,8.12,29.76,8.12Z"/><path class="cls-39" d="M30.72,16.28c.08-2.59,1.12-5.06,1-7.68.7-.5.41-1.26.48-1.92h1a29.69,29.69,0,0,0-.44,7.13c-.95-.15-.14-1.2-.85-1.36C31.26,13.67,32.42,15.39,30.72,16.28Z"/><path class="cls-53" d="M7.68,53.71a31.35,31.35,0,0,0,6.7.46,1,1,0,0,0,1,.51c.44,2.53-.73,3.21-3.08,2.93a30.45,30.45,0,0,1-4.67-1A1.76,1.76,0,0,1,6.17,55C6,53.65,7.21,54.17,7.68,53.71Z"/><path class="cls-21" d="M29.76,8.12c0-.16,0-.32,0-.48l.42-.75c.15.13.42.25.44.4C30.72,7.94,30.25,8.05,29.76,8.12Z"/></g></g></svg>