<svg xmlns="http://www.w3.org/2000/svg" viewBox="0 0 74.25 87.72"><defs><style>.cls-1{fill:#60a75a;}.cls-2{fill:#6ea869;}.cls-3{fill:#70a96f;}.cls-4{fill:#84c592;}.cls-5{fill:#4ca756;}.cls-6{fill:#58a65d;}.cls-7{fill:#6dab63;}.cls-8{fill:#68aa6b;}.cls-9{fill:#70ac67;}.cls-10{fill:#55a65b;}.cls-11{fill:#49a259;}.cls-12{fill:#6aad6b;}.cls-13{fill:#65a666;}.cls-14{fill:#c3e0cd;}.cls-15{fill:#83c697;}.cls-16{fill:#73b179;}.cls-17{fill:#71ae65;}.cls-18{fill:#7ba970;}.cls-19{fill:#85caa1;}.cls-20{fill:#78b37a;}.cls-21{fill:#6eac5e;}.cls-22{fill:#72a663;}.cls-23{fill:#79b184;}.cls-24{fill:#64a95f;}.cls-25{fill:#70ac6b;}.cls-26{fill:#89c9a1;}.cls-27{fill:#6daa68;}.cls-28{fill:#9cceb0;}.cls-29{fill:#8bc7a2;}.cls-30{fill:#7cc594;}.cls-31{fill:#81ae7b;}.cls-32{fill:#99d0af;}.cls-33{fill:#7bc18d;}.cls-34{fill:#7fc9a9;}.cls-35{fill:#a9d0bc;}.cls-36{fill:#71aa76;}.cls-37{fill:#5ba94b;}.cls-38{fill:#c8e0c8;}.cls-39{fill:#92cea8;}.cls-40{fill:#70aa6c;}.cls-41{fill:#7cb06b;}.cls-42{fill:#84b782;}.cls-43{fill:#74ad71;}.cls-44{fill:#84b381;}.cls-45{fill:#7dab7a;}.cls-46{fill:#97c993;}.cls-47{fill:#6ead5d;}.cls-48{fill:#69ac6c;}.cls-49{fill:#82b57d;}.cls-50{fill:#a9d0a6;}.cls-51{fill:#90caaa;}.cls-52{fill:#8acba4;}.cls-53{fill:#7fc696;}.cls-54{fill:#51a366;}.cls-55{fill:#76c49d;}.cls-56{fill:#9dceb0;}.cls-57{fill:#add8bd;}.cls-58{fill:#a3d1b6;}.cls-59{fill:#94cca6;}.cls-60{fill:#80c590;}.cls-61{fill:#85c899;}.cls-62{fill:#98cba8;}.cls-63{fill:#aad0ab;}.cls-64{fill:#89c99d;}.cls-65{fill:#71c399;}.cls-66{fill:#89b87b;}.cls-67{fill:#6fac70;}.cls-68{fill:#7eb879;}.cls-69{fill:#6aac6d;}.cls-70{fill:#a9b75b;}.cls-71{fill:#80b37a;}.cls-72{fill:#93cfa8;}.cls-73{fill:#82c89a;}.cls-74{fill:#39a556;}.cls-75{fill:#89cba3;}.cls-76{fill:#93cea7;}.cls-77{fill:#96cfab;}.cls-78{fill:#9bcdb0;}.cls-79{fill:#a5cfb5;}.cls-80{fill:#9bd0af;}.cls-81{fill:#6db06f;}.cls-82{fill:#91cdc2;}.cls-83{fill:#c3dcae;}.cls-84{fill:#89b277;}.cls-85{fill:#a8d5b4;}.cls-86{fill:#b0d5a0;}.cls-87{fill:#4cb177;}.cls-88{fill:#a2ceb6;}.cls-89{fill:#9acfab;}.cls-90{fill:#9ccbb0;}.cls-91{fill:#9dccb0;}.cls-92{fill:#9ecdb2;}.cls-93{fill:#97ccac;}.cls-94{fill:#97cbac;}.cls-95{fill:#90cda7;}.cls-96{fill:#aad0bb;}.cls-97{fill:#b7d6ba;}.cls-98{fill:#b8ddc5;}.cls-99{fill:#94cfbf;}.cls-100{fill:#9fd1ba;}.cls-101{fill:#85c9a0;}.cls-102{fill:#a0d1b6;}.cls-103{fill:#a4cdb5;}.cls-104{fill:#acd0bd;}.cls-105{fill:#99d0a3;}.cls-106{fill:#9fd4b2;}.cls-107{fill:#b3d1bf;}.cls-108{fill:#89cba2;}.cls-109{fill:#a6d4b3;}.cls-110{fill:#99d0a2;}</style></defs><title>dress3</title><g id="Layer_2" data-name="Layer 2"><g id="Layer_1-2" data-name="Layer 1"><path class="cls-1" d="M59.55,59.63c.05.65.11,1.29.16,1.93,1,1.63.76,3.77,2.08,5.28.81,1.1.73,2.48,1.18,3.7a38.48,38.48,0,0,0,.92,7.32c0,.91.28,2-1.25,2.06-2-1.45-1.43-3.81-2.06-5.75-.72-1.61-.53-3.46-1.38-5a7.42,7.42,0,0,1-.27-1.88c-.18-1.79-.76-3.5-.92-5.3.05-.92-.13-1.92.83-2.55A.64.64,0,0,1,59.55,59.63Z"/><path class="cls-2" d="M71.14,50.93c-2.66,1.45-5.32,2.88-8,4.37-.77.44-1,0-1.13-.56a4.2,4.2,0,0,1,.5-.81c1-.82,2-1.51,3-2.34a4.82,4.82,0,0,1,1.59-1.06,10.31,10.31,0,0,0,2.66-.9c.19-.13.38-.24.57-.35a3.58,3.58,0,0,1,2.22-.7c.91.12,1.33.53.63,1.41C72.7,50.67,71.74,50.4,71.14,50.93Z"/><path class="cls-3" d="M62.49,54.25l-.44.49c-.85-2.59-2.49-4.88-3-7.6A1.84,1.84,0,0,1,59.52,46a1,1,0,0,1,.63-.05c.73.42.88,1.2,1.17,1.9a4.23,4.23,0,0,1,.21.63,13.41,13.41,0,0,0,1.28,3C63.21,52.47,63.76,53.49,62.49,54.25Z"/><path class="cls-4" d="M73,49.86c.47-.88-.09-1-.7-.84a18.62,18.62,0,0,0-2.18.91c-.57,0-1-.2-1.06-.88.25-.56.8-.9,1.12-1.41s.11-.93-.19-1.35a2.4,2.4,0,0,1-.26-.62,1.67,1.67,0,0,1,.42-1.62c1.14-.35,1.36.58,1.75,1.27a10.23,10.23,0,0,0,1.86,2.73c.39.59.78,1.19.15,1.86a1,1,0,0,0-.39.08A.33.33,0,0,1,73,49.86Z"/><path class="cls-5" d="M58.51,46.14l.06-.81a1.48,1.48,0,0,1,0-1.15,1,1,0,0,1,.75-.18c.9.53.92,1.23.39,2a1.33,1.33,0,0,1-.66,1.1C58.85,46.81,58.68,46.47,58.51,46.14Z"/><path class="cls-6" d="M25.44,83.59a.4.4,0,0,1-.38-.11.56.56,0,0,1,0-.69c1.41-1.42,2.79-.17,4.19,0,2,.14,3.88,1,5.91,1.15a4.05,4.05,0,0,1,.76.2c2.72,1.2,5.59.34,8.38.59a26.65,26.65,0,0,0,5.92-.24,2.26,2.26,0,0,1,1.18.06,1.2,1.2,0,0,1,1,.93c.11.72-.56.61-.95.75-1.52.54-3.13.39-4.69.62-.84.12-1.75-.06-2.47.57-4.35.8-8.46-.53-12.61-1.48a6.15,6.15,0,0,0-2.78-.48c-.33-.13-.5-.62-1-.44l.05-.23A5.42,5.42,0,0,0,25.44,83.59Z"/><path class="cls-7" d="M59.79,82.72c-.2,1.22-1.77.75-2.16,1.74h0c-.65.78-1.69.55-2.48,1-3.48,1.52-7.18,1.86-10.9,2,.73-1.11,1.87-1.06,3-1a8.17,8.17,0,0,0,4.76-1H44.23c.08-1,.93-1,1.59-1,1.45,0,2.85-.41,4.28-.51,2.22.21,4.23-.59,6.24-1.4a3.68,3.68,0,0,1,.63-.31,3.73,3.73,0,0,1,1.74-.28A1.4,1.4,0,0,1,59.79,82.72Z"/><path class="cls-8" d="M5.4,34.62l5.28-9.55a33.44,33.44,0,0,1,1.86-3.92l1.11-.47c.55-.37.87-.09,1.12.39.27,1.34-.59,2.26-1.24,3.23a40.72,40.72,0,0,0-2.42,4.39,20.34,20.34,0,0,1-1.42,2.84c-.09.19-.2.37-.31.56C8.84,33,8.44,34,8,35s-1.06,2.2-2.6,2a1.34,1.34,0,0,1-.63-.36C4.36,35.71,4.87,35.17,5.4,34.62Z"/><path class="cls-9" d="M5.7,52c-1,.16-1.35-1-2.19-1.12-.86-1-1.49-2.18-2.45-3.15-1.75-1.79-1.25-5.22.88-7.38.92,1.64-.94,3-.43,4.63a10.7,10.7,0,0,0,2.19,2.6,2.91,2.91,0,0,1,.43.43,4.52,4.52,0,0,0,1.21,1.33,22.75,22.75,0,0,1,2.38,1.63,4.46,4.46,0,0,1,.56.41c.39.48,1,1.08-.18,1.22A4.06,4.06,0,0,1,5.7,52Z"/><path class="cls-10" d="M1,45.14c-.72-1.81.85-3.18.93-4.84h0a7.12,7.12,0,0,0,1.91-3l.1-.76a.51.51,0,0,1,.78-.13l.76.14a1.54,1.54,0,0,1,.22,1.3c-.46,1.09-.86,2.22-1.33,3.3-.19.37-.39.73-.61,1.08a4.16,4.16,0,0,1-.54.71,7.52,7.52,0,0,0-.85,1.16,3.19,3.19,0,0,1-.35.47A1.61,1.61,0,0,1,1,45.14Z"/><path class="cls-11" d="M14.47,21l-.82-.35c-.66-1.35.91-2.15.82-3.37a2.19,2.19,0,0,0,.36,0c.55-.4.69-2,1.84-.64.57,1.69-.79,2.77-1.3,4.12C15.12,21,14.9,21.37,14.47,21Z"/><path class="cls-12" d="M3.84,37.31c-.17,1.3-.33,2.6-1.91,3A9,9,0,0,1,3.84,37.31Z"/><path class="cls-13" d="M34.15,5.73l.48.14c1.06.47,1.91-.39,2.88-.46A8.13,8.13,0,0,0,42.4,2.69a1.11,1.11,0,0,1,1.42.79c-2.61,4.94-9.56,6.1-14,2.33a11.56,11.56,0,0,1-1.49-1.56,2.82,2.82,0,0,1-.47-1c-.09-.65-.44-1.4.63-1.59a1.11,1.11,0,0,1,.58.24,6.88,6.88,0,0,0,1.51,1.49c.58.4,1.17.78,1.78,1.15A5.63,5.63,0,0,0,34.15,5.73Z"/><path class="cls-14" d="M28.84.06c0,.48,0,1,0,1.45-.42.2-.74,0-1.07-.26a2,2,0,0,1-.52-.71.44.44,0,0,1,.21-.49,3.41,3.41,0,0,0,.46,0Z"/><path class="cls-15" d="M35.58,5.72l2,.16a2.63,2.63,0,0,1-2.9,0Z"/><path class="cls-16" d="M60.5,21.17c1.32,1,1.67,2.76,2.88,3.86h0c.77,1.39,1.3,2.88,2,4.32.11.5,0,1.09.52,1.44a10.67,10.67,0,0,1,1.4,2.83v.5c-.13.35-.33.61-.77.57a56.72,56.72,0,0,1-5.64-9.17c-.39-.78-.74-1.57-1.2-2.31a1.91,1.91,0,0,1-.15-2.11A.74.74,0,0,1,60.5,21.17Z"/><path class="cls-17" d="M66.78,34.62c.15-.17.31-.33.46-.49a22.58,22.58,0,0,1,3.94,8c.29.7.58,1.39.89,2.09h0c.23.63.63,1.31-.51,1.46-.61-.36-.33-1.55-1.4-1.48-1.13-1-1.38-2.39-1.87-3.69a35,35,0,0,1-1.59-3.85C66.63,36,66.22,35.27,66.78,34.62Z"/><path class="cls-18" d="M71.56,45.66c.59-.34.49-.92.51-1.46a2.5,2.5,0,0,1,.38.06l1,3.78C72.27,47.72,71.92,46.68,71.56,45.66Z"/><path class="cls-19" d="M67.24,33.63a5.66,5.66,0,0,1-1.4-2.83c.84.14.83,1.07,1.39,1.49a.47.47,0,0,0,.08.38C67.28,33,67.26,33.31,67.24,33.63Z"/><path class="cls-18" d="M72.07,44.2a2.35,2.35,0,0,1-.89-2.09A2.45,2.45,0,0,1,72.07,44.2Z"/><path class="cls-20" d="M17.82,79.78c-2.31-.63-2.68-2.36-2.45-4.39.11-1,.32-2,.48-3,1.41,1-.11,2.83,1.13,3.88a2.79,2.79,0,0,0,1.82,1.08,3.17,3.17,0,0,1,1.53,1.27,1,1,0,0,1-.46,1.16C19.18,80.22,18.51,79.24,17.82,79.78Z"/><path class="cls-20" d="M25.05,83.11c0,.12,0,.24,0,.37l-4.35-1.8-.19-.09h-.21l-1-.93c.68-.66,1.56-.22,2.33-.41C23.18,80.69,25.33,80.44,25.05,83.11Z"/><path class="cls-21" d="M16.85,76.34c-.32,0-.83,1.25-.93-.1s-.05-2.55-.07-3.82c-.13-1,.22-2.08-.28-3.06.51-.62.07-1.61.81-2.14A1.92,1.92,0,0,1,17,68.64c0,1.58.37,3.26-.18,4.73s.64.24.66.61C18,75,18,75.8,16.85,76.34Z"/><path class="cls-22" d="M21.21,80.66c-.64.53-1.29-.23-1.93,0l-1.46-.89c0-.32-.6-1,.33-.83a6.78,6.78,0,0,1,1.63.74C20.56,79.56,21.22,79.62,21.21,80.66Z"/><path class="cls-23" d="M50.47,5.8l1.34.87c.35,1.23,1.35,2,2.1,2.94.33,1.42,1.82,2.27,1.9,3.81l-.19.27a1.89,1.89,0,0,1-1.9.28,1.5,1.5,0,0,1-.28-.6c-.27-2.42-2.29-3.72-3.56-5.51a1.45,1.45,0,0,1-.18-1A1.61,1.61,0,0,1,50.47,5.8Z"/><path class="cls-24" d="M16.41,16.86c-.84-1-1,.5-1.58.42.37-1.11.74-2.22,1.1-3.33.5-.78,1-1.57,1.48-2.36.31-.75,1-1.23,1.33-2l.07,0a5.66,5.66,0,0,0,1.86-2h0c.43-.13.65.12.81.46.31,1.33-1,2-1.25,3.12-1,1.93-1.66,4-3.19,5.63A.57.57,0,0,1,16.41,16.86Z"/><path class="cls-25" d="M25.44,83.59c1.07-.06,2.06.06,2.51,1.25A6.31,6.31,0,0,1,25.44,83.59Z"/><path class="cls-26" d="M57.19,82.59a3.15,3.15,0,0,1-.44,0,11.43,11.43,0,0,1-5.3.72c-2.54-.36-5,.81-7.55.29a3.22,3.22,0,0,1-.73-.22c-1.6-.81-1.57-2.27-1.37-3.71.3-2.19,1.32-2.61,3.11-1.27.81.61,1.69.88,2.33.09,1.49-1.83,2.75-.87,4.07.13.51.38.9.91,1.42,1.27,1.25.86,2.46,1.17,3.46-.38.81-1,1.31-2.29,2.54-2.93.53-.13,1.62.78,1.25-.92a17.35,17.35,0,0,1-.82-4.15c0-.84-.27-1.76.48-2.46,1.32,1.37.67,3.31,1.41,4.84.49,1.29.05,2.66.35,4,.13.55-.34,1-.56,1.52-.32.74-1.55.49-1.54.94C59.34,81.92,57.81,81.79,57.19,82.59Z"/><path class="cls-27" d="M56.65,45.74a5.26,5.26,0,0,0,.42,2.38l2,11.45c-.77.69-.31,1.61-.47,2.42-1.4-.32-1-1.63-1.34-2.5s-.16-1.74-.5-2.57c-.18-.47-.37-.94-.51-1.43-.46-3.38-1.33-6.69-1.82-10.07a48.14,48.14,0,0,0-.54-6,1.68,1.68,0,0,1,.24-.68,1.56,1.56,0,0,1,.56-.46.88.88,0,0,1,.71.09,2.43,2.43,0,0,1,.74,1.25c.19,1.06-.53,2.13,0,3.19a.55.55,0,0,0,0,.4C56.78,44,56.2,45,56.65,45.74Z"/><path class="cls-28" d="M59.64,69.08c-.42,2.82,1.38,5.43.8,8.36l-1.81-.61a1.17,1.17,0,0,1-1.5.09,60.9,60.9,0,0,0,.3-9.36c.57-.93,1.19-1.49,2.09-.32Z"/><path class="cls-29" d="M59.52,67.24c-.61-.5-1.23,0-1.84,0-1.06-1.61-.8-3.46-.92-5.22,0-.86-.11-1.72-.19-2.58s-.17-2,.64-2.78c.9,1.66.42,3.69,1.4,5.34C58.91,63.74,59.22,65.49,59.52,67.24Z"/><path class="cls-30" d="M57.19,82.59c1.2-.91,1.63-2.4,3-3.36,1.62-1.14.68-3.48.86-5.31l1.44,5.79a2.36,2.36,0,0,1-.89,1.34,4.87,4.87,0,0,1-3,1.08Z"/><path class="cls-31" d="M61.51,80.67l1-1c1.33-.17.72-1.3,1-2,.47,1.68,1,3.38-1.5,3.92A1.16,1.16,0,0,1,61.51,80.67Z"/><path class="cls-32" d="M59.67,46c-.14-.66.12-1.44-.54-1.95a2.1,2.1,0,0,1,.68-2.92c.87-.59,1.76,0,2.35.65,1.64,1.75,3.89,1.6,6,2,.78.55,1.88.85,1.74,2.15a1.39,1.39,0,0,1-.83.59c-.28.12-.73.12-.77.45,0,.48.55.48.81.76s.53.75.14,1.2l.93.92h0c-.93.4-2,.39-2.85,1l-1.44,1c-1.7.82-2.52.17-2.68-1.59.27-.87,1.26-.87,1.76-1.47s1-1,.54-1.65c-.58-.82-1.84-.27-2.55-1-.2.43.12.88,0,1.33a1.46,1.46,0,0,1-.5.77A1.22,1.22,0,0,1,61,48.05h0c-.38-.61,0-1.58-.94-1.93Z"/><path class="cls-33" d="M61,48.05l1.43,0c.67.44,1.24.94,1,1.88a1.86,1.86,0,0,0,2.39,1.93,7.4,7.4,0,0,1-3.35,2.37c.69-1.17.08-2.17-.51-3.08A4.84,4.84,0,0,1,61,48.05Z"/><path class="cls-4" d="M67.28,50.92a3.16,3.16,0,0,1,2.85-1A4.18,4.18,0,0,1,67.28,50.92Z"/><path class="cls-33" d="M60.08,46.11c1.27.17.88,1.16.94,1.93Z"/><path class="cls-34" d="M69.68,46.11c.13-1.1-1.58-.81-1.45-1.91a2.67,2.67,0,0,1,.5-3.87c.47,1.29,1.31,2.43,1.43,3.85V46.1A.37.37,0,0,1,69.68,46.11Z"/><path class="cls-35" d="M69.68,46.11h.48v0c.41.57,1,1.09.47,1.89-.48.32-.66,1.08-1.42,1a1,1,0,0,0-.48-1,1.4,1.4,0,0,1,0-1.91Z"/><path class="cls-32" d="M70.62,48c-.16-.63-.31-1.26-.47-1.89C71.5,46.45,71.33,47.16,70.62,48Z"/><path class="cls-36" d="M57.34,43.23a3.69,3.69,0,0,1-.68-2.36c-.44-.41-.41-1-.63-1.52a1.18,1.18,0,0,1,0-1,1.08,1.08,0,0,1,.84-.54c1.42,1.06,1.52,2.72,1.93,4.24A1.59,1.59,0,0,1,57.34,43.23Z"/><path class="cls-37" d="M57.34,43.23c.41-.29.47-1,1.19-.91.67.53.38,1.15.16,1.76l-.12,1.25Z"/><path class="cls-38" d="M56.65,45.74a3.72,3.72,0,0,1-.43-2.51C57,44,56.64,44.88,56.65,45.74Z"/><path class="cls-39" d="M58.69,44.08c0-.59-.11-1.18-.16-1.77L56.76,37.9a1.11,1.11,0,0,1-.31-1.29c.75-1.16,1.61-.64,2.47-.15a1.83,1.83,0,0,1,.75,2.73,15.19,15.19,0,0,0,3.59-4.67c.69-1.2,1.44-1.65,2.15-.13.43.93,1.31,1.36,1.86,2.13.48,1.27,1,2.54,1.46,3.81a10,10,0,0,0-.5,3.87c-2.55.24-4.88-.1-6.74-2.15-1-1.09-1.78-1-2,.67a7.83,7.83,0,0,1-.39,1.37l-.22,0Z"/><path class="cls-40" d="M19.3,35.11c-2.23,3-3.48,6.62-5.83,9.55a.81.81,0,0,1-1.07-.59c.63-2.78,2.46-5,3.62-7.51.61-1.15,1.22-2.3,1.87-3.43a5.49,5.49,0,0,1,.64-.72,7.2,7.2,0,0,0,1.49-2,.94.94,0,0,1,1.2-.24,1.14,1.14,0,0,1,.27.95,6.05,6.05,0,0,1-.89,1.8C20.08,33.59,19.94,34.5,19.3,35.11Z"/><path class="cls-41" d="M18.77,48a.79.79,0,0,1,0-.43c.52-.79,0-1.74.39-2.55.07-2.86,0-5.74,1-8.49a.88.88,0,0,1,1.15,0,2.6,2.6,0,0,1,.32,2c-.48,3-.61,6.09-.94,9.14-.31.85-.79,1.63-1.08,2.49a.74.74,0,0,1-.63.4C18.24,49.73,18.55,48.85,18.77,48Z"/><path class="cls-42" d="M18.77,48c.19.81-.31,1.77.51,2.46a3,3,0,0,1,1,1.74c0,1.28.75,2.74-.88,3.63a1.67,1.67,0,0,1-.13-2.38c-.7,1-.31,2-.32,3.09s.4,2.64-1.4,3c-.42-3.41.77-6.7.75-10.08C18.43,49,18.28,48.37,18.77,48Z"/><path class="cls-43" d="M12.58,44.2l.89.46c-.22,2.15-1.49,3.88-2.34,5.77-.45.61-.89.83-1.32,0a2.31,2.31,0,0,1,0-1.4A29.86,29.86,0,0,0,11,45.78C11.4,45.12,11.4,44.07,12.58,44.2Z"/><path class="cls-44" d="M10.14,50.41c.31.56.65.05,1,0C10,53.11,7.84,53.71,5.7,52a3.58,3.58,0,0,1,2,.31c.2.06.67.24.49-.32-.06-.2-.3-.34-.46-.51.45-.63,1.26-.68,1.82-1.13A.56.56,0,0,1,10.14,50.41Z"/><path class="cls-45" d="M21.15,36.52h-1l0-.93c-.41-1,.11-1.94,0-2.92.32-.47.64-.95,1-1.42A4.73,4.73,0,0,1,21.15,36.52Z"/><path class="cls-46" d="M20.24,32.66c.89,1,.41,2,0,2.92-.31-.15-.61-.31-.91-.47A2.79,2.79,0,0,1,20.24,32.66Z"/><path class="cls-42" d="M19.2,45c0,.87.38,1.8-.39,2.55A3.9,3.9,0,0,1,19.2,45Z"/><path class="cls-47" d="M16.45,68.74c0-.5-.05-1-.07-1.52a25.79,25.79,0,0,1,.81-5.73l.13-.07c.9-.39,1.17.1,1.18.86a9.32,9.32,0,0,1-.61,4C17.32,67,17.78,68.41,16.45,68.74Z"/><path class="cls-48" d="M17.36,66.26c.16-1.61,1.32-3.23,0-4.83.07-.63.13-1.26.19-1.88,1.09-.71.74-1.83.81-2.82.09-1.16-.31-2.4,1-3.82v2.8c1.13,2.17.08,4.34-.05,6.49s-.55,4.24-.74,6.37A3.89,3.89,0,0,1,18,71.06a.58.58,0,0,1-.78-.11C16.63,69.36,17.12,67.82,17.36,66.26Z"/><path class="cls-49" d="M21.24,8.23l-.56-.57.63-1.85.27,0C22.7,5.44,23,4.21,24,3.68a1.81,1.81,0,0,1,.65-.11,1.11,1.11,0,0,1,.56.31c.36.91-.36,1.39-.77,2-.33.41-.69.8-1,1.21C22.8,7.73,22.31,8.52,21.24,8.23Z"/><path class="cls-49" d="M20.67,7.67a1.92,1.92,0,0,1-1.86,2C19.27,8.83,19.64,7.93,20.67,7.67Z"/><path class="cls-50" d="M18.74,9.6a2.27,2.27,0,0,1-1.33,2A2.2,2.2,0,0,1,18.74,9.6Z"/><path class="cls-51" d="M56.71,79.72c-1.66,2.34-2.74,2.48-4.77.36a15.47,15.47,0,0,0-2.38-1.93c-.61-.43-1-.37-1.49.4a2.11,2.11,0,0,1-3.84,0c-.73-1.2-1.3-.75-1.59.14-.49,1.5-.83,3.08.63,4.35-2.21,2.44-5,1.93-7.73,1.47h-.21l-.21,0c-.62-1.15-.62-1.15,1.38-1.83,2.25-.75,2.38-1.2.81-3a11.12,11.12,0,0,1-1.21-1.44c-.94-1.51-1.81-3-.29-4.66.24-.26.13-.76.21-1.15,1.25-1.93,5.45-3.3,8.07-2.64a1,1,0,0,1,.38,1c-.29.73-1,.68-1.74.83a5,5,0,0,1,1.86,1.71c1.17,2.21,3,2.82,5.17,1.72.8-.41,1.55-.89,2.39-.11a3.44,3.44,0,0,1,.41,1.72c-.1,1.57.72,2.27,2.22,2.38A2.45,2.45,0,0,1,56.71,79.72Z"/><path class="cls-26" d="M35.54,84.54c2.64-.13,5.29-.27,7.73-1.47h0a13.79,13.79,0,0,0,5,.11,6.83,6.83,0,0,1,3.69.27c-.1,1.14-1.09.57-1.44,1-2.05.56-4.26.12-6.26,1C41.33,85.16,38.28,86.28,35.54,84.54Z"/><path class="cls-52" d="M36.56,83.07c-.07.89-2.12-.17-1.44,1.45-2.19.29-4.07-1.18-6.22-1A4.25,4.25,0,0,0,26,81.2a1.66,1.66,0,0,1-1.56-1.27.79.79,0,0,1,.4-.54A5.83,5.83,0,0,1,28,79.27c.75.25,1.39.74,2.13,1a2,2,0,0,1,.5.41c.59,1.11,1.37,1.84,2.75,1.34C34.53,82.14,35.94,81.36,36.56,83.07Z"/><path class="cls-53" d="M24.55,79.72c.39.89,1.2.83,2,1,1.41.3,2.52,1,2.35,2.75-1.26-.39-2.45-1.49-3.85-.36-.53-2-2.25-2.12-3.84-2.45l-1.43-1,.45-.94C21.94,77.89,23.25,78.76,24.55,79.72Z"/><path class="cls-54" d="M61.51,80.67a1,1,0,0,1,.47,1c-.66.5-1.2,1.23-2.19,1.08-.43-.11-.89-.16-1.16-.59Z"/><path class="cls-55" d="M50.49,84.48l1-.73c-2.75-.7-5.61.51-8.24-.67l13.47-.46A8.87,8.87,0,0,1,50.49,84.48Z"/><path class="cls-56" d="M16.85,16.8l2.95-5.72c1.37-2,3.08-2.46,5.31-1.37,1.12.55,2.55,0,3.69.7,2.13,3.5,4.13,7.22,4.95,11.12.57,2.68,1.1,5.75.44,8.63a62.34,62.34,0,0,0-1,6.33c-.88,1.66-.33,3.7-1.38,5.32-.68.14-.86.85-1.34,1.2-1,.71-1.73.71-1.91-.73,1.15-3.09,1.34-6.42,2.32-9.55.42-1.42.51-2.78-.73-3.89a7.73,7.73,0,0,1,0-4.45c.7-2.2.17-4-.57-6.07-.15,1.43,0,2.77-.08,4.1s.31,2.86-1.58,2.93-1.78-1.58-1.92-3c-.26,1.87-1,3.3-2.9,3.9a2.23,2.23,0,0,1-1.72,0c-1-.6-.55-1.75-1-2.69-1,.51-1.81,1.18-2.93.91a1,1,0,0,0-1.19.56,3.49,3.49,0,0,1-2.83,2.28c-.73.09-.48,1.09-.82,1.61a1.58,1.58,0,0,1-1.69.18l-.28-.24a16,16,0,0,1,2.67-5.26A5,5,0,0,0,14.47,21l.47-.37c.43-.74,1.06-.84,2-.48C16.88,19,16.31,17.89,16.85,16.8Z"/><path class="cls-57" d="M5.36,38l.12-1.41c1.61.31,1.37-1.45,2.23-2A5.52,5.52,0,0,0,9.17,31.7h0c1.68-1,1.71.69,2.49,1.65C12,31.7,13.49,31,14,29.62c.19-.54.47-1.1,1.18-.89s.73.79.78,1.35a3.58,3.58,0,0,1-.48,2.28c-.7.83.44,1.45.27,2.22-.38,1.1,0,2.37-.76,3.38-.71,1.47-1.3,3-2.85,3.92s-.34,3-1.22,4.38c-.68.82-.6,2.06-1.52,2.75-2.72,1.31-4,.84-5-1.83a4,4,0,0,1,0-1.85,1.52,1.52,0,0,1,.37-.59c.73-.57,1.11-.1,1.5.47s.54,1.36,1.48,1.27c-.34-1.72-.43-1.77-2.85-1.84-1.75,0-1.29-1.48-1.56-2.45l.5-.92C5,41.09,5,42.1,5.36,42.6A6.48,6.48,0,0,1,5.36,38Z"/><path class="cls-58" d="M15,32.66c.19-1.17.9-2.33,0-3.59.36,2.31-3.09,2.55-2.53,5,.09.38-.52.52-.93.48a.85.85,0,0,1-.8-1c0-1-.09-2-1.49-1.84l1.48-2.84,0,.05c.66,1.06,1.27.59,1.86-.07-.7-1.39-.59-2.21,1.28-2.17,1.4,0,1.66-1.26,2-2.25.29-.8.38-1.2,1.41-.59,1.57.93,2.28-.88,3.55-1.54.69,1.2.24,2.47.38,3.66,1,1.42.63,2.83,0,4.24-.39.06-.78.13-1,.54-.41.69-1,1.25-1.42,1.94l-.48.49C16.55,35.48,16.52,35.48,15,32.66Z"/><path class="cls-58" d="M9.17,31.7c.77,1.59-.38,2.21-1.46,2.87A6.49,6.49,0,0,1,9.17,31.7Z"/><path class="cls-59" d="M4.87,47.07c1,2.24,2.06,2.6,4.34,1.47.24.29.65.26.94.46,0,.47,0,.94,0,1.41l-.46,0c-.56,1-1.64.51-2.41.91L4.89,49.46c-.4-.43-.48-1.07-1-1.41h0a.84.84,0,0,1-.06-1A.8.8,0,0,1,4.87,47.07Z"/><path class="cls-60" d="M3.9,47.11v.94C2.4,47.61,1.81,46.27,1,45.14a1.57,1.57,0,0,1,1-.91,1.66,1.66,0,0,1,1.19.93C3.46,45.8,3.7,46.45,3.9,47.11Z"/><path class="cls-61" d="M7.27,51.35l2.41-.91c-.16,1.28-1.19.85-1.94,1Z"/><path class="cls-60" d="M3.9,48.05c1,0,1,.72,1,1.41A1.47,1.47,0,0,1,3.9,48.05Z"/><path class="cls-62" d="M5.36,38c.15,1.76.29,3.52.46,5.67L3.87,41.27C4.32,40.15,4.37,38.85,5.36,38Z"/><path class="cls-63" d="M3,45.15A1.53,1.53,0,0,1,2,44.23H2a5.44,5.44,0,0,0,.87-1.51l.47-.52c.88.6.38,2,1.5,2.49h0v.48A1.38,1.38,0,0,1,3,45.15Z"/><path class="cls-60" d="M2.9,42.71c.07.71.11,1.4-.87,1.51A1.58,1.58,0,0,1,2.9,42.71Z"/><path class="cls-64" d="M16.85,16.8a1.83,1.83,0,0,0,0,.47c.37,1.16,1.34,2.56,1,3.44-.57,1.44-1.88-1.21-2.94,0,0-1.45,1.61-2.3,1.47-3.81A3.11,3.11,0,0,1,16.85,16.8Z"/><path class="cls-15" d="M23.11,6.74l.95-1c1.62-.26,2.73-1.69,4.35-1.93,1.44.82,2.37,2.26,4,2.9,4.7,1.88,8.19-.08,11.31-3.38l.36-.07c.66.4.62,1,.39,1.58-.92,1.18-1.59,2.59-3,3.28a5.24,5.24,0,0,1-3.74.67c-.24,0,.22.49.11.19,0,0,0-.1.17-.08,1,.14,2-.42,3,.33-.48,1-1.31.91-2.06,1-1.81.11-3.66-.2-5.41.61a1.27,1.27,0,0,1-1.63-.65c-1.56-2.38-3.75-2.52-6.2-1.79a2.52,2.52,0,0,1-.48.06A2.16,2.16,0,0,1,23.11,6.74Z"/><path class="cls-65" d="M28.41,3.85c-1.26,1.07-2.31,2.61-4.35,1.93.34-.62.67-1.24,1-1.85,0-1,.6-1.37,1.47-1.49a2.22,2.22,0,0,1,1.82.48Z"/><path class="cls-66" d="M28.36,2.92l-1.9,0a.62.62,0,0,1,0-.93h0C27.17,1.91,27,.63,28,1l.89.55c0,.14,0,.29,0,.43C28.07,1.92,28.14,2.38,28.36,2.92Z"/><path class="cls-67" d="M42.34,2.92l.33-.53c.6-.16.72-1.59,1.74-.68a1.45,1.45,0,0,1-.18,1.23,3.27,3.27,0,0,1-.44.47l-.1,0Z"/><path class="cls-66" d="M28.89,1.94a3.25,3.25,0,0,0,.44,0c.36.62.71,1.24,1.06,1.86A2,2,0,0,1,28.89,1.94Z"/><path class="cls-68" d="M44.25,2c-.74-.63-1,.57-1.58.42C43,1.06,44,.78,45.19,1l.59.88a1,1,0,0,1-.56.41A1.11,1.11,0,0,1,44.25,2Z"/><path class="cls-69" d="M45.2,2l.58-.07c1.37.2,1.85,1.81,3.2,2.05.14.83.9,1,1.47,1.39,0,.16,0,.32,0,.48a1,1,0,0,1-.51,1c-1.27.19-1.67-.9-2.35-1.59C46.94,4,45,3.75,45.2,2Z"/><path class="cls-70" d="M28,1c-.52.29-.69,1.09-1.47,1,.32-.47.63-.95.94-1.42Z"/><path class="cls-71" d="M60.5,21.17h-1c-1.18.51-1.25-.56-1.66-1.16-.1-.2-.19-.4-.28-.6-1.24-1.45-1.65-3.28-2.21-5a1.32,1.32,0,0,1,.38-.92l.06-.05A31.14,31.14,0,0,1,60.5,21.17Z"/><path class="cls-19" d="M67.27,36.52c-1.81.09-2.33-1.15-2.54-3.12C62.92,36,62,38.69,59.35,40c-.66-.86,1.07-2-.18-2.68-.75-.42-1.37-1.49-2.49-.75a.51.51,0,0,1-.61-.05c-.8-1.19-.68-2.75-1.72-4.13-.3,2.34.41,4.45,0,6.55l-.1.05a2.44,2.44,0,0,0-.17.67c-.07.68.48,1.78-.75,1.8-1,0-1-1-1.12-1.76a23.65,23.65,0,0,1-.91-8.24,2.7,2.7,0,0,0-1-2.52,4,4,0,0,1-.35-2.79c.17-1,.77-1.72,1.81-1.34,2.58,1,4.8-.39,7.16-.87a2.27,2.27,0,0,1,1.18-.84c1.4,1.65,1.87,3.8,3.14,5.55s2.38,4,3.56,6C66.94,35.25,67.1,35.88,67.27,36.52Z"/><path class="cls-72" d="M60.08,23.06c-.16.33-.32.65-.49,1-2.55,1-5.06,0-7.19-.92-2-.88-1.12-3.11-.34-4.81.6-1.66-.8-3-.74-4.59.06-.87.09-2,1.12-2.09s.61,1.45,1.41,1.85a1.79,1.79,0,0,1,0,.4c.54.46,1.4-.14,1.86.57.93,1.54,1.09,3.46,2.4,4.8a1.83,1.83,0,0,1-1.71.16c-1.05-.72-.76-2.19-1.66-3.16-.81,1.69.27,2.27,1.33,2.85.31,1.54,1.48.13,2.09.62.61.34.35,1.47,1.34,1.47Z"/><path class="cls-52" d="M24.55,79.72l-4.32-1c-.73.06-.94-.66-1.44-1a1.66,1.66,0,0,1-.8-2.71.74.74,0,0,1,.53-.3c.81.29.71,1.19,1.15,1.73s.92.48,1.45.14a1.52,1.52,0,0,1,.63-.1c1.16.86,2.9,1.19,2.81,3.15Z"/><path class="cls-73" d="M18.31,74.92a2.43,2.43,0,0,0,.48,2.88c-1.05,0-2.06,0-1.94-1.46A3,3,0,0,0,17.29,74a2.37,2.37,0,0,1,.09-2.87l.43,0C18.83,72.22,18.47,73.58,18.31,74.92Z"/><path class="cls-74" d="M17.38,71.09,17.29,74c-.31.08-.82,1.24-.88-.09-.07-1.7,0-3.41,0-5.12.79-.64,0-1.86.91-2.48C17.37,67.87,17.38,69.48,17.38,71.09Z"/><path class="cls-75" d="M52.87,18.28c0,.89-1,1.31-1,2.32,0,1.62.38,2.78,2.24,2.44s3.53,1.41,5.48,1c0,.08,0,.22-.05.23-2.36.68-4.74,2.54-7.15,1.41-2-1-1.93-.15-1.92,1.26,0,.63,0,1.27,0,1.9a18,18,0,0,0-4.77.79c-2.84.59-3.78-.35-5.14-2.89-1.88-3.51-1.41-7-1.16-10.65a2.71,2.71,0,0,1,.23-.64,7.57,7.57,0,0,0,1.26-1.9c.08-.2.17-.4.26-.6a20.28,20.28,0,0,1,1.2-2c.62-1.26,1.33-1.81,2.79-1.14,1,.48,2.06.29,2.28-1.16C47.73,6.76,48.78,7,50,7.7c2.21,1.22,4,4,3.82,5.77-1.4.27-1.06-.87-1-1.67-1.08.37-.87,1.08-.94,1.68-.87.77-1.75.5-2.64,0-1.3-.71-3.19-1.33-3.92-.23S43,16,44.6,17.86c.35.4.18,1.09.31,1.62.3,1.25,1.44,1.48,2.4,1.63s1.29-.75,1.55-1.53c.12-.37.15-.78.3-1.15Q50.39,15.48,52.87,18.28Z"/><path class="cls-76" d="M50,7.7c-.38.86-2.22-1.19-2,1-1.22.77-2.4.2-3.58-.12-1.44-1.14-.4-2.46-.26-3.72,0-.51.1-1.06-.44-1.42,0-.16,0-.32,0-.48.49-.42,1.17-.53,1.42,0,.58,1.28,1.9,1.26,2.83,1.9A5.78,5.78,0,0,0,50,6.77Z"/><path class="cls-75" d="M55.73,14.44c-.65-.1-1.44.27-1.86-.57l1.88-.4C55.75,13.79,55.74,14.12,55.73,14.44Z"/><path class="cls-70" d="M24.51,3.84c0-.3,0-.61,0-.91a1.61,1.61,0,0,0,1-1h1c0,.31,0,.62,0,.93-.74,0-.93.68-1.39,1Z"/><path class="cls-77" d="M23.11,6.74,25,8.19h2.4c1.4,0,2.12.6,1.71,2.1l-.27.32c-1.85-.16-3.76.39-5.54-.83a1.34,1.34,0,0,0-2.17,1c-.15.95-.91.19-1.36.33-.14-1.26,1.45-1.65,1.44-2.85Z"/><path class="cls-78" d="M56.71,79.72c-.62,0-1.25,0-1.87,0-2.09.15-3.1-.76-2.92-2.89,1.76-.07,3.51.23,5.27,0h1.44Z"/><path class="cls-79" d="M57.19,76.83c-1.76,1.41-3.52,1-5.27,0V74.92a4.09,4.09,0,0,1-.68-3c-.08-2.15-.07-4.31,0-6.46,0-1.2.07-2.43,1.3-3.14.88.11.85.85.94,1.44.51,3.22,1.29,6.41,1,9.71,0,.61-.19,1.53.54,1.67s1.2-.75,1.3-1.43c.3-2.13.66-4.34-1.19-6a3.38,3.38,0,0,1-1-2.85,47.26,47.26,0,0,0-1.72-13.7,2.18,2.18,0,0,1,.07-.95c1.17-1.5.47-3-.11-4.43-.06-1.29-.74-3.23.85-3.51s.87,2,1.57,2.89a48.35,48.35,0,0,1,1.94,10.54c0,1.31-1,2.72.42,3.88a46.73,46.73,0,0,1,.51,7.66A14.84,14.84,0,0,1,57.19,76.83Z"/><path class="cls-80" d="M54.81,45.15c-1-.57-.7-1.87-1.53-2.82-.7,1.32-.28,2.59-.41,3.79.19.5-.11.57-.49.55a1.25,1.25,0,0,1-.37-.54c-1.26-1.22-2.89-2-3.14-4.2-.11-1-1.52.15-2.32-.11-2.56-.66-3.64-2.26-2.91-4.69.52-1.77,1.8-1,2.89-.61-1.94-2.68-2.43-2.75-5-.77-.49.38-.89.94-1.63.88-2.55-1.58-2.59-1.94-.36-3.38a10.15,10.15,0,0,0,3-1.39,4.11,4.11,0,0,1,6.2,1.83,10.54,10.54,0,0,0,2.08,2.9,3.85,3.85,0,0,1,1.41,2.68c0,1.07.55-.56.64.13s-.12,1.2.38,1.71c1-.47.19-1.69,1-2.16C54.49,41,55.38,43,54.81,45.15Z"/><path class="cls-81" d="M54.34,38.9a14.85,14.85,0,0,1-.17-8.48,13.1,13.1,0,0,1,2.12,6,.79.79,0,0,1-.4.32,4.1,4.1,0,0,1-.49.06c-.33.49,0,1.22-.61,1.59Z"/><path class="cls-82" d="M57.17,59.57c-1.85-.69-2-1.63-.42-3.88l.46,1C57.2,57.62,57.19,58.6,57.17,59.57Z"/><path class="cls-83" d="M55.27,36.5a3.11,3.11,0,0,1,.43,0c.67.51.49,1.25.51,1.93,0,.3,0,.6,0,.91l-.52,0-.47-1A2,2,0,0,1,55.27,36.5Z"/><path class="cls-84" d="M55.27,36.5c0,.65,0,1.29,0,1.94h-.47C55,37.81,54.25,36.94,55.27,36.5Z"/><path class="cls-85" d="M63.45,50c-.29-.65-1-1.06-1-1.88a12.75,12.75,0,0,0-.2-1.86c-.15-.61-.4-1.17.11-1.81.87.35.48,1.92,1.88,1.76.77-.09,2.24-.52,2.17.92S65.8,49.9,63.93,50Z"/><path class="cls-86" d="M68.7,46.12c0,.64,0,1.27,0,1.91-.74,0-1.47,0-1.4-1.06S68.09,46.14,68.7,46.12Z"/><path class="cls-87" d="M56.21,38.46c-.59-.53-.42-1.27-.51-1.93l.58-.06.4.06c0,.45,0,.91.08,1.37Z"/><path class="cls-88" d="M21.19,30.19c0-1.41,0-2.83,0-4.24h1.91a1,1,0,0,1,.29.9c-.49,1.25-1.19,2.47-.74,3.9-.59,2,1.52,2.34,2.11,3.6a2.15,2.15,0,0,1,.17.65c-.05.47,0,1.11-.29,1.37-2,1.68-.59,3,.5,4.76a6.46,6.46,0,0,0,.33-3.73,4.06,4.06,0,0,1,4-5.3,2.1,2.1,0,0,1,1.75.57c-.84,3.19-.69,6.63-2.4,9.6a6.6,6.6,0,0,1-2.71,2.81c-1.58.89-2.48.51-3.31-.82-1.12-1.78-2.63-3.46-1.66-5.83,0-.64,0-1.27,0-1.91l.06-5.28C21.2,30.89,21.2,30.54,21.19,30.19Z"/><path class="cls-89" d="M10.62,46.1c.56-1.57-.82-3.61,1.19-4.84a7.12,7.12,0,0,0,2.66-3.79,3.74,3.74,0,0,0,1.65-1l.28.09c-.84,2.78-2.6,5.1-3.82,7.69a2.76,2.76,0,0,0-1,1.89A.59.59,0,0,1,10.62,46.1Z"/><path class="cls-89" d="M15,32.66c.15,0,.36,0,.45.12,1.35,1.56,1.34,1.56,2.92.38a8.58,8.58,0,0,1-1.92,3.35l0,0c-.63-.47-.62-1.26-.93-1.89C15.34,33.94,14.38,33.49,15,32.66Z"/><path class="cls-45" d="M18.8,32.67a2.39,2.39,0,0,1,1.42-1.94A2.2,2.2,0,0,1,18.8,32.67Z"/><path class="cls-90" d="M21.19,38.43c-.52,2.79,1.44,4.6,2.95,6.32.71.79,2.36-.55,3.38-1.32.46-.36.56-1.16,1.35-1.16.11.88.46,1,1.2.5.44-.29.39-1.18,1.2-1,.67.78.81,1.84,0,2.35-3,2-1.39,4.58-.8,6.82.35,1.32.6,2.24-.17,3.5C29,56.63,29.5,59,29.88,61.4c.16,1,.47,2,.57,3.05-.14,1.13.54,2.65-1.37,3a16.68,16.68,0,0,1-3.82-3.58,3.24,3.24,0,0,1,0-4.58c1.55-1.68.94-3.59.91-5.45a1.06,1.06,0,0,0-1.3-1.07c-.83.1-1,.75-.93,1.42a31.15,31.15,0,0,1,.3,3.34c-.07,1.24-.17,2.49-1.86,2.53S21,58.77,21,57.38c-.42,1.27,1.07,2.64-1,3-.8-1.46-.17-3-.11-4.46a10.17,10.17,0,0,0-.15-4c-.54-.35-.42-.92-.46-1.44,0-.16,0-.31,0-.47.21-.69.69-1.25.93-1.93A37.41,37.41,0,0,1,21.19,38.43Z"/><path class="cls-42" d="M20.22,48c.78,1.17-.65,1.27-.93,1.93A1.65,1.65,0,0,1,20.22,48Z"/><path class="cls-73" d="M19.74,51.88c1.11,2.82.18,5.76.52,8.63.84,1,.29,2,0,2.92a18.9,18.9,0,0,0-.43,3.07,3,3,0,0,1-.23.65c-.38.53-.73,1.08-1.15,1.59a.44.44,0,0,1-.57-.06l1.44-13C20.21,54.53,19.55,53.15,19.74,51.88Z"/><path class="cls-61" d="M10.62,46.1h.94c-.51.95-.48,2.16-1.41,2.91-.49.21-1,.41-.94-.46C10,47.91,9.39,46.47,10.62,46.1Z"/><path class="cls-52" d="M17.85,68.68h.46a6.31,6.31,0,0,1,0,6.24h0c-1-1.19-.24-2.6-.5-3.88C17.82,70.25,17.84,69.46,17.85,68.68Z"/><path class="cls-91" d="M52.87,62.43c-1.21,1-.94,2.41-.95,3.72,0,2,0,3.92,0,5.89-2.79,1.54-5.16-.28-7.68-1v-.95c-1.35-2.41-.5-5-.68-7.52.11-4.07.07-4.13-3.95-5.75-1.26-.52-2.43-3.24-2.17-5.06.37-.21.93-.31,1.08,0,1.23,2.49,3.79,2,5.82,2.68a2.78,2.78,0,0,0,1.36.32,7.6,7.6,0,0,1,7.5,5A2.39,2.39,0,0,1,52.87,62.43Z"/><path class="cls-92" d="M36.56,83.07c-1.19-1-2.57-.27-3.85-.48s-1.41-1.19-1.91-2a8.15,8.15,0,0,0-1.45-1.54c-1.71-2-1.27-4,1.16-4.7a2.42,2.42,0,0,0,1.83-2.16c.31-1.56,0-3.16.38-4.71.06-.31.18-.6.26-.9.2-.75.37-1.64,1.27-1.77s1.21.78,1.6,1.42a2.32,2.32,0,0,0,.49.5,1.87,1.87,0,0,1,.47.54,4.48,4.48,0,0,1-.24,4,1.46,1.46,0,0,0,0,1.71c0,.4.14,1-.07,1.15-2.45,2.16.4,3.27.94,4.81.09.26.45.42.68.64a2.57,2.57,0,0,1,1,2.69C38.72,83.21,37.51,83.1,36.56,83.07Z"/><path class="cls-93" d="M36.55,73c-1.3-1,0-2.1,0-3.16,0-.86,0-1.73,0-2.6a1,1,0,0,1,.14-1.64c2.23-1.28,4.19-3,6.68-3.88a.93.93,0,0,1,.86.24v8.17c-2.71-.8-4.66,1.76-7.25,1.65C36.52,71.75,36.59,72.54,36.55,73Z"/><path class="cls-93" d="M44.23,71.07c2.68-.58,5,1.55,7.68,1v2.88c-.39,0-1,0-1.14.17-1.55,2.43-3.64.68-5.47.76-.41,0-1-.14-.92-.57.22-2.32-1.65-2.93-3.11-4.21Z"/><path class="cls-94" d="M33.19,67.23a31.82,31.82,0,0,1-.38,6.15C32.53,74.6,32.1,75,31,74.92c-.8,0-1.67,0-2,.93a2.52,2.52,0,0,0,.62,2.65c.66.66,1.64,1,1.66,2.17a.67.67,0,0,1-1,0c-.48-.63-1.37-.45-1.92-1H24.56a9.31,9.31,0,0,0-3.36-2.87c-.49-1.11.13-1.26,1-1.11a5.16,5.16,0,0,1,1.45.76c1.68.89,1.91.73,2.16-1.42a2.63,2.63,0,0,0-.47-1.32c-1.6-2.62-1.38-3.46,1.42-4.91a4.45,4.45,0,0,0,1.85-1.41l.27-.2c1.74-.48.64-1.92,1-2.88,1.18-.07.88,1.06,1.3,1.59.35.83,1.25.67,1.85,1Z"/><path class="cls-51" d="M30.31,80.68h1l1.44,1.92C30.85,83.28,30.66,81.88,30.31,80.68Z"/><path class="cls-51" d="M28.39,79.72c.76.08,1.77-.33,1.92,1A1.7,1.7,0,0,1,28.39,79.72Z"/><path class="cls-95" d="M30.79,66.28c-.77-.42-.18-1.51-1-1.93a23.75,23.75,0,0,1-1-7.5c0-.4-.15-1,.05-1.17,2.71-2.85-.06-5.66,0-8.48,0-1.28-.72-2.92,1.68-3.16,1.13-.11.51-1.46.67-2.25,1.07-1.6-.09-3.8,1.44-5.28,2.68-1.24,3.81-.82,4.51,1.68a40.37,40.37,0,0,1-.06,5,3.38,3.38,0,0,1-.42,1.36,4.7,4.7,0,0,0,.14,5.76,3.2,3.2,0,0,1,.63,1.53c-.1,1.63,1.46,2.59,1.66,4.11,0,.17.31.38.51.45,4.48,1.38,4.55,1.46,4.55,5.51-2.78.85-4.79,3.08-7.44,4.19-.19.09-.16.72-.24,1.09h-.48c-.63-.34-.67-1-.75-1.58-.15-1.19-.88-1.52-2-1.16a.9.9,0,0,1-.47-.45A2.6,2.6,0,0,1,34.06,61c1-.6,1.56.31,2.29.81a12.1,12.1,0,0,1-.43-2.88c-.11-1.19-2.3-3.63-3.31-3.75-.85-.1-.84.64-.91,1.12-.34,2.55-1.57,5-.46,7.71a2.43,2.43,0,0,1-.2,2.09Z"/><path class="cls-77" d="M36.56,38.44c.07-3.34-2.52-1.38-3.85-1.93a15.5,15.5,0,0,1,.76-5.85,7.3,7.3,0,0,0-.14-4.88c-.1-.29-.38-.64-.31-.88,1.29-4-1.75-7-2.68-10.48-.32-1.21-1.87-2.16-1.47-3.82h0a.77.77,0,0,1,1.24.17c.86,1.9,2.71,2,4.32,2.52.88.72,1.26,1.85,2.09,2.61.37.33.82.65,1.27.26a2.05,2.05,0,0,0,.5-2c-.11-.74-.6-.52-1.07-.37-1,.31-2.06.45-2.81-.62a4.55,4.55,0,0,1,4.46-3,2.81,2.81,0,0,1,2.48,3.27c-.75.44-.91,1.31-1.44,1.92a31.72,31.72,0,0,1-2.6,7.71,20.25,20.25,0,0,0-2,7.53A2.06,2.06,0,0,0,37.44,33c.71.06,1.46,0,2,.63-2.55,1.42.48,1.9.48,2.88a2.33,2.33,0,0,1-.64.65C38.3,37.44,38.43,40.07,36.56,38.44Z"/><path class="cls-58" d="M23.11,26.91V26c1.28-1,2.3-2.08,2-4-.13-.85.79-.88,1.43-.79,1.13.15.63.84.39,1.4s-.72,1.31-.05,2a1.21,1.21,0,0,0,1.33.31c1-.42.62-1.37.64-2.1.05-2,0-4.08,0-6.45a9.08,9.08,0,0,1,2,7.44c-.51,1.61,0,3.4-.54,5a1.16,1.16,0,0,1-1.35.23c-1.14-1.81-2.56-2.86-4.81-1.83A1,1,0,0,1,23.11,26.91Z"/><path class="cls-96" d="M28.88,28.83h1.44c2.68.69,1.27,2.4.95,3.84-1.78,0-3.69-.43-4.82,1.66-.48.89-2,1.22-.3,2.7.71.63.1,2.91-.14,4.41-.1.6-.76.63-1.27,0-.73-.84-1.61-1.57-1.62-2.81,0-1-.43-2.17,1.16-2.53.2,0,.19-1,.27-1.55C24.6,31.62,26.8,30.28,28.88,28.83Z"/><path class="cls-97" d="M12.55,28.84c-.15.77-.24,1.8-1.2,1.77s-.6-1.06-.66-1.7Z"/><path class="cls-98" d="M4.87,44.68c2.62-1,3.87-.42,3.84,1.69,0,.48,0,1-.47,1.26s-.79-.4-1.18-.49c-1.35-.31-.8-2.24-2.19-2.46Z"/><path class="cls-99" d="M3,45.15h1.9v1.91l-1,0C2.65,46.91,3,45.93,3,45.15Z"/><path class="cls-58" d="M15.43,34.6a1.57,1.57,0,0,1,.93,1.89c-.51.57-1,1.18-1.89,1C15.37,36.71,14.24,35.26,15.43,34.6Z"/><path class="cls-95" d="M41.35,13.47a2.48,2.48,0,0,0-2.63-2.64c-1.47.39-3.87.09-4.08,2.65-2.9,1-4.13-1.35-5.77-2.89.18-1.4-.35-2.08-1.85-1.94-.68.07-1.45.22-2-.46C26.6,7,28.69,8,30.35,7a.49.49,0,0,1,.57.72c-.56.91.18,1,.58,1.52,1.28,1.75,2.62.4,3.91.42a21,21,0,0,0,5-.37l-3.25-.19a16.2,16.2,0,0,0,4.21-1.36c1.11-.7,2-.18,2.88.48,1.33-.24,2.54.46,3.84.48,0,1.83-1.2,2.51-2.5,1.84-1.93-1-2.42.41-3.24,1.38A11,11,0,0,0,41.35,13.47Z"/><path class="cls-75" d="M44.23,8.19c-1.08.57-1.81-1-2.88-.48,1.37-.56,1.37-2.47,2.88-2.88C45.54,6,43.57,7.07,44.23,8.19Z"/><path class="cls-15" d="M48,4.86c-1.29-.1-2.84.31-3.18-1.68,0-.14-.69-.17-1.07-.25l.47-1,1,0C45.71,3.35,47.36,3.62,48,4.86Z"/><path class="cls-100" d="M58.18,19.71c-1.37-.06.45,1.32-.61,1.37-.46,0-1,.12-1.37-.11-.72-.51.18-1.14,0-1.74h1.89C58.15,19.4,58.17,19.55,58.18,19.71Z"/><path class="cls-95" d="M39.43,33.63c-1.51-.31-3.58.92-4.42-1.28a5.17,5.17,0,0,1,1-5.72,1.15,1.15,0,0,0,.42-1.06c-.5-2.21-.23-3,1.44-4.49.91-.81.7-2,1.11-3s.19-1.92.91-2.66c-.53,2.93.68,5.91-.25,8.84-.16.5.25.68.67.76a1.06,1.06,0,0,1,1,.84c.24,1-.54,2.29.62,2.83,1.71.79,4.09.94,5.24,0,1.58-1.31,2.24.23,3.29.19s1.85-.08,1.57,1.65a18.35,18.35,0,0,0,.83,8.92c-.61.27-.29,1-.89,1.6a5,5,0,0,0-2.34-4.6,5.87,5.87,0,0,1-1.48-2.34c-1.08-2.42-3.39-3.16-5.49-1.54A4.13,4.13,0,0,1,39.43,33.63Z"/><path class="cls-101" d="M52.87,18.28c-2.65-1.43-2.82-1.39-3.34,1.65-.23,1.35-1.52,1.57-2.16,2.45-.5-1.55-3.32-.51-3.15-2.85.07-1,.28-2.16-1.31-2.31-.31,0-.58-.52-.3-.73,1.43-1,1.16-3,2-4s3.22-.64,4.5.11a5.31,5.31,0,0,0,2.79.85C51.78,15.17,53.45,16.49,52.87,18.28Z"/><path class="cls-102" d="M56.24,19.23c-.83-.18-2.17.52-2.31-.88-.11-1.05-.79-2.77.51-3.12s1.26,1.45,1.63,2.38a5.41,5.41,0,0,1,.16,1.63Z"/><path class="cls-103" d="M26.47,74.92c-.2.93.57,2.18-.68,2.76s-2.07-.28-3-1c-.48-.37-1.21-1.56-1.62.12h0a1.5,1.5,0,0,1-1.93,0c-.77-.42-.18-1.51-.95-1.93q0-3.12,0-6.24c0-.69,0-1.4,1-1.43a1.47,1.47,0,0,1,.45.78,1.25,1.25,0,0,0-.45-.78c-.51-2.37.85-4.46,1-6.73,1-1,0-2.33.73-3.44a3.16,3.16,0,0,1,.19.73c0,.92,0,1.84,1.34,1.73s1-1.18,1.08-2c.17-1.23-.38-2.35-.47-3.53s-.08-2.22,1.65-2.18c1.38,0,2.35.15,2.2,1.91-.12,1.35,0,2.71,0,4.07,0,.7,0,1.29-.84,1.76-1.5.81-1.47,2.75-.21,4.05,1.08,1.12,2.63,1.87,3,3.6A15.38,15.38,0,0,1,26,69.31c-2.33,1.66-2.44,2.1-.69,4.42A11.77,11.77,0,0,0,26.47,74.92Z"/><path class="cls-94" d="M19.27,76.84H21.2C20.55,78.43,19.91,77.78,19.27,76.84Z"/><path class="cls-95" d="M39.91,15.39c0-1-.09-2.06,1.44-1.92C41.19,14.35,41.05,15.25,39.91,15.39Z"/><path class="cls-104" d="M52.87,62.43c0-3.18-2.48-6.74-5.21-7.54-.56-.16-.82.31-1.22.5-.85.4-1.84.82-2.21-.64a2.23,2.23,0,0,1,0-3c.67-.53,1.56-.66,2.18-1.38,2-2.41,2.15-2.39,4.6-.26.93-1.18-.69-3.23,1.37-4l0,.49c.84,1,1.32,2.09.47,3.35,1.25,2.43.71,5.22,1.61,7.77.83,2.33.18,4.91.3,7.37.05.92-.26,2,1.18,2.22a1,1,0,0,1,.64.59c.54,2.54,1.43,5.11-.36,7.51-.36.48-.39,1.68-1.45,1.07a2,2,0,0,1-1.08-2.13c.22-2.12.59-4.48-.11-6.36S53,64.29,52.87,62.43Z"/><path class="cls-105" d="M52.88,50c-.16-1.12-.32-2.24-.47-3.35l.46-.48C53.86,47.4,54.64,48.67,52.88,50Z"/><path class="cls-106" d="M44.71,51.87c-.87.85-.32,1.92-.48,2.88-1.24.14-2.44-.49-3.74-.07-.86.28-1.23-.6-1.43-1.28-.24-.84-.55-1.5-1.55-1.52-2.32-2.77-3.7-3.81-.95-8.17.45-1,1.5-1.1,2.5-1.66-2.45-1.83-.67-3.67-.11-5.54h1a18.89,18.89,0,0,1,1.51-1.46c2.61-2,5-1.38,6.34,1.67a.65.65,0,0,1-.15.84.67.67,0,0,1-1,0c-.71-.79-2-1.72-2.29-.53s-1.12,3.3,1.21,4l1.14.31C47.17,45.05,46.92,48.64,44.71,51.87Z"/><path class="cls-79" d="M44.71,51.87c1.16-3.42,1.37-7,1.92-10.56.32,0,.71,0,.92-.11,1.57-1.13,2.17-.7,2.2,1.17,0,1.32.25,2.65,2.16,2.36.34,0,.35.05.48,1.38-1.13,1.69,0,3.71-.71,5.41-.62.21-.73-.27-1-.54-2.07-2.39-2.11-2.43-3.93.14C46.2,52,45.48,51.84,44.71,51.87Z"/><path class="cls-107" d="M28.88,28.83c-1.33,2-3.54,3.35-4.33,5.76C24.17,33.05,23,32,22.16,30.75a3.33,3.33,0,0,1,.95-3.84c1.51.17,2.76-1.82,4.58-.28C28.52,27.34,28.94,27.84,28.88,28.83Z"/><path class="cls-96" d="M22.16,30.75a3.39,3.39,0,0,1,2.39,3.84C23.54,33.45,21.28,33.08,22.16,30.75Z"/><path class="cls-94" d="M33.19,64.36c1.2-1.44,2-1,2.33.6a6.87,6.87,0,0,0,.55,2.27,1.79,1.79,0,0,1-.64-.22c-.59-.48,0-1.86-1.06-1.81s-.33,1.59-1.18,2h0A2.06,2.06,0,0,1,33.19,64.36Z"/><path class="cls-90" d="M26.47,74.92c-2.36-.23-2.35-2.36-2.85-3.87-.4-1.2,1-1.53,1.83-1.9,1.21-.54,1.77-2.21,3.42-1.92-.06.83.19,1.6-1.11,2-3.33,1-3.47,1.6-1.64,4.59A4.65,4.65,0,0,1,26.47,74.92Z"/><path class="cls-95" d="M33.19,64.36v2.87c-.84-.2-2.08.58-2.4-1h0c1-.43,1.22-1.76,2.4-1.92Z"/><path class="cls-108" d="M33.19,64.35c-.56.94-.71,2.39-2.4,1.92a8.72,8.72,0,0,0-.42-3.51c-1.08-2.7.88-5.06.94-7.66,0-.7.82-1.18,1.95-.38,2.1,1.48,4,2.88,3.32,5.84-.18.9,1.13,1.38.74,2.48-1.51.29-1.6-2.43-3.09-1.68C33.19,61.89,33.13,63.2,33.19,64.35Z"/><path class="cls-80" d="M39,36.51c-.16.85-.3,1.69-.49,2.53-.23,1.06-.43,2.08,1.1,2.3.43.06.76.27.72.75s-.43.55-.83.67c-1,.28-1.93.63-2.89,1V38.44C38.48,39.2,37.9,36.84,39,36.51Z"/><path class="cls-109" d="M34.64,13.48,37,13.36c.64,0,1-2,1.7-.52a3.64,3.64,0,0,1-.44,4.08c-1,1-1.75-.08-2.35-.73S34.47,14.66,34.64,13.48Z"/><path class="cls-75" d="M40.39,29.48c0,1.56-.7,2.34-2.35,2.26-1.15-.06-1.54-.51-1.49-1.59.1-1.94,2-1.53,3-2.07S40.29,28.89,40.39,29.48Z"/><path class="cls-110" d="M19.27,67.24c1.59.56.89,1.6.63,3C19,69.07,19.39,68.1,19.27,67.24Z"/></g></g></svg>