<svg xmlns="http://www.w3.org/2000/svg" viewBox="0 0 69.72 86.44"><defs><style>.cls-1{fill:#8e75a4;}.cls-2{fill:#8b70a6;}.cls-3{fill:#997db4;}.cls-4{fill:#9c82a2;}.cls-5{fill:#8d73a6;}.cls-6{fill:#a07ea2;}.cls-7{fill:#896da8;}.cls-8{fill:#886ba6;}.cls-9{fill:#9178a6;}.cls-10{fill:#8b6ea7;}.cls-11{fill:#977ab4;}.cls-12{fill:#d9ccdd;}.cls-13{fill:#8d74a9;}.cls-14{fill:#b18fa9;}.cls-15{fill:#937ca9;}.cls-16{fill:#cabbda;}.cls-17{fill:#957aac;}.cls-18{fill:#82679b;}.cls-19{fill:#e9deec;}.cls-20{fill:#9e799b;}.cls-21{fill:#d6c5e0;}.cls-22{fill:#e3d8e9;}.cls-23{fill:#e5d5e7;}.cls-24{fill:#bba4c1;}.cls-25{fill:#e3d6e6;}.cls-26{fill:#e2d6e4;}.cls-27{fill:#faf5f5;}.cls-28{fill:#ebe2ec;}.cls-29{fill:#f9f4f6;}.cls-30{fill:#937aa3;}.cls-31{fill:#e4d8e2;}.cls-32{fill:#f8f1f6;}.cls-33{fill:#b18e88;}.cls-34{fill:#85699a;}.cls-35{fill:#daa485;}.cls-36{fill:#9d85b0;}.cls-37{fill:#ac94c4;}.cls-38{fill:#e0d3e7;}.cls-39{fill:#e5d7e9;}.cls-40{fill:#f8edf2;}.cls-41{fill:#e5dae8;}.cls-42{fill:#b5a3ba;}.cls-43{fill:#f5f0f5;}.cls-44{fill:#e9dde7;}.cls-45{fill:#efe9f1;}.cls-46{fill:#f4eff4;}.cls-47{fill:#eae1e5;}.cls-48{fill:#e6dde6;}.cls-49{fill:#ebe2ee;}.cls-50{fill:#f7f3f3;}.cls-51{fill:#dad0e2;}.cls-52{fill:#a48cbc;}.cls-53{fill:#d1bfd2;}.cls-54{fill:#ddcfe5;}.cls-55{fill:#fcfae2;}.cls-56{fill:#fbf7d2;}.cls-57{fill:#987fab;}.cls-58{fill:#eee8f1;}.cls-59{fill:#f3efdd;}.cls-60{fill:#f1e9f1;}.cls-61{fill:#9479a8;}.cls-62{fill:#9274a9;}.cls-63{fill:#9376a9;}</style></defs><title>dress4</title><g id="Layer_2" data-name="Layer 2"><g id="Layer_1-2" data-name="Layer 1"><path class="cls-1" d="M65.41,35.55a1,1,0,0,0,.4,1c.17.07.25.17.22.29s0,.2-.1.2c.68,2.73,2.19,5.1,3.28,7.66,1,3.78,1,3.78-3.38,5.69-.63-.29-1,.25-1.45.48s-1.13.69-1.56-.17c.4-1.61,1.83-2.18,3.07-2.78,1.48-.73,1.87-1.32,1.2-3.07-1.22-3.12-2.74-6.12-3.66-9.35a4,4,0,0,1-.36-2.32,1,1,0,0,1,.78-.69c1.13.09.73,1.09,1,1.69A1.69,1.69,0,0,0,65.41,35.55Z"/><path class="cls-2" d="M17.34,44.21l.58-8.59c.6-.72-.59-2,.8-2.48,1,.87.71,2,.73,3.13.05,2,0,4,0,6-.07,2.38.12,4.76-.15,7.14-.75,3.83-.14,7.74-.73,11.6A118.85,118.85,0,0,0,17.46,77.1a6.35,6.35,0,0,1-.52,1.54,1.48,1.48,0,0,1-.82.79.56.56,0,0,1-.63-.29c.18-4.58-.29-9.19.48-13.75-.54-4.68.52-9.27.94-13.89C17.14,49.07,16.7,46.6,17.34,44.21Z"/><path class="cls-3" d="M27.38,85.13,26,85c-2.17-.59-4.62-.45-6.29-2.37a2.09,2.09,0,0,1,0-.34.59.59,0,0,1-.06-.69c1.39-1.19,2.74.49,4.12,0,2.18.85,4.85.3,6.65,2.29C29.67,85,28.35,84.62,27.38,85.13Z"/><path class="cls-4" d="M19.77,81.61l-.06.65c-1-.53-2.22-.55-3-1.51-.51-.37-1.09-.7-.85-1.5l.59-.59c.6,0,.85.46,1.23.76.67.62,1.68.79,2.18,1.63A.51.51,0,0,1,19.77,81.61Z"/><path class="cls-5" d="M22.22,1.34c.88-.22,1.33.13,1.78.94a4.36,4.36,0,0,0,3.37,2.63c3.33,2.3,8.7,2.16,10.51-.88.39-.64,1.22-1.15.59-2.08-.23-.61-1.33-1.39.31-1.64,1.57.87,3.34,1.26,4.92,2.11a3,3,0,0,1,.57.27A5.75,5.75,0,0,0,46.5,4.22a3.6,3.6,0,0,1,1.18.45A4.65,4.65,0,0,1,49,6.92l7.77,11.82c.52.64.65,1.55,1.41,2a1.79,1.79,0,0,1,.34.56,1.72,1.72,0,0,1,0,1,1,1,0,0,1-.78.57,1.33,1.33,0,0,1-.63-.2,36.57,36.57,0,0,1-2.29-3.21c-3-4.67-6.36-9.06-9.89-13.6-.47.9,0,1.48-.08,2.06a6,6,0,0,1-3.82,4.95c-2.49.78-4.7-.14-6.89-1.11C33,12.17,32.9,14,31.3,13.62a1.2,1.2,0,0,1-.37-.55,2.16,2.16,0,0,1,0-.67c1.29-3.15,1.29-3.15-2.05-4.56l-1.51-.68A11.4,11.4,0,0,1,21.9,3a1.86,1.86,0,0,1-.11-1.07A1,1,0,0,1,22.22,1.34Z"/><path class="cls-6" d="M58.17,20.36l0,.8a3,3,0,0,1-1.43-2.42C57.52,19,57.61,19.89,58.17,20.36Z"/><path class="cls-7" d="M63,50.92c.76.06,1.18-.58,1.77-.87s1-.64,1.11.32c-1,1.12-2,2.18-2.88,3.38a1.54,1.54,0,0,1-2.37.52c-4.1-6.39-6.53-13.52-9-20.62l-1-2.9a4,4,0,0,1-1.28-1.91,2.24,2.24,0,0,1-.1-.68,1.27,1.27,0,0,1,.44-.93,1.22,1.22,0,0,1,1,0A8.55,8.55,0,0,1,53,31.31c2.24,6.25,5.36,12.11,8,18.17A2.2,2.2,0,0,0,63,50.92Z"/><path class="cls-8" d="M53,44.15C55,50,56.38,56.05,58.53,61.87a75,75,0,0,1,4,14c.17.55-.16.63-.58.61C60.41,75,60.18,72.91,59.57,71a64.82,64.82,0,0,0-3.75-9.57c-1.2-4-2.84-7.9-4-11.94A9.31,9.31,0,0,1,51.31,47C51.55,45.85,51.31,44.45,53,44.15Z"/><path class="cls-9" d="M62,76.35l.5-.51c1,.94,0,2.48,1,3.4C63.09,81.77,60.73,82.09,59,83a31.58,31.58,0,0,1-5.16,1.61c-2.6.23-5,1.48-7.66,1.42-.22-.23-.59-.32-.66-.69a.73.73,0,0,1,.31-.55,15.07,15.07,0,0,1,1.86-.63c1.14-.41,2.34-.62,3.47-1.07a6.36,6.36,0,0,1,1-.35,13.27,13.27,0,0,0,4.59-.92C59.38,80.83,62.23,80.13,62,76.35Z"/><path class="cls-10" d="M49.51,28.35c0,.14,0,.28,0,.42.26,1,.22,2,.41,3,0,3.31,1.51,6.28,2,9.47,0,1.13.52,2.42-1,3-1.57-1.59-1.63-3.75-2-5.74s-.6-3.92-1-5.87a8.29,8.29,0,0,1-.07-3c.11-.62.21-1.25.88-1.54A.74.74,0,0,1,49.51,28.35Z"/><path class="cls-11" d="M51,44.19c.31-1,.62-2,.94-2.94.33,1,.67,1.93,1,2.9a4.53,4.53,0,0,0-1.06,3C50.4,46.51,50.24,45.49,51,44.19Z"/><path class="cls-12" d="M49.93,31.78c-.22-1-1.25-1.87-.41-3a3.25,3.25,0,0,1,1,2C50,31,50,31.39,49.93,31.78Z"/><path class="cls-13" d="M13.52,11.56,16,8.7a.73.73,0,0,1,1-.08c.54,1.06-.21,1.87-.54,2.76-1.91,4-4.18,7.78-5.93,11.84-.54.69-1.12,1.57-2.1.89S8.16,22.7,8.4,22a2.9,2.9,0,0,1,.29-.89Z"/><path class="cls-14" d="M8.69,21.08c0,.32,0,.64,0,1,0,.63-.93,1.43.12,1.84s.72-1.06,1.4-1.27a1.41,1.41,0,0,1,.37,1.52c-1.08,2.93-1.83,6-3.73,8.58-.78,0-1,.54-1.27,1.14s-.41,1.8-1.64,1.7c.17-1,.34-1.91.52-2.86A4.71,4.71,0,0,0,5.34,30a2.29,2.29,0,0,1-.45-1A3.3,3.3,0,0,1,6.36,26a13.75,13.75,0,0,0,1.91-4.89A1.94,1.94,0,0,1,8.69,21.08Z"/><path class="cls-15" d="M3.91,35.55c.92-.84,1.14-2,1.62-3.1.3-.67.67-.5.79.19.58.7.22,1.38-.08,2A56.73,56.73,0,0,0,2.48,45.46,5.91,5.91,0,0,0,6.1,52.75a1.41,1.41,0,0,0,2-1,19.23,19.23,0,0,0,1-3.89c.69-2.26,1.71-4.41,2.36-6.69a70.12,70.12,0,0,0,3.4-7.49c.15-.43.31-.85.46-1.28.67-1.57,1.59-3,2.12-4.64a17.71,17.71,0,0,0,.92-3.8c.59-1-.32-2.82,1.73-2.92a1.17,1.17,0,0,1,.51.59,5.26,5.26,0,0,1,.16,2,51.14,51.14,0,0,1-.08,8.21c-.43,2.73-.36,5.5-.77,8.22-.14.89.16,2-1.1,2.33-.34-3.05.47-6.16-.48-9.18-.76-.58-.1-1.34-.27-2-.06.75-.08,1.5-.77,2A159.78,159.78,0,0,0,9.06,54.22c-2.42.94-4.31,0-6-1.65-2.47-2.32-4-4.9-2.35-8.36.09-.32.18-.64.28-1C1.93,40.68,2.92,38.11,3.91,35.55Z"/><path class="cls-16" d="M17.32,33.11l.87-3c.08,1.43.13,2.23.17,3-.22.8.22,1.72-.44,2.45C17.65,34.8,18.21,33.78,17.32,33.11Z"/><path class="cls-17" d="M45.68,85.08v.4c-1.66.83-3.41.46-5.13.35a6.43,6.43,0,0,0-3,.11c-3.4-.12-6.83.27-10.15-.81.59-1.48,1.94-1,3-1.14.86-.76,1.85-.56,2.84-.42a26.72,26.72,0,0,0,7.82.75C42.6,84.55,44.31,83.79,45.68,85.08Z"/><path class="cls-18" d="M37.53,85.94c2.67-1,5.44-.17,8.15-.46l.49.5-2.41.46h-1Z"/><path class="cls-19" d="M63,50.92c-1.53,1.49-2,.07-2.4-1-2.69-6.25-5.95-12.26-8.28-18.68-.48-1.33-1.2-2.58-1.81-3.86-1-1.09-1.12-2.54-1.75-3.77-.31-.8-.15-1.7-.51-2.71-1.42.73-2.62,1.88-4.29,1.6a1.41,1.41,0,0,1-1-.84c-.12-.2-.24-.4-.38-.59-1.89-.47-2.45-1.81-2.32-3.59s-.42-3.5.62-5.1a5.79,5.79,0,0,0,3.41-4.69c1.18.32,1.36.38,1,1.52-.61,1.81.17,1.93,1.68,2.79,2.5,1.43,6.08,2.57,5.71,6.78-.05.55,1.57.42,1.81,1.41.26-.31,0-1.07.77-.93a9.29,9.29,0,0,1,2,3.35c.48,1.49-.81,1.07-1.34,1.05-1.25-.06-1.37.61-1.31,1.56.89.13,1.77.07,2.64.2.65.11,1.52.34,1.52.95,0,1.51.69.06.94.29a10.66,10.66,0,0,1,3.77,6.52c1,4.3,3.12,8.16,4.58,12.27.45,1.27.32,1.77-.83,2.38C65.61,48.66,64,49.37,63,50.92Z"/><path class="cls-6" d="M63.4,33.21l-3.71-6.35a6.17,6.17,0,0,1-2.16-4.17l.7-.6c.51-.18.64.25.86.53.71,1.07,1,2.4,1.95,3.31l0,0,.69,1.91a4.25,4.25,0,0,1,1.65,2.43c.18.79.37,1.58.55,2.37Z"/><path class="cls-20" d="M16.88,6.76c1-.09,1.09-1.2,1.85-1.54a.93.93,0,0,1,.71.67,3.57,3.57,0,0,1-2.54,2.8H16c.1-.3.19-.6.29-.9a1.32,1.32,0,0,1,.65-1Z"/><path class="cls-21" d="M33.13,84.07,30.4,84l-6.78-1.93c-1.27-.39-2.4-1.34-3.86-.93l-2.38-1.42c.09-.74-.55-1.27-.6-2-.43-9.21,1.86-18.26,1.63-27.46a2.62,2.62,0,0,1,.34-.87c.93,2.19-.21,4.5.3,6.32.17-1.35-.34-3.11.28-4.83,1.59.42,1,1.77,1,2.71.05,2.16-.2,4.26,2.48,5.25,1.07.4,1.32,1.71,1.41,2.86a2.19,2.19,0,0,0,1.9,2.13c1.3.31,1.75-.64,2-1.55.44-1.82,2.64-2.62,2.57-4.68a2.61,2.61,0,0,1,.44-1.36c1.88-1,4-1.58,5.82-2.67a1.93,1.93,0,0,1,1.85,0c2.45,1.23,5.3,2,6.37,5,.42,1.19,1.35,1.15,2.37.83a11.74,11.74,0,0,1,3-.61A7,7,0,0,1,56.3,61.4c1.89,2.68,2.55,5.88,3.7,8.88.75,2,1.34,4,2,6.07.58,3.49.31,4-3.18,5.29-2.21.8-4.38,1.93-6.88,1.52-.15-1.56,1.85-1.87,1.94-3.56-1.71.46-2.52,1.92-3.69,2.86-1.16.6-1.91,2.09-3.55,1.58-1.72-.72-3.77.55-5.33-1.1,1.53,1.66,3.5.54,5.22,1,.3.37.89.23,1.16.65-.59.49-1.34.34-2,.48L40.87,85c-1.22-.48-2.5-.07-3.73-.24-.3,0-.68-.15-.51-.56a.53.53,0,0,1,.64-.36C36.09,83.66,34.63,84.71,33.13,84.07Z"/><path class="cls-22" d="M19.75,50.92c-1.14,1.79,0,3.87-1,5.72V49.4l.09-7a50.16,50.16,0,0,0,.9-7.73c.08-1-.38-2.08.48-2.94,1.1,1.08.39,2.59.92,3.81.54,2.89-.36,5.69-.59,8.53-.14,1.87-.84,3.81.66,5.48C21.18,50.44,20.43,50.64,19.75,50.92Z"/><path class="cls-23" d="M16.78,77.73c.35.62,1.77.91.6,2l-.91-1C16.57,78.35,16.68,78,16.78,77.73Z"/><path class="cls-24" d="M19.76,81.13c.15-1.3.93-.61,1.52-.48a6.3,6.3,0,0,1,2.34,1.41c-1.36.55-2.5-.87-3.85-.44C19.77,81.45,19.76,81.29,19.76,81.13Z"/><path class="cls-25" d="M40.83,12.41c0,1.33,0,2.67.05,4,0,1.82-.71,4.13,2.51,4,.26,0,.15.52-.11.74-1-.48-2,.21-3,.12,1,.07,2-.52,3-.11a1.08,1.08,0,0,0,.61,1c-.22,1-1.11,1.09-1.83,1.27-4.67,1.18-9.42.9-14.17.63a1.57,1.57,0,0,1-.83-.42A.52.52,0,0,1,27,23c2.18-.54,4.3-1.3,6.37-2-1.11.23-2.35.36-2.75-1.21-.61-2.44.46-4,3.57-5.2.31.08-.24-.42-.16-.11s0,.18-.18.16c-1.1-.12-1-.84-.73-1.54a4.06,4.06,0,0,0,.54-2c.14-.32.49-.59.7-.34C36.13,12.84,38.49,12.58,40.83,12.41Z"/><path class="cls-26" d="M55.18,19.29c-1.1,1,.64,1.61.25,2.7-1.33-.84-1.7-3.74-4.72-1.38C51.62,19,53,18.25,52,16.94c-.67-.82-.88-2.05-2.27-2.2a1.66,1.66,0,0,1-1.09-.83,2.57,2.57,0,0,0-3.05-1.61c-1.23.15-2-.27-1.31-1.8.38-.85,1.26-1.86,0-2.78,0-.84-.79-1.62,0-3A87.81,87.81,0,0,1,55.18,19.29Z"/><path class="cls-27" d="M42.93,7.68a3.8,3.8,0,0,1-3.54,3.79,4,4,0,0,1-4.46-2,1.36,1.36,0,0,1,.6-2,11.22,11.22,0,0,0,4-3.67c.75-1.1,1.45-.8,2,.11A10.5,10.5,0,0,1,42.93,7.68Z"/><path class="cls-28" d="M33.66,11.07c1.22,1.1,0,2-.35,2.84.62.92,1.13-.47,1.79.17a3.45,3.45,0,0,1-2.45,1.77c-1.08.27-1.18,1-1.41,1.87-.83,3.24,1.26,3.17,3.49,3.1-2.49.9-4.59,2.63-7.34,2.21-2.64-2,.61-2,1-2.9,1.37-1.62-.16-3.14-.15-4.7,0-.22-.41-.46-1.39-.8-.67-.68-2-.8-1.83-2.19,1.36-.61,2.47.35,3.7.57a9.69,9.69,0,0,0,2.56.45C32.64,13.24,32.82,11.82,33.66,11.07Z"/><path class="cls-29" d="M27.44,6.76c1.48.3,2.73,1.35,4.29,1.37,1.95,0,1.62,1,.92,2.11-.45.75-.93,1.48-1.4,2.22-3.18,1.53-5.42-.33-7.67-2.14a1.1,1.1,0,0,1-.11-.69,6.55,6.55,0,0,1,3-3,.66.66,0,0,1,.43.12c.28.21.21.5.2.79C27.3,7.3,27.15,6.94,27.44,6.76Z"/><path class="cls-30" d="M23.46,9.76c2.29,1.8,4.7,3.24,7.79,2.7l0,.56c-.71.65-1.62.37-2.43.52-1.37,0-2.53-.73-3.8-1-2.17-.43-3.47-1.93-4.57-3.68a4.14,4.14,0,0,1-.31-1,3.86,3.86,0,0,0-.85-2l-.57-.59L21.26,2l.86-.12L22.18,3A15.06,15.06,0,0,0,23.46,9.76Z"/><path class="cls-31" d="M57.53,22.69a15.59,15.59,0,0,1,2.16,4.17c-.44.53-.88,1.06-1.34,1.63.16-2.57-1.13-3.21-4.71-2.37-.27-2.64,1.74-3,3.54-3.48Z"/><path class="cls-32" d="M23.46,9.76C21.18,7.87,21.29,5.53,22.18,3a28.43,28.43,0,0,0,5.26,3.72l-.21,1-.76-1a4.32,4.32,0,0,0-2.86,2.87Z"/><path class="cls-33" d="M43.67,2.51c0,.13.07.27.1.4-1.58-.71-3.48-.74-4.71-2.19l.41-.64A2.14,2.14,0,0,0,39.91,0l3.33,2.06A.58.58,0,0,1,43.67,2.51Z"/><path class="cls-34" d="M28.84,13.54c.66-.86,1.6-.42,2.43-.52v.44A2,2,0,0,1,28.84,13.54Z"/><path class="cls-33" d="M44.2,3c1.25-.05,1.72.79,2,1.79C45.41,4.37,44.5,4,44.2,3Z"/><path class="cls-35" d="M59.09,22.62l-.86-.53c0-.33,0-.66,0-1,.63,0,.84.48,1,1C59.14,22.28,59.12,22.45,59.09,22.62Z"/><path class="cls-36" d="M49.07,23.52a6.92,6.92,0,0,1,1.39,3.89l-.91,0c-.74-.66-.81-1.66-1.27-2.46A1.18,1.18,0,0,1,49.07,23.52Z"/><path class="cls-37" d="M48.58,25c1.13.47.91,1.5,1,2.41,0,.31,0,.61,0,.92l-.49,0a2.07,2.07,0,0,1-.44-.57C48.37,26.84,47.76,25.93,48.58,25Z"/><path class="cls-38" d="M56.3,61.4c-.67.77-1.54-.2-1.59-.27-1.83-2.89-4.43-2-6.76-1.21-2,.67-3,.6-3.66-1.63-.91-3-6.21-5-8.79-3.34a7.87,7.87,0,0,1-4.22,1.25l-.12-.31a10.73,10.73,0,0,0-.38-2.11c-.1-1.25-.47-2.75,1.18-3.25,1.39-.41,2.89-.53,3.73,1.16a.85.85,0,0,0,.71.58c.63-.25.41-.74.36-1.21-.55-4.86-1.32-9.77,2.87-13.64.17-.16.43-.45.35-.59-1.29-2.31.77-4.68-.15-7a3.14,3.14,0,0,1,.8-3.72c-1-.2-2,.16-2.73-.71,1.07-1.83,3.14-.7,4.54-1.55.76,0,1.26.7,2,.81,2.05.33,2.12,1.53,1.47,3.1-.49.41-.8.08-1.13-.25,1.2,1.31.64,3.81,3,4.36a1,1,0,0,1,.85.3c1,4,1,8.11,2.44,12a4.86,4.86,0,0,0,.88,2.93c1,4.43,2.75,8.59,4.11,12.89C56.14,60.46,56.2,60.93,56.3,61.4Z"/><path class="cls-39" d="M50,82.1A9,9,0,0,1,53.46,79a1.09,1.09,0,0,1,1.48.31c.39.57-.15.79-.47,1.13-.87.89-1.69,1.83-2.53,2.75l-.52.33A6.29,6.29,0,0,1,50,82.1Z"/><path class="cls-40" d="M50,82.1c1-.06,1.56.3,1.43,1.39a11.57,11.57,0,0,1-3.73,1.11c-.4-.11-.86-.12-1.08-.57h0C48,83.89,48.68,82.43,50,82.1Z"/><path class="cls-41" d="M48.57,32.2h-1c-1.43-1.09-2.38-2.39-1.94-4.32a2,2,0,0,0-1.85-2.81c-.59-.09-1-.35-1-1,1-1.59,2.7-1.6,4.27-1.71.71,0,1.07.74,1,1.39a34.52,34.52,0,0,0,.39,3.54c0,.71-.73.44-1,.77a3.29,3.29,0,0,1,1,1.8C48.53,30.62,48.55,31.41,48.57,32.2Z"/><path class="cls-42" d="M48.5,29.83c-.84-1.08-2.1-1.91-2.12-3.65,1.15.07,1,1.4,1.72,1.7a.62.62,0,0,1,.93,0c0,.15,0,.29,0,.44C48.44,28.68,48.57,29.29,48.5,29.83Z"/><path class="cls-43" d="M20.62,7.76l.15.8c.47,1,1.25,1.92-.51,2.61-1.11.44-.49,1.47-.27,2.3.69,2.6-.65,6.57-2.86,7.79-.56.31-.12.34-.09.46.73,2.29-.41,7-2.35,8.31-1.74,1.2-2.5,3-3.64,4.59a30.73,30.73,0,0,0-.62,7.27c.31-.6.35-1.47,1.27-1.67.63.18.74.53.36,1.05L9.66,48c-1,.3-1,1.34-1.6,2-.87,1-1.75,1.87-3.21,1.5a3.27,3.27,0,0,1-2.42-2.92c-.1-1-.39-2-.49-3C2.5,41,4.86,37,6.32,32.64c1.64-3.21,3.25-6.43,3.86-10,1.64-4,3.81-7.71,5.81-11.52C17.06,9.32,18.94,8.67,20.62,7.76Z"/><path class="cls-44" d="M20.62,7.76c-1,1.84-3.29,1.93-4.63,3.33.31-.8.61-1.6.91-2.4l2.41-2.88C21,5.59,20.21,7.09,20.62,7.76Z"/><path class="cls-45" d="M10.64,34.6c.81-1.87,1.43-3.94,3.52-4.8.9-.37.72-1.16,1.07-1.72,1.24-2,2.13-4.08,1.19-6.51-.26-.68-.43-1.62.83-.69.08.06.42-.13.57-.28.79-.73,1.85-6,1.64-7-.28-1.24-1.91-3,1.18-3.27,1-.08-.25-1.19.13-1.8A19.23,19.23,0,0,0,25,12.49c.15,1.13,1.91.67,1.92,1.94.21.73,1.14.37,1.44,1,1.23,1.66,1.69,3.4.48,5.28a1.55,1.55,0,0,1-1-1.24,4.44,4.44,0,0,0-3.16-3.51c-.34,1.08-.81,2.13-1.08,3.26-.45,1.83-1.59,2.43-3.37,1.66-.49-.44.18-1,0-1.3-1.16,1.22-1.26,2.89-1.44,4.53a5.81,5.81,0,0,1-1,3.86c-1.07.74-1.78,2.39-2,4.71l-.46,1c-.47.87-1,.56-1.45,0s-.73-.52-.94.15a2.77,2.77,0,0,1-.33.55,1.68,1.68,0,0,1-1.47.58A1.05,1.05,0,0,1,10.64,34.6Z"/><path class="cls-46" d="M20.25,20.68c2.47-.06,4.14-2.86,3.48-6.06,3,1,4.79,2.93,5.15,6.06-.61.71-3,.31-1.49,2.35l-.51.1c-1.37,1-2.71.14-4.06-.08a6.43,6.43,0,0,1-2.56-1.46c0-.11-.05-.23-.08-.35A.36.36,0,0,1,20.25,20.68Z"/><path class="cls-47" d="M1.94,45.57c.4.72,1.42.94.91,2.35-.35.95.63,2.54,2,3,1.87.65,2.37-1.08,3.28-2.07.41-.45.09-2.13,1.49-.84-.29,1.15-.55,2.32-.88,3.46-.72,2.56-1.35,2.79-3.68,1.38C1.84,50.89.71,48.26,1.94,45.57Z"/><path class="cls-48" d="M12.55,34.12a9.3,9.3,0,0,1,.16-1.18,4.15,4.15,0,0,1,.4-.82c1.09.09.78,2.11,2.27,1.52a46.11,46.11,0,0,1-3.32,7.63.93.93,0,0,0-.46-.91c-1.15-.12-.61-.74-.39-1.27A12.52,12.52,0,0,0,12.55,34.12Z"/><path class="cls-49" d="M20.71,35.56c-1-1.19-.23-2.6-.49-3.88,0-2.73,0-5.47,0-8.2a1.62,1.62,0,0,1,1.8-.16.73.73,0,0,1,.31.62c-.6,3.78-1,7.58-1.35,11.39Z"/><path class="cls-50" d="M15.84,32.65c-.6-2,.34-3.81,1.09-5.6.14-.33.42-.58.67-.23a3,3,0,0,1,.26,1.12C17.63,29.7,16.43,31,15.84,32.65Z"/><path class="cls-51" d="M20.25,20.68c0,.19,0,.38-.07.56-1.83.28-.31,2.18-1.36,2.84-.64-2.13.9-3.85,1.11-5.87C21,19,20.71,19.8,20.25,20.68Z"/><path class="cls-52" d="M22.12,23.64l-1.91-.16c0-.63,0-1.26.05-1.89a4,4,0,0,1,2.48.93C21.87,22.82,21.87,22.82,22.12,23.64Z"/><path class="cls-53" d="M33.13,84.07c1.6.1,3.09-.88,4.8-.41.06.61-.83.17-.85.71,1.2.54,2.66-.39,3.79.6A20.09,20.09,0,0,1,33.13,84.07Z"/><path class="cls-10" d="M22.12,23.64c-.87-1-.2-1.08.62-1.12,1.39.11,2.7.83,4.14.61a35.85,35.85,0,0,0,17-.94,5.06,5.06,0,0,0,3.33-1.56c.36-.41.77-.95,1.37-.71s.31,1,.38,1.47c.09.71.08,1.42.11,2.13-.17.5-.33,1-.5,1.5.16.95.31,1.9.46,2.85H48.1c0-.16,0-.32,0-.48-.38-5.1-.38-5.1-5.29-3.36-1.26,1.8-3.39.52-4.91,1.38A2.2,2.2,0,0,1,35.7,26c-3.44-.53-7-.1-10.39-.91-1-.28-2.22-.24-3-1.13C22.22,23.87,22.17,23.76,22.12,23.64Z"/><path class="cls-54" d="M19.75,50.92c.05-1,.75-1,1.45-1l.34,0a2.75,2.75,0,0,1,2.64,1.8c.82.9,1.05-.11,1.38-.47a2.35,2.35,0,0,1,2.82-.65c1.19.45,1,1.5.82,2.45-.39,2,.95,3.25,2.07,4.59,0,.94.3,1.87-1.08,2.44-1.07.44-1.32,1.93-1.68,3s-.76,2.13-2,1.62-3.06-.32-2.91-2.46-.52-3.44-2.74-3.65c-1.18-.11-1.09-.93-1.09-1.72C19.75,54.88,19.76,52.9,19.75,50.92Z"/><path class="cls-38" d="M31.27,57.64c-2.4-.8-3-2.57-2.6-4.86.13-.71.49-1.53-.53-1.76-.79-.18-1.76-.44-2.19.77-.27.78-.76,1.5-1.7,1.42-.79-.07-.6-.8-.65-1.33.92-1.86,3-3.15,2.72-5.62,0-.33.42-.7.88-.62s.55.69.78,1.08a31.62,31.62,0,0,1,3.3,9.48h0C31.28,56.68,31.28,57.16,31.27,57.64Z"/><path class="cls-53" d="M46.61,84a13.27,13.27,0,0,1-7.9-1c3.16-1,5.45.8,7.91,1Z"/><path class="cls-49" d="M21.2,50c-3.31-1.56-1.27-4.28-1.22-6.42.07-2.65.81-5.28.73-8h0l.29-.17a1.09,1.09,0,0,1,.51.38.86.86,0,0,1,.14.18c.12.2.26.23.3,0,.29-1.4-.33-3,.68-4.26,1.78.18.23,2.48,1.85,2.66,1.23-2.09,1.26-4.41,1.33-6.72.59-1,1.6-1.14,2.64-1.16a4.73,4.73,0,0,0,1.19,0c.64-.08,1.38-.15,1.7.53s-.39,1.08-.8,1.54c-2.52,2.84-3.37,6.25-3.41,9.94,0,2.79.18,5.58-.93,8.26-1,2.38-2.72,3.56-5,3.14Z"/><path class="cls-19" d="M43.27,21.16c-1.12.16-2.2.87-3.54.2,1.23-.79,2.35-1,3.55-.21Z"/><path class="cls-46" d="M28.4,15.4a4.74,4.74,0,0,1-1.73-.24c-.74-.43-.19-.63.29-.73,1,.1,2-.19,3.11.26C29.83,15.77,29,15.23,28.4,15.4Z"/><path class="cls-55" d="M23.61,9.63C22.9,7,24.74,6.94,26.47,6.76,25.59,7.79,24.9,9,23.61,9.63Z"/><path class="cls-56" d="M22.75,5.79c-.14-.19-.36-.38-.33-.5a.6.6,0,0,1,.45-.36c.33,0,.6.17.49.53C23.31,5.6,23,5.66,22.75,5.79Z"/><path class="cls-22" d="M21.2,50c2.87-.09,5.19-3.14,5.27-7.05.06-3.32-.37-6.71.83-9.89.8-2.09,1.37-4.46,3.8-5.62-.78-1.08-2,.74-2.7-.48-1.4-.43-2.92-.67-3.37-2.42l12.86.93c1.11,0,2.23,0,3.34.12a.88.88,0,0,1,.86.71c.09.6-.39.52-.78.6-1.72.32-1.57,1.51-1,2.58a3.61,3.61,0,0,1,.27,3.19c-.39,1.13-1.44,2.14.33,3.22.71.42-.16,1.48-.71,2-4.41,3.88-3.67,8.71-2.52,13.57.22.93.07,1.37-.71,1.68s-1.71.57-1.85-.63C34.87,50,32.89,50.7,32,51.15c-1.29.61-1.1,2.65-.29,3.26,1.68,1.27-.39,1.21-.38,1.79a2.51,2.51,0,0,1-1.45-2.75c.15-1.75-.15-3.35-1.77-4.39-1.18-.76-.21-2.11-1.13-3.18.54,3-1.33,4.56-3.33,6C23.48,50.38,21.83,50.81,21.2,50Z"/><path class="cls-57" d="M45.68,27.88q1,2.16,1.94,4.32c-.2.85-.57,1.3-1.11.24-1-2-1.91-4-2.93-6.09C45,26.24,45,27.51,45.68,27.88Z"/><path class="cls-58" d="M12.55,34.12c1.09-.45,1.23.41.86.89-1.11,1.44-.46,3.61-2.09,4.79a3,3,0,0,0,.28.56L10.43,42.8a10.25,10.25,0,0,1,.21-8.2h.48c.79.75,1.08,0,1.44-.48Z"/><path class="cls-59" d="M14.32,18.2a2,2,0,0,1,.4-2.64C15,16.61,15.27,17.4,14.32,18.2Z"/><path class="cls-48" d="M12.56,34.12c-.06.51.14,1.18-.6,1.33s-.77-.35-.84-.85Z"/><path class="cls-60" d="M25,24.5c1.23.47,1.85,2.14,3.68,1.59.5-.15,0,.59-.31.83L26,27.8c-.49,1.39-.14,2.95-.85,4.3a4.5,4.5,0,0,0-.64,2.7c0,.1,0,.21,0,.31-.82.72-1.3.44-1.4-.55a4.6,4.6,0,0,0-.5-2.3c0,1.28,0,2.57,0,3.85,0,.57.32,1.5-.55,1.58s-.85-.77-.87-1.42a2.94,2.94,0,0,1,.1-.89,9.14,9.14,0,0,0,.1-2.23,8.42,8.42,0,0,1-.1,2.23.86.86,0,0,1-.58.18,48.72,48.72,0,0,0,0-5.67c-.22-1.88,2.14-3.55.37-5.53-.09-.1.78-.28,1.22-.37A5.51,5.51,0,0,1,25,24.5Z"/><path class="cls-61" d="M24.55,32.2c1-1.29-.42-3.38,1.44-4.4a7.36,7.36,0,0,1-1.45,7.31v0A3.76,3.76,0,0,1,24.55,32.2Z"/><path class="cls-62" d="M32.84,36.43a14.55,14.55,0,0,1-1.05-6.7c0-.33.17-.68.53-.63s.63.32.66.54A15.69,15.69,0,0,1,32.84,36.43Z"/><path class="cls-63" d="M38.18,35.11c-1.27-1.69-1.34-3.29-1.61-4.81-.09-.47,0-1,.59-1.12s.72.48.81.94C38.29,31.62,38.84,33.11,38.18,35.11Z"/><path class="cls-49" d="M21.26,35.56V32.31C21.54,33.4,22,34.51,21.26,35.56Z"/><path class="cls-49" d="M24.55,32.2c0,1,0,1.93,0,2.89C23,34.11,24.28,33.16,24.55,32.2Z"/></g></g></svg>