<svg xmlns="http://www.w3.org/2000/svg" viewBox="0 0 53.35 114.35"><defs><style>.cls-1{fill:#696a63;}.cls-2{fill:#6c8766;}.cls-3{fill:#5b7974;}.cls-4{fill:#616761;}.cls-5{fill:#9d9e99;}.cls-6{fill:#8e8169;}.cls-7{fill:#5e7261;}.cls-8{fill:#607f5e;}.cls-9{fill:#627c64;}.cls-10{fill:#6e9769;}.cls-11{fill:#5a775e;}.cls-12{fill:#7b7f67;}.cls-13{fill:#5c6a5b;}.cls-14{fill:#7d8978;}.cls-15{fill:#597261;}.cls-16{fill:#689268;}.cls-17{fill:#868853;}.cls-18{fill:#5b7162;}.cls-19{fill:#777b63;}.cls-20{fill:#787770;}.cls-21{fill:#607666;}.cls-22{fill:#677469;}.cls-23{fill:#526d5f;}.cls-24{fill:#97bb82;}.cls-25{fill:#e96331;}.cls-26{fill:#649e62;}.cls-27{fill:#c79554;}.cls-28{fill:#6b815a;}.cls-29{fill:#8a8561;}.cls-30{fill:#719f54;}.cls-31{fill:#449b4c;}.cls-32{fill:#788772;}.cls-33{fill:#636563;}.cls-34{fill:#799e7a;}.cls-35{fill:#61975b;}.cls-36{fill:#8dbb87;}.cls-37{fill:#a9c18a;}.cls-38{fill:#8eb58b;}.cls-39{fill:#c68349;}.cls-40{fill:#e07648;}.cls-41{fill:#437463;}.cls-42{fill:#99b76d;}.cls-43{fill:#a0b280;}.cls-44{fill:#74a866;}.cls-45{fill:#7a8577;}.cls-46{fill:#aed0b7;}.cls-47{fill:#529d56;}.cls-48{fill:#5a7653;}.cls-49{fill:#77ac6d;}.cls-50{fill:#59a251;}.cls-51{fill:#63a75e;}.cls-52{fill:#648368;}.cls-53{fill:#80ab69;}.cls-54{fill:#77a456;}.cls-55{fill:#46a456;}.cls-56{fill:#7dab6d;}.cls-57{fill:#49a862;}.cls-58{fill:#64a25a;}.cls-59{fill:#4f6859;}.cls-60{fill:#6da35c;}.cls-61{fill:#78b371;}.cls-62{fill:#6baa63;}.cls-63{fill:#60a356;}.cls-64{fill:#576a5c;}.cls-65{fill:#4b6b5a;}.cls-66{fill:#5c885c;}.cls-67{fill:#64a557;}.cls-68{fill:#5eab61;}.cls-69{fill:#da6e33;}.cls-70{fill:#b68a46;}.cls-71{fill:#67a960;}.cls-72{fill:#569f57;}.cls-73{fill:#48a854;}.cls-74{fill:#b58841;}.cls-75{fill:#ec5c2e;}.cls-76{fill:#b3cdc0;}.cls-77{fill:#89b299;}.cls-78{fill:#63aa61;}.cls-79{fill:#4f7154;}.cls-80{fill:#65a95f;}.cls-81{fill:#6aa657;}.cls-82{fill:#87a563;}.cls-83{fill:#69a054;}.cls-84{fill:#25a458;}.cls-85{fill:#73a966;}.cls-86{fill:#61a95b;}.cls-87{fill:#5ea274;}.cls-88{fill:#7ba055;}.cls-89{fill:#4fa44e;}.cls-90{fill:#66aa61;}.cls-91{fill:#6fa85a;}.cls-92{fill:#60a658;}.cls-93{fill:#66a260;}.cls-94{fill:#0ba453;}.cls-95{fill:#43775a;}.cls-96{fill:#64a965;}.cls-97{fill:#8db57d;}.cls-98{fill:#429260;}.cls-99{fill:#9eab70;}.cls-100{fill:#9abb87;}.cls-101{fill:#e56a36;}.cls-102{fill:#79c099;}.cls-103{fill:#97a45d;}.cls-104{fill:#7db373;}.cls-105{fill:#409f65;}.cls-106{fill:#d27336;}.cls-107{fill:#ca7331;}.cls-108{fill:#59a356;}.cls-109{fill:#60a95d;}.cls-110{fill:#456e5b;}.cls-111{fill:#66a95f;}.cls-112{fill:#7caf5a;}.cls-113{fill:#59a064;}.cls-114{fill:#38a659;}.cls-115{fill:#41a652;}.cls-116{fill:#a9c698;}.cls-117{fill:#9ec497;}.cls-118{fill:#88b374;}.cls-119{fill:#ec6233;}.cls-120{fill:#98be89;}.cls-121{fill:#68ad6a;}.cls-122{fill:#d87637;}.cls-123{fill:#91aa66;}.cls-124{fill:#5a885e;}.cls-125{fill:#36a661;}.cls-126{fill:#48a553;}.cls-127{fill:#8c9f52;}.cls-128{fill:#83b174;}.cls-129{fill:#72aa63;}.cls-130{fill:#69aa61;}.cls-131{fill:#71ab62;}.cls-132{fill:#a0a25d;}.cls-133{fill:#8cbc82;}.cls-134{fill:#8fb36d;}.cls-135{fill:#90b479;}.cls-136{fill:#51a76b;}.cls-137{fill:#d07b35;}.cls-138{fill:#80a358;}.cls-139{fill:#74a760;}.cls-140{fill:#9f954e;}.cls-141{fill:#9aab62;}.cls-142{fill:#97984d;}.cls-143{fill:#60b072;}.cls-144{fill:#bb8a4a;}.cls-145{fill:#7aab62;}.cls-146{fill:#568059;}.cls-147{fill:#5eae66;}.cls-148{fill:#5c6c5b;}.cls-149{fill:#6ca669;}.cls-150{fill:#50936b;}.cls-151{fill:#de7234;}.cls-152{fill:#9aa462;}.cls-153{fill:#5aac49;}.cls-154{fill:#7bae74;}.cls-155{fill:#76a95c;}.cls-156{fill:#e06d34;}.cls-157{fill:#4fa44c;}.cls-158{fill:#39a654;}.cls-159{fill:#af9246;}.cls-160{fill:#1fa660;}.cls-161{fill:#89b279;}.cls-162{fill:#5da657;}.cls-163{fill:#d47437;}.cls-164{fill:#81af69;}.cls-165{fill:#3ca656;}.cls-166{fill:#de753e;}.cls-167{fill:#90b779;}.cls-168{fill:#8bb678;}.cls-169{fill:#87a95e;}.cls-170{fill:#72a84d;}.cls-171{fill:#6db174;}.cls-172{fill:#79b06a;}.cls-173{fill:#46b06f;}.cls-174{fill:#85af6a;}.cls-175{fill:#78a857;}.cls-176{fill:#b68c3f;}.cls-177{fill:#a0a153;}.cls-178{fill:#d37839;}.cls-179{fill:#4aac68;}.cls-180{fill:#77b06d;}.cls-181{fill:#dc6f34;}.cls-182{fill:#6db06f;}.cls-183{fill:#8b9d48;}.cls-184{fill:#3cad69;}.cls-185{fill:#77b272;}.cls-186{fill:#a9a25e;}.cls-187{fill:#e6602d;}.cls-188{fill:#80b37c;}.cls-189{fill:#5bad6c;}.cls-190{fill:#81ae68;}.cls-191{fill:#44a659;}.cls-192{fill:#a39e56;}.cls-193{fill:#bd8441;}.cls-194{fill:#9eb97b;}.cls-195{fill:#99bc82;}.cls-196{fill:#d07b3d;}.cls-197{fill:#8db477;}.cls-198{fill:#8aa75b;}.cls-199{fill:#df7132;}.cls-200{fill:#45b470;}.cls-201{fill:#e56932;}.cls-202{fill:#95bb82;}.cls-203{fill:#73b273;}.cls-204{fill:#7dac62;}.cls-205{fill:#b0ca96;}.cls-206{fill:#6cbd94;}.cls-207{fill:#8ca65f;}.cls-208{fill:#e27239;}.cls-209{fill:#d0793a;}.cls-210{fill:#7ca250;}.cls-211{fill:#31a24e;}.cls-212{fill:#7bb375;}.cls-213{fill:#b68d46;}.cls-214{fill:#98b776;}.cls-215{fill:#7dad5d;}.cls-216{fill:#49ad5f;}.cls-217{fill:#a1a659;}.cls-218{fill:#89c094;}.cls-219{fill:#7eae6c;}.cls-220{fill:#48b278;}.cls-221{fill:#69a963;}.cls-222{fill:#69a85a;}.cls-223{fill:#8fad60;}.cls-224{fill:#ee632d;}.cls-225{fill:#a0ba7e;}.cls-226{fill:#70b37b;}.cls-227{fill:#87b77c;}.cls-228{fill:#7db471;}.cls-229{fill:#df7135;}.cls-230{fill:#83aa61;}.cls-231{fill:#8fb16c;}.cls-232{fill:#59b372;}.cls-233{fill:#89ae63;}.cls-234{fill:#ef6225;}.cls-235{fill:#3da559;}.cls-236{fill:#46a95e;}.cls-237{fill:#62ba80;}.cls-238{fill:#c38340;}.cls-239{fill:#ec5f28;}.cls-240{fill:#7db06e;}.cls-241{fill:#db7339;}.cls-242{fill:#6bab66;}.cls-243{fill:#d97134;}.cls-244{fill:#658863;}.cls-245{fill:#6aa848;}.cls-246{fill:#3da757;}.cls-247{fill:#779d83;}.cls-248{fill:#47a164;}.cls-249{fill:#c88745;}.cls-250{fill:#56ae6a;}.cls-251{fill:#68a24c;}.cls-252{fill:#6bac63;}.cls-253{fill:#8aa45b;}.cls-254{fill:#5caa60;}.cls-255{fill:#71b576;}.cls-256{fill:#a8a260;}.cls-257{fill:#96bb7f;}.cls-258{fill:#74b980;}.cls-259{fill:#ada162;}.cls-260{fill:#7cb26f;}.cls-261{fill:#a2b770;}.cls-262{fill:#a1af66;}.cls-263{fill:#50b072;}.cls-264{fill:#e96333;}.cls-265{fill:#95ad71;}.cls-266{fill:#db773a;}.cls-267{fill:#a5ae6b;}.cls-268{fill:#8fbc82;}.cls-269{fill:#81b87c;}.cls-270{fill:#85b576;}.cls-271{fill:#8cb06c;}.cls-272{fill:#5ab072;}.cls-273{fill:#94c087;}.cls-274{fill:#8db87b;}.cls-275{fill:#95b77a;}.cls-276{fill:#e86732;}.cls-277{fill:#96bd80;}.cls-278{fill:#90ab67;}.cls-279{fill:#74b677;}.cls-280{fill:#77ae67;}.cls-281{fill:#85b16b;}.cls-282{fill:#da783e;}.cls-283{fill:#74b679;}.cls-284{fill:#61b173;}.cls-285{fill:#63ae6b;}.cls-286{fill:#53b374;}.cls-287{fill:#eb602f;}.cls-288{fill:#a2b678;}.cls-289{fill:#da8143;}.cls-290{fill:#e36935;}.cls-291{fill:#5da85e;}.cls-292{fill:#5da85d;}.cls-293{fill:#d57238;}.cls-294{fill:#5aa856;}.cls-295{fill:#83b980;}.cls-296{fill:#e16935;}.cls-297{fill:#84b576;}.cls-298{fill:#94b676;}.cls-299{fill:#a7b271;}.cls-300{fill:#92b677;}.cls-301{fill:#64b478;}.cls-302{fill:#ea6633;}.cls-303{fill:#6bb57a;}.cls-304{fill:#50ad6a;}.cls-305{fill:#79b06b;}.cls-306{fill:#e06e37;}.cls-307{fill:#5ead6a;}.cls-308{fill:#aaa35c;}.cls-309{fill:#d3783c;}.cls-310{fill:#8cb26e;}.cls-311{fill:#49b06b;}.cls-312{fill:#c48846;}.cls-313{fill:#d87236;}.cls-314{fill:#60ab63;}.cls-315{fill:#56ad67;}.cls-316{fill:#8ba65e;}.cls-317{fill:#5fae69;}.cls-318{fill:#49b076;}.cls-319{fill:#08ae72;}.cls-320{fill:#8cae6c;}.cls-321{fill:#dd6e35;}.cls-322{fill:#8ea861;}.cls-323{fill:#84b474;}.cls-324{fill:#39a85e;}.cls-325{fill:#6fb57a;}.cls-326{fill:#6fac63;}.cls-327{fill:#e16e35;}.cls-328{fill:#a3ab67;}.cls-329{fill:#63af6d;}.cls-330{fill:#56ab6e;}.cls-331{fill:#79b980;}.cls-332{fill:#df723a;}.cls-333{fill:#75b680;}.cls-334{fill:#66b580;}.cls-335{fill:#55b985;}.cls-336{fill:#9d884f;}.cls-337{fill:#6aaa5d;}.cls-338{fill:#57aa63;}.cls-339{fill:#aa964e;}.cls-340{fill:#4caa64;}.cls-341{fill:#66a95e;}.cls-342{fill:#7bb272;}.cls-343{fill:#53b271;}.cls-344{fill:#5ab078;}.cls-345{fill:#dc8443;}.cls-346{fill:#e46a2f;}.cls-347{fill:#a49b51;}.cls-348{fill:#76aa5d;}.cls-349{fill:#7ab16e;}.cls-350{fill:#90bb82;}.cls-351{fill:#9ca761;}.cls-352{fill:#5bb173;}.cls-353{fill:#5eb885;}.cls-354{fill:#54ac69;}.cls-355{fill:#64ae6b;}.cls-356{fill:#46ac6b;}.cls-357{fill:#cb793c;}.cls-358{fill:#93b06c;}.cls-359{fill:#a89f55;}.cls-360{fill:#88a85c;}.cls-361{fill:#7ca055;}.cls-362{fill:#dd7431;}.cls-363{fill:#d1783d;}.cls-364{fill:#5fb173;}</style></defs><title>dress2</title><g id="Layer_2" data-name="Layer 2"><g id="Layer_1-2" data-name="Layer 1"><path class="cls-1" d="M48.09,79.64c-.28,2,.72,3.78.57,5.73a.69.69,0,0,1-.62.14,3.9,3.9,0,0,1-1.37-3.13A10.37,10.37,0,0,0,46,77.76c-.49-1.12.47-2.1.39-3.26a1.57,1.57,0,0,1-.66.94.89.89,0,0,1-.68-.09,1.74,1.74,0,0,1-.35-.64,4.72,4.72,0,0,1,.15-2.58,2.89,2.89,0,0,1,.36-.67c.57-.66.58-2.28,2.14-1.26.48,2.65.28,5.35.64,8Z"/><path class="cls-2" d="M2.24,9.94,2,8.58c-1.09-1.22,0-2,.55-2.92a3.43,3.43,0,0,1,1.16-.91,2.29,2.29,0,0,1,1.77-.27c1,.64.6,1.39.17,2.14-.58.68-1.58.54-2.18,1.16A2,2,0,0,0,3,8.8C2.86,9.26,2.92,9.85,2.24,9.94Z"/><path class="cls-3" d="M2.24,9.94c.09-.46.19-.92.29-1.38.51,0,.7.33.85.72a1.65,1.65,0,0,1-.5,1.84L2,10.92Z"/><path class="cls-4" d="M48.08,85.39l.58,0L50.91,96c.65.7.3,1.6.48,2.39l0,.47L52,103a2.67,2.67,0,0,1,.15,1.4,1.1,1.1,0,0,1-1.06.81,1.35,1.35,0,0,1-.81-.63c-.36-1.27-.15-2.64-.66-3.89-.2-.64-.41-1.27-.59-1.91-.67-1.62-.12-3.65-1.65-5a3.1,3.1,0,0,1-.6-.89,23,23,0,0,0-.68-2.84,8.15,8.15,0,0,1-.3-5.16q.51-.93,1.2-.12C47.26,85.16,47.54,85.52,48.08,85.39Z"/><path class="cls-5" d="M11.67,0l.94.43c0,1.12,0,2.24,0,3.37-1,.22-.87-1-1.56-1.17a2.64,2.64,0,0,1-.95-.7c-.33-.57.67-.57.47-1.1Z"/><path class="cls-6" d="M10.53.83c.78.65-.52.63-.35,1.09A1.73,1.73,0,0,1,10,3.45a.87.87,0,0,1-.74.48A10.25,10.25,0,0,1,7.71,3a.93.93,0,0,1-.16-.88l.2-.24a2.82,2.82,0,0,0,1.73-.76Z"/><path class="cls-7" d="M7.68,113.25c-1.6-1.49-4.2-.66-5.67-2.45a.36.36,0,0,1,0-.6,2.72,2.72,0,0,1,2.06,0c.23,0,.46.07.69.12,2.3.5,2.3.5,2.08-2a5.51,5.51,0,0,1,.09-.71,26.21,26.21,0,0,0,.17-4.85v-1.15a16.86,16.86,0,0,1,.18-3.48c.31-.65.34-1.77,1.36-1.53.74.18.63,1.17.69,1.86.09,1.28-.3,2.71,1.16,3.55a6.54,6.54,0,0,1,.16,3.51c-.6,1.83-.15,3.73-.33,5.58-.07.84-.15,1.67-1.1,2C8.82,114.52,8.25,113.88,7.68,113.25Z"/><path class="cls-8" d="M31.37,113c-2.42.38-4.67,1.81-7.26,1.12-.5-.39-1.17,0-1.68-.41a1.11,1.11,0,0,1-.32-1.61,2.26,2.26,0,0,1,1-.43c2.23,0,4.21-1.25,6.44-1.2a11.36,11.36,0,0,1,3.14,1.6C33,113.48,31.84,112.77,31.37,113Z"/><path class="cls-9" d="M31.37,113l1.34-.74c.21-.56.31-1.2,1-1.42,2.6-.29,5.27-.19,7.65-1.53.78-.33,1.29.14,1.8.61a1.18,1.18,0,0,1,.29.58.9.9,0,0,1-.27.57c-.43.3-1,.36-1.42.62l-1.37.63A70,70,0,0,1,31.37,113Z"/><path class="cls-10" d="M9.21,113.11a3,3,0,0,0,.49-1.82,3.94,3.94,0,0,1,3.16-.62c2.07.21,3.7-.25,4.6-2.29,1.16.11,1.1,1.15,1.3,1.87A2.6,2.6,0,0,0,20,112c.24.33.48.66-.06.94-2.17-.44-4.27,1-6.46.26Z"/><path class="cls-11" d="M41.79,31.64l1.53,9.69a2.16,2.16,0,0,1,.43,1.7c-.25,1.35,1,2.42.72,3.77a.84.84,0,0,1-.87.48A1.29,1.29,0,0,1,43,47c-1-1.27-1.15-3-2-4.33a3.58,3.58,0,0,1-.23-1,8.79,8.79,0,0,0-.36-2.44c-.3-1.2,0-2.46-.44-3.65a9,9,0,0,1-.22-1.87c0-.38,0-.76,0-1.14,0-.88,0-1.76,0-2.63V28.73q0-1,0-1.92c0-.4,0-.8,0-1.2.08-.95-.16-2,.72-2.71,1.26.15,1.08,1.11,1.13,2C41.7,27.12,41.33,29.39,41.79,31.64Z"/><path class="cls-12" d="M41.37,4.32c.25.37.4.82.91.93,2.16,2-.37,3.53-.43,5.3-.36-.48-.58-1.48-1.41-.41A1.35,1.35,0,0,1,40,9.62a2.84,2.84,0,0,1-.17-1,3.58,3.58,0,0,1,.21-1.3c.35-1.4-1-1.17-1.61-1.7-.4-.19-.79-.38-1.2-.53a5.75,5.75,0,0,1-2-.81c-.6-.55-1.25-1.16-.17-1.9V2.23a1.74,1.74,0,0,1,.64-.08c.94.19,1.84.54,2.79.71.62.18,1.25.37,1.85.61A3.22,3.22,0,0,1,41.37,4.32Z"/><path class="cls-13" d="M40.43,10.06c.85-.5,0-1.75,1.09-2.28.12,1,.22,1.87.33,2.77a.63.63,0,0,1,0,.45c-.58,1.44.09,3-.39,4.42V20c.26.92.35,1.79-.84,2.14-.92-.43-.66-1.5-1.17-2.16a7.16,7.16,0,0,1-.07-4.2c.71-1.66.16-3.47.62-5.15A1.24,1.24,0,0,1,40.43,10.06Z"/><path class="cls-14" d="M40.42,22c.91-.39.85-1.26,1-2,.58,3.86.29,7.75.37,11.62-1-2-.25-4.13-.47-6.19-.1-.92.15-1.92-.89-2.48A.63.63,0,0,1,40.42,22Z"/><path class="cls-14" d="M41.42,15.42c0-1.49-.42-3,.39-4.42A12.9,12.9,0,0,1,41.42,15.42Z"/><path class="cls-15" d="M11.2,2.42c1.56-.64.39,1.44,1.37,1.38A81.87,81.87,0,0,0,15,13.42a2.28,2.28,0,0,1,.78,1.05,2.2,2.2,0,0,1,0,1c-.27.65-.4,1.42-1.35,1.42-1.5-.43-1.42-1.83-1.83-2.93a21.33,21.33,0,0,1-.6-3.15,6.61,6.61,0,0,0-.27-1.38,6.06,6.06,0,0,1-.18-1c0-1.8-.67-3.54-.59-5.35A.78.78,0,0,1,11.2,2.42Z"/><path class="cls-16" d="M15.44,14.4a1,1,0,0,1-.49-1l2.4-.12,4.32,1a.5.5,0,0,1-.16.72A9.41,9.41,0,0,1,15.44,14.4Z"/><path class="cls-17" d="M5.33,40.65l.51-.37c.73-.08.83.48,1,1a6.87,6.87,0,0,1,0,1.92,16.28,16.28,0,0,0-.47,3.68,3.08,3.08,0,0,1-.31,1.06c-.48.51-.83,1.25-1.75,1l0-.93a6.29,6.29,0,0,1,.24-3.81c.15-.48-.13-1,.31-1.47s.07-1,.27-1.39C5.22,41.1,5.27,40.88,5.33,40.65Z"/><path class="cls-18" d="M47.08,66.27c-.47,1.25,1,2.51,0,3.76-1.32,0-.59,1.52-1.4,1.91-.66-.38-.12-1.85-1.65-1.59-.59.1-.78-1-.77-1.75.55-2.23.2-4.49.3-6.73,0-.84-.05-1.67,0-2.51.06-2.41,0-4.83,0-7.24a3.8,3.8,0,0,1,.39-2c1.1-.91.8.62,1.31.75.44,4.22.87,8.45,1.34,12.67C46.7,64.44,46.51,65.42,47.08,66.27Z"/><path class="cls-19" d="M45.26,50.85l-1-1a2.06,2.06,0,0,1,0-2.86c-.11-1.35-1.28-2.46-.89-3.93.86,1.18.91,2.77,1.93,3.87a.87.87,0,0,1,.15,1A6.32,6.32,0,0,0,45.26,50.85Z"/><path class="cls-20" d="M51.87,104.63c0-.53.07-1.06.1-1.59a25.18,25.18,0,0,1,1.38,6.36l-.21,0h-.21c-.47.28-.86.26-1.1-.3C52.23,107.64,50.87,106.13,51.87,104.63Z"/><path class="cls-21" d="M5.87,37.92C4.78,33.35,5.73,28.66,5,24.07c-.2-1.33,0-2.72-.61-4-.13-.09-.18-.18-.15-.28s.07-.16.11-.16c-.5-2.84-1-5.68-1.49-8.52,0-.68.05-1.37.07-2.06.59-.19.94.13,1.25.56a17.83,17.83,0,0,1,.7,2.14c1,2.67,1.23,5.51,1.63,8.31a13.18,13.18,0,0,1,.27,4.64A4.7,4.7,0,0,0,7.19,29a8.76,8.76,0,0,1,.27,2.88c0,1.44.09,2.88,0,4.3C7.35,37,7.42,38.26,5.87,37.92Z"/><path class="cls-22" d="M.6,95a32.6,32.6,0,0,1,.45-6.24l0,0c.58-.53-.24-1.45.53-1.92A1.15,1.15,0,0,0,2,85.58c-1.3-2.65.25-5.28,0-7.91a10.78,10.78,0,0,1,1-4.28.59.59,0,0,1,.69,0A2.16,2.16,0,0,1,4.44,75c0,1-.36,2-.34,3,.13,3.67-.56,7.3-.65,11-.42,1-.18,2.21-.89,3.13C1.07,92.49,2.21,94.67.6,95Z"/><path class="cls-23" d="M48.08,85.39c-2,2.43-1-1.14-1.93-.94l-.28-.23c-.9-1.29-.53-2.82-.8-4.23,0-1.57-.47-3.2.56-4.65.24-.49.48-1,.92-1.92C47,77.7,46.86,81.65,48.08,85.39Z"/><path class="cls-24" d="M45.63,75.34l0,5.26c-.91.16-1.7-.54-2.61-.33A7,7,0,0,1,40.65,80a4.58,4.58,0,0,1-1.18-.81.92.92,0,0,1-.12-1.29.74.74,0,0,1,1.07-.12c.72.56.87.54,1-.44s1-.88,1.72-.64c.63,0,.62-.68,1-1a1.44,1.44,0,0,1,1.18-.38Z"/><path class="cls-25" d="M45.32,72l-.12,2.81c-1,.89-1.92.58-2.85-.09l-.26-.22a3.11,3.11,0,0,1-.44-.52,1.65,1.65,0,0,1-.14-.65,2.12,2.12,0,0,1,.15-.65,2.06,2.06,0,0,1,.83-1,3.65,3.65,0,0,1,2.31-.08A1.22,1.22,0,0,1,45.32,72Z"/><path class="cls-26" d="M43.75,69.07c.16,1.54.82,1.37,1.93.19v2.68l-.37,0-.1,0c-1-.68-2.54-.56-3.06-2-.17-.78.19-1.14.94-1.19A1.26,1.26,0,0,1,43.75,69.07Z"/><path class="cls-27" d="M42.26,73.93a2.83,2.83,0,0,0,2.94.86c0,.18,0,.35.07.53a1.27,1.27,0,0,1-1.06.55,1.56,1.56,0,0,1-1.58.22A1.36,1.36,0,0,1,42.26,73.93Z"/><path class="cls-28" d="M3.44,73.41l-.46,0,0-.49c.88-.79.3-2,.76-2.86a1,1,0,0,1,1.24-.14,2,2,0,0,1,.64,1.18A3.23,3.23,0,0,1,5,73,1.42,1.42,0,0,1,3.44,73.41Z"/><path class="cls-29" d="M5.22,4.66c0-.29.09-.58.13-.87h0a.92.92,0,0,1,.91-.21,3.46,3.46,0,0,0,1.5.56,3.61,3.61,0,0,1,2,.52,1,1,0,0,1,.09,1,1.51,1.51,0,0,1-.89.52c-.71.21-1.56-.1-2.12.61S6.55,8.49,5.5,8.67c-.8-.61-.66-1.3-.17-2C5.22,6,6.28,5.27,5.22,4.66Z"/><path class="cls-30" d="M5.33,6.65c.11.66-.21,1.43.49,1.94a.8.8,0,0,1,.2.89,1.08,1.08,0,0,1-.5.4,1.3,1.3,0,0,1-1.23-.24c.19-1.09-1.2-1.12-1.35-2C3.41,6.54,4.41,6.7,5.33,6.65Z"/><path class="cls-31" d="M2.94,7.65C4.89,7.1,5,8,4.43,9.5a.34.34,0,0,1-.53.08L3,9.06l-.42-.5A.81.81,0,0,1,2.94,7.65Z"/><path class="cls-32" d="M35.09,2.38c-.71,2.35,1.75,1.43,2.43,2.34a1.19,1.19,0,0,1-.59,1.2,2.08,2.08,0,0,1-1.6-.24C33.87,5,33.44,5.54,33.23,7a5.84,5.84,0,0,1-2.49,4.51.44.44,0,0,1,0-.61l1.05-7.57C32.47,1.57,33.79,2,35.09,2.38Z"/><path class="cls-33" d="M.6,95c.72-.7.32-1.59.45-2.39.09-.62.24-1.14,1-.46.87,1,.66,2.21.4,3.38-.62.48-.1,1-.08,1.55-.17,1.21-.14,2.43-.38,3.63a8,8,0,0,0-.06,4.21A5.79,5.79,0,0,1,2.08,106a3.85,3.85,0,0,1,0,.76A2.54,2.54,0,0,1,.83,109c-.87-.55-.23-1.45-.72-2A71.24,71.24,0,0,1,.6,95Z"/><path class="cls-34" d="M.11,107c.54.33.38,1,.58,1.53.83-.54.77-1.32.82-2,2.08,1,1.18,2.46.54,3.85a1.6,1.6,0,0,1,0,.44C.7,109.89-.35,108.84.11,107Z"/><path class="cls-35" d="M4.89,70.05H3.7c-.55-.9,0-2.07-.71-2.92A139.94,139.94,0,0,1,4,49.4l.37-.48c.54-.26.72-1,1.46-1a1,1,0,0,1,.3.51,3.69,3.69,0,0,0,.41,1.42,2.24,2.24,0,0,1-.31,1.78,3.32,3.32,0,0,1-.33.5,1.79,1.79,0,0,0-.22,1.91c1.43,1.72-.48,3.45,0,5.17-.42,1.07-.68,2.14.27,3.1.1.58-.37,1-.42,1.52a15,15,0,0,0,0,2c-.37,1.45,1.14,2.72.42,4.21A.8.8,0,0,1,4.89,70.05Z"/><path class="cls-36" d="M46.15,84.45a17.5,17.5,0,0,0,.48,5.72.93.93,0,0,1-.62.26c-2.93-.55-2.7-3-3-5.07A1.91,1.91,0,0,1,44.61,84a1.45,1.45,0,0,1,1.36.51Z"/><path class="cls-37" d="M49.49,98.84l.66,1.94a1.48,1.48,0,0,1-.56.4,8,8,0,0,1-2,.18,1.94,1.94,0,0,0-1.14.32c-.32.26-.56.62-1,.69a.78.78,0,0,1-.52-.34,2.51,2.51,0,0,1-.27-1.13c0-3.35.78-3.9,3.69-2.46A1.38,1.38,0,0,1,49.49,98.84Z"/><path class="cls-38" d="M49.49,98.84l-1.4,0c-.6-1.36-2.15-1.68-3-2.76.55-.85,2.12-.59,2.16-2a1.09,1.09,0,0,1,.36-.51C49.93,94.71,48.7,97.14,49.49,98.84Z"/><path class="cls-39" d="M49.49,100.84l.66-.06a6.21,6.21,0,0,1,.3,3.76,1.57,1.57,0,0,1-2.32,1.21,1,1,0,0,1-.27-1C49.08,103.75,48.84,102.12,49.49,100.84Z"/><path class="cls-40" d="M46.14,90.19l.49,0c.78.85.42,1.89.49,2.85a1.33,1.33,0,0,1-1.51.39C44.08,92.06,44.62,91,46.14,90.19Z"/><path class="cls-41" d="M51.87,104.63c-.4,1.44,1.38,2.82.09,4.27l0,0a3,3,0,0,1-1.31-3.25,1.08,1.08,0,0,1,.37-.55Z"/><path class="cls-42" d="M51,105.07c0,.16-.06.31-.09.47-.65,1.21-1.51,1.87-2.91,1.07a.9.9,0,0,1,.09-1.1c1,.21,1.65-.46,2.36-1Z"/><path class="cls-43" d="M45.66,93.18,47.12,93l.48.53c0,.17,0,.34,0,.51-.56.41-.86,1.53-1.8,1C45.09,94.6,45.33,93.82,45.66,93.18Z"/><path class="cls-44" d="M30.77,10.94l.06.6c1,.09.63,2.16,2.17,1.54a1.5,1.5,0,0,1,1,.13c1.46,2.35-.57,2.77-2,3.54a3.74,3.74,0,0,1-1.11.09,2.26,2.26,0,0,1-1-.31c-.31-.67.27-1.93-1.22-1.81a1,1,0,0,1-.45-.42C30.38,14.11,29.82,12,30.77,10.94Z"/><path class="cls-45" d="M28.3,14.3l.63.13c-.34.64-.83,1.24-.63,2.05a3.2,3.2,0,0,1-1.6.41c-.66,0-1.37.25-1.92-.34a4.6,4.6,0,0,1-.37-.53c-.64-1-2.09-.24-2.74-1.22v-.45l4.32,0A4.75,4.75,0,0,1,28.3,14.3Z"/><path class="cls-46" d="M11.2,2.42a3.12,3.12,0,0,0,0,.44c-.35.64-.8,1-1.5.47l.53-1.41A1,1,0,0,1,11.2,2.42Z"/><path class="cls-47" d="M9.65,3.33l1.5-.47a18.43,18.43,0,0,1,.9,5.75C10.19,8,10.68,5.91,9.64,4.78l-2.35,0c.08-1.37.82-1.49,1.87-1Z"/><path class="cls-48" d="M9.16,3.74c-.77,0-1.52.14-1.87,1a.8.8,0,0,1-1-.9A1.17,1.17,0,0,1,7.68,2.75C8.34,2.84,9.12,2.74,9.16,3.74Z"/><path class="cls-49" d="M10.19,105.54l-.06-3.81a1.37,1.37,0,0,1-.5-1c.35-2.42-.73-4.4-1.88-6.36a6.11,6.11,0,0,1-.51-2.07c.06-1.65-.87-2.41-2.28-2.82-.57-1,.18-1.51.65-2.15C7.13,87.09,7.87,88.48,9,89a1.78,1.78,0,0,1,1,1.7c-.14.69-.56,1.45,0,2.07,1.49,1.83,1.19,3.86.87,5.52-.28-1.85,1.55-3.21,2.34-5,.49-1.14,2.22.21,3-1,2.26-1.57,2,.78,2.69,1.71a2.28,2.28,0,0,1-.25,1.38,1.11,1.11,0,0,1-.75.55c-2.92.14-4.52,1.67-4.84,4.54-.11,1-1.42.69-1.6,1.57-.28,1.08.08,2.28-.56,3.3A.64.64,0,0,1,10.19,105.54Z"/><path class="cls-50" d="M10.19,105.54h.45l.23.22a1.88,1.88,0,0,1,.28,1.14c-.22,1.62.61.2.91.32a1.64,1.64,0,0,1,.62.09,3.38,3.38,0,0,0,3.83-.13,1.39,1.39,0,0,1,1.33.26.79.79,0,0,1,0,1c-.24,3-2.2,3.17-4.56,2.9a32.45,32.45,0,0,0-3.56-.06C9.93,109.38,9.13,107.38,10.19,105.54Z"/><path class="cls-51" d="M2.05,110.36c-.27-1.27.7-2.71-.54-3.85,0-.15,0-.31,0-.47.48-.42,0-1.15.47-1.57a1,1,0,0,1,1,0,4.14,4.14,0,0,0,2,1.85,8.4,8.4,0,0,0,2,2.68,4.47,4.47,0,0,1-3,1.78A3.32,3.32,0,0,0,2.05,110.36Z"/><path class="cls-52" d="M8.21,94c1.42,2.38,2.48,4.84,1.93,7.71-.54.29-1.3,1.71-1.41-.23-.08-1.5,0-3,0-4.52-.7,0-.46.81-1,.91a2.28,2.28,0,0,1-.62-1.81,3.34,3.34,0,0,1,.38-1.91A.52.52,0,0,1,8.21,94Z"/><path class="cls-53" d="M7.73,96l0,1.92-.06,3.8a1.36,1.36,0,0,1-1.33.42,1.87,1.87,0,0,1-.62-.3,1.3,1.3,0,0,1-.44-1.5c.56-1,.42-1.54-.61-2.26-1.22-.85,0-1.59.59-2.24A2,2,0,0,1,7.73,96Z"/><path class="cls-54" d="M5.8,101.74h.54c.34.49,1,.45,1.37,1-.17,1.75.55,3.57-.43,5.26-1.2.17-1.28-.68-1.24-1.47a2.48,2.48,0,0,0-.42-1.77,5.36,5.36,0,0,1-.47-1.93,1.19,1.19,0,0,1,.35-.91Z"/><path class="cls-55" d="M5.88,104.62c1.1.12,1,.91.76,1.59A1.19,1.19,0,0,0,7.28,108l0,.54a1.08,1.08,0,0,1-.45.4c-1.59,0-2.27-.75-1.9-2.34.11-.45.36-.84.48-1.29A1.09,1.09,0,0,1,5.88,104.62Z"/><path class="cls-56" d="M6.79,108.91l.45-.4a8.37,8.37,0,0,1,.41,1.35c.19,1.33-.13,2-1.67,1.34a8.63,8.63,0,0,0-2.06-.38Z"/><path class="cls-57" d="M7.71,102.71c-.67,0-1.37,0-1.37-1l1.36,0C7.7,102,7.71,102.37,7.71,102.71Z"/><path class="cls-58" d="M22.56,113.56l-1.35-.34-1-.54-.5-.44c-1.48-1.7-1.06-3.77-1.13-5.75.13-1.83-.28-3.69.33-5.49a1,1,0,0,1,1-.48c.93.36.89,1.49,1.61,2,.94,1.67,2.72,3,1.84,5.33a2.65,2.65,0,0,1-1.77,1c1.31,1,1.92,2,.52,3.4C22.29,112.71,22.42,113.14,22.56,113.56Z"/><path class="cls-59" d="M33.23,111.31c.2.52.32,1-.52,1-1-.39-2.26-.28-2.87-1.44a1.32,1.32,0,0,1,.44-.44c1.26-.54.69-1.49.52-2.35a8.74,8.74,0,0,1-.18-1.83c.17-1.44-.5-3.11,1.12-4.15,1.53.45.95,1.82,1.22,2.81C33.08,107,34.35,109.12,33.23,111.31Z"/><path class="cls-60" d="M30.31,110.82l-.47,0c-2.29.25-4.33,1.62-6.71,1.41-.56-.52-.22-1.16-.23-1.76.6-.89,1.7-.86,2.49-1.4a3,3,0,0,1,1.06-.2,2.63,2.63,0,0,1,1,.24c.79.74,2,.48,2.81,1.06A.47.47,0,0,1,30.31,110.82Z"/><path class="cls-61" d="M23.11,110.35c0,.64,0,1.28,0,1.92l-1,0c.85-2.1-.09-3-2.21-3.53l3.17-.8A1.68,1.68,0,0,1,23.11,110.35Z"/><path class="cls-62" d="M48.09,106.49c1.2.44,1.87-.67,2.82-.95.34,1.11.68,2.22,1,3.34-.67,2.59-2.63,2.66-4.74,2.44l-3.91-.56c0-.13,0-.27,0-.41-.92-1.78-1.53-3.6-.71-5.61,1-.29,2,1.08,3.11.17.25-.19.85.3.79.66C46.2,107.38,47.71,105.91,48.09,106.49Z"/><path class="cls-63" d="M33.23,111.31l-1-6.25c.46-.68.11-1.46.25-2.18s1,.38,1.24-.32c.91-.23.71-1.09.92-1.68s.21-1.27,1.07-1.29a1.84,1.84,0,0,1,1.18,1.23,2.75,2.75,0,0,1,0,1.77,10.21,10.21,0,0,0-.94,2.79,2.4,2.4,0,0,0-.48,2.27c0,.9-.61,2.18,1.2,2.1,1.61-.06,2.54-1.24,2.41-3.13a1.8,1.8,0,0,1,.42-1,1.42,1.42,0,0,1,.64-.37,1.31,1.31,0,0,1,1.06.27,3.83,3.83,0,0,1,.68,3.84c-1.48,2-3.77,1.59-5.8,1.91A17.81,17.81,0,0,1,33.23,111.31Z"/><path class="cls-64" d="M41.86,109.38c-.33-1.28-.67-2.56-1-3.84-.93-1.44-.92-3.11-1.13-4.73-.46-2.5-.36-5.07-.8-7.58,0-.86-.24-2,.9-2.16s1,1.15,1.32,1.92a4.38,4.38,0,0,1,.21.73A17.37,17.37,0,0,0,41.8,97a18.82,18.82,0,0,1,.67,3.64c-.17,1.34.68,2.61.28,4-.4,2,.79,3.78.52,5.73C42.52,110.43,42.33,109.7,41.86,109.38Z"/><path class="cls-65" d="M19.26,106.52a22.39,22.39,0,0,0,.47,5.72c-2.44-.35-1.25-2.54-1.91-3.79,0-.33,0-.66,0-1,0-.12,0-.23,0-.34a16.87,16.87,0,0,0-.32-3.75,3.42,3.42,0,0,1,.06-1.15c.3-1-.06-2.24,1.27-3.13C19.54,101.64,18.52,104.16,19.26,106.52Z"/><path class="cls-66" d="M10.65,111.91h6.1v.22H10.65Z"/><path class="cls-67" d="M44.2,47c0,1,0,1.91,0,2.86l0,1.92c-.42.84-.64,2-2,1.45-.37-1.35-1.74-2-2.33-3.15-.52-1.39-1.08-2.77-.16-4.21a7.27,7.27,0,0,0-.11-2.59,1.18,1.18,0,0,1,.4-1.17c.61-.23.91.36,1.36.54,1.37,1.12,1.17,2.93,1.91,4.33-.22.28-.57.38-.85.66a4.16,4.16,0,0,0,.86-.66Z"/><path class="cls-68" d="M40.39,35.47c.93,1.18.28,2.57.49,3.85A1.13,1.13,0,0,1,40,40.51c-.69,0-1.13-.51-1.68-.81a1.4,1.4,0,0,1-.54-.77,2.73,2.73,0,0,0-1.15-2.15,1.45,1.45,0,0,1-.34-.59,2,2,0,0,1,.78-1.9,2,2,0,0,1,1.75-.06,2.19,2.19,0,0,1,.86,1c.17.12,0,.73.54.34A1.88,1.88,0,0,1,40.39,35.47Z"/><path class="cls-69" d="M40.3,29.76c0,.94,0,1.87.05,2.8a1.91,1.91,0,0,1-.8.49,2.17,2.17,0,0,1-2.65-1,1.77,1.77,0,0,1,.17-2.38A2.37,2.37,0,0,1,40.3,29.76Z"/><path class="cls-70" d="M40.3,29.76c-1.11.29-3.06-1-3.14,1.16s1.8,1.7,3.19,1.64c0,.33,0,.67,0,1a1.85,1.85,0,0,1-1,.49,11.31,11.31,0,0,1-1.93-.12A2.69,2.69,0,0,1,36,31.71a8,8,0,0,1,0-1.95,1.79,1.79,0,0,1,.8-1.29,3.31,3.31,0,0,1,1.12-.29,6.37,6.37,0,0,1,1.51.06,1.6,1.6,0,0,1,.93.59Z"/><path class="cls-71" d="M39.43,28.72l-1.38-.07c-.86-1.33-1.93-2.65-.14-4.07a1.88,1.88,0,0,1,1.34,0c.59.23.69.9,1.11,1.27v1C39.75,27.31,40.07,28.26,39.43,28.72Z"/><path class="cls-72" d="M40.36,25.88a.89.89,0,0,1-.94-1,2.4,2.4,0,0,1-.53-1c-.12-.86-.12-1.73-.24-2.59a1.33,1.33,0,0,1,1.24-1.65c.82.65.36,1.59.53,2.38,0,.31,0,.62,0,.93C40.41,23.94,40.38,24.91,40.36,25.88Z"/><path class="cls-67" d="M39.9,40.29l1-1c.77.68.36,1.58.46,2.39-.6.51-.61-.94-1.23-.36C39.68,41.06,39.52,40.73,39.9,40.29Z"/><path class="cls-73" d="M39.47,33.61l.92,0v1.93a.64.64,0,0,1-.94,0,1,1,0,0,1-.49-1A1,1,0,0,1,39.47,33.61Z"/><path class="cls-72" d="M39.43,28.72c.09-.74-.31-1.71.93-1.88v2Z"/><path class="cls-68" d="M40.39,41.23c.65-.48.52.54,1,.48,0,.32,0,.64,0,1-.7.62-.71-.18-1-.47A.65.65,0,0,1,40.39,41.23Z"/><path class="cls-74" d="M40.43,10.06l0,.49a2.78,2.78,0,0,1-3,1.45c-2.3-.82-2-2.55-1.49-4.32a2.06,2.06,0,0,1,.84-1.27,7.42,7.42,0,0,1,1.79-.55c.8.16,1.76.11,1.86,1.29l-.09,1.51a1.06,1.06,0,0,1-.47,0c-.66-.11-1.55-.76-1.9.15s.47.68,1,.55a2.07,2.07,0,0,1,.7-.13,1.09,1.09,0,0,1,.65.23Z"/><path class="cls-75" d="M40.29,9.46a2.85,2.85,0,0,0-.9.26c-.7.46-1.39,1.37-2.18.32a1.62,1.62,0,0,1,.1-2A1.84,1.84,0,0,1,39.7,8c.26.15.41.47.62.71Z"/><path class="cls-76" d="M40.41,7.15l-2-1.09c-.4.14-.57,0-.53-.43s.28-.51.64-.41a4.24,4.24,0,0,1,2.33,1C41.61,6.79,41,7,40.41,7.15Z"/><path class="cls-77" d="M38.49,5.22c-.38.24-.56.5-.11.84-.19.72-.81.52-1.3.6a.63.63,0,0,1-.08-1,1.12,1.12,0,0,1,.52-1Z"/><path class="cls-78" d="M39.89,19.66c-1.51,1.29,0,2.91-.47,4.31-1,.6-1.49-.32-2.1-.81-1.3-1.54-.12-2.8.47-4.12.08-.55.09-1.1.13-1.65a4,4,0,0,1,.18-1,2.94,2.94,0,0,1,.68-1.12.82.82,0,0,1,.61-.11c.41.26.17.81.5,1.1A5.25,5.25,0,0,0,39.89,19.66Z"/><path class="cls-72" d="M39.89,16.29a1.1,1.1,0,0,1-.48-1A4.83,4.83,0,0,0,37.75,14c-1.89-.9-1.88-1-.21-2.46,1.17.28,1.89-.73,2.86-1C40.34,12.47,40.59,14.42,39.89,16.29Z"/><path class="cls-79" d="M21.67,14.8c1.11.4,2.68-.71,3.36,1-1.08.91-2.48.41-3.68.81a3.3,3.3,0,0,1-1.13,0c-1.21-.36-2.49-.11-3.72-.39a1.41,1.41,0,0,1-1.08-1c0-.29,0-.58,0-.88C17.55,14,19.58,14.93,21.67,14.8Z"/><path class="cls-80" d="M12.51,10.52l.5,3.37c-.55.32-1.14.11-1.72.12a3,3,0,0,1-1.73-.5,2.2,2.2,0,0,1-.44-1,7.39,7.39,0,0,1,0-1.88,1.59,1.59,0,0,1,.72-1.22,1.47,1.47,0,0,1,.69-.05A11,11,0,0,1,12.51,10.52Z"/><path class="cls-81" d="M15.42,15.28l1,.52c.42.46,1.06.09,1.53.39a3.61,3.61,0,0,1,.71,1.49,2.5,2.5,0,0,1,.07.67c-.11,1-1,1.4-1.7,1.88a1,1,0,0,1-.63,0c-.54-.45-.52-1.34-1.27-1.65a2.15,2.15,0,0,1-.87-.92.9.9,0,0,1,.24-.92Z"/><path class="cls-82" d="M14.48,16.75l0,1c.3.5.46,1-.08,1.44s-1.05,0-1.33-.44a4.51,4.51,0,0,0-1.36-1.22c-.57-1.32,0-2.71-.21-4.05l1.49.44C13.62,14.78,13.35,16.12,14.48,16.75Z"/><path class="cls-83" d="M10.7,9.6l-.51,0c-.44-1.26-1-2.51-.53-3.9,0-.29,0-.58,0-.87,1.74.69,1.39,2.69,2.41,3.83l0,.92A1,1,0,0,1,10.7,9.6Z"/><path class="cls-84" d="M10.7,9.6l1.38-.07a1,1,0,0,1,.43,1C11.82,10.39,10.77,11,10.7,9.6Z"/><path class="cls-85" d="M5.87,37.92c1.36-.35.85-1.47.91-2.31.08-1.32,0-2.64,0-4a.74.74,0,0,1,1.09.11,19.3,19.3,0,0,1,.92,6.79C8.56,39.94,8,41.08,6.36,41.2l-.52-.92Z"/><path class="cls-86" d="M6.36,41.2c.55-.84,1.85-1.1,1.87-2.36a1,1,0,0,1,1-.25,1.54,1.54,0,0,1,1.09,2,5.38,5.38,0,0,1-1.21,2.87C8,44.77,8.67,46.7,7.51,48a1.45,1.45,0,0,1-1.67.4c0-.15,0-.31,0-.47l0-1a6.11,6.11,0,0,0,.48-3.81Z"/><path class="cls-87" d="M6.33,43.18c.48,1.35,1.29,2.75-.48,3.81A8.82,8.82,0,0,1,6.33,43.18Z"/><path class="cls-88" d="M43.75,69.07h-.48a5.08,5.08,0,0,1-.91-3.49c.1-.74-.24-.95-.66-1.27.11-1.65-.87-2.76-1.92-3.84a1.09,1.09,0,0,1,.57-1.15c.88-.35,1.47.42,2.22.6,1.07.24,1.07,1.36,1.64,2C44.1,64.31,44.54,66.73,43.75,69.07Z"/><path class="cls-89" d="M44.21,61.92c-1.07.06-.8-1.56-1.87-1.5a3.08,3.08,0,0,1-.13-3.9,1.14,1.14,0,0,1,1.64.46c.36.8-.16,1.74.38,2.51Z"/><path class="cls-90" d="M44.23,59.49c-.79-.67-.36-1.6-.48-2.41-.68-.81-.73-1.9-1.22-2.8a2.1,2.1,0,0,1-.34-.5.59.59,0,0,1,.16-.55c.63-.47,1.25-.95,1.87-1.43Q44.24,55.66,44.23,59.49Z"/><path class="cls-91" d="M9.67,12.43l0,1c.43.74,0,1-.63,1.17a1.56,1.56,0,0,1-.63-.17c-.42-.2-.9-.55-.87.35a4.25,4.25,0,0,0,.23,1.62A3.31,3.31,0,0,1,8,19.12c-.57.63-1.15,1.25-2.13,1a69.32,69.32,0,0,0-1.49-8.6c.47-.62,1-1.24,1.4-1.87l.16-.16a9,9,0,0,1,2.83.87C9.39,10.9,9,11.91,9.67,12.43Z"/><path class="cls-92" d="M7.74,31.65H6.83c0-1,0-1.92,0-2.88a1.59,1.59,0,0,1-.23-1.84,1.31,1.31,0,0,1,1-.48,1.84,1.84,0,0,1,.73.19c1.22,1.39,3,2.49,2.61,4.77-.91.87-2-.64-2.88.17Z"/><path class="cls-93" d="M7.79,26.82l-1,0c-.56-.52-1-1.09-.51-1.89a19.67,19.67,0,0,0-.45-4.84c.65-.28,1.06-1,1.88-1,.7.43,1.27.93,1.14,1.86-.75.07-.69.54-.52,1.06A4,4,0,0,0,8,25.91,1.07,1.07,0,0,1,7.79,26.82Z"/><path class="cls-94" d="M5.77,9.64c.17,1.1.08,2-1.4,1.87-.61-.53-.44-1.26-.47-1.93l.53-.08Z"/><path class="cls-95" d="M6.31,25l.51,1.89,0,1.93C5,27.69,5.76,26.31,6.31,25Z"/><path class="cls-96" d="M4.87,72.91A3.18,3.18,0,0,1,5.34,71a.84.84,0,0,1,1-.16c.83.89.42,2.28,1.26,3.18a4,4,0,0,1,.52.93A2.23,2.23,0,0,1,8,76.68c-.5.47-1.14.86-.57,1.74a2.06,2.06,0,0,1,.17,1.83,1.22,1.22,0,0,1-.74.65c-1.36.16-1.66-1-2.2-1.79a6.38,6.38,0,0,0-1.18-1.36c.15-1,.31-1.92.47-2.89C4.67,74.4,4.31,73.44,4.87,72.91Z"/><path class="cls-97" d="M3.48,77.75c.73-.09,1.34,0,1.4.93a2.18,2.18,0,0,1,0,2.1,3.92,3.92,0,0,0-.3,2.14,42.75,42.75,0,0,1-.19,5.88,2.47,2.47,0,0,1-.74,1.37.74.74,0,0,1-.73.12.86.86,0,0,1,0-1.06Z"/><path class="cls-34" d="M2.94,89.23l0,1A3.73,3.73,0,0,1,3.6,93a7.61,7.61,0,0,1-.19,2c-.3.62-.59,1.26-1.49,1L2,92.14C3,91.38,2,90,2.94,89.23Z"/><path class="cls-98" d="M4.87,72.91c.07.83,1,2-.92,2l-.51-1.45Z"/><path class="cls-99" d="M46,84.48l-1.33-.08c.24-1.78-1.18-3.05-1.42-4.69a2.23,2.23,0,0,1,2.46.89C45.78,81.89,45.87,83.19,46,84.48Z"/><path class="cls-100" d="M42.26,73.93c.06.68-.11,1.42.57,1.91s1.05,1.07.44,1.88c-.49,0-.75-1.5-1.39-.36s1,.54,1.15,1.39c-1.35,1.2-2.24-.44-3.22-.82-1,1.15,1,.86.58,1.66a3.8,3.8,0,0,1-1.87,3.15c-.7,0-1-.52-1.22-1.08-.33-1,1-2.5-.91-3a1.23,1.23,0,0,1,.29-1.33c1.3-1.51.92-3.1.29-4.72-.22-.57-.94-.8-1-1.46.34-.61.35-1.41,1-1.86a2.4,2.4,0,0,1,1.3-.1,3.69,3.69,0,0,1,.65.18c1.21.55,2.67.57,3.62,1.69a1,1,0,0,1-.14,1c-.06.37-.09.76-.52.92,0,.32,0,.62,0,.93a1.75,1.75,0,0,1-.74.49,1.56,1.56,0,0,0,.74-.49A1.89,1.89,0,0,1,42.26,73.93Z"/><path class="cls-101" d="M38.49,82.54a11.62,11.62,0,0,1,1.9-3l2.83.12c1.45,1.27,2.6,2.62,1.42,4.69-.69,0-.87.7-1.33,1a1.78,1.78,0,0,1-.93.43,2.09,2.09,0,0,1-1-.19,5.16,5.16,0,0,0-2.06-.87,1.83,1.83,0,0,1-.79-.64C38.26,83.63,38,83.1,38.49,82.54Z"/><path class="cls-102" d="M43.27,77.72a3.26,3.26,0,0,0-.44-1.88l1.38,0C44.16,76.62,44.54,77.58,43.27,77.72Z"/><path class="cls-103" d="M42.36,72l-.06-1a.62.62,0,0,1-.17-.76l.21-.19c.87.76,2.34.61,2.87,1.89Z"/><path class="cls-104" d="M41.78,64.23c.79,0,1.95-.42,1.31,1.15-.51,1.27.63,2.43.18,3.68-.61,0-1,.32-.93,1l0,0c-1-1.54-3.37-2.66-1.49-5-.1-.07-.2,0-.29,0-.77.11-1.62.36-1.5-.94A2.24,2.24,0,0,1,41.78,64.23Z"/><path class="cls-105" d="M6.42,71.06,5.34,71a1,1,0,0,1-.45-1h.94C6.65,69.57,7,70,7,70.75A.43.43,0,0,1,6.42,71.06Z"/><path class="cls-106" d="M8.73,10.56c-1-.1-2.25.28-2.8-1.08,0-.29-.08-.59-.11-.89A3.58,3.58,0,0,1,6.33,6.2c.78-.23,1.72.33,2.39-.46l.94-.09c.32,1.28,1.18,2.49.53,3.9-.45.19-.49.6-.54,1A.65.65,0,0,1,8.73,10.56Z"/><path class="cls-107" d="M8.72,5.74c-.5,1.68-1.51.74-2.39.46C7,5.37,7.91,5.82,8.72,5.74Z"/><path class="cls-108" d="M37,5.7c0,.32,0,.64.08,1l-.58,1a3.05,3.05,0,0,0-.64,2.66c.12.84-.09,1.4-1,1.54a1.61,1.61,0,0,1-1.3-.61A1.47,1.47,0,0,1,33.32,10c-.06,0,.23-.16-.06-.08-.11.49,0,1-.16,1.46-.24.64.2,1.42-.39,2-.13.77-.71,1.41-1,.4-.24-.78-1.05-1.35-.87-2.25.5-2.08,2.36-3.7,1.93-6.1-.14-.82.3-1,1.17-.86C35.07,4.72,35.9,5.54,37,5.7Z"/><path class="cls-109" d="M1.92,95.94a1.43,1.43,0,0,0,1-1,1.33,1.33,0,0,1,1.34-.23c.8.3.8,1.08,1,1.72,0,.48-1.72,1-.08,1.38,1.8.38,2.11.93.69,2.16-.65.57,0,1.18-.16,1.76l0,.05a2.71,2.71,0,0,1-2.23.37,2.06,2.06,0,0,1-1.3-1.26c-.23-1.32.15-2.69-.25-4C1.92,96.58,1.45,96.29,1.92,95.94Z"/><path class="cls-34" d="M2,96.89a3.53,3.53,0,0,1,.48,3.89c0,1.29.54,2.64-.46,3.81,0,.52.08,1.1-.48,1.45l-.05-1a9.51,9.51,0,0,1,0-4.31C1.61,99.46,1.31,98.12,2,96.89Z"/><path class="cls-110" d="M1.5,100.76l0,4.31A4.51,4.51,0,0,1,1.5,100.76Z"/><path class="cls-111" d="M6.76,71A.84.84,0,0,0,5.83,70c-.22-1.46-1.44-2.7-1-4.33.92-.79.71-1.59,0-2.39l1-1a2.79,2.79,0,0,1-.49-2.85c-.16-1.11-.85-2.17.29-3.31.72-.71-.22-1.4-.73-2,.71-.65.39-1.69.93-2.4h0A3.32,3.32,0,0,1,8.46,52a1.89,1.89,0,0,1-.11,1.91c-1.07,1.42.09,2.46.62,3.6a1.92,1.92,0,0,1,0,1,3.39,3.39,0,0,1-.62,1.19,3.85,3.85,0,0,0-1.11,3.52c.19.52.64.88.84,1.39a3.64,3.64,0,0,1,0,2.35c-.62.79-.9,1.55.26,2.13a1.2,1.2,0,0,1,0,1C8,70.54,7.65,71.25,6.76,71Z"/><path class="cls-112" d="M8.22,51.8c-.8,1.46-1.59,0-2.38,0,.15-.64.31-1.27.47-1.9a1.67,1.67,0,0,1,1.79-.6A1.61,1.61,0,0,1,8.22,51.8Z"/><path class="cls-113" d="M7.75,49.4c-.34.56-.92.46-1.44.5-1.25-.14-.74-.85-.47-1.48L7.27,48c.69-.13.75.35.81.84A1.15,1.15,0,0,1,7.75,49.4Z"/><path class="cls-114" d="M4.87,63.32A1.31,1.31,0,0,1,6.15,64.7c0,.79-.62,1-1.28,1Z"/><path class="cls-115" d="M5.33,59.5a7.71,7.71,0,0,1,.49,2.85C4.12,61.66,4.21,60.67,5.33,59.5Z"/><path class="cls-113" d="M5.82,51.81c.4,1.07.5,2-.93,2.4C5.07,53.36,4.28,52.13,5.82,51.81Z"/><path class="cls-116" d="M42.23,85.54l1.08-.11c.7,1.73.68,3.9,2.83,4.76-.43,1-1.64,1.78-.48,3,.09.5.17,1,.27,1.55.81.49.64-1.64,1.65-.67.38,2.12-1.13,1.85-2.39,1.9-1,.5-1,.5-2.16-1.32-.48-.94-1.63-.93-2.3-1.6a1,1,0,0,1,.32-1.19c1.94-1.3.37-2.82.26-4.25C40,85.72,40,85.72,42.23,85.54Z"/><path class="cls-117" d="M43.27,94.52c.66,0,.94.4,1,1s.53.53,1,.4c1.46.44,2.72,1.1,2.9,2.85-.14.55-.33,1.28-.88.32-.3-.52-.31-1.45-1.08-1.15-.45.17-.77,1-.88,1.66a14.54,14.54,0,0,0,0,2.56c.36.49.52,1-.09,1.38s-.78-.27-1.08-.6a4.22,4.22,0,0,1-.34-.67c-1-1.77-1.06-3.76-1.23-5.72A2,2,0,0,1,43.27,94.52Z"/><path class="cls-118" d="M42.75,104.62a7.41,7.41,0,0,1-.86-3.83.79.79,0,0,1,1,.77c.09.93.8.91,1.39,1.12h0c.33.29.11,1.09.72,1,.88-.1.2-1.12.71-1.5,0-.38.09-.74.5-.92,1,.82.13,2.63,1.72,3.09.06.09.12.18.17.27,0,.29,0,.58,0,.87v1c-.15,0-.3.09-.46.12-.89.15-.1,1.9-1.28,1.53-.94-.3,0-1.26-.19-1.91s-.37-1.44-.9-.77C43.43,107.76,43.43,105.32,42.75,104.62Z"/><path class="cls-119" d="M49.49,100.84c.07,1.48.87,3.22-1.44,3.8l0,0c-2-1.3-2.1-1.63-.91-3.78Z"/><path class="cls-39" d="M47.12,100.84c-1,1.57,0,2.66.91,3.78-3,.2-1.54-2.06-1.87-3.34A.84.84,0,0,1,47.12,100.84Z"/><path class="cls-120" d="M45.66,102.2c-.11.63.35,1.58-.6,1.77s-.76-.72-.83-1.29c.24.18.56.57.71.52.43-.17.19-.65.26-1Z"/><path class="cls-121" d="M33.69,11l1,.49c.84,1.24,2.23,2.12,2.46,3.76a8.17,8.17,0,0,1,.08,1.11c0,.63,0,1.27,0,1.9a11.76,11.76,0,0,1,0,1.19c-.18.81-.12,1.88-1.33,1.89s-1.24-1-1.52-1.8a2.64,2.64,0,0,1-.13-.68c-.09.18,0,.37,0,.56-.09.9.09,2-1.44,1.74a4.82,4.82,0,0,1-1-4.88c.84-.83,3.28-.59,1.92-2.88a4.32,4.32,0,0,1-.33-1.88A1,1,0,0,1,33.69,11Z"/><path class="cls-122" d="M29.81,16.23l.91.08c1.54,1.39.92,2.91.29,4.44-1.34,1.19-2.49,1.09-3.4-.52a3.13,3.13,0,0,1,1.11-4A.87.87,0,0,1,29.81,16.23Z"/><path class="cls-123" d="M30.67,20.52c.28-1.4,1-2.8,0-4.21l1,0c.32,1.6.64,3.2,1,4.8l-.23.23a1.41,1.41,0,0,1-1.25,0A1.2,1.2,0,0,1,30.67,20.52Z"/><path class="cls-124" d="M29.81,16.23l-.91.07a.31.31,0,0,1-.5-.05c-.37-.25-1.08-.52-1.07-.73.08-.89,1.19-.51,1.59-1.09.73,0,1.7-.37,2,.55C31.17,15.67,30.1,15.72,29.81,16.23Z"/><path class="cls-125" d="M33.67,11.49c0,.63.47,1.27,0,1.91h-1c.16-.64-.86-1.3,0-1.94A.64.64,0,0,1,33.67,11.49Z"/><path class="cls-126" d="M18.23,17.68c-.5-.36-.38-.9-.39-1.39a2.81,2.81,0,0,1,2.37,0h1a6.43,6.43,0,0,1,3.81,0c.49.54,1-.17,1.45,0a2.28,2.28,0,0,1,.81,2.61c-.64,1-2.42-.11-2.79,1.46a1.62,1.62,0,0,1-.47.43c-1.68.33-1.21-1.88-2.45-2.07a5.15,5.15,0,0,1-.56-.33C20.21,17.63,19.15,17.94,18.23,17.68Z"/><path class="cls-127" d="M26.93,19.14c.22-1-.28-1.9-.47-2.85l1.94,0,.5.05a4.72,4.72,0,0,0-1,3.8l-.3.2C26.81,20.27,26.51,19.92,26.93,19.14Z"/><path class="cls-16" d="M25,16.3l-3.81,0c1.19-.92,2.56-.28,3.83-.43C25,16,25,16.15,25,16.3Z"/><path class="cls-128" d="M16.39,92.61c.11,1-.24,1.35-1.19.94-1.55-.66-2.09-.11-2.23,1.51s-2.7,2.09-2.07,4.25c-.24-2.49-.05-5-2-6.93-.71-.73.42-1.16.75-1.72.74-.62,0-1.11-.16-1.64-.35-1.29-.75-2.58.39-3.72a1.57,1.57,0,0,1,1.31-.25,1.51,1.51,0,0,1,.56.33c.39.79.88,1.36,1.86.83.73.16,1.38.56,2.13.67.58.21,1,.56.81,1.25-.33.64-1,.63-1.57.86a1.67,1.67,0,0,0-1.19,1.77c.05,1,.91.85,1.53,1A1.66,1.66,0,0,1,16.39,92.61Z"/><path class="cls-129" d="M16.39,92.61l-1-.27a5,5,0,0,0,.89-3.9c.08-.69-.2-1.08-.91-1.13a.81.81,0,0,1-.22-.82,6.47,6.47,0,0,1,.9-1.13c.11-.17.22-.32.33-.48.23-.48-.08-.7-.44-.89a1.56,1.56,0,0,1-.74-.6c-.18-1.23.83-1.49,1.58-2,.8,0,1.24.51,1.69,1,.39,1.1.7,2.24,1.82,2.88.84,2.36,2.06,4.6,2.36,7.14a1.08,1.08,0,0,1-.32,1.2c-.91.94-2.17,0-3.15.59a.89.89,0,0,1-.89-.21C17.73,93.51,18.16,91.6,16.39,92.61Z"/><path class="cls-130" d="M11.11,101.72c-.06-.34-.4-1,.2-.87,1.21.2,1.26-.35,1.26-1.28,0-1.15,1.2-2,1-3.24,2.12,1.21.9-1.33,2-1.57.44,1.71,1.73.66,2.76.71a.7.7,0,0,1,.12.62c-.5.72-.4,1.7-1,2.38-1.75.53-2.76,1.87-3.77,3.28.64.61,1.45.22,2,.64a1,1,0,0,1,.38,1.28,2.1,2.1,0,0,1-1.4.56,11.16,11.16,0,0,1-1.53,0A3.55,3.55,0,0,1,12,104C11,103.52,11.15,102.58,11.11,101.72Z"/><path class="cls-131" d="M4.39,80.59a3.29,3.29,0,0,0,.49-1.91c.82.47.66,1.9,1.92,1.93.08,1.35,1.58,2.3,1.06,3.81a2.31,2.31,0,0,1-1.7.88c-1.24.22-.31.71-.14,1.11a.81.81,0,0,1-.17.89c.05.83-.66,1.26-1,1.89a.62.62,0,0,1-.93,0q0-3.34,0-6.69C4.55,82,4.36,81.26,4.39,80.59Z"/><path class="cls-132" d="M3.94,89.21l.93,0c2.06-.19,3,.69,2.91,2.81a7.3,7.3,0,0,0,.43,2l-.46.07c-.69,1.84-2,1.58-3.35.93L3,95c0-.64,0-1.28,0-1.92.64-.46,1.19,0,1.77.18s1.25,0,1.47-.73a1.14,1.14,0,0,0-.89-1.6c-.66-.17-1.43-.06-1.91-.72A1,1,0,0,1,3.94,89.21Z"/><path class="cls-133" d="M10.16,85.41c-1,1.57-.27,3.09.27,4.53.43,1.15-.39.6-.74.72,0-.73-.69-.92-1-1.42A3.42,3.42,0,0,1,7.53,85.9,1.7,1.7,0,0,1,8.73,85,1.43,1.43,0,0,1,10.16,85.41Z"/><path class="cls-134" d="M7.76,85.87c.32,1.12.63,2.25.94,3.37C7.47,89,6.9,87.8,5.84,87.3c0-.31,0-.63,0-1A.94.94,0,0,1,5.89,85l1.86-.51.22.23A1.13,1.13,0,0,1,7.76,85.87Z"/><path class="cls-135" d="M11.11,101.72c.77.42.21,1.51,1,1.93a1.81,1.81,0,0,1-.42,2,.85.85,0,0,1-1-.12v0C10.86,104.28,10.14,102.89,11.11,101.72Z"/><path class="cls-136" d="M18.31,96c0-.16,0-.32,0-.49,0-.47,0-.94,0-1.41l.94,0c1.15,1.24,1.21,2.3-.5,3.08C18.14,96.92,17.91,96.57,18.31,96Z"/><path class="cls-137" d="M14.47,103.63l1.42.07a1.84,1.84,0,0,1,.93,1.18,2.84,2.84,0,0,1-.38,2.6c-1.27,1.41-2.64,1.41-3.88,0a.89.89,0,0,1-.19-1c.5-.66,1-1.31,2-1.1.23.14.26.4.36.63.15-.21,0-.4-.05-.59C14.31,104.85,13.91,104.29,14.47,103.63Z"/><path class="cls-138" d="M16.44,107.48l0-2.93c.26-.48.6-.71,1.15-.46a1.28,1.28,0,0,1,.49.92c-.09.82.23,1.68-.22,2.47h-1.4Z"/><path class="cls-139" d="M10.64,105.56h.95a1.44,1.44,0,0,1,.53,1.86c-.9.28.18,1.41-.92,1.75C10.19,108.13,10.79,106.76,10.64,105.56Z"/><path class="cls-140" d="M12.12,107.42c-.18-.62-.36-1.24-.53-1.86a3.14,3.14,0,0,1,.48-1.91h1c.63,1.08,0,2-.48,2.84l0,1Z"/><path class="cls-141" d="M2,104.59c.19-1.27-.46-2.63.46-3.81l1,1a1,1,0,0,1,.25.81c-.15.57-.26,1.15-.45,1.7a.7.7,0,0,1-.43.38Z"/><path class="cls-142" d="M5.76,105.53c.08.66-.26,1-.87,1-1.45.18-2.09-.5-2-1.91l.12-.07c.76-.23,1.3.47,2,.47A1.81,1.81,0,0,1,5.76,105.53Z"/><path class="cls-143" d="M4.4,95c1.18-.08,2.48.28,3.35-.93,0,.63,0,1.25,0,1.88-.8.1-1.71-.32-2.38.47Z"/><path class="cls-144" d="M3.4,102.61c0-.28.05-.56.07-.84l2.29,0-.33.83-.27.29A1.33,1.33,0,0,1,3.4,102.61Z"/><path class="cls-144" d="M5.76,105.53H4.84a2.45,2.45,0,0,1,.46-2.79l.13-.11c.59.57.33,1.32.44,2C5.84,104.92,5.8,105.22,5.76,105.53Z"/><path class="cls-145" d="M18.78,96.93c1.17-.8.75-1.86.49-2.89.1-.77.55-1.27,1.19-.69s1.13.18,1.69.22a1.77,1.77,0,0,1,.58,1.29,12.35,12.35,0,0,1,.07,2.43c-.27.52-.86.66-1.24,1-.74.64-.57,1.79-1.34,2.42h-.93C19.3,99.46,17.75,98.36,18.78,96.93Z"/><path class="cls-145" d="M23.11,110.35V108c.55-2.19-1.39-3.48-1.92-5.29a.76.76,0,0,1-.13-.93c1.69-.78,1.65,1.47,2.82,1.61a1.32,1.32,0,0,1,.5.84,2.94,2.94,0,0,1-.05.66,3.72,3.72,0,0,0,.1,2.44c.3.74,1.14,1.2,1.1,2.11C25,110.5,24.05,110.36,23.11,110.35Z"/><path class="cls-146" d="M18.78,96.93l.51,3.83,0,5.76c-1.1-2.14,0-4.49-.66-6.75-.7.91.19,2.15-.75,2.92a4.12,4.12,0,0,1-.5-4.33c.24-.83-.61-2.1,1-2.4A1,1,0,0,0,18.78,96.93Z"/><path class="cls-147" d="M21.21,101.73l0,.94c-1.29-.14-.87-1.16-1-1.91a3.3,3.3,0,0,1,1-2.9c.8-.45,1.15,0,1.36.69.18.91-.46,1.57-.75,2.33A3.4,3.4,0,0,1,21.21,101.73Z"/><path class="cls-148" d="M31.77,102.18c-.83,1.38-.37,2.91-.52,4.37a.53.53,0,0,1-.62,0,2.08,2.08,0,0,1-.36-1c0-.33-.05-.67-.06-1A20.36,20.36,0,0,0,30,102a6.12,6.12,0,0,0-.21-1.65,9.61,9.61,0,0,1-.18-1.86,26.14,26.14,0,0,1,.17-4.51c.08-.38.29-.82.74-.82s.58.45.71.82c.27.84.09,1.74.38,2.58.19.63.32,1.28.52,1.9a8.07,8.07,0,0,1,.19,2.35A2,2,0,0,1,31.77,102.18Z"/><path class="cls-149" d="M30.8,106.49c.15,0,.3,0,.45.06l0,1.89a.76.76,0,0,1-.29,1.22,5.8,5.8,0,0,1-2.71-.23,1.2,1.2,0,0,1,.35-1.55A4.07,4.07,0,0,0,30.8,106.49Z"/><path class="cls-150" d="M31.77,102.18l0-1.44c.78-.1,1,.5,1.2,1a1,1,0,0,1-.28,1c-.1.78.3,1.67-.46,2.32C32.08,104.1,32.57,103,31.77,102.18Z"/><path class="cls-8" d="M30.8,109.42a1.07,1.07,0,0,0,.48-1c.62,1.18,1.08,2.3-1,2.38,0-.15,0-.3,0-.45A1,1,0,0,1,30.8,109.42Z"/><path class="cls-151" d="M25.53,109.4c-.42-.68-1.47-.83-1.5-1.83a4.65,4.65,0,0,1,0-3h0a2.72,2.72,0,0,1,2.83-.34c2.34,2.1,2.18,3.74-.5,5.09Z"/><path class="cls-152" d="M26.39,109.34c1.66-1.41,2.39-2.93.54-4.74-.44-.33-.78-.68-.2-1.18,1.23-.5,2,.08,2.48,1.14a4,4,0,0,1,.25,1.14,2.8,2.8,0,0,1-.58,2.23c-.17.48-.35,1-.53,1.44a.61.61,0,0,1-.9.07Z"/><path class="cls-153" d="M27.45,109.44l.9-.07a4.73,4.73,0,0,1,2.45,0,1,1,0,0,1-.47,1C29.38,110,28,111.12,27.45,109.44Z"/><path class="cls-154" d="M39.42,93.08c.84,2.5.42,5.13.88,7.67-2.72,1.2-1.71-1.15-2.08-2.19,0-.32-.52.1-.22,0,.12,0,.18,0,.17.16-.1,1,.18,2.37-1.62,2.06l-1-1c-.24-.49.05-.83.31-1.18,1-.67.6-1.9,1.12-2.77a3.22,3.22,0,0,0,1.05-2.21C38.35,93.06,38.7,92.59,39.42,93.08Z"/><path class="cls-155" d="M36.55,100.77c1.67-.35.64-2.33,1.78-3,1.65.33-.89,3.43,2,3,.11,1.6.8,3.14.55,4.79h-1c-1-1.11-1.88-2.35-3.34-2.93Z"/><path class="cls-156" d="M36.54,102.61c2.45-.55,3,1,3.34,2.93l-.05,0c-.56.5-1.25.8-1.83,1.27a2.23,2.23,0,0,1-.66.22,2.85,2.85,0,0,1-1.09,0c-.63-.26-1.15-.58-.68-1.39C35.8,104.55,35.05,103.21,36.54,102.61Z"/><path class="cls-157" d="M37.55,106.6a3,3,0,0,1,.4-.12,1.16,1.16,0,0,1,1.46,0c-.13.84,1.53,1.41.06,2.59s-2.91,1.83-4.48,1.13.38-1.74.11-2.67a1.16,1.16,0,0,1,1.23-.31C37.05,107.66,37.47,107.51,37.55,106.6Z"/><path class="cls-155" d="M36.06,98.86l-.48.94a26.33,26.33,0,0,1-1,3.08c-.38.84-.57-.26-.91-.21a9.06,9.06,0,0,1-.94-.92c-.32-.33-.64-.67-1-1l-.06-2.32a2,2,0,0,1-.18-1.33c1.68-.42.92,1.35,1.74,1.8.5-.16.66-.89,1.25-1.1C35.38,97.67,35.76,98.21,36.06,98.86Z"/><path class="cls-158" d="M36.54,107.47H35.1c-.63-.83-.85-1.56.47-1.91a1.2,1.2,0,0,0,1,1A.6.6,0,0,1,36.54,107.47Z"/><path class="cls-159" d="M39.41,106.43l-1.46,0c.2-1.15,1.14-.87,1.88-1Z"/><path class="cls-160" d="M32.74,101.75c.64,0,.93.3.94.92-.22,1.53-.66-.17-1,.07Z"/><path class="cls-161" d="M39.42,93.08a.88.88,0,0,0-1,1,1.45,1.45,0,0,1-2.13-.15,2.29,2.29,0,0,1-.3-.72,7.55,7.55,0,0,1-.06-1.9,4.74,4.74,0,0,1,.21-1.06,14.2,14.2,0,0,0,1-3.26,9.12,9.12,0,0,0,.93-2.44c.14-.31.33-.57.74-.52l.59.44c.48.65,1.46.3,1.94,1l.88.13c-1.51.26-1,1-.42,1.77-.44,1.57,0,3.22-.46,4.79a.94.94,0,0,0-.44,1,.35.35,0,0,1-.07.52c-.78-.52-.23-1.5-.76-2.21C39.08,91.67,39.65,92.54,39.42,93.08Z"/><path class="cls-120" d="M40.84,93.59c0-.18,0-.35.07-.52,1,.14,2.47-.49,2.36,1.45-.19,2.23-.44,4.45.71,6.55a4.65,4.65,0,0,1,.25,1.61c-1.89.74-1.63-1.18-2.34-1.89-.2-1.29-.39-2.57-.59-3.86-.52-1.06.22-2.3-.46-3.34Z"/><path class="cls-154" d="M40.84,93.59c.95,1,.36,2.22.46,3.35C40.51,95.91,41,94.7,40.84,93.59Z"/><path class="cls-162" d="M17.35,98.36c.13,1.45.68,2.85.5,4.33v1a.67.67,0,0,1,0,1l-.46-.44c-.8-.3-.64-1.79-1.9-1.5H12.36c.57-2,2.37-2.73,3.17-4.27C16,97.45,16.73,98.15,17.35,98.36Z"/><path class="cls-146" d="M17.81,104.61c0-.32,0-.65,0-1a3.68,3.68,0,0,1,0,3.84Z"/><path class="cls-163" d="M42.35,53.23a1.18,1.18,0,0,0-.1.42,1.33,1.33,0,0,1-.64.51,5,5,0,0,1-3.67-.28A3.32,3.32,0,0,1,38.13,50a1.63,1.63,0,0,1,.7-.45,1.66,1.66,0,0,1,1.55.37C41,51,43,51.37,42.35,53.23Z"/><path class="cls-164" d="M40.38,49.87H38.94a3.39,3.39,0,0,1-1.28-2.64c.06-.44.18-.87.27-1.31a2.81,2.81,0,0,1,.34-.93,1.17,1.17,0,0,1,1.14-.5c.58.36.42,1.18,1,1.55C39.28,47.31,40,48.59,40.38,49.87Z"/><path class="cls-164" d="M40.39,41.23v1a1,1,0,0,0-.48.95,1.17,1.17,0,0,1-.54,1.1c-.7,0-.92-.56-1.2-1a4.11,4.11,0,0,1-.21-.68c-.06-1.08-.34-2.19.42-3.16.8-.17,1,.6,1.52.93A1,1,0,0,0,40.39,41.23Z"/><path class="cls-68" d="M39.41,44.11a1,1,0,0,1,.5-1c.87.85.33,1.92.48,2.88-1,0-1-.74-1-1.43-.13-.11-.18-.21-.13-.32S39.37,44.11,39.41,44.11Z"/><path class="cls-165" d="M43.28,47c0,.85-.77,1.07-1.25,1.66-.46-1.39.19-1.7,1.24-1.66Z"/><path class="cls-166" d="M38.38,39.36l.08,3.78c-2.45,1.36-3.14,1.21-4.38-.91-.06-1.2-.36-2.48,1-3.27a8.42,8.42,0,0,1,2.23-.34.92.92,0,0,1,.67.25Z"/><path class="cls-167" d="M36.52,31.65a3,3,0,0,0,1,1.94c.3.53-.22.67-.45.95-.17.63-.33,1.26-.49,1.89a1.56,1.56,0,0,1-1,.54,2.8,2.8,0,0,1-1.88-.33c-1.42-2.57,1-3.45,2.15-4.89A.73.73,0,0,1,36.52,31.65Z"/><path class="cls-168" d="M35.58,36.44h1l.46,0c.35.58.91,1.09.67,1.88-.56.65-1.54.34-2.13.93-1.59.53-.67,1.94-1,2.91-.78.08-.94-.56-1.23-1.05-.06-1.08-1.86-2.17,0-3.24C34,37.32,35.4,37.81,35.58,36.44Z"/><path class="cls-169" d="M37.05,34.54l.45-.95,2,0-.52.92Z"/><path class="cls-170" d="M39.44,35.49h.94c0,.58.16,1.22-.38,1.71C39.14,36.76,39.55,36.05,39.44,35.49Z"/><path class="cls-171" d="M37.52,38.35c-.17-.63-.33-1.27-.5-1.9.83.6,1.76,1.17.93,2.42a2,2,0,0,0-.43,0,.27.27,0,0,1-.13-.32C37.43,38.4,37.48,38.35,37.52,38.35Z"/><path class="cls-172" d="M38,24.91c-.58,1-1.07,2,.32,2.91.61.38-.25.52-.27.83l-1,.11c-.5-.43-1.2-.34-1.74-.67a1,1,0,0,1-.39-.45.84.84,0,0,1,.37-.95c-.17-.27-.57-.09-.73-.37-.7-1.41-.49-2.58,1.16-2.84C36.61,23.33,38.26,22.8,38,24.91Z"/><path class="cls-172" d="M36.52,31.65h-.44l-.27-.12a4.44,4.44,0,0,1-1.09-1,4.85,4.85,0,0,1-.85-2.09c.17-.68.49-1.08,1.23-.62l0,0c.65.48.89,1.26,1.39,1.86Z"/><path class="cls-173" d="M36.51,29.67c-1.16-.11-1.22-1-1.39-1.86.75.07,1.77-.37,1.9,1Z"/><path class="cls-174" d="M35.1,27.79a.89.89,0,0,0-1,1,.77.77,0,0,1-1,.06,1.44,1.44,0,0,1-.43-.91c-.06-1.3,1-2.68-.27-3.9a2.73,2.73,0,0,1-.29-1,4,4,0,0,1,0-1,1.86,1.86,0,0,1,.5-.91h0c1.19-.15.9-1.08,1-1.84s-.25-1.85.43-2.91c.81,1,.39,2,.52,2.83-.07,2.05,1,3.21,2.88,3.83l1.91,1v.94H38c-.79-1.65-2.16-1.17-3.11-.51a1.13,1.13,0,0,0,.68,2c.13.1.18.21.14.31s-.08.17-.12.17A1,1,0,0,0,35.1,27.79Z"/><path class="cls-175" d="M36.55,15.32c.24-1.71-2.53-1.93-1.91-3.83,1.15-.15.89-1.05,1-1.79s-.36-1.81.91-2.07c-.24,1.46-1.19,3.1,1,3.91-.3.85-1.53,2,.75,1.9,1.37-.06,1.09,1,1.12,1.86l-.46,0A1.73,1.73,0,0,1,36.55,15.32Z"/><path class="cls-172" d="M37.51,23c-3.06,0-3.09-.09-2.88-3.83.84.31,0,2,1.33,1.76.92-.16.47-1.14.59-1.76a1.37,1.37,0,0,1,1.89,0C38,20.38,36.5,21.39,37.51,23Z"/><path class="cls-176" d="M36.57,18.19v-2a1.34,1.34,0,0,1,1.88.05v1C38.09,18.11,37.78,19.06,36.57,18.19Z"/><path class="cls-72" d="M38.44,16.29l-1.88-.05c0-.3,0-.61,0-.92H39A1,1,0,0,1,38.44,16.29Z"/><path class="cls-177" d="M36.57,18.19c.88.21,1.36-.41,1.87-.93v1.87l-1.89,0Z"/><path class="cls-16" d="M20.21,16.26l-2.37,0c-.53,0-1.1.08-1.44-.49C17.66,16,19,15.35,20.21,16.26Z"/><path class="cls-178" d="M8.77,14.38a.9.9,0,0,0,.93-.93h1.82c1.32,1.24,1,2.51.07,3.79l-.29.28a2.05,2.05,0,0,1-2.94-1.28A1.63,1.63,0,0,1,8.77,14.38Z"/><path class="cls-179" d="M8.73,10.56h.92c0,.62,0,1.25,0,1.88C8.37,12.3,8.79,11.31,8.73,10.56Z"/><path class="cls-180" d="M16.33,20.09l.45,0c.9.61.71,2,1.8,2.49,2.54,1.69,3.9-.32,5.45-1.74,1.25.2,1.47,1.42,2.18,2.16.35.82.55,1.73-.26,2.29-.59.42-1.09-.25-1.53-.65-.42.31-.06-1.4-.78-.29a14.87,14.87,0,0,0-2.29,2.33,1.86,1.86,0,0,1-2.88.49,1,1,0,0,1-.32-.56c-.06-.5,1.13-1.26-.45-1.46-1-.13-1.12-1.39-1.61-2.16-.26-.33-.59-.6-.85-.93a2,2,0,0,1-.18-1.57,1.42,1.42,0,0,1,.36-.54A.77.77,0,0,1,16.33,20.09Z"/><path class="cls-181" d="M18.36,23.06c-1.5-.46-1.41-1.78-1.58-2.95,0-1,1.58-.84,1.52-1.93a2.36,2.36,0,0,1,2.87.05.86.86,0,0,0,.39,0c1.29.93,1.26,2,.52,3.32C21.22,23.06,20.08,23.75,18.36,23.06Z"/><path class="cls-182" d="M11.59,17.24c.8.06,1.78-.25,1.94,1,.05.35.18.88.68.5.23-.17.2-.69.28-1.05l.95.48a1.38,1.38,0,0,1,0,1.9l0,0c-.7.62-1.13,1.51-2,2-2.2-.71-1.65-2.75-2.06-4.33a.74.74,0,0,1,.19-.6Z"/><path class="cls-183" d="M21.17,18.23l-2.87-.05-.06-.5C19.35,17.14,20.47,16.55,21.17,18.23Z"/><path class="cls-184" d="M15.44,20.1V18.2c1.29.16.88,1.13.89,1.89Z"/><path class="cls-92" d="M9.2,38.84h-1c-.16-2.4-.32-4.79-.49-7.19l0,0c1.48-1.13,2.28.43,3.37.85a10.62,10.62,0,0,0-1,5.13C10.23,38.11,10.18,39,9.2,38.84Z"/><path class="cls-185" d="M8.7,43.15c.28-1,1.32-1.68,1-2.87A16.11,16.11,0,0,0,12,38.42a3.14,3.14,0,0,1,2.36-.51c.87.29,2.35-.4,2.26,1.42-.54,1.31-1.83,1.34-3,1.69.29,1.06,2.28.94,1.7,2.48-.35.93-.56,2.1-2,1.85C12.2,43.72,10.16,44.05,8.7,43.15Z"/><path class="cls-186" d="M8.7,43.15c1.87,0,3.88-.42,4.8,1.93,1,1.31.35,2.59-.07,3.87-.81,1.66-2.28,1.61-3.79,1.5a2.46,2.46,0,0,1-.71-.23c-.47-.37-.61-1-1.16-1.33a1,1,0,0,0-.5-.94C8,46.43,7.26,44.47,8.7,43.15Z"/><path class="cls-85" d="M12.07,38.84a2.29,2.29,0,0,1-2.4,1.44c.53-.7-.18-1-.47-1.44.8-.82.37-1.78.34-2.71,0-1.4-.06-2.85,1.57-3.53a.59.59,0,0,1,.61.12A1.63,1.63,0,0,1,11.94,34c-.2,1-.7,2-.06,3A3.27,3.27,0,0,1,12.07,38.84Z"/><path class="cls-104" d="M37,69.56c-.44.4-.06,1.35-1,1.43l-.29.18a1.49,1.49,0,0,1-.63-.22c-.24-.2-.53-.34-.76-.56a69.41,69.41,0,0,1-.5-7.59,1.68,1.68,0,0,0,.18-2.66c-.64-.81-.11-1.86-.39-2.77s-.46-1.83-.65-2.76c-.44-1.88.3-2.62,2.19-2.24,1,1.12,2,2.17,3.71,1.88a1.94,1.94,0,0,1,.61.26c1,1.52,2.31,3,.87,5l-.48.91a4.37,4.37,0,0,1-1.81,2.31c-1,.16-.56.77-.24,1.1,1.44,1.45,1.86,2.78-.08,4.19C37.37,68.29,37.77,69.25,37,69.56Z"/><path class="cls-187" d="M37.94,62.35c.83-.48.81-1.82,2-2,1.92.65,2.89,1.76,1.86,3.84L39,64.38C37.75,64.17,37.62,63.37,37.94,62.35Z"/><path class="cls-90" d="M40.4,59.48l-.65-.24c1.93-1.64-.31-3-.29-4.52.55-.88,1.8-.16,2.36-1a2.09,2.09,0,0,1,.43,0l.08.09a2.31,2.31,0,0,1,0,2.85,13.65,13.65,0,0,0,0,3.83C41.48,60.54,41.23,59.4,40.4,59.48Z"/><path class="cls-67" d="M42.31,56.59c0-1,0-1.9,0-2.85,2.06.44.81,2.29,1.42,3.34Z"/><path class="cls-188" d="M8.77,14.38l0,1.87a18.28,18.28,0,0,0,1.14,3c.07.91.09,1.79-1.17,1.85l-1-1.91a8.11,8.11,0,0,0-.48-2.88c.43-.69-.39-2.25,1.39-2Z"/><path class="cls-189" d="M8.65,14.28c-1.24.12-.59,1.56-1.39,2-.7-.41-.11-1-.16-1.47S6,14,6.88,13.53C7.51,13.24,8.48,13.06,8.65,14.28Z"/><path class="cls-190" d="M10.65,31.63c.22-2.12-1.92-3-2.42-4.78a1.49,1.49,0,0,1,1.62-.38,6.16,6.16,0,0,0,2.75.92,1.68,1.68,0,0,1,.56.34,1.37,1.37,0,0,1,.17.93,2.58,2.58,0,0,1-.34.8,1.93,1.93,0,0,1-.3.39l-.11.15a.28.28,0,0,0,.36.17,2.93,2.93,0,0,1,1.4.28.68.68,0,0,1,.27.56,1.39,1.39,0,0,1-.56.85,2.33,2.33,0,0,1-.66.26,5,5,0,0,1-1.81,0A1.35,1.35,0,0,1,10.65,31.63Z"/><path class="cls-191" d="M10.65,31.63l.92,0a.57.57,0,0,1,.22.73l-.19.21h-.49c-1.25.15-2-1.41-3.35-1C8.72,29.61,9.68,30.9,10.65,31.63Z"/><path class="cls-192" d="M10.18,26.87l-1.95,0-.44,0c0-.32,0-.63,0-.95a1.39,1.39,0,0,1,.89-.48,4.73,4.73,0,0,1,1.72,0,1.83,1.83,0,0,1,.61.3c.37.46.16.83-.2,1.18A.56.56,0,0,1,10.18,26.87Z"/><path class="cls-193" d="M11.11,25.88l-.54-.07c-.67-.5,0-1.64-1-2-1,.42-.2,1.55-.86,2.07h-1c-1.62-1.49-.58-2.71.42-3.93a3.46,3.46,0,0,1,1.93-.52,2.68,2.68,0,0,1,1.55.48,3.14,3.14,0,0,1-.19,3.82Z"/><path class="cls-194" d="M10.21,21.92l-2,0c-.32-.58-.16-.88.52-.88a2.49,2.49,0,0,0,1-1.91L10,19c1.41.21,1.47,1.47,1.59,2.42C11.64,22,10.64,21.62,10.21,21.92Z"/><path class="cls-195" d="M7.73,74.86l-.47-.47c.78-1.26,2.4-1.92,2.58-3.62.23-.08.59-.21.69-.08a46,46,0,0,1,3.17,5.49c.29.51-.44.95-1,1.08a6.82,6.82,0,0,0-2,.7,1.39,1.39,0,0,1-1-.11C9,76.88,9,75.48,7.73,74.86Z"/><path class="cls-196" d="M9.84,71c1,2.52-1.08,2.75-2.58,3.4-1.41-.83-.93-2.13-.84-3.33A.58.58,0,0,0,6.76,71c.55-.22.76-1,1.46-1a1.25,1.25,0,0,1,1.47-.1A1,1,0,0,1,9.84,71Z"/><path class="cls-197" d="M7.73,74.86c2.51-.36,1.86,1.47,1.93,2.8a2,2,0,0,1-1.05,1c-1.76.06-1.44-.85-.87-1.88C7.74,76.13,7.73,75.49,7.73,74.86Z"/><path class="cls-198" d="M7.74,76.77c.35.45-.76,1.83.91,1.41a1,1,0,0,1,.38.55,1.43,1.43,0,0,1-1.12,1.55.7.7,0,0,1-.63-.16,2.37,2.37,0,0,0-.46-1.76C5.37,76.79,6.41,76.71,7.74,76.77Z"/><path class="cls-134" d="M7.28,80.12h.51c.7,1.13.89,2.47,1.54,3.62-.1.53-.52.71-.95.88a.72.72,0,0,1-.63-.18h0c0-1.37-1.7-2.29-1-3.83Z"/><path class="cls-199" d="M3.42,90.16c.55,0,1.1,0,1.66,0,.81,0,1.65,0,1.91,1a2.67,2.67,0,0,1-.6,2.61,2,2,0,0,1-2.24,0c-.4-.21-.78-.49-1.17-.74V90.25Z"/><path class="cls-200" d="M4.39,80.59c.64.84.92,1.59-.47,1.93C4,81.85,3.69,81.1,4.39,80.59Z"/><path class="cls-201" d="M37.46,72c1.3,2.43.74,4.62-.87,6.68-.9.9-2.05.59-3.12.63A2.94,2.94,0,0,1,32.31,79a2.62,2.62,0,0,1-.92-1.25c-.82-3.4-.21-4.92,2.76-7a1.23,1.23,0,0,1,1.4.29v0C35.93,71.91,36.91,71.51,37.46,72Z"/><path class="cls-202" d="M37.94,62.35a3.94,3.94,0,0,0,1.05,2c.64.66,1.51.2,2.23.46-1.84,2.21,1.46,3.34,1.1,5.23,0,.31,0,.62,0,.93a12,12,0,0,1-3.83-1.44c.38-.53,1.06-.34,1.59-.64-.76-.27-1.17.21-1.59.64H37c.07-1-.85-2.49,1.23-2.77a.8.8,0,0,0-.1-1.55c-1.12-.35-1-1.53-1.43-2.24C36.15,61.94,37.53,62.64,37.94,62.35Z"/><path class="cls-203" d="M33.15,78.81l3.44-.14c.56.07,1.21-.59,1.67.17s0,1.14-.36,1.66a4.28,4.28,0,0,0-.37,1.06l-.28.18c-1.33-.67-2.47-1.83-4.21-1.42-.42.1-.88-.39-.82-.95S32.82,79,33.15,78.81Z"/><path class="cls-204" d="M38.82,84l-.37.45a2.35,2.35,0,0,1-1.68.7,1.71,1.71,0,0,1-1.46-2.45c.23-.36.65-.59,1-.37,1.11.81.82-.51,1.23-.75l0,0,1,1Z"/><path class="cls-205" d="M41.86,73.85c-.22,1.16-.8,1.08-1.72.47.54-.64,1.19-.36,1.72-.47Z"/><path class="cls-206" d="M41.83,72.93c-.42-.08-1,.15-1.19-.43,0-.09.21-.41.36-.44.64-.11.74.39.84.86Z"/><path class="cls-207" d="M37.46,72c-.74-.11-1.67.19-1.9-.93l.5-.07Z"/><path class="cls-208" d="M42,81.61c.48.08.78.31.55.79-.16.32-.41.75-.69.83-.48.13-.62-.4-.69-.76C41.06,81.84,41.55,81.7,42,81.61Z"/><path class="cls-209" d="M41.35,85.41c-.76-.1-1.78.34-1.94-1C40.17,84.53,41.18,84.11,41.35,85.41Z"/><path class="cls-210" d="M33.67,11.49l-.94,0c0-.67-.24-1.42.49-1.92a.25.25,0,0,1,.43.06c0,.47,0,.94,0,1.41C33.68,11.16,33.68,11.32,33.67,11.49Z"/><path class="cls-211" d="M33.65,9.59a3,3,0,0,0-.43-.06c.05-.52.2-.95.84-.82.15,0,.25.3.38.47Z"/><path class="cls-212" d="M9.64,70.05,8.22,70v-.91c-.11-.65-.81-1.14-.51-1.89,0-1,0-1.92,0-2.88.29-.54.9-.77,1.25-1.26a3.17,3.17,0,0,1,1.2-.94c.84-.48,1.47,1.31,2.37.23.41-.41.87-.75,1.25-1.18.09-.18.38-.32.17-.56-.05-.07-.27.07-.38.2-.51.49-.6,1.26-1.2,1.68-1,.29-1.35-.62-2-1.05a1.88,1.88,0,0,1-.14-1.36,7.21,7.21,0,0,0,0-5.6C9.9,53,10.07,51.3,9.2,49.89c1.32-.12,2.82.46,3.81-1,1.45-1.45,1.8.37,2.59.87C16.25,51,18,51.11,18.43,52.6c-.51.72-1.33,1.23-1.5,2.19a2.3,2.3,0,0,1-.52.36c-1.19,1-2,2-.79,3.52a3.13,3.13,0,0,1,.27,2.5c.16.49-1.07.69-.26,1.31a1.11,1.11,0,0,1,0,.6c-.4.81-1.43.78-2,1.44a6.64,6.64,0,0,1-1.25,1c-.9.4-1.83-.7-2.81.16,1,0,1.37.71,1.59,1.49s.62,1.84,0,2.73A1,1,0,0,1,9.64,70.05Z"/><path class="cls-212" d="M7.77,48.89a.92.92,0,0,1,.94,1c2,1.23,1.26,3.29,1.49,5,.16.69,0,1.4.24,2.11.52,1.86.29,2-1.75,1.46v-1c-.24-1.29-1.35-2.38-.95-3.83.7-.51.42-1.25.47-1.92-.1-.81.33-1.73-.47-2.4Z"/><path class="cls-213" d="M10.67,60l-.07,1.41a1.13,1.13,0,0,1-.44,1l-.95,1a2,2,0,0,1-2.44,0c-.18-1.55-.35-3.1,1.44-3.92C9.15,59,10.15,58.42,10.67,60Z"/><path class="cls-214" d="M10.67,60c-.68-.82-1.64-.38-2.46-.55l.48-.92c1.16-.11,1.05-.09.77-1.29a6.09,6.09,0,0,1,.24-2,1.09,1.09,0,0,1,.94-.5l.93.13C10.36,56.36,12.68,58.54,10.67,60Z"/><path class="cls-215" d="M7.75,53.72a5.24,5.24,0,0,1,.95,3.83C7.5,56.49,6.57,55.37,7.75,53.72Z"/><path class="cls-216" d="M7.72,67.2c.11.64,1.51.94.51,1.89-.58-.12-1.46.32-1.66-.46A1.12,1.12,0,0,1,7.72,67.2Z"/><path class="cls-217" d="M6.77,63.34H9.21c-.08.94-.8.92-1.47,1A.92.92,0,0,1,6.77,63.34Z"/><path class="cls-218" d="M41.35,92.1c-.9-1.35-.09-3-.68-4.39-.16-.41.72-.32,1.14-.4.3,1.14.65,2.28.91,3.43S42.34,92.18,41.35,92.1Z"/><path class="cls-219" d="M32.7,22v1c-.79.87-2.05.33-2.9,1-.16.13-.33.24-.49.36a4.16,4.16,0,0,1-1,.69c-.69,0-1.11-.55-1.59-1a1.18,1.18,0,0,1-.3-1.17c.93-.39,1-1,.44-1.76-.14-.82.62-.71,1-1l.07-.09c.78,1,1.67,1.33,2.74.42l.61.57C31.71,21.46,32.32,21.56,32.7,22Z"/><path class="cls-220" d="M32.7,22a1.35,1.35,0,0,1-1.42-.93h1.43Z"/><path class="cls-221" d="M18.36,23.06c3.1-.23,4.23-1.93,3.2-4.81a1.28,1.28,0,0,1,1.53,1.29c.07.61.28,1,1,1a.32.32,0,0,1,.13.32c0,.12-.06.18-.1.18C22.71,24,21.35,24.45,18.36,23.06Z"/><path class="cls-222" d="M27.86,20.19l-.9.86a1,1,0,0,1-.91.36,4.82,4.82,0,0,1-2-1.27c.43-1.81,1.47-1.88,2.84-1A1,1,0,0,0,27.86,20.19Z"/><path class="cls-223" d="M24.09,20.14c.9-.23,1.36.44,1.9.94a1.32,1.32,0,0,1,.23,1.64L26,23c-1.25,0-1.09-1.46-1.91-1.92l0-.5C24.06,20.43,24.07,20.29,24.09,20.14Z"/><path class="cls-224" d="M16.32,88.44c1.45,1.7.87,2.93-.89,3.9-1.58.15-2.48-.71-2.29-2.15C13.38,88.46,14.65,87.93,16.32,88.44Z"/><path class="cls-225" d="M8.23,84.42,9,84c1.71.14,2.36-1.69,3.81-2,.73.85,3,1.2,1,3a21.81,21.81,0,0,0-2.23.52H8.73A1.13,1.13,0,0,1,8.23,84.42Z"/><path class="cls-226" d="M11.6,85.4c.15-1.29,1.14-.88,1.9-.94.69.58,1.57,1,1.92,1.89,0,.32,0,.64,0,1-.89.21-1.36-.47-1.92-.93-1.15.68-1.32-.55-1.9-1Z"/><path class="cls-225" d="M11.59,85.39l1.9,1c0,.52-.23,1-.85.85C11.61,87,11.58,86.21,11.59,85.39Z"/><path class="cls-227" d="M15.42,86.35a2.54,2.54,0,0,1-1.92-1.89c.37-.16,1.24-.39.53-.75s-.87-1.25-1.49-1.67a.78.78,0,0,1-.09-.63c.57-.9.48-2,.86-2.92-.74-.48-1.51-.06-2.17-.39a1.11,1.11,0,0,1-.49-.42c0-.71.5-.89,1.14-.93s1.25.26,1.46-.43-.27-1.16-.9-1.48c-1.06-.53-1.8-1.18-1.31-2.59.31-.9-.33-1.29-1.2-1.26-.07-.31-.14-.63-.2-.94C10.38,70,11.26,70,11,69s-.07-2.16-.94-2.82c-.48-.37-.31,1.11-1.14.69.17-2.85,2-2,3.59-1.6,1.07.19,2.1.43,2.09,1.85a1.25,1.25,0,0,1,.07.89,1.16,1.16,0,0,1-.39.46,2.39,2.39,0,0,0-1.05,1.06c-.4,3,.89,4,4,3.29.59.3.88.93,1.39,1.31a.67.67,0,0,1,.16.86c-.91.25-1.46.68-.81,1.69-.25.55-.95.77-1,1.43-.6,1.2-.05,2.43-.07,3.64.05,1-1.58.64-1.41,1.74.14.73.71,1.24.93,1.93A.86.86,0,0,1,15.42,86.35Z"/><path class="cls-228" d="M22.63,92.6c-.46,0-1.34-.15-1.23-.37,1.35-2.61-2.16-4.34-1.18-6.83l.26-.21a1.49,1.49,0,0,1,1,0,13.54,13.54,0,0,1,3.83,2c.62.51,1.21,1.07,2.13.67.49-.21,1.17-.58,1.42.17s-.27,1.37-1,1.62a7.8,7.8,0,0,0-2.49.75C24.34,91,23.67,92,22.63,92.6Z"/><path class="cls-229" d="M16.86,81.72c-1.26-1.21-1-2.6-.47-4a4.51,4.51,0,0,1,3.39-.44,2,2,0,0,1,.67.4,3,3,0,0,1,.6,2.93c-.65,1-1,2.42-2.75,2C17.62,82.62,17.4,81.9,16.86,81.72Z"/><path class="cls-230" d="M18.3,82.56c1.19-.18,1.58-1.32,2.37-2a.67.67,0,0,1,.56-.18c.67.21,1.47-.34,2.07.33a1.81,1.81,0,0,1,.15,1.57,10.14,10.14,0,0,0-1,2,1.44,1.44,0,0,1-.46.46c-.56.31-1.34,0-1.78.67h0C18,85.53,18.35,83.91,18.3,82.56Z"/><path class="cls-231" d="M22.63,92.6c.25-1.35,1.3-1.89,2.4-2.39a9.25,9.25,0,0,1,2.55.81c.67.73.46,1.24-.42,1.54a5.64,5.64,0,0,0-1.94.73c-1.25.19-1.82,1.52-3,1.79,0-.5,0-1,0-1.51Z"/><path class="cls-232" d="M16.38,85.39c-1-.3-1.75-.74-.93-1.93l1,0a1.42,1.42,0,0,1,0,1.91Z"/><path class="cls-233" d="M16.39,85.4c0-.64,0-1.27,0-1.91.52.06.86.28.89.86A.89.89,0,0,1,16.39,85.4Z"/><path class="cls-234" d="M12.58,106.5c-.29-1,.25-1.9.48-2.84l1.41,0,.46,1.91a.29.29,0,0,1-.46,0Z"/><path class="cls-235" d="M15.45,102.67c.07-.36.15-.93.61-.66a2,2,0,0,1,1.29,2.16l-.93.38-.53-.86A1.05,1.05,0,0,0,15.45,102.67Z"/><path class="cls-236" d="M5.89,85c0,.46,0,.93-.07,1.4-.56-.08-1.46.21-1.17-.87C4.79,85,5,84,5.89,85Z"/><path class="cls-237" d="M8.23,84.42a1.1,1.1,0,0,1,.5,1l-1,.47c0-.48,0-1,0-1.43Z"/><path class="cls-238" d="M14.47,105.57l.46,0a1.12,1.12,0,0,1,.23,1.65.55.55,0,0,1-.83.07C13.68,106.66,14.29,106.12,14.47,105.57Z"/><path class="cls-239" d="M5.3,102.73c.27,1-.28,1.87-.46,2.8-.91.25-1.38-.38-1.88-.94,0-.69-.28-1.44.44-2Z"/><path class="cls-240" d="M25,93c.17-1,1-.87,1.68-.85s1.07-.2.72-1c1.13-.76,2.11-.83,2.72.64a27.74,27.74,0,0,0,.14,7v1.9c-.26.43-.76.64-1,1.08-.38.66,0,1.33-.05,2a1,1,0,0,1-.42.8,2.19,2.19,0,0,0-2.37-1l-.24-.16a4.34,4.34,0,0,1-.64-1,15,15,0,0,1-.64-1.61c-.19-.44-.59-.51-1-.57a3.68,3.68,0,0,1-.93-.2c-.65-.2-.51-.91-.84-1.31a.93.93,0,0,0-1-1c.33-.54.87-.44,1.37-.46a3.53,3.53,0,0,0,3.65.31c1,.14.62-.44.45-.91C26.93,95.17,25.85,94.13,25,93Z"/><path class="cls-241" d="M26.42,97.82c-1.47,1.5-2.77,1.55-3.86-.42-.12-.77-.24-1.55-.37-2.32.72-1,1.13-2.42,2.84-2.1,2,.65,2.52,2,1.94,4A.91.91,0,0,1,26.42,97.82Z"/><path class="cls-242" d="M25.45,100.66l.54,2c-.41.53-1.08.58-1.6.9l-.3.08c-1.83.65-1.67-1.67-2.88-1.93,0-.32,0-.65,0-1,.5-.6,1.36-.45,1.92-.94l1,0C24.49,100.26,25.06,100.32,25.45,100.66Z"/><path class="cls-243" d="M26.46,103.65l.47.95H24.06l0-.93h0a1.76,1.76,0,0,1,2.37,0Z"/><path class="cls-243" d="M24.06,104.6l0,3A2.4,2.4,0,0,1,24.06,104.6Z"/><path class="cls-145" d="M23.12,99.81c-.17,1.26-1.16.87-1.92.94l1-1.91C22.48,99.17,22.8,99.49,23.12,99.81Z"/><path class="cls-244" d="M30.29,98.86a14.75,14.75,0,0,1-.48-6.76c1.7-1.26,1.69.3,2.06,1.24,0,1.23.34,2.52-.62,3.59-1-1-.07-2.29-1-3.84Z"/><path class="cls-245" d="M28.88,107.93c0-.8,0-1.6.05-2.4a1.34,1.34,0,0,1,1.85,0c0,.32,0,.63,0,1C31,108.08,30.41,108.64,28.88,107.93Z"/><path class="cls-242" d="M28.88,103.66c-.24-.65-.9-1.3,0-2a1,1,0,0,1,1.43,0,4.89,4.89,0,0,1,.46,2.89C29.89,104.8,29.45,104.1,28.88,103.66Z"/><path class="cls-246" d="M28.88,103.66c.92-.24,1.37.44,1.9,1v.93l-1.85,0c0-.3-.07-.6-.1-.91S28.87,104,28.88,103.66Z"/><path class="cls-247" d="M31.25,96.93c0-1.28,0-2.57,0-3.85,1.85,1.07,1.23,2.45.5,3.85,0,.5,0,1,0,1.49C31.23,98,31.29,97.46,31.25,96.93Z"/><path class="cls-248" d="M30.32,101.73l-1.43,0c0-1,.76-.89,1.41-.95C30.79,101.07,30.79,101.39,30.32,101.73Z"/><path class="cls-249" d="M36.06,98.86c-.73,0-.93-.69-1.4-1a1.32,1.32,0,0,1,.16-2.1,2.11,2.11,0,0,1,1.94,0l.3.28C37.26,97.1,37.92,98.41,36.06,98.86Z"/><path class="cls-250" d="M36.54,93.58c.51.67,1.26.41,1.93.48,0,1,.13,2.06-1.41,1.89h0c-.53-.73-1.71-.22-2.13-1.15C34.93,93.72,35.28,93,36.54,93.58Z"/><path class="cls-251" d="M36.54,107.47c0-.3,0-.61,0-.91l1,0c.08.59,1.31,1,.43,1.66C37.37,108.71,36.66,108.41,36.54,107.47Z"/><path class="cls-252" d="M36.54,93.58A1.31,1.31,0,0,0,35.12,95a.64.64,0,0,1,0,.95c-.62.51-.37,1.22-.45,1.87-.21,1-1.22,1.57-1.11,3-1.35-1.31-.87-2.94-1.78-3.94-.26-1.27.48-2.67-.5-3.85-.05-1-.43-1.45-1.46-1-.31-1.54-1.55-.72-2.38-.93s-2.08.55-2.4-1c.1-1,.87-1,1.59-1s1.66.13,2-1.27c-1.46.87-2.84,1.31-3.55-.65.86-1.07,2.46-.11,3.29-1.23,1.93-1.78,2.06-3.89,1.11-6.19a1.64,1.64,0,0,1,.2-.65.82.82,0,0,1,.6-.29,2.41,2.41,0,0,1,1.25.53c.75.82,2,1.12,2.5,2.18.44,1.41.39,2.65-1.16,3.39a1,1,0,0,0-.6,1.14A13,13,0,0,0,33,88.26c.21.6.29,1.23.51,1.83.72.84,1.56,1.57,2.28,2.4a4.46,4.46,0,0,1,.72.58Z"/><path class="cls-253" d="M32.74,88.29a2.45,2.45,0,0,1-1-1.91c1.71-.66,3.37-1.55,5.31-1.09a1.3,1.3,0,0,1,.43,1.55c0,1.22.1,2.46-.93,3.39L36.32,90C35.85,87.94,34.44,87.83,32.74,88.29Z"/><path class="cls-253" d="M35.56,93.07a7.61,7.61,0,0,1-2.37-2.88,2.55,2.55,0,0,1,3.31,0l.08.08,0,1C35.88,91.63,36.25,92.63,35.56,93.07Z"/><path class="cls-254" d="M37.51,86.84,37,85.39a.69.69,0,0,0,0-.47c.35-.56.9-.48,1.42-.46C38.48,85.39,38.62,86.36,37.51,86.84Z"/><path class="cls-250" d="M35.56,93.07c.12-.74-.27-1.75,1-1.9v1.9Z"/><path class="cls-168" d="M39,54.68a9.19,9.19,0,0,0-1.66,0c-1.7.32-2-.54-1.71-1.93l.12-.28c.4-.39.9-.76,0-1.18-.63-.28-1.05-.71-.74-1.48a3.07,3.07,0,0,1,1.64-1.07,2.87,2.87,0,0,1,1.92,1.17,6.68,6.68,0,0,0-.5,3.74C38.17,54.15,39.26,53.78,39,54.68Z"/><path class="cls-255" d="M38.53,49.92a2.2,2.2,0,0,1-2-1C36,47,36.19,46.74,38,47l1,2.84A1.13,1.13,0,0,1,38.53,49.92Z"/><path class="cls-256" d="M39,54.68l-.93-1,3.79,0c-.26,1.57-1.54.78-2.36,1Z"/><path class="cls-257" d="M38,47c-1.55-.19-1.46.87-1.42,1.89a1.46,1.46,0,0,1-1.44,1A3.43,3.43,0,0,1,34.27,48a3.19,3.19,0,0,1-.07-1.34c.14-.74,1-1.56-.22-2.16a1.92,1.92,0,0,1-.64-.74,3.45,3.45,0,0,1-.17-.65,2.89,2.89,0,0,1,.25-1.66l.25-.24.87.94c.79,2.39,2.59.73,3.92,1l0,.06a1.07,1.07,0,0,1,.15.95c-.48.59-1.06,1.17-.19,1.9A1,1,0,0,1,38,47Z"/><path class="cls-258" d="M38.46,46.05c-.39-.1-1.08.2-1.07-.46s.09-1.45,1.07-1.46a.64.64,0,0,1,0,.95Z"/><path class="cls-168" d="M38.48,45.08c0-.32,0-.63,0-.95s0-.62,0-.93l.91.91v.49Z"/><path class="cls-259" d="M37.52,38.35v.48c-.53.73-1.28.42-2,.43C35.79,38,36.77,38.44,37.52,38.35Z"/><path class="cls-172" d="M36.08,31.65c-.1.73-.28,1.52-1,1.8-1.45.59-1.41,1.77-1.42,3a.85.85,0,0,1-.94.17,2.06,2.06,0,0,1-.57-.8c-.62-1.13-1.43-.53-2.21-.24a.79.79,0,0,1-.65-.1,1.56,1.56,0,0,1-.14-1.91c.2-.31.88-.56.82-.61a2.21,2.21,0,0,0-1.86-.55c-.46.07-1-.07-1.31.41-.13.37-.12.82-.57,1a1.15,1.15,0,0,1-1-.17A2,2,0,0,1,24.63,32c0-1.8,1.25-1.87,2.57-2,1.9-.15,3.94.57,5.66-.83,1.13-.38,1.25.72,1.79,1.21.25.65,1,.77,1.4,1.21Z"/><path class="cls-171" d="M32.71,36.43h2.87c-.07.36,1.13.56.21.93-.73.29-1.23,1.07-2.11,1-.47-.52-1.23-.32-1.73-.74a.77.77,0,0,1-.26-1A.64.64,0,0,1,32.71,36.43Z"/><path class="cls-260" d="M32.71,36.43c-.59.14-1.23.36-.3.87.52.29,1.23.22,1.27,1.05-.43.11-1.08.24-.59.8a2.82,2.82,0,0,1,.58,2.08h0c-.65.64-.33,1.28,0,1.92v.49c-2.17,1.52-3.2,1.24-3.54-1.18-.18-1.27-1.29-2-1.44-3.2.56-.89,1.22-1.76.91-2.93a.82.82,0,0,1,.24-.85l0,0c.95-.26,1.9-.71,2.85,0Z"/><path class="cls-261" d="M35.59,26.84c0-.16,0-.32,0-.48.31-.4.67-.59,1.12-.25a.39.39,0,0,1,.09.38C36.5,27,36,26.81,35.59,26.84Z"/><path class="cls-262" d="M34.65,30.7c-1.07.09-.83-1.11-1.45-1.48L33.07,29l.13-.24h.95a2.48,2.48,0,0,1,.93,1.88C35,30.83,34.82,30.84,34.65,30.7Z"/><path class="cls-263" d="M34.65,30.7l.43-.07c.59.07,1,.32,1,1C35.36,31.65,34.67,31.68,34.65,30.7Z"/><path class="cls-264" d="M28.87,24a3,3,0,0,1,.42,0,3.66,3.66,0,0,1,3.53,0c2.34,1.08.33,2.56.35,3.85a3,3,0,0,1-3.92.1C27.88,26.8,28.34,25.33,28.87,24Z"/><path class="cls-265" d="M28.87,24c.12,3.94.12,3.94,4.3,3.78l0,1h0a2.4,2.4,0,0,1-1.55.62,5.87,5.87,0,0,1-2.32-.21c-2-.73-2.33-2.34-1-4.24A1,1,0,0,1,28.87,24Z"/><path class="cls-266" d="M32.82,23.89l-3.53,0c.76-1.69,2.29-.59,3.42-.93C32.74,23.3,32.78,23.6,32.82,23.89Z"/><path class="cls-267" d="M9.67,19.15c-1.74-.51-.66-1.92-.93-2.9a2.59,2.59,0,0,0,2.84,1c0,.16,0,.33,0,.49.07,1.43-1.53.63-1.92,1.44Z"/><path class="cls-268" d="M25,32.12l.57,1.51a2.93,2.93,0,0,1-.5,3,2.07,2.07,0,0,1-3-.63c-.69-.69.44-2.44-1.43-2.42-.65.32-.27,1.8-1.56,1.4-.28-2.39-1.9-3.43-4-4-.68-1,.15-1.16.73-1.49a2.56,2.56,0,0,1-2.8-.69l0-1c1.49-1.87,2.78-2.11,5.26-1h0a3.24,3.24,0,0,0,2.37.89c1.52.22.79-1.22,1.22-1.82s1.32-1.14,1.69-1.95c.32-.53.64,0,1,0a4,4,0,0,0,2.62,2.87,1.91,1.91,0,0,1,.13,1c-.41,3.49-3.34,2.06-5.85,2.87C23.31,30.59,24.34,31,25,32.12Z"/><path class="cls-269" d="M18.31,26.84c-1.8.05-3.69-.33-5.26,1h0c-.6-.81-1.8-.13-2.41-.94l.5-1,0,0c.44-.47,1.19-.43,1.73-1.11-1.22-.52-.83-1.83-1.36-2.74l-1.31-.13c1.73-1.3.34-2-.54-2.76,0-1.37,1.53-.63,1.92-1.44,1.12,1.22.3,3.31,1.91,4.31a8.48,8.48,0,0,1,1.19.74c.61.19,1.13-.29,1.71-.25.75,1.14.91,2.94,3.26,2.38Z"/><path class="cls-269" d="M23.59,24c-.06,1.41-2.08,2.13-1.31,3.88.17.4-.6.6-.88.53-1.12-.28-2.48-.18-3.09-1.53,1.36.36,2.56.68,3.06-1.34C21.54,24.85,22.82,24.47,23.59,24Z"/><path class="cls-270" d="M26.94,26.85c-1-.83-.84.9-1.72.65-.22-1.13-.45-2.33-.67-3.54.54.18.47,1,1.21,1.06.48-.62.12-1.35.23-2h0a.28.28,0,0,1,.47,0L27,24A2.12,2.12,0,0,1,26.94,26.85Z"/><path class="cls-271" d="M14.44,23a.88.88,0,0,1-.94-1,1.94,1.94,0,0,1,1.91-1.88c0,.62,0,1.24,0,1.87A1.64,1.64,0,0,1,14.44,23Z"/><path class="cls-272" d="M14.44,23a.93.93,0,0,1,1-1,1.09,1.09,0,0,1,1,.5C15.68,22.43,15.6,24.9,14.44,23Z"/><path class="cls-273" d="M19.34,35c.81-.6,0-1.83.9-2.39A2.78,2.78,0,0,1,20.75,35c.08,1.87,1.32,3.39,1.59,5.2-.37.59-1.24.63-1.46,1.38a1.27,1.27,0,0,1-1,.54c-.91-.1-1,.82-1.57,1.21-1,.23-1.1-.42-1.08-1.15.58-1.19-1.71-1.58-.81-2.86,0-1.67-1.59,0-1.93-.93-.54-.84-.68-1.61.39-2.16.78-.13,1.33.69,2.13.49s1-.89,1.51-1.35A1.27,1.27,0,0,1,19.34,35Z"/><path class="cls-274" d="M16.39,39.31c-.16,1.28,2.2,1.31,1.43,2.89-.85,0-1,.46-.88,1.25a22.56,22.56,0,0,1,0,4.79c-.07.81.12,2.16-1.52,1.64-1,.2-1.13-1.85-2.42-1,.06-1.29.73-2.51.49-3.84,1.11-1,2.74-1.95,0-3a2.09,2.09,0,0,1-1.21-1.54C13.65,40.08,15.31,40.54,16.39,39.31Z"/><path class="cls-275" d="M15.47,36.48c-1.36.09-.88,1.16-1,1.9a3.83,3.83,0,0,0-2.39.46c-.7-.5-.39-1.26-.47-1.92s.25-.72.63-.9a4,4,0,0,0,1.68-.72,1.78,1.78,0,0,1,.6-.16,2.68,2.68,0,0,1,.63,0,5.61,5.61,0,0,0,2.79,0,.93.93,0,0,1,.86.37c-.43.66-.58,1.54-1.45,1.85C16.88,36.75,16,37.07,15.47,36.48Z"/><path class="cls-276" d="M10.76,48.89A2.27,2.27,0,0,1,8.47,46.7c0-1.21.39-2.53,2.12-2.59,1.35,0,1.88.73,1.95,1.88A2.78,2.78,0,0,1,10.76,48.89Z"/><path class="cls-277" d="M10.64,54.67a1,1,0,0,1-.94.5c-.14-1.8.35-3.72-1-5.29H9.2C11.48,50.94,10.38,53,10.64,54.67Z"/><path class="cls-278" d="M14.44,35.46l-.54,0a.69.69,0,0,1-.61,0c-.51-.58-1.78-.27-1.72-1.49l0-1.44v0c.48-.63,1.45-.29,1.93-1H14A3.69,3.69,0,0,1,14.44,35.46Z"/><path class="cls-279" d="M11.57,34.05c.4.81,1.93.06,1.95,1.41-.16.49-.69.61-1,1a1,1,0,0,0-1,.49C9.93,36,11.36,35,11.57,34.05Z"/><path class="cls-280" d="M35.55,71H34.21a.64.64,0,0,1-.64.09,3.84,3.84,0,0,1-1.43-1.85,15.7,15.7,0,0,1-1.58-4.49c-.29-.92-.91.2-1.28-.21a1.29,1.29,0,0,1-.53-.36,1.48,1.48,0,0,1-.16-1,4,4,0,0,1,.65-1.88c.5-.25,1.06-.1,1.59-.23,2.15-.53,2.32-.81,1.66-3,.29-1,.89-1,1.66-.53.43,1.12-.18,2.64,1.3,3.38a1,1,0,0,1,0,.88c-1.67,1.35-2.12,2.67-.22,4.22.19.15,0,1-.21,1.34C33.81,68.83,34.61,69.92,35.55,71Z"/><path class="cls-281" d="M34.15,57.56c-.7,0-1.4,0-1.44,1l-.31.19a1.77,1.77,0,0,1-1.81-2.16c.78-1.07.39-2.4.79-3.56.38-.49.06-1.68,1.3-1.34.87.83-.47,2.38,1,3A8.54,8.54,0,0,1,34.15,57.56Z"/><path class="cls-168" d="M33.67,54.68c-2.35-.29-.66-1.92-1-2.88a7.79,7.79,0,0,0-1.11-1.18c-1.43-1-1.33-1.95.07-2.87a1.51,1.51,0,0,1,.73-.06c1.86,1.18,2.41,3.2,3.19,5.07h0C34.26,52.71,32.79,52.51,33.67,54.68Z"/><path class="cls-282" d="M14.44,35.46A10.73,10.73,0,0,1,14,31.64l.51-.84c.08-.22.22-.26.41-.12,3.62.11,4.3.78,4.4,4.32l-.55.54-1,0a6,6,0,0,1-2.83,0Z"/><path class="cls-283" d="M14.94,30.68l-.41.12-.08-.18C14,30,13,30.41,12.56,29.71a1,1,0,0,1,.47-.95c1.38-.06,2.63,1.06,4.12.17C16.61,30,15.21,29.54,14.94,30.68Z"/><path class="cls-284" d="M10.61,26.85c.85.21,2.1-.61,2.41.94-.94-.32-2.35.79-2.84-.92A3.1,3.1,0,0,1,10.61,26.85Z"/><path class="cls-285" d="M13.52,31.64c-.15,1.32-1.18.86-1.93,1,0-.31,0-.61,0-.92Z"/><path class="cls-286" d="M12.56,29.71c.71.14,1.73-.37,1.89.91l-1.9.05a.63.63,0,0,1,0-.94Z"/><path class="cls-92" d="M12.55,29.73v.94c-.43-.05-1.05-.05-1-.57S12.18,29.83,12.55,29.73Z"/><path class="cls-287" d="M8.73,25.86C8.63,24.69,7.08,22.72,10,23c2.16.25.14,1.89.62,2.77Z"/><path class="cls-288" d="M11.52,22.05c.8.32.3,1.41,1,1.74s1.75.27,1.36,1.42-1.48.51-2.25.68a2.44,2.44,0,0,1-.47,0A6.84,6.84,0,0,0,11.52,22.05Z"/><path class="cls-289" d="M10.65,77.68a.91.91,0,0,0,.4.06c.47.3,1,.58.35,1.2a2.32,2.32,0,0,1-2.68-.26c0-.17,0-.33-.07-.5.34-.17.68-.34,1-.52Z"/><path class="cls-290" d="M8.72,78.68h2.89c1.82.35,1.94.7,1,2.89,0,.16-.07.32-.1.48C11.66,83.22,11.21,85.18,9,84a4,4,0,0,1-1.23-3.84C8.12,79.65,8.68,79.33,8.72,78.68Z"/><path class="cls-291" d="M32.71,69.08,33.63,71c-2.46,2.18-3,4-1.88,6.76a1,1,0,0,1,.55.93,1.11,1.11,0,0,1-.46.4,5.62,5.62,0,0,1-1.53.12h-.45c-1-1-2.35-1.49-3.25-2.59a8,8,0,0,1-.16-4c.21-.9,1.31-1.47.92-2.58a5.16,5.16,0,0,1-.2-1.61A6.35,6.35,0,0,1,27.43,67c.48-1.33,1.56-1.43,1.93-.27A2.94,2.94,0,0,0,32.71,69.08Z"/><path class="cls-292" d="M31.74,78.68l.56,0,.85.16c-.43.43-1,1.44.05,1.07,2.18-.76,3.2.33,4.3,1.71-.15.6.42,1.21,0,1.79-.87.19-1.07-1-1.88-.86s-1.35-.52-1.94-1c-.91-.48-2-.79-2.41-1.87A1.25,1.25,0,0,1,31.74,78.68Z"/><path class="cls-207" d="M31.75,77.71C29.84,76,31,71.9,33.63,71l.58.09C32.21,72.83,30.92,74.88,31.75,77.71Z"/><path class="cls-293" d="M35.56,75.72c0,.32,0,.67-.38.75s-.46-.31-.5-.61,0-.68.37-.75S35.48,75.43,35.56,75.72Z"/><path class="cls-100" d="M38.47,69.56c-.12-1.41.77-1.51,1.82-1.43.66.05,1.06.35,1,1-.06.86-.6.69-1.19.55a9.9,9.9,0,0,0-1.64-.15Z"/><path class="cls-294" d="M33.66,81.56c.91-.2,1.39.44,1.94,1A1.92,1.92,0,0,0,37,84.92a2.27,2.27,0,0,1,.19.34s-.12.09-.18.13c-1.76.3-3.39,1.3-5.27,1-.64-.68-.82-1.72.16-1.79C34.27,84.41,33.55,82.82,33.66,81.56Z"/><path class="cls-295" d="M15.43,49.88c1.19-.17,1-1.1.95-1.86,0-2.29.24-4.59-.43-6.82,1.08-.28,1.3.64,1.87,1-.23.51-.36,1,.47,1,.85.2-.65,1.83,1,1.56a9,9,0,0,0,3,1.15A2.06,2.06,0,0,1,23.1,47c.2.77.72,1.59-.31,2.18a1.23,1.23,0,0,1-.66-.07c-.42-.85-.74-.58-1,.1-1.39.63-2.42.1-3.29-1-.54,1.52.72,1.27,1.46,1.6.94.42,1.91.93,1.81,2.2-.08,1.12-.9,1.35-1.86,1.32a1.32,1.32,0,0,1-.9-.5c-1.09-.21-1.29-2.17-2.95-1.44C15.13,51.41,15.56,50.39,15.43,49.88Z"/><path class="cls-296" d="M16.34,54.66l.48-.1a3.52,3.52,0,0,1,3-.31,2,2,0,0,1,.67.41c1.63,2.67,1.61,3.15-.23,5.08a2.89,2.89,0,0,1-.76.28,4.85,4.85,0,0,1-3.2-.38A3.7,3.7,0,0,1,16.34,54.66Z"/><path class="cls-297" d="M14.55,67.2l-2-2a.89.89,0,0,1,.95-1c.72-.37,2,0,1.93-1.43v-.47a1.44,1.44,0,0,1,1.84-.18c1.06,2.3.75,3.11-2,5.07A.92.92,0,0,1,14.55,67.2Z"/><path class="cls-298" d="M16.34,54.66a6.3,6.3,0,0,0,.08,4.75,1.83,1.83,0,0,1,.43,1,1.55,1.55,0,0,1-.37,1.05.83.83,0,0,1-1-.09c-.19-1.08.44-2.29-1-3.14C13.49,57.73,14.79,55.34,16.34,54.66Z"/><path class="cls-299" d="M20.18,54.73l-3.36-.17c-.82-1.69.34-1.74,1.49-1.81l.94,0C19.6,53.41,21,53.53,20.18,54.73Z"/><path class="cls-227" d="M15.43,62.84c1,1.39-.68,1.42-1.13,2s-.69-.1-.8-.55C13.51,62.93,15,63.65,15.43,62.84Z"/><path class="cls-300" d="M10.16,62.38a.93.93,0,0,1,.44-1l2,1h0C11.77,64.76,11,61.89,10.16,62.38Z"/><path class="cls-300" d="M15.44,61.4h1A1.37,1.37,0,0,1,17.3,61c1.05.19,1.62.51.39,1.35l-.34,0H15.43C13.81,62,15.72,61.73,15.44,61.4Z"/><path class="cls-301" d="M13.5,60.45c.08-.49.21-1,.87-.86.39.06.5.37.53.69A.9.9,0,0,1,14,61.41C13.2,61.41,13.19,61,13.5,60.45Z"/><path class="cls-300" d="M13.5,60.45a1,1,0,0,0,.48,1c0,1-.73,1-1.42,1h0C12.66,61.62,12.2,60.6,13.5,60.45Z"/><path class="cls-298" d="M14.1,54c.44.21.37.54.35.83s-.07.53-.39.28a.88.88,0,0,1-.28-.62C13.78,54.36,14,54.19,14.1,54Z"/><path class="cls-302" d="M8.6,60.48c.78,0,1,.36,1,.93a.83.83,0,0,1-.86.92c-.72,0-1-.35-1-1A.83.83,0,0,1,8.6,60.48Z"/><path class="cls-303" d="M26.94,26.85c0-1,0-1.92,0-2.88.76-.1.95.65,1.43,1-.83,3.17-.28,3.8,3.35,3.84.09.21.31.43.14.66-1.11,1.37-2.62.78-3.92.6-1.07-.16-1.34-1.18-1-2.23Z"/><path class="cls-304" d="M26.47,23A3.73,3.73,0,0,0,26,23c0-.64,0-1.28,0-1.92l1,0a1.14,1.14,0,0,1,1,1.5C27.85,23.38,27,22.86,26.47,23Z"/><path class="cls-305" d="M27,72c0,1.58,0,3.17,0,4.76a.94.94,0,0,1-.84.27c-1-.36-1.67.38-2.4.88a2.75,2.75,0,0,1-.59.25,4.78,4.78,0,0,1-1,.12,5,5,0,0,1-1-.06,1.59,1.59,0,0,1-.87-.51h0c-.62-.8-1.85-.09-2.42-1-.23-.85-1.35-.67-1.75-1.52.87-.58,1.83-.23,2.71-.34,1.8.65,1.08-1.22,1.72-1.72.9-.26.65-1.51,1.53-1.79.52.06,1.17.62,1.38-.39-.08,0,.16-.3-.1-.13-.08.06-.11.25-.22.36a1,1,0,0,1-.88.1C20.82,71,21.59,73,20.46,73c-.8-.41-.73-1.12-.62-1.84a4.26,4.26,0,0,1,.61-1.27,7.6,7.6,0,0,1,3.86-2.41c.55.41,1.34.18,1.85.69.32.94-.67,1.65-.43,2.56C25.86,71.45,26.69,71.45,27,72Z"/><path class="cls-306" d="M17.35,73.06c-1.22,1-2.49,1.32-3.65,0-1-1.15-2.34-2.32-.67-4,.36-.49,1.1-.45,1.42-1h0a1.25,1.25,0,0,1,1.19-.31,2.07,2.07,0,0,1,.58.28c.51.44,1.16.67,1.64,1.14C19.2,71.28,19.13,71.83,17.35,73.06Z"/><path class="cls-297" d="M17.35,73.06c1.46-1.34.86-2.66,0-4a.5.5,0,0,1,0-.58c-.13-.5.84-3,1.19-3.81.55-1.3,1.93-1.61,2.74-2.57a1.58,1.58,0,0,1,1.05-.06c1.33,1.25,1.39,2.7-.18,3.5A3.61,3.61,0,0,0,20,69.65a1.79,1.79,0,0,1-.2.67c-.57.8-.35,1.75-.49,2.64a1.63,1.63,0,0,1-1,1.39C17.45,74.35,17.33,73.76,17.35,73.06Z"/><path class="cls-307" d="M18.34,74.35c.16-.47.31-.94.47-1.42.49-.61,0-1.43.43-2.05a.85.85,0,0,1,1,.13c.05.66-.23,1.41.46,1.92h0c-.29,1.06.89,2.89-1.47,2.87-.82,0-.55-.51-.44-1Z"/><path class="cls-225" d="M12.64,81.56c.07-1.11.74-2.43-1-2.89-.18-.31-.37-.62-.56-.93,3.65-.08,3.74.06,2.21,3.55C13.19,81.44,12.85,81.47,12.64,81.56Z"/><path class="cls-308" d="M17.83,76.7c.83.28,2.1-.51,2.42,1H16.39C16.42,76.73,17.16,76.77,17.83,76.7Z"/><path class="cls-309" d="M14.45,68.08c0,1-.7,1-1.42,1C13.08,68.15,13.74,68.08,14.45,68.08Z"/><path class="cls-309" d="M15.92,68.11l-1.49,0,.12-.89a1,1,0,0,0,.39,0C15.77,67,16,67.37,15.92,68.11Z"/><path class="cls-310" d="M28.83,86.27c-.77,2.15-2.57.57-3.8,1a15.18,15.18,0,0,1-3.83-1.89c.15-.5.67-.63.95-1h0c.45-.36.54-1.1,1.23-1.21.08,0,.2,0,.23,0A8.07,8.07,0,0,0,28.83,86.27Z"/><path class="cls-311" d="M22.15,84.44a.93.93,0,0,1-.95,1l-1,0C20.34,84,21.43,84.6,22.15,84.44Z"/><path class="cls-308" d="M20.25,77.7l.89,0a1.93,1.93,0,0,1,0,2.83h-.47A7.39,7.39,0,0,0,20.25,77.7Z"/><path class="cls-312" d="M19,80c0,.45-.32.52-.61.5s-.68-.16-.74-.35c-.15-.43.28-.46.58-.5A.64.64,0,0,1,19,80Z"/><path class="cls-313" d="M28.83,86.27c-2.83.89-4.4-.67-5.64-2.89a.52.52,0,0,1-.13-.82l.06-2c0-.12.06-.24.08-.35.36-1.08.79-2.09,2.16-2.17,1.7-.08,3.47-.35,4.44,1.6C31.17,82.14,31.09,84.37,28.83,86.27Z"/><path class="cls-314" d="M21.14,80.57V77.74l1,0c.38.58,1.27.39,1.61,1a2.24,2.24,0,0,1-.67,1.85h0C22.47,80,21.76,82.67,21.14,80.57Z"/><path class="cls-315" d="M23.06,82.56c0,.27.09.55.13.82-.09.61-.34,1.06-1,1.07C22.3,83.74,21.75,82.7,23.06,82.56Z"/><path class="cls-316" d="M26.47,103.64l-2.37,0c.09-1.36,1.15-.88,1.89-1A1,1,0,0,1,26.47,103.64Z"/><path class="cls-317" d="M26.42,97.82c0-.39.09-.76.55-.89.65.38,1.32.95.63,1.62C27.08,99.05,26.71,98.26,26.42,97.82Z"/><path class="cls-318" d="M28.82,96.21a.41.41,0,0,1-.38.42c-.56,0-.49-.48-.47-.82s.07-.67.5-.58S28.85,95.63,28.82,96.21Z"/><path class="cls-319" d="M25.45,100.66c-.63,0-1.39.28-1.31-.82C24.76,99.82,25.4,99.76,25.45,100.66Z"/><path class="cls-320" d="M35.11,96c0-.32,0-.64,0-.95.75.07,1.75-.34,1.91.95Z"/><path class="cls-321" d="M36.5,90.15l-3.31,0c-.6-.53-.38-1.25-.45-1.9a2.23,2.23,0,0,1,2.87-.81C36.69,88,36.59,89.13,36.5,90.15Z"/><path class="cls-322" d="M29.8,79.69c-1.4-1.25-3.11-1-4.77-1a.8.8,0,0,1-.21-.89,2.07,2.07,0,0,1,1.2-1l.94,0c1.39.3,2.73.64,2.9,2.4Z"/><path class="cls-292" d="M32.61,82.65a.58.58,0,0,1-.44.71.64.64,0,0,1-.84-.59c0-.34-.18-.88.46-.83A.79.79,0,0,1,32.61,82.65Z"/><path class="cls-323" d="M33.25,96.35c-.2-.23-.41-.37-.43-.53s.09-.51.22-.56c.35-.14.56.13.55.46C33.58,95.89,33.4,96.07,33.25,96.35Z"/><path class="cls-324" d="M31.74,78.68a1,1,0,0,1-.48,1l-1-.53C30.65,78.6,31.2,78.66,31.74,78.68Z"/><path class="cls-325" d="M35.59,52.76c-2-1-1.72-3.57-3.36-4.8-.24-.54.07-.83.48-1.08.85,0,1.36.57,1.93,1.07s.39,1.27.48,1.93c.06.39.14.83.61.88.9.08,1.64.52,1.57,1.39C37.21,53.18,36,52.11,35.59,52.76Z"/><path class="cls-326" d="M28.88,38.84c.73,1.43,2,2.43,1.89,4.49-.06,1.61,1.85.27,2.88.32l.49.48c.42.49.24,1-.25,1.11-1.25.39-2,1.48-3.1,2-1.4.34-1.23,1.73-1.77,2.65-.59.53-1.43.62-2,1.17-2.2.77-3.52,0-3.56-2.19,0-.78-.55-1.26-.57-2a7.83,7.83,0,0,1-.3-1.74,2.82,2.82,0,0,1,.46-1.3c.34-.46.56-1,.92-1.41,1.1-.66,1.76-1.39.6-2.59a2.71,2.71,0,0,1-.63-1.28c-.27-1.19.16-1.69,1.39-1.34s2.13,1.07,3.3,1.33Z"/><path class="cls-260" d="M30.79,47c.63-1.52,2.46-1.65,3.35-2.87,2,.42,1.63,1.33.48,2.38-.64.72-1.73-.19-2.35.64a1.2,1.2,0,0,1-1.24.08Z"/><path class="cls-168" d="M32.24,47c.63-1,1.53-.61,2.38-.48,0,.48,0,1,0,1.44-.9.2-1.39-.44-2-.93Q32.44,47.31,32.24,47Z"/><path class="cls-168" d="M33.66,43.16c-.32-.64-1.68-1.29,0-1.92C33.66,41.88,33.66,42.52,33.66,43.16Z"/><path class="cls-270" d="M26.94,27.8c.86,2.31,3.12,2.77,4.79,1H33.2v.46a2,2,0,0,1-2.36,1.48c-1.42-.09-2.87.11-4.28-.06s-1.28.73-1.53,1.48c-1.24-.18-2.29-1.59-3.73-.54-.13.1-.68-.1-.79-.3-.22-.4.12-.73.4-1,.86-.84,2-.63,2.93-.51A2.52,2.52,0,0,0,26.94,27.8Z"/><path class="cls-327" d="M25.05,36.44a5.48,5.48,0,0,1,.55-2.81l.84-.16a1.51,1.51,0,0,1,2.26.21,2.22,2.22,0,0,1-.09,2.8,1.93,1.93,0,0,1-.73.43A2.92,2.92,0,0,1,25.05,36.44Z"/><path class="cls-328" d="M28.31,36.4c.92-2,.47-3-1.87-2.93L26,32.62a1.91,1.91,0,0,1,1.8-.28,1.2,1.2,0,0,1,1.57,1.21c.08.66-.23,1.42.45,1.94,0,.31,0,.62,0,.92A1,1,0,0,1,28.31,36.4Z"/><path class="cls-329" d="M29.37,33.55c-.53-.25-.7-1-1.43-1-.18-.08-.25-.18-.2-.28s.11-.17.16-.17c1.66-1.45,2.25,1.09,3.63.78C30.88,33.77,30.08,33.49,29.37,33.55Z"/><path class="cls-330" d="M32.7,35.46c-1-.15-1.9.82-2.85,0C30.8,34,31.75,34,32.7,35.46Z"/><path class="cls-270" d="M27.9,32.12c0,.15,0,.3,0,.45l-1.94,0C26.4,31.57,27.09,31.63,27.9,32.12Z"/><path class="cls-171" d="M28.31,36.4H29.8c.7,1.2.53,2.06-.92,2.43h0c-1.14-.44-1.91-1-.95-2.32A.89.89,0,0,1,28.31,36.4Z"/><path class="cls-266" d="M31.45,24.73a.61.61,0,0,1,.61.57c0,.37-.28.55-.61.5a.67.67,0,0,1-.47-.39A.56.56,0,0,1,31.45,24.73Z"/><path class="cls-260" d="M27.92,36.52a2.28,2.28,0,0,0,.95,2.32c-1.65.3-2.92-.74-4.43-1.37a2.08,2.08,0,0,0,.7,2.34c2.41,2.06.57,2.39-1.06,2.87a2.35,2.35,0,0,1-1.28-.18,1.71,1.71,0,0,1-1-1.28,1.19,1.19,0,0,1,.34-.93,12.82,12.82,0,0,1-1.91-4.81c.64-.63,1.28.08,1.92,0,.71,1.1,1.82,1,2.9,1Z"/><path class="cls-331" d="M22.15,35.48c-.64,1.64-1.28-.6-1.92,0,0-1,0-1.92,0-2.87C22.48,32.5,22.75,33.7,22.15,35.48Z"/><path class="cls-332" d="M22.11,41.28l1,.91c.36.59,1.05,1.1.41,1.9L23,45c-.26.37-.42.84-.89,1-1.39,1-2-.28-2.87-1-.88-1.25-1.54-2.47.41-3.38a1.29,1.29,0,0,0,1.13-.41A.81.81,0,0,1,22.11,41.28Z"/><path class="cls-274" d="M19.69,41.69c-1.27,1-.82,2.19-.41,3.38l-1.64.77c-.31-1.07.77-1.73.65-2.66C18.44,42.38,18.07,41.1,19.69,41.69Z"/><path class="cls-333" d="M15.47,36.48c.74.06,1.72-.35,1.87.91C16.62,37.28,15.6,37.79,15.47,36.48Z"/><path class="cls-334" d="M22.11,41.28h-1.3c-.7-1.88.91-.63,1.33-1Z"/><path class="cls-335" d="M12.55,36.43a.89.89,0,0,1,1-1l.38,0C14,36.58,13.2,36.43,12.55,36.43Z"/><path class="cls-336" d="M15,35.56h2.83A2.37,2.37,0,0,1,15,35.56Z"/><path class="cls-337" d="M26.1,68.16c-.48-.28-1.41.77-1.54-.52a3.38,3.38,0,0,1,1.73-3.73,1.9,1.9,0,0,1,.63.12c.51.33,1,.67,1.68.33l.3-.07h.47c.49.81,1,.59,1.43,0,.86,1.52.84,3.38,1.91,4.81-.84,0-1.83-.22-1.95,1.11,0,.42-.28.79-.77.69-.73-.17-.41-.69-.28-1.12.4-1.42-.57-2.31-1.07-3.45-1.19.55-.31,1.86-1.23,2.29A1.42,1.42,0,0,1,26.1,68.16Z"/><path class="cls-338" d="M32.71,58.52a1.08,1.08,0,0,1,.62,1.94c-1.06,1.06-2.36,2-4,1a.83.83,0,0,1-1,0,1.86,1.86,0,0,1-.66-1.23c.23-1.34,1.13-1.18,2-.79a2.28,2.28,0,0,0,3.11-.88Z"/><path class="cls-339" d="M27,64.29a2.15,2.15,0,0,0-.43,0,2.7,2.7,0,0,1-1.22-2.71.87.87,0,0,1,.52-.4,1.39,1.39,0,0,1,.64.07c.67.59,1.06,1.51,2.05,1.73a1.11,1.11,0,0,1,.43.43c0,.31,0,.61,0,.92h0A1.42,1.42,0,0,1,27,64.29Z"/><path class="cls-340" d="M30.8,64.27c-.18.65.42,1.83-.82,1.76-.95-.06-.52-1.1-.61-1.73C29.85,64.41,30.31,63.73,30.8,64.27Z"/><path class="cls-339" d="M28.41,61.31l.89.14c0,.66.25,1.37-.36,1.92l-.11-.09c-.47-.48-.9-1-.64-1.73Z"/><path class="cls-341" d="M26,61.4a1.74,1.74,0,0,1-.39.05c-.73.69-1.37.68-1.37-.44,0-1.79,1.1-3.43.8-5.32-.06-.41.86-.57,1.42-.63a13.61,13.61,0,0,1,2.71.09,2.18,2.18,0,0,1,.62.22,2.82,2.82,0,0,1,1,1.23,2.53,2.53,0,0,0,1.93,1.93c-.27,1.95-1.34,2.55-3.17,1.56-.81-.45-1.33-1-1.63.34C27.49,61.17,26.48,60.77,26,61.4Z"/><path class="cls-342" d="M28.87,49.88c.11-1.31-.62-3.19,1.92-2.88h0c.28.37.81.49,1,1-.32.74-1.77,1.61.34,2,.91.18.52,1.14.61,1.79-.87-.23-.53.77-1,1-.55.55-.4,1.28-.5,1.95s-.37,1.37-1.35,1l-.1-.11c-.33-1.59,0-3.35-1.18-4.74A1.07,1.07,0,0,1,28.87,49.88Z"/><path class="cls-343" d="M29.88,55.71c.91-.19.93-.9.92-1.62s.08-1.25.93-1.32c-.34,1.27,1,2.94-.94,3.83C30.23,56.57,29.86,56.34,29.88,55.71Z"/><path class="cls-344" d="M31.76,48a.9.9,0,0,1-1-1h1.45l.45,0c-.15.31-.31.62-.46.94Z"/><path class="cls-345" d="M16.8,33.26c0,.35-.15.64-.52.61a.54.54,0,0,1-.54-.61.76.76,0,0,1,.45-.46C16.54,32.69,16.77,32.88,16.8,33.26Z"/><path class="cls-346" d="M26.1,68.16c.47,0,1-.06,1.31.44L27.89,70c-.47,1.73-1.52,1.75-2.85,1C24.65,69.77,25.79,69.12,26.1,68.16Z"/><path class="cls-347" d="M25,71c1.1.1,2.17.15,2.85-1A1.24,1.24,0,0,1,27,72C26.22,71.85,25.16,72.32,25,71Z"/><path class="cls-348" d="M28.27,74c.66-.1-.53-1.19.6-1.06.68.07,1,.4.91,1.06a.79.79,0,0,1-.92.8C28.38,74.79,27.84,74.72,28.27,74Z"/><path class="cls-349" d="M26.51,55.63c-.5.16-2-.24-.63,1,.56.51.18.52-.06,1A13,13,0,0,0,24.64,61c-.18.86.57.4,1,.42.3.93.61,1.87.92,2.8-1.2.81-1.11,2.38-2,3.39l-3.87,2.41a.64.64,0,0,1-1,0c-.95-2.87-.67-3.35,2.14-4.86,1.25-.67.92-1.79.26-2.8s-1.36-1.77-1.23-3c1.17-1.18-.25-3,1.06-4.17,1.45-1.43,2-3,.61-4.77a1.07,1.07,0,0,1,.05-1.5c.87-.64-.18-1.28,0-1.92.15-.22.31-.23.47,0,.18.65.82,1,.83,1.83,0,1.86,1,2.73,3,2l.22.26C26.66,52.57,26.89,54.14,26.51,55.63Z"/><path class="cls-350" d="M22.63,48.92c-.45,1.35,1.37,1.33,1.44,2.42a5.22,5.22,0,0,1-1.46,4.29c-.65-.73-1.79-.13-2.43-.91h0c.46-1-1.65-.82-.93-2,.74,0,1.53,0,1.4-1.09s-1.18-1.33-1.83-1.59c-2-.79-2-.67-1.25-2.75,1,1,2.07,2,3.63,1.57a.64.64,0,0,1,.95,0Z"/><path class="cls-349" d="M22.15,48.91H21.2l-.8-1.7C21.71,47.2,22.21,47.77,22.15,48.91Z"/><path class="cls-351" d="M23.1,47l-.47,0-.48-1A1,1,0,0,1,23,45Z"/><path class="cls-299" d="M20.18,54.72c.87.16,2.09-.65,2.43.91-1.12.15-.9,1-.95,1.76s.24,1.55-.49,2.13a.71.71,0,0,1-1-.11C21.87,57.86,20.69,56.29,20.18,54.72Z"/><path class="cls-352" d="M20.16,59.41l1,.11c.31.95,1.35,1.65,1,2.83H21.2a4.5,4.5,0,0,1-1.33-.67c-.35-.28-.31-.68-.3-1.06s-.06-.75.19-1.07A1.17,1.17,0,0,1,20.16,59.41Z"/><path class="cls-300" d="M19.76,59.54l.44.89a2.72,2.72,0,0,1-2.3.49,2.14,2.14,0,0,1-1.5-.47c0-.35,0-.69,0-1Z"/><path class="cls-227" d="M19.8,61.37c.68,0,1.36,0,1.4,1,0,.62,0,1.3-.85,1.45-.37.06-1.05.29-1,.38.27,2.06-1.38,2.06-2.75,2.32.51,1.12,2.45.13,2.18,1.8-.16,1-.91.15-1.35.31a1.69,1.69,0,0,1-1.47-.49h0a1.58,1.58,0,0,0-1-.93c1.27-1.37,3-2.54,2.41-4.82h0C18.28,62.31,18.77,61.17,19.8,61.37Z"/><path class="cls-353" d="M16.4,60.45l1.36,0c.38.54-.18.65-.41.91h-.94C16.41,61.08,16.4,60.77,16.4,60.45Z"/><path class="cls-297" d="M17.35,61.39c.14-.31.28-.61.41-.91l2.44,0c-.14.31-.27.63-.4.94a2.47,2.47,0,0,1-2.45,1C17.09,62,18.93,61.71,17.35,61.39Z"/><path class="cls-354" d="M26,76.78a.93.93,0,0,1-1,1,1,1,0,0,1-1.42,0C24.19,76.81,24.68,75.69,26,76.78Z"/><path class="cls-230" d="M23.61,77.7l1.42,0v.94c-1.31,0-.61,1.95-1.91,1.93.16-.64.31-1.28.47-1.92-.26-.27-.77-.42-.48-1Z"/><path class="cls-355" d="M23.59,71c.38.07,1,.32.67.62-.59.52-1.5,1.16-2.11-.13-.14-.11-.19-.22-.14-.32s.1-.15.15-.15l.95,0C23.27,70.76,23.43,70.77,23.59,71Z"/><path class="cls-349" d="M22.16,71c0,.15,0,.31,0,.47-.81.16.46,2.38-1.45,1.44h0C21.19,72.29,20.44,70.71,22.16,71Z"/><path class="cls-356" d="M19.74,70l1,0a1,1,0,0,1-.45,1l-.95,0a.62.62,0,0,1,0-.95A3.4,3.4,0,0,0,19.74,70Z"/><path class="cls-349" d="M23.59,71h-.48l0-1.26a1.36,1.36,0,0,1,.42.09C24,70.15,23.75,70.58,23.59,71Z"/><path class="cls-322" d="M23.11,77.73l.48,1c-.68,0-1.4,0-1.41-1Z"/><path class="cls-357" d="M15.52,71c-.32,0-.68,0-.76-.38s.32-.46.61-.5.68,0,.75.37S15.8,70.89,15.52,71Z"/><path class="cls-309" d="M15.92,68.11a1.61,1.61,0,0,1,1.47.49c0,.16-.06.32-.08.49C16.62,69.08,15.93,69.08,15.92,68.11Z"/><path class="cls-349" d="M19.29,70V71c-.08.67.2,1.42-.48,1.94C19,72,18.38,70.88,19.29,70Z"/><path class="cls-358" d="M28.87,49.88v1a1.34,1.34,0,0,1-1.89,0l-.09,0C27.12,49.62,28.08,49.93,28.87,49.88Z"/><path class="cls-359" d="M23.53,44.09c-.14-.63-.27-1.27-.41-1.9a1,1,0,0,1,1,.49C24,43.2,24.21,43.81,23.53,44.09Z"/><path class="cls-360" d="M27,64.29h1.92c-.06.5-.25.88-.84.92A.9.9,0,0,1,27,64.29Z"/><path class="cls-361" d="M26,61.4c.16-1.28,1.17-.88,1.93-1l.49.88,0,.16a1.42,1.42,0,0,1-1.87,0Z"/><path class="cls-362" d="M26.51,61.44l1.87,0,.45,1.81C27.36,63.56,26.59,62.93,26.51,61.44Z"/><path class="cls-363" d="M27,50.87l1.89,0c2,1.27,1.6,3,.9,4.76l-3.27,0A4.24,4.24,0,0,1,27,50.87Z"/><path class="cls-364" d="M23.08,57.56c0,.31,0,.68-.45.68s-.43-.38-.43-.69,0-.68.44-.68S23.05,57.25,23.08,57.56Z"/></g></g></svg>