<svg xmlns="http://www.w3.org/2000/svg" viewBox="0 0 62.5 61.43"><defs><style>.cls-1{fill:#70ad69;}.cls-2{fill:#e2ebb6;}.cls-3{fill:#83b374;}.cls-4{fill:#62a867;}.cls-5{fill:#dbe8cd;}.cls-6{fill:#67a75b;}.cls-7{fill:#6aa562;}.cls-8{fill:#60a55a;}.cls-9{fill:#69ab62;}.cls-10{fill:#6cad6a;}.cls-11{fill:#6bad63;}.cls-12{fill:#7fb27a;}.cls-13{fill:#6db274;}.cls-14{fill:#70ab63;}.cls-15{fill:#55a85f;}.cls-16{fill:#da6846;}.cls-17{fill:#5ba75f;}.cls-18{fill:#9fd1b0;}.cls-19{fill:#df6537;}.cls-20{fill:#e46942;}.cls-21{fill:#f8c798;}.cls-22{fill:#67a864;}.cls-23{fill:#f8da9f;}.cls-24{fill:#bedfc4;}.cls-25{fill:#62ac6f;}.cls-26{fill:#89c79f;}.cls-27{fill:#8fcda5;}.cls-28{fill:#9dd2b0;}.cls-29{fill:#89caa2;}.cls-30{fill:#6eaa5b;}.cls-31{fill:#7fc79b;}.cls-32{fill:#49b26e;}.cls-33{fill:#82c79c;}.cls-34{fill:#54a556;}.cls-35{fill:#4caa72;}.cls-36{fill:#94cda5;}.cls-37{fill:#8ecbad;}.cls-38{fill:#79c598;}.cls-39{fill:#f8ca62;}.cls-40{fill:#f8d87c;}.cls-41{fill:#fbd698;}.cls-42{fill:#aed7b9;}.cls-43{fill:#77c393;}.cls-44{fill:#67bd80;}.cls-45{fill:#f1c86b;}.cls-46{fill:#fee49d;}.cls-47{fill:#8dc9a4;}.cls-48{fill:#45a347;}.cls-49{fill:#36a049;}.cls-50{fill:#facf56;}.cls-51{fill:#f4c26b;}.cls-52{fill:#f5cf78;}.cls-53{fill:#e5cd63;}.cls-54{fill:#10a058;}.cls-55{fill:#aad6ba;}.cls-56{fill:#acd7b5;}.cls-57{fill:#add8ba;}.cls-58{fill:#badec5;}.cls-59{fill:#cee4d4;}.cls-60{fill:#a2d2b0;}.cls-61{fill:#86caa1;}.cls-62{fill:#8dcca5;}.cls-63{fill:#91cda6;}.cls-64{fill:#73c59a;}.cls-65{fill:#93cfa9;}.cls-66{fill:#b2d9bf;}.cls-67{fill:#c0dfc8;}.cls-68{fill:#c0dfc7;}.cls-69{fill:#b3dac0;}.cls-70{fill:#b7dbc1;}.cls-71{fill:#9bd1b0;}.cls-72{fill:#d8cf69;}.cls-73{fill:#bfdfc8;}.cls-74{fill:#b0d9c1;}.cls-75{fill:#e0eee4;}.cls-76{fill:#e7f1e7;}.cls-77{fill:#cce7da;}.cls-78{fill:#e6f1e9;}.cls-79{fill:#cce5c9;}.cls-80{fill:#90cda7;}.cls-81{fill:#9ed3af;}.cls-82{fill:#c3e2cd;}.cls-83{fill:#d0e8d9;}.cls-84{fill:#d4e9db;}.cls-85{fill:#c7e3d1;}.cls-86{fill:#daebdf;}.cls-87{fill:#c0e2d3;}.cls-88{fill:#f0f6f0;}</style></defs><title>hat1</title><g id="Layer_2" data-name="Layer 2"><g id="Layer_1-2" data-name="Layer 1"><path class="cls-1" d="M43.12,17.29l.46-.1,1.93,2a4.39,4.39,0,0,1,1.38.86,6.69,6.69,0,0,1,1.32,3.05c-.15,1.34-.94,1-1.73.65s-.84-1.22-1.47-1.66a5.84,5.84,0,0,1-2.48-2.76C42.81,18.67,42.63,17.88,43.12,17.29Z"/><path class="cls-1" d="M40.15,14.38c.85.73,2,1.19,2.39,2.33-.82.7-1.53.25-2.25-.2-.51-.82-1.75-1-1.94-2.1l.45-.17Z"/><path class="cls-2" d="M47,19.14a1.12,1.12,0,0,1-.54,1l-.93-1Z"/><path class="cls-3" d="M47.91,23l1.44.94c.07.39.14.77.54,1a4.4,4.4,0,0,1,.71.9,2.15,2.15,0,0,1,.24,1.11l4.22,6.67a.73.73,0,0,1,.21.88c-1.72.69-1.54-1.67-2.79-1.73a2.18,2.18,0,0,1-1.09-1.07,31.74,31.74,0,0,0-4.26-6.55c-.38-.47-1-.89-.61-1.65C47,23.27,47.82,24.21,47.91,23Z"/><path class="cls-4" d="M52.7,32.57c.09-.55.38-1.05.76-.3s.68,1.74,1.6,2.21c1.1.88.87,2.32,1.44,3.43,0,1.53.09,3.05.14,4.57a.6.6,0,0,1-.07.75,1.34,1.34,0,0,1-1.52,0c-.76-.94-.52-2.1-.69-3.17a15.07,15.07,0,0,0-1.94-6A1.43,1.43,0,0,1,52.7,32.57Z"/><path class="cls-5" d="M56.5,37.91c-.93-.95-.91-2.31-1.44-3.43v-.93C56.46,34.7,56.46,36.31,56.5,37.91Z"/><path class="cls-6" d="M.34,48.94c0-3.28-.34-6.58.46-9.83,1,.85.65,2,.75,3.11.22,2.42-.49,4.91.5,7.28a25.72,25.72,0,0,1,1.36,5.89,4,4,0,0,1-.32,2,1,1,0,0,1-.63.43,1.31,1.31,0,0,1-.72-.18C.38,55.48.52,53,0,50.68A4.29,4.29,0,0,1,.34,48.94Z"/><path class="cls-7" d="M1.91,26.86l.89-1a1.54,1.54,0,0,1,.39,1.56,3.07,3.07,0,0,1-.23.64,3,3,0,0,0-.41,2.26c.44,2.68,1,5.35-.21,8-.14.09-.3.05-.42.07-.49.06-.06-1.68-1.06-.53a79.66,79.66,0,0,1,.48-9.52A1,1,0,0,1,1.91,26.86Z"/><path class="cls-8" d="M.86,37.83l.91-1.15.11,1.68c1,1.4.6,3,.48,4.47a7,7,0,0,0,0,4.28c.13,1,.31,1.94-.51,2.72-1.32-.26-.9-1.32-.92-2.12C.83,44.85.82,42,.8,39.11Z"/><path class="cls-9" d="M12.43,55.2a23.89,23.89,0,0,1-5.71,2.47,1.07,1.07,0,0,1-.44-.5,1.76,1.76,0,0,1,.28-1.63,11.23,11.23,0,0,1,2-1.19,9.43,9.43,0,0,0,2.74-1.1A2.55,2.55,0,0,1,13,52.86c.8.23,1.72.12,2.38.79C14.91,55.16,13,53.84,12.43,55.2Z"/><path class="cls-10" d="M23.35,56.76l-5.16-3L18,53.45c.21-.68.19-1.2-.71-1.3-.38,0-.74-.25-.68-.76,1.72-1.36,3.12-.76,4.37.73.7.71,1.38,1.45,2.14,2.11.38.36.85.65.89,1.25C23.82,55.91,23.78,56.44,23.35,56.76Z"/><path class="cls-11" d="M23.35,56.76c0-.52-.39-1.2.61-1.19,1.05-.18,1.92.51,2.92.56a6.75,6.75,0,0,1,2.34,1.57c.56.7,1.21,1.41,0,2.09-1.5.19-2.54-.93-3.84-1.31l-1.94-1.32A2.76,2.76,0,0,1,23.35,56.76Z"/><path class="cls-12" d="M2.36,57.52h.47c.28-.44,1.26-.27,1-1.17A2.09,2.09,0,0,1,5.66,56c.35.47.11,1.33,1,1.48a.92.92,0,0,1,.09.23c-1.08,1.67-2.53,1.26-4,.72C2.44,58.17,2,58,2.36,57.52Z"/><path class="cls-13" d="M12.43,55.2c.36-1.62,2.14-.58,2.85-1.52a2.11,2.11,0,0,1,2.82-.12l.09.17C16.4,54.73,14.24,54.27,12.43,55.2Z"/><path class="cls-14" d="M38.35,14.41c.67.57,2,.47,1.89,1.82l-.31.15c-1.37,0-2.65-.77-4-.41A9.89,9.89,0,0,1,32,15.92a7.58,7.58,0,0,0-2.5.29,11.59,11.59,0,0,1-2.28.21C23.69,16.22,20.49,18,17,18.23a7.3,7.3,0,0,1-2.33.28,1.57,1.57,0,0,1-1-1.09.88.88,0,0,1,.72-1.11l3.3-1.12c1.1-.48,2.2-1,3.34-1.37a6,6,0,0,1,1.12-.13c.78,0,1.56,0,2.34,0,.54,0,1.09,0,1.64,0,2.44-.11,4.88,0,7.32,0,1.17.06,2.39-.19,3.43.57Z"/><path class="cls-15" d="M13.72,17.11a1.07,1.07,0,0,1,.6,1c.25.51-.05.84-.38,1.16-.74.42-1.51.78-2.29,1.13a3,3,0,0,0-1.79,1,5.31,5.31,0,0,1-1.23.93A7.44,7.44,0,0,0,6,24.91a6.81,6.81,0,0,1-.83.95c-.14.16-.3.3-.45.45-.64.47-.74,1.66-1.9,1.46l0-1.91c.18-.62.35-1.23.52-1.84.81-.88.86-2.36,2.2-2.84a27.51,27.51,0,0,1,6.87-4A1.07,1.07,0,0,1,13.72,17.11Z"/><path class="cls-16" d="M18.74,13.29c-.56-1.36-2.42-2.42-1-4.24.5-.2.82.07,1.11.41a3.42,3.42,0,0,1,.26.59c.18.46.19,1.07.94,1,.69-.29,1.37-.69,2.09-.11a1.72,1.72,0,0,1,.3,1.24c-.29.67,0,1.44-.34,2.1l-1,.1a1.62,1.62,0,0,1-1-1Z"/><path class="cls-17" d="M61.34,58.91a1.34,1.34,0,0,0-.44.1c-.9,1.1-2.41.62-3.46,1.32l-.95.23-.09-.3c0-.07,0-.17.07-.22s.19-.25.13-.23c-1.08.39-2.19-.05-3.43.19.68-.06,1.19-.06,1.56.42-.3,1.24-1.19,1-2,.79a59.69,59.69,0,0,1-9.07.09c-.77-.53-1.8.22-2.52-.53.65-1.59,2.41-.63,3.38-1.48,1.79-.79,3.68-.42,5.53-.52,3.33-.41,6.84-.05,9.72-2.33.67-.2,1.08.22,1.5.62a1.77,1.77,0,0,1,.36.53,1.22,1.22,0,0,1-.17.91A1.15,1.15,0,0,0,61.34,58.91Z"/><path class="cls-18" d="M41.21,60.85c.8.14,1.7-.19,2.41.45l-11.54.08-2.38-.1c0-.29,0-.57-.05-.86.17-.16.32-.42.56-.42C33.9,60,37.61,59.73,41.21,60.85Z"/><path class="cls-19" d="M28.76,0a4.58,4.58,0,0,1,5,3.25C34,4,34.13,4.61,35.13,5c3.26,1.12,4,3.21,2.55,6.36-.3.65-.56,1.31-.84,2-.66.69-1.51,1.15-2.31.51s.06-1.3.22-2c.13-1,.87-1.82,1-2.84C36,6.31,34.14,7.6,33,7.51a1.14,1.14,0,0,1-1.1-.65c-.12-.55.09-1.11,0-1.65-.18-1.12,0-2.43-1.65-2.74-1.86-.36-2,1-2.32,2.21a1.29,1.29,0,0,1-1.26.38,1.42,1.42,0,0,1-.58-.36,3,3,0,0,1-.52-2.21c.15-.4.51-.61.82-.88s.61-.45.91-.69Z"/><path class="cls-20" d="M26.8,1.89l-1.05.45c-1,.44-2.18.44-3.07,1A2.85,2.85,0,0,0,21.25,6.8a2.6,2.6,0,0,1-2.5,2.75l-1-.5a7.62,7.62,0,0,0,1-4.67c.17-1.84.85-3.24,2.94-3.44a8.08,8.08,0,0,1,4.19.4A1,1,0,0,1,26.8,1.89Z"/><path class="cls-21" d="M26.8,1.89c-.4,0-.78-.12-1-.55.38-.57.94-.46,1.49-.42Z"/><path class="cls-22" d="M59.29,51.24c.52,1.39,1.82,2.17,2.57,3.38.2,1,.67,2.09-.39,3l-.17-.09C60.81,57,61,56,60.15,55.74c-1.08-.68-2.22-1.3-2.35-2.77a2.1,2.1,0,0,0,0-1.4.87.87,0,0,1,.57-1A.79.79,0,0,1,59.29,51.24Z"/><path class="cls-18" d="M61.47,57.57c.63-.92.37-2,.39-3a2.65,2.65,0,0,1-.44,3.88C61.44,58.19,61.45,57.88,61.47,57.57Z"/><path class="cls-23" d="M35.43,11.89c.35.74-1.19,1-.5,1.7s1.26-.22,1.91-.3l.06.92-3.41.06a1.64,1.64,0,0,1-.65-1.17,3.93,3.93,0,0,1,.79-1.69c.29-.44.55-1.09,1.2-.92S35,11.53,35.43,11.89Z"/><path class="cls-24" d="M25.35,58.48c1.42-.24,2.45,1.09,3.84,1a.59.59,0,0,1,.09.87l-1.52.08C27.4,59.19,25.7,59.69,25.35,58.48Z"/><path class="cls-25" d="M29.28,60.31l-.09-.87c1-.85-.4-.93-.47-1.44a1.73,1.73,0,0,1,1.8-.35c3.92,1.33,8.06.86,12.05,1.55a3.14,3.14,0,0,1,2,.69c-.88,1.13-2.44-.1-3.34,1-3.88.5-7.7-.53-11.56-.43A1,1,0,0,0,29.28,60.31Z"/><path class="cls-14" d="M40.24,16.23l2.3.48c.2.19.39.39.58.58-.16.61,1.13,1.6-.48,1.83l-.33-.07c-1-.75-2.19-1.29-2.07-2.82Z"/><path class="cls-26" d="M32.06,15.36c1.28,0,2.57.58,3.84-.08,2.91.11,4.77,2.06,6.73,3.83h0c.89.89,1.52,2.08,2.85,2.47-.23,1.25-1.28.84-2,1a6.07,6.07,0,0,1-3.94-2.24,2.32,2.32,0,0,0-2.46-.87,3.71,3.71,0,0,1-.67,0c-1.68-.7-3.72-.63-4.93-2.34A2.9,2.9,0,0,1,32.06,15.36Z"/><path class="cls-27" d="M43.11,22c.8-.11,1.68.29,2.38-.4.72.4.5,1.34,1,1.84,2,2.57,4.26,4.95,5.25,8.16-.77.28-1.19-.27-1.63-.71-.87-.87-1.34-2.37-3.15-1-.8.59-1.46-.39-1-1.36.55-1.21.52-1.87-.64-2.94C44.43,24.71,42.69,23.86,43.11,22Z"/><path class="cls-28" d="M43.11,22c1.56,1,1.56,3.53,3.88,3.71.61.05.38.58.27.92-.3.93-.64,1.85-1,2.78a3,3,0,0,0,.45.18c1.57-2.36,2.56-1.08,3.52.54a3.36,3.36,0,0,0,1.51,1.47l.93,1,0,1.41c1.82,3.66,1,7.35.1,11-1.28.12-1.08-.91-1.18-1.6a19.35,19.35,0,0,1-.06-2.85c0-2.24,0-4.44-1.94-6.08-.42-.36-.43-1-.65-1.51s-.43-1.19-1.08-1.14c-4.86.42-5.92-3.53-7.66-6.65-.85-1.52-1.09-3.37-3.34-3.84-.83-.18-.69-1.46,0-2.24a2,2,0,0,1,3,.77A5.51,5.51,0,0,0,43.11,22Z"/><path class="cls-29" d="M52.72,45c0-3.69.72-7.37,0-11.05,2.43,2.61,2.23,5.92,2.4,9.13a2.6,2.6,0,0,1,.61,1.75A7,7,0,0,0,56,47c.12,1.09.66,2.17.14,3.28-1.24.26-1.35-.71-1.64-1.49C54.27,47.39,52.85,46.52,52.72,45Z"/><path class="cls-30" d="M55.14,45c0-.63,0-1.27,0-1.9h1.39c.21.64-.15,1.4.44,2,.39,1.64-.76,3.74,1.45,4.83,0,.3.05.6.08.9a1,1,0,0,0-.49.94.82.82,0,0,1-.51.28,1.71,1.71,0,0,1-1.07-.48,2.07,2.07,0,0,1-.53-.72.5.5,0,0,1,.19-.52L55.54,47C55.59,46.29,55.74,45.58,55.14,45Z"/><path class="cls-31" d="M2.83,27.77c1-.23.64-1.89,1.88-1.95.66.8.16,1.54-.21,2.19a8.67,8.67,0,0,0-1,5.56C6,33,5.78,30.26,7.38,28.7a4.11,4.11,0,0,1-2.67-2.88l.93-1c2.66.72,2.33-1.53,2.88-2.91l1-.89c.55-.5,1.37-.46,1.91-1,.75-.42,1.38-1.14,2.37-1,1.22,0,.93,1,1.06,1.67a2.67,2.67,0,0,1-.27,1.11,1.38,1.38,0,0,1-.54.48c-3.63.68-4.22,1.88-2.53,5.32a2.73,2.73,0,0,1,.1,2.08c-.69,2.63-1.48,5.26.76,7.64.6.63,0,1.36-.39,1.95a9.84,9.84,0,0,0-1.61,4.43c-.25,2.11-2,3.1-3.9,3.63a1.57,1.57,0,0,1-.9-.51C4.7,45.67,5.12,44.27,5,43c-.12-1.71.27-3.48-.6-5.13.05,2.14,0,4.27,0,6.4a3,3,0,0,0,1,2.53c1,2.88,1.93,5.77.31,8.74a.92.92,0,0,1-.1.59,3.25,3.25,0,0,1-1.88.46c-.52-.15-.66-.68-1-1-.33-1.9-.67-3.79-1-5.69,0-1,0-1.93,0-2.9a7.68,7.68,0,0,1,0-3.81c0-1.58,0-3.17.07-4.76,1-2.9.39-5.8,0-8.69.52-.54.46-1.38,1-1.91Z"/><path class="cls-32" d="M2.81,55.52a1,1,0,0,1,1,1c.42,1.07-.26,1-1,1C2.82,56.85,2.82,56.18,2.81,55.52Z"/><path class="cls-15" d="M2.83,27.76c0,.82-.11,1.55-1,1.91C1.8,28.84,1.92,28.1,2.83,27.76Z"/><path class="cls-6" d="M1.81,43.12c0,1.27,0,2.54,0,3.81A3.77,3.77,0,0,1,1.81,43.12Z"/><path class="cls-33" d="M21,52.73c-1.3-.94-2.47-2.44-4.3-1-.92,1.52-2.41,1.48-3.9,1.4l-1.4.52a.5.5,0,0,1-.7,0c-1.33-2.61-.51-3.73,3.15-4.3,2.42-.29,5-.13,6.41-2.86.54-1,1.54-2.08,3.11-1.1,1.81,1.13,2.16,2,1.39,4.08C24,51.09,22,51.28,21,52.73Z"/><path class="cls-34" d="M12.84,53.16l3.9-1.4h2.54c.13,1.16-1,1.16-1.18,1.8l-2.82.12C14.46,53.55,13.51,54,12.84,53.16Z"/><path class="cls-35" d="M5.68,56.08a3.7,3.7,0,0,0,0-.47l.2-.2a1,1,0,0,1,.55,0l.19.21c0,.6,0,1.21,0,1.82C5.12,57.81,5.59,56.82,5.68,56.08Z"/><path class="cls-13" d="M11,53.64l.49,0a3.33,3.33,0,0,1-2.87,1l-.1-.31a1.74,1.74,0,0,1,1.24-1A1.32,1.32,0,0,1,11,53.64Z"/><path class="cls-13" d="M8.57,54.65c-.38.85-1.12,1-1.93,1v0c-.25-.54.17-.74.48-1a1.85,1.85,0,0,1,.58-.25.9.9,0,0,1,.85.27Z"/><path class="cls-36" d="M21,52.73c-.32-.68-.63-1.36.52-1.52S23.5,50,24.4,49.35a1.15,1.15,0,0,1,.34.52c.21.87-.5,1.76,0,2.62a5.82,5.82,0,0,1,.45.4.89.89,0,0,1,.28.53c-.3,1.28-1.41,1-2.27,1.14l-.3.08A5.6,5.6,0,0,1,21,52.73Z"/><path class="cls-37" d="M26.81,56.55a3.78,3.78,0,0,1-2.85-1l-1-.93,0,0C26.13,54.05,26.66,54.32,26.81,56.55Z"/><path class="cls-18" d="M26.81,56.55c-.57-2-2.21-2-3.82-2,0-.55.23-1,.87-.69s1.18-.07,1.49-.7a2.1,2.1,0,0,1,2.19.19c.92.58,1.74.23,2.61,0a12.26,12.26,0,0,0,4.66.58,3.81,3.81,0,0,1,2.5.54c.78,3.29.78,3.29,4.37,3.29,2.37,0,4.73,0,7.1,0a5.11,5.11,0,0,1,2.29.39c.84,1.07-.49.82-.75,1.23-1.91.31-3.9-.39-5.77.47-5.31-.36-10.66-.4-15.83-1.89Z"/><path class="cls-38" d="M14.32,21c-.06-.68.22-1.44-.51-2l.51-.93c2.78-.89,5.75-.81,8.5-1.88a9.69,9.69,0,0,1,4.45-.5,7.61,7.61,0,0,1,.62,2.86c-.32.94-1,1.73-1.2,2.71s1,2.49-1,2.89c-1.22.25-2.39.07-2.6-1.32-.24-1.62-1.07-1.44-2.31-1.39C18.65,21.61,16.4,22.21,14.32,21Z"/><path class="cls-39" d="M33.07,13.33a.89.89,0,0,1,.42.94l-7.62-.12c0-1-2.05-1.79-.39-3a4.89,4.89,0,0,1,1.86-.27A5.71,5.71,0,0,0,33,7.13c2.81-1.07,3.31-.79,3.31,1.89C34.51,8.93,33.33,10.47,33.07,13.33Z"/><path class="cls-26" d="M27.75,18.63c-.35-.93-1.28-1.75-.48-2.86l2.4,0a2.09,2.09,0,0,1,1.29.9c.77,1.4-.51,1.88-1.19,2.62a1.64,1.64,0,0,1-1.84-.35Z"/><path class="cls-40" d="M25.36,11.43c-.55,1,1.55,1.59.51,2.72l-1.5.09c-1.26,0-1.06-1.82-2.3-1.84l-.14-1.33a.45.45,0,0,1-.13-.38c0-.14,0-.21.07-.21a1,1,0,0,1,.59-.2c.75,0,1.27.59,2,.67C24.81,11,25.45,10.52,25.36,11.43Z"/><path class="cls-1" d="M42.63,19.11a2.66,2.66,0,0,1-2.07-1.4c-1.16-1.63-3.14-1.57-4.66-2.43a8.2,8.2,0,0,1,4.34,1Z"/><path class="cls-41" d="M22.07,12.4c2.16-1.13,1.42,1.37,2.3,1.84H22.1C22.09,13.63,21.49,13,22.07,12.4Z"/><path class="cls-42" d="M30.61,16.73l-.94-1c.7-.7,1.57-.42,2.39-.38.47.66.21,1.08-.45,1.36A.72.72,0,0,1,30.61,16.73Z"/><path class="cls-43" d="M8.52,21.93a3.64,3.64,0,0,0,.17,1.17c.59,1.16-.25,1.86-.89,2.43-.93.84-1.52-.17-2.16-.69A4.31,4.31,0,0,1,8.52,21.93Z"/><path class="cls-44" d="M11.44,20.07c-.36.87-1.1,1-1.91,1C9.88,20.15,10.62,20,11.44,20.07Z"/><path class="cls-45" d="M22,10.47c0,.2-.05.4-.07.6-.91-.5-1.25.49-1.89.71a5.61,5.61,0,0,1-1.28-1.73c0-.17,0-.33,0-.5.79-.94,2-1.57,2.26-2.9a.51.51,0,0,1,.6,0C22,7.88,21.22,9.25,22,10.47Z"/><path class="cls-46" d="M18.76,10.05c1,.13,1.15.94,1.28,1.73C18.82,11.79,18.48,11.15,18.76,10.05Z"/><path class="cls-47" d="M50.32,59.42l1-.93a1.74,1.74,0,0,1,1.29-.59c.56-.06,1.13,0,1.7-.1,1.26-.74,1.61-2.13,2.34-3.25a8,8,0,0,1,.77-1.83.56.56,0,0,1,.62,0c.3,1.38,1.69,1.84,2.4,2.87a.64.64,0,0,1,0,.94C57.61,59.54,53.78,58.8,50.32,59.42Z"/><path class="cls-48" d="M56.6,60.29l-1.85.17-2.18-.21C54.2,59.08,55.9,59.13,56.6,60.29Z"/><path class="cls-49" d="M60.39,56.54c0-.31,0-.63,0-.94,1.88-.13.54,1.28.89,1.88C60.66,57.5,60.42,57.12,60.39,56.54Z"/><path class="cls-50" d="M22,10.47c-2.21-1-.53-2.52-.47-3.83,1-2.85,2.89-3.63,4.84-2h0c1,1.12,2.18.19,3.27.2a1.49,1.49,0,0,1,1,.19.93.93,0,0,1,.21.62,7.7,7.7,0,0,0-.58,2c.59-.07.83-.59,1.19-.94A.65.65,0,0,1,32,6.62c.21.46.62.48,1,.51.18,2.31-1.69,4.07-4.61,4.28-1,.08-2.05,0-3.07,0-.31-.53-.64,0-1,0a2.58,2.58,0,0,0-2.4-1Z"/><path class="cls-51" d="M26.37,4.67c-2.29-1-3.55.52-4.84,2H21c-.92-1.11.17-3.85,1.85-4.17a4.67,4.67,0,0,1,2.89-.14C26,3.12,26.17,3.89,26.37,4.67Z"/><path class="cls-52" d="M33.07,13.33c-1.26-.79-.47-1.7-.08-2.5.27-.55.86-.91,1-1.58C34.56,7.05,35.46,8,36.35,9c.52,1.22-1.29,1.7-.92,2.87l-.79-1.07Z"/><path class="cls-39" d="M32,6.62l-.4,0-.24-.2c-.4-.81-.14-1.85-.86-2.55-.51-.49-.89-.4-1.26.19s-.73,1.24-1.57.6c.06-1-.54-2.33,1-2.73,1-.25,2.23-.57,2.87.36C32.46,3.57,33.17,5.06,32,6.62Z"/><path class="cls-53" d="M27.68,4.68c.88,0,.95-.61,1.12-1.25.24-.85,1-.67,1.6-.6s.31.57.24.92c0,.1-.06.19-.08.28a4.34,4.34,0,0,1-.88,1.16c-1,.88-2.11.45-3.17.4-.62,0-.2-.59-.14-.93Z"/><path class="cls-54" d="M58,52.73a2.33,2.33,0,0,0-.46-.08c-.26-.3-.33-.59,0-.87a1,1,0,0,0,.43-.05c.36.08.84.09.74.61C58.71,52.51,58.26,52.61,58,52.73Z"/><path class="cls-55" d="M36.88,19.11V21c.77-.19.25-1.42,1.14-1.23.68.15.39,1.1.57,1.27C40,22.46,40.42,24.36,41.37,26a15.71,15.71,0,0,0,1.31,2.49c1,1.15,1.88,2.75,4,2.55,1-.1,2.53-.21,2.69,1.56l-.27.27c-3.39,1-6.3.43-8.36-2.71a2.41,2.41,0,0,1-.4-.63,11.51,11.51,0,0,0-5.17-7.4c-1.29-.83-1.63-1.86-.6-3.15a2.93,2.93,0,0,1,1.85.17Z"/><path class="cls-56" d="M36.41,19.1l-1.95,0a2.22,2.22,0,0,1-1,.53c-1.24,0-2.45.65-3.71.12a.46.46,0,0,1-.09-.66c-.23-1,1.87-1.1.94-2.38h1C32.7,18.53,35.09,17.75,36.41,19.1Z"/><path class="cls-57" d="M52.72,45a7.42,7.42,0,0,1,2.37,3.36,1.65,1.65,0,0,1-2.35,0A13.21,13.21,0,0,0,50.26,47c-1.45-.74-2.35-1.39-.41-2.77,1.23-.88,1.18-4.84,0-6.18a4.51,4.51,0,0,1-.51-5.46h0c1.58,2.12,3.1,4.26,2.89,7.13-.09,1.27,0,2.55,0,3.82C52.24,44.06,52.19,44.63,52.72,45Z"/><path class="cls-58" d="M49.35,32.56c0,1,0,2.06,0,3.09,0,.46,0,1.18.28,1.32,3.36,1.79,1,4.79,1.53,7.17.25,1.23-1.41.58-2.2,1.41,2.24.69,3.69,2.69,6.11,2.84,0,.79.08,1.57,1,1.9a1.44,1.44,0,0,1,.08.46c-1.22.91-2.25-.32-3.4-.32s-1.83-1.22-3-1.63c-1.46-.51-2.12-2.27-2.7-3.78a2.47,2.47,0,0,1-.15-.46c-.67-3.78-2.85-6.86-4.65-10.13C41.47,33,40,31.64,40.72,29.67c.08,0,.2,0,.23,0C43,32.8,46.14,32.82,49.35,32.56Z"/><path class="cls-4" d="M55.14,45c1.35.42,1.12,1.15.4,2C55,46.42,55.12,45.7,55.14,45Z"/><path class="cls-59" d="M40.72,29.67a31.62,31.62,0,0,0,3,5.87c1.58,2.86,3.23,5.7,3.91,9.06a5.55,5.55,0,0,0,4.2,4.54,15.89,15.89,0,0,1,4.31,1.61c.15.16.3.33.44.5a1.43,1.43,0,0,1,.17,1.37c-.8.86-1.78.36-2.68.37a1.09,1.09,0,0,1-.58-.33c-.25-.76-.46-1.41-1.53-1.48a36.32,36.32,0,0,1-4.27-.52c-.9-.31-2-.38-2.11-1.66a7.82,7.82,0,0,0-.86-5.83c-.56-2-1.4-3.82-2-5.76a24.57,24.57,0,0,0-2.7-5c-.58-.89-1-1.8-.32-2.84a.84.84,0,0,1,1,.09Z"/><path class="cls-60" d="M56.56,52.71c0-.49,0-1,0-1.46l1,.53c0,.29,0,.58,0,.87-.12.67.2,1.46-.51,2a1.06,1.06,0,0,1-1.16.3.84.84,0,0,1-.42-.43C55.44,53.67,56.05,53.22,56.56,52.71Z"/><path class="cls-61" d="M14.32,21c2.62-.34,5.32.66,7.92-.58.73-.35,1.3.5,1.46,1.17.54,2.28.5,2.29,2.74,1.84-.09-.8-1.25-1.59-.12-2.43l.27.15a4.5,4.5,0,0,1,.81,1,2,2,0,0,1,.25.61,2,2,0,0,1-.18,1.27c-1,.89-.51,2.14-.74,3.21a1.55,1.55,0,0,1-.32.54c-.34.1-.78.05-.64.67a16.87,16.87,0,0,1-.16,5.4c-.6,1-.15,2.36-.95,3.33s-.58,2-.8,3.08c-.19.74-.08,1.89-1.08,1.87s-1.15-1.15-1.32-2c-.44-2.21-2-3-3.58-1.57-2.65,2.34-5.94,4.13-7.21,7.76a4.62,4.62,0,0,1-2.16,1.81c-1,.29-2.16.64-1.87-1.19,1.26-1.27,3.94-1.49,3.08-4.35-.15-.46.58-1.13.66-1.73.18-1.39,3.35-2.68.18-4.19,0-2.34-.7-4.74.43-7,.31-.63.7-1.42.12-1.69-2.23-1.05-1-2.91-.9-4.24.18-2.76,2.57-1.51,4.11-1.78.42,1,.66,1.91-.67,2.3-.94.27-1.76.57-1.43,1.74s.37,2.82,1.75,2.84c2.51,0,3.82,1.69,5.41,3.12,1.37,1.23,2.23,1,2.76-.75a21.34,21.34,0,0,0,.53-2.34C23,27.17,22,26,20.33,25.33c-2.17-.79-4.67-1-6-3.34Z"/><path class="cls-62" d="M6.64,47c.38,1.47,1.27,1,2.08.5A20,20,0,0,0,10.48,46c.59,1,1,2.28,2.72,1.58.87-.35,1.69.37,2,1.25s-.35.91-.92,1C10.93,50.2,10.25,51,11,53.64l-1.42,0c-.62.34-1.45.28-1.92.94h0c-.62.36-1.46.28-1.91,1h0c-1.16,0-1.67-.36-.46-1.15,1-.67,1.2-1,.67-2.36-.6-1.51-.2-3.42-.23-5.15h1Z"/><path class="cls-63" d="M4.71,25.82c1.09.41,1.26,2.3,2.91,1.8.19.7,1.8,1.48-.12,2.08-.21.07-.6.21-.59.3.09,2.62-2.49,3.39-4,5.83-.1-2.68-.52-4.7.38-6.74.47-1.08,1.26-2,1.39-3.27Z"/><path class="cls-64" d="M5.68,47c-1.42.18-1.89-.39-2-1.86-.16-2.65.68-5.34-.52-8-.39-.85.63-.79,1.05-.55A2.56,2.56,0,0,1,5.7,39.07c-.07,2.63,0,5.25,0,7.88Z"/><path class="cls-65" d="M14.31,49.83c0-.38,1-.5.33-1.09-.45-.44-1-1.13-1.59-.71-3.08,2-2.5-.38-2.57-2a8.29,8.29,0,0,1,3.79-5.24,7.92,7.92,0,0,0,2.66-2.3c1-1.63,2.72-1.2,4.15-1S21.81,39.1,22,40c.13.69.12,1.41.81,1.82.84-.32-.21-1.31.64-1.6.48-1.07.13-2.39,1-3.36.9-.77-.66-2.35,1-2.88a.5.5,0,0,1,.69.11c.77,2.21-.16,4.23-.82,6.23-.6,1.84-1,3.35.86,4.9s.68,3.83-1.68,4.61v-.49c1.34-2.06-.29-3.14-1.65-3.64s-2.42,1.13-2.77,2.2c-.44,1.31-1,1.61-2.15,1.33S15.66,50.67,14.31,49.83Z"/><path class="cls-31" d="M5.69,55.61c.13-1.32,1.15-.89,1.91-1l-1,1Z"/><path class="cls-31" d="M7.61,54.63c.15-1.3,1.16-.87,1.92-1l-1,.93Z"/><path class="cls-66" d="M24.4,49.84c2.5-2.15,2.42-2.8.09-5-1.19-1.1-.7-2.66-.15-4A18.5,18.5,0,0,0,25.82,34c.17-2.08-.87-4.26.5-6.24,0-.15,0-.31,0-.47.47-.6,0-1.59.85-2,.7.58,1-.75,1.68-.35a1.38,1.38,0,0,1,.22,1,2.72,2.72,0,0,1-.67,1.22c-1.79,2.57-.91,5.46-1,8.23,0,.44.41.5.87.54,2.92.25,3.43,1.13,2.26,3.8a8.32,8.32,0,0,0-.33,1.62,20.72,20.72,0,0,1-1.45,3.82c-.52.46-1.09.91-.63,1.74a2.29,2.29,0,0,0,2.41.58,2.72,2.72,0,0,1,2.62.82c.63.69.85,1.39-.11,2-1.26.77-2.39,1.83-4.13,1.3s-3.2.54-4.52,1.61C23.25,52.05,24.33,51,24.4,49.84Z"/><path class="cls-67" d="M24.41,53.15c.54-1.62,1.69-2.62,3.35-2.31a5.84,5.84,0,0,0,5.47-1.5A2.12,2.12,0,0,0,30.36,48c-1.5.62-2.27-.09-3.07-1.06,3.27-1.42,6.6-.71,9.92-.28a1.33,1.33,0,0,1,.58,1c0,.22.05.58-.09.66-1.09.53-.43,1,0,1.58,0,1.21-.91,1.36-1.79,1.47-1.71.22-3.43.42-5.1.54.88.25,2-.7,2.81.41-.15,1.51-1.07,1.86-2.32,1.35-.6-.24-1.12-.56-1.77-.25-1.56.29-3-.8-4.62-.27h-.23Z"/><path class="cls-66" d="M24.88,53.17c1.6-1,3.2-.3,4.8,0,.12.11.16.22.12.32s-.08.17-.12.17c-.14,1-.95,1.24-1.53.73-.84-.74-1.94-.65-2.8-1.2Z"/><path class="cls-68" d="M48.88,58.47H40.1c-3.27,0-3.91-.91-2.75-3.84l.33-.27c4.47.91,9.06.06,13.52,1C52.05,57.6,51.86,57.85,48.88,58.47Z"/><path class="cls-69" d="M48.88,58.47c1.27-.57,2.86-.87,2.39-2.88.43-.67.91-1.3,1.3-2,.41-.51,1.22-.29,1.57-.89.81-.87,1.61.35,2.42,0,.07.84-.69,1.26-1,1.92-1.09,1.18-1.2,3.1-2.89,3.82l-1.42,0Z"/><path class="cls-70" d="M29.68,53.67v-.49c.32-.45.85-.63,1.21-.27,1,1,1.8.41,2.64-.21a3.51,3.51,0,0,1,3.64-.3,1.3,1.3,0,0,1,.62,1.06,1.67,1.67,0,0,1-.42,1.17h0C34.78,54.41,32.07,55.31,29.68,53.67Z"/><path class="cls-26" d="M26.32,21a3,3,0,0,1,1.43-2.4h0c.52,1.39.61,2.53-1.43,2.4Z"/><path class="cls-71" d="M26.33,21c1.34-.29,1.36-1.36,1.43-2.4l1.91.47v.48c.28,1.34-1,1.72-1.57,2.51a1.41,1.41,0,0,1-.85.38A1.44,1.44,0,0,1,26.33,21Z"/><path class="cls-45" d="M22,10.47c1.33-1,1.84,0,2.4,1Z"/><path class="cls-60" d="M52.71,58.45c.47-1.07,1.51-1.83,1.55-3.16,0-.74.8-.61,1.34-.66h0c.65,1.52-.56,2.56-1,3.81Z"/><path class="cls-18" d="M54.64,58.44l1-3.81H57A8.07,8.07,0,0,1,54.64,58.44Z"/><path class="cls-39" d="M31.61,6.64c.63,1.56-1.55,1.41-1.56,2.62-.33-1.32-.93-2.63.57-3.59.48.15.61.68,1,1Z"/><path class="cls-72" d="M31.59,6.62a.88.88,0,0,1-1-1c0-.16,0-.32,0-.48a1,1,0,0,1,0-1.44h0C32.39,4.23,31.27,5.67,31.59,6.62Z"/><path class="cls-39" d="M30.64,3.75c0,.48,0,1,0,1.44h-.95C29.67,4.49,29.66,3.79,30.64,3.75Z"/><path class="cls-73" d="M27.26,22.48l.5-.49c1.53-1.74,3.75-2.1,5.76-2.87h.94c-.66,2.59,2,2.82,3.09,4,1.78,1.91,3.07,3.88,3.16,6.52h-1a.48.48,0,0,1-.61,0c-.92-3.25-3.15-4.92-6.4-5.44-.27,0-.65-.43-.77-.05-.53,1.71-2.1,1.24-3.25,1.66v-1c-.36-.86-.3-2-1.42-2.41Z"/><path class="cls-74" d="M33.52,19.12c-.14.26-.24.73-.42.76A19.57,19.57,0,0,0,27.76,22l1.92-2.4C31,19.56,32.19,18.87,33.52,19.12Z"/><path class="cls-75" d="M39.28,29.67h.47c-.21,2.32,2,3.54,2.59,5.49.23.72.9,1.31.78,2.18a.78.78,0,0,1-.65,0c-1-1.17-2-2.13-3.27-.22-.49.73-1.28.8-2.05.11-2-1.83-2.11-2.52-1.15-5.14.52-1.4-1-2.35-1.58-3.39-.39-.67-1.61.19-2.12,1-.51.56-1.07.77-1.55,0s-1.3-1.79-.57-2.83,1.11-2.57,2-2.44c1.93.29,4.2.26,5.45,2.32A24.91,24.91,0,0,0,39.28,29.67Z"/><path class="cls-76" d="M37.36,52.72l-3.83,0c-1-1-2.31-.11-3.56-.72,2-.51,3.81-1.26,5.79-1.2.72,0,1.47.06,1.62-.93,2.57-1.43,5.24-.5,7.82-.18a9.49,9.49,0,0,1,2.71.62c1.73-.31,3.4.35,5.16.27s.54,1.34.57,2.12a1.09,1.09,0,0,1-.75.26c-4.8.11-9.6-.85-14.39.12A1.51,1.51,0,0,1,37.36,52.72Z"/><path class="cls-77" d="M47.91,50.29l-10.53-.44c-1.81-.63.09-1.3,0-1.94,1.7-1.24,3.63-.49,5.46-.67A3,3,0,0,1,46,48.88C46,50.21,47.5,49.51,47.91,50.29Z"/><path class="cls-76" d="M46,48.88c-1-.26-1.69-1.34-2.88-1-.6-.74-2.47-.12-2.06-1.94.93-1,2.37-.2,3.35-1,.43-.48.23-1.13.43-1.67l.21-.22C46.79,44.79,46.82,46.77,46,48.88Z"/><path class="cls-78" d="M42.64,37.35h.48C44,39.19,45,41,45.05,43.1l0,0c-1.88-.64-2.69-2.32-2.64-5.48Z"/><path class="cls-79" d="M53.21,52.69h.43l.5,0c.18,1.3-.83.83-1.43,1a3.27,3.27,0,0,1-3.05.5c-.53-.21-1.07-.45-.89-1.16s.71-.55,1.16-.52C51,52.55,52.14,52.26,53.21,52.69Z"/><path class="cls-80" d="M14.32,22c2.19,1,4.12,2.69,6.74,2.65.85,0,2.87,2.86,2.46,3.73a27.09,27.09,0,0,0-.87,3.47c-.62,1.88-2.11,2.38-3.47.94-1.64-1.74-3.07-3.26-5.89-3.33-1.42,0-1.62-2.58-1.83-4.19s.77-1.48,1.95-1.44.8-1.11.91-1.83Z"/><path class="cls-80" d="M26.32,27.75c-.88,2,.37,4.22-.5,6.24h-.47c-.48-2.07.18-4.16-.2-6.3C24.92,26.44,25.89,27.66,26.32,27.75Z"/><path class="cls-74" d="M27.29,22.46c2.59-.44,2.25.84,1.42,2.41-.43.3-.72,1-1.43.48a1,1,0,0,1,0-1.44Z"/><path class="cls-80" d="M27.27,23.91c0,.48,0,1,0,1.44-.32.65-.63,1.29-1,1.93C26.66,26.16,25.07,24.51,27.27,23.91Z"/><path class="cls-80" d="M24.4,36.87a7.25,7.25,0,0,1-1,3.36C23.61,39.07,22.9,37.65,24.4,36.87Z"/><path class="cls-81" d="M17.92,41.21a1.63,1.63,0,0,1,2,1.07c.82,2.1-.59,3.43-1.62,4.92s-1.69.19-2.59-.11c-1.14-.37-2.93.13-3-1.59s1.47-2.27,2.76-3C16.25,42.08,16.67,40.79,17.92,41.21Z"/><path class="cls-82" d="M29.68,41.19a2.94,2.94,0,0,1,.41-2.06c.55-.63,1.37-1.11.19-2.08-.83-.67-1.3-1.36-2.25-.26-.41.48-1.06.69-1.18-.24a34.19,34.19,0,0,1,.21-8.75,1.18,1.18,0,0,1,1.18-1c.24,1.53,1.68,2.18,2.5,3.28,1.5,2,1.32,4.74,3.12,6.55a3,3,0,0,1,.49.94C34,40.31,31.63,40.48,29.68,41.19Z"/><path class="cls-83" d="M29.68,41.19c1.23-.59,2-1.87,3.51-2.1.81-.13.81-1,.8-1.73a.53.53,0,0,1,.63.14c1.27,2,1.28,4.63,3.11,6.39.23.22,0,.75-.17,1.11a1.49,1.49,0,0,1-.62.46c-2.68.59-5.48-.08-8.16.91-1.08.4-.88-.66-.54-1.34Z"/><path class="cls-84" d="M33.51,36.88c-.92-1.28-1.92-2.4-2-4.21a5,5,0,0,0-2.12-3.22,2.12,2.12,0,0,1-1.1-2.66l.48-.95c.62,0,.19-1.74,1.42-.84.78.57.79-.25,1.08-.69.42-.63.56-3,1.87-.38.25.49,1.88.16,2.93.76,2,1.17,3.28,2.59,3.26,5-1.25-.32-1.41-1.52-2-2.38-.76-1-1.49-2.72-3.37-1.51-.17.11-.47,0-.71,0-.52-.07-.45-2.47-1.5-.41-.74,1.44-2.3,2.95,0,4.43.08.05.29-.09.44-.14a.44.44,0,0,1,.59,0c.81,1-.54,2.38.51,3.38A4.12,4.12,0,0,1,33.51,36.88Z"/><path class="cls-85" d="M28.24,45c.14.41-.15,1.55.69,1,2.69-1.85,5.63-.58,8.42-1a1.3,1.3,0,0,1,0,1.93H27.29C27.36,46.19,27,45.19,28.24,45Z"/><path class="cls-86" d="M37.35,47V45h0c.67-.83.52-2,1.11-2.85s1-1.5,2-1.34,1.17.91,1.41,1.69c.42,1.31.44,2.5-.71,3.47,0,1.29,1.74.82,1.92,1.92H37.36C37.36,47.59,37.35,47.27,37.35,47Z"/><path class="cls-87" d="M49.84,53.67h2.87c.06,1-.2,1.85-1.44,1.92-4.64-.22-9.35.67-13.9-1v-1c2.76-1.24,5.64-.55,8.48-.53C47.14,53.59,48.35,54.65,49.84,53.67Z"/><path class="cls-79" d="M46.48,53.67H37.37c0-.32,0-.64,0-1l.94,0A34,34,0,0,1,47,52.47c.59.07,1.27.13,1.05.87S47.1,54.05,46.48,53.67Z"/><path class="cls-78" d="M41.2,46a4.85,4.85,0,0,0,0-3.65c-.23-.52-.25-1.08-1-1.09s-.72.65-1,1c-.77.84-.43,2.39-1.84,2.75,0-.39.09-1.06-.08-1.14-2.83-1.32-1.69-4.62-3.3-6.52l-.48-.48c-.62-1,.1-2.45-.95-3.37-.37-1.28.66-2.56,0-3.84h-.47C31.5,27.92,33.93,28.31,34,27c1.17.29,1.22,1.31,1.46,2.21,0,.15,0,.39.09.46,1.82,1.22,2.51,2.36.08,3.77-.48.28-.2,1.37.55,1.81.47.26,1.05.3,1.19,1,.29,1.51.82,1.22,1.66.28,2-2.26,2.28-2.18,3.63.81h0c-1.16,2.25.1,6.27,2.41,7.67C44.16,47,42.46,45.58,41.2,46Z"/><path class="cls-59" d="M46.48,53.67c.36-.09,1-.11,1.05-.3.25-.78-.46-.64-.86-.64-2.79,0-5.58,0-8.37,0,1.23-1,2.84-.66,4.12-.68a47.65,47.65,0,0,1,10.79.67,15.76,15.76,0,0,0-3.58.12c-1.05.27-.46.7.21.86C48.6,55,47.72,55,46.48,53.67Z"/><path class="cls-88" d="M45,45a3,3,0,0,1-3.15-3.55,3.42,3.42,0,0,0-.45-2.6c-.67-1.05.07-1.57,1.19-1.52.62,2,.36,4.35,2.4,5.76C44.87,43.76,45.9,44.39,45,45Z"/><path class="cls-75" d="M32.55,29.67c.9,1.28.56,2.56,0,3.84C31.32,32.23,32.76,31,32.55,29.67Z"/></g></g></svg>