<svg xmlns="http://www.w3.org/2000/svg" viewBox="0 0 56.1 55.75"><defs><style>.cls-1{fill:#559c52;}.cls-2{fill:#e57235;}.cls-3{fill:#ec8a50;}.cls-4{fill:#e07e46;}.cls-5{fill:#37683f;}.cls-6{fill:#3b6939;}.cls-7{fill:#c0d7c1;}.cls-8{fill:#e38042;}.cls-9{fill:#d27355;}.cls-10{fill:#ed7b5e;}.cls-11{fill:#256238;}.cls-12{fill:#547953;}.cls-13{fill:#e0612a;}.cls-14{fill:#0b5f34;}.cls-15{fill:#cb8f6f;}.cls-16{fill:#e86332;}.cls-17{fill:#145b31;}.cls-18{fill:#569453;}.cls-19{fill:#eebd66;}.cls-20{fill:#647745;}.cls-21{fill:#569e54;}.cls-22{fill:#38643d;}.cls-23{fill:#4f7650;}.cls-24{fill:#7f9275;}.cls-25{fill:#427348;}.cls-26{fill:#3e6d40;}.cls-27{fill:#5e815f;}.cls-28{fill:#176637;}.cls-29{fill:#6da76d;}.cls-30{fill:#105e32;}.cls-31{fill:#165a31;}.cls-32{fill:#216835;}.cls-33{fill:#f8cc4f;}.cls-34{fill:#f8ab3a;}.cls-35{fill:#f9c16a;}.cls-36{fill:#ebcc67;}.cls-37{fill:#facf68;}.cls-38{fill:#f6c344;}.cls-39{fill:#f17239;}.cls-40{fill:#fad67b;}.cls-41{fill:#f4dca0;}.cls-42{fill:#85b67c;}.cls-43{fill:#135d32;}.cls-44{fill:#679e67;}.cls-45{fill:#4f8a52;}.cls-46{fill:#71a667;}.cls-47{fill:#88b57d;}.cls-48{fill:#63a25d;}.cls-49{fill:#8cb364;}.cls-50{fill:#f2bd3f;}.cls-51{fill:#f1d163;}.cls-52{fill:#36613a;}.cls-53{fill:#8ab97f;}.cls-54{fill:#75ad6f;}.cls-55{fill:#88b57f;}.cls-56{fill:#539b51;}.cls-57{fill:#2e6d39;}.cls-58{fill:#89b681;}.cls-59{fill:#448447;}.cls-60{fill:#396c3d;}.cls-61{fill:#c0d5bd;}.cls-62{fill:#20693c;}.cls-63{fill:#f08124;}.cls-64{fill:#4b6931;}.cls-65{fill:#4da251;}.cls-66{fill:#32a54b;}.cls-67{fill:#7aa448;}.cls-68{fill:#e27833;}.cls-69{fill:#f7dc8e;}.cls-70{fill:#f9d27a;}.cls-71{fill:#f9d382;}.cls-72{fill:#9e6928;}.cls-73{fill:#76a55b;}.cls-74{fill:#95bf8a;}.cls-75{fill:#64a95e;}.cls-76{fill:#4ba04b;}.cls-77{fill:#266f39;}.cls-78{fill:#76af6f;}.cls-79{fill:#64a762;}.cls-80{fill:#8dca8a;}.cls-81{fill:#a2c498;}.cls-82{fill:#97c08d;}.cls-83{fill:#a0c493;}.cls-84{fill:#7ab174;}.cls-85{fill:#93c68d;}.cls-86{fill:#136233;}.cls-87{fill:#70ac65;}.cls-88{fill:#67a74e;}.cls-89{fill:#0d6f38;}.cls-90{fill:#57a24f;}.cls-91{fill:#f9c55f;}.cls-92{fill:#d1a444;}.cls-93{fill:#fae1a1;}.cls-94{fill:#f2d481;}.cls-95{fill:#f2c563;}.cls-96{fill:#98c08b;}.cls-97{fill:#83ad65;}.cls-98{fill:#98af6c;}.cls-99{fill:#9ac38b;}.cls-100{fill:#accba1;}.cls-101{fill:#76b06f;}.cls-102{fill:#a0c497;}.cls-103{fill:#a0c699;}.cls-104{fill:#9fc597;}.cls-105{fill:#9cc190;}.cls-106{fill:#558654;}.cls-107{fill:#95bf8e;}.cls-108{fill:#6a9e57;}.cls-109{fill:#3f6d3b;}.cls-110{fill:#84b480;}.cls-111{fill:#a9662d;}.cls-112{fill:#fbbc7a;}.cls-113{fill:#e3782d;}.cls-114{fill:#a0c595;}.cls-115{fill:#81b376;}.cls-116{fill:#6fae6c;}.cls-117{fill:#96be7f;}.cls-118{fill:#5fa65b;}.cls-119{fill:#b2cfa8;}.cls-120{fill:#a4c699;}.cls-121{fill:#98c8a5;}.cls-122{fill:#b5d1ab;}</style></defs><title>hat2</title><g id="Layer_2" data-name="Layer 2"><g id="Layer_1-2" data-name="Layer 1"><path class="cls-1" d="M48.31,54.9,46.77,54l.26-.29c1.57-.57,3.07.17,4.61.27a1.2,1.2,0,0,1,.59.5c-1.07.8-2.33.17-3.48.45l-.21-.07Z"/><path class="cls-2" d="M39.21,2.5l.49.42c.36.69,1,.59,1.63.6a5.42,5.42,0,0,1,4,1.49c.66,1.54,2.25,3,.54,4.78-.42.61-.85.81-1.29,0-.28-1.21.51-2.72-1-3.58-.94-.52-1.84-1.08-2.54.29a1.56,1.56,0,0,1-2.16.63c-1.18-1-.31-2.2-.48-3.31a2.22,2.22,0,0,1,.08-.68A1.08,1.08,0,0,1,39.21,2.5Z"/><path class="cls-3" d="M45.8,20.32a2.57,2.57,0,0,0-.4.06l-.25-.19a4.67,4.67,0,0,1-.93-1.6,13.29,13.29,0,0,0-.1-3.83,2.59,2.59,0,0,1,0-1,1.93,1.93,0,0,1,.78-1.06C47.16,15,46.42,17.67,45.8,20.32Z"/><path class="cls-4" d="M44.91,12.7a1,1,0,0,1-.51,1c-1.22-.38-2.39-.82-2.69-2.29a1.19,1.19,0,0,1,.49-.85c.67-.33,1.4-.54,2.07-.88a.72.72,0,0,1,.61.07c.3.61.67.11,1,.07C46.28,11,43.53,11.16,44.91,12.7Z"/><path class="cls-4" d="M45.34,5c-1.47-.6-2.85-1.47-4.59-1.07-.58.14-1-.42-1-1A19.82,19.82,0,0,1,44.92,4Z"/><path class="cls-5" d="M19.14,20.43l1.23-.14a2.83,2.83,0,0,1,1.25-.19c.82.46,0,1.3.44,1.86a.91.91,0,0,1-.21.55c-.89.76-2.12.84-3.05,1.53a7.66,7.66,0,0,0-1.65,1.41c-3.32,2.23-5.33,5.68-8,8.54a4.68,4.68,0,0,1-1.48.61c-1.39,0-1.11,2.33-2.74,2a1.44,1.44,0,0,1-.25-1c.39-2.08,1.89-3.38,3.3-4.75l3.39-3.76A87.45,87.45,0,0,1,19.14,20.43Z"/><path class="cls-6" d="M.27,46.71c.09-.5-.05-1.07.46-1.43.54-1.29.42-3,2.33-3.38a3.71,3.71,0,0,1,1.23,1.57c.12,1.15-.91,1.76-1.22,2.71A12.72,12.72,0,0,0,2.85,50c-.08,1.23.94,2.32.49,3.6a1.34,1.34,0,0,1-1,.65C1,54,.55,53.05.32,51.91A11.7,11.7,0,0,1,.27,46.71Z"/><path class="cls-7" d="M3.19,42c-1.57.53-1.06,2.62-2.46,3.27a3,3,0,0,1-.42-1.85c.5-.63.66-1.51,1.41-2h0L3.18,41a.73.73,0,0,1,.19.78Z"/><path class="cls-8" d="M34,1.11a4.66,4.66,0,0,0,2.47.28,1.66,1.66,0,0,1,2.22.72c-1.34,1.12-3,.45-4.46.77-.79-.07-1.47-.54-2.28-.58-2.29-.13-3.65,1.37-3.67,4.08.05.52.52,1,.38,1.52A3.85,3.85,0,0,1,26.37,9l-.27-.19a11.34,11.34,0,0,0,0-2.85C25.49,3.31,27,2.09,29,1.11A6.8,6.8,0,0,1,34,1.11Z"/><path class="cls-9" d="M34,1.11H29C29.89-.2,31.29.38,32.47.18a.54.54,0,0,1,.85.06Z"/><path class="cls-10" d="M24.65,9.75c.05-.28.09-.56.14-.84l1.31-.13.22.08C26.45,10.46,25.47,9.94,24.65,9.75Z"/><path class="cls-11" d="M52.55,38.62c.09,1.05,1.19,1.74,1,2.87-1,.34-1.35-.42-1.79-1s-.51,0-.71.18a1.38,1.38,0,0,1-.91.16c-.65-.16-1.14-.67-1.81-.77-.88-.33-1.91-.41-2.33-1.46a1.38,1.38,0,0,1,.19-1.05,2.47,2.47,0,0,1,2.64,0c.17,0,.39.23.53.11s-.06-.32-.13-.48c-.53-.76-.67-1.72-1.32-2.41a11.64,11.64,0,0,1-1-1.26,2,2,0,0,1-.37-1.23c.17-.73.1-1.58,1-1.95.89.17.87,1.18,1.49,1.59C50.42,34.05,51,36.61,52.55,38.62Z"/><path class="cls-12" d="M49.08,31.9c-.84-.1-.92-.92-1.33-1.43-1.11-.37-1.38-1.71-2.46-2.11a1.36,1.36,0,0,1-.52-.33,2.12,2.12,0,0,1-.25-.89,1.44,1.44,0,0,0-1.24-1.25c-.54-.22-.94-.55-.83-1.21s1.45-.88.49-1.83c-.14-.13.21-.52.45-.72a.77.77,0,0,1,.92.13c.63,1.19.76,2.66,2,3.5C47.27,27.79,48.52,29.69,49.08,31.9Z"/><path class="cls-13" d="M33.84,2.57c1.56-.79,3.25-.31,4.88-.46l.49.39-.57.62a.93.93,0,0,1-.6.18A3.54,3.54,0,0,0,34.87,4c-.37.42-.61,1-1.17,1.18a1,1,0,0,1-1-.38C32.36,3.72,32.29,2.75,33.84,2.57Z"/><path class="cls-14" d="M51.13,40.56c-.23-.37-.74-1-.65-1.07.48-.63,1-.05,1.32.25.62.55.94,1.41,1.79,1.75.3,1,1.17,1.75,1.08,2.88A3.86,3.86,0,0,1,55.22,46c.05,1,.08,2-1.1,2.35a1.53,1.53,0,0,1-1-1c-.23-.76-.17-1.58-.43-2.34-.14-.51-.29-1-.48-1.54C52.11,42.4,51,41.74,51.13,40.56Z"/><path class="cls-15" d="M44.31,22.26h-.84c-.46.13-.66-.16-.82-.52a1.44,1.44,0,0,1,.56-1.65,2.22,2.22,0,0,1,.7-.23,1.9,1.9,0,0,1,1.42.33l.07.18C45.12,21.05,44.32,21.43,44.31,22.26Z"/><path class="cls-16" d="M24.27,15.13c-.3-.69-.59-1.39-.89-2.08a4.5,4.5,0,0,1,1.27-3.3c.57-.28,1.47.09,1.67-.89a2.77,2.77,0,0,1,2.28-1,.92.92,0,0,1,1-.21,2.41,2.41,0,0,1,1.06.89,2,2,0,0,1,.25.63c.06,1.32-.73,1.47-1.82,1.46-2.36,0-3,1.08-2.08,3.34l.55.31A11.06,11.06,0,0,1,29,15c.76.51.91,1.39.07,1.6-1.79.47-1.3,1.94-1.7,3-.94.32-1.75.32-2.07-.86a.83.83,0,0,1,.33-.92C26.38,16.34,24.57,16.11,24.27,15.13Z"/><path class="cls-17" d="M25.3,18.76a2.67,2.67,0,0,0,2.36.58l.32.2a.78.78,0,0,1,.09,1,10.48,10.48,0,0,1-6.16,1.25c-1.54-.47,0-.93,0-1.4.66-.65,1.7-.39,2.37-1Z"/><path class="cls-18" d="M24.29,19.43c-.49,1.05-1.49.87-2.37,1l-1.55-.14C21.5,19.16,23,19.69,24.29,19.43Z"/><path class="cls-19" d="M24.27,15.13c.78.74,2.62.95,1.36,2.72A2.31,2.31,0,0,0,24.39,16Z"/><path class="cls-20" d="M55.92,51.08c0,.3-.07.6-.1.9-1.18.86-1.85,2.45-3.59,2.53l-.67-.11c0-1.15,1.81-1.09,1.64-2.39a1.44,1.44,0,0,1,.28-.55,1.05,1.05,0,0,1,.89-.15C55,51.94,55.32,50.58,55.92,51.08Z"/><path class="cls-21" d="M32.47,51.12c-1.38.83-2.91.3-4.36.46l-1.88-.49a8.25,8.25,0,0,0-2.09-.9l-1.29-.14a.67.67,0,0,1-.11-.87,8.09,8.09,0,0,0,1.44-2c1.63-.94,3.35.41,5-.21a1.43,1.43,0,0,1,1.45.56,1.36,1.36,0,0,0,2.18.2c.63-.59-.34-1-.56-1.5a3.27,3.27,0,0,1,1-3,2,2,0,0,1,1.85-.15,1.23,1.23,0,0,1,.53.55c.78,2.58-.11,5-.81,7.4l-2,0c-.32-.18.37-1-.31-.76-1.45.45-3,.11-4.31.56C29.64,50.71,31.1,50.11,32.47,51.12Z"/><path class="cls-22" d="M22.85,49.15v.9l-4.29.08c-1.85.51-3.82-.13-5.63.66-.52-.27-.94-.6-.61-1.28A17.88,17.88,0,0,1,21,48.05a3.64,3.64,0,0,1,1.17.24,1.5,1.5,0,0,1,.6.49C22.76,48.9,22.8,49,22.85,49.15Z"/><path class="cls-23" d="M12.78,50.52a20,20,0,0,1,5.78-.39c-1.39.84-3.06.21-4.48.89l-4.19,0C10.57,49.41,11.71,50.14,12.78,50.52Z"/><path class="cls-24" d="M24.14,50.19c.88-.11,1.67,0,2.09.9A2.37,2.37,0,0,1,24.14,50.19Z"/><path class="cls-25" d="M12.78,50.52c-.95.27-2.06-.34-2.89.55l-1.34,1a.84.84,0,0,1-1.27-.24c-.14-1.34.5-2.73-.29-4-.29-2-.1-3.94-.23-5.91,0-1.76,2.06-1,2.63-2.14.89-.49,1.67-1.27,2.82-1a3,3,0,0,1,1.56.75c0,1.38-1.23,1.46-2.1,1.89s-1.77.31-2.12,1.32a26.44,26.44,0,0,0,0,4.45A1.7,1.7,0,0,0,10.75,49a2.24,2.24,0,0,1,1.54.72Z"/><path class="cls-23" d="M7.43,51.48a1.26,1.26,0,0,0,1.12.6L7,53.9,5,55.75c-.72,0-1.53.12-1.85-.82A2.26,2.26,0,0,1,4,54.12a8,8,0,0,0,.88-.77,7.9,7.9,0,0,0,1-1.08C6.31,51.84,6.7,51.31,7.43,51.48Z"/><path class="cls-1" d="M46.77,54c-1.2-.28-2-1.41-3.3-1.52a.63.63,0,0,1-.15-.59,1.73,1.73,0,0,1,.8-1c1.87-.64,1.33-2.5,1.89-3.8.83-2.19.83-2.19,3.31,0a1.42,1.42,0,0,1,.27,1c-.6,1.07-.78,1.93.86,2.16.42.06.75.54,1,1a4,4,0,0,1,.38,2c-.73,1.22-1.87.76-2.88.63-.67-.08-1.31-.51-2,0Z"/><path class="cls-26" d="M43.48,52a2.44,2.44,0,0,0,0,.47,5.49,5.49,0,0,1-3.82.44c-.94-.51-.66-1.05-.06-1.61a2,2,0,0,1,1.92-.05C42.08,51.76,42.94,51.47,43.48,52Z"/><path class="cls-27" d="M39.66,51.6a1.08,1.08,0,0,0,0,1.35H37.77l-.51-.58c-.38-.5-.45-1.09.14-1.34A1.91,1.91,0,0,1,39.66,51.6Z"/><path class="cls-28" d="M34.86,51.05c-.22-.49-.69-1-.37-1.53,1.17-1.93.64-4.1.92-6.15-.09-.75-.39-1.75.73-1.81.77,0,1,.88,1.14,1.57a15.58,15.58,0,0,1,.15,2.56,13.24,13.24,0,0,1-.61,3.9c-.33.69-.44,1.6-1.52,1.53Z"/><path class="cls-29" d="M35.3,51.12l1-1.49c1.44-.63,2.48-.12,3.8,1.9a3.07,3.07,0,0,0-.42.07c-.7.58-2.21-1.36-2.4.78A2.48,2.48,0,0,1,35.3,51.12Z"/><path class="cls-30" d="M32.47,51.12H27.13c2-1.28,3.85-1.13,5.48-1.4,2-.32.3.82.29,1.3A1,1,0,0,1,32.47,51.12Z"/><path class="cls-31" d="M47,53.82c0-1.12.73-.7,1.31-.59,1.14.22,2.28.57,3.34-.24.49-.63,1-1.25,1.93-.93.75,2-1.31,1.58-2,2.34C50,54.65,48.5,54.08,47,53.82Z"/><path class="cls-32" d="M4.17,54.4c-.22.43-.63.48-1,.53a1.06,1.06,0,0,1-.35-.09L2.63,54l.61-.61C4.16,53.17,4.48,53.49,4.17,54.4Z"/><path class="cls-33" d="M44.88,9.72a1.49,1.49,0,0,1-.36,0,1.31,1.31,0,0,1-.59-.64c-.28-.53-.66-.53-1.12-.22a1.49,1.49,0,0,1-.58.2,1,1,0,0,1-.85-.37c-.7-.8-.1-2-.78-2.76.54-1.55,1.86-1.2,2.67-.72,1,.58,2.28,1.27,1.95,2.87C45.12,8.67,45,9.19,44.88,9.72Z"/><path class="cls-34" d="M38.19,3.07l.45.05c0,.15,0,.29,0,.44-.22.72-.94.49-1.41.74A7.45,7.45,0,0,0,36,4.84a3.67,3.67,0,0,1-1,.49,1.73,1.73,0,0,1-.6,0A.94.94,0,0,1,33.87,5l.51-1.41C35.64,3.33,36.82,2.43,38.19,3.07Z"/><path class="cls-35" d="M37.18,4.05l1.49-.49c1.14,1.05-.52,2.19.11,3.25l-.22.24A.62.62,0,0,1,38,6.83c.1-.82-.59-.92-1.1-1.19A1.54,1.54,0,0,1,37.18,4.05Z"/><path class="cls-36" d="M40.6,6c1.24.63.85,1.82,1,2.83l-.24.2c-1,.1-1.31-1.25-2.31-1.24A.69.69,0,0,1,38.67,7l.11-.15C39.59,7,40.42,7.19,40.6,6Z"/><path class="cls-37" d="M42,11.24c.32,1.28,2,1.22,2.38,2.43,0,.31.05.61.08.91a3.66,3.66,0,0,0-1.49,3c0,.94-.31,1.91-1.67,1.66-1.33-.63-1.42-1.83-1.43-3.07a6.84,6.84,0,0,0,.91-3.61C40.71,11.8,41,11.08,42,11.24Z"/><path class="cls-38" d="M41.56,19c1.43-.21,1-1.65,1-2.22-.06-1.55.52-2.1,1.91-2.17.86,1.45.48,2.91.06,4.37.39.74-.09,1.08-.63,1.39h-.35C42.83,20,41.58,20.36,41.56,19Z"/><path class="cls-39" d="M43.91,20.34,44.54,19c.86,0,.87.62.79,1.25Z"/><path class="cls-40" d="M42,11.24c-.63.33-1,.73-.68,1.52A2.63,2.63,0,0,1,40.15,16a1.5,1.5,0,0,1-.47-.28,2.94,2.94,0,0,1-.79-.82,2.1,2.1,0,0,1,.24-1.76c.09-.19.19-.38.29-.56.6-1.31.56-3,2.14-3.75v0l1,0a1.32,1.32,0,0,1,0,1.88Z"/><path class="cls-41" d="M42.52,10.74c0-.63,0-1.25,0-1.88v0a1.37,1.37,0,0,1,1.91,0l.09.94A1.74,1.74,0,0,1,42.52,10.74Z"/><path class="cls-42" d="M8.91,33.79c2.43-3.15,4.46-6.66,8.1-8.68a5.46,5.46,0,0,0,1.54-1.33c.84-1.08,2.16-1.12,3.3-1.53.92-.4,1.16-.07.91.8a17.12,17.12,0,0,0,6.53-1.2,4,4,0,0,1,2.13.07c.83.49,1.87.61,2.49,1.44-.12.81-.82,1-1.41,1.07-2.76.31-5.47,1.36-8.21,1.26-3-.11-5.15,1.58-7.67,2.48A4.48,4.48,0,0,0,14.3,30.5c-1.49,1.9-2.1,4.54-4.66,5.59-.75.3-.72.93-.33,1.59s.79,1.43,0,2.12A3.46,3.46,0,0,1,8,40.42c-2,.49-2.83-.21-2.43-2.32a5.33,5.33,0,0,1,1.31-3A4.65,4.65,0,0,0,8.91,33.79Z"/><path class="cls-43" d="M7.43,35.18c-.77.48-.75,1.29-.94,2.07-.71,3-.75,3,2.15,2.35a2.48,2.48,0,0,1,.71,0c.13.06.19.12.17.21s-.06.14-.1.14c0,1.74-1.78.74-2.4,1.52-.43,1.45-1.27,2.26-2.88,1.9-.95,0-1-.7-.95-1.41l0-.08c1.41-1.46.59-3.78,2-5.24.44-.74.89-1.47,1.32-2.22.28-.49.58-.73,1-.18A.55.55,0,0,1,7.43,35.18Z"/><path class="cls-18" d="M22.36,23.24c.29-.56.27-1-.51-1l.06-.42c1.95-1,4.13-.91,6.18-1.45a.4.4,0,0,1,.62,0,.73.73,0,0,1-.17.68C26.64,22.27,24.84,23.74,22.36,23.24Z"/><path class="cls-44" d="M5.14,36.69a10.49,10.49,0,0,0-.61,3.19c0,.92-.1,1.93-1.39,2,0-.3,0-.61,0-.92.57-1.79.85-3.69,1.89-5.32Z"/><path class="cls-45" d="M7.43,35.18c0-.3.05-.59.07-.89l1.41-.5A1.26,1.26,0,0,1,7.43,35.18Z"/><path class="cls-46" d="M18.55,23.78A1.32,1.32,0,0,1,17,25.11C17.15,24.24,17.89,24.05,18.55,23.78Z"/><path class="cls-47" d="M4.14,43.42C5.38,43.21,5.93,42,7,41.52c1,2.15.18,4.44.49,6.64a4,4,0,0,1-.5,3c-2.1-1-2.52-3.39-4.1-4.69-.3-.2-.51-.42-.31-.8Z"/><path class="cls-48" d="M4.17,54.4a1,1,0,0,0-.93-1c-.24-1.13-1.26-2-1-3.3a1.51,1.51,0,0,1,.91-.42,13.11,13.11,0,0,1,3.21,2.06c-.28.68-1,1.08-1.2,1.82A.86.86,0,0,1,4.17,54.4Z"/><path class="cls-49" d="M3.15,50.1H2.2c.12-1.48-.51-3,.4-4.41l.56.59A3,3,0,0,1,3.15,50.1Z"/><path class="cls-50" d="M33.84,2.57C32.8,3.09,32.9,4,33,5l-.26.15A2.45,2.45,0,0,0,31,5.54C29.91,6,29.2,7.41,27.7,6.93c-.17-3.66,1.77-5.76,4.84-5.28A1.56,1.56,0,0,1,33.84,2.57Z"/><path class="cls-51" d="M27.7,6.93,31,5c.64.81-.09,1.35-.36,2a4.3,4.3,0,0,1-.35.52,1.47,1.47,0,0,1-.79.47l-.91-.11Z"/><path class="cls-52" d="M36.8,45.82c-.16-1.29.27-2.68-.59-3.9-.74.23-.17,1.19-.81,1.45a1,1,0,0,0-.24,0c-.67-1.9-1.1-4-3.58-4.43a35.83,35.83,0,0,0-5.28-.15c-1.88-.1-3.15,1.92-5.13,1.47-2.09-.09-4.19,0-6.28-.09a1.71,1.71,0,0,1-1.13-.58c-.55-.06-1.17.06-1.51-.57,0-.82.63-1.06,1.23-1.32a11.2,11.2,0,0,1,4.12-.08A6.31,6.31,0,0,0,22.76,37c.2-.1.42-.18.63-.26l1.66-.53a3.69,3.69,0,0,1,.72-.15c2.94,0,5.91-.43,8.72.88.73.35,1.39-.1,2.07-.29a26.14,26.14,0,0,1,6.25,0c1.13.53,2.55,0,3.55,1,0,.39,0,.78-.07,1.17-.62.69-.35,1.58-.55,2.37s-.16,1.61-.72,2.25c-1,.21-1-.6-1.15-1.16a3,3,0,0,0-1.06-1.81,5.06,5.06,0,0,0-3.23-1.22c-2.24-.16-2.56.27-1.91,2.51a5.39,5.39,0,0,1,.18.66,6.15,6.15,0,0,1,.27,2.45C37.89,45.45,37.58,46,36.8,45.82Z"/><path class="cls-53" d="M45.5,40.94c.61-.59-2-2.34.79-2.15l2.46.81c.85,2.34.73,2.49-2.47,3C45.38,42.37,45.42,41.67,45.5,40.94Z"/><path class="cls-54" d="M46.28,42.48c.59,0,.24-1.81,1.75-.64.73.57.5-1.42.72-2.24.76-.12,1,.58,1.45.93,1.11.69.82,1.46.12,2.25-1.15,1.08-2.41,1.6-3.94.79A.89.89,0,0,1,46.28,42.48Z"/><path class="cls-55" d="M46.36,37.62c-1.11-.3-2.38.65-3.4-.44,1.29-1,2.81-.79,4.27-.83,1.11-.26.34-1.51,1.05-2,1,.67.83,1.91,1.45,2.77.24.52,0,.78-.49,1Z"/><path class="cls-56" d="M50.21,42.47a1.62,1.62,0,0,0,0-1.94l.93,0c.55.91,1.63,1.51,1.57,2.76a1.31,1.31,0,0,1-.68.5C51,43.89,49.91,44.12,50.21,42.47Z"/><path class="cls-57" d="M45.36,28.09c1.69-.11,1.59,1.59,2.39,2.38-.71.46-.2,1.36-.7,1.9a.62.62,0,0,1-.54-.29C46,30.78,44.32,29.83,45.36,28.09Z"/><path class="cls-58" d="M48.28,34.38c-.09.93.73,2-.5,2.77-.9-1-1.88-2.06-.89-3.58a1.19,1.19,0,0,1,.55-.38Z"/><path class="cls-58" d="M46.81,31.88l.24.49.39.82-.16.18c-.46.66-1,1.05-1.57.15C45.67,31.84,45.67,31.84,46.81,31.88Z"/><path class="cls-59" d="M49.24,38.1l.49-1c.44.29,1.14.55.66,1.21C50.05,38.82,49.55,38.54,49.24,38.1Z"/><path class="cls-55" d="M46.81,31.88c-1.19-.09-.11,1.28-.92,1.44a3.75,3.75,0,0,1-1.69-1.46c-.42-1.18-.55-2.47-1.68-3.34s-.37-1.51.33-2.13a1.35,1.35,0,0,1,.63,0c.65.39.87,1.17,1.47,1.61a1.45,1.45,0,0,1,.41.06C45.11,29.63,46.77,30.45,46.81,31.88Z"/><path class="cls-60" d="M43,21.64l.52.63c-.4.78.62,2.13-1,2.45l-.26-.18a3.7,3.7,0,0,0-2.43-1.76,2.27,2.27,0,0,1-1.38-1,1.52,1.52,0,0,1,0-1.36.84.84,0,0,1,.59-.29,11.21,11.21,0,0,0,2.85.7A1.76,1.76,0,0,1,43,21.64Z"/><path class="cls-61" d="M43.49,26.66a3.12,3.12,0,0,0-.44-.09A5.69,5.69,0,0,1,39,24.29a1.14,1.14,0,0,1,.06-1c.41-.36.86-.22,1.31-.13a4.08,4.08,0,0,1,2.16,1.53l0,0,.9,1a.58.58,0,0,1,.31.44A.73.73,0,0,1,43.49,26.66Z"/><path class="cls-58" d="M43.49,26.66l0-.6c.83-.08,1.12.46,1.31,1.12,0,.28.07.56.11.85A1.32,1.32,0,0,1,43.49,26.66Z"/><path class="cls-62" d="M44.84,27.18l-1.31-1.11a2.42,2.42,0,0,1-.12-.35C44.5,25.38,44.88,25.77,44.84,27.18Z"/><path class="cls-63" d="M38.19,3.07l-3.81.5C35.58,2.88,36.76,2,38.19,3.07Z"/><path class="cls-50" d="M33.87,5l.5,0c.1.81-.3,1.22-1.06,1.1-.6-.08-.66-.56-.44-1.06L33,5Z"/><path class="cls-64" d="M55.51,46.27a6.88,6.88,0,0,0,.52,2.9c0,.31,0,.63.07.94l-.18,1c-.52,0-.7,1.1-1.43.44a4.1,4.1,0,0,1-.85-2.37,1.2,1.2,0,0,1,.45-1,4.54,4.54,0,0,0,.85-2.29,1,1,0,0,1,.46,0A.55.55,0,0,0,55.51,46.27Z"/><path class="cls-65" d="M50.21,42.47c.16,1.26,1.16.83,1.9.92.55.32.32,1.2,1,1.41.69.71.37,1.6.45,2.42-.3.62-.61,1.23-1.47,1.06-.54-.49-.58-1.3-1.17-1.76-.93-.61-1.09.58-1.69.72-1.21.23-1.54-.77-2.09-1.59l-.73,1.59a2.8,2.8,0,0,1,0-3.88A5.45,5.45,0,0,0,50.21,42.47Z"/><path class="cls-66" d="M52.13,48.2l1.44-1,.52,1c0,.32,0,.65-.05,1a2.15,2.15,0,0,0-.34.56c-.56,1.15-1.19,1.37-1.93.15A1.52,1.52,0,0,1,52.13,48.2Z"/><path class="cls-67" d="M53.12,44.8c-1.68.5-.72-.9-1-1.41l.59-.07C53.19,43.71,53.06,44.29,53.12,44.8Z"/><path class="cls-68" d="M43,21.64l-.85-.35c-.26-.16-.55-.26-.82-.4a2.6,2.6,0,0,0-1.52-.31,1.06,1.06,0,0,1-.58-.14h-.49a.91.91,0,0,1-.68.09.61.61,0,0,1-.3-.88,5.94,5.94,0,0,0,1-2.64c.12-.71.2-1.69,1.41-1.35a.92.92,0,0,0,.07.36c.66.89.1,2.36,1.41,2.94l2,1.37C43,20.6,43,21.14,43,21.64Z"/><path class="cls-69" d="M30,7.4l0-.48c1.27-1.06,3.14.44,4.31-1a.81.81,0,0,1,.63,0c.46.82,2.31.63,1.66,2.27-2.08.29-2.32,2.89-4.27,3.39-.49.13-.91.57-1.52.48,1.45.35.47,2.36,1.92,2.75,1.15.3,2.11-.76,3.25-.36a1.67,1.67,0,0,0,2.06-.73c.38-.49.79-1.08,1.55-.55a3.2,3.2,0,0,0-.47,1.93c-.27,2.86-2.46,3.32-4.69,3.75a1.59,1.59,0,0,1-.87-.57c-.5-1-1.38-.88-2.27-.78s-1.86.26-1.76-1.35-1.62-1-2.46-1.5a1,1,0,0,1-.43-.06c-.58-1.48.58-1.45,1.45-1.69-1.07-.55-.78-1.61-.59-2.35s1-.28,1.58-.12c1.5.41,2.23.11,1.36-1.57h0C30.33,8.38,30.24,7.87,30,7.4Z"/><path class="cls-19" d="M27.12,14.64c1.35.06,3-.45,2.82,2-.05.87,1.19.09,1.41.26.78.59,2.67-1.4,2.52,1.08-1,1.33-2.26,2.34-4.11,2.06a4.12,4.12,0,0,1-2.13-.62l0-.06C26,17.39,26,17.39,29.21,16,28.89,14.93,27.65,15.33,27.12,14.64Z"/><path class="cls-70" d="M30.49,8.85c.59.45,1.19,1.11.71,1.76-1,1.29-2.11-.47-3.51.06,1.23.38-.53,2.65,2.08,2.11-1.23.6-2.78.16-3.08,1.8-1.44-.88-1.11-2.07-.53-3.25S27.59,9.42,29,10C30.22,10.53,30.55,10,30.49,8.85Z"/><path class="cls-71" d="M30,7.4c1.3.13.74.84.46,1.46l-1-.89Z"/><path class="cls-72" d="M27.63,19.4l2.41,0a.8.8,0,0,1,.05,1,1.12,1.12,0,0,1-1.42,0l-.58-.05C27.94,20.05,27.78,19.73,27.63,19.4Z"/><path class="cls-65" d="M52.16,50.1c1.16.76.78-.87,1.43-.92a2.19,2.19,0,0,1,0,2.43c0,.15,0,.3,0,.45-.64.33-1.11,1-1.93.93-.69-.49-.4-1.22-.46-1.87A1.57,1.57,0,0,1,52.16,50.1Z"/><path class="cls-73" d="M53.6,51.61c-.52-.81.2-1.62,0-2.43l.45,0a3.64,3.64,0,0,1,.45,2.37Z"/><path class="cls-74" d="M32,38.52c2.54.76,3.27,1.9,3.12,4.84l-1.75.06a2.5,2.5,0,0,1-1,.53,32.32,32.32,0,0,1-6-.11,7,7,0,0,1-1.83,0,2.15,2.15,0,0,1-.7-.24,1.31,1.31,0,0,1-.44-.6,1.7,1.7,0,0,1,.34-1.71c.93-.55,1.89-.14,2.81,0a4.68,4.68,0,0,0,5.12-2.71Z"/><path class="cls-75" d="M23.82,43.39l.43,0a3.14,3.14,0,0,1,.63.68c1.32,1,3,1.52,4.09,2.82l.12.3c-.22.42-.7,1-1,.78-1.16-1.11-2.66-.14-3.85-.78C22.56,46.14,23,44.79,23.82,43.39Z"/><path class="cls-76" d="M32.44,46.28c.94-.05,1.5.25,1.43,1.33s-1,1.37-1.41,1c-.6-.6-2.48,1.68-1.95-.9C30.62,46.51,31.36,46.16,32.44,46.28Z"/><path class="cls-77" d="M23.82,43.39c.15,1.28-.4,2.65.45,3.85,0,1,.12,2.08-1.42,1.91v0a5.41,5.41,0,0,1-.72-3.31c.06-.77,0-1.55.09-2.31.06-.61.07-1.45.77-1.52.9-.09.31,1,.79,1.38Z"/><path class="cls-75" d="M32.44,46.28l-1.93,1.43-1.42-.47h0C28.44,45.39,30.54,46,31,45.09a19.75,19.75,0,0,1,1.48-1.68h1C33.09,44.37,32.76,45.32,32.44,46.28Z"/><path class="cls-78" d="M12.29,49.68l-1.94-.16c-.1-.87,2.09-.41,1.1-1.93-.16-.25.67-.72,1.21-.85a9.17,9.17,0,0,0,1.76-.61,1.75,1.75,0,0,1,.59.14,5.45,5.45,0,0,0,4.72-3.17c1-.9,1.17-2.51,2.53-3.15,1.32,1.18-.06,2.6.34,3.86-.1,1.24-1.42,1.08-2.12,1.92a1.34,1.34,0,0,1,.95,1.75c0,.38.23.78,0,1.16C18.28,48.22,15.34,49.42,12.29,49.68Z"/><path class="cls-79" d="M21,47.74c-.07-.9.35-2.23-2.05-1.07,1.32-1.51,2-2.61,3.45-2.32.46.38.07,1,.42,1.44l.09,3.38-.5-.44C22,48.2,21.4,48.09,21,47.74Z"/><path class="cls-80" d="M21,47.74c.74-.06,1.41,0,1.41,1l-.95-.09Z"/><path class="cls-81" d="M13.76,39.58l.94,0c1.48.41,3,0,4.47.22s2.18.92,1,2.36c-.47.16-1.06.09-.93,1a1.35,1.35,0,0,1-1,1.67c-1.81.33-3.64.09-5.46.32-2,.25-2.85-1.43-3.89-2.7-.07-1.26,1-1.22,1.73-1.41A6.45,6.45,0,0,0,13.76,39.58Z"/><path class="cls-82" d="M13.34,38.18,12.25,39c-1.1-.13-1.69,1.22-2.83,1a1,1,0,0,1-.07-.35c0-.31.11-.76,0-.92-1.64-1.59-1.48-2.8.67-3.68s2.12-3.39,3.75-4.61a1.16,1.16,0,0,1,1.15.57c-.62,1.25.16,2.18.7,3.18.62,1.16.76,2.27-.93,2.42C13.51,36.72,13.42,37.37,13.34,38.18Z"/><path class="cls-83" d="M8.94,42.44c.08,0,.2,0,.23,0,2.59,3.24,6.17,1.6,9.35,1.92-.82,1.56-2.48,1.46-3.85,1.93h0c-.95-.41-.89.71-1.42,1-.63,0-1.63.09-1.46.72.41,1.54-1.08,1-1.44,1.56C9.23,49.6,9,48.66,9,48A21.93,21.93,0,0,1,8.94,42.44Z"/><path class="cls-84" d="M3.15,50.1c0-1.27,0-2.54,0-3.81.18-.31.7-.49.73-.3.37,1.94,1.81,3.16,3,4.55.19-.73.41-1.55.64-2.38,1,1.13.76,2.23-.08,3.32L6.13,52.6c-.29-.15-.31-.34-.09-.57l-.1-.45C4.51,52,3.92,50.9,3.15,50.1Z"/><path class="cls-85" d="M6,52l.09.57a1.18,1.18,0,0,1-1,1C4.54,52.53,5.53,52.42,6,52Z"/><path class="cls-86" d="M46.44,43.36c0,1.3,0,2.59,0,3.88-.19,1-.37,2-.57,3-.23,1.23-.93,1.34-1.9.77l-.14-.29a7.24,7.24,0,0,1,.32-2,9.44,9.44,0,0,0,.15-2.43c0-1-.2-2.1.61-3,.17-.83-.33-1.83.61-2.48l.78,1.54C46.33,42.77,46.39,43.07,46.44,43.36Z"/><path class="cls-87" d="M52.16,50.1a1,1,0,0,1-1,1c-.78-.79-2.34-.17-2.79-1.68-.3-1,.52-.88.87-1.23.73-.55.54-2,1.91-1.94s.86,1.18,1,1.93Z"/><path class="cls-88" d="M51.16,46.27c-.81.47-.67,1.89-1.91,1.94,0-.33,0-.65,0-1,.13-.76.24-1.58,1.11-1.82C50.94,45.27,51.1,45.78,51.16,46.27Z"/><path class="cls-89" d="M43.48,52c-.59-.39-1.56.91-1.93-.45a1.32,1.32,0,0,1,1.06-.93,1.44,1.44,0,0,1,1.36.43l0,0A.92.92,0,0,1,43.48,52Z"/><path class="cls-90" d="M42.52,51.05l-1,.54-1.47-.06c-1.48-.2-2-2.35-3.8-1.9.17-1.27.35-2.54.52-3.81.31-.33.62-.65.92-1,1.67-.28,2.26.93,2.89,2.08.33.9,0,2.38,1.88,1.83.29-.09.61.39.7.8A2,2,0,0,1,42.52,51.05Z"/><path class="cls-36" d="M44.43,8.84H42.52a.9.9,0,0,1,1.08-.93C44.18,8,44.39,8.32,44.43,8.84Z"/><path class="cls-71" d="M34.85,5.94c-1.27,1.93-3.14.93-4.8,1,.26-.67,1-1.09,1-1.92.63-.8,1.26-1,1.86,0,.54,1.47,1,.69,1.5,0l.46,0A.62.62,0,0,1,34.85,5.94Z"/><path class="cls-91" d="M34.85,5.94c0-.31,0-.62,0-.92l1-.52c1.11.09,1.36.66.9,1.62A1.46,1.46,0,0,1,34.86,6Z"/><path class="cls-92" d="M36.75,6a1.53,1.53,0,0,0-.92-1.45c.31-.54.85-.45,1.35-.45,0,.63,0,1.26.07,1.89A.39.39,0,0,1,36.75,6Z"/><path class="cls-93" d="M39.64,13.16c-.87,0-.87.78-1.25,1.24-.91,1.12-6,1.57-6.95.6s.46-2.41-1-3.07a4.46,4.46,0,0,0,2.14-1.31c.3-.27,1.25.15,1.17-.44-.34-2.62,1.73-1.9,3-2.3.58-.18.57-1.26,1.46-1l.46.07.48.48c1.69,1.78.72,3.78.5,5.72Z"/><path class="cls-94" d="M38.21,6.89c-.75-.06-.1,2-1.46,1-.17-1.09-2.2-.37-1.89-1.93h2.39c.24-.17.61-.54.7-.49C38.49,5.81,38.08,6.41,38.21,6.89Z"/><path class="cls-69" d="M39.65,13.16c-.38-1.89.28-3.87-.5-5.72,1.42-.57,1.4,1.29,2.41,1.42Q40.6,11,39.65,13.16Z"/><path class="cls-95" d="M34.35,18.45c1.9-.7,4.06-1,4.82-3.36.42,0,.79.09.91.58-1.15.36-.9,1.35-.91,2.17,0,1.05-.26,1.88-1.42,2.14a1.3,1.3,0,0,1-1,.3C35.75,19.91,34.5,19.89,34.35,18.45Z"/><path class="cls-96" d="M14.67,30.92a1,1,0,0,1-.95-.48c.27-2.21,2.86-2.34,3.66-4.07,2.14,1.06,3.26-1.54,5.45-1.36,3.72.3,7.44-.71,11.07-1.74l.25-.22a1,1,0,0,1,.94.15c.72,1.11,2.34,1.16,2.88,2.48a1.08,1.08,0,0,1-.26.62c-.94.49-2,.56-3,1.08a1.9,1.9,0,0,1-1.08-.13c-4.89-.23-10-2.4-14.39,1.64-.18.14-.38.27-.57.4A10.41,10.41,0,0,1,14.67,30.92Z"/><path class="cls-97" d="M33.9,23.27c-.92-.06-1.94.14-2.42-1-.29-.77-1.27-1.53,0-2.31a5.84,5.84,0,0,1,3.21,0,7.5,7.5,0,0,1,1.76,1.3c.28,2.13-1.73,1.23-2.55,1.92Z"/><path class="cls-97" d="M22.36,23.24c2.45.19,4-2.1,6.22-2.41a1.08,1.08,0,0,1,.51,1.44c-2.15,1.42-4.61,1.31-7,1.43a.22.22,0,0,1-.16-.12C21.87,23.23,22.16,23.3,22.36,23.24Z"/><path class="cls-98" d="M29.09,22.27l-.51-1.44a2.88,2.88,0,0,1,.09-.4l1.39-.09a.61.61,0,0,1,1,.12c.2.59,1,1,.47,1.82Z"/><path class="cls-99" d="M6.74,45.06c.62,1.33,0,2.08-.83,2.75a.42.42,0,0,1-.73-.2C4.87,46.38,5.75,45.8,6.74,45.06Z"/><path class="cls-100" d="M14.67,30.92c.87-1.47,2.67-1.08,3.85-1.93.93,1.3.15,2-.9,2.63-.39.23-1,.57-.57,1.06s1,0,1.36-.39a2.26,2.26,0,0,0,.58-1c.6-2.1,2.05-2.5,3.71-1,.35.31.59.83,1.08.87.88.08,2.16.67,2.48-.46.24-.86-.66-1.71-1.72-1.94-.76-.17-1.6,0-2.27-.57-.61-1.36,0-2.17,1.31-1.9,1.89.38,4,.47,5.37,2.16.93,1.13,1.07-1.32,2-.43.54.5.86,1.78,2,.94.32-.23.43-.66.69-1a1.82,1.82,0,0,1,1.1-.39c.2,0,.43.12.6-.09a1.05,1.05,0,0,1-.57-.4c.61-1.34,1.84-.87,2.87-1,.73-.8,1.89-.94,2.26-.12.6,1.32,2.14,2,2.22,3.61a6.29,6.29,0,0,0,1,2.38,3,3,0,0,1-1.54,4.1c.51-.15,1.08-.36,1.46.58-1.15.44-2.32.15-3.45.24-.87-.31-1.66-.94-1.46-1.83.4-1.7-.65-2.45-1.71-3.29-.41-.33-.71-1-1.37-.59s-.54.92-.47,1.48c.08.72.41,1.37.55,2.06s.77,1.47-.09,2.15c-1.16.16-1.4-.75-1.83-1.51C32.36,33.82,30.49,33,29,33.87a13.89,13.89,0,0,1-6.33,1.63c2.26-.2,2.26-.2,2.53,1.19l-.16.07-.18,0a1.29,1.29,0,0,1-1.1,0,2.52,2.52,0,0,1-.82-.49c.06.33.67.44.39.92h0c-1.83.23-3.53,1.16-5.43,1H13.34c.21-.69-1.07-2,.82-2,1.56,0,1.9-.64.84-1.81A2.85,2.85,0,0,1,14.67,30.92Z"/><path class="cls-101" d="M40.13,47.23a4,4,0,0,0-2.41-2.39l-.48-2.4c1.78-.63,3.88,0,5.45-1.45.12-.35,0-.78.38-1,1.79.54.94,2.46,1.82,3.47,0,1.11,0,2.22,0,3.33a6.86,6.86,0,0,0-1.86.88C42,48.44,40.91,48.74,40.13,47.23Z"/><path class="cls-102" d="M25.24,36.69c-.37-1.73-1.88-.56-3-1.24,2.49-.75,4.91-1.16,7.09-2.47,1.54-.93,3.87.69,4.56,2.63a1.46,1.46,0,0,0,1.38,1.08,1.29,1.29,0,0,1,.77.15.59.59,0,0,1,.28.42,1.5,1.5,0,0,1-1.9.46C31.53,36,28.35,36.68,25.24,36.69Z"/><path class="cls-103" d="M39.15,36.61h3.33c-.21-.8-1-.06-1.25-.58,1.75-1,2.07-2.67.71-4.31-.58-.7-.29-1.49-.37-2.25,1-1,1.71-.65,2.33.45.35.62.11,1.37.54,1.95.93,0,1.09.84,1.45,1.45s.92.14,1.39,0c-1,1.41.59,2.48.5,3.78-1.61-.64-3.21.25-4.82,0a32.36,32.36,0,0,0-6.6.08l-.11-.16C37,35.62,38.07,36.06,39.15,36.61Z"/><path class="cls-104" d="M43.07,40l.41,1c-2.13,0-4.07,1.29-6.26,1-1.42-2.93-1.15-3.39,2-3.39A4.46,4.46,0,0,1,43.07,40Z"/><path class="cls-105" d="M37.22,42C38,41.1,39,41.24,40,41.22c.38,0,1,.27,1.08-.1.73-2.29,1.62,0,2.41-.12a6.14,6.14,0,0,1-6.24,1.44Z"/><path class="cls-106" d="M22.77,45.79c-.48-.38-.38-.93-.42-1.44-.19-1.42.48-2.93-.5-4.26-.37.07-.52-.11-.51-.46,2,.59,3-2,4.9-1.48a.53.53,0,0,1,0,.59,16.06,16.06,0,0,0-2.5,2.77l.06,1.9-.85-1.23C22.87,43.54,22.82,44.67,22.77,45.79Z"/><path class="cls-107" d="M21.34,39.63l.51.46C22.1,41.7,21,42.53,20,43.41c-1.12-.17-.73-.83-.49-1.45.51-.06,1-.24.88-.85s-.66-1-1.34-1.06c-1.44-.21-3,.44-4.32-.44Z"/><path class="cls-102" d="M17.93,38.17a6.94,6.94,0,0,1,5.43-1C21.69,38.29,19.93,38.92,17.93,38.17Z"/><path class="cls-74" d="M26.17,38.58c0-.14,0-.29.07-.43,1.94,0,3.91-.44,5.8.37l-.14.12C30,39.93,28.07,39.51,26.17,38.58Z"/><path class="cls-102" d="M23.37,37.2c-.2-.24-.57-.5-.54-.72,0-.46.45-.21.71-.15.46.11.9.27,1.36.41A2,2,0,0,1,23.37,37.2Z"/><path class="cls-58" d="M44.44,31.87c-.95-.81-.52-3.27-2.87-2.4-1.13-1.29-1-4-3.85-3.35v-.48a2.91,2.91,0,0,1,1.46-1.49l3.86,2.42c0,.51-1,.93-.1,1.56A3.65,3.65,0,0,1,44.44,31.87Z"/><path class="cls-108" d="M33.88,23.23c.5-1,2.09-.52,2.42-1.76.25-.57.73-.54,1.23-.49a2.53,2.53,0,0,1,1.15.81l1.45.49a.91.91,0,0,1,0,1.31l-1-.33c-1.44,1.32-2.89,1-4.33,0Z"/><path class="cls-12" d="M40.15,23.59c0-.44,0-.87,0-1.31,1.19.41,2.46.74,2.36,2.41Z"/><path class="cls-109" d="M39.18,20.44l.46-.13c.7-.18,1.28.23,1.9.4.18.2.37.39.55.58C41.05,21.25,39.87,21.68,39.18,20.44Z"/><path class="cls-109" d="M38.68,21.79l-1-.4c-.25-.58.15-.8.56-1a1.84,1.84,0,0,1,.47.06C38.68,20.9,38.68,21.35,38.68,21.79Z"/><path class="cls-110" d="M34.83,23.27a11.07,11.07,0,0,0,4.33,0l0,.89c0,1-.82,1.14-1.46,1.49C36.7,24.92,35.11,24.89,34.83,23.27Z"/><path class="cls-111" d="M38.22,20.39l-.56,1-1.36.08c-.61-.19-1.38-.15-1.53-1,.47-.79,1.24-.39,1.89-.48h1.09Z"/><path class="cls-112" d="M41.54,20.71a2.23,2.23,0,0,1-1.9-.4C40.51,19.33,41,20.17,41.54,20.71Z"/><path class="cls-113" d="M36.66,20c-.51.64-1.27.29-1.89.47H31l-1-.11c0-.3,0-.61,0-.91,1.12-.07,2.43.31,2.63-1.54.06-.57.78,0,1.2.07l.48.49Z"/><path class="cls-114" d="M26.17,38.58c1.91-.23,3.82.53,5.73.06-1.35,4.86-5,3.07-8.17,2.87C23.69,39.81,24.73,39,26.17,38.58Z"/><path class="cls-115" d="M32.45,43.41a2.68,2.68,0,0,1-1,1.91c-3.2,1.07-4.35.74-5.32-1.52,0-.14,0-.27,0-.41Z"/><path class="cls-115" d="M24.28,44.36l0-.92,1.95,0v0C26.28,45.19,25.33,44.87,24.28,44.36Z"/><path class="cls-116" d="M24.28,44.36c.76-.08,1.75.32,1.93-.94,1,2.77,3.36,1.71,5.27,1.9-.22,1.36-2.3.4-2.4,1.91C27.45,46.33,25.66,45.68,24.28,44.36Z"/><path class="cls-117" d="M19.48,42c0,.53-.08,1.1.49,1.45-.39,2.8-3.28,2.62-4.88,4-.25.21-.35-.69-.42-1.12,1-1.18,2.55-1.31,3.85-1.93C19.36,43.77,18.08,42.32,19.48,42Z"/><path class="cls-117" d="M13.25,47.24a1.54,1.54,0,0,1,1-1.57c.33-.12.36.34.38.62C14.18,46.58,14,47.33,13.25,47.24Z"/><path class="cls-118" d="M40.13,47.23a1.59,1.59,0,0,0,2.24.18c.67-.46,1.51-1.17,2.53-.66,0,.83.23,1.7-.42,2.42-.43.34-.48,1.89-1.47.47-.25-.19-.51-.56-.74-.54C40.55,49.22,40.55,49.25,40.13,47.23Z"/><path class="cls-1" d="M43,49.64c.71.55,1-.24,1.47-.47L44,51.09l-1.45,0C42.54,50.53,42.45,50,43,49.64Z"/><path class="cls-119" d="M22.36,28c2.2-.29,4.12,0,4.85,2.51.12.44.49.85-.12,1.23-.85.52-4.35,0-4.69-.89-.52-1.35-1.55-1-2.38-.82-1.29.3-.62.93-.05,1.44-1.13.54-1.16,2.44-2.87,2.28a1.28,1.28,0,0,1-1.19-1c-.3-.93.55-1.46,1.06-1.61,1.21-.35,1.76-.94,1.55-2.19,0-.16,0-.31,0-.47C19.8,28.32,21,27.75,22.36,28Z"/><path class="cls-120" d="M22.36,28c-1.17,1-2.56.26-3.83.48.82-.63,2-.68,2.51-1.89a2.1,2.1,0,0,1,2.28-.91c3.06.72,6.14.25,9.2.39.7,0,1.27.14,1.36,1a1,1,0,0,0,0,1c0,.86.15,1.72-1.09,2-1.61.41-1.7-.91-2.09-1.87-1.13.66-.23,1.84-1.28,2.61-.69-2.89-3.09-3.48-5.46-4.1C22.82,26.41,22.29,26.86,22.36,28Z"/><path class="cls-121" d="M33.88,28c-.44-.12-1.24.23-1.16-.59.05-.49.74-.33,1.16-.37h1a6.53,6.53,0,0,1,3.11.48C36.3,28.27,35.06,27.94,33.88,28Z"/><path class="cls-122" d="M39.15,36.61c-1,.22-2-.29-2.9.49a.87.87,0,0,1-.94-.41c-.45-1.27-1-2.53-1.33-3.83a2.12,2.12,0,0,1,1-2.67c1.11-.59,1.18.79,1.76,1C39.42,32.25,38.7,34.67,39.15,36.61Z"/></g></g></svg>