<svg xmlns="http://www.w3.org/2000/svg" viewBox="0 0 69.4 106.98"><defs><style>.cls-1{fill:#141412;}.cls-2{fill:#424342;}.cls-3{fill:#363535;}.cls-4{fill:#1a1716;}.cls-5{fill:#242321;}.cls-6{fill:#2c2927;}.cls-7{fill:#e46140;}.cls-8{fill:#e1774e;}.cls-9{fill:#ecc581;}.cls-10{fill:#d77d5c;}.cls-11{fill:#e96f3b;}.cls-12{fill:#c8937c;}.cls-13{fill:#e75c37;}.cls-14{fill:#f7e2d6;}.cls-15{fill:#d36841;}.cls-16{fill:#2e2a28;}.cls-17{fill:#d66e53;}.cls-18{fill:#403c3b;}.cls-19{fill:#493c35;}.cls-20{fill:#b2b3b4;}.cls-21{fill:#373635;}.cls-22{fill:#615e5d;}.cls-23{fill:#44403f;}.cls-24{fill:#4a4644;}.cls-25{fill:#3b3a3a;}.cls-26{fill:#535251;}.cls-27{fill:#b8aaa8;}.cls-28{fill:#c08f7e;}.cls-29{fill:#504c4b;}.cls-30{fill:#504d4c;}.cls-31{fill:#d26437;}.cls-32{fill:#e17448;}.cls-33{fill:#e2825a;}.cls-34{fill:#2e2a20;}.cls-35{fill:#ce7256;}.cls-36{fill:#e97c58;}.cls-37{fill:#e38543;}.cls-38{fill:#1f1d1c;}.cls-39{fill:#363533;}.cls-40{fill:#3f3d3c;}.cls-41{fill:#746d6b;}.cls-42{fill:#201e1d;}.cls-43{fill:#5a5654;}.cls-44{fill:#9c9390;}.cls-45{fill:#514f4d;}.cls-46{fill:#6c6a69;}.cls-47{fill:#686360;}.cls-48{fill:#494847;}.cls-49{fill:#4c4845;}.cls-50{fill:#5f5c5b;}.cls-51{fill:#f5ca86;}.cls-52{fill:#f3dd9d;}.cls-53{fill:#f3b163;}.cls-54{fill:#f5b86e;}.cls-55{fill:#e06f32;}.cls-56{fill:#f7caa8;}.cls-57{fill:#d36236;}.cls-58{fill:#e6834f;}.cls-59{fill:#f8b76b;}.cls-60{fill:#f5c07c;}.cls-61{fill:#f3c295;}.cls-62{fill:#837f7f;}.cls-63{fill:#7a7676;}.cls-64{fill:#565352;}.cls-65{fill:#0f0e0e;}.cls-66{fill:#3e3d3c;}.cls-67{fill:#8f8f8f;}.cls-68{fill:#5e5959;}.cls-69{fill:#797673;}.cls-70{fill:#252524;}.cls-71{fill:#1c1d1c;}.cls-72{fill:#242221;}.cls-73{fill:#6d6968;}.cls-74{fill:#575352;}.cls-75{fill:#b5b3b2;}.cls-76{fill:#f1ab56;}.cls-77{fill:#6b422e;}.cls-78{fill:#f6e4b1;}.cls-79{fill:#edde93;}.cls-80{fill:#fbdd9a;}.cls-81{fill:#fbc88e;}.cls-82{fill:#f6d678;}.cls-83{fill:#373534;}.cls-84{fill:#9d9f9e;}.cls-85{fill:#e56834;}.cls-86{fill:#807472;}.cls-87{fill:#c3c1c0;}.cls-88{fill:#ea4c28;}.cls-89{fill:#f0d28d;}.cls-90{fill:#ea8448;}.cls-91{fill:#e77138;}.cls-92{fill:#fbde9d;}.cls-93{fill:#e5a767;}.cls-94{fill:#474646;}.cls-95{fill:#5d5b5b;}.cls-96{fill:#fad98c;}</style></defs><title>headphones</title><g id="Layer_2" data-name="Layer 2"><g id="Layer_1-2" data-name="Layer 1"><path class="cls-1" d="M20.48,46.2l1.76,0c1.06.18,1.7.69,1.46,1.88a.4.4,0,0,0-.1.43c-.29,2.09-1.74,3.11-3.51,3.83l-.63.18c-.68.09-.82.65-1.07,1.15-.52,1.09-1,.74-1.49,0-1.11-1-2.78-1.2-3.67-2.54-.16-.15-.31-.31-.45-.47a7.92,7.92,0,0,1-1.3-1.92,2.94,2.94,0,0,1-.19-.66,9.09,9.09,0,0,1,1.65-5.26,2.35,2.35,0,0,1,.58-.41c.64-.21,1.36-.62,1.93-.05s0,1.11-.26,1.65a4.55,4.55,0,0,0-1,3.34c.21,1.22.38,2.87,2.44,2A12.42,12.42,0,0,0,18,47.58a4.91,4.91,0,0,1,.43-.48A3.18,3.18,0,0,1,20.48,46.2Z"/><path class="cls-2" d="M54.9,12.15l-2.83-.59c-1-.08-1.83-.26-2.06-1.4a1.35,1.35,0,0,1,.64-.77c1-.46,2.06,0,3.2.21a2.51,2.51,0,0,1-.51-1.26,1.49,1.49,0,0,1,1.59-1l.4,0a1.52,1.52,0,0,1,1,1,7.08,7.08,0,0,1,2.53,2.84l-.26.18C57.36,11.49,56.23,12.26,54.9,12.15Z"/><path class="cls-3" d="M54.93,7.29l-1.46,1c-.76.24-1.19-.36-1.72-.7-.92-.89-2.21-1.45-2.64-2.81.16-.56.46-.72,1-.34,1.47,1.12,3.66.82,4.82,2.52A1,1,0,0,0,54.93,7.29Z"/><path class="cls-4" d="M32,102.72l-.5-.91c-.12-1.33-.51-2.66,0-4,.15-.39.28-.78-.09-1.08-1.86-1.48-1.56-3.47-1.33-5.45a12.77,12.77,0,0,1,1.06-1.84c.61-.74.63-1.29-.33-1.56C29.63,87.57,29,86.62,28.1,86c0-.81-.92-1.42-.54-2.33a4.87,4.87,0,0,1,.39-4c.46-.74.75-1.69,1.93-1.46,1,1,.28,2,.11,3a1.87,1.87,0,0,1-.35.57c-1.25.47-.89,1.43-.71,2.34l.58,1A3.3,3.3,0,0,0,31,86.44c1,.08,1.95.64,2.86-.31a.94.94,0,0,1,1.6.21c.37.63-.1,1.11-.54,1.38a6.89,6.89,0,0,0-3,4,2,2,0,0,0-.43,2c.24,1.29.59,2.49,2.31,1.21.57-.42,1.53-1.07,2,0s-.21,1.68-1.15,2c-2.29.81-2.23,2.51-1.52,4.28.81,2,2.42,1.75,4.13,1.25.77-.23,1.45-.87,2.35-.63.62.49.88.94-.16,1.19-.42.1-.93-.14-1.26.33l0,0c-1.5.26-3,1-4.55.51C32.72,104,32.58,103,32,102.72Z"/><path class="cls-5" d="M29.61,81.76c-.42-1.25.56-2.38.31-3.61a.7.7,0,0,1,.08-.61,1.18,1.18,0,0,1,1.45-.34l.95-.12.72,1.23c-.15.32-.3.65-.46,1C32.15,80.74,31.5,82,29.61,81.76Z"/><path class="cls-6" d="M29.63,81.76a1.1,1.1,0,0,1-.16.37c-1.1.38-.21,1.33-.54,1.93C28.47,83.08,27.82,82.05,29.63,81.76Z"/><path class="cls-5" d="M31,86.44A1.3,1.3,0,0,1,29.51,85Z"/><path class="cls-7" d="M66.34,15c3.64,3.55,4.08,8.9,1.09,13.43-1,0-.82-.73-.88-1.33a11.54,11.54,0,0,0,.26-2.87A6.27,6.27,0,0,1,67,22.82a4.23,4.23,0,0,0-.37-3.65l-.5-.82c-.45-.87-1.34-1.5-1.46-2.56a1.11,1.11,0,0,1,.71-1.11A1,1,0,0,1,66.34,15Z"/><path class="cls-8" d="M58.39,33.62c-.77-.83-2-1.16-2.56-2.2-.15-.46-.27-.92.26-1.25a2.68,2.68,0,0,1,1.71.31,2.9,2.9,0,0,1,.8.63,1.87,1.87,0,0,0,2.33.61c.65-.22,1.37-.6,1.93.21a1.22,1.22,0,0,1-.14,1C61.53,34.68,59.94,34,58.39,33.62Z"/><path class="cls-9" d="M58.89,11.11c2.81-.42,5.23.07,6.63,2.89a1.15,1.15,0,0,1-1.07.22,8.31,8.31,0,0,0-3.62-1.1,2.16,2.16,0,0,1-2.32-1.33,1,1,0,0,1,.12-.73A.75.75,0,0,1,58.89,11.11Z"/><path class="cls-10" d="M62.72,32.9l-.11-1.07A7.06,7.06,0,0,1,63.85,30c1.44-.85,1.59-2.82,3.1-3.61a.34.34,0,0,1,.15.37c0,.13-.07.2-.11.2,0,.53-.14,1.1.44,1.45C66.46,30.52,64.65,31.77,62.72,32.9Z"/><path class="cls-11" d="M64.56,13.91l1,.09.82,1-.83,0C65.15,14.63,64.23,14.84,64.56,13.91Z"/><path class="cls-12" d="M17.51,41.82H17a1.71,1.71,0,0,1-.53-.79,2,2,0,0,1-.07-1.27c.7-1.13,1.8-2.24.18-3.5-.16-.3-.32-.6.1-.83,1.77.22,2.54,1.5,3.14,3a8.26,8.26,0,0,1-2.18,3A1,1,0,0,0,17.51,41.82Z"/><path class="cls-13" d="M16.7,35.42l.33.66c.29.64,1.31,1.36.32,2s-1.43-.55-2-1.16c-.52-.94-1.35-1.77-1.06-3a1,1,0,0,1,1.14-.65.27.27,0,0,1,.21.29,3.31,3.31,0,0,0,.89,1.6A.37.37,0,0,1,16.7,35.42Z"/><path class="cls-14" d="M17.66,41.42c.74-1,.88-2.43,2.18-3C20.3,40.24,19.17,41,17.66,41.42Z"/><path class="cls-15" d="M16.55,35.11c-1.05-.11-1-.85-.89-1.6l.84.72C16.51,34.52,16.53,34.81,16.55,35.11Z"/><path class="cls-16" d="M38.17,103.33c0-1,2.12.09,1.42-1.52,1.32.17,1.93,1.3,2.79,2.1l0,1.75c-.45.34-.88.4-1.27-.09l-.09.07C40.79,104,40,103.06,38.17,103.33Z"/><path class="cls-17" d="M13.17,42.85c-2-.08-4,0-5.75-1a1.08,1.08,0,0,1-.29-1c.86-1.34,1.81.08,2.7-.09a5.87,5.87,0,0,0,4.36-.06.7.7,0,0,1,.59.23c.33,1.06-.5,1.36-1.15,1.77A1.59,1.59,0,0,1,13.17,42.85Z"/><path class="cls-18" d="M19.28,57.26c-.56.12-.87-.34-1.29-.56-.35-1.11-1.14-2.1-.91-3.36.28-.27.65,1.18.79,0s.51-1.64,1.67-1.37c-1.58,1.87.24,3,1,4.32C20.42,57,19.91,57.21,19.28,57.26Z"/><path class="cls-19" d="M13.63,42.72l1.07-1.86c.74-.74,1.51-.46,2.29-.07l0,1a4.6,4.6,0,0,1-2.32,2.07l.56-1.26C14.7,42.13,14.18,43,13.63,42.72Z"/><path class="cls-20" d="M21.63,47.92c-.76,1.42-.76,1.42-2.52,2C20.09,48.25,20.09,48.25,21.63,47.92Z"/><path class="cls-21" d="M50,10.2l-.86-.06c-5.25-2.2-10.61-3.56-16.31-1.91l-1.74.06a6.46,6.46,0,0,1-2,.17,4.23,4.23,0,0,1-2,.08A2.17,2.17,0,0,1,26,7.77a1,1,0,0,1,.05-.68c.61-.87,1.58-.81,2.47-1C29.62,6,29.63,5,29.92,4.3a1.3,1.3,0,0,1,1.27-.2.88.88,0,0,1,.44.47,2.59,2.59,0,0,1,0,1.53c1-.27,2-.45,2.95-.72A7,7,0,0,1,36,5.18c3-.11,6-.22,8.63,1.7,2.23.43,4.74.3,6,2.81Z"/><path class="cls-22" d="M10.32,15c.17-1.37,1.76-1.41,2.29-2.45l.05-.05c.35-.26.55-.67.9-.92l.6-.4a2,2,0,0,1,1.17,1.07c0,1.62-1.59,2-2.37,3-1,.57-1.18,1.79-2.12,2.37a1.1,1.1,0,0,1-.92,0C9.22,16.53,10.64,15.87,10.32,15Z"/><path class="cls-23" d="M15.18,12.06c-.67,0-1-.29-1-.93,1.21-.69,1.79-2.19,3.29-2.5l.24.22a1.89,1.89,0,0,1-.27,1.58C16.84,11.2,16.43,12.2,15.18,12.06Z"/><path class="cls-24" d="M20.38,6.28l1.87-.68a.72.72,0,0,1,.25.64,3.15,3.15,0,0,1-1.45,1.58c-1.12.53-2,2-3.54.9l-.06-.09Z"/><path class="cls-25" d="M26.13,7.74a1,1,0,0,1,1,.47,1.26,1.26,0,0,1-.42.91c0-.08.11-.1.16-.15.6-.62,1.73-.24,2.13-1.19l2.15.51c-2.07,1.11-4.28,2-5.92,3.78l-3.38,2.42a.4.4,0,0,1-.5.07c-.14-.63-.7-.33-1.07-.47a1.14,1.14,0,0,1-.53-.74c.17-1.51,2-1.93,2.24-3.38a2.46,2.46,0,0,1,.93-.91c.86-.46,1.05-1.81,2.31-1.75A1.42,1.42,0,0,1,26.13,7.74Z"/><path class="cls-26" d="M18.53,16.89,16,19.72l-1,1.44-.85,1c-.54.59-.91,1.46-2,1.29a1.51,1.51,0,0,1-.62-.34c-.68-1.54.49-2.62,1-3.87.21-.38.46-.75.7-1.11A9.65,9.65,0,0,1,14,17c1.32-.22,2.05-1.43,3.2-1.94a3.21,3.21,0,0,1,1.23-.45,1.34,1.34,0,0,1,.6.2C19.41,15.66,18.56,16.19,18.53,16.89Z"/><path class="cls-15" d="M15.45,33.22l-.95.48c-1.81-.36-1.79-2.15-2.58-3.3-.41-1.48-1.34-2.79-1.45-4.37a1.27,1.27,0,0,1,.23-.61,1.11,1.11,0,0,1,.62-.17c.73.07.53.85.91,1.19A32.16,32.16,0,0,0,15.45,33.22Z"/><path class="cls-27" d="M12.2,23.23c.65-.36,1.31-.71,2-1.06-.18.62-.36,1.23-.55,1.84s-.51.83-1.11.72A.89.89,0,0,1,12.2,23.23Z"/><path class="cls-28" d="M12.2,23.23c.05.48-.06,1,.51,1.32.3.47-.11.66-.37.9,0,.33-.08.66-.11,1l-1-1a1.38,1.38,0,0,1-.06-1.09,3.41,3.41,0,0,1,.14-.55,1.17,1.17,0,0,1,.31-.46Z"/><path class="cls-29" d="M50.07,4.39l-.86.41L49,5a14.53,14.53,0,0,1-4.08-2,3,3,0,0,0-2.4-.59,9.6,9.6,0,0,1-3.92-.29,6.86,6.86,0,0,0-2.88.26,13.77,13.77,0,0,1-2.7.48c-.46-.1-1-.14-1.05-.74s.59-.9,1.13-1C35.78.61,38.49,0,41.29.51A10.15,10.15,0,0,1,50.07,4.39Z"/><path class="cls-30" d="M41.29.51c-2.8-.15-5.47.7-8.22,1-.36.05-.89.17-.7.66.09.21.69.21,1.06.3-.21,1.1-1.28,1.28-2,1.86H30c-1,.21-2.08.38-2.94-.49l4.46-2.7A19.27,19.27,0,0,1,39.57.09Z"/><path class="cls-31" d="M64.56,13.91l1,1A1.2,1.2,0,0,0,65,16l-.31.09a2.84,2.84,0,0,0-.31-.06,9.68,9.68,0,0,0-1.15-.49,12.93,12.93,0,0,1-2.34-1,3.42,3.42,0,0,0-3.36.3,1.27,1.27,0,0,1-1.26.13l-.82,0c-.42-.69.69-1.26.14-2a.18.18,0,0,1,0-.28,2.91,2.91,0,0,1,3.1-1.08c.67.91,1.66.76,2.6.81C62.51,12.57,63.76,12.7,64.56,13.91Z"/><path class="cls-32" d="M56.25,15l1.11-.56c1.7,1.06.9,2.8,1.15,4.25,0,.7,0,1.4,0,2.1-.06,2.27,0,4.55-1.11,6.65-1.38-.57-.64-1.63-.57-2.53s.07-1.55.11-2.32a4.45,4.45,0,0,0,0-2.86C56.68,18.17,56.47,16.6,56.25,15Z"/><path class="cls-33" d="M56.82,24.93c.23.81-.26,1.75.46,2.47a2.35,2.35,0,0,1-.94,2.92c-.41.25-.44.69-.51,1.1C54.83,29.06,56.72,27.13,56.82,24.93Z"/><path class="cls-34" d="M58.63,11.68l-3.1,1.08-.63-.61c1.25-.33,2.16-1.84,3.73-1.09Z"/><path class="cls-32" d="M55.57,13c1.25.75-.23,1.29-.14,2C54.43,14.26,55.78,13.71,55.57,13Z"/><path class="cls-33" d="M56.9,19.75a2.31,2.31,0,0,1,0,2.86Z"/><path class="cls-35" d="M7.42,40.88v.94c-.94,0-1.54-.72-2.35-1A12.29,12.29,0,0,1,0,29.42a2.56,2.56,0,0,1,1-2.06A.76.76,0,0,1,2,27.8a1.47,1.47,0,0,1,.17.93C1,32.77,3,35.85,5.33,38.79,5.91,39.61,6.89,40,7.42,40.88Z"/><path class="cls-36" d="M4.16,22.68H5c.43.94-1.09,1.61-.36,2.59A1.23,1.23,0,0,1,4,26c-.82.15-1.48,1.27-2.47.43A10,10,0,0,1,4.16,22.68Z"/><path class="cls-37" d="M1.53,26.4c1,.15,1.48-1.25,2.56-.89.32,1.43-.66,2-1.69,2.55a1.06,1.06,0,0,1-.66,0c-.18-.21-.36-.42-.55-.62v-1A1,1,0,0,1,1.53,26.4Z"/><path class="cls-38" d="M20.34,56.13c.19-.29.39-.57.58-.85.62-.52.75-1.59,1.79-1.66a1.06,1.06,0,0,1,.49.86,12.58,12.58,0,0,0-.15,2.3,1.54,1.54,0,0,1-.19.63C21.51,58.49,21,59.75,22,61.35c.37.57,1.44.26,1.54,1.19,0,.74-.76,1-1,1.53s-.12,1.24-.35,1.83a3.54,3.54,0,0,0,0,2.64c.82,1.39,1.63.35,2.44,0,1.07-.57,2.07-1.46,3.43-.8-.1,1.14-1.12.44-1.46.94l-.46.51c-.65.6,1.54,1.25,0,1.84l-.17.12h-.22c-1.36.93-.94,2.09-.43,3.27s1.24,2,2.24.26a1.38,1.38,0,0,1,1.4-.73,1.25,1.25,0,0,1,1.35,0c.46.35,0,.68-.18,1-.13.14-.28.28-.42.41-.54.51.06,1.08-.07,1.61a1.68,1.68,0,0,1-.61.71A2.36,2.36,0,0,0,27.57,80c-.33.94-.81,1.07-1.46.27l-.38-.14c.58-2.18-.82-3.62-1.94-5.16.09-1.06-.54-2.09-.1-3.16-.82-1-2.54-1-3-2.51l0,0a13,13,0,0,1,.08-4.53l.46-1.68a6.74,6.74,0,0,1-1.46-2.05l0,0c-.61-1.23.36-2.68-.55-3.87l0,0Z"/><path class="cls-39" d="M26.63,68.67l1-.79c-1.46-.62-2,1-3,1.26-.43-.73.1-1,.6-1.39,1.54-.84,3-1.08,4.24.54-.18,1.1-.9.55-1.46.47Z"/><path class="cls-39" d="M26.14,71c1-.6-1.2-1.24,0-1.84.54.75,1.49.15,2.2.64C28,71,27,70.89,26.14,71Z"/><path class="cls-40" d="M30.86,73.57c1.33,2.18-1.1.72-1.34,1.39,1-1,.11-.95-.56-1C29.5,73.37,30.21,73.6,30.86,73.57Z"/><path class="cls-41" d="M28,68.76c.49-.15,1.09.07,1.46-.47.7.1.91.58.91,1.21A2.12,2.12,0,0,1,28,68.76Z"/><path class="cls-39" d="M25.32,74.41c-.69-1.2-1.5-2.42.43-3.27C24.71,72.11,25.31,73.3,25.32,74.41Z"/><path class="cls-42" d="M20.72,69.26c.74,1.13,2.46,1.11,3,2.51L21.41,71A2.91,2.91,0,0,1,20.72,69.26Z"/><path class="cls-42" d="M20.84,64.78c0,1.51-.06,3-.08,4.53l-.44-.6C20.55,67.4,20,66,20.84,64.78Z"/><path class="cls-16" d="M33.65,103.82l4.55-.51a6.51,6.51,0,0,1-4.37.9A1.38,1.38,0,0,1,33.65,103.82Z"/><path class="cls-42" d="M25.56,53.84l.05.94c-.54,1.15-1.08,0-1.63,0a2.08,2.08,0,0,1-1.16.09l-.11-1.26.48-.34C24.06,53.12,25,52.7,25.56,53.84Z"/><path class="cls-43" d="M25.56,53.84c-.69-.61-1.56-.45-2.37-.56.7-.78,1.56-.33,2.37-.3Z"/><path class="cls-44" d="M41.15,105.57l1.27.09c.48.37.91,1,.25,1.27C41.78,107.24,41.54,106.18,41.15,105.57Z"/><path class="cls-45" d="M26.13,7.74h-1c-.31-.47-.89-.42-1.32-.65a4.1,4.1,0,0,0-1.49-.78l-.06-.7a5.67,5.67,0,0,1,3.42-1.2,1.6,1.6,0,0,1,.52.76,4.27,4.27,0,0,1,0,2.13C26.16,7.44,26.14,7.59,26.13,7.74Z"/><path class="cls-25" d="M25.67,5.37v-1L27,3.87c1,.23,2.08-.37,2.94.49.76,1.28.09,1.92-1,2.36C28.41,4.91,26.7,6,25.67,5.37Z"/><path class="cls-5" d="M26.11,80.23c.57.25,1,.3,1-.55.47,0,.93,0,1.4,0a6.37,6.37,0,0,0-1,3.94A7.67,7.67,0,0,0,26.11,80.23Z"/><path class="cls-46" d="M50.62,9.69c-1.86-1.35-3.84-2.34-6.24-2,.71-2,2.74-1.41,4.14-2.07,1.56-.27,2.21,1.43,3.55,1.65l1.4,1L55,10.31Z"/><path class="cls-42" d="M19.31,57.22c1.19,1.15.37,2.58.55,3.87-.63-.74-.17-1.67-.45-2.47C19.37,58.15,19.34,57.69,19.31,57.22Z"/><path class="cls-42" d="M19.84,61.05A4.37,4.37,0,0,1,21.3,63.1,2,2,0,0,1,19.84,61.05Z"/><path class="cls-15" d="M11.66,23.46c0,.15,0,.31,0,.46-.31.5-.56,1-.85,1.53l-.14.11c-.49.05-.69-.33-.93-.64a1.25,1.25,0,0,0-.92-.55c-.4.11-.58.49-.88.71-.79.18-1-.59-1.4-.94l-.44-.38c-.29-.34-.93-.49-.63-1.14L6,22.53c1-.76,2.2-.52,3.34-.53a4,4,0,0,1,1.09.2C11.09,22.4,11.34,23,11.66,23.46Z"/><path class="cls-47" d="M9.83,22.55,6,22.53c0-.27,0-.54,0-.81.73-.85.4-2.21,1.4-2.92a1.34,1.34,0,0,1,.05,1.87C8,20.36,8,19.31,9,19.81,9.62,20.62,10.64,21.3,9.83,22.55Z"/><path class="cls-37" d="M5.5,22.62l.92,1A1.84,1.84,0,0,1,4.5,25c-1.3-1.11.36-1.56.52-2.34Z"/><path class="cls-48" d="M8.83,19.72C7.75,20,8.2,21.49,7,21.86l.39-3.06A18.74,18.74,0,0,1,10.32,15C11.5,16,10,16.57,9.88,17.41A.64.64,0,0,1,10,18a11,11,0,0,1-.87,1.57Z"/><path class="cls-49" d="M24.14,60.49C25,59.57,26,60,27,60.18c.24,2.73-.34,3.28-4.2,4a2.07,2.07,0,0,1-.35,0c-.13-.76.64-1,.85-1.62a.77.77,0,0,1,.5-.32,1.45,1.45,0,0,0,1.32-1.12c.22-.27.54-.19.82-.25a2.1,2.1,0,0,0-.75,0A.92.92,0,0,1,24.14,60.49Z"/><path class="cls-50" d="M52.07,7.26c-1.72,1-2-1.47-3.4-1.42l-.08-.29a1.29,1.29,0,0,1,.59-.67l0-.08Z"/><path class="cls-51" d="M67.44,22.62,67.37,24a.3.3,0,0,1-.35.24,6.91,6.91,0,0,0-2.16,3,3.31,3.31,0,0,1-2.08,2.17,3,3,0,0,0-1,.56c-1.59,1.46-1.68,1.43-2.48-.8.14-1.53.73-3,.93-4.48a3.85,3.85,0,0,1,.58-1.25,2.08,2.08,0,0,0,.87-2.84c.67-.49,1.32-.22,2,0,.88.34,1.28-.14,1.54-.88s.57-1.25,1.31-1.46l.46.47C67.16,20,68.08,21.23,67.44,22.62Z"/><path class="cls-52" d="M66.47,18.29l-1,1.45c-.79-1.16-3.42-1.86-1-3.83A1.34,1.34,0,0,1,65,16C65.34,16.86,66.47,17.2,66.47,18.29Z"/><path class="cls-11" d="M67.44,22.62l-.51-3.86C67.62,20,68.49,21.17,67.44,22.62Z"/><path class="cls-11" d="M67,24.13l.36-.16c-.05,1,.41,2.06-.38,3,0-.17-.07-.33-.1-.49A1.64,1.64,0,0,1,67,24.13Z"/><path class="cls-53" d="M56.34,30.32c.32-1,.63-1.95.94-2.92.21-2.26.43-4.51.64-6.77a9.71,9.71,0,0,1,2.46-3c.56-.05.91.15,1,.75a24.35,24.35,0,0,0-1.18,5.32c-.61,2.45-.2,5.22-2.32,7.17C57.3,30.79,56.71,30.87,56.34,30.32Z"/><path class="cls-54" d="M59.72,29.3c.53,1.09.51,1.06,1.28.25a2.26,2.26,0,0,1,1.66-.68c.52.44,1.35.6,1.4,1.49-.34.62-.59,1.34-1.45,1.47-.84-.13-1.43.51-2.16.7a1.59,1.59,0,0,1-2.25-1.31C58.36,30.3,58.56,29.42,59.72,29.3Z"/><path class="cls-55" d="M59.72,29.3l-1.51,1.92-.37-.37c1-2.35,1.21-4.9,1.86-7.34.49.19.1,1.26,1,1C60.74,26.2,60.06,27.71,59.72,29.3Z"/><path class="cls-56" d="M64.06,30.36a3.41,3.41,0,0,1-1.4-1.49,2.15,2.15,0,0,0,1.74-2c0-1.77,2.07-2.1,2.19-3.7,0-.33.29.06.33.22a5.59,5.59,0,0,1,.09.7l-.12,2.32A6.17,6.17,0,0,1,64.06,30.36Z"/><path class="cls-57" d="M17,40.79l-2.29.07-.13,0a6.63,6.63,0,0,1-.88-.8,19.1,19.1,0,0,1-2-1.87,1.54,1.54,0,0,1-.22-.62,2.08,2.08,0,0,1,.11-.66c.26-.53.57-1,1.24-1,1,.24,1.19,1.29,1.85,1.87.49.89,2.48.41,2,2.18Z"/><path class="cls-58" d="M16.63,39.88c-.2-1.46-2.2-.54-2.49-1.88.34-.62.37-1.55,1.44-1.46l1.53,1.32c.57-.68-.24-1.2-.08-1.78C19.29,37.59,17.94,38.73,16.63,39.88Z"/><path class="cls-59" d="M15.58,36.54c-.61.37-.39,1.54-1.44,1.46l-1.43-2c-1.2-.53-1.42-1.84-2.2-2.71A23.34,23.34,0,0,1,9,30.81a2.45,2.45,0,0,1-.15-.65c0-.55.43-1.48.63-1.27.78.82,2.42-.15,2.71,1.4,1.1.91,1.11,2.54,2.27,3.41C14.43,34.81,15.55,35.47,15.58,36.54Z"/><path class="cls-60" d="M11.63,37l.06.48c-1,.74-2.32-.17-3.18.86a5.54,5.54,0,0,0,3.31-.51,7.31,7.31,0,0,1,2.32,2C12.91,41,11,40.1,9.83,41.29c-.9.45-1.5-.89-2.4-.41a4.34,4.34,0,0,1-2.32-1.49c.15-.41-.06-.85.1-1.25a1.82,1.82,0,0,1,.34-.55C6.9,36.7,8,35.46,9.6,34.92c.93-.09,1.27.67,1.76,1.23A1.26,1.26,0,0,1,11.63,37Z"/><path class="cls-61" d="M9.83,41.29c.77-2.52,2.87-.93,4.31-1.38.43.16.47.51.43.9C13.13,42.34,11.47,41.73,9.83,41.29Z"/><path class="cls-62" d="M48.67,5.84c-1.19,1.17-3.14.57-4.29,1.84-2.49-2.4-5.66-1.83-8.66-2-.91-.52-2.59.64-2.84-1s1.51-1.46,2.46-2c2.47-1.54,5,0,7.45-.24,2.34.46,4.51,1.21,5.89,3.36Z"/><path class="cls-63" d="M43,2.93a8.13,8.13,0,0,1-2.34-.24c-2.55-1-4.59.77-6.88,1.13a.73.73,0,0,0-.52.93,1.18,1.18,0,0,0,.71.52c.58.18,1.29-.11,1.79.45l-1.41.1c-1.5.6-2.49.18-2.89-1.43l0,0c-.12-1.45,1.32-1.25,2-1.86A3.72,3.72,0,0,1,35.75,2c.94-.52,2,.08,3-.4A11,11,0,0,0,43,2,.65.65,0,0,1,43,2.93Z"/><path class="cls-22" d="M25.67,5.37c.23,0,.52,0,.69-.09C28.24,4,29,4.69,28.94,6.72c-1,.08-1.94-.09-2.77.57C25.33,6.82,26.27,5.9,25.67,5.37Z"/><path class="cls-25" d="M31.42,4.39a2.8,2.8,0,0,0,2.89,1.43c-.93.92-2.31.13-3.4,1.48C31.15,5.93,31.28,5.16,31.42,4.39Z"/><path class="cls-64" d="M29,7.78c-.27,1.34-1.5,1-2.36,1.4h0a1,1,0,0,1,.48-1A2.94,2.94,0,0,0,29,7.78Z"/><path class="cls-65" d="M23.24,9.62a1.08,1.08,0,0,0-.95.51c-.37.5-1,.55-1.48.91l-1.19.86a17.53,17.53,0,0,1-1.82,1,9.47,9.47,0,0,0-1.12,1l-1,.87a3.8,3.8,0,0,1-1.85,1.34c-.9.21-1.56.08-1.16-1.11.57-1.18,2-1.59,2.48-2.88L17,10.29A11.39,11.39,0,0,1,22,7.82C22.94,8,23.83,8.3,23.24,9.62Z"/><path class="cls-66" d="M12.7,14.94c.05.66.27.94,1,.72.91-.27,1.18-1.16,1.87-1.63.49.35,1.17.19,1.65.59.24.21.44.44.25.78-.29.66-1.35.43-1.48,1.37-.19,1.4-1.19.53-1.87.56-.66.68-1.56,0-2.26.41-.43,0-1,.61-1.14-.36C11.41,16.57,11.27,15.13,12.7,14.94Z"/><path class="cls-67" d="M10.75,17.38c.36.59.66,0,1-.05.93-.26,1.7-.21,1.88,1-.18.34-.37.68-.56,1-1.23.33-.79,2.4-2.42,2.32a11.79,11.79,0,0,1-1.21-2.47,2.18,2.18,0,0,1,.36-1.36l.09-.4Z"/><path class="cls-68" d="M21.79,8.2,17,10.28l.48-1.56C19,9,19.71,7.66,20.87,7.26c.3.29.8.08,1.07.45A.36.36,0,0,1,21.79,8.2Z"/><path class="cls-69" d="M21.88,7.78c-.4,0-.81-.07-1-.52l1.44-1c.6-.32,1.12-.36,1.39.42C23.46,7.7,22.73,7.84,21.88,7.78Z"/><path class="cls-70" d="M17.5,15.4,17,14.94c.18-1.59,1.78-1.95,2.58-3,.26-.44,1.16-.47.81-1.3.47-.75,1.24-.4,1.88-.51.17,1.81-1.92,2-2.41,3.3-.06.93-.84,1.15-1.49,1.5Z"/><path class="cls-71" d="M21.88,7.78,23.7,6.72c.65.09,1.55-.16,1.42,1-1.2.06-.76,1.75-1.88,1.89,0-1-.58-1.34-1.45-1.42Z"/><path class="cls-72" d="M21.34,14.42l-1.28,1.1c-.43.23-.62,0-.77-.39A1.23,1.23,0,0,1,20.46,14l1-.37Z"/><path class="cls-73" d="M20.46,14l-1,1a.34.34,0,0,1-.49.06l-.59-.12,1.49-1.5Z"/><path class="cls-74" d="M26.62,9.18l-1.09,1.33c-.28-1.23.48-1.2,1.1-1.33Z"/><path class="cls-66" d="M19,15.05l.49-.06.59.53-1.53,1.37C17.93,16.1,18.75,15.65,19,15.05Z"/><path class="cls-75" d="M10.77,21.64c.8-.74.7-2.37,2.29-2.32-.45,1.34-1.53,2.46-1.39,4v.13l-1.05-.91A.78.78,0,0,1,10.77,21.64Z"/><path class="cls-22" d="M13.62,18.3a2.53,2.53,0,0,0-1.88-1c.8-1.08,1.6.18,2.41,0A1,1,0,0,1,13.62,18.3Z"/><path class="cls-76" d="M12.23,30.29c-.8-.66-2.19.41-2.77-.93l-.11.93c-1.76-1-1.62-2.46-1.1-4.05.65-.56.4-2.25,2-1.65.15.33.3.65.44,1C11,27.2,12.14,28.58,12.23,30.29Z"/><path class="cls-77" d="M10.84,25.45c-.14-.75-.09-1.38.85-1.53.16.58-.24,1-.41,1.51l-.22,0Z"/><path class="cls-46" d="M43,2.93c0-.32,0-.64,0-1,2.48.09,4.2,1.84,6.23,2.91-.17.32-.34.63-.5,1C46.87,4.67,45.16,3.32,43,2.93Z"/><path class="cls-30" d="M38.73,1.56c-.92.68-2,.34-3,.4C36.65,1.12,37.73,1.62,38.73,1.56Z"/><path class="cls-78" d="M61.13,18.35c-.12-.5-.5-.47-.88-.45-.76-.68,0-1.75-.62-2.46,0-1.07,1-1,1.55-1.38.82.26,1.45,1,2.39.91a1.29,1.29,0,0,0,1,.94h0c-1.33,1.69,1.13,2.43,1,3.83,0,1.7-.45,2.58-2.2,1.39a3.08,3.08,0,0,0-1.56-.49c-.79-.49-.46-1.3-.59-2Z"/><path class="cls-79" d="M61.18,14.06l-1.43,1.37c1,2-.62,2.53-1.82,3.31-.34-1.4.19-2.93-.57-4.28A3.65,3.65,0,0,1,61.18,14.06Z"/><path class="cls-52" d="M64.54,15.91c-.41.08-.84.65-1.2.11-.14-.21.14-.69.23-1C64.16,15,64.37,15.44,64.54,15.91Z"/><path class="cls-80" d="M57.93,18.74c.44-1.19,2.4-1.56,1.82-3.31,2.6.33-.47,1.8.5,2.47a4.42,4.42,0,0,1-2.33,2.73C57.92,20,57.93,19.37,57.93,18.74Z"/><path class="cls-81" d="M5.5,38.51l-.39.88C2.23,36.12.25,32.59,1.74,28a2.32,2.32,0,0,1,.45-.13c1.18.11,1.18.11.65,2.17C2.12,33.4,4.33,35.79,5.5,38.51Z"/><path class="cls-82" d="M2.16,29.83c-.09-.65,1.53-1.26,0-1.92a5.72,5.72,0,0,0,1.9-2.4L4.5,25l1.92-1.39h0a3.72,3.72,0,0,1,.47,3.3c-.56.45-1.3.59-1.15,1.74S4.91,30.44,4.06,31s-1.25.07-1.51-.69A2.46,2.46,0,0,0,2.16,29.83Z"/><path class="cls-42" d="M24.14,60.49l.92,0c.58,0,1.48-.17,1.43.69,0,.68-1-.62-1.3.29-.46.34-.58,1.17-1.41,1l-.49,0c-.32-.65-1.19.3-1.46-.51Z"/><path class="cls-83" d="M24.2,54.39c.69-.65.59,1.53,1.41.39a2.45,2.45,0,0,1-2.84,2.32v-.58C22.74,55.46,23.61,55,24.2,54.39Z"/><path class="cls-40" d="M29.52,75c-.14.65,2.43,1.29,0,1.94C29.28,76.24,27.27,75.6,29.52,75Z"/><path class="cls-84" d="M24.2,54.39c.31,1.24-1.2,1.25-1.44,2.13-.78-.58-.2-1.1.06-1.64C23.23,54.57,23.62,54.22,24.2,54.39Z"/><path class="cls-42" d="M21.86,65.81l-.1,2.88A2.23,2.23,0,0,1,21.86,65.81Z"/><path class="cls-85" d="M8.86,26.43c-.94,1.43,0,2.62.49,3.86,0,.15,0,.31,0,.47-1,.91-1.36.94-1.84-.06a10.47,10.47,0,0,1-.86-2.87c.14-1.06,0-2.24,1.24-2.81,0-.7,0-1.42,1-1.4C8.89,24.56,9.37,25.5,8.86,26.43Z"/><path class="cls-86" d="M10.77,21.64c0,.3-.1.61-.16.91H9.83c.25-1.15-1.27-1.67-1-2.83h0c.29-.22.43-.71.94-.48A2.31,2.31,0,0,1,10.77,21.64Z"/><path class="cls-37" d="M7.9,25c-.37.94-1.12,1.76-.9,2.89l-.22.15-.26,0-.2-.18a.36.36,0,0,1,.11-.45V23.62C7.52,23.45,7.28,24.68,7.9,25Z"/><path class="cls-37" d="M8.86,26.43c.2-.93-.82-1.88,0-2.81.51.26,1.12.36,1.37,1C8.93,24.54,9.69,26.1,8.86,26.43Z"/><path class="cls-47" d="M9.78,19.24l-.94.48a1.85,1.85,0,0,1,.95-1.91C9.78,18.28,9.78,18.76,9.78,19.24Z"/><path class="cls-87" d="M23.78,62.48c.41-.42.57-1.19,1.41-1C25.13,62.84,24.88,63,23.78,62.48Z"/><path class="cls-88" d="M60.72,24.54c-.23.18-.56.56-.66.51-.66-.35-.14-1-.36-1.54a7.18,7.18,0,0,1,1.43-5.16h0c.27,1.74.86,3.47,0,5.21Z"/><path class="cls-53" d="M61.18,23.57l0-5.21c.89.58.37,1.53.59,2.28C63.88,22.07,62.55,22.82,61.18,23.57Z"/><path class="cls-89" d="M11.82,37.87c-.67,1.86-2.2.9-3.39,1-.08,0-.92-.61-.37-.77.77-.24.84-1.64,1.85-1.14a3.56,3.56,0,0,0,1.78.56A.87.87,0,0,1,11.82,37.87Z"/><path class="cls-90" d="M11.63,37l-.38-.44a14.18,14.18,0,0,0-1.22-2c-.69-.83-.11-1.27.77-1.41,1.11.65,1.27,1.93,1.91,2.88Z"/><path class="cls-91" d="M10.8,33.16c-.32.46-1.09.83-.23,1.5a2,2,0,0,1,.68,1.94L9.8,35.14c-2.2-1-2.55-3.12-3.29-5a2.37,2.37,0,0,1,.36-2.17l.13,0a4.52,4.52,0,0,1,.88,2.35c.18,1.2.84.77,1.48.5A5.12,5.12,0,0,1,10.8,33.16Z"/><path class="cls-92" d="M7,30.28A21.43,21.43,0,0,0,9.8,35.14c-1.37,1-2.58,2.27-4.26,2.82a1.5,1.5,0,0,1-1-1.41,5.83,5.83,0,0,0,.18-2.45,6.51,6.51,0,0,1,1.71-6.22h0C7.05,28.6,6.31,29.59,7,30.28Z"/><path class="cls-93" d="M5,36.58,5.54,38c0,.18,0,.37,0,.55a10.1,10.1,0,0,1-3.34-8.68h.49C3.11,32.19,4.5,34.23,5,36.58Z"/><path class="cls-94" d="M19.91,12.06A12.74,12.74,0,0,1,17,14.94c-.36-.48-1.45.18-1.42-.91l.87-.6a1,1,0,0,0,1-.94l1.92-1C19.89,11.37,20,11.6,19.91,12.06Z"/><path class="cls-95" d="M17.45,12.49c.37.23.59.56.18.88s-.75.59-1.16.06Z"/><path class="cls-25" d="M19.91,12.06l-.54-.53,1-.89C21.7,11.64,20.17,11.62,19.91,12.06Z"/><path class="cls-96" d="M5,36.58c-1.49-2-2.6-4.14-2.35-6.75.58,0,.18,1.33,1,.83,1-.64,1.91-1.46,1.75-2.87-.06-.49-1.18-1.08,0-1.44.79-.24.41.93,1,1.06,0,.16,0,.31.05.47C5.84,30.23,4,32.46,6,35.06,6.44,35.64,4.72,35.63,5,36.58Z"/><path class="cls-96" d="M7,30.28c-.88-.65-.4-1.58-.51-2.39l.39.05Z"/></g></g></svg>