<svg xmlns="http://www.w3.org/2000/svg" viewBox="0 0 59.12 58.99"><defs><style>.cls-1{fill:#b0dde7;}.cls-2{fill:#d2ebf4;}.cls-3{fill:#bde0ea;}.cls-4{fill:#bbe1ec;}.cls-5{fill:#7a7879;}.cls-6{fill:#908687;}.cls-7{fill:#f1f1f3;}.cls-8{fill:#b4dfea;}.cls-9{fill:#d2ecf6;}.cls-10{fill:#c7e4eb;}.cls-11{fill:#676566;}.cls-12{fill:#c7e6ee;}.cls-13{fill:#827d81;}.cls-14{fill:#615f62;}.cls-15{fill:#b9dde6;}.cls-16{fill:#7d7879;}.cls-17{fill:#7d777a;}.cls-18{fill:#eef3f6;}.cls-19{fill:#d9edf4;}.cls-20{fill:#c2e4ec;}.cls-21{fill:#d4e7ef;}.cls-22{fill:#c7e3ec;}.cls-23{fill:#bdd5e1;}.cls-24{fill:#e8f4f9;}.cls-25{fill:#b1dee7;}.cls-26{fill:#dcdbe7;}.cls-27{fill:#7c7174;}.cls-28{fill:#dff0f8;}.cls-29{fill:#abdbe5;}.cls-30{fill:#cde9f0;}.cls-31{fill:#6a6363;}.cls-32{fill:#898485;}.cls-33{fill:#afd9e7;}.cls-34{fill:#e1f2f9;}.cls-35{fill:#ccd2de;}.cls-36{fill:#a7dbe8;}.cls-37{fill:#c9dfea;}.cls-38{fill:#e4f1f7;}.cls-39{fill:#b6dde4;}.cls-40{fill:#928b8d;}.cls-41{fill:#919195;}.cls-42{fill:#817e81;}.cls-43{fill:#5c6668;}.cls-44{fill:#dcedf4;}.cls-45{fill:#e5f2f7;}.cls-46{fill:#d5edf4;}.cls-47{fill:#def1f7;}.cls-48{fill:#d6d3dd;}.cls-49{fill:#d0d1de;}.cls-50{fill:#eef6fa;}.cls-51{fill:#d7cde1;}.cls-52{fill:#d6d8e1;}.cls-53{fill:#ced7e0;}.cls-54{fill:#cfd6e2;}.cls-55{fill:#d9e4f1;}.cls-56{fill:#dee6ed;}.cls-57{fill:#e5ecf6;}.cls-58{fill:#ccd7e4;}.cls-59{fill:#cee5f5;}.cls-60{fill:#dacedb;}</style></defs><title>iceskates</title><g id="Layer_2" data-name="Layer 2"><g id="Layer_1-2" data-name="Layer 1"><path class="cls-1" d="M2.72,42.15l-.94-.51-.43-.48A3.53,3.53,0,0,0,1.25,40c-2.39-4.73-.76-9.44.07-14.15.68-.49.41-1.22.48-1.87,1.57-2,2.47-4.49,4.76-5.88a1.89,1.89,0,0,1,1-.37,1.42,1.42,0,0,1,1,.41c.6,1.19-.33,1.89-.88,2.71a11.58,11.58,0,0,0-1.5,2.39,7.27,7.27,0,0,1-1.7,2.23A18.58,18.58,0,0,0,4,39.23a1.66,1.66,0,0,0,1,1.21,3.14,3.14,0,0,1,2.47,1.61c.46,1.76-.78,1.63-1.77,1.42A12.16,12.16,0,0,1,2.72,42.15Z"/><path class="cls-2" d="M32,33.49c-1-6-2-12-3.08-18-.52-2.85-.16-5.71-.3-8.57,0-.75.43-1.1.92-1.55.8-.73,1.84-1.32,2-2.58l2.88,0c.19.7-.34.95-.78,1.33a7.67,7.67,0,0,1,2.29.14,2.26,2.26,0,0,1,1.74,1.44,3.25,3.25,0,0,1-.12,2.54c-.65.74-1.34.27-1.87-.08-1.47-1-.82.55-1.15.91-.62.51-.72,1.84-1.89,1.44-.69-.24-.65-1-.5-1.63-.6,1.42.91,3.3-.9,4.53-1.51-1.32-1.05-3.19-1.48-4.83.86,3.2.66,6.51,1.44,9.81,1.13,4.79,2.15,9.77,1.55,14.82l-.28.27Z"/><path class="cls-3" d="M32.52,34.43c0-.31,0-.62,0-.93h.07c1.46-1.1,1.27-2.53.87-4-.31-1.19-.9-2.38-.09-3.6.63-.3.89.17,1.06.6a8,8,0,0,1,1,3.19c-.28,3.72,2.17,5.57,4.76,7.37a9.66,9.66,0,0,0,3.14,2.3c.75.35,1.63.62,1.88,1.58-.16,1,.67.64,1.09.82.77.32,1.25.73.64,1.6-3.16,1-5.64-.52-8-2.26-.57-.41-.94-1-1.54-1.45s-.76-1.14-1.53-1.21a7.39,7.39,0,0,1-1.44-1.57c-.12-.17-.22-.34-.32-.51A12.13,12.13,0,0,0,32.52,34.43Z"/><path class="cls-4" d="M39.68,2.79a27.28,27.28,0,0,1,2.43,11.5c-1.23,0-1-1.15-1.34-1.81-.2-2.38-1.24-4.57-1.68-6.92-.72,1.68,1.31,3.17.31,4.85-1.59.72-1.73-.56-2.12-1.52,0-.12,0-.24,0-.36,0-4-.32-4.18-5.54-3.66.37-1.42,2.28-.79,2.68-2.06l1.91-.08A2.54,2.54,0,0,1,39.68,2.79Z"/><path class="cls-5" d="M40.22,49.22l-.36-.44a1.52,1.52,0,0,1-1.13-.88h0c-.56-.45-1.48-.26-1.87-1h0a2.13,2.13,0,0,1-1-.86c.38-1.09-.7-2.2,0-3.29a1.07,1.07,0,0,1,.58-.27c.34.3.67.76,1,0a16.11,16.11,0,0,0,5.34,3.86c1.08.57,2.44.93,2.81,2.38-.31,1.38-1.41.75-2.2.89-.84.35-1.56-1.8-2.47-.11C40.69,49.61,40.39,49.6,40.22,49.22Z"/><path class="cls-6" d="M24.32,36.33l-.24.05-.23,0c-.48-.32-1-.54-1.28-1.13a2.32,2.32,0,0,1,.14-2.1.38.38,0,0,1,.62,0l.12,1.83,1.85-1.34c-.26.94-.45,1.6-.64,2.27C24.54,36,24.43,36.17,24.32,36.33Z"/><path class="cls-7" d="M34.42,36.37c-.67-.26-1.09-1-1.92-1,0-.32,0-.65,0-1A2.06,2.06,0,0,1,34.42,36.37Z"/><path class="cls-7" d="M30.1,39.73l1.12.1a1,1,0,0,1-.16,1.34h-.48C30.07,40.81,29.24,40.55,30.1,39.73Z"/><path class="cls-8" d="M20,2.78c1.51,1.6,1,3.72,1.4,5.61C22,11.62,22,15,22.88,18.15c.44,1.6.3,3.28.69,4.89.19.77.12,1.69-.87,1.95s-1.38-.59-1.76-1.26a4.63,4.63,0,0,1-.59-2.52,14.9,14.9,0,0,0-.79-4.91c-.57-2-.64-4.13-1.06-6.18a34,34,0,0,1,0-5.71C18.52,3.56,18.44,2.3,20,2.78Z"/><path class="cls-9" d="M20,16.21a7.89,7.89,0,0,1,1,4.07,7.61,7.61,0,0,0,.18,2.35c.26.75.43,2.12,1.39,1.93,1.29-.26.65-1.45.53-2.38-.18-1.33-.14-2.68-.2-4,.54,2.59,1.91,5.05.11,7.83-.6.92,0,2.68.19,4a12.25,12.25,0,0,1,.15,3.08,2.92,2.92,0,0,0-.38-.14c-.92-1-.82-2.39-1.48-3.48-.08-.45-.38-1,.54-1.46-1.42.34-1.16,1.37-1.48,2.07-.56,1.24-.18,3.13-2.23,3.41a2.36,2.36,0,0,1-.5-2.78c.61-2.72,2.14-5.27,1.58-8.22C19.58,20.39,18.75,18.19,20,16.21Z"/><path class="cls-10" d="M20,2.78c-1.15.15-.95,1.05-1,1.8,0,2,0,3.91,0,5.87-1,.07-.92-.72-1-1.29-.17-.86-.06-1.75-.16-2.63-.31-2.74.1-3.25-3.12-3.16-1.59,0-3-1-4.68-.78C8.33,3,9.62,5,8.49,5.66c-.91-1.29-.62-2.81-.34-4.1C8.48,0,9.76-.35,11.31.32c1.86.8,3.76,1.68,5.82.53C18.71.58,19.55,1.4,20,2.78Z"/><path class="cls-11" d="M46.45,52.66c-1.4-1.73-4-1.41-5.38-3.19.3-.63-.8-1.46.08-1.88s.79.92,1.38,1.19c.35.16.69.36,1,.54,3.65.65,4.08.23,3.58-3.51,0-.39-.2-.76-.26-1.15.09-1-.21-2.41.94-2.62,1.45-.26,1.47,1.32,1.86,2.3A5.77,5.77,0,0,1,50,46.69a4.83,4.83,0,0,0,2.22,5l.49.44c1.57.85,2.75-.08,3.76-1,.82-.76.06-1.59-.4-2.31h0c1.28-1,2.65-.57,2.74.84a4.62,4.62,0,0,1-.31,2.1h0c-.78,2.86-3.3,2.46-5.39,2.88h0c-1.25-.45-2.6-.52-3.85-1C48.26,53.53,47.53,52.61,46.45,52.66Z"/><path class="cls-12" d="M55.07,41.2l-.52-.05c-.93-.55-2.38-.44-2.58-2a22.56,22.56,0,0,0,.66-3c.35-1.11.85-2,2.25-1.9,1,1-.65,2.59.66,3.58,0,1.11,0,2.23,0,3.35Z"/><path class="cls-13" d="M58.46,51.78c-.14-1.54.49-3.7-2.43-2.94a2.85,2.85,0,0,1-.89-2.7C58.79,46.39,60,48.49,58.46,51.78Z"/><path class="cls-13" d="M56,48.85c1,.61,1.6,1.81.84,2.5-1.07.95-2.5,2.15-4.2.82C55.87,52.05,56.55,51.38,56,48.85Z"/><path class="cls-14" d="M16.2,45.05c-.91,2.2-3,3.73-3.56,6.13-.29.46-.57.92-.86,1.37A2.23,2.23,0,0,1,10.56,54a41.22,41.22,0,0,0-4.75,3.88,2.9,2.9,0,0,1-1.62.86l-.93-.06c-.31.08-.46,0-.47-.35C1.22,56.22.87,52.7,2.12,50.92c.57-.81,1.14-1.78,2.42-1.52,1,1.12-.27,2-.36,3-.07.67-.65,1.48.08,1.93s1.06-.43,1.55-.78a2.69,2.69,0,0,0,.93-3A9,9,0,0,1,7,46.08c.2-.79.49-1.59,1.61-1.16.7.77.44,1.81.75,2.68s.44,1.77,1.55.54c1.44-1.6,2.5-3.61,4.7-4.41C16.28,43.93,16.66,44.29,16.2,45.05Z"/><path class="cls-15" d="M8.92,48l-.56-2.92c-1.25-.89-1.5.73-2.33.92L5.55,45a4.64,4.64,0,0,0-2.32-2l-.51-.92c.9,0,1.78-.14,2.63.58.42.35,1.73,1.26,1.71-.6.86-.78,2-.28,3-.58,3.17-1,5.09-3.26,6.62-6A2.05,2.05,0,0,1,17,35c1.09,0,.56-1.14,1.06-1.57a.42.42,0,0,1,.57.07c.55-1.43,1.53-2.71,1.47-4.37a1.21,1.21,0,0,1,1.34-1.35c1.23.07-.08,1.13.5,1.5-.59,2.51.15,5.12-.5,7.63-2.41.44-3.07,2.53-4,4.33-1,1.36-2.69,1.89-4.09,2.44C11.05,44.53,9.54,45.7,8.92,48Z"/><path class="cls-16" d="M6,54.09a6.89,6.89,0,0,0,0-5.24c.16-1-.82-1.92,0-2.87,0-.71,0-1.34,1-1.48.63-.1,1.21-.42,1.32.56-1.52,1.48-1.44,3.37-1,5.17S7.58,53.2,6,54.09Z"/><path class="cls-17" d="M4.19,58.78A26.88,26.88,0,0,1,10.5,53.7a.58.58,0,0,1-.16.88v0c-1,1-2.23,1.76-2.78,3.2s-1.85,1-2.9,1.24Z"/><path class="cls-18" d="M3.23,43.07c1.29,0,2.26.46,2.32,2A5.21,5.21,0,0,1,3.23,43.07Z"/><path class="cls-19" d="M17.13,35.41c-.43,2.43-2.25,4.12-4,5.34s-3.75,2.36-6.1,1.38a2.4,2.4,0,0,0-2.39-1c-3.06-5.34-2.45-10.8-.49-16.3.53-.62,1.33-1,1.47-1.92a2.44,2.44,0,0,1,1.41-.59,3.83,3.83,0,0,1,2.19.3c.55.5.23,1-.24,1.05-1.6.29-1.41,1.43-1.34,2.54-.06.36-1.54.45-.19,1.09.4.19.81.45.51,1-.78.74-3.12-.1-2.29,2.27A13.42,13.42,0,0,1,5.62,33c-.16,1.68-1.09,3.77,2,3.82.45,0,.66.63,1,1,1.45,1.89,3.21,1.81,4.77-.19a2.76,2.76,0,0,1,.38-.58C14.78,36.37,15.27,34.43,17.13,35.41Z"/><path class="cls-20" d="M4.18,24.86c-1.57,5.48-1.92,10.94.49,16.3-1.86-1-1.77-3-2.08-4.71A16.93,16.93,0,0,1,4.18,24.86Z"/><path class="cls-21" d="M7.06,22.93H5.65c.5-1.87,2.6-2.79,2.85-4.81L8.77,18c.54-.08,1.09.2,1.07.63-.06,1.38,1,.88,1.64,1.12a1.15,1.15,0,0,1,.48.42c-.22,1.2-1.69.79-2.15,1.67C9.11,22.69,7.67,21.8,7.06,22.93Z"/><path class="cls-21" d="M7.5,18.06c1.64-2.7,1.09-5.66,1-8.57.16,0,.36-.05.46,0,1.93,1.79,1.64,6.93-.48,8.62h0Z"/><path class="cls-22" d="M46.41,18.12l1.43,0L53.61,22c.36.3.92.39,1.09.86.28.78,1.46,1.4.87,2.26s-1.21-.24-1.84-.36-.45.47-.58.79c-.17.71-.49,1.28-1.3,1.38A3.44,3.44,0,0,1,50,25.08c-.08-.61-.25-1.16-.94-1.37a3.23,3.23,0,0,1-1.4-.8,5.8,5.8,0,0,1-.52-1.57c-1.48-1.47-3.35-.16-5-.67a1.07,1.07,0,0,1-.4-.91,1.5,1.5,0,0,1,1.91-1.26,2.23,2.23,0,0,0,1.78-.34Z"/><path class="cls-23" d="M45.44,18.16c-.58,1.75-2.64,0-3.34,1.41-1.1.55-1.23-.18-1.31-1,.45-1.17-.84-1.67-1-2.6a3.84,3.84,0,0,1,.06-2.46,2.14,2.14,0,0,1,1.3-1.15c.77.41.18,1.51,1,1.91a1,1,0,0,1,.47,1c.75.58.23,1.6.77,2.26l.68.59a1.93,1.93,0,0,0,.48,0Z"/><path class="cls-24" d="M47.85,22.91c.53,0,1.1-.06,1.44.5-.33,1-1.36,1-2.07,1.48s-1.88.63-1.59,1.94c.79.87,1.57.07,2.35,0A2,2,0,0,1,49,27a1,1,0,0,1,.45,1.31,2.1,2.1,0,0,1-.79.83c-2.24.93-4,2.08-4.14,4.95-.07,1.87-2.63,2.73-4.25,1.45a6.94,6.94,0,0,1-2.54-2.8,2.07,2.07,0,0,0-1.38-1.52c-.9-.25-1.08-.89-1.31-1.74-.8-2.9-1.2-5.95-2.91-8.55-.43-1.69-.7-3.41-1-5.12a2.48,2.48,0,0,1,.42-2.46c.06-2.17-.25-4.38.84-6.57,1.4,1.06-.56,2.41.45,3.4,1,.28.21-2,1.6-1.16,1.49,0,1.29,1.05,1.19,2-.13,1.2,0,2.22,1.27,2.79a4.3,4.3,0,0,1,.81.61,2.31,2.31,0,0,1,.93,1.74,4.54,4.54,0,0,1-.86,1.78c-.11.36-.31,1,.17.95,1.79-.12,1.62,1.28,2,2.29.88.26,1.29-1,2.19-.65,1.95-.33,4-1.42,5.73.49-1.34,1.07-3.22,1.35-4.42,2.89C45,23.69,46.08,21.65,47.85,22.91Z"/><path class="cls-25" d="M31.53,13.34c-.09,2.61,1.2,5,1,7.67.84,1.49,1.77,3,.93,4.79-.38,2.05,1,3.78,1,5.8,0,1.43-.44,2.1-1.91,1.89-.51-4.82-.28-9.88-1.78-14.37-1.07-3.23-.56-6.45-1.57-9.52A2.8,2.8,0,0,1,30,6.81C31.09,9,30.12,11.5,31.53,13.34Z"/><path class="cls-26" d="M36.82,14.29C34.93,14,34.73,12.65,35,11.16c.12-.84.61-1.67-.54-2.15A8.22,8.22,0,0,0,34,7.93c-.21-.39-.7-.78-.11-1.16.36-.24.68.09,1,.32.76.53,1.58,1,2.37,1.44h0c-.16.88.37,1.6.59,2.39-.55.6-.62,1.16.09,1.73a1.85,1.85,0,0,1,.89,1.51C38.25,15.24,37.48,13.72,36.82,14.29Z"/><path class="cls-27" d="M16.2,45.05a.9.9,0,0,0-1-1c-.23-1.42,1-1.81,1.76-2.57C18,40,18.83,38.16,20.88,37.66c.48.44,1,.69,1.56.14.61,1.79-.63,2.37-1.92,2.9A15.81,15.81,0,0,0,17,44.5Z"/><path class="cls-28" d="M33.47,25.8c.08-1.67-.73-3.17-.93-4.79,2.25,1.17,1.41,3.65,2.26,5.42a11.44,11.44,0,0,1,.57,2.78c.06.31.07.88.17.9,2.88.5,3.28,3.43,5,5,.72.66,1.84.36,2.76.18s.72-1,.68-1.57c-.16-2.76.68-3.91,4.8-5,.19.47,0,1.41,1,.61s2.06-1.59,3.42-.66a4.5,4.5,0,0,0,.06,2.52,1.88,1.88,0,0,1-1.07.84,6,6,0,0,0-2.92,1.16c.44,0,1.14-.21,1.5.48s-.12,1-.47,1.48c-.47.61-1.46.72-1.64,2a4.87,4.87,0,0,1,4.43-.71,3.61,3.61,0,0,1-1,2.87,1.57,1.57,0,0,1-.61.47c-4.38,2-8,.51-11.4-2.38-2.39-.3-5.26-3.28-5.25-5.62A15.3,15.3,0,0,0,33.47,25.8Z"/><path class="cls-29" d="M47.27,45.48c-.59-.68-.27-1.55-.46-2.31-.07-1.61-1.35-.81-2.1-1.06-.35-.12-.87-.18-.75-.65s.67-.23,1-.29a1.39,1.39,0,0,1,1.26-.5c2,.4,3.75-.55,5.47-1.41h.47c.48,1,2,.8,2.37,1.9-1.64.24-2.72,1.91-4.64,1.69-1-.11-.39,1.14-.7,1.69a3.85,3.85,0,0,1-.27-.63c-.15-.65-.09-1.64-1-1.56s-.58,1.09-.63,1.73a5.82,5.82,0,0,0,.08.92C47.63,45.23,47.59,45.39,47.27,45.48Z"/><path class="cls-30" d="M51.71,39.26C50,41.66,47.39,41.13,45,41.17c-.68-1.19-2-1.28-3.09-1.86-.87-.48-1.61-.9-1.72-2,2.06,1.62,4.63,1.95,7,2.82C48.81,40.78,50.05,38.88,51.71,39.26Z"/><path class="cls-31" d="M37.2,39.35l.15,3.17-.19,1.13-.81-1c-.53-.36,0-1.07-.49-1.45a5.3,5.3,0,0,1,0-2.82C37.19,37.6,36.7,39.11,37.2,39.35Z"/><path class="cls-32" d="M53.1,54.65c1.23-.17,2.14-1.69,3.69-.83.14.08,1.11-1.33,1.69-2-.8,3-1.2,3.27-4.86,3.29Z"/><path class="cls-32" d="M49.27,53.67a6.1,6.1,0,0,1,3.85,1A6,6,0,0,1,49.27,53.67Z"/><path class="cls-33" d="M8.49,18.14a8.85,8.85,0,0,0,0-8.65c0-1.27,0-2.55,0-3.83.54-1.06-1-2.74,1-3.36a3.3,3.3,0,0,1,.47.52,4.23,4.23,0,0,1,.48,3.82c-.59,1.54,1.12,2.54,1.06,4a16.18,16.18,0,0,0,.3,3.54c.06,2,.88,4-.43,5.88C9.4,20.91,10,18,8.49,18.14Z"/><path class="cls-34" d="M44,18.11h-1a3.85,3.85,0,0,1,0-2.85C43.8,16.07,43.66,17.18,44,18.11Z"/><path class="cls-22" d="M43,15.27c0,.95,0,1.9,0,2.85-.91-.82-.34-1.91-.5-2.86Z"/><path class="cls-35" d="M37.77,10.94c-1.05-.62-2.08-1.25-.47-2.4.83.44.66,1.89,1.92,1.9,1.63.36,1.72.62,1,2.89V16.2a6.47,6.47,0,0,1-1.35,2.5c-.36.39-.84.89-1.43.45s-.42-1-.13-1.5l1-1.43c.73-1.19-.49-1.07-1-1.45l-.48-.48c-.08-.38-.56-1.1.44-.67.49.22.87.7,1.49.66C39.75,12.78,37.6,12.2,37.77,10.94Z"/><path class="cls-36" d="M40.19,13.33c-.34-.95.75-2.39-1-2.89.25-2.18-2.12-4.06-.38-6.87a21.54,21.54,0,0,1,2.3,8.81A.87.87,0,0,1,40.19,13.33Z"/><path class="cls-37" d="M53.14,28.7c-1.3-.27-2.19.57-3.21,1.12-.61.33-1,1.63-1.83.86s.51-1.28.71-2l.49-.48c.58-.84,1.05-1.85,2.39-1.44a1.44,1.44,0,0,0,1-1.44c.11-.12.33-.26.38-.2,1,1.16,2.24.82,3.46.68,1.28,3.89,1.74,7.76-.49,11.5-1.16-1,.45-2.51-.72-3.48-.75-.57-1.71-.14-2.48-.52s-1.9-.62-.63-1.73l1-.48C53.85,30.3,53.43,29.5,53.14,28.7Z"/><path class="cls-38" d="M56.5,25.81c-1.5,2.31-2.58,1.17-3.62-.44,0,0-.14,0-.22,0,.21-1.89.21-1.89,3-.17L53.61,22h1.92C54.67,23.56,57.18,24.28,56.5,25.81Z"/><path class="cls-39" d="M55.54,33.5c1,.1,1.08.81.84,1.53A6.16,6.16,0,0,0,56,37.31l-.47.51c-2.85-.74-.75-2.18-.48-3.36A1,1,0,0,1,55.54,33.5Z"/><path class="cls-40" d="M35.86,41.17c.56.35.45.92.49,1.45h0c-1.24.35-1,1.52-1.31,2.38-.55.36-.79-.09-1.09-.4-1.21-.93-.89-3.13-2.87-3.42.05-.45.11-.89.16-1.34a2.41,2.41,0,0,1,2.12.92c.52.35,1,.68,1.56,1C35.76,42.4,35.79,41.75,35.86,41.17Z"/><path class="cls-41" d="M47.27,45.48,47.4,45c.82,1.06.4,2.29.45,3.44.07,1.65-.84,2.09-2.3,1.65-.68-.21-1.33-.5-2-.76.46-.9,1.49.44,1.93-.5C48.52,49,47.16,46.86,47.27,45.48Z"/><path class="cls-42" d="M36.27,46.21a2.34,2.34,0,0,1-1.38-1.16c-.43-1.35-.6-2.55,1.44-2.44C35.74,43.8,37.05,45,36.27,46.21Z"/><path class="cls-43" d="M22.44,37.8c-.51.92-1,1.4-1.48,0a.29.29,0,0,1-.17-.3c0-.12,0-.18.07-.18,0-2,0-4,0-6.08,0-.8-.26-1.82,1.05-1.94A5.73,5.73,0,0,1,23,32.94c0,.82,0,1.63,0,2.45.84.85-.73,1.24-.39,2A.86.86,0,0,1,22.44,37.8Z"/><path class="cls-27" d="M22.54,37.39c-.63-.11-1.22-.27-.33-.89a1.5,1.5,0,0,0,.72-1.11.89.89,0,0,1,.92,1C23.32,36.58,23.44,37.61,22.54,37.39Z"/><path class="cls-44" d="M9.48,2.75c0-.15,0-.3,0-.45A2.55,2.55,0,0,1,12,2,9.64,9.64,0,0,0,17,2.78c1,0,1.33.21,1.42,1.47.15,2.06-.36,4.22.62,6.2.72,1.85.65,3.84,1,5.76v6.72c-1.36-.25-1.06-1.39-1.09-2.23a44.13,44.13,0,0,0-.36-5.52c-.06.45.14,1.07.07,1.68s-.16,1.15-.77,1.37-1-.29-1.26-.79c-.55-1.19-1.89-1.4-2.7-2.27-.58-1.81,1.43-3.11.9-5.16a2.25,2.25,0,0,1-3.4-.28,2,2,0,0,1,.37-2.86c.5-.6,1.39-.69,2-1.46C13,4.85,12,5.09,11.36,4.6A4.42,4.42,0,0,1,9.48,2.75Z"/><path class="cls-45" d="M7.54,26.28c-2.11-2.69.34-2.76,1.92-3.32,1.86-.61,2.72.93,3.9,1.79-.57,2.25.23,3.71,2.48,4.52a7.68,7.68,0,0,1,2.07,1.07c.06.09.13.18.19.28a4.92,4.92,0,0,0,.48,2.87l-.46,0c-1.41-.15-.37-1.07-.69-1.47-.39.6.27,1.47-.05,2.25a8.07,8.07,0,0,0-3.6,3h0c-3.38-.22-2.59-3.19-3.19-5.3-.92.44-.67,1.83-1.74,1.6-.88-.19-.91-1.06-1-1.74-.16-2.14-1.39-1.81-2.75-1.28-.58-2.41-.58-2.41,2.87-2.4a.81.81,0,0,1,.89.14c.38.1.83.8,1.13.08.16-.39-.49-.5-.84-.65C8.44,27.51,7.72,27.19,7.54,26.28Z"/><path class="cls-45" d="M13.78,14.77c1.53.69,3.57.75,3.61,3.79,1.24-2.28.19-4.27,1.24-5.88a37.65,37.65,0,0,1,.94,6.84c0,1.13-.47,2.38.45,3.41.67,2.89-.8,5.25-1.92,7.69h0A36.52,36.52,0,0,1,16.63,24c-.16-2.37-1-3.65-3.21-4.24-.58-.33.68-1.48-.85-1.6-1-.08-.77-1.4-.62-2.22A1.33,1.33,0,0,1,13.78,14.77Z"/><path class="cls-46" d="M55.54,33.5a1,1,0,0,1-.48,1,2,2,0,0,0-1.92,1.92c-1.5.4-3.19.22-4.37,1.59-.29.33-.81.12-.84-.39,0-.74-.43-1.76.61-2a3.94,3.94,0,0,0,2-1.47c-.59-1-1.58-.25-2.19-.74,1.19-.78,2.07-2.25,3.84-1.74-.25,1.63.93,1.4,1.85,1.35C54.67,32.9,55.41,32.27,55.54,33.5Z"/><path class="cls-47" d="M13.78,37.34c.41-1.79,1.33-3,3.35-2.89a.3.3,0,0,1,.12.33c0,.11-.07.17-.1.17s0,.31,0,.46C15.5,35.15,15.18,37.19,13.78,37.34Z"/><path class="cls-19" d="M17.15,35l0-.5v-3c.85.56.16,1.64,1,2C17.82,34,18.8,35.38,17.15,35Z"/><path class="cls-47" d="M5.14,30.62c.59-.52.66-1.79,1.87-1.41,2.05.64,1.1,2.68,1.78,4.1,1.13-.53.31-1.67.94-2.31,1.44.54,2.26,1.31,1.74,3.16s1.45,2.16,2.31,3.18c.16,1.31-.31,2.31-1.7,2.32S9,40.51,8.13,38.49c-.33-.79-.29-2.64-1.75-.62-.45.62-.81-.14-1-.52C4.9,36,4.37,34.73,5,33.21A8.8,8.8,0,0,0,5.14,30.62Z"/><path class="cls-48" d="M13.29,24.85C11.77,24.71,11,23.08,9.46,23l-2.4,0c-.35-2.38,1.86-.54,2.4-1.45C12.24,21.08,13.77,22.42,13.29,24.85Z"/><path class="cls-49" d="M7.54,26.28c.65.29,1.08,1,1.91,1,.48,1,.59,1.77-.95,1.44L8,28.22a2.58,2.58,0,0,0-.78-.45c-.82-.13-1.77-.34-1.48-1.35S6.94,26.52,7.54,26.28Z"/><path class="cls-50" d="M13.29,24.85c-.06-2.51-2-2.87-3.83-3.37.14-1.6,1.9-.44,2.41-1.41.3-.67.72-1,1.43-.5,3.43.25,3.78.62,3.84,4A3.67,3.67,0,0,0,17.75,26c1.05,1.39.35,3.05.34,4.59-1.44.12-2.58-.88-4-1.14S13,27.21,12.27,26.06C11.74,25.2,13.18,25.46,13.29,24.85Z"/><path class="cls-51" d="M13.3,19.57l-1.43.5-.52,0,0-5.74a28.69,28.69,0,0,0-.1-3.71c-.15-.55.15-.85.57-1.1,1.36,1.4,2.27.51,3.12-1,1.3,2.67.15,4.48-1.19,6.25a1.89,1.89,0,0,0-1.39,2.54c.44,1.62,1.69-.39,2.44.83C14.91,18.9,13.66,18.87,13.3,19.57Z"/><path class="cls-52" d="M47.85,22.91c-1.51-.22-2.54.76-3.64,1.51-.6.41-1.24.64-1.68,0s.27-1,.68-1.29c1.38-1,2.7-2.26,4.62-2.13C47.84,21.64,47.85,22.27,47.85,22.91Z"/><path class="cls-28" d="M51.69,26.77,49.3,28.21a1,1,0,0,0-.48-1c-.39-.5-1.32-.67-1-1.62.66-.76,1.35-1.41,2.46-.77C50.46,25.7,51.74,25.74,51.69,26.77Z"/><path class="cls-53" d="M50.26,24.86l-2.39,1c-.47.4-1,.46-1.38,0s.16-1,.42-1.41l2.38-1C50.43,23.34,50.93,23.71,50.26,24.86Z"/><path class="cls-54" d="M42.1,20.51c-.92.57-1.43,1.94-2.88,1.46.68-1.25-.15-3.27,1.92-3.83,0,.7,0,1.39,1,1.43Z"/><path class="cls-55" d="M41.14,18.14c-1.25,1-.74,2.83-1.92,3.83-.69-.46-.14-1-.07-1.47.1-.69.18-1.16-.93-.95-2.1.4-1.43-.85-.94-1.9.06.44-.12,1.05.44,1.21s.8-.33,1-.79c.28-.8.38-1.74,1.5-1.87C40.85,16.68,41.59,17.12,41.14,18.14Z"/><path class="cls-56" d="M46.91,24.38c-.2.83-.38,1.64,1,1.44.29.5,1,.69,1,1.43h-1c-1-.12-1.92.69-2.88,0C44.41,25.48,46.05,25.19,46.91,24.38Z"/><path class="cls-28" d="M45,27.25c1,.38,1.92-.78,2.88,0C46.9,28,45.94,28.24,45,27.25Z"/><path class="cls-26" d="M37.3,14.77c1,0,2,.09,1,1.45C38.34,15.47,37.59,15.28,37.3,14.77Z"/><path class="cls-57" d="M37.77,10.94c.64,1,3.37,1.44,1,3.34a5.88,5.88,0,0,0-1.67-1.59C35.82,11.6,36.22,11,37.77,10.94Z"/><path class="cls-46" d="M53.14,28.7c.52.8,1.89,1.59,0,2.4A2.16,2.16,0,0,1,53.14,28.7Z"/><path class="cls-58" d="M11.85,9.5l-.47.95a.28.28,0,0,1-.47,0c-2.17-2.25-.15-5.28-1.43-7.7l1.9,1.46c.92.76.66,1.92,1,2.89C11.7,7.8,10.76,8.45,11.85,9.5Z"/><path class="cls-59" d="M10.91,10.45h.47a3.63,3.63,0,0,1,0,3.86C10.42,13.12,11.1,11.73,10.91,10.45Z"/><path class="cls-60" d="M12.34,7.1c-1.15-.69-.7-1.91-1-2.89.45.12.89.26,1.35.35.64.12,1.67-1,1.88.37.15,1-.57,1.71-1.72,1.76C12.7,6.7,12.52,7,12.34,7.1Z"/><path class="cls-19" d="M8.5,28.7c1,0,1-.73.95-1.44,1.25.14,1.87,1,1.21,1.95S9.15,29.25,8.5,28.7Z"/></g></g></svg>