<svg xmlns="http://www.w3.org/2000/svg" xmlns:xlink="http://www.w3.org/1999/xlink" viewBox="0 0 80 80" enable-background="new 0 0 80 80"><defs><path id="a" d="M1.8-.2h501.5v80.1h-501.5z"/></defs><clipPath id="b"><use xlink:href="#a" overflow="visible"/></clipPath><path clip-path="url(#b)" fill="#A3DAE7" d="M56.7 3.7c1.5.8 3.5 1.6 4.7 2.6 1 .8 2.2 1.1 3.1 1.9 2.4 2.3 4.4 4.8 5.6 7.4l1.1 3.1c.3.6.5 1.1.7 1.7.1.4.1.9.3 1.2 1 2.2 1.9 5.4 2.2 7.8l1 5c.4 4.1.3 7.6-.7 12.2-.6 2.5-1.7 4.7-2.5 7.3l-1.7 3.8c-.5 1.8-2 5-3.3 6.4-.3.5-.6.9-.8 1.4-2.6 2.9-5 5.7-7.8 7.6-1.8 1.3-3.9 2.1-5.8 3-1.1.3-2.2.6-3.3 1-2 .9-3.9 1.3-6.1 1.5-.6.1-1.4.5-2.1.4v-.2c-.4 0-.7.2-1.1.3-1.5.2-3 .1-4.4.2-3.1.2-7-.6-10.2-1.2-1.1-.2-2.1-.7-3-.9-.7-.2-1.8-.4-2.5-.9-.6-.4-1.8-1-2.9-1.6-.3-.2-.7-.5-1-.6-3-1.4-7.1-4.8-9.3-7.7-1.6-2-2.3-4.6-3.3-6.8-.1-.5-.2-1-.4-1.4-.5-1.1-.8-2.3-1-3.6l-.4-1.4c.1-.2.2-.4.2-.6.1-1.1.2-2.3.3-3.5.2-2.4.4-5 .8-7.4.2-1.5.9-3.2 1.3-4.7.5-1.9 1.8-3.7 2.4-5.6.3-.6.6-1.1.8-1.7.3-1 1-2.1 1.3-3l.6-1.2c.4-1.4 2.3-4.9 3.3-6 .6-1 1.2-2 1.7-3 1-1.2 1.7-2.3 2.7-3.2 1.7-1.5 3.6-3 5.4-4.2 1.7-1.1 2.9-2.4 4.5-3.1 1.9-1 4-1.5 5.9-2.3.4-.1.8-.2 1.1-.3 2.5-1.1 4.6-1.6 7.4-1.8 1 0 2 .1 3 .2 3 .3 6.3.6 9.4.9.6.1 2.2 1 2.8 1"/><path clip-path="url(#b)" fill="#fff" d="M46.3 38.6c-.4.4-1 .6-1.4.8-.4.2-.7.5-1 .6l-.5.3c-.8.4-1.5.9-2.2 1.3-.4.2-.6.4-.9.6l-3.2 2-.8.6c-1 .5-1.8 1.3-2.8 1.7l-.6.5-1.5 1-.4.3c-.4.2-.8.5-1.1.7l-.2.2-.4.2h-.1c0-.3-.2-.5-.3-.8l-.5-1.7-1.2-3.9c-.1-.5-.3-.9-.5-1.3-1-3.2-2.1-6.4-3-9.6-.4-1.5-.8-3.1-1.3-4.7s-.9-3.3-1.3-4.9l-.3-1.2c0-.2-.2-.3 0-.4.3 0 .8-.4 1.1-.5.6-.2 1.3-.5 1.9-.8.4-.2.8-.4 1.1-.5.7.3 1.3 1 1.9 1.4l.4.4 2.4 2c.3.2.5.5.7.7l.8.7c.5.3.8.8 1.3 1.2l2.4 2.2.6.6.3.3 1 .9.3.3 1.2 1.1 1.1 1.1c.6.4 1.1 1 1.6 1.4l.8.7c.2.2 1 .8 1.1 1l1.2 1.1.4.4.7.7c.4.3.8.7 1.2 1.3M45.3 60.1c-.5.1-1.2-.2-1.7-.3l-.9-.1c-.9-.2-1.8-.4-2.7-.5-4.1-.6-8.1-1.3-12.2-1.8l-2.8-.4h-1c-.4-.1-1.2-.2-1.6-.2v-.1c.1-.2.2-.3.2-.5 0-.1.1-.1.2-.1.2-.4.5-.8.7-1.1.6-.8 1.3-1.6 2-2.4 1-1.1 1.9-2.4 2.8-3.5l1.8-2.1 1.2-1.5c.3-.4.7-.7 1-1.2.9-1.2 1.8-2.2 2.8-3.3.6-.7 1.2-1.7 1.9-2.2v.1c.1.1.2.4.2.6.2.5.4.9.5 1.4l1.6 4.2 5 13 .3.8c.3.3.5.7.7 1.2M54.7 23.3c.2 0 .5.1.7.2.1 0 .2 0 .4.1.4.1.8.2 1.1.3 1.7.4 3.4.9 5.2 1.4l1.2.3c.2 0 .3 0 .4.1l.7.2c-.1.1-.1.1-.1.2h-.1c-.1.1-.2.3-.4.5l-1 .9c-.5.4-.9.9-1.4 1.4l-.9.8-.6.6-.5.5c-.4.5-.9.9-1.4 1.3-.3.3-.6.7-.9.8l-.1-.2c.1-.3 0-.5 0-.7l-.5-1.9-1.5-5.8c0-.1-.1-.2-.1-.4l-.2-.6M54.5 28.9c.2-.1.5 0 .7.1h.4l1.2.1 5.3.3 1.2.1h.4c.2 0 .5.1.7 0l-.1.2s-.1 0-.1.1l-.3.5c-.2.4-.5.7-.8 1.1l-1.1 1.6c-.2.3-.5.6-.7 1-.1.2-.3.5-.5.7l-.4.5c-.3.5-.7 1-1.1 1.5-.2.3-.5.8-.7 1-.1 0-.1-.2-.1-.2l-.3-.6c-.3-.6-.6-1.2-.8-1.8-.9-1.8-1.8-3.6-2.6-5.4l-.2-.3c0-.1 0-.3-.1-.5M52.5 22.1c.7.2 1.5.4 2.1.7.4.3 1 .3 1.4.5 1.1.8 2 1.8 2.7 2.9l.6 1.3.4.7c.1.2.1.4.2.5.5.9 1 2.3 1.3 3.4l.7 2.2c.4 1.9.5 3.6.3 5.8-.1 1.2-.5 2.4-.7 3.7-.2.7-.4 1.3-.5 2-.1.9-.6 2.5-1.1 3.4l-.3.7c-.9 1.6-1.8 3.2-2.9 4.4-.7.8-1.5 1.4-2.3 2l-1.3.8c-.8.6-1.5 1-2.4 1.4-.3.1-.6.4-.8.4v-.1c-.2 0-.3.2-.5.3-.6.2-1.2.4-1.8.5-1.3.4-2.9.5-4.3.5-.5 0-.9-.1-1.3-.1-.3 0-.8 0-1.1-.1-.3-.1-.8-.3-1.3-.4-.1-.1-.3-.2-.4-.2-1.3-.3-3.2-1.5-4.2-2.6-.7-.8-1.2-1.9-1.7-2.8l-.2-.6c-.2-.5-.4-1-.6-1.6-.1-.2-.2-.4-.2-.6 0-.1 0-.2.1-.3v-1.7c0-1.1-.1-2.4 0-3.6 0-.7.2-1.6.3-2.3.1-.9.6-1.9.7-2.9l.3-.9.4-1.6.2-.6c.1-.7.7-2.6 1.1-3.2l.6-1.6c.4-.7.6-1.3 1-1.8.6-.9 1.4-1.8 2-2.6.6-.7 1.1-1.4 1.7-1.9l2.3-1.7.5-.3c1-.8 1.8-1.3 3-1.6.4-.1.8-.2 1.3-.2l3.9-.6c-.1.2.6.5.8.4"/><path clip-path="url(#b)" fill="#A3DAE7" d="M55.8 35.8l-.1.2v.1s-.1 0-.1.1c0 0-.1 0-.1.1h-.2c-.1 0-.1.1-.1.1s-.2.1-.3.1c0 0-.3.2-.4.2-.1.1-.5 0-.7-.1-.5-.2-1.1-.3-1.6-.6l-.3-.2h-.1c0-.1-.1-.2-.1-.2-.1-.2-.2-.4-.3-.5-.2-.4-.4-.7-.6-1.2 0-.1 0-.3-.1-.4v-1.3c0-.1 0-.2.1-.3.1-.4.3-.8.4-1.1.1-.1.1-.3.1-.4v-.1l.2-.2c.2-.2.4-.4.7-.6.2-.1.4-.3.7-.4l.6-.2.2-.1h.7c.2 0 .4.1.5.1l.6.2.6.4.2.1c.2.2.4.3.5.5l.1.1.2.3c.1.2.3.3.3.5v.4c.1.6 0 1.3-.1 1.7 0 .1 0 .2-.1.3l-.3.7c0 .1-.1.2-.2.3v.1s-.1.1-.1.2-.1.3-.2.3c0 .1 0 .1-.1.1l-.1.2-.1.3c-.2.1-.2.1-.3.2"/></svg>