<svg xmlns="http://www.w3.org/2000/svg" xmlns:xlink="http://www.w3.org/1999/xlink" viewBox="0 0 80 80" enable-background="new 0 0 80 80"><defs><path id="a" d="M-424-.1h501.5v80.1h-501.5z"/></defs><clipPath id="b"><use xlink:href="#a" overflow="visible"/></clipPath><path clip-path="url(#b)" fill="#FF6A13" d="M25.4 3.2c3.1-.3 6.3-.7 9.4-.9 1-.1 2-.3 3-.2 2.8.1 4.9.6 7.4 1.8.4.1.8.2 1.1.3l5.9 2.3c1.6.8 2.9 2 4.4 3.1 1.8 1.3 3.7 2.8 5.4 4.2 1.1.9 1.7 2.1 2.7 3.2.6 1 1.2 2 1.7 3 1 1.1 2.9 4.6 3.3 6l.6 1.2 1.3 3c.3.6.6 1.1.8 1.7.5 2 1.9 3.7 2.4 5.6.4 1.5 1.1 3.2 1.3 4.7.4 2.4.5 5 .7 7.4.1 1.2.2 2.4.3 3.5l.2.5c0 .4-.1.9-.3 1.4-.2 1.2-.5 2.4-1 3.6-.1.5-.2 1-.4 1.4-1 2.2-1.8 4.8-3.3 6.8-2.2 2.9-6.3 6.3-9.3 7.7-.2.1-.7.4-1 .6-1.1.6-2.3 1.2-2.9 1.6-.7.5-1.8.7-2.5.9-1 .2-1.9.7-3 .9-3.2.6-7 1.4-10.2 1.2-1.4-.1-3 0-4.4-.2l-1.1-.3v.2c-.7.1-1.4-.3-2.1-.4-2.2-.2-4.1-.6-6.1-1.5-1.1-.3-2.2-.6-3.3-1-1.9-.9-4-1.7-5.8-3-2.9-2-5.2-4.7-7.8-7.6l-.9-1.4c-1.3-1.5-2.8-4.7-3.3-6.4l-1.7-3.8c-.7-2.6-1.9-4.8-2.5-7.3-.9-4.5-1-8-.6-12.1l1-5c.4-2.4 1.2-5.6 2.2-7.8.2-.4.2-.8.3-1.2.2-.6.5-1.2.7-1.7.4-1 .6-2.1 1.1-3.1 1.3-2.6 3.2-5.2 5.6-7.4.8-.8 2.1-1 3.1-1.9 1.2-1 3.2-1.9 4.7-2.6.6 0 2.2-.9 2.9-1"/><path clip-path="url(#b)" fill="#fff" d="M60.7 40.1v.2c-.1.1-.2.1-.4 0-.2.1-.5 0-.8 0l-1.9.1h-1.7000000000000002c-1.3.2-2.8-.1-4.2.1h-1.3c-.9 0-1.7 0-2.6-.1h-1.6c-.5.1-1.3 0-1.9 0-.7 0-1.4 0-2.1-.1-.4 0-1-.1-1.4 0h-1.9c-1 .2-2.4-.2-3.6 0h-3.5l-3.2.1h-6.1c-.6.1-1.4 0-2.1 0-.1-.4 0-1.2 0-1.7.1-1.4.2-2.8.3-4.1.1-.4-.1-1.3.2-1.6.2-.1.4 0 .6 0h4.8l2.6-.1h1.5c1.3-.2 2.7 0 4-.1h1.1c.5-.1 1.1 0 1.6 0h2.3l2.1-.1h.5l2.4-.1h.8l3.1-.1h.5c1-.1 2.1.1 3.1-.1.4-.1.8 0 1.2 0 .4-.1.8 0 1.1 0h1.3c.6-.1 1.5 0 2.1 0h.9c.6-.1 1.4-.1 1.9 0v.2c.1.1 0 .4 0 .6v2.4000000000000004c.1.3-.1.7 0 1.1.1.7-.1 1.6 0 2.2.4.2.1 1 .3 1.2M60.7 32.9v.2c-.1.1-.2.1-.4 0-.2.1-.5 0-.8 0l-2 .1h-1.7000000000000002c-1.3.2-2.9-.1-4.3.1-.3 0-1-.1-1.3 0-.9 0-1.8-.1-2.6-.1h-1.6c-.5.1-1.3 0-1.9 0-.7 0-1.4 0-2.2-.1-.5 0-1-.1-1.4 0h-7.3c-.6 0-1.3 0-1.9-.1-1.1.2-2.3-.1-3.3.1h-3c-.4 0-.8 0-1.2-.1-.6.1-1.3-.1-2 0-.6.1-1.5 0-2.2 0-.1-.4 0-1.2 0-1.7.1-1.4.2-2.8.3-4.1.1-.4-.1-1.3.2-1.6.2-.1.4 0 .6 0h2.3c.4-.1.8.1 1.3 0 .4-.1.9.1 1.4 0l2.7-.1h1.6c1.3-.2 2.8 0 4.1-.1h1.1c.5-.1 1.1 0 1.6 0h2.5l2.1-.1h.6l2.5-.1h.8l3.2-.1h.6c1-.1 2.2.1 3.2-.1.4-.1.8 0 1.2 0 .4-.1.8 0 1.2 0h1.3c.6-.1 1.5 0 2.2 0h1c.6-.1 1.4-.1 2 0v.2c.1.1 0 .4 0 .6v2.4000000000000004c.1.3-.1.7 0 1.1.1.7-.1 1.6 0 2.2-.4.5-.7 1.2-.5 1.4M30.6 47l.1.8c0 .2.1.7.1.8 0 .2.1.5 0 .7l.1 1.1v1.1l.1.7c0 .2 0 .4.1.6v1.1l.1.7c0 .2.1.4 0 .5l.2 2.4.1 1.2v.4c0 .4.1.8 0 1.1v1.5c0 .2.1.5 0 .7v1.9l-.4.1h-1.3c-.6-.1-1.2-.1-1.7-.3-1.2-.4-2.4-.9-3.5-1.5-.4-.2-.9-.5-1.2-.8-.5-.5-.9-1-1.3-1.5-.2-.3-.4-.6-.7-.8l-.3-.3c0-.1 0-.2-.1-.3-.1-.3-.1-.7-.3-1l-.3-1c0-.1 0-.2-.1-.3-.1-.2-.2-.6-.1-.8.1-.5.1-1.1.3-1.6l.5-.9.5-1c.3-.3.6-.7.8-1l.6-.8c.1-.1.1-.3.3-.4l.8-.7c.7-.5 1.6-.9 2.5-1.3l.6-.2 1.5-.5.6-.1c.6-.3 1.1-.3 1.4-.3M50.3 63.8v-2.3l.1-1.1v-.5c0-.2 0-.4.1-.5v-1.7999999999999998c0-.2 0-.4.1-.6v-1.2l.1-2.4.1-1.2v-.4l.1-1.1v-.4l.1-.7v-.4l.1-.7c.1-.6.1-1.3.2-1.8h.6000000000000001l.9.1c.5.1 1.1.2 1.5.5 1.1.5 2.2 1.2 3.1 1.9.3.3.8.6 1 .9.4.5.7 1.1 1 1.7l.5.9c.1.1.2.2.2.4v.3l.1 1c.1.3.1.7.1 1v.3c0 .2.1.6 0 .8-.1.5-.3 1.1-.5 1.6-.1.3-.4.6-.6.8-.2.3-.4.6-.6 1l-.9.9-.7.7-.3.3-.8.6c-.7.5-1.6.7-2.5 1l-.6.1-1.5.3h-.6c.4.1-.1.1-.4 0M53.4 63.4v.2c0 .1-.1 0-.2 0-.1.1-.3 0-.5 0l-1.2.1h-1c-.8.2-1.7 0-2.5.1h-3.4000000000000004c-.3.1-.8 0-1.1 0h-1.3c-.3 0-.6-.1-.8 0h-5.4c-.6.1-1.3-.1-1.9.1h-5c-.1-.3 0-.9 0-1.3l.2-3.1.1-1.2c.1-.1.3 0 .3 0h2.8l1.6-.1h.9l2.4-.1h.7c.3-.1.7 0 .9 0h1.4000000000000001l1.2-.1h.3l1.4-.1h.5c.6-.1 1.3.1 1.9-.1h.3l1.9-.1h2.2c.3-.1.9 0 1.3 0h.6c.3 0 .8-.1 1.2 0v1.5c0 .2-.1.6 0 .8v2.5c.2.2.1.7.2.9M54.1 58v.2c-.1.1-.2 0-.3 0-.1.1-.4 0-.6 0l-1.5.1h-1.2000000000000002l-3.2.1h-1c-.6 0-1.3 0-1.9-.1-.3.1-.8-.1-1.2 0-.4.1-1 0-1.4 0h-1.6c-.3 0-.8-.1-1 0h-1.5c-.8.1-1.8-.1-2.7 0h-2.5999999999999996c-.8.1-1.7-.1-2.4 0h-3.1c-.5.1-1-.1-1.4 0h-1.6c-.1-.3 0-.9 0-1.3l.3-3.1c.1-.3-.1-1 .1-1.2.1-.1.3 0 .4 0h3.6l2-.1h1.1l3-.1h.8c.4-.1.8 0 1.2 0h1.7000000000000002l1.6-.1h.4l1.8-.1h.6c.8-.1 1.6.1 2.3 0h.4l2.4-.1h2.7c.4-.1 1.1 0 1.6 0h.7c.4 0 1-.1 1.5 0v.1c.1.1 0 .3 0 .4v1.8c0 .2-.1.5 0 .8v1.7c0 .3-.2.8 0 1M53.4 52.5v.2c-.1.1-.2 0-.3 0-.1.1-.4 0-.6 0l-1.5.1h-1.2000000000000002l-3.2.1h-1c-.6 0-1.3 0-1.9-.1-.3.1-.8-.1-1.2 0-.4.1-1 0-1.4 0h-1.6c-.3 0-.8-.1-1 0h-1.5c-.8.1-1.8-.1-2.7 0h-2.5999999999999996c-.8.1-1.7-.1-2.4 0h-6.199999999999999c-.1-.3 0-.9 0-1.3.1-1.1.2-2.1.2-3.1.1-.3-.1-1 .1-1.2.1-.1.3 0 .4 0h3.6l2-.1h1.1l3-.1h.8c.4-.1.8 0 1.2 0h1.7000000000000002l1.6-.1h.4l1.8-.1h.6c.8-.1 1.6.1 2.3 0h.4l2.4-.1h2.7c.4-.1 1.1 0 1.6 0h.7c.4 0 1-.1 1.4 0v.1c.1.1 0 .3 0 .4v1.8c0 .2-.1.5 0 .8v1.7c.3.3.2.8.3 1M27.1 27.7h.2c.1.1.1.2.1.3.1.1 0 .4 0 .6l.1 1.4v1.2000000000000002l.2 3.1v2.8c.1.3-.1.8 0 1.2.1.4 0 .9 0 1.4v1.6c0 .3-.1.7 0 1v1.5c.2.8-.1 1.8.1 2.7v2.5999999999999996c.2.8-.1 1.7.1 2.4v.5c.1.6-.1 1.1.1 1.7v.9c.1.4-.1.9 0 1.4.1.4.1 1.1 0 1.6-.4.1-1.2 0-1.7 0l-4.1-.3-1.6-.1c-.1-.1 0-.3 0-.4v-1.7c-.1-.3 0-.6 0-.9-.1-.3 0-.7 0-1l-.1-2v-1.1l-.2-3v-.8c-.1-.4 0-.8 0-1.2v-.5l-.1-.8v-.4l-.1-1.5v-.4l-.1-1.8v-.6c-.2-.8.1-1.6-.1-2.3v-.4c-.2-.7 0-1.6-.1-2.3-.1-.3 0-.6 0-.9-.1-.3 0-.6 0-.8v-.9c-.1-.4-.1-1.1-.1-1.6v-.7c-.1-.4-.1-1 0-1.4h.2c.1-.1.4 0 .6 0h1.3c.3 0 .8.1 1.1 0 .3 0 .7.1 1 0 .6-.1 1.6.1 2.1 0 .1-.2.8 0 1.1-.1M32.1 27.6h.2c.1.1.1.2 0 .3.1.1 0 .4 0 .6l.1 1.4v1.2000000000000002c.2 1 0 2.1.1 3.1v2.8c.1.3-.1.8 0 1.2.1.4 0 .9 0 1.4v1.6c0 .3-.1.7 0 1v1.5c.2.8-.1 1.8 0 2.7v2.5999999999999996c.2.8-.1 1.7.1 2.4v.5c.1.6-.1 1.1.1 1.7v.9c.1.4-.1.9 0 1.4.1.4 0 1.1 0 1.6-.4.1-1.2 0-1.6 0l-3.9-.3-1.5-.1c-.1-.1 0-.3 0-.4v-1.7c-.1-.3 0-.6 0-.9-.1-.3 0-.7 0-1l-.1-2v-1.1c-.2-.9 0-2-.1-3v-.8c-.1-.4 0-.8 0-1.2v-.5l-.1-.8v-.4l-.1-1.5v-.4l-.1-1.8v-.6c-.2-.8.1-1.6-.1-2.3v-.4l-.1-2.3c-.1-.3 0-.6 0-.9-.1-.3 0-.6 0-.8v-.9c-.1-.4-.1-1.1-.1-1.6v-.7c-.1-.4-.1-1 0-1.4h.2c.1-.1.4 0 .5 0h1.2c.3 0 .7.1 1.1 0 .3 0 .7.1 1 0h2.1c.2-.1.9.1 1.1-.1M55.9 35.6c.4.1 1.1 0 1.6 0h3.1c.1.3.1.7.1 1.1v5.6c-.1.5.1 1.1 0 1.7v.4c-.1.4 0 .9 0 1.3v.3c-.1.4 0 .8 0 1.1v2.8c-.1.7.1 1.5-.1 2.2v.8c-.1.4 0 1 0 1.4v2.6999999999999997c0 .1.1.2 0 .3l-1.2.1c-1 0-2 .1-3.1.1-.3 0-1 .1-1.2 0 0-.4-.1-.9 0-1.2 0-.4-.1-.7 0-1.1v-.7c.1-.4-.1-.8 0-1.3v-.4c.1-.5-.1-1.2 0-1.8 0-.3 0-.7-.1-1v-4.8c0-.4 0-.8-.1-1.2l-.1-1v-.9l-.1-1.4c0-.1-.1-.5 0-.7v-3.1999999999999997l.1-1.1c0-.1-.1-.3 0-.4v-.2h.2c.1.6.7.5.9.5M49.7 30.7c.5.1 1.3-.1 1.9 0 .3.1.7 0 .9 0 .3.1.7 0 1 0h1.8c.1.4.1 1 .1 1.4v.7c0 .4.1 1.1 0 1.6v2.6c-.1.7.1 1.6-.1 2.3v.4c-.1.7.1 1.5 0 2.3v.6l-.1 1.8v.4c-.1.5 0 1.1 0 1.5v1.7000000000000002c-.1.4 0 .8 0 1.2v.8c-.1 1 .1 2-.1 3v1.1l-.1 2v1c-.1.3 0 .6 0 .9v.5c-.1.3 0 .8 0 1.2 0 .1.1.3 0 .4-.2.2-1 0-1.4.1l-3.6.2c-.4 0-1.1.1-1.5 0 0-.5-.1-1.2 0-1.6.1-.5-.1-1 0-1.4 0-.3 0-.6-.1-.9v-2.2c.1-.7-.1-1.6 0-2.4 0-.5 0-.9-.1-1.4v-4.7c0-.1-.1-.5 0-.7v-1c0-.5 0-1-.1-1.6l-.1-1.4v-1.2l-.1-1.9c0-.2-.1-.7 0-.9.1-1-.1-2.1.1-3.1v-1.2000000000000002l.1-1.4c0-.2-.1-.4 0-.6v-.3h.2c.4.3 1 .1 1.3.2M53.2 26.3v.2c0 .1-.1.1-.2 0-.1.1-.3 0-.5 0l-1.2.1h-1l-2.6.2h-3.4000000000000004c-.3.1-.8 0-1.1 0h-1.3c-.3 0-.6-.1-.8 0h-1.2c-.6.2-1.5-.1-2.2.1h-2.2l-2 .1h-.4c-.5.1-.9-.1-1.4.1h-1.9c-.2-.1-.8-.1-1.2-.1-.1-.4 0-1.2 0-1.6l.3-3.9.1-1.5c.1-.1.3 0 .4 0h1.4c.2-.1.5 0 .8 0 .3-.1.5 0 .8 0l1.6-.1h.9l2.5-.2h.7c.3-.1.7 0 1 0h.4l.7-.1h.3l1.3-.1h.3l1.5-.1h.5l1.9-.1h.3l1.9-.1c.2-.1.5 0 .7 0 .2-.1.5 0 .7 0h.8c.4-.1.9-.1 1.3-.1h.6c.3-.1.8-.1 1.2 0v1.9c0 .3-.1.7 0 1.1 0 .3-.1.7 0 1v2.1c-.2.2-.4.9-.3 1.1M28.3 36.7l-.6-.1-1.5-.5c-.2-.1-.3-.1-.6-.2-.9-.4-1.8-.7-2.5-1.3-.3-.2-.5-.4-.8-.7-.1-.1-.2-.2-.3-.4l-.6-.8c-.3-.3-.6-.7-.8-1l-.5-1c-.2-.3-.4-.6-.5-.9l-.3-1.6.1-.8c0-.1 0-.2.1-.3l.3-1 .3-1 .1-.3.3-.3c.2-.3.5-.6.7-.8.4-.5.8-1.1 1.3-1.5.3-.3.8-.6 1.2-.8 1.1-.6 2.3-1.1 3.5-1.5.5-.2 1.1-.2 1.7-.3h1.3c.1 0 .3 0 .4.1v1.9c0 .2-.1.5 0 .7v1.5c0 .4-.1.8 0 1.1v.4l-.1 1.2c-.4.7-.5 1.5-.5 2.2 0 .1-.1.4 0 .5l-.1.7v.6c0 .2-.1.4 0 .5 0 .2 0 .4-.1.6l-.1.7v1.1l-.1 1.1c0 .2-.1.5 0 .7l-.1.8c0 .2 0 .6-.1.8-.3 0-.8 0-1.1-.1M51.4 18.9h.6c.5.1 1 .1 1.4.3l.6.1c.9.2 1.7.5 2.4.9.3.2.6.4.8.6l.3.3c.2.2.4.5.7.7l.9.9.6.9c.2.3.5.5.6.8.2.4.3 1 .5 1.5.1.2 0 .6 0 .8v.3c-.1.3-.1.7-.1 1l-.1 1v.3l-.2.4-.5.9c-.3.6-.6 1.1-1 1.7-.2.4-.7.7-1 .9-.9.7-1.9 1.4-3 1.9l-1.5.5-.9.1h-.6000000000000001c-.1-.5-.1-1.2-.2-1.8l-.1-.7v-.3l-.1-.7v-.4l-.1-1.1v-.4l-.1-1.2-.1-2.3v-1.2c0-.2 0-.4-.1-.6v-1.1c-.1-.2 0-.5 0-.7l-.1-.5v-.5l-.1-1v-.6c0-.2 0-.6-.1-.8l-.1-.8c0-.1.4-.1.7-.1"/><path clip-path="url(#b)" fill="#FF6A13" d="M48.3 28.4c-.2-.4-.2-1.7-.1-4.1 0-.2-.1-2.4 0-2.5h8.200000000000001v4.4c-.1.3 0 .5 0 .7v1.2999999999999998h-7.6000000000000005c-.2.2-.4.3-.5.2M28.8 18.3c.1 0 0 .3 0 .4v8.6h-2.2v-.8c-.1-.3 0-.7 0-1v-7h2.0999999999999996c0-.2 0-.2.1-.2M31.6 18.4c.1 0 0 .3 0 .4v8.6h-2.2v-.8l-.1-1v-7h2.0999999999999996c.1-.2.2-.2.2-.2M34.8 18.4c.1 0 0 .3 0 .4v8.6h-2.2v-.8c-.1-.3 0-.7 0-1v-7h2.0999999999999996c0-.2 0-.2.1-.2M64.7 37.5c-.1.1-1.8 0-2.3 0-.4.1-3 0-3.9 0-1.6 0-4.6-.1-5.8 0h-3.6c-.7 0-1.7-.1-2.4 0h-1.7c-1.2 0-3.1-.1-4.1 0h-24.5c-.2-.2 0-.7 0-.9.2-.1.1-.4.1-.6 0-.5.2-.9.2-1.3h4.300000000000001c1.7-.1 3.5.1 5.1 0h37.9c.1.3 0 .6.2.8.1.1 0 .3.2.4l.1.3v.2l.2.4v.2l.2.4c-.2-.1-.3 0-.2.1"/><path clip-path="url(#b)" fill="#fff" d="M45.4 33.8c4.7 3.1 5 7.5 4.1 11.8-.1.7-.3 1.5-.6 2.3l-.6 1.2c-.1.4-.4 1.3-.9 1.7-1 .9-2.1 1.5-3.1 2.2-.7.5-1.2 1-2 1.2-1.1.4-2.4.5-3.6.6l-2 .2c-.2 0-.6.2-.8.1-.1 0-.2-.2-.2-.2-.1-.1-.4-.2-.6-.3-.6-.2-1.3-.5-2-.8-.1-.1-.2-.2-.4-.3-1-.7-1.5-1.3-2-2.1l-.6-.7c-.1-.3-.2-.7-.4-1-.3-.7-.6-1.2-.8-1.9-.4-1.3-.4-2.7-.4-4 0-.8-.2-1.7 0-2.6.2-.9 1-1.7 1.4-2.6.7-1.6 2-3.3 3.2-4.1.7-.5 1.6-.7 2.4-1 1.8-.7 3-1 4.9-1 .4 0 .9-.1 1.3 0 .7.1 1.4.3 2.1.6.7.1 1.2.7 1.6.7"/><path clip-path="url(#b)" fill="#FF6A13" d="M34.1 52.6c.6.3 1.1.5 1.6.6.3.1.6.2.8.4h.2c.6 0 1.2-.1 1.8-.2l.7-.1c.9-.1 1.8-.2 2.6-.5.4-.2.8-.4 1.3-.8l.3-.2 1.2-.8c.7-.4 1.3-.8 1.9-1.3 0 0 .2-.4.4-1l.1-.2.5-1.1c.2-.7.4-1.4.5-2 .9-4.8 0-7.8-3.2-10.1-.5-.2-.8-.4-1.1-.6l-.2-.1c-.5-.2-1.1-.3-1.8-.5h-1.3c-1.5 0-2.5.3-4.2.9l-.6.2c-.6.2-1.1.4-1.5.6-1 .6-2.1 2.1-2.6 3.4-.2.5-.5.9-.8 1.4-.2.4-.5.8-.5 1-.1.4-.1.8 0 1.3v1.5c0 1.1 0 2.1.3 2.9.1.4.3.7.5 1.1l.3.7.2.5.1.3c.2.2.4.4.5.6.5.7.8 1.2 1.6 1.7l.4.4zm2.1 4.2l-.6-.1c-.3-.1-.5-.2-.8-.5h-.1c-.7-.3-1.4-.5-2.1-.9l-.5-.4c-1.3-.9-1.8-1.7-2.4-2.6l-.7-.8c-.1-.2-.2-.5-.3-.8l-.1-.3-.3-.6-.6-1.4c-.4-1.3-.4-2.7-.4-3.9v-1.2999999999999998c-.1-.7-.1-1.5.1-2.3.2-.7.6-1.4.9-1.9.2-.3.4-.6.5-.9.8-1.9 2.3-3.9 3.8-4.9.7-.5 1.5-.7 2.2-1l.5-.2c1.9-.7 3.3-1.1 5.2-1.1h.6c.4 0 .8 0 1.3.1l2.4.6c.4.1.7.4.9.5l.1.1h.2l.4.2c5.9 3.9 5.6 9.5 4.8 13.4-.1.7-.3 1.6-.6 2.5l-.2.4-.4.9c-.5 1.6-1.1 2.1-1.2 2.3-.8.7-1.6 1.2-2.3 1.7-.3.2-.7.4-1 .7l-.3.2c-.6.5-1.2.9-2.1 1.2-1.1.4-2.3.5-3.3.6l-.8.2c-.7.1-1.4.2-2.1.2-.1 0-.4.1-.7.1"/></svg>