<svg xmlns="http://www.w3.org/2000/svg" xmlns:xlink="http://www.w3.org/1999/xlink" viewBox="0 0 80 80" enable-background="new 0 0 80 80"><defs><path id="a" d="M-216-.1h501.5v80.1h-501.5z"/></defs><clipPath id="b"><use xlink:href="#a" overflow="visible"/></clipPath><path clip-path="url(#b)" fill="#8F63CC" d="M25.7 3.6c3.1-.4 6.3-.7 9.3-1 1-.1 2-.3 3-.2 2.8.1 4.9.6 7.4 1.8.4.1.8.2 1.1.3l5.9 2.3c1.6.8 2.9 2 4.4 3.1 1.8 1.3 3.7 2.8 5.4 4.2 1.1.9 1.7 2.1 2.7 3.2.6 1 1.2 2 1.7 3 1 1.1 2.9 4.6 3.3 6l.6 1.2 1.3 3c.3.6.6 1.1.8 1.7.5 2 1.9 3.7 2.4 5.6.4 1.5 1.1 3.2 1.3 4.7.4 2.4.5 5 .8 7.4.1 1.2.2 2.4.3 3.5l.2.5-.4 1.4c-.2 1.2-.5 2.4-1 3.6-.1.5-.2 1-.4 1.4-1 2.2-1.8 4.8-3.3 6.8-2.2 2.9-6.3 6.3-9.3 7.7-.2.1-.7.4-1 .6-1 .6-2.2 1.2-2.8 1.6-.7.5-1.8.7-2.5.9-1 .2-1.9.7-3 .9-3.2.6-7 1.4-10.2 1.2-1.4-.1-3 0-4.4-.2l-1.1-.3v.2c-.6.1-1.4-.3-2.1-.4-2.2-.2-4.1-.6-6.1-1.5-1.1-.3-2.2-.6-3.3-1-1.9-.9-4-1.7-5.8-3-2.9-2-5.2-4.7-7.8-7.6-.3-.5-.6-.9-.8-1.4-1.3-1.5-2.8-4.7-3.3-6.4l-1.7-3.8c-.7-2.6-1.9-4.8-2.5-7.3-1-4.6-1.1-8.1-.7-12.2l1-5c.4-2.4 1.2-5.6 2.2-7.8.2-.4.2-.8.3-1.2.2-.6.5-1.2.7-1.7.4-1 .6-2.1 1.1-3.1 1.3-2.6 3.2-5.2 5.6-7.4.8-.8 2.1-1 3.1-1.9 1.2-1 3.2-1.9 4.7-2.6.6.1 2.2-.8 2.9-.8"/><path clip-path="url(#b)" fill="#fff" d="M51.4 44v.2c-.1.1-.2.1-.3.1l-.6.1-1.4.2h-.4l-.8.1-3.1.2h-2.8c-.3.1-.8-.1-1.2 0-.4.1-.9 0-1.4 0h-3.9000000000000004l-2.6.1h-2.5999999999999996l-2.4.2h-.5l-1.7.1h-.9l-1.4.1c-.4.1-1.1.1-1.6.1-.1-.3 0-1 0-1.4l.1-3.6c.1-.4-.1-1.1.1-1.4.1-.1.3 0 .4 0 .3 0 .8 0 1.1-.1h.5l.9-.1 1-.1c.6-.1 1.3 0 1.9-.2.4 0 .7 0 1.1-.1.9-.2 2-.1 2.9-.2.2 0 .6 0 .8-.1l1.1-.1h.5l.8-.1h.4l1.5-.1h.4c.5-.1 1.2 0 1.8-.2h.9l2.3-.2h.4l2.3-.2.9-.1.8-.1h.9c.4-.1 1.1-.1 1.5-.1h.7c.4-.1 1-.1 1.4 0v.2c.1.1 0 .3 0 .5v1.1c.1.3 0 .7 0 1 .1.3 0 .6 0 .9l.1 1.9.1 1.4M59.7 23.6c0 .1 0 .1-.1.2s-.3.1-.5.3c-.3.2-.7.4-1.1.7l-3.3 1.9c-.5-.3-1-.5-1.4-.8l-.5-.3-1-.3c-1.1-.4-2.2-.5-3.4-.6l-.6-.2h-1c-.2 0-.4-.1-.5 0-.3.1-.5.2-.8.4-.5.2-1.1.5-1.6.8l-1.4.8c-.7.6-1.5 1.2-2.1 1.9-.5.5-.9 1.1-1.2 1.6-.4.6-.7 1.4-.9 2l-.3 1.3c-.2.5-.4 1-.5 1.5-.1.9-.1 1.9-.3 2.7-.2 0-.3-.1-.5-.2l-1.3-.5-.6-.2-2.1-.8c-.4-.1-.8-.3-1.2-.5-.2-.1-.5-.1-.8-.2-.2-.1-.3-.2-.5-.2 0-.5 0-1.1.1-1.6 0-.4-.1-.9 0-1.4l.2-.6c.1-.2.1-.4.1-.6l.2-.6c0-.3.2-.6.2-1 0-.2 0-.4.1-.5.3-.7.8-1.3 1.2-2l.9-1.6c.2-.3.5-.5.7-.7.6-.8 1.4-1.5 2.1-2.3.2-.2.4-.4.7-.5.3-.3.9-.6 1.3-1l.5-.3c.5-.4 1.1-.7 1.8-1 1.4-.8 2.7-1.4 4-1.7 1.7-.5 3.8-.8 5.7-.5.7.1 1.3.3 1.9.6h.2c.7.3 1.4.5 2 .9.3.2.5.4.7.6l1.1.8c.3.2.5.5.8.8.4.4.9.8 1.4 1.1.2.1.4.3.6.5l.5.7.5.6M31 28.1c3.6 0 7 .4 10.5.5 0 .7 0 1.4-.1 2l-.1 1.6v.8c0 .3 0 .8-.1 1.1v.8l-.2 3.3-.1 2.2-.2 3.3-.1 1.4-.1 1.4c0 .7 0 1.4-.1 2.1l-.3 4.6v1.4l-.2 3.2v.7l-.5 6.8h-.1c-.2.1-1.2 0-1.6 0l-4.4-.2c-.3 0-.8.1-.9-.1-.1-.2 0-.7 0-.9-.2-.8.1-1.6-.1-2.5-.2-1.2.1-3-.2-4.3v-3.3l-.1-2.1-.2-4.1v-3.3000000000000003c-.2-1 .1-2.3-.2-3.3-.1-.3 0-.8 0-1.1v-1c-.2-1 .1-2.2-.2-3.2v-.9c-.1-.4-.1-1.1-.1-1.6v-.8c-.1-.6.1-1.3-.1-2-.3-.6-.2-1.7-.2-2.5"/></svg>