<svg xmlns="http://www.w3.org/2000/svg" viewBox="0 0 80 80" enable-background="new 0 0 80 80"><g fill-rule="evenodd" clip-rule="evenodd"><path fill="#808184" d="M37.9-.1c3.2.2 5.9.9 8.4 1.9 1.9.8 3.8 1.3 5.4 2.3 1.7 1 3.1 2.4 4.6 3.5 3.4 2.6 6.1 5.7 8.9 8.9 1.7 2 3.5 4.1 4.8 6.5 1.4 2.6 2.1 5.6 3.2 8.6.4 1.2.8 2.7 1.2 4l.3 2c.3 1.2 1.1 3.6.7 5.3l-.6 4.1c-.6 2.5-1 5.1-1.8 7.5-.2.8-.2 1.4-.4 2.1-.6 1.8-1.2 3.8-1.9 5.4l-.7 2.1c-.3.5-1.1 1.1-1.6 1.5l-.7.8-2.6 2.2c-.5.4-.9 1-1.5 1.4-5.2 3.9-9.9 8.4-17.2 10.2-1 .3-4.3.2-5.4 0-.6-.1-1.8.2-2.6 0-1.9-.4-3.8-.7-5.6-1.3-3.6-1.3-6.4-3.8-9.2-5.9-2.4-1.8-4.7-3.8-6.8-5.9-.9-.9-2.2-1.7-2.9-2.7-.7-.9-1.7-2.1-2.1-3l-.7-1.8c-.7-1.1-1.4-2.2-2.1-3.4-1-1.7-1.5-3.7-2.2-5.7-.4-1.2-.7-2.6-1-3.9l-.2-2.5c-.2-.9-.3-2.8-.1-3.5l.1-2.9v-1.2c.2-1.7.4-3.3.7-5 1-4 1.7-8 3.1-11.6 1.9-5 5.4-8.4 9-11.8 1.3-1.3 2.6-2.4 4.1-3.5l.9-.8c.5-.3 1.1-.3 1.6-.5l2.9-1.3c2.1-.9 4.5-1.2 6.9-1.8.4-.1 1.1-.2 1.7-.2.5 0 1.1.1 1.4-.1z"/><path fill="#fff" d="M53.2 28.1c0 .1.3.6.3.6v.1h.1v.2c.1 0 .2.1.2.2 0 0-.1.1 0 .1h.1v.2h.1v.1h.1v.8l-.1.1-.1.2.1.1c0 .1 0 .2-.1.3.1 0 .1 0 .1.1-.1.1 0 .4 0 .5 0 0 0 .1-.1.1v1.8c.1.1 0 1.4-.1 1.5v.1c.2.6-.7 1.8-1.2 2.4-1.4 1.6-2.6 3.4-4 4.8l-1 1c-.1.1-.2.2-.2.3-.2.1-.6.1-.8.1l-2 .3c-1.4.2-2.8.6-4.3.5-.5 0-.9-.2-1.3-.3l-.6-.3c-.3-.1-1.5-.5-1.8-.9-.1 0-.2-.1-.4-.1-.2-.1-.4-.2-.5-.3l-.6-.3-.9-.6c-1-.9-1.9-1.9-2.7-2.9-.3-.4-.7-.7-1-1-.1-.1-.2-.1-.2-.2-.2-.3-.3-.7-.4-1.1-.3-1-.7-2-.9-3.1-.1-.9-.2-1.8-.2-2.7 0-.7.1-1.5.2-2.2v-.8c0-.2.4-1 .6-1.2l.5-1c.4-.6.7-1.2 1.1-1.7.5-.7.9-1.2 1.5-1.7.6-.6 1.4-1.1 2.1-1.5.2-.1.5-.2.7-.4.7-.5 1.5-.9 2.2-1.2l.5-.3c.4-.1.8-.2 1.3-.2.6-.1 1.3-.5 1.9-.4l.4.2.9.2c1.8.2 3.7 1.4 4.8 2.5.3.3.6.4.8.7.6.6 1.3 1.2 1.7 1.7.2.3.6.6.7 1l.1.1c.1.2.2.5.4.6.2 0 .6.8.7 1 .2 0 .2.2.4.4.2 0 .3.5.5.7h-.1c.1 0 .6.7.6.8v.1h.1c-.3-.3-.3-.2-.2-.1z"/><path fill="#808184" d="M31.1 36.5c0-.7.1-1.4.3-2 .2-.5.3-.9.5-1.3s.6-.8.9-1.1c.6-.9 1.4-1.6 2.3-2.3.5-.4 1-.9 1.7-1.3s1.5-.6 2.3-1c.3-.1.7-.3 1.1-.4.2-.1.4-.1.5-.1.3-.1 1-.4 1.4-.3h1.2l2.1.2h.6l1.6.3c.2 0 .4 0 .6.1.2 0 .3.2.4.3.1 0 .2.1.2.1l.7.5.4.3c1.2 1.1 2.6 2 3.3 3.6.1.2.2 1 .1 1.2 0 .1.1.4.1.6-.1.5-.1.9-.2 1.3-.3.9-.9 1.6-1.4 2.3-.4.6-.9 1.2-1.5 1.7-.2.2-.4.5-.7.7-.2.2-.5.4-.8.6l-.5.2-.9.6c-.4.3-1 .5-1.5.7-.3.1-.7.2-1.1.3l-.7.1c-.3.1-.8.1-1 .1-.3 0-.6.1-.8.1h-1.7c-1.1-.1-2.2-.1-3.3-.3-1.4-.3-2.5-1-3.5-1.7l-1.1-.8c-.1-.1-.2-.1-.2-.2l-.2-.3-.4-.6c-.3-.4-.4-1-.7-1.5l-.1-.5s.1-.2 0-.2z"/><path fill="#fff" d="M35.6 35.3h.2s.1 0 .1.1l.1.1.1.2.1.2v.2c0 .1 0 .2-.1.3v.1l-.1.1c0 .1-.1.1-.2.1l-.2.1h-.2c-.1 0-.1 0-.2-.1h-.1l-.1-.1-.1-.1v-.1l-.1-.2v-.5c0-.1.1-.1.1-.1h.1l.2-.1c.3-.2.4-.2.4-.2zM49.6 34.4c.1 0 .4 0 .4.1.1.1.2.1.2.2l.1.1v.4l-.1.2c0 .1-.1.1-.2.1-.1.1-.4 0-.5 0h-.1l-.1-.1c-.1 0-.1-.1-.1-.1s-.1 0-.1-.1v-.2c0-.1 0-.2.1-.3 0-.1.1-.1.2-.2l.2-.1z"/><path fill="#F1F1F2" d="M52.5 27.5l-.2-.2s0-.1-.1-.1l-.2-.2v-.1c-.1-.1-.1-.2-.2-.2-.1-.1-.2-.2-.3-.4l-.1-.1-.1-.1-.3-.3-.3-.3-.6-.6-.7-.7-.2-.3-.3-.3c-.1-.1-.1-.2-.2-.2-.2-.1-.3-.3-.4-.4-.1-.1-.2-.2-.2-.3l-.1-.1-.1-.2-.1-.1c0-.1-.1-.2-.1-.2 0-.1-.1-.2-.2-.3l-.1-.2v-.1l-.1-.1-.1-.1-.1-.3c.2-.1.3-.2.5-.2l.2-.1c.2-.1.4-.2.6-.2.7-.3 1.3-.6 2-.8l.7-.3 2.5-1.1c.1 0 .2-.1.2-.1.2-.1.4-.2.6-.2.2-.1.4-.2.6-.2 0 .1.1.1.2.1l.1.1c.1.1.3.2.4.4v.2c0 .1 0 .2-.1.3v.2c0 .1-.1.3-.2.4l-.3.9-.4 1-.5 1.5-.2.5-.4.9c-.1.2-.1.4-.2.5l-.2.4-.3.6-.1.2-.3.7c0 .1-.1.1-.1.1l-.2.4c.4.1.4.2.3.3zM34.8 21.2l-.2.2s-.1 0-.1.1l-.2.2h-.1l-.2.2-.4.4-.1.1-.1.1-.3.3-.3.3-.6.6-.7.7-.3.2-.3.3-.2.2-.4.5c-.1.1-.2.2-.3.2l-.1.1-.2.1-.1.1c-.1 0-.2.1-.2.1-.1 0-.2.1-.3.2l-.2.1h-.1l-.1.1-.1.1-.3.1c-.1-.2-.2-.3-.2-.5l-.1-.2-.3-.6-.9-2-.3-.7-1.2-2.5c0-.1-.1-.2-.1-.2l-.3-.6c-.1-.2-.2-.4-.2-.6.1-.1.1-.1.1-.2l.1-.1c.1-.1.2-.3.4-.4h.7c.1 0 .3.1.4.2l.9.3c.3.1.7.2 1 .4l1.5.5.5.2.9.3c.2.1.4.1.5.2l.4.2c.2.1.4.2.6.2l.2.1.7.3c.1 0 .1 0 .1.1l.4.2c.6-.3.7-.3.7-.2z"/><path fill="#fff" d="M36.2 56.8h-.3c0-.2 0-.5-.1-.8v-.3c0-.1 0-.4-.1-.5v-.4c0-.2 0-.5-.1-.7v-.5c-.1-.4-.1-.9-.2-1.4v-.5c-.2-.5 0-1-.1-1.5v-.3l-.1-.7c-.1-.3-.1-1 .1-1.4l.1-.7v-.3l.1-.7c.3-.7 1-1.1 1.6-1.6.2-.2.5-.5.8-.6l.9-.3 1-.4.3-.1h.5l1.1.1h.4l1.6.1h.7c.2 0 .4.2.6.3l.9.4c1.2.6 2.3 1.3 2.9 2.3l.1.4.2 1.5.3 1.9v2.1c.1.2 0 .7 0 1v.4l.2 2.4h-.3l-.9.1-1.6.1h-.4c-1 .1-2.2 0-3.2.2-.3 0-.7 0-1 .1l-1.2.1h-.4l-1.3.1h-.3l-1.9.1c-.5 0-.8-.1-.9 0zM35.6 50.2l3.2.1v1.8l-.1 1v.7l-.1 1v1.4l-.1 1.4v.4l-.1 1v.2l-.1 2.1h-.5c-.4 0-.9 0-1.3-.1h-.3v-.3c-.1-.2 0-.5 0-.7l-.1-1.3v-1.6l-.1-1.2v-1c-.1-.3 0-.7 0-1v-.6c-.1-.3 0-.7 0-1v-1.6c-.4-.1-.4-.4-.4-.7zM46.1 53.7c.9-.2 1.9-.3 2.8-.4l.1.4v.8999999999999999l.1.7c0 .2 0 .3.1.5l.1.7v.6c0 .2 0 .3.1.4l.1 1v.3l.1.7v.1c0 .5.1 1 .1 1.4 0 0-.3.1-.4.1l-1.2.2c-.1 0-.2.1-.3 0v-.2l-.1-.5c-.1-.2-.1-.6-.2-.9v-.2l-.1-.5-.1-.4-.2-.8c0-.1 0-.2-.1-.2l-.1-.5-.2-.7c0-.1 0-.2-.1-.2v-.2l-.2-.7v-.2l-.1-.3v-.2l-.1-.4c-.1-.2-.1-.4-.1-.5zM22.3 26.7c0 .4-.1.9 0 1.3v5.9c-.1.5-.2 1.2 0 1.7v.8l.1.8v.5c.1.5 0 1.2.2 1.7v.6l.2 2.8v1c.1.2.2.4.2.6l.4 1.2c.2.5.6 1.1.9 1.5.4.5 1.1.8 1.6 1.1.3.1.5.3.8.5.3.2.8.3 1.1.4l2.2.3h1.6l1.5.1h.5l1 .1c.7.1 1.5.1 2.2.1.1.1 0 .7 0 1v3.9h-.4c-.1.1-.5 0-.7 0-.6.1-1.4.1-2.1.1h-5.4c-.4-.1-.8-.1-1.1-.2l-1.5-.3c-1.2-.4-2.3-.8-3.4-1.2-.6-.2-1.6-.6-2-1.1-1.2-1.6-2.1-3.5-2.7-5.7-.1-.2 0-.4 0-.6-.1-.5 0-1.2-.2-1.8v-1c0-.3 0-.7-.1-1v-.4c0-.3 0-.8-.1-1.1 0-.5 0-1.1-.1-1.6-.1-.6 0-1.4-.2-2v-1.3l-.1-1.5v-.4c-.1-.3-.1-.8-.1-1.1v-.5c-.1-.4 0-.9 0-1.3 0-.5-.1-1 0-1.4v-.4c.1-.5.2-1 .2-1.6h.3c.1-.1.3 0 .4 0l1.1-.1 1.4-.1 1-.1c.4-.2.9-.2 1.3-.2z"/><path fill="#6D6E70" d="M19.5 28.9h.4c0 .1.1.1.1.1h.1l.1.1h.1l.2.3c0 .1.1.2.2.3v.3c0 .2 0 .3-.1.5v.1l-.1.1c-.1.1-.1.2-.3.3-.1.1-.2.2-.4.2h-.4l-.3-.1h-.1l-.1-.1c0-.1-.1-.1-.2-.2s-.2-.2-.2-.3v-.1c-.1-.1-.1-.2-.1-.4v-.2c0-.2 0-.3.1-.5 0-.1 0-.2.1-.2.1-.1.2-.2.3-.2.1 0 .1 0 .2-.1l.3-.2c-.1.3.1.4.1.3zM20.3 35c.3 0 .6.1.8.2.2.1.3.3.4.4l.1.2c0 .1.1.5 0 .6 0 .1-.1.2-.2.3-.1.1-.2.2-.3.2-.3.1-.6 0-.9-.1-.1 0-.1 0-.2-.1l-.3-.2c-.1-.1-.2-.1-.2-.2l-.1-.2v-.3c0-.2 0-.3.1-.5.1-.1.2-.3.3-.3.3.1.4.1.5 0zM20.1 39h.4l.2.1h.1l.1.1h.1l.2.3c0 .1.1.2.2.3v.3c0 .2 0 .3-.1.5v.1l-.1.1c-.1.1-.1.2-.3.3-.1.1-.2.2-.4.2h-.4l-.3-.1h-.1l-.1-.1c0-.1-.1-.1-.2-.2s-.2-.2-.2-.3v-.1c-.2.2-.2.1-.2 0v-.2c0-.2 0-.3.1-.5 0-.1 0-.2.1-.2.1-.1.2-.2.3-.2.1 0 .1 0 .2-.1l.3-.2.1-.1zM20.9 45.1c.3 0 .6.1.8.2.2.1.3.3.4.4l.1.2c0 .1.1.5 0 .6 0 .1-.1.2-.2.3-.1.1-.2.2-.3.2-.3.1-.6 0-.9-.1-.1 0-.1 0-.2-.1l-.3-.2c-.1-.1-.2-.1-.2-.2l-.1-.2v-.3c0-.2 0-.3.1-.5.1-.1.2-.3.3-.3.4.1.5.1.5 0zM24.6 49.6h.4l.2.1h.1l.1.1h.1l.2.3c0 .1.1.2.2.3v.3c0 .2 0 .3-.1.5v.1l-.1.1c-.1.1-.1.2-.3.3-.1.1-.2.2-.4.2h-.4l-.3-.1h-.1l-.1-.1c0-.1-.1-.1-.2-.2s-.2-.2-.2-.3v-.1c-.1-.1-.1-.2-.1-.4v-.2c0-.2 0-.3.1-.5 0-.1 0-.2.1-.2.1-.1.2-.2.3-.2.1 0 .1 0 .2-.1l.3-.2c-.2.3 0 .3 0 .3zM29.7 51.1c.3 0 .6.1.8.2.2.1.3.3.4.4l.1.2c0 .1.1.5 0 .6 0 .1-.1.2-.2.3-.1.1-.2.2-.3.2-.3.1-.6 0-.9-.1-.1 0-.1 0-.2-.1l-.3-.2c-.1-.1-.2-.1-.2-.2l-.1-.2v-.3c0-.2 0-.3.1-.5.1-.1.2-.3.3-.3.3.1.4.1.5 0z"/><path fill="#fff" d="M39.8 54c.9-.2 1.9-.3 2.8-.4l.1.4v.8999999999999999l.1.7c0 .2 0 .3.1.5l.1.7v.6c0 .2 0 .3.1.4l.1 1v.3l.1.7v.1c0 .5.1 1 .1 1.4 0 0-.3.1-.4.1l-1.2.2c-.1 0-.2.1-.3 0v-.2l-.1-.5c-.1-.2-.1-.6-.2-.9v-.2l-.1-.5-.1-.4-.2-.8c0-.1 0-.2-.1-.2l-.1-.5-.2-.7c0-.1 0-.2-.1-.2v-.2l-.2-.7v-.2l-.1-.3v-.2l-.1-.4c-.1-.1-.1-.3-.1-.5zM45.7 53.3l2.7.9-.1.4-.1.3v.2c0 .1-.1.2-.1.2v.2c-.1.2-.1.5-.3.7l-.2.4c-.1.2-.1.5-.3.7-.1.1-.1.2-.1.3-.1.1-.1.2-.1.3l-.1.4c-.2.3-.2.7-.4.9l-.1.3c-.1.2-.1.4-.3.6v.1c-.2.5-.4.9-.5 1.4l-.4-.1c-.4-.1-.7-.2-1.1-.4-.1 0-.2 0-.2-.1v-.2l.1-.5.2-.9v-.2l.1-.5c0-.2.1-.3.1-.4l.2-.8c0-.1.1-.2.1-.2l.1-.4.2-.7c0-.1.1-.2.1-.2 0-.1 0-.1.1-.2 0-.2.1-.4.1-.7 0-.1 0-.1.1-.2 0-.1 0-.2.1-.3v-.2l.1-.4c-.1-.4-.1-.6 0-.7zM42.4 36.7c.3 0 .6.1.8.2.2.1.3.3.4.4l.1.2c0 .1.1.5 0 .6 0 .1-.1.2-.2.3-.1.1-.2.2-.3.2-.3.1-.6 0-.9-.1-.1 0-.1 0-.2-.1l-.3-.2c-.1-.1-.2-.1-.2-.2l-.1-.2v-.3c0-.2 0-.3.1-.5.1-.1.2-.3.3-.3.3.1.4.1.5 0z"/></g></svg>