<svg xmlns="http://www.w3.org/2000/svg" viewBox="0 0 51.41 97.5"><defs><style>.cls-1{fill:#99a2a3;}.cls-2{fill:#969e9f;}.cls-3{fill:#949b9a;}.cls-4{fill:#a7b2b4;}.cls-5{fill:#bce1ea;}.cls-6{fill:#93a3a6;}.cls-7{fill:#b1b8b9;}.cls-8{fill:#9fa6a6;}.cls-9{fill:#97a4a2;}.cls-10{fill:#99b0b4;}.cls-11{fill:#a1aeb0;}.cls-12{fill:#a8afaf;}.cls-13{fill:#959b9c;}.cls-14{fill:#a2a9a9;}.cls-15{fill:#b8babc;}.cls-16{fill:#c8e6ee;}.cls-17{fill:#d1eaf2;}.cls-18{fill:#dfd39f;}.cls-19{fill:#8a9396;}.cls-20{fill:#bce4ee;}.cls-21{fill:#c5e6f0;}.cls-22{fill:#b9e2ec;}.cls-23{fill:#b2dde8;}.cls-24{fill:#9eb5b8;}.cls-25{fill:#a9daee;}.cls-26{fill:#8f999a;}.cls-27{fill:#bcd8e5;}.cls-28{fill:#dfeff1;}.cls-29{fill:#93a1a3;}.cls-30{fill:#93a3a8;}.cls-31{fill:#8b9899;}.cls-32{fill:#afb7b9;}.cls-33{fill:#929d9e;}.cls-34{fill:#9ba0a0;}.cls-35{fill:#8a9293;}.cls-36{fill:#d3e9f1;}.cls-37{fill:#bbe1ec;}.cls-38{fill:#929a9c;}.cls-39{fill:#7c9a90;}.cls-40{fill:#ceeaf1;}.cls-41{fill:#ddeff6;}.cls-42{fill:#bfe5ef;}.cls-43{fill:#e0f1f9;}.cls-44{fill:#c5e7f1;}.cls-45{fill:#bcd2d8;}.cls-46{fill:#e0e9ee;}.cls-47{fill:#bfdce1;}.cls-48{fill:#def2f9;}.cls-49{fill:#92a7a9;}.cls-50{fill:#cae1ef;}.cls-51{fill:#f8c81d;}.cls-52{fill:#ceeaf2;}.cls-53{fill:#cbe8f0;}.cls-54{fill:#bae2ed;}.cls-55{fill:#b2e0eb;}.cls-56{fill:#b3e0eb;}.cls-57{fill:#c3e5f0;}.cls-58{fill:#d9d197;}.cls-59{fill:#cbdad9;}.cls-60{fill:#c2e5ef;}.cls-61{fill:#bae3ee;}.cls-62{fill:#addeea;}.cls-63{fill:#f5c63f;}.cls-64{fill:#c6d5bb;}</style></defs><title>overallSkirt</title><g id="Layer_2" data-name="Layer 2"><g id="Layer_1-2" data-name="Layer 1"><path class="cls-1" d="M38.31,42.39l.15,1.89c.36.59.13,1.25.2,1.88-.1.78,0,1.64-.92,2.09a.81.81,0,0,1-.65-.46C36.08,45,36,42,35.91,39.06c-.16-4-.73-7.94-.56-11.92,0-6.43.08-12.86.47-19.28a6.85,6.85,0,0,1,.85-3.43,1.16,1.16,0,0,1,1.14-.53c.92.68.83,1.69.77,2.63C38.1,14.81,38.1,23.11,38,31.4,38,35.06,38.61,38.72,38.31,42.39Z"/><path class="cls-2" d="M4.81,50c7,.3,7.36-.24,5-6.68-.54-1.47-1.05-3-1.57-4.45a.41.41,0,0,0-.1-.37,14.88,14.88,0,0,1-1.89-4c-.81-3.15-1-6.45-2.36-9.47A2.6,2.6,0,0,1,4,23c.13-.2.49-.41.52-.35.38,1,.69.14,1,0C7,23.73,6.64,25.55,7.2,27c1,5.83,3.17,11.36,4.74,17,.42,1.54.9,3.06,1.19,4.63a26.15,26.15,0,0,0,.7,3.13c.14.92.61,1.76.74,2.69-.27.74-.87.78-1.51.73a2,2,0,0,1-1.24-.77,3.18,3.18,0,0,1-.36-1c-.08-1.27-.64-1.92-2-1.61a16.56,16.56,0,0,0-2.32.52,4.7,4.7,0,0,1-1.81.31C3.89,52.06,4.31,51.05,4.81,50Z"/><path class="cls-3" d="M8.27,7.79a8.25,8.25,0,0,0,.46,3.75c.17.5.41,1.19-.11,1.43-.75.36-.91-.54-1.28-1A15.72,15.72,0,0,1,5.88,6.15C5.69,4.78,5.14,4,3.75,4a2.54,2.54,0,0,1,2.54-2.9c1.33,1.39.88,3.43,1.83,5Z"/><path class="cls-4" d="M8.1,93.78c-1.58-1.3-.76-3.24-1.29-4.83-.26-.79.13-1.75-.52-2.48q0-12.42-.1-24.84l.1-.13c1.5.47,1.08,1.77,1.1,2.78.07,4.43,0,8.85,0,13.28a9.23,9.23,0,0,0,.23,2.82,35.69,35.69,0,0,0,1,6.08,17.79,17.79,0,0,1,.24,2.82c.07,1.32.64,2.62.17,4C8.84,93.62,8.61,93.94,8.1,93.78Z"/><path class="cls-5" d="M51.34,93.24c.1.92-.39.69-.88.46-1.24.11-2.23,1-3.49,1-1.07.12-2.22-.13-3.15.64a17.33,17.33,0,0,1-2.65.55c-.22.07-.44.12-.67.17a16.77,16.77,0,0,0-3.06.4,6.23,6.23,0,0,1-1.06.07,1.87,1.87,0,0,1-1.32-.34c.19-.77-.21-2.2.43-2.22,1.82,0,2.21-2.62,4.37-2a4.16,4.16,0,0,0,4.77-1.3,1.7,1.7,0,0,1,1.75-.55c.07,0,.18.94.38.07.3-1.31.89-1.5,1.6-.29.4.69.37-.11.57-.1C50.85,90.18,50.68,92,51.34,93.24Z"/><path class="cls-6" d="M51.34,93.24,49,89.82c-1-1.07-.8-2.56-1.39-3.77-.23-1.08-.43-2.16-.64-3.25a8.36,8.36,0,0,0-.37-2.15c-.22-1.22-.79-2.4-.4-3.69.48-.84,1-.69,1.28.08a14.64,14.64,0,0,1,1,3.25c1.78,2.42,1.53,5.44,2.38,8.15C50.79,90.06,51.67,91.6,51.34,93.24Z"/><path class="cls-7" d="M47.12,94.21c1.13,0,2.08-1.26,3.34-.51A9.6,9.6,0,0,1,45.09,96c-.89-.47-1.69.19-2.54.2a2,2,0,0,1-1.75-.63c.87-.78,2-.3,2.92-.49C44.74,94.37,46,94.74,47.12,94.21Z"/><path class="cls-8" d="M40.44,96.65l-1.54.46-.24,0-.23,0-3.36,0c-2.07-.19-4.16-.19-6.24-.3-.52,0-1.55.49-1.37-.83a10,10,0,0,1,7.63.08l1.41.07C37.75,96.75,39.27,95.41,40.44,96.65Z"/><path class="cls-8" d="M43.69,96.55l-2.38,0c-.14-1.24,1.14-.33,1.42-.93.79.09,1.66-.31,2.36.38Z"/><path class="cls-9" d="M38.89,48.17c.77,0,1.76-.41,2,.85.9,1.15.64,2.7,1.35,3.91a4.11,4.11,0,0,1,.07.47c0,2.94,1.64,3.87,4.33,3.42-3.56,1.5-3.56,1.5-2.84,5.51.27,1.49.57,3,.86,4.46.18.88.65,1.8-.3,2.56-2.11-1.18-1.45-3.48-2.14-5.23a12.13,12.13,0,0,0-.9-4A37,37,0,0,1,39.93,54c-.4-1.34.16-2.89-.86-4.11C38.77,49.33,38.41,48.79,38.89,48.17Z"/><path class="cls-10" d="M44.2,69.23c.8-.69.32-1.63.48-2.44,1.39,4.2,2.78,8.4,4.13,12.61.08.24-.18.59-.29.88-1-.94-.7-2.48-1.63-3.45,0,0-.15,0-.21,0s-.11.1-.17.16C44.41,74.81,43.94,72.13,44.2,69.23Z"/><path class="cls-11" d="M11.53,22.2q1.44,5.52,2.89,11c-.52.38.11,1.27-.68,1.54-.79-.27-1-1-1.16-1.67-.63-2.69-1.81-5.21-2.51-7.89-.28-1.21-.54-2.43-.9-3.63a7.24,7.24,0,0,1-.18-2c.18-.73-.09-1.78,1.18-1.79C11,19.16,10.91,20.8,11.53,22.2Z"/><path class="cls-12" d="M10.17,17.83c-.77.51-.47,1.33-.58,2C8,18.37,7,13.7,7.74,11.63l.78,1,.21-1.12A23.85,23.85,0,0,1,10.17,17.83Z"/><path class="cls-13" d="M31.23,1.6c2.14.43,4.33.7,6.25,1.88a1,1,0,0,1,.08.34l-.76.7c-1.35.29-2.57-1.29-4-.24,0,3.77,0,7.52.06,11.27-.27,5.12.35,10.22.25,15.34-.56,2-.19,3.94-.3,5.92-.05.78.14,1.72-.45,2.28-.94.88-.85-.1-.93-.66.27-7.36-.83-14.69-.48-22a1.52,1.52,0,0,0-.23-.9l0-2.88a5.16,5.16,0,0,0,0-3.36l0-2.88C31.44,4.82,30.55,3.13,31.23,1.6Z"/><path class="cls-14" d="M30.76,15.48c.51.41.44,1,.46,1.54q.24,10.74.49,21.48c-.15.24-.29.23-.44,0C31.36,30.82,30.33,23.17,30.76,15.48Z"/><path class="cls-15" d="M31.27,38.5h.44c0,.08,0,.18.06.23a1.15,1.15,0,0,0,.29.2c0-1.56,0-3.12.14-4.68.08-1.15-.36-2.38.42-3.45a1.69,1.69,0,0,1,.62,1.09,17.32,17.32,0,0,1,.1,3c-.08,2.72.15,5.44-.15,8.15-.28.79-.31,1.7-1.06,2.27-1-1.32.1-3.07-.89-4.4Z"/><path class="cls-14" d="M31.14,0c0,.35.07.7.11,1.05,0,.18,0,.36,0,.55-.22,1.58.48,3.25-.49,4.76C30.92,4.24,30.36,2.08,31.14,0Z"/><path class="cls-14" d="M30.77,9.24a2.87,2.87,0,0,1,0,3.36Z"/><path class="cls-16" d="M32.72,31.77c0-.32-.07-.65-.1-1-.18-5.08-.58-10.16-.39-15.25A102.38,102.38,0,0,0,32.31,3c1.56.31,3.2.38,4.5,1.48C36.17,12,36.09,19.51,36,27c-.38.49-.12,1.09-.28,1.61s-.35.76-.8.76a.7.7,0,0,1-.68-.82c.13-2.72-.8-5.39-.45-7.14-.25,2.1.7,5.2,0,8.28C33.66,30.48,34,31.55,32.72,31.77Z"/><path class="cls-17" d="M32.72,31.77c1.16-3.91.86-8,1.17-12-.48,3.15,1.27,6.06.88,9.22,1.24-.18.39-1.62,1.23-2,.45,7,.56,14.11,1.57,21.11a6.62,6.62,0,0,1-4.1.92c-1.06-1.56-.81-3.32-.73-5,.09-3.1.83-6.2,0-9.3Z"/><path class="cls-18" d="M33.7,49c1.1-1.12,2.49-1,3.87-.89l.35,0a1.48,1.48,0,0,1,.43.62A2.59,2.59,0,0,1,38.13,51a.93.93,0,0,1-1,.18c-.84-1.41-1.62-1.24-2.36.1a1.18,1.18,0,0,1-1.39-.37A1.44,1.44,0,0,1,33.7,49Z"/><path class="cls-19" d="M38,48.57c0-.14,0-.27,0-.41.11-.67-.22-1.46.51-2l.52,1v.49c-.45.14-.38.33,0,.53.16.45.32.9.49,1.35.06,1.34,1,2.68,0,4a1.33,1.33,0,0,1-1.48,0C37.23,51.86,38.89,50.22,38,48.57Z"/><path class="cls-20" d="M12.05,54.31l.92.54a7.24,7.24,0,0,0,3.72.1c1.71-.3,3.54-.79,3.06-3.31a1.28,1.28,0,0,1,.87-1.52c3.47,0,6.93-.41,10.38.11a.68.68,0,0,1,.33.73c-1,1-2.35.58-3.56.7-1.92,0-3.85-.1-5.93,0,.67,1.27,1.57.54,2.27.7,1.13.25,1.89.5.89,1.83a7.31,7.31,0,0,0-1.39,5.16c.31,2.51-.77,2.94-2.75,2.9-1.68.21-1.38,1.38-1.28,2.51.36,4.33.72,8.67.81,13a4.31,4.31,0,0,1-.58,3c-1.33.08-1.21-1.08-1.4-1.81a67.79,67.79,0,0,1-1.85-14.24c0,2.16,0,4.74,0,7.31a15.21,15.21,0,0,0,.75,5.64,4.37,4.37,0,0,1-.13,3.06c-1.28,1.59,0,3.78-1.24,5.39-2.12.22-2.65-1.22-2.61-2.83.09-3.67-.51-7.29-.61-10.94-.07-2.37.4-5-2-6.78a.57.57,0,0,1-.2-.64c1.17-2.53-.64-5-.19-7.49C10.59,56.15,10.5,54.81,12.05,54.31Z"/><path class="cls-21" d="M12.05,54.31c-1.64,2-1.36,4.56-.74,6.6.51,1.69,1,2.89-1,4.43,2.22-.16,2.58.66,2.69,2.21.4,5.37,1,10.73.88,16.12,0,1.45.91,1.89,1.94,2.37a1.43,1.43,0,0,1,.44.67,1.93,1.93,0,0,1-.45,1.89c-.22.1-.5.28-.66.17-2.13-1.44-4.74-1.34-7-2.25-1.1-1.81-.89-3.84-1-5.82-.57-5.07.28-10.13.07-15.2a45,45,0,0,0-.34-5.92,8.45,8.45,0,0,1-.13-2.35c.18-.75-.28-1.77,1-2.11.3-.08.83,1.53.89-.13s1.5-1.91,2.53-2.51c.6-.34.55.52.77.87Z"/><path class="cls-22" d="M10.57,25.08q1.66,4.83,3.34,9.65a3.53,3.53,0,0,1,.89,2.86c-.83,2.95-.43,5.92-.13,8.89A4.06,4.06,0,0,1,12.61,49c-1.53-5.74-3.2-11.45-5.06-17.09A14,14,0,0,1,6.72,27a2,2,0,0,1-.06-1.82c.16-.41.59-.46,1-.4s.68.29.65.59c-.21,1.87,1.36,3.23,1.28,4.24C9.4,28.55,8.52,26.58,10.57,25.08Z"/><path class="cls-23" d="M10.57,25.08c-.39,1.85-2,3.82.84,5.42a5.13,5.13,0,0,1-2.78.79,2.53,2.53,0,0,0,.09-2.51c-.3-.56.45-2.14-1.27-1.24-.06-.28-.11-.57-.17-.86-.12-.55,1.39-1.13.29-1.4s-.64,1.1-.85,1.76c-.83-1.36-.46-3.1-1.38-4.43a1,1,0,0,1-.24-1.23c1-.3,1.08-1.47,2-2.26.43,1.32,2.15,1.33,2.32,2.82a.36.36,0,0,0,0,.11.77.77,0,0,1,.26-.39A9.11,9.11,0,0,1,10.57,25.08Z"/><path class="cls-24" d="M20.22,50.55c-.55,1.23,1.43,2.67-.17,3.72-2.2,1.46-4.57,2.2-7.08.58.53,0,1.12.08,1.46-.52.41-1,1.36-1.23,2.3-1.43.68-.14,1.45-.06,1.91-.76.1-.18.22-.36.32-.54C19.32,51.18,19.29,50.29,20.22,50.55Z"/><path class="cls-20" d="M11.92,53.35c-1.46-.3-2.26.48-2.79,1.69-.27.63-.11,1.81-1.39.58-.5-.48.13,1-.55,1.14s-.73-.35-.79-.83a1.32,1.32,0,0,1,.32-.62l.12-.48a2.7,2.7,0,0,0,.79-1.22c.24-.67-.15-1.17-.45-1.69.75-.71,1.79-.47,2.68-.75C11.77,50.56,11.87,52,11.92,53.35Z"/><path class="cls-25" d="M12.61,49a3.36,3.36,0,0,1,1.81-2.35c-.21-.55.14-.73.55-.63.82.2.64.92.68,1.51s-.2,1.06-.33,1.58a12.16,12.16,0,0,1-1,1.95,2,2,0,0,1-.84.92A6.35,6.35,0,0,1,12.61,49Z"/><path class="cls-26" d="M5.31,21.24l0,1.37c-.06.37-.13.74-.19,1.1-.27-.34-.53-.69-.79-1L2.89,16.92c.3-.32.06-1,.77-1.06A6.76,6.76,0,0,1,5.31,21.24Z"/><path class="cls-27" d="M13.44,52A1,1,0,0,1,14,51c.92.57,1.61,1.7,3,1.28.87-.05.78-1.07,1.39-1.38.75.06.84.59.84,1.18,0,1.06-.71,1.36-1.6,1.3a6.32,6.32,0,0,0-3.14,1C13.33,53.89,13.48,52.9,13.44,52Z"/><path class="cls-28" d="M7.18,51.92c1.86-.13,1.15,1,1,1.95a.94.94,0,0,1-1.37,0l-1-1.44C6.12,51.87,6.65,51.9,7.18,51.92Z"/><path class="cls-29" d="M14.4,37.57c-.16-1-.33-1.89-.49-2.84.07-.53-.06-1.13.51-1.49l3.09,10.57c.43,1.09.85,2.18,1.27,3.27.23.43.29.88-.21,1.13-.67.34-1.11-.18-1.58-.54a4.13,4.13,0,0,1-1-1.61C15.54,43.21,14.19,40.53,14.4,37.57Z"/><path class="cls-30" d="M17.22,47.19c.52,0,1.17,1.78,1.56-.11l.45.55c.17.63.33,1.25.5,1.87a7.79,7.79,0,0,1-.49,2.43l-.07.14c-.28-.38-.57-.76-.86-1.13-.64-.41-.77-1.13-1.09-1.74S16.69,47.86,17.22,47.19Z"/><path class="cls-31" d="M0,6.84c1.14-.42,1.55-2,3-1.89-1.31,2.57.19,5.18-.09,7.77-.24.61-.45,1.29-1.35.83A38.5,38.5,0,0,1,0,6.84Z"/><path class="cls-26" d="M1.58,13.55c.61,0,.84-.42.85-1,1.24.19,1.16,1.16,1.24,2-.22.75-.84.44-1.32.49C2,14.65,1.31,14.33,1.58,13.55Z"/><path class="cls-31" d="M2.35,15.11c.25-.61.62-.25,1-.11a.58.58,0,0,1,.15.82,1.33,1.33,0,0,1-.57,1.1A2.38,2.38,0,0,1,2.35,15.11Z"/><path class="cls-32" d="M8.1,93.78l.6-.61a4,4,0,0,1,2.22.17c1.84.35,3.7.54,5.53.94.87.19,1.91.12,2.4,1.16-.67.88-1.61.19-2.29.43,1.61,0,3.33,0,5,.14.77,0,1.81-.19,1.94,1.09-4.74.1-9.48.19-13.92-1.92l-1-.49Z"/><path class="cls-33" d="M23.54,97.1c-2.33-.79-4.77-.71-7.18-.91-.5,0-.93.09-1.11-.59h3.52c1-.85,2.08-.59,3.18-.46a11.65,11.65,0,0,0,3.58.33c.69.06,1.4.07,1.84.74,1.63.81,3.38.18,5.06.39.89.11,1.89-.35,2.64.49l-1.32,0a4.25,4.25,0,0,1-2.64,0Z"/><path class="cls-34" d="M31.11,97.12h2.64A2.53,2.53,0,0,1,31.11,97.12Z"/><path class="cls-35" d="M19.24,51.93a3.82,3.82,0,0,1,.49-2.43c3-.22,6.09.47,9.09-.39,1.53-.23,3.15-.34,3.34-2.42l0-1.41c.19-.63-.18-1.4.47-1.92.31,0,.48.19.43.52.22,1.71.45,3.42.67,5.13,0,.66,0,1.32.07,2a1,1,0,0,1,.07.69.81.81,0,0,1-.84.47c-.91-.19-.47-1.87-1.78-1.63l-11,0C19.5,50.73,19.88,51.7,19.24,51.93Z"/><path class="cls-36" d="M32.16,46.69c.67,3.28-1.85,2.13-3.34,2.42A6.46,6.46,0,0,0,32.16,46.69Z"/><path class="cls-37" d="M3.46,15.82,3.31,15a5.08,5.08,0,0,0-.88-2.43A7.28,7.28,0,0,0,2,9.37,3.84,3.84,0,0,1,3,5a1,1,0,0,0,.85-1C5.33,3,6.15,2.88,6.35,5.14a18.51,18.51,0,0,0,1.39,6.49,41.52,41.52,0,0,0,1.85,8.23l.06,1.81c-.09.35-.19.7-.29,1.06.48-2-2.88-.92-2.16-3-1,.3.45,3.08-1.89,1.52Z"/><path class="cls-38" d="M7.26,59.08c1.05,4.41.53,8.87.27,13.28-.17,2.78-.07,5.57-.36,8.34-.69-.65-.4-1.49-.41-2.24,0-4.83,0-9.65,0-14.47,0-.84.24-1.75-.43-2.49l0-.94C6.82,60.19,6.65,59.39,7.26,59.08Z"/><path class="cls-39" d="M7.26,59.08c-.09.64.09,1.45-.94,1.48,0-1.26-.06-2.52-.1-3.77.17-.33.34-.66.5-1,.16.32.32.64.47,1C7.22,57.54,7.24,58.31,7.26,59.08Z"/><path class="cls-21" d="M6.8,53.87H8.17c0,.93-.64,1-1.33,1C6.83,54.51,6.81,54.19,6.8,53.87Z"/><path class="cls-40" d="M8.16,86.52c2.88-.64,5.28.68,7.7,1.92a.84.84,0,0,1,.17.93c-1.13.94-2.67,1.41-3,3.19-.15.76-1.06.44-1.68.28A2.11,2.11,0,0,1,10,91.07c-.21-.9-.63-1.61-1.67-1.71Z"/><path class="cls-41" d="M8.32,89.36c1.68-1.55,1.72.44,2.17,1.12s-.18,1.68,1,1.8c.48,1,.61,1.83-1,1.48a2.67,2.67,0,0,1-1.86-.59C8.57,91.9,8.45,90.63,8.32,89.36Z"/><path class="cls-42" d="M27.37,96.21,25.47,96c-.49-.66,0-1,.48-1.28,1.33-.62,2.17-1.81,3.26-2.69a3.53,3.53,0,0,1,1-.37,22.53,22.53,0,0,1,7.43-2c1.1-.07,1.73-1,2.64-1.47.75-.21,1.76.27,2.1-1,.29-1.07.94-.74,1.6-.2,1.76,1.45,2.75,1.22,3.74-.78a.76.76,0,0,1,.37-.28A6.87,6.87,0,0,1,49,89.82c-.06.86-.07,1.75-1,2.26-.69-.76.61-1.71-.39-2.45-1,.43-.18,1.57-.77,2.22-.37-.65-.74-2.18-1.59-.93-1.77,2.61-4.06,1.83-6.36,1.58-1-.11-1.52-.1-.45.92.65.61-.15.72-.56.75-.71,0-1.43,0-2.17,0-.09.84,1.34.33,1,1-.23.43-1,.55-1.58.82Z"/><path class="cls-33" d="M42.73,95.65l-1.42.93-.87.07c-1.29-.32-2.73.45-3.94-.53l.91,0c1.08-.55,2.34.19,3.41-.44l0,0Z"/><path class="cls-43" d="M47.12,94.21a4.7,4.7,0,0,1-3.4.9C44.48,93.41,46,94.49,47.12,94.21Z"/><path class="cls-8" d="M40.82,95.64c-1,.91-2.27.32-3.41.44C38.47,95.32,39.68,95.73,40.82,95.64Z"/><path class="cls-44" d="M48.07,85.94a5.6,5.6,0,0,1-1.5,2.86c-.71.82-1.11.14-1.63,0-1-.24-1.28-1.23-1.94-2.2.16,2.64-.91,2.84-2.66,1.83-1.85.6-3.45-.58-5.21-.72-.45,0-.94-.55-1.33-.38-2.29,1-3.38-.57-4.56-2a8.63,8.63,0,0,1-1.71-.45,1.17,1.17,0,0,1-.48-.55,2,2,0,0,1,.23-1.83c1.49-1.2,2.82-.81,4.09.37C32,83.85,33,84,34,84.44c1.17.78,2.48.26,4,.57a5.76,5.76,0,0,1-.12-4.7c.85-2.39.3-4.89.41-7.35.07-1.66-.15-3.33,1.37-4.6a1.64,1.64,0,0,0,.1-2.2c-.17-.27-.48-.49-.55-.77-.95-3.61-1.52-7.35-4-10.36-.22-.26,0-.77.22-1.13a2.37,2.37,0,0,1,2.6-.52l1.35-.07c.49,0,.79.31,1.16.53.44,2.09.89,4.18,1.33,6.26a8.65,8.65,0,0,0,1,3.86c.73,1.69.54,3.63,1.44,5.27A48.84,48.84,0,0,0,46.51,77l.57,3.75a14.09,14.09,0,0,0,.41,1.93C47.7,83.77,48.26,84.79,48.07,85.94Z"/><path class="cls-45" d="M47.49,82.68c-.43-.58-.87-1.16-.41-1.93C47.74,81.28,47.53,82,47.49,82.68Z"/><path class="cls-46" d="M40.46,53.84a1.1,1.1,0,0,1-1.16-.53c.33-1.26-.92-2.55.08-3.79C41.06,50.63,40.09,52.4,40.46,53.84Z"/><path class="cls-47" d="M42.76,64c-1.36-.37-.8-2.08-2.08-2.81-.85-.48.83-.54,1.11-1A5.87,5.87,0,0,1,42.76,64Z"/><path class="cls-14" d="M32.31,3a43.7,43.7,0,0,1-.08,12.51C32,11.48,32.44,7.39,32,3.31,32,3.24,32.19,3.13,32.31,3Z"/><path class="cls-48" d="M33,43.88c-.14-.17-.28-.35-.43-.52,0-2.89.07-5.78.11-8.67,1.56.42,1,1.75.85,2.58-.29,2-.67,3.89-.05,5.86C33.56,43.31,33.2,43.63,33,43.88Z"/><path class="cls-17" d="M35.44,25.07c-1.15-1.15-.71-1.8,0-2.79Z"/><path class="cls-49" d="M38,53.38a4.52,4.52,0,0,1-2.41.59,2.08,2.08,0,0,1-1.69.36,1.7,1.7,0,0,1-.9-.51c-.39-.61-.72-1.22,0-1.8l.67-.6c1.5.7,3,1.66,4.25-.43,0-.81,0-1.61,0-2.42A5.63,5.63,0,0,1,38,53.38Z"/><path class="cls-50" d="M37.92,51c.08,1.11-.27,1.78-1.52,1.93s-2.32-.08-2.73-1.5a2,2,0,0,1,.1-.42l1.31,0,.28,0a1.58,1.58,0,0,0,1.31,0l.26-.07Z"/><path class="cls-51" d="M35.08,51c.13-.65-1.21-1.74.53-1.92,1.51-.16,1.31,1,1.32,1.88h0a1.28,1.28,0,0,1-1.85,0Z"/><path class="cls-52" d="M33.07,53.4l.55.54a3.19,3.19,0,0,1,.71,2.22c.28,4.74.15,9.53,1.31,14.2A4,4,0,0,1,35,73.55c-.71,1.09-.71,2.09.52,2.85a2.79,2.79,0,0,1,1.15,2.94A27.65,27.65,0,0,1,35.47,84c-.24.93-.95,1.22-1.85.64-1-.13-2.49.53-2.4-1.44-.82-1.39-.59-2.39.91-2.91.46.16.26-.38.29-.06,0,.11-.07.13-.22,0-2.09-1-2.4-3.15-3-5s-.93-3.94-2-5.74c-.49,2.39-1,4.73.16,7a6.4,6.4,0,0,1,.09,6.15v1.91a3.82,3.82,0,0,1,.05,1.9c-.26,1-1,1.51-1.65.6-1.17-1.72-2.77-1.9-4.57-1.9a1.91,1.91,0,0,1-1.94-1.14c-.28-1.16-.46-2.3.43-3.29a102.25,102.25,0,0,0-1-16.6c-.38-2.4.39-2.91,2.46-2.6,2.45,1.9,3.27,1.92,6,.15,1-.63,1.2-.47,2.11,1.82A17.89,17.89,0,0,0,29.84,61c.63-2.39,0-3.52-2.41-4.37-2-.71-2.3-1.46-1.16-3.29.46-.75.43-1.72,1.12-2.33L31.22,51c-.08,1.47-1.51.63-2.2,1.33C30.68,51.81,31.72,53.14,33.07,53.4Z"/><path class="cls-53" d="M27.39,51c-.17,1.08.41,2.26-1,3.13-.83.5,0,2.09.7,1.83,2.32-.84,2.26,2.23,4,2.18,0,0,.3,1,.1,1.32-1.16,1.7-.71,3.86-1.72,5.81-1-1-.68-2.47-1.39-3.45-2,2.62-5.62,2.46-6.88-.29,1.44.12,2.1.15,1.85-2s-.08-4.71,2.17-6.46a3.76,3.76,0,0,0-3.67.56c-.91-2.54.29-3,2.31-2.73C25,51.1,26.19,51,27.39,51Z"/><path class="cls-54" d="M19.7,84.12c.27.15.52.4.8.43,2.28.26,5.16-1,5.77,2.89,1.06-1,.17-2.23,1.11-2.85v0a9.51,9.51,0,0,1,.83,5.57,2,2,0,0,0,1.09,2.1c-.52,2-2.74,2.32-3.84,3.75-1.16,0-2.35.3-3.44-.35.81-.75,1.95-1.29,1.65-2.71.76-.32,1.32-.19,1.08-1.71-.63-4-2.94-4.49-6.18-4.12a3.17,3.17,0,0,1-2.71-.62V86c0-1.25,0-2.49,0-3.73,0-.72,0-1.44,1-1.55a1.24,1.24,0,0,1,.52,1C17.24,83.5,18.34,83.93,19.7,84.12Z"/><path class="cls-55" d="M19.7,84.12c-2.87,1-2.88.95-2.88-3.36-1.27-5.51-.92-11.11-.94-16.69a2.76,2.76,0,0,1,.86-2.7c1.14,6.72.62,13.31,3,19.39Z"/><path class="cls-53" d="M33.07,53.4c-.88,0-1.69,1-2.57-.52s-1.23,1-2.19.76c0-1.55,0-1.55,2.91-2.66v-.46c1.72-.84,1.24.94,1.78,1.5C33,52.48,33.05,52.94,33.07,53.4Z"/><path class="cls-56" d="M15.87,86.52c2.22,0,4.44,0,6.66,0,1.37,0,2,.3,2,1.83a5.27,5.27,0,0,0,2.75,4.9H23.55A2.78,2.78,0,0,1,22.47,92c-.62-.91-1.24-.93-2.15-.27-2.07,1.49-4.13.36-4.46-2.37v-1C15.86,87.8,15.86,87.16,15.87,86.52Z"/><path class="cls-57" d="M14.4,37.57c.73,2.86,2,5.59,2,8.63-.05.69.21,1.43-.25,2.07-.18.25-.42.52-.75.19s-.16-.56,0-.83c-.6,0,.47-1.75-1-1A14.74,14.74,0,0,1,14.4,37.57Z"/><path class="cls-58" d="M17.33,52.92c-1.61.21-3,.13-3.35-1.93-.05-.81.65-1.27.91-1.94a1,1,0,0,1,1-.1.94.94,0,0,1,.18,1,2.76,2.76,0,0,0-.27.81c.49-.1.26-.72.65-.89a1.14,1.14,0,0,1,1,.1C18.2,51,18.43,52,17.33,52.92Z"/><path class="cls-22" d="M15.86,49.08l-1,0c0-.52-.06-1.08.49-1.42,0,.15,0,.35.12.42.26.2.33,0,.35-.23.06-.57-.12-1.22.5-1.62l.87,1c.18.63.36,1.26.55,1.9a1.55,1.55,0,0,1-.6.37A1.39,1.39,0,0,1,15.86,49.08Z"/><path class="cls-59" d="M17.29,49.1h.48a3,3,0,0,1,.54,1.85c-.16.74.31,1.8-1,2a2.58,2.58,0,0,0,0-2.89A.64.64,0,0,1,17.29,49.1Z"/><path class="cls-60" d="M15.86,89.39c.31,1.21,1.76,1.42,2.21,2.59.18.46,1,.37,1.44-.06,2.53-2.25,2.9-2.12,4,1.31,1.41,2-.17,2.16-1.52,2.45l-3.26-.08c-2.61-1.17-5.58-.77-8.21-1.84.94-.08,1-.74,1-1.48.37-.06,1,1,1.11-.19C12.89,90.18,14.2,89.59,15.86,89.39Z"/><path class="cls-61" d="M29.3,84.6a1.27,1.27,0,0,1,1.21,1c.47,1.27,1,1.37,2.5,1.16,1.9-.27,4,.81,6,1.32.45.11.89.24,1.34.37-1.16,2.82-4.1,2-6.09,2.42-1.51.28-2.39,1.89-4,1.42C29.47,89.78,28.42,87.31,29.3,84.6Z"/><path class="cls-62" d="M29.3,84.6c.12,2.58,1.39,5,1,7.68h-1c-1.65.36-2.27-.1-1.74-1.88s-.58-3.84-.18-5.79Z"/><path class="cls-53" d="M33.62,84.6c.38-.09,1.09-.15,1.1-.26.13-2.2,1.61-4.13,1.28-6.42a1.14,1.14,0,0,0-.85-1c-1.5-.61-2.28-2.79-1.12-3.57,1.48-1,1.23-2.32.93-3.37-1.49-5.28-1.05-10.69-1.34-16l1.92,0c0,.71-.15,1.52.48,2a7.4,7.4,0,0,1,2.92,7.32,2.34,2.34,0,0,0,1.19,2.16c1.17.88,1,3.14-.23,3.7-1,.45-1,1.1-1,1.89,0,2,0,4,0,6,0,1.47.14,2.9-.73,4.35-.42.7-1.12,2.47.8,3.07.6.19.35.64.06.9C38.3,86,34.41,85.42,33.62,84.6Z"/><path class="cls-53" d="M27.38,82.68c-.25-2.24.21-4.39-1.18-6.72C25.15,74.2,26,71.29,26,68.9c0-.4.41-1,.68-.83.84.46,2.07,1.16,2,2-.2,2,.75,3.75,1.27,5.45C30.6,77.59,31,80.9,35,80c-1.51,1.15-4.55-.13-3.82,3.13A3.69,3.69,0,0,0,27.38,82.68Z"/><path class="cls-18" d="M35.08,51l1.85,0C36.34,52.62,35.71,52,35.08,51Z"/><path class="cls-63" d="M16.32,50.05c.22.6.93,1.25,0,1.79A.88.88,0,0,1,15,51.46c-.27-.78,0-1.37.89-1.48A.28.28,0,0,1,16.32,50.05Z"/><path class="cls-64" d="M16.32,50.05a1.55,1.55,0,0,1-.43-.07l0-.9,1.43,0V50Z"/></g></g></svg>