<svg xmlns="http://www.w3.org/2000/svg" viewBox="0 0 50.6 139.3"><defs><style>.cls-1{fill:#ef8e74;}.cls-2{fill:#e74d3e;}.cls-3{fill:#e75043;}.cls-4{fill:#d65938;}.cls-5{fill:#e9785f;}.cls-6{fill:#e75947;}.cls-7{fill:#eb8268;}.cls-8{fill:#eb785e;}.cls-9{fill:#e4403e;}.cls-10{fill:#f18367;}.cls-11{fill:#ec6b52;}.cls-12{fill:#e76c5a;}.cls-13{fill:#d8433e;}.cls-14{fill:#ce3e3a;}.cls-15{fill:#d19082;}.cls-16{fill:#e6544b;}.cls-17{fill:#e75a45;}.cls-18{fill:#e85142;}.cls-19{fill:#e85547;}.cls-20{fill:#e97560;}.cls-21{fill:#e73d34;}.cls-22{fill:#df453b;}.cls-23{fill:#ea5d4e;}.cls-24{fill:#e8604b;}.cls-25{fill:#e47663;}.cls-26{fill:#e1b8aa;}.cls-27{fill:#e16c58;}.cls-28{fill:#e64e3e;}.cls-29{fill:#e97359;}.cls-30{fill:#e65241;}.cls-31{fill:#ea3335;}.cls-32{fill:#e84439;}.cls-33{fill:#ec8d74;}.cls-34{fill:#ee947a;}.cls-35{fill:#f3a187;}.cls-36{fill:#ec6c54;}.cls-37{fill:#eb4f41;}.cls-38{fill:#ef785f;}.cls-39{fill:#f08c71;}.cls-40{fill:#cc5a4e;}.cls-41{fill:#f1624a;}.cls-42{fill:#ea8267;}.cls-43{fill:#dc503d;}.cls-44{fill:#eb5f48;}.cls-45{fill:#ea7258;}.cls-46{fill:#ed7056;}.cls-47{fill:#ed7257;}.cls-48{fill:#ec7f64;}.cls-49{fill:#eb755c;}.cls-50{fill:#f08b70;}.cls-51{fill:#ee6c4b;}.cls-52{fill:#e5644b;}.cls-53{fill:#ee8167;}.cls-54{fill:#d4624d;}.cls-55{fill:#f09075;}.cls-56{fill:#e85947;}.cls-57{fill:#e33335;}.cls-58{fill:#f2a086;}.cls-59{fill:#e7423d;}.cls-60{fill:#ed8e74;}.cls-61{fill:#e73938;}.cls-62{fill:#e94f3f;}.cls-63{fill:#f3ae96;}.cls-64{fill:#ea624d;}.cls-65{fill:#de7461;}.cls-66{fill:#ee393e;}.cls-67{fill:#f19378;}.cls-68{fill:#f4973f;}.cls-69{fill:#ec8a6c;}.cls-70{fill:#de6652;}.cls-71{fill:#fabda3;}.cls-72{fill:#f09b7f;}.cls-73{fill:#da6752;}.cls-74{fill:#e86d51;}.cls-75{fill:#de433d;}.cls-76{fill:#f09f85;}.cls-77{fill:#ef8466;}.cls-78{fill:#df3432;}.cls-79{fill:#ef483d;}.cls-80{fill:#e45c4a;}.cls-81{fill:#ee7a60;}.cls-82{fill:#d82c2b;}.cls-83{fill:#c9543d;}.cls-84{fill:#ed614c;}.cls-85{fill:#bd392c;}.cls-86{fill:#f17e5b;}.cls-87{fill:#f48a6e;}.cls-88{fill:#e74535;}.cls-89{fill:#be2c29;}.cls-90{fill:#f08d73;}.cls-91{fill:#ea7b5f;}.cls-92{fill:#f0866c;}.cls-93{fill:#f8bea9;}.cls-94{fill:#f0957a;}.cls-95{fill:#f5a990;}.cls-96{fill:#f19f83;}.cls-97{fill:#f2ab93;}.cls-98{fill:#f6b59f;}.cls-99{fill:#f2a890;}.cls-100{fill:#f7c6b4;}.cls-101{fill:#f3a892;}.cls-102{fill:#f0a891;}.cls-103{fill:#f19e86;}.cls-104{fill:#f2a993;}.cls-105{fill:#f7b59e;}.cls-106{fill:#f4a990;}.cls-107{fill:#f5b6a2;}.cls-108{fill:#e63d33;}.cls-109{fill:#f1a189;}.cls-110{fill:#f19a80;}.cls-111{fill:#f4a187;}.cls-112{fill:#eb8d72;}.cls-113{fill:#ef8b70;}.cls-114{fill:#f59b80;}.cls-115{fill:#f59579;}.cls-116{fill:#f4a12b;}.cls-117{fill:#e04b31;}.cls-118{fill:#f6ab92;}.cls-119{fill:#b45241;}.cls-120{fill:#f1b29d;}.cls-121{fill:#f4b19b;}.cls-122{fill:#ed8369;}.cls-123{fill:#f2aa93;}.cls-124{fill:#f6b49d;}.cls-125{fill:#de8b76;}.cls-126{fill:#f8bfae;}.cls-127{fill:#f2ac97;}.cls-128{fill:#b03f30;}.cls-129{fill:#f3ac3d;}.cls-130{fill:#d2634b;}.cls-131{fill:#f3a390;}.cls-132{fill:#e07662;}.cls-133{fill:#f4a41f;}.cls-134{fill:#f5926c;}.cls-135{fill:#f29981;}.cls-136{fill:#e44d42;}.cls-137{fill:#f19b82;}.cls-138{fill:#e75b48;}.cls-139{fill:#ed6b50;}.cls-140{fill:#f2967c;}.cls-141{fill:#f5a98f;}.cls-142{fill:#f08a70;}.cls-143{fill:#f29b80;}.cls-144{fill:#ba4838;}.cls-145{fill:#e7684a;}.cls-146{fill:#ee8c70;}.cls-147{fill:#ed7860;}.cls-148{fill:#e96a4f;}.cls-149{fill:#f39a80;}.cls-150{fill:#f1977e;}.cls-151{fill:#f69d83;}.cls-152{fill:#eb8166;}.cls-153{fill:#f9c7b4;}.cls-154{fill:#f6b49e;}.cls-155{fill:#f6b19a;}.cls-156{fill:#eea189;}.cls-157{fill:#ee9a81;}.cls-158{fill:#f7bea9;}.cls-159{fill:#f6ac93;}.cls-160{fill:#fac9b6;}.cls-161{fill:#ef9b82;}.cls-162{fill:#f2a891;}.cls-163{fill:#f0a790;}.cls-164{fill:#e5a08b;}.cls-165{fill:#f5b8a2;}.cls-166{fill:#d8826c;}.cls-167{fill:#fad8ca;}.cls-168{fill:#f6c8b7;}.cls-169{fill:#f7cebf;}.cls-170{fill:#f5baa5;}.cls-171{fill:#f2a287;}.cls-172{fill:#f3b099;}.cls-173{fill:#ea7e65;}.cls-174{fill:#b54636;}.cls-175{fill:#e16e4f;}.cls-176{fill:#c55945;}.cls-177{fill:#f49f85;}.cls-178{fill:#ef8469;}.cls-179{fill:#e98c72;}.cls-180{fill:#dd8871;}.cls-181{fill:#f4b792;}.cls-182{fill:#f0967d;}.cls-183{fill:#fac1ab;}.cls-184{fill:#ef9d83;}.cls-185{fill:#f0ad96;}.cls-186{fill:#c75141;}.cls-187{fill:#f29176;}.cls-188{fill:#ec7961;}.cls-189{fill:#f08368;}.cls-190{fill:#f0c3af;}.cls-191{fill:#f8b497;}.cls-192{fill:#f38065;}.cls-193{fill:#df705e;}.cls-194{fill:#f38d73;}.cls-195{fill:#ea7b62;}.cls-196{fill:#f6a98f;}.cls-197{fill:#f7ac94;}.cls-198{fill:#e97d65;}.cls-199{fill:#f3a086;}.cls-200{fill:#f6a087;}.cls-201{fill:#ea775c;}.cls-202{fill:#f9baa1;}.cls-203{fill:#de6852;}.cls-204{fill:#f19a81;}.cls-205{fill:#f7a88f;}.cls-206{fill:#e17e66;}.cls-207{fill:#b53f30;}.cls-208{fill:#ef9c81;}.cls-209{fill:#f6a990;}.cls-210{fill:#b74634;}.cls-211{fill:#f4b39e;}.cls-212{fill:#eab4a3;}.cls-213{fill:#f1a892;}.cls-214{fill:#f09c83;}.cls-215{fill:#f9c8b6;}.cls-216{fill:#f6ccbb;}.cls-217{fill:#f4b09a;}.cls-218{fill:#ee957b;}.cls-219{fill:#f2937a;}.cls-220{fill:#f5987d;}.cls-221{fill:#f7a183;}.cls-222{fill:#e0775f;}.cls-223{fill:#e77c63;}.cls-224{fill:#e6725a;}.cls-225{fill:#e8745a;}.cls-226{fill:#e56f57;}.cls-227{fill:#e27760;}.cls-228{fill:#e07057;}.cls-229{fill:#e17c65;}.cls-230{fill:#ec7260;}.cls-231{fill:#dd6653;}.cls-232{fill:#e17860;}.cls-233{fill:#dc725d;}.cls-234{fill:#f6a38b;}.cls-235{fill:#f69d82;}.cls-236{fill:#f8c0a8;}</style></defs><title>overalls</title><g id="Layer_2" data-name="Layer 2"><g id="Layer_1-2" data-name="Layer 1"><path class="cls-1" d="M42.6,81.61c.17,1.77-.48,3.59.34,5.32a13,13,0,0,1,.76,4.41.47.47,0,0,1-.49.45,1.12,1.12,0,0,1-.56-.47c-.61-1.46-.76-3.07-1.49-4.49a3.38,3.38,0,0,1-.17-.75,23.64,23.64,0,0,1,.86-5.8c.23-.25.43-.23.6.07Z"/><path class="cls-2" d="M5.56,137.36A2.9,2.9,0,0,1,3.1,134.9a7.52,7.52,0,0,1-.4-1.7c0-.61-.16-1.51.63-1.6,1-.12.61,1.58,1.43,1.65a10.14,10.14,0,0,1-1.67-4.36c-.3-4,0-8.06,0-12.08,0-1.14-1.39-2.24,0-3.52.4-.37-1-.09-1.18-.71a4.48,4.48,0,0,1-.31-2.2A2.36,2.36,0,0,1,2.05,109c1.21-.52,1.27.19,1.33,1,.33-.67-.76-1.86.47-2.48,1.56.62.91,2.07,1.22,3.16,0,4,.59,8,.51,12,0,1.79.19,3.49,1.74,4.69.13.16.26.33.4.48a5,5,0,0,0,1.76,1.13l1.12.58c.5.29,1,.61,1,1.28a.91.91,0,0,1-.35.58,2.58,2.58,0,0,1-2.37-.14c-.93-.57-1.5-.34-1.67.76a3.89,3.89,0,0,0,1.54,3.78,6.84,6.84,0,0,0,1.54.53,7.13,7.13,0,0,1,1,.26,22.6,22.6,0,0,0,2.51.76c.53.17,1.12.38,1.05,1.09s-.67.81-1.23.87a4.31,4.31,0,0,1-1.89,0c-.57-.31-1.28,0-1.82-.45h0A22.67,22.67,0,0,1,5.56,137.36Z"/><path class="cls-3" d="M.92,42.76c.12-1.13.23-2.26.34-3.39,0-1.9.57-3.73.7-5.61q0-.34,0-.69c.35-1.85,0-3.8.87-5.57a12.66,12.66,0,0,1,.64-1.21c1-.89,1.65-.57,2.2.46-.44,2.6-1.1,5.19-.33,7.84.08,1.71-1.3,2.91-1.59,4.5-.16,1-.63,2-.27,3.08a10.72,10.72,0,0,1,0,2.94,1.82,1.82,0,0,1-.23.64,1.1,1.1,0,0,1-1.22.44C.76,45.37,1.53,43.83.92,42.76Z"/><path class="cls-4" d="M.92,42.76c1.28.79.45,2.39,1.29,3.35a1.14,1.14,0,0,1,.3.6c-.24,1.34.51,2.68.05,4-.12.5-.57.92-.35,1.53s.49,1.16-.13,1.46S1,53.48.64,52.91s0-1.08-.3-1.56C.29,50.71.25,50.07.2,49.43a.71.71,0,0,1,0-.91l.33-4.76Z"/><path class="cls-5" d="M.91,6.32a.33.33,0,0,0,.31-.15c.43-.44.67-1.16,1.49-1a3.94,3.94,0,0,0,2.42.27A1.1,1.1,0,0,1,6.19,6C6.11,7.29,6.1,7.27,4.71,7.81c-.07,0-.31.58-.63.78A3.28,3.28,0,0,1,2,8.78,13.36,13.36,0,0,0,.71,7.86C-.48,7.29,0,6.73.91,6.32Z"/><path class="cls-5" d="M2.07,11.07c.05-.17.1-.33.16-.5C3.68,11,3.14,12,3.07,13a1.08,1.08,0,0,1-.47.56l-.35-.16Z"/><path class="cls-6" d="M50.19,133.45l-.86.57a1,1,0,0,1-1,.11,1.1,1.1,0,0,1-.36-.53,1.52,1.52,0,0,1,.12-.64l.11-.19c.12-.16.11-.38,0-.36-1.14.24-2.25,1.15-3.42.07-.06-.6.41-.8.81-1,.94-.58.52-1.49.34-2.16-.23-.84-1.07-.43-1.63-.32a6.16,6.16,0,0,1-3.3,0,1.75,1.75,0,0,1-1-.92c.31-1,1.22-1,2-1.06,2.46-.08,4.16-.93,4.34-3.66.5-.09.75.1.73.62.11-.26-.07-.46-.15-.68a7.39,7.39,0,0,1,.4-5.7c1.41,1,1.2,2.71,1.38,4.06.29,2.18.76,4.34.93,6.54a2.36,2.36,0,0,0,1,2.05A9.88,9.88,0,0,0,50.19,133.45Z"/><path class="cls-7" d="M11.37,13.84a131.55,131.55,0,0,1,14.31-.94.55.55,0,0,1,0,.71A2,2,0,0,1,25,14c-2,.35-4-.1-5.94.32-1.15.53-2.17,1.42-3.59,1.27-.28,0,.1.48.09.16,0-.11.06-.11.19-.1a1.24,1.24,0,0,1,.93.6c.27.83.65,1.72-.43,2.23-.87.41-4-.75-4.36-1.55s-.2-1.56-.77-2.18A.77.77,0,0,1,11.37,13.84Z"/><path class="cls-8" d="M25.71,13.44l0-.54a3.89,3.89,0,0,1,.93-2.42c.41-.61,0,1.54.67.19a2.42,2.42,0,0,1,1.4-1.22c1.47.45,2.07,1.44,1.29,2.78-.55.94.36.76.56,1.12-.12,1.55-2.1,1.33-2.48,2.62a4.87,4.87,0,0,1-.83,1,3.38,3.38,0,0,1-2.89.27c-.39-.18-.77-.36-1.17-.51a3.09,3.09,0,0,1-1.37-.84,1,1,0,0,1,.41-1.13,1.39,1.39,0,0,1,.64-.14,13.13,13.13,0,0,0,2.26,0c.64.23.75-.24.87-.67S25.85,13.62,25.71,13.44Z"/><path class="cls-9" d="M10.31,5.31c1.28,1-1,1.14-.45,2,.4,1.4.62,2.83.91,4.26,0,.31.05.62.08.94.41.63.14,1.34.22,2,0,.23,0,.46,0,.69a.55.55,0,0,1-.53.32c-.8-.46-.72-1.35-1-2.05a4.7,4.7,0,0,1-.18-1,3.61,3.61,0,0,0-.53-2.17,4.27,4.27,0,0,1-.51-1.67A8.68,8.68,0,0,0,8,7c-.21-.88-.89-2,.09-2.59C8.8,4,9.6,4.86,10.31,5.31Z"/><path class="cls-10" d="M27.21,6.75c.09-.81.75-1.15,1.3-1.58,1.38.55,2.82-.72,4.19.12.74.59,2.11,1.07.41,2.14-.59.36-1.45-.09-1.92.65a6,6,0,0,1-2.56,1.18c-.5,0-.89-.35-.69-.69C28.5,7.58,27.51,7.33,27.21,6.75Z"/><path class="cls-11" d="M32.44,5.77c-.95-.8-1.86.19-2.82.1-.61-.06-1,0-1.11-.7,0-.46-.05-.92-.11-1.38s-1.16-.9-.27-1.51A1.33,1.33,0,0,1,30,2.42c-.22.44-.9,1.12.21,1.1a4.3,4.3,0,0,1,2.81,1,1.44,1.44,0,0,1,.51.9C33.32,6.05,32.94,6.13,32.44,5.77Z"/><path class="cls-12" d="M27.21,6.75c.6.51,1.26.24,1.92.13.37.91-1.69,1.2-.53,2.25a.31.31,0,0,1,.11.31c0,.1-.06.15-.1.15-1.05,1.84-1.14,1.88-2,.89Z"/><path class="cls-13" d="M32.91,4.82c-1.07.11-1.85-1.76-3.2-.38-.27.27-.59-.75-.72-1.26-.28-1.1.61-.6,1-.76l2.89,1a1,1,0,0,1,.35.87A1.05,1.05,0,0,1,32.91,4.82Z"/><path class="cls-14" d="M32.91,4.82V4.33c.68-.49,1.38-.17,2.07-.07a.7.7,0,0,1,.34.12c1.56,1.11.4,2.51.4,3.78a1.27,1.27,0,0,1-.44.58c-1-.14-1-1-1-1.63a2.06,2.06,0,0,0-.92-1.81Z"/><path class="cls-15" d="M35.32,8.15c-.37-1.25.73-2.51,0-3.77l1.89.45h0c.32.21.78.75.46.83-1.41.34-1.2,1.65-1.74,2.5A.45.45,0,0,1,35.32,8.15Z"/><path class="cls-16" d="M10.77,11.53a8.52,8.52,0,0,1-.91-4.26c.31.66.61,1.33.91,2Z"/><path class="cls-17" d="M35,4.26c-.68.46-1.37.18-2.07.07,0-.31,0-.62,0-.93A2.15,2.15,0,0,1,35,4.26Z"/><path class="cls-16" d="M10.88,15l0-2.49a1.93,1.93,0,0,1,.52,1.37c0,.34,0,.69-.07,1A.27.27,0,0,1,10.88,15Z"/><path class="cls-18" d="M11.31,131l0-.48a2.07,2.07,0,0,1,1.91-.4c2.33.5,4.69.22,7,.22,2.2,0,1-2.14,1.81-3a1,1,0,0,1,1-.39c1.22.54,1.62,1.88,2.83,2.64,1.62,1-.81,1.19-1.16,1.93a12.28,12.28,0,0,0,.42,4.35c.38.51.6,1-.14,1.42l-.33.07c-.72.95-1.2.37-1.68-.26a10.32,10.32,0,0,1-.31-3.54c0-1.25-.65-1.5-1.71-1.15a7,7,0,0,1-1,.18c-1.89.91-3.76.32-5.63,0a5.29,5.29,0,0,1-.69-.15C12.82,132,11.69,132.16,11.31,131Z"/><path class="cls-19" d="M40.57,135.84a3.93,3.93,0,0,0-2.4,1c-2.37,1.82-4.82,1.53-7.44.65A2.66,2.66,0,0,1,28.54,135c-.55-.55-.43-1.43-1-2h0a1.16,1.16,0,0,1-.08-1c1.26-.44,1.61.83,2.41,1.28.53.32,1,.74,1.54,1.05a3.69,3.69,0,0,0,3.45.74l.6-.16a6.67,6.67,0,0,0,1.81-.5,6.48,6.48,0,0,1,3.17-.7,2.56,2.56,0,0,1,1.19,1.13C41.76,135.72,40.92,135.5,40.57,135.84Z"/><path class="cls-20" d="M27,131.06l0-.94c1.52.21,1,1.07.6,1.9l-.09,1C27,132.47,27.22,131.71,27,131.06Z"/><path class="cls-20" d="M27.56,133a2.05,2.05,0,0,1,1,2C27.47,134.7,27.63,133.8,27.56,133Z"/><path class="cls-21" d="M40.52,72.47a35.87,35.87,0,0,1,1.11,6.67,3.09,3.09,0,0,0-.14.32,5.82,5.82,0,0,0-1.39,5.22c.22,1.17.52,2.52-.75,3.44a1.76,1.76,0,0,1-.68.07,1.16,1.16,0,0,1-.58-.33,5.75,5.75,0,0,0-1-2.72C36.06,80,34.43,75,34.74,69.6a2.59,2.59,0,0,1,.39-1.11A1.9,1.9,0,0,1,37.7,68c1.15,1.28.3,3,1.1,4.41a4.71,4.71,0,0,1,0,2.08,5,5,0,0,0,0-2.07c-.71-1.31-.29-2.8-.68-4.17a4.2,4.2,0,0,1,0-1.58c.19-.68.47-1.25,1.33-1.11C40.41,67.8,39.82,70.24,40.52,72.47Z"/><path class="cls-22" d="M40.52,72.47c-1.3-2.1-.87-4.44-.91-6.72-.58-.7-1.59-.42-2.24-1-.89-1.08-.23-2.16,0-3.24.76-1,.9-2.34,2-3.05l.31.15Z"/><path class="cls-23" d="M38.43,40.8l-.21,1a.54.54,0,0,1-.7-.08A61.79,61.79,0,0,1,34.47,33a2.42,2.42,0,0,1,.35-2.66c1.28,2.25,1.39,5,2.85,7.12C37.42,38.7,38.22,39.69,38.43,40.8Z"/><path class="cls-22" d="M38.73,43.61c1.37,1.34.62,3.31,1.44,4.82-.33,3.39.12,6.81-.46,10.2l-.17-.12c-.75-.86-.47-1.95-.62-2.94,0-3.18.14-6.37-.62-9.51A2.27,2.27,0,0,1,38.73,43.61Z"/><path class="cls-21" d="M42,79.28c0,.32,0,.64,0,1,.34,2.09-.48,4.1-.45,6.17a.76.76,0,0,1-1-.67c.2-2.17-.27-4.45,1-6.46l.14-.14Z"/><path class="cls-24" d="M10.31,5.31l-2.17-.7c-.33,1.5,1,2.66.76,4.06-1.68,0-1.74-1.82-2.85-2.45a1.14,1.14,0,0,0-1-.47c0-.88.72-1.37,1-2.08.6-.31.33-.82.28-1.29A1.5,1.5,0,0,1,7.43,1.19c1.09.05,1.25.9,1.47,1.7.27.53-.12,1.47.93,1.51Z"/><path class="cls-25" d="M8.9,2.89c-.62-.39-.72-1.3-1.53-1.5A.68.68,0,0,1,7.44.55L8,0l1.4.42c.35-.25.78-.26,1,.1s-.14.68-.47.89Z"/><path class="cls-26" d="M9.88,1.45c.24-.54.26-.95-.49-1,.42-.51,1-.69,1.31,0S10.53,1.39,9.88,1.45Z"/><path class="cls-27" d="M44.9,134.38l-2.41.4a.77.77,0,0,1,.18-1.05c1.81-.63,3.6-1.49,5.6-.73l0,.53c-.74.44-1.66-.16-2.38.39Z"/><path class="cls-28" d="M34.82,30.36c0,3.18,1.42,6,2.38,8.88a6.73,6.73,0,0,1,.52,2.53,1.25,1.25,0,0,1-.92.43,1.38,1.38,0,0,1-.93-.35,20.71,20.71,0,0,0-.74-3.39c-.19-.5-.77-.65-1-1.12a9.67,9.67,0,0,0-.72-3.09,16.07,16.07,0,0,1-.23-2.86c-1.48-2.52-1.07-5.29-1-8a1.84,1.84,0,0,1,.08-.7.79.79,0,0,1,.79-.33,1.23,1.23,0,0,1-.81-.34c-.44-.88,0-1.85-.3-2.74A19.37,19.37,0,0,1,31.81,16a2.73,2.73,0,0,1,.61-1.71c1.49-1,.88-3.09,2.19-4.18a.73.73,0,0,1,.69,0c.32,1.36-.35,2.61-.43,3.93a6.49,6.49,0,0,1-.48,2.82c-.76,2.23.12,4.57-.47,6.82a.4.4,0,0,1,0,.38c-.58,1.53.37,2.88.5,4.33.06.16.12.32.17.49A1.36,1.36,0,0,0,34.82,30.36Z"/><path class="cls-29" d="M34.87,14c-.45-1.29.61-2.6,0-3.89-.32-.64,0-1.08.44-1.5,0-.15,0-.3,0-.45a3,3,0,0,0,.42,0c.45,1.95-.29,3.8-.51,5.69A1.55,1.55,0,0,1,34.87,14Z"/><path class="cls-23" d="M33.92,23.63c.2-2.27-.65-4.62.47-6.82C34.12,19.07,34.92,21.41,33.92,23.63Z"/><path class="cls-23" d="M34.38,28.34c-.49-1.41-1.63-2.74-.5-4.33C34.06,25.45,34.6,26.85,34.38,28.34Z"/><path class="cls-30" d="M43.44,91.71c1,6.36,1.7,12.76,2.35,19.16-.91-.68-.85.77-1.49.67a.76.76,0,0,1-.58-.29c-.55-1.32-.64-2.76-1.11-4.1a4,4,0,0,1-.15-.69,16.71,16.71,0,0,0-.36-3.15c-.25-1-.65-2-.89-3,.25-1.61-1.11-3.11-.33-4.76,2.16-.41,1.57-2.26,1.89-3.63l.25-.21Z"/><path class="cls-31" d="M41.49,79.28a31.33,31.33,0,0,1-.61,6.26c-.13.45.31.68.66.87a.79.79,0,0,1,.07.4c.55,1.44.49,3.06,1.31,4.41a2.36,2.36,0,0,1,.1.46l-.07,0c-.11.11-.17.26-.27.38-.54.64.81,2-.61,2.13-1.15.14-.9-1.28-1.43-1.9A16.08,16.08,0,0,0,39,90.42a1.88,1.88,0,0,1-.32-2.56c1.82-.92.85-2.45.73-3.71C39.22,82.1,39.21,80.23,41.49,79.28Z"/><path class="cls-32" d="M42.92,91.22c-1.49-1.15-1.62-2.71-1.31-4.41A8.33,8.33,0,0,1,42.92,91.22Z"/><path class="cls-33" d="M4.59,110.42c-.16-1-.33-1.92-.49-2.88a1.86,1.86,0,0,1-.53-1c-.23-3.24,0-6.49-.16-9.74a2.72,2.72,0,0,0-.55-1.51,2.56,2.56,0,0,1-.31-1.14A99.94,99.94,0,0,0,2,82.31,4.48,4.48,0,0,1,2.31,80a1.07,1.07,0,0,1,.52-.53c1.36-.09,2.37.19,2,1.91-.11.09-.29.17-.33.29s.15.17.35.13a1.08,1.08,0,0,1,.77.28.92.92,0,0,1,.06.59c-.43.64-1.08,1.19-.92,2.09-.38.42,0,.77.11,1.15a3.84,3.84,0,0,0,.21,1.06l.27.48a7.91,7.91,0,0,0,.62.93,1.52,1.52,0,0,1,.31.85c-.31.89-1.36,1.33-1.48,2.34a4.41,4.41,0,0,0,1,3.59c.44,1.14.23,2.43.84,3.52a1.62,1.62,0,0,1,.07.66c-.15.55-.65.78-1,1.16-1,1-.24,1.73.79,2.19a.89.89,0,0,1-.17.91c-.79,1.11-1.8,2.23,0,3.31.85,2,.24,4,.24,6.05a2.66,2.66,0,0,1-.55,1.82c-1.26.07-.85-1-1.11-1.62C4.65,112.25,5.14,111.26,4.59,110.42Z"/><path class="cls-34" d="M10.33,129.69l-1-.5c-.39-.75-1.27-.62-1.86-1l0,0c-.75-2-.65-4.24-1.34-6.3A3.42,3.42,0,0,1,6,119.11a1,1,0,0,1,.62-.24c.84.12,1.53.43,1.61,1.41.14,1.68,1.53,2.67,2.23,4a2.5,2.5,0,0,0,3.18,1.35c.62-.1,1.28-.38,1.86-.07.82.43,1.91.94,1.56,2.05s-1.29.36-2,.24c-1.34-.21-2.63-.25-3.29,1.34-.15.37-.67.36-1.06.41Z"/><path class="cls-35" d="M16.6,135.85c.76.05.58.31.37.89-.35.92-1.51.68-1.57.64-1.12-.81-2.71.05-3.73-1.11-.31-.35-.66.17-.85.51l-.9,0c-1.41-3.72-.11-5.34,3.83-4.78a2.12,2.12,0,0,1,.44,0c.65.13-.39,1.06.7,1.21C16.17,133.41,16.25,134.82,16.6,135.85Z"/><path class="cls-36" d="M6.48,119.07a1.88,1.88,0,0,0,.14,2.34c1.53,1.56-.43,4,1.4,5.38.11.08-.36.91-.56,1.39-2.31-1.65-2.51-4-2.48-6.61,0-3.71-.56-7.42-.39-11.15,1,1.28.42,3.07,1.43,4.34,1,1,.49,2.41.74,3.62A1,1,0,0,1,6.48,119.07Z"/><path class="cls-37" d="M3.11,133.09c-.8-3.7-.28-7.44-.35-11.16,0-2.12.37-4.28-.5-6.34-.34-.42-.18-.88-.09-1.34a1.2,1.2,0,0,1,0-1.44c.55-.21.3-1.09,1-1.19.35,1.11.35,1.11-.33,2.56-.07.14-.16.34-.11.44,1.52,2.92.45,6,.63,8.93.18,3.18-.57,6.75,1.83,9.59.39.47.28.56-.83,1.89.83-1.7-1-2-1.16-3.09Z"/><path class="cls-38" d="M8.47,136.26a5,5,0,0,1-1.76-5.08c.44-2.77,1.34-1,2.2-.61C9.88,132.55,9.19,134.41,8.47,136.26Z"/><path class="cls-39" d="M8.47,136.26q.21-2.85.44-5.69a3.85,3.85,0,0,0,2.4.45l2.44,1c-3.45.14-3.91.67-3.56,4.13,0,.2-.18.43-.27.65Z"/><path class="cls-37" d="M4.11,106.58c0,.32,0,.64,0,1-.86.77-.25,1.82-.54,2.71-.7-.14-.32-1.46-1.33-1.27a1.52,1.52,0,0,1-.36-1.73C2.48,106.57,2.91,105.31,4.11,106.58Z"/><path class="cls-40" d="M2.21,107.05c0,.64,0,1.29,0,1.93s-.09,1-.13,1.56l-.23,0-.14-.2a.61.61,0,0,0-.05-.44,22.34,22.34,0,0,1,0-6.22C3.59,104.53,2.8,105.81,2.21,107.05Z"/><path class="cls-41" d="M5.81,130.76c-.89-.51-.82-1.12-.4-2C6.25,129.36,6.1,130,5.81,130.76Z"/><path class="cls-42" d="M13.2,130.63l-1.87-.09-1-.85.06-.13c1.1-.28,2.17-.4,2.92.72C13.28,130.39,13.24,130.51,13.2,130.63Z"/><path class="cls-42" d="M7.49,128.16c.74.13,1.82-.34,1.86,1A3,3,0,0,1,7.49,128.16Z"/><path class="cls-43" d="M2.68,79.7q.27,7.89.55,15.79l-.41.1c-.88-2.23-.08-4.54-.43-6.79.19,2.68-.23,5.38.41,8.06a2.86,2.86,0,0,1-.5,2.5.55.55,0,0,1-.77-.14c-.11-3.73,0-7.46-.05-11.19,0-2.59.07-5.19-.05-7.78a4.79,4.79,0,0,0-.58-2.49c-.09-.31.1-.42.34-.49a3.49,3.49,0,0,0,.69-2.89c-.1-.54-.2-1.25.5-1.34s.74.67.9,1.17c.09.3.12.62.21.93a5.18,5.18,0,0,1-.21,2.14C2.85,78,3.14,79,2.68,79.7Z"/><path class="cls-44" d="M1.76,99.36h.45c-.25.21.36-.35.25,0,0,.09.36.18.36.15-.1-1.32-.51-2.67.31-3.93l.1,0c.37.16,1-.18,1,.61q-.07,5.24-.14,10.48c-.84-.65-1.19.63-1.9.47-.21-1.11.4-2.33-.46-3.34a.75.75,0,0,1-.43-.52.59.59,0,0,0,0-.37C1.83,101.72,1.08,100.44,1.76,99.36Z"/><path class="cls-45" d="M3.14,75.39c-.74-.43-.24-1.32-.72-2-.67,1.25.57,3.06-1.23,3.84,0-.44.07-.89.1-1.34.49-2.43-.31-4.85-.05-7.28.5-1,.1-2.11.27-3.15a.48.48,0,0,1,.55-.35,1,1,0,0,1,.5.52,2.49,2.49,0,0,1,.19.71,7.11,7.11,0,0,0,.77,3.47C3.07,71.68,4.47,73.63,3.14,75.39Z"/><path class="cls-46" d="M1.64,88l-.37-.17a58.07,58.07,0,0,0-.42-10c.85.13.88.76.87,1.42C1.69,82.11,1.67,85,1.64,88Z"/><path class="cls-47" d="M.34,51.35c.51.37.4.93.44,1.44a7.14,7.14,0,0,1,.75,2.93c.76-.95.4-3,2.54-2.7a3,3,0,0,1,1.5.62c.42,1-.77,1.42-.79,2.25A10.78,10.78,0,0,1,4.36,60a1.71,1.71,0,0,1-.79,1.05A3.17,3.17,0,0,1,1.15,59.5c-1.25-.77-.9-2-.93-3.16,0-1.48,0-3,0-4.46Z"/><path class="cls-48" d="M3.18,38.87l1.89-4.29c-.2-.69.32-.73.76-.84,1.27.37,2.66.61,2.11,2.55-.07.26.69.6.74,1.12s-.17.88-.55.92c-.68.08-1.48.31-1.53.86-.08.84,1.1.63,1.52,1.18a1,1,0,0,1,0,1c-.6.62-1.51.39-2.24.82.64.66,2.31,1.06.72,2.32-.68.53-.21,1.39-.68,2s-.59,1.46-1.46,1.24c-1.27-.33-.88-1.64-1.24-2.51-.59-.95.26-1.94-.11-2.9C3,41.13,4.27,40,3.18,38.87Z"/><path class="cls-49" d="M3.7,26.42C4,22.06,3,17.8,2.6,13.5l.17-.09c1.45.39,1,1.92,1.64,2.82.65-.07.68-.87,1.25-1,1.39,1.13.51,3,1.39,4.28,0,1,.74,1.83.65,2.84-.9.95-.59,2.1-.55,3.21A1.5,1.5,0,0,1,5.86,27l-.33-.13A1.25,1.25,0,0,0,3.7,26.42Z"/><path class="cls-50" d="M3.19,45.16a3.36,3.36,0,0,1,.64.91c.58,2.12,1.14.88,1.72,0a3.37,3.37,0,0,1,1.89,4.12,7.24,7.24,0,0,0-.24,2.58,1.13,1.13,0,0,1-.16.62,1.85,1.85,0,0,1-1.52.39c-.52-.06-1.08,0-1.42-.51A.58.58,0,0,1,4,52.67c.34-.75,1.25-1.38-.5-1.91-1.54-.46-.84-2.25-.93-3.5a3.85,3.85,0,0,1,.52-1.65A3.47,3.47,0,0,1,3.19,45.16Z"/><path class="cls-49" d="M6.05,34.09a1,1,0,0,0-1,.49c-1.53-1.13-.24-2.69-.56-4-.27-1.19.45-2.49,1-3.66l0,0A.85.85,0,0,0,5.8,27c.89.06,1.36-1.57,2.14-.88S8.1,28.06,7.83,29C7.33,30.71,6.56,32.36,6.05,34.09Z"/><path class="cls-51" d="M3.18,38.87c1.9,1.18.92,2.29-.09,3.39C2,41.1,3.4,40,3.18,38.87Z"/><path class="cls-52" d="M3.13,45.61v1.9c-.88.27-.61-.62-.93-.92v-.48Z"/><path class="cls-53" d="M2.21,65.8l0-.52c-.65-.47-.23-1.47-1-1.9-.14-.33-.28-.66-.43-1a2.56,2.56,0,0,1,.4-1.9c2.05-.07,2.07,1.64,2.58,2.93C3.6,64.44,4.59,66.22,2.21,65.8Z"/><path class="cls-54" d="M3.16,63.34c0-1.42-1.23-2-2-2.85-.26-.32-1.48-.6,0-1a6.44,6.44,0,0,1,2.51,1.44c.62-.09.69.35.76.78-.12.72.22,1.5-.25,2.18C3.62,64.11,3.41,63.68,3.16,63.34Z"/><path class="cls-47" d="M2.2,46.59l.93.92a14.72,14.72,0,0,0-.08,2.09c0,.42.38,1.17.82.89.71-.46,1-1.27,1.31.33.19,1.13.32,1.87-1.06,2-2,.76-1.94-.62-1.93-1.92C2.62,49.46,1.16,48,2.2,46.59Z"/><path class="cls-52" d="M2.19,50.89c.74.55.27,2.3,1.93,1.92a3.85,3.85,0,0,1,0,.48c-2.21.2-1.27,2.75-2.72,3.56a7.4,7.4,0,0,1-.6-4.06l1.29.82C2.09,52.61.44,51.59,2.19,50.89Z"/><path class="cls-55" d="M6.52,19.71c-.9-1.31-.56-2.89-1-4.3-1,.47-1.26-.25-1.43-.93A6.59,6.59,0,0,1,3.91,11a2.18,2.18,0,0,0,0-2,.83.83,0,0,1,.23-.83c.82-.48,1.92-.69,2-2C8,5.85,7.59,8.27,8.9,8.67c0,.51-.08,1.08.42,1.46.7.69,0,1.69.52,2.41l.08.92a.38.38,0,0,1,0,.57c-1,0-1.21-.86-1.67-1.48a.76.76,0,0,0-1.41.14c-.21,1.24.71,2.23,1.32,3.2.46.75,1.25.39,1.87-.07.22-.21.57-.25.75-.53l.12.1c1.29.36,1.2,1.37,1.1,2.37C10.05,18.14,8.41,19.26,6.52,19.71Z"/><path class="cls-56" d="M4.58,10.58c-.19,1.71-.71,3.48,1,4.83,0,.23,0,.52-.13.69-.35.46-.07,1.47-.93,1.43s-.78-.83-.84-1.47a5.74,5.74,0,0,0-.87-2.65c-.25-.93.28-2-.53-2.84,0-.63,0-1.27,0-1.91A2.94,2.94,0,0,1,4.1,8.18c0,.31,0,.63,0,1C4.42,9.57,4.34,10.13,4.58,10.58Z"/><path class="cls-57" d="M6.08,3.83c.65,1.17-.6,1.32-1,1.92-.86.55-1.68.84-2.29-.33l1.42-2a1.17,1.17,0,0,1,1-.45C5.65,3,6.13,3.15,6.08,3.83Z"/><path class="cls-58" d="M46.36,123.37a5.7,5.7,0,0,0,.06,1.66c.61,1.76-.43,2.09-1.78,2.15a12.49,12.49,0,0,0-4.59,1c-.89,1-2.07.6-3.14.7a12.72,12.72,0,0,1-3.08-.22c-1.73-1.23-3.33-2.54-2.9-5a2.7,2.7,0,0,0-.65-1.94,2.13,2.13,0,0,1,0-2.83,2,2,0,0,1,2.54-.37.87.87,0,0,1,.22.6,1.07,1.07,0,0,0,.22,1.38c1.45,1.47,3,2.55,5.22,1.72a1.43,1.43,0,0,1,1.22-.33c1.32.27,2.86-.92,4.06.73-.77-1.71.44-2.4,1.39-3.22a1.18,1.18,0,0,1,.69.12C46.78,120.66,46.45,122,46.36,123.37Z"/><path class="cls-59" d="M46.36,123.37c-.61-1.21-.12-2.69-1-3.84-1-1.35-.86-3-1.12-4.48a24.24,24.24,0,0,0-.1-3,1,1,0,0,1,.21-.68l.81-1.51c.19.32.38.64.58,1l1.56,6.68c.13,2.41-.7,4.79-.21,7.25Z"/><path class="cls-60" d="M41.09,128.66a15.17,15.17,0,0,0,4-.45c.65-.08,1.42-.32,2,.36-1.33.81,1.06,2.82-1.1,3.38a5.15,5.15,0,0,0-1,.55,1.34,1.34,0,0,1-1.13.89,1.74,1.74,0,0,1-1.41-.34,1.12,1.12,0,0,1,.22-1.59c1.28.15,1.68-.78,2.15-1.93-.91.1-1.74.66-2.58.28a3.72,3.72,0,0,1-.91-.35.81.81,0,0,1-.34-.51Z"/><path class="cls-61" d="M44,133l1-.51c1.1,0,2.21.11,3.06-.88.4-.47,1-.7,1.18.2.1.59.45,1.62-.91,1.18-2.08-.65-3.73,1.3-5.76.93l-.09-.29C42.72,132.9,43.55,133.46,44,133Z"/><path class="cls-62" d="M36.74,128.22l3.31-.08c.41.05.82.1,1,.52h0c-.79.76-1.89.54-2.81.89a6.29,6.29,0,0,1-1.14.18,3.29,3.29,0,0,1-2.23-.45C34.74,127.6,36.33,128.93,36.74,128.22Z"/><path class="cls-63" d="M11.77,17.75a2.67,2.67,0,0,0-.91-2.36,1.23,1.23,0,0,1,0-.43l.42-.09c.27,0,.81-.35.78,0-.14,1.93.51,2.46,2.56,2.82,1.77.32,1.9,0,2-1.37l.31-.13c1.19.29,2.55-.06,3.54,1,.78-1,1.88-.76,2.91-.79l.92.43c.39.18-.16,1.4,1.06.76.85-.44,1.68.17,1.88,1.23.15.78-.16,1.22-1,1.15a1.13,1.13,0,0,1-.22-.07c-.13.36.36.08.35.35a1.71,1.71,0,0,1-.5,1.49,1.48,1.48,0,0,1-1,.23c-2-.37-4.06-1.45-6.12-.1a2.86,2.86,0,0,1-.65.19,3.12,3.12,0,0,1-1-.08c-.53-.15-1.06-.33-1.59-.47-1.18-.51-2.4.35-3.57-.11a1.11,1.11,0,0,1-.42-.49C11.91,19.87,11.45,18.78,11.77,17.75Z"/><path class="cls-64" d="M22.33,14.94c-.15.3-.31.6-.46.91a1.83,1.83,0,0,1-2.14.34,4.13,4.13,0,0,0-3.13.15h0c-.67-.87-1.85.35-2.73-.76a14.3,14.3,0,0,0,4.64-1.66c1.08-.58,2,0,3,.36A1.51,1.51,0,0,1,22.33,14.94Z"/><path class="cls-65" d="M21.41,14.88c-1-.23-1.72-1.31-2.9-1,2.22-.95,4.53-.27,6.8-.41a.92.92,0,0,1-.08.63,1.42,1.42,0,0,1-1.45.57A2.21,2.21,0,0,0,21.41,14.88Z"/><path class="cls-66" d="M25.24,13.93a2,2,0,0,1,.07-.42,2.57,2.57,0,0,0,.4-.07c.41-.08.88-.71,1.2-.1s-.33.56-.7.65a.65.65,0,0,1-.77.14Z"/><path class="cls-67" d="M28.61,9.59c0-.15,0-.31,0-.46.33-1.25,1.81-.61,2.4-1.45,1.27-.71,1.8.24,2.37,1.08a1.67,1.67,0,0,1,.23.61c.16,1.7,1.17,3.56-.93,4.82-.9.28-1.69.26-2.16-.73-.68-.05-1.42.2-2.06-.55C30.33,11.91,30.29,10.77,28.61,9.59Z"/><path class="cls-68" d="M32.41,15.85c0,1.29,0,2.57,0,3.86a1,1,0,0,1-1.28.14c-1-.51.8-2.14-.76-2.28s-.58,1.61-1.31,2.17a1.58,1.58,0,0,1-.42.24c-1.91-.39-1.92-1.67-1.48-3.16a1.1,1.1,0,0,1,.47-1c.64,0,1.15-.41,1.77-.5a5.54,5.54,0,0,1,2.43.09A2.49,2.49,0,0,1,32.41,15.85Z"/><path class="cls-7" d="M16.6,16.34c.77-1,1.57-1.82,2.93-.77.68.52,1.55.23,2.34.28l1.49.53c-.55.82-3.26-.28-1.92,2.52C20.42,16.51,18.05,17.41,16.6,16.34Z"/><path class="cls-69" d="M27.15,16.82c.11,1.32-.15,2.87,1.92,2.87l.2.27a1.14,1.14,0,0,1,0,.66,1.24,1.24,0,0,1-.55.38,2.77,2.77,0,0,1-2.48-.83H24.77c.11-.6.47-.4.69-.48.48-.15,1.31.42,1.33-.71a1,1,0,0,0-1.42-1c-1.67.71-.94-.58-1.09-1.14C25.24,17.32,26.2,16.59,27.15,16.82Z"/><path class="cls-70" d="M32.41,15.85l-.47,0a1.94,1.94,0,0,0-2.91,0c-.47-.13-.92,1.51-1.41,0,.27-1.64,1.86-1.68,2.89-2.39a4.64,4.64,0,0,0,2.4.49c.16.1.22.2.17.3s-.11.16-.16.16C32.35,14.75,32.46,15.33,32.41,15.85Z"/><path class="cls-71" d="M23.83,14.34l1.41-.41h0a.65.65,0,0,1,0,.94c-.8.52-1.6.79-2.41,0C22.75,14,23.29,14.18,23.83,14.34Z"/><path class="cls-65" d="M25.23,14.87v-.94l1,.06a.92.92,0,0,1-.54,1.5C25.22,15.66,25.29,15.15,25.23,14.87Z"/><path class="cls-72" d="M23.83,14.34a1.23,1.23,0,0,0-1,.56l-.49,0-.92-.06A1.47,1.47,0,0,1,23.83,14.34Z"/><path class="cls-16" d="M9.82,14c0-.16.06-.33.1-.49l.82,1.83c-.13.18-.25.37-.38.56C9,15.5,9,15.29,9.82,14Z"/><path class="cls-16" d="M9.84,12.54c-.67-.7-.34-1.61-.52-2.41C10.27,10.77,9.76,11.72,9.84,12.54Z"/><path class="cls-17" d="M35.27,8.6c-.14.5-.29,1-.44,1.5h0c-.88.27-1-.54-1.44-1h0c-.58-.53-.48-1.24-.48-1.92,1.32-1-.45-.91-.48-1.44a1,1,0,0,0,.94-.47c.95-.08,1.48.25,1.47,1.31C34.85,7.28,34.59,8.05,35.27,8.6Z"/><path class="cls-29" d="M32.92,7.21c.7.51.4,1.26.48,1.92-1.1,0-1-1.89-2.4-1.45C31.32,6.22,32.34,7.63,32.92,7.21Z"/><path class="cls-53" d="M1.72,65.29c-.19,1.12.44,2.35-.48,3.36,0-1.6,0-3.21,0-4.81C2.39,64,1.91,64.69,1.72,65.29Z"/><path class="cls-73" d="M1.72,65.29c0-.53.08-1.1-.49-1.45a.66.66,0,0,1,0-.46c2-.22.47,1.36,1,1.9Z"/><path class="cls-39" d="M16.6,135.85c-.68-1.36-2.49-2-2.41-3.83,1.92,0,3.84.86,5.76,0-.12,1,.33,2.08-.44,3-.79-.15.19-1.42-.84-1.32a1.38,1.38,0,0,0-1.18,1A4.1,4.1,0,0,1,16.6,135.85Z"/><path class="cls-74" d="M20,138.27a4.46,4.46,0,0,1,.79-3.06c.13-.21-.06-.71.41-.61s1.36,1.38,1.38-.46c0-1.24,0-2.23-1.62-2.14,1.71-1,2.48-.47,2.41,1.48,0,1.27,0,2.54,0,3.81h0a5.24,5.24,0,0,1-3.35,1Z"/><path class="cls-42" d="M22.38,127.2c-.06,3.85-.06,3.91-3.87,3.83-1.77-.05-3.6.49-5.31-.4l.06-.1c1.33-1.25,3-.78,4.52-.85s3.26-.14,3.6-2.26a2,2,0,0,1,.29-.61.69.69,0,0,1,.61-.19.39.39,0,0,1,.18.37C22.44,127.13,22.42,127.2,22.38,127.2Z"/><path class="cls-75" d="M22.38,127.2a1.34,1.34,0,0,1-.07-.39A6.31,6.31,0,0,1,22,120c1-.07.91.84,1.25,1.36.17,1,.8,2,.1,3l0,2.87Z"/><path class="cls-62" d="M27.67,132c-.19-.64.24-1.47-.6-1.9-.37-3.51-1.14-7-.9-10.54-1.13-1.44-.28-3.24-.89-4.78a9,9,0,0,1,0-3.65,1,1,0,0,1,.8-.76c.84.53.81,1.48,1.1,2.28s.08,1.81.29,2.69c.46,0-.73,1,.4.64a.65.65,0,0,1,.5.33,8.19,8.19,0,0,0,.51,2.72,19,19,0,0,1,1.21,9.23c.18,1.91,1.13,3.9-.49,5.65C28.86,133.36,28.58,132.38,27.67,132Z"/><path class="cls-76" d="M37.29,129.25l.92-.17a2,2,0,0,1,1.34-.12.9.9,0,0,1,.49,1c-.72,2,.65,2.43,2,2.92.23.53,0,.89-.41,1.22a1,1,0,0,1-1-.07l-3.36.89c-.54.54-1.41-.21-1.91.48h0c-1.38.75-1.83-.45-2.31-1.24s.15-1.64.82-2.2A34.89,34.89,0,0,1,37.29,129.25Z"/><path class="cls-77" d="M37.29,129.25c.05,1.55-.57,2.27-2.15,1.56-.19.88.94.75.7,1.64-1.28-.83-2.33-.19-2.47,1a1.82,1.82,0,0,0,2,1.95c-1.59,1.16-2.94.18-4.32-.5-.91-1.58.19-3.42-.65-5-.26-.49.24-.94.78-.87,1.23.17,2.5-.53,3.69.17Z"/><path class="cls-6" d="M34.82,129.15c-1.3.31-2.59.81-4.41,0,1.44,2.12.46,3.94.59,5.74-.5-.28-.7-1-1.44-1a16.52,16.52,0,0,0,0-5.74c1.28-1.09,2.56.17,3.85,0l3.34,0C36.3,128.94,35.23,128.35,34.82,129.15Z"/><path class="cls-78" d="M33.52,136.61c-1.44.84-2.16.06-3,0A4.38,4.38,0,0,1,33.52,136.61Z"/><path class="cls-79" d="M40.61,134l.91-.13a.73.73,0,0,1,1,.05h0c0,.28,0,.57,0,.85l-.8.19C41.13,134.88,40.64,134.71,40.61,134Z"/><path class="cls-77" d="M35.34,135.39c.3-1.51,1.33-.08,1.91-.48C36.74,135.58,36,135.34,35.34,135.39Z"/><path class="cls-80" d="M25.79,119.42l-.06-.85c-.5-1.06-.13-2.19-.24-3.28a.64.64,0,0,1,.31-.63c.78,1.59.28,3.28.37,4.92Z"/><path class="cls-81" d="M35.31,69.57c-.13,5.44,1.39,10.62,2.4,15.88.51.72.25,1.6.51,2.37l0,0a1.78,1.78,0,0,1,.16,1.3c-1.91.61-1.7-1.19-2.33-2a2.45,2.45,0,0,1-.15-.65c.1-2.11-1.44-3.87-1.31-6,0-.18-.55-.25-.85-.36a1.51,1.51,0,0,1-.56-.38c-.92-1.57.41-3.08.14-4.63a6.5,6.5,0,0,0-1.59-3.83c-1.07-1,.54-2.08-.24-3a1.62,1.62,0,0,1,.26-1,.78.78,0,0,1,.6-.21A14.69,14.69,0,0,1,35.31,69.57Z"/><path class="cls-32" d="M38.2,89.29c0-.48,0-1,0-1.45l.44,0c-.27,1.89,1.64,2.58,2.36,3.94.34.63.05,1.74,1,2.1.73-.6-.8-2.07.9-2.2a4.57,4.57,0,0,0,.14,1.4c1,2.23-.2,2.6-2,2.44C40.07,93.47,37.57,92.1,38.2,89.29Z"/><path class="cls-82" d="M37.73,61.47c.28,1.12-.82,2.24,0,3.36a1.91,1.91,0,0,1,.46,1.68A2.84,2.84,0,0,1,38,67.92l-.27.24a4,4,0,0,0-2.32.46c-.61-.57-.23-1.22-.15-1.84a15.16,15.16,0,0,0,.52-3.07,4,4,0,0,1,.26-1C36.41,62.1,36.63,61.19,37.73,61.47Z"/><path class="cls-83" d="M35.8,66.74c-.15.63-.29,1.25-.43,1.88l-.06.95a3.93,3.93,0,0,1-2.88-2.34,3.15,3.15,0,0,1,2.35-2.53C35.57,65.16,34.9,66.34,35.8,66.74Z"/><path class="cls-84" d="M37.76,74.77c.69,2.08,1.33,3.53.36,5.67C37.49,78.41,37.78,76.89,37.76,74.77Z"/><path class="cls-85" d="M37.72,66.73c0-.63,0-1.27,0-1.9,1-.42,1.69-.27,1.88.92a.9.9,0,0,0-.93,1A.64.64,0,0,1,37.72,66.73Z"/><path class="cls-86" d="M38.67,68.18c.06,1.45-.22,2.93.42,4.33-.15.21-.28.22-.41,0-.84-1.33-.56-2.91-1-4.33h0A.65.65,0,0,1,38.67,68.18Z"/><path class="cls-32" d="M38.22,87.82c-.82-.65-.37-1.57-.51-2.37A1.65,1.65,0,0,1,38.22,87.82Z"/><path class="cls-22" d="M38.67,68.18h-1c0-.48,0-1,0-1.44h1C38.67,67.21,38.67,67.69,38.67,68.18Z"/><path class="cls-87" d="M38.68,72.49l.41,0a2.66,2.66,0,0,1-.16,2A3.42,3.42,0,0,1,38.68,72.49Z"/><path class="cls-88" d="M36.73,41.78h1.49c.6.5.49,1.19.51,1.85.55,4.06,1.3,8.1.81,12.23-.3.43,0,1-.32,1.43s-.89.49-1.23.89-.53,1.43-1.48.72a2.67,2.67,0,0,1-.19-1.8c.47-2.83,1-5.66-.11-8.47a11.62,11.62,0,0,0-.09-3.72C36.13,43.81,35.94,42.7,36.73,41.78Z"/><path class="cls-89" d="M39.15,57.14c.08-.45-.14-1,.4-1.3,0,.89,0,1.78,0,2.67-.64,1-.57,2.36-1.81,3-.78.17-.85,1.06-1.44,1.43a1.82,1.82,0,0,1-.51-1.69,2.19,2.19,0,0,1,.23-.65,5.16,5.16,0,0,0,1.74-2.2C38.16,57.89,38.74,57.61,39.15,57.14Z"/><path class="cls-25" d="M5.06,3.36A2.57,2.57,0,0,1,6.57,2.5c.23.52,1.32.21,1.14.92s-1.06.32-1.63.41Z"/><path class="cls-90" d="M34.36,37.41c.51.05,1.1-.08,1.4.52-.63.68-.24,1.69-.78,2.41a1,1,0,0,1-.59.22c-.68,0-1.52-.84-2,.39a1.21,1.21,0,0,1-.65.1c-3.11-2.15-3.21-2.36-2.48-4.93.48-.59,1.26-.36,1.83-.69.89-.31,1.76-.58,2.07.74-.07.63.51.9.75,1.36C34.37,38.32,34.15,37.15,34.36,37.41Z"/><path class="cls-69" d="M31,19.7H32.4c.93.77-.35,1.6.05,2.38a10.57,10.57,0,0,0-1.23,1.36,1.36,1.36,0,0,1-1.46.38c-.92-.31-1-1.52-2-1.77a1,1,0,0,1-.7-.61c.35-1.1,1.49-.16,2-.78l.05,0c.37-.81,1.43.13,1.78-.71C30.92,19.84,31,19.77,31,19.7Z"/><path class="cls-23" d="M32.46,23a1.19,1.19,0,0,1,.44,1.28c-.77,2.47,0,4.7,1,6.92-.82.54-1.24-.16-1.76-.58a2.45,2.45,0,0,1-.54-.87,3.69,3.69,0,0,1-.14-.66c.16-1.23-.58-2.29-.66-3.47a4,4,0,0,1,.68-1.07C31.8,24.09,31.89,23.4,32.46,23Z"/><path class="cls-91" d="M32.42,30.28c.52.25.71,1,1.43,1,0,1.1,0,2.21,0,3.31l-.25.2a3.94,3.94,0,0,1-2.48-2.65,1.72,1.72,0,0,1,.16-.63A3.28,3.28,0,0,1,32.42,30.28Z"/><path class="cls-91" d="M34.36,37.41c-.11.57.24,1.25-.58,1.86-.17-.91-.06-1.82-1.35-2.07-.71-.14.11-.56.48-.71.41-.59.22-1.48,1-1.91l0,0A2.78,2.78,0,0,1,34.36,37.41Z"/><path class="cls-29" d="M33.4,9.13c.75-.08.94.68,1.44,1-1,1.28-.07,3.41-1.92,4.31,0-.15,0-.31,0-.46.54-1.21,1.5-2.34-.1-3.58C32.15,9.87,33.28,9.6,33.4,9.13Z"/><path class="cls-91" d="M34.82,40.33c0-.92-.13-1.9.94-2.4-.51,1.28,1.46,2.53.06,3.82l-.29.12C34.85,41.57,34.8,41,34.82,40.33Z"/><path class="cls-92" d="M32.46,23A3.46,3.46,0,0,1,31.94,25c-1.05,0-2.13,0-2.38-1.44.54,0,1.12.07,1.46-.52.43-.32.84-.73,1.45-.44A3.65,3.65,0,0,0,32.46,23Z"/><path class="cls-91" d="M36.73,41.78v3.35c-1.85-.68-2.33-1.75-1-3.34l0,0Z"/><path class="cls-23" d="M32.47,22.57,31,23c.06-1,.77-.9,1.43-.92l.62.23Z"/><path class="cls-18" d="M20,138.31a5.11,5.11,0,0,1,3.35-1C22.73,139.4,21.34,138.85,20,138.31Z"/><path class="cls-93" d="M43,106.57a1.83,1.83,0,0,1,0,.46c0,2.11.75,4.11,1,6.19a6,6,0,0,1-.42,1.65,1.92,1.92,0,0,1-1,1.22,2.9,2.9,0,0,0-2.08,3.16c0,.28-.34.49-.62.64-1.8.36-3.61,1-5.24-.47-.53-.76-1.56-1.26-1.24-2.45a10.83,10.83,0,0,0,4.7-1.65c.69-.51,2.12-.08,2.21-1.39.11-1.8.94-3.6.06-5.41a1.51,1.51,0,0,0-1.38-.79c-1.51-.08-3.15-.55-4.47-.28-1.81.38-.7,2.62-1.37,3.9s-.29,3-1.13,4.35A3.7,3.7,0,0,1,30.4,111a6,6,0,0,0,.29-4.6,2.87,2.87,0,0,1,1.23-3.51c.25-.2-.05.07.2-.14,3.22-2.63,3.22-2.63,5.64,1.15-.66-1.79-.64-3,1.27-3.3a.83.83,0,0,1,.78.43c.09.39-.1,1,.6,1a2.5,2.5,0,0,1,1,1.11A26,26,0,0,1,43,106.57Z"/><path class="cls-94" d="M38.2,89.29c.42,2.33,2.43,3.93,2.85,6.25-.35,1.66,1.4,3,.58,4.76-.84.39-1.23-.24-1.68-.74a3.33,3.33,0,0,1-.27-.61c-.57-.91-.47-2.31-2-2.54-.49-.08-.55-.69-.48-1.21a5.55,5.55,0,0,0,0-2.11c.92,1.23-1.7,1.38-1.48,2.83,0,.33-1.08,0-1.56-.4-.54-1.94.65-3.71.52-5.61a2.52,2.52,0,0,1,1.61-3C37.46,87.26,36.74,89.15,38.2,89.29Z"/><path class="cls-95" d="M40.11,99.37l1.52.93a5,5,0,0,1,.89,2.91,1.06,1.06,0,0,1-1.47,0l-.93-1c-.39-.21-.21-.7-.48-1l-.48-.47c-.71.06-.78-.38-.57-.84A1.11,1.11,0,0,1,40.11,99.37Z"/><path class="cls-96" d="M43,114.73l.49-1.43c.55-.56-.12-1.45.53-2l.38.11a1.67,1.67,0,0,0,.06.44c.54.91-.14,2,.44,2.91l.51,4.76h-.5c-.78.2-.95-.44-1.25-.9a2.74,2.74,0,0,1-.18-1C43.51,116.65,43.82,115.6,43,114.73Z"/><path class="cls-97" d="M44,111.31c-.17.66.17,1.47-.53,2,.08-2.11-1.22-4.11-.43-6.26A10.13,10.13,0,0,1,44,111.31Z"/><path class="cls-97" d="M41.05,103.23l1.47,0c.79,1,.41,2.23.5,3.36A6.57,6.57,0,0,1,41.05,103.23Z"/><path class="cls-98" d="M6,88.81l-.49-.47c-.14-.34.08-.84-.48-1h0c-.36-.42-.06-1-.48-1.44,0-.33-.55-.65,0-1a3.42,3.42,0,0,0,2.76-3.19A1.74,1.74,0,0,0,7.88,81a3.1,3.1,0,0,1-.62.88c-.35.45-.2,1.08-.58,1.52a.74.74,0,0,1-1,.2c-.39-.27-.38-.63-.09-1,0-.15,0-.31,0-.46-.42-1.2.28-2.36,0-3.61-.14-.74.9-1.22,1.67-1.38a5.51,5.51,0,0,0,2-.54,1.19,1.19,0,0,1,.62.09c.17.87,1,.75,1.55,1,1.74,2.08,1.81,0,2.34-.95a1.47,1.47,0,0,1,.43-.5c2.15-.12,1.06,1.78,1.65,2.64-.14.75-.46,1.32-1.34,1.36.35.25.64-.07,1-.11.65-.09,1.34-.13,1.6.62s-.38,1.13-.83,1.55a2.19,2.19,0,0,1-.61.35c-2.3,1-2.36,1.55-.36,3.24a1.23,1.23,0,0,1,.14,1,2.51,2.51,0,0,1-1.57,1.26c-1,.41-2.24-.1-3.25.54a5.29,5.29,0,0,0,.07,2.47c0,.74-.05,1.44-1.11,1a2.1,2.1,0,0,1-.46-.43c-.42-1-1.72-.5-2.26-1.3C6.45,89.91,6.57,89.2,6,88.81Z"/><path class="cls-99" d="M9.41,76.8a2.69,2.69,0,0,1-.44.51C8,78,5.76,77.64,6.06,78.5c.55,1.53,0,2.47-.52,3.61H4.6c-.89,0-.77-.42-.48-1,.41-1-.11-1.33-1-1.45A.51.51,0,0,1,3,79.32c0-.14,0-.21,0-.21a31.5,31.5,0,0,1,.92-4.29,1.4,1.4,0,0,1,1.13-.64c.82-.14,1.34.71,2.2.61C9.11,74.57,9,72.25,8.9,72c-.48-1.92,1-1.88,1.94-2.34a3.33,3.33,0,0,1,2.65-.31c.56.35.27,1,.5,1.46.08.8-.71,1.22-.8,2.07A4.26,4.26,0,0,1,9.41,76.8Z"/><path class="cls-100" d="M6.48,119.07v-.49c-.37-1.91.2-3.89-.44-5.78a23.05,23.05,0,0,0,0-5.75c-.14-.42.1-.62.44-.76a2.68,2.68,0,0,1,2.23,1.49c-.1.72-.64,1.31-.57,2.07-.63,1.55-.79,3.06.47,4.41a6.08,6.08,0,0,1,.61,1.8,2.53,2.53,0,0,1,0,1c-.09.41-.2.81-.28,1.21a2.23,2.23,0,0,1-.35.86c-.69.49-1.35,0-2-.08Z"/><path class="cls-100" d="M6.07,103.24l.4-.48a2.25,2.25,0,0,1,1.32-2.14c1.22.64,1.67,2.16,3.13,2.58a.62.62,0,0,1-.07,1.21c-.94.28-.72,1.38-1.45,1.73a2,2,0,0,1-.63.24c-.78.08-1.18-.49-1.66-.95C6.52,104.82,5.67,104.32,6.07,103.24Z"/><path class="cls-101" d="M8,100.81l-1.48,2c-.4-.57-1.76,1.06-1.53-.54.11-.75-1.4-2.58,1.06-2.39.15,0,.32-.31.49-.47a1.78,1.78,0,0,1,1.6.88A.51.51,0,0,1,8,100.81Z"/><path class="cls-102" d="M6.5,98.9c-1.61-1-.69-2.54-1-3.83.25-.41.22-1,.78-1.2a9.41,9.41,0,0,1,2.52,4.69A2.88,2.88,0,0,1,6.5,98.9Z"/><path class="cls-103" d="M5.56,82.57c.13.59.35,1.23.86.3.28-.52.21-1.23,1.06-1.25h0c0,3-.58,3.6-2.9,3.34C3.21,83.46,4.47,83.05,5.56,82.57Z"/><path class="cls-104" d="M6.07,103.24a4.71,4.71,0,0,0,1.41,1.89c.37.94-.7.92-1,1.45-.17.15-.33.31-.49.47C4.18,106.43,4.19,105.18,6.07,103.24Z"/><path class="cls-105" d="M6,94.11c.28.55.31,1-.5,1-2.15-.66-.88-2.58-1.41-3.83,1-.62,1.33.23,1.83.76A1.66,1.66,0,0,1,6,94.11Z"/><path class="cls-103" d="M5.53,92.16c-.48-.29-.66-1-1.4-.92A7.29,7.29,0,0,1,6,88.81c1,0,1,.76,1,1.45C6.54,90.91,6.36,91.78,5.53,92.16Z"/><path class="cls-100" d="M6.5,98.9c.67-.77,1.59-.4,2.4-.5l.29.13c.58,1.29-.08,1.72-1.25,1.81l-1.45-1A1.77,1.77,0,0,0,6.5,98.9Z"/><path class="cls-34" d="M6,112.8a8.59,8.59,0,0,1,.44,5.78c-.91-1.18-.23-2.55-.46-3.82C6,114.11,6,113.46,6,112.8Z"/><path class="cls-103" d="M4.59,85.94c1.26.12.75.82.48,1.44C3.8,87.26,4.33,86.55,4.59,85.94Z"/><path class="cls-103" d="M4.12,81.14a1,1,0,0,0,.48,1c-.32.4-.81.67-1.14.2C3,81.66,3.67,81.41,4.12,81.14Z"/><path class="cls-46" d="M3.18,79.24c0,.15,0,.3,0,.45H2.68a4,4,0,0,1,0-2.41C4,77.68,3.33,78.52,3.18,79.24Z"/><path class="cls-103" d="M5.07,87.38l1.26,0-.78,1A1,1,0,0,1,5.07,87.38Z"/><path class="cls-106" d="M21.87,127.22c-.16,2.29-1.35,3.56-3.5,3.17a19.8,19.8,0,0,0-5.11.14,5.89,5.89,0,0,0-2.87-1c0-.64,1.8-.14.93-1.4-.43-.62-.27-.76.48-.72,1.64.11,3.33-1,4.95.38-.6-1.54-1.57-2.1-3.06-1.58-2.56-.27-.41-1.78-.69-2.64a.88.88,0,0,1,.42-.49c2.17-.31,1.5-2.57,2.49-3.72.36-.43.33-1.16,1.15-1.12a18.66,18.66,0,0,0,2.69.15,1.68,1.68,0,0,1,.76,1.52,1.9,1.9,0,0,1-.57,1.55c-.36,0-.83-.07-.78.57a5.29,5.29,0,0,0-1.14,2.4c.22,1,.14,2.08,1.79,1.77A2.53,2.53,0,0,1,21.87,127.22Z"/><path class="cls-107" d="M13.24,123.37c-.14.65,1.53,1.51-.33,2-.45.14.78.27.79.82a3.38,3.38,0,0,1-4.28-2.65c-.4-1.84-.88.5-1.3-.19A5.39,5.39,0,0,0,6.59,119c.63-.43,1.23.07,1.85,0C10.78,119.67,11.92,121.61,13.24,123.37Z"/><path class="cls-108" d="M3.13,95.52v5.36c-1.42,0-.31-1.21-.92-1.53v-11C3.2,90.71,2,93.23,3.13,95.52Z"/><path class="cls-53" d="M3.18,79.24c-.1-.66.2-1.42-.47-1.95.14-.63.29-1.27.43-1.9.17-1.92-.66-3.84,0-5.76l.32-.2c.9,0,1,.63.94,1.28-.2,1.39.07,2.81-.27,4.18A8.1,8.1,0,0,1,3.18,79.24Z"/><path class="cls-109" d="M3.16,63.34l1,.43c1.6-.4,2.18.57,2.51,1.88a1.15,1.15,0,0,1-1.41.48c-2.06-.54,1.56.78-.12.35-.22,1-1,1-1.8.93-.61-.17-.78-.74-1.11-1.17V65.8C4.19,65.62,2.88,64.17,3.16,63.34Z"/><path class="cls-53" d="M2.21,66.24l1,1,.06.31c.08.7.53,1.41-.06,2.09l0,0C1.68,68.81,2.35,67.41,2.21,66.24Z"/><path class="cls-110" d="M4.1,60c-.43-1.44.62-2.87,0-4.32,1.18-.71,1.23,1,2.12,1,1,.3,2.17.2,2.87,1.21.43.62,1.14,1,1.45,1.74a1.58,1.58,0,0,1-.06.68,1.75,1.75,0,0,1-2.3,1c-.57-.16-.95-1.49-1.75-.29A2.79,2.79,0,0,1,4.1,60Z"/><path class="cls-111" d="M6.05,57.12c-1.32.43-.88-1.5-1.93-1.43-.11-1,1.25-1,1.4-1.9.36-.56.94-.48,1.49-.49,1.25,0,1.29.74.74,1.43S7,56.57,6.05,57.12Z"/><path class="cls-112" d="M4.1,60c1-.2,1.66.52,2.42,1l.31.13A1,1,0,0,1,7,62.61a2.62,2.62,0,0,1-1.23.65c-.93.05-1.68-.15-1.71-1.29a1,1,0,0,0-.42-1A.9.9,0,0,1,4.1,60Z"/><path class="cls-113" d="M6.05,34.09c-1-1,.06-1.85.29-2.72.43-1.61,1-3.18,1.53-4.85-.82-.26-1.38,1.43-2.29.38A3,3,0,0,0,7,25.47l.24-.23c1.87-.25,2.43,1.08,3,2.45.2.51-.17,1.48.7,1.44s.93-.88,1.09-1.64.12-1.92,1.52-1.38c.29,2.2.15,4.43.41,6.63a1.14,1.14,0,0,1-.21.37,1.58,1.58,0,0,0-.25.3s.07-.12.24-.24c.56-.2,1,.39,1.59.14a1.45,1.45,0,0,1,.6.25c.31.35.52.72.22,1.18S15,35.25,15,36.11c0,1.09-.73,1.25-2,1,1.26,1,3.82,1,2.2,3.28-.34.68-.09,1,.63,1.11A1.58,1.58,0,0,1,17.3,43c0,.68,0,1.38-.93,1.53-3.88-.45-4.15-.74-4.19-4.63a8.5,8.5,0,0,1-2.42,2.4c-1,.76-1.54.37-1.81-1,0-.32,0-.63,0-.95-.67-.53-1.23-1.1-.09-1.7.53-.27,1-.51.57-1.18,0-.78-2.71-.62-.71-2.07Z"/><path class="cls-114" d="M8,41.29c.33,1.15.94,1.46,1.67.38s2.37-1,2-2.81c-.12-.5.68-.44,1,0a.87.87,0,0,1,.12.68c-.66,3.18.91,4.49,3.87,4.66,1,.42,1.29-1.52,2.39-.68a1.87,1.87,0,0,1,.69,1.09c0,.87.14,1.79-.85,2.29a1.7,1.7,0,0,1-1.29-.08c-1.51-.38-3.06-.11-4.62-.4-1.13-.22-2.32,1.05-2.47,2.5,0,.52.09,1.1,0,1.65-.21,1.57-1,1.6-2.12.81a1.16,1.16,0,0,1-.53-.72.35.35,0,0,1,.05-.25c-.34.43.24,1,0,1.45a1.23,1.23,0,0,1-.88,1c-.68-.1-.85-.23-.49-1a5.06,5.06,0,0,0-1-5.68c.79-.51-1.25-2.44,1.15-2.26.27,0-.16-.7-.55-1s-1.4,1-1.14-.52A1.1,1.1,0,0,1,6.3,41.29C6.85,41.33,7.4,41.29,8,41.29Z"/><path class="cls-115" d="M8.44,37.46c.76.45,2.26,1,0,1.41-1.21.24-.8.82-.51,1.47-.58-.09-1.28.63-1.7-.16a8.67,8.67,0,0,1-.55-1.77c.75.4,1.1-.84,1.7-.5S8.2,37.83,8.44,37.46Z"/><path class="cls-114" d="M5.36,39.55c0,.35-.05.59-.32.54s-.3-.29-.37-.48.12-.26.19-.39Z"/><path class="cls-116" d="M11.77,17.75c.35,1,.9,1.93,0,2.91-.65.65-1.3.87-2.12-.23.21,1.14,1.24,1.83.7,2.86a2,2,0,0,1-2.34.54c-.46-.3-.77-.66-.58-1.25-.22-1-1.33-1.69-1-2.87C8,18.44,9.57,17.18,11.77,17.75Z"/><path class="cls-113" d="M7.47,22.58l.5.91a.85.85,0,0,1,.22.88C8,24.92,7.36,25,7,25.42l0,0A1.83,1.83,0,0,1,7.47,22.58Z"/><path class="cls-117" d="M4.62,23.23a2,2,0,0,1-.11-2.3A8.45,8.45,0,0,1,4.62,23.23Z"/><path class="cls-118" d="M7,52.81l.49-1a.83.83,0,0,1,1-.07A22.73,22.73,0,0,1,9.6,56.53c.09.59.5,1.47-.68,1.56-.76-.92-2-.38-2.87-1,.25-.89.11-1.9,1.21-2.48.8-.42.46-1-.25-1.34C7,53.14,7,53,7,52.81Z"/><path class="cls-119" d="M4.08,62A2,2,0,0,0,6,63c1.72.62,3.1,1.93,4.89,2.42a3.93,3.93,0,0,0,.67.19c.73.16,1.76.08,1.85,1,.12,1.16-1.07,1.09-1.8,1.41a3.14,3.14,0,0,1-1.43,0,14.29,14.29,0,0,1-2.19-1c-.55-.36-1.23-.6-1.34-1.38a5.1,5.1,0,0,0-2.46-2C4.26,63.16,3.27,62.59,4.08,62Z"/><path class="cls-120" d="M9.82,14c0,.67-.56,1.53.54,1.9C10.36,17,9.69,17,8.78,17s-1.48-.21-1.5-.77c0-1.13-1-1.77-1.14-2.74-.13-.72-.45-1.56.35-2.17.49.85,2-.41,2.25,1.12C8.83,13,9.44,13.45,9.82,14Z"/><path class="cls-5" d="M4.58,10.58c-.41-.4-.92-.76-.47-1.45C5.4,9.25,4.86,10,4.58,10.58Z"/><path class="cls-121" d="M33.39,117.14a5,5,0,0,1,1.45,1.92c.49.71.16,1.3-.5,1.41-1,.16-1.25-.64-1.43-1.43-.8-.87-1.59-.35-2.38,0a1.1,1.1,0,0,1-.34-.92c.27-2.59-1.39-4.9-1.1-7.5-.09-2.52.4-5.08-.48-7.53-.46-1.31,1.12-1.12,1.28-1.75-.75.33-1.41.51-1.48-.77.47-.88,1.42-1.07,2.19-1.52a6.19,6.19,0,0,1,.6-.23c1.4-1.4,2.29-.91,2.83.79a38.37,38.37,0,0,1-1.59,3.59c-2.81,1.29-.66,3.46-.83,5.18-.09,1,.3,1.72-.61,2.85s-.25,3.13,1,4.45C33.1,115.52,33.3,116.28,33.39,117.14Z"/><path class="cls-122" d="M30.52,118.09c0,.32,0,.64,0,1-1.2,1.83,1.41,2.87.94,4.55-.56,2,1.79,2.85,1.93,4.58-1.28,1.64-2.57-.7-3.85,0-.11-2.76.44-5.62-1.31-8.12-.23-.34,0-.75.34-1s.25-.56.51-.74C29.54,118.06,30,117.78,30.52,118.09Z"/><path class="cls-123" d="M32.91,119c.64-.33,1.25,2.74,1.93,0,1.65,1.37,3.52.21,5.28.47a.74.74,0,0,1,.11.61,2.51,2.51,0,0,1-.83,1,3.45,3.45,0,0,1-.54.28c-.82.2-.6.59-.18,1-.39.4-.2,1.57-1.43.87-.64-.37-1.55-1.62-2.36-.08l-2-2.68a1.07,1.07,0,0,1,0-1.47Z"/><path class="cls-124" d="M43.94,118.59l1,.94c.19.47.2.72-.37,1.08-1.27.83-.41,1.48.43,2.06a2.06,2.06,0,0,1-2.22-.17c-1-.68-1.44-.55-2.16.25-.45.51-.56.4-1-.82-.37-.21-.73-.42-.49-1l0,0C40.83,120.29,42.75,120.16,43.94,118.59Z"/><path class="cls-125" d="M39.14,121l.49,1-1,.48c-.59-.17-1.74.38-1.65-.62S38.33,121,39.14,121Z"/><path class="cls-121" d="M32.91,119.05v1.47c-.48-.09-.95-.22-.87-.86C32.11,119.17,32.52,119.12,32.91,119.05Z"/><path class="cls-30" d="M44.9,114.77c-.75-.88-.4-1.93-.44-2.91C45.28,112.73,44.78,113.79,44.9,114.77Z"/><path class="cls-126" d="M42.07,133c-2.78-.12-2.78-.12-2.41-3.84a1.11,1.11,0,0,1,1.37-.09l1,.08a2.54,2.54,0,0,0,1.11,1.06c.67.31,1,1-.16,1.34-.52.33-.41.89-.5,1.38A.23.23,0,0,1,42.07,133Z"/><path class="cls-127" d="M43,131.56c.5-.33.42-1.09.09-1-1.47.28-1-.74-1-1.37,1.23.91,2.18-.54,3.54-.42a7.43,7.43,0,0,1-1.37,3.14C43.69,132.64,43.16,132.52,43,131.56Z"/><path class="cls-6" d="M41,129.08l-1.37.09-1.45-.09c.87-.78,1.91-.3,2.87-.42A3,3,0,0,1,41,129.08Z"/><path class="cls-27" d="M42.07,133l.4-.07L44,133l-1.46.93-1-.05Z"/><path class="cls-128" d="M17.08,21.6l.94.07c2.75-.35,5.48.1,8.23.06a1,1,0,0,1,1.11,1C25.43,24.48,23,23.8,20.78,24A5,5,0,0,1,19,23.53C18.2,23,16.59,23.33,17.08,21.6Z"/><path class="cls-129" d="M10.36,23c-.39-.6-.74-1.23-1.16-1.8s-1-1-.3-1.6,1.21-.07,1.38.62c.28,1.12,1,.3,1.53.44,0,.15,0,.31,0,.46a.77.77,0,0,1,.18.54,1.49,1.49,0,0,1-1.16,1.56A.61.61,0,0,1,10.36,23Z"/><path class="cls-130" d="M27.11,23c-.22-1.19-1.16-.77-1.88-.85-2.4-.26-4.85.48-7.21-.44l.52-.17a14.77,14.77,0,0,1,6.21.08h1a1.05,1.05,0,0,1,1.44,0l.91.06a1.21,1.21,0,0,1-.37,1.5A.52.52,0,0,1,27.11,23Z"/><path class="cls-131" d="M24.75,21.58l-6.21-.08C20.64,19.42,22.69,20.8,24.75,21.58Z"/><path class="cls-132" d="M11.81,21.59a3.75,3.75,0,0,1,0-.47c1.27.12,2.53-1.06,3.8,0a1.39,1.39,0,0,1-.5,1.19,4.37,4.37,0,0,1-1.91.49C12.49,22.74,12.21,22.1,11.81,21.59Z"/><path class="cls-130" d="M15.19,22a.92.92,0,0,1,.47-.93c.52,0,1.09-.1,1.42.49,0,1.37,1.52.65,1.9,1.46C17.37,24,16.09,23.71,15.19,22Z"/><path class="cls-131" d="M27.15,21.58H25.71c.16-.48.33-.95.49-1.42l2.85.5C28.64,21.43,27.6,20.88,27.15,21.58Z"/><path class="cls-133" d="M29.07,19.69c0-1-1-2.25.62-2.8a1.77,1.77,0,0,1,2,.28c.83,1.06-.73,1.61-.7,2.53h0a1.41,1.41,0,0,1-1.93,0Z"/><path class="cls-134" d="M29,15.83c1.07-1.88,1.58-1.88,2.91,0Z"/><path class="cls-68" d="M29.08,19.7H31c.09,1.82-1.31.53-1.91.92C29.09,20.32,29.08,20,29.08,19.7Z"/><path class="cls-135" d="M19,121.93c.15-.41-.51-1,.09-1.2.3-.11.35.42.4.72,1.25-.11.7-.83.48-1.44,0-.52.08-1.09-.48-1.44a2.73,2.73,0,0,1-.48-2.66,1.3,1.3,0,0,1,.74-.89,1.17,1.17,0,0,1,.76.07c1,.84,1,2.07,1.32,3.17,0,.26.07.52.1.79a23,23,0,0,0,0,7.64c0,.18,0,.35,0,.53-1.23.29-2.6-1.61-3.76.22,0,0-.35-.2-.54-.3.93-.94-.72-1.87,0-2.81C18.85,124,19.09,123.08,19,121.93Z"/><path class="cls-136" d="M21.91,126.69c-1-2.66-.36-5.42-.51-8.13.42-.8-.26-1.65.09-2.45a1.34,1.34,0,0,1,.37-.54c.25-.08.4,0,.44.26l.09,2.71A1.2,1.2,0,0,1,22.3,120c-1,2.26-.16,4.52,0,6.79A2.64,2.64,0,0,0,21.91,126.69Z"/><path class="cls-137" d="M22.3,120l.09-1.48c.72.9.45,1.93.41,2.93C22.3,121.1,22.43,120.51,22.3,120Z"/><path class="cls-138" d="M25.28,110.89l-.07-.9c-.89-2.57-.4-5.26-.5-7.87a18.29,18.29,0,0,0-1.61-6.54c-1-1.47-.13-3.21-.7-4.74a3.3,3.3,0,0,1,.05-1c.6-1.78-.27-3.55-.05-5.33a2.15,2.15,0,0,1,.25-1.34.72.72,0,0,1,.64-.2A2.27,2.27,0,0,1,24.13,84c.37,1.3,1.22,2.42,1.43,3.79.29,3.63,1.37,7.17,1.26,10.85-.16,2.69.48,5.35.3,8a19,19,0,0,0-.41,2.81,2.28,2.28,0,0,1-.26.67l-.27.23-.47.48C25.56,111.11,25.42,111.12,25.28,110.89Z"/><path class="cls-122" d="M28.1,116.19l-.46,0c-.41-1.59.55-1.22,1.41-1,.76,1,2.35,2,.06,3C28.23,117.81,28.59,116.79,28.1,116.19Z"/><path class="cls-139" d="M29.06,115.69c-.62-.27-1.31-.77-1.42.48-.43.22-.43.22-.49-.48a1.47,1.47,0,0,1,0-1.55,1.63,1.63,0,0,1,1.59-.21A1.09,1.09,0,0,1,29.06,115.69Z"/><path class="cls-139" d="M28.1,116.19a2.62,2.62,0,0,1,1,1.91c.16.11.21.21.16.32s-.11.15-.17.15l-.5.48C27.31,118.28,27.84,117.21,28.1,116.19Z"/><path class="cls-139" d="M26.68,112.81a4.24,4.24,0,0,1-.5-2.4h.06c2-.22,1.43,1.25,1.45,2.31A.67.67,0,0,1,26.68,112.81Z"/><path class="cls-80" d="M25.28,110.89h.43l.09,3.77-.1.09c-.24.14-.37.07-.38-.21C25.3,113.33,25.29,112.11,25.28,110.89Z"/><path class="cls-138" d="M26.68,112.81h.95l.13.3a1.48,1.48,0,0,1-.59,1.12c0,.48,0,1,0,1.45C26.3,114.85,26.83,113.77,26.68,112.81Z"/><path class="cls-80" d="M23.29,95.53l.94.11c-.51,2,1.4,3.38,1.16,5.56-.33,2.87-.07,5.86-.18,8.79l-.52-1c-.19-1.88-1.18-3.62-.94-5.57-.7-2.05-.51-4.22-.86-6.32A1.75,1.75,0,0,1,23.29,95.53Z"/><path class="cls-140" d="M32,67.2l0,1c-.25.4-.52.77-1.09.61C30,68.89,29.52,67,28.78,68c-.44.62,1,1.32,1.61,1.94a6.14,6.14,0,0,1,1.39,2.93,1.31,1.31,0,0,1-.89,1.69c-.81.26-1.07-.34-1.28-1a5.58,5.58,0,0,0-1.71-2.47,3.59,3.59,0,0,0-1.12-.57c-.94-.54-2.38.06-2.63-2C24,67.1,23,66.91,22.9,66.24a3.74,3.74,0,0,1-.06-1c.2-1.39,1.64-1.78,2.24-2.84.9.13,1.29-1.29,2.5-.74.26.12.88-1.52.52-2.52.15-1.5-1.71-2.71-.66-4.35,1.44-1,2.07-.54,2.22,1.09.08,1,.08,2,1,2.76a2.29,2.29,0,0,0,1.44,0,3,3,0,0,0,2.26-.36c1.36.58,1.5,1.67,1.23,2.94a.67.67,0,0,1-.58.31c-1.82-.79-3.07-.67-4.22,1.41-.93,1.67-3.1,2-5.14,2.1,1.4.43,2.73-.47,4,.06.8.34,1.65.44,2.45.76A1,1,0,0,1,32,67.2Z"/><path class="cls-141" d="M36.27,86.9c-.07,1-1.87,1.51-1,2.88a1.44,1.44,0,0,1-.58.32c-.24,0-.64-.15-.66-.12-.36.55,0-1.82-.68-.16-.27.68-1.08.84-1.82.86A4.52,4.52,0,0,1,31,90.6c-1.06-.43-1.93.79-3,.35-1.29-1.32-1.2-1.88.37-2.35a4.94,4.94,0,0,1,1.43-.15c.46,0,1,.12,1.18-.51s-.1-.88-.54-1.17a2.44,2.44,0,0,1-.85-3.2c.69-1.52-.73-.54-.93-.94-.6-.86.61-1.82-.16-2.68,1.5-1.79,1.91-1.81,4.95-.27l.46,0c1.57,1.1.83,2.9,1.17,4.34a7,7,0,0,0,1.23,2.85Z"/><path class="cls-142" d="M28.11,70.58a5.29,5.29,0,0,1,2,2.53c.2.39-.3,1.29.65,1a.91.91,0,0,0,.41-1.54c-.72-.74-.41-1.86-1.16-2.52-.4-1-.6-1.78.95-1.44l1-.48c-.06.89.91.92,1.33,1.3-.42.92-1.1,0-1.6.6a8.54,8.54,0,0,1,2.21,4.82c-1.67.57-3.21,1.16-3.86,3.14a2.19,2.19,0,0,1-2.24,1.38c-.69-.46-.37-1.19-.48-1.81-.1-.9,1.57-1.65.2-2.64.08-.57,1.21-.88.41-1.68A2,2,0,0,1,28.11,70.58Z"/><path class="cls-143" d="M27.64,79.21A4,4,0,0,0,30.27,76c.31-2,2.38-.72,3.61-1.1.67,1.68-1.05,3.12-.47,4.79-1.57.52-3.42-1.7-4.81.49a.82.82,0,0,1-1.33-.25C27,79.57,27.05,79.2,27.64,79.21Z"/><path class="cls-94" d="M36.27,86.89c-1.2-.54-2.12-1.13-1.69-2.79.36-1.37-.86-1.64-2-1.74.33-1.17,1.33-.45,1.84-1l-.59-1.71,1.4.12C34.49,82.33,37.37,84.33,36.27,86.89Z"/><path class="cls-144" d="M32,67.2l0-1.43a3,3,0,0,0,.08-.32c.89-1.24,1.7-2.53,2.56-3.78l.28-.18a1.7,1.7,0,0,0,.44-.08c.2-.17.28-.44.49-.61a.42.42,0,0,1,.46.14l0,2c0,.31,0,.63,0,.94-.43.4-.52,1.29-1.43,1-.81.8-1.61,1.6-2.41,2.41A3.4,3.4,0,0,0,32,67.2Z"/><path class="cls-145" d="M34.84,64.82l1.43-1c-.16,1-.32,1.93-.47,2.9C32.74,67.46,35.81,65.13,34.84,64.82Z"/><path class="cls-146" d="M35.8,61l-.49.44c-.17-1.1,0-2.38-1.43-2.84-.9-.29-1.05-1.24-1.62-1.82a1.78,1.78,0,0,1-.23-.93,2,2,0,0,1,.15-.64,7,7,0,0,1,1-1.33C34,53,34.42,52.22,32.7,52a2.09,2.09,0,0,1-1.54-1.85c.18-1.39,1.46-1.89,2.37-2.47a2.21,2.21,0,0,0,1.19-2.53c-.26-1.18-.5-2.58-2.22-2.62a1.4,1.4,0,0,1-.81-1.06.92.92,0,0,1,.26-.63h.48a5.32,5.32,0,0,1,1.92-.48h.47c.32.49.64,1,1,1.46a2.75,2.75,0,0,0,1,3.34,9.26,9.26,0,0,1,0,3.36c-.46.27-.59.47-.52.69.64,1.87,1,3.74-.13,5.56a4.9,4.9,0,0,0-.4,2.53C36.23,58.49,36.67,59.71,35.8,61Z"/><path class="cls-147" d="M34.84,57.14c0-1.63,1.49-3.11,1.28-4.41s.83-3-1.37-4.24h2c1.23,2.88.93,5.78,0,8.67C36.13,58.06,35.49,57.74,34.84,57.14Z"/><path class="cls-148" d="M34.84,57.14c.65,0,1.3.43,1.95,0L36.73,59a1.63,1.63,0,0,1-.39,1.45,3.54,3.54,0,0,0-.08.45,3.55,3.55,0,0,1-.46,0A5.44,5.44,0,0,0,34.84,57.14Z"/><path class="cls-82" d="M36.34,60.49c0-.53-.14-1.08.39-1.45l1-1.44c.89,0,.77.43.46,1C37.45,59.09,38,60.83,36.34,60.49Z"/><path class="cls-22" d="M38.18,58.57a1,1,0,0,0-.46-1c.34-.55.9-.45,1.43-.46A1.43,1.43,0,0,1,38.18,58.57Z"/><path class="cls-149" d="M32,40.81v.48c-1.27,1.3-2.84,0-4.18.48-.74,2-.9,2-2.74.51.24-2.53,2.45-3.93,3.48-6,.22-.4.42-.82,1-.83a.38.38,0,0,1,.18.36c0,.14-.06.21-.1.21C28.65,38.46,30.75,39.42,32,40.81Z"/><path class="cls-150" d="M29.56,36c0-.16,0-.31,0-.47-.52.15,0-1.41-.95-.57-.78-.08-2.08.67-1.76-1.12,2-.85,1.51-2.71,1.7-4.29a2.77,2.77,0,0,1,.19-.62c1.23-1.33,2.18-.25,3.19.36a3.69,3.69,0,0,1,0,.47c-.66.52.06,1.37-.45,1.92h0a2.59,2.59,0,0,0-.18,2.41A1.59,1.59,0,0,1,31,36C30.52,36.58,30,35.85,29.56,36Z"/><path class="cls-92" d="M31,36c0-.38.27-1,.12-1.12-1.77-1.3-.49-2.21.35-3.18.33,1.34,1.55,1.95,2.39,2.88a2.55,2.55,0,0,1-1,1.91C32.64,34.93,31.75,35.75,31,36Z"/><path class="cls-151" d="M34.35,40.33c-.56.48-1,1.3-1.92.48-.1-.52-.19-1-.36-1.9Z"/><path class="cls-152" d="M27.63,23.06c.15-.47.29-.94.43-1.42,1.15.13,1.12,1.17,1.5,1.89L31.94,25a.94.94,0,0,1-.93.5c-.61-.08-1.21.15-1.82.07-.55-.29-.49-.88-.63-1.37A5.94,5.94,0,0,1,28,26.76a39.29,39.29,0,0,1-1,5.36,3,3,0,0,1-2.9,1.28c-1.07-2-.83-2.91,1-3.28a11.88,11.88,0,0,1-3.6-1.78c-.65-.29-1.11.38-1.72.36a1.47,1.47,0,0,1-.92-.34,2.82,2.82,0,0,1,2.65-3.46C23.86,25,25.46,23.2,27.63,23.06Z"/><path class="cls-92" d="M29.54,25.47c.08-.34.05-.8.54-.81s.73.42.93.81a5.17,5.17,0,0,1,.92,3.83c-1.06.45-1.88-.51-2.87-.49C28.21,27.55,28.17,26.41,29.54,25.47Z"/><path class="cls-92" d="M31.48,31.69c-.15-.71-1-1.59.45-1.92l.49.51A1.4,1.4,0,0,1,31.48,31.69Z"/><path class="cls-153" d="M33.39,117.14c-.48-.48-1-1-1.43-1.45-.41-2.83,1.21-5.38,1.11-8.2,0-.9.63-1.9,1.93-.81.93.78,2.15.33,3.24.36,2.64.06,3.75,1.34,3.17,4a7.17,7.17,0,0,0-.32,2.33c.21,1.7-.32,2.62-2.2,2.35a1.23,1.23,0,0,0-.91.17C36.69,117.26,35.3,118.11,33.39,117.14Z"/><path class="cls-154" d="M32.44,103.21c-.34-1.58.48-2.74,1.44-3.84-.13-.78.53-.85.86-.63,1.55,1.05,3,.62,4.49-.09a.77.77,0,0,1,.87.25c0,.16,0,.32,0,.47-.36.46-1.77.22-1,1.45-.86.73-2.73,1.29-.42,2.55.36.2.26.56,0,.81a.88.88,0,0,1-1.25.29,4.58,4.58,0,0,1-1.5-1.74c-.19-.6.29-1.46-.77-1.62s-1.38.62-1.74,1.33A1.21,1.21,0,0,1,32.44,103.21Z"/><path class="cls-155" d="M40.11,120c0-.16,0-.32,0-.48-.77-2.06.18-3.2,2.07-3.81a1,1,0,0,0,.81-1c1.69.51,1,1.79,1,2.88-.9.21-1.05,1-1.39,1.69C42,120.33,41.22,120.78,40.11,120Z"/><path class="cls-154" d="M39.64,101.29a1,1,0,0,1,.48,1c-.41.08-.9.67-1.2.09S39.49,101.72,39.64,101.29Z"/><path class="cls-95" d="M40.1,98.9a4.65,4.65,0,0,0-1.33.46c-1.36,1-2.63,1.44-3.91-.13-.29-.36-.7-.25-1,.14-1.2-1.07-1.2-1.07-2.4,0-.76-.61-.7-1.52-.86-2.35-.09-.53.6-1.22-.33-1.59a1.41,1.41,0,0,1,0-.93,11.47,11.47,0,0,0,1.39-2.58c1.32-1.09,1.85-.17,2.07.94a7,7,0,0,0,.61,2.67c.43-.11,1.22.45,1.23,0C35.62,94,37,93,37,91.51a4.61,4.61,0,0,1,.77,2.94C37.54,96,38,97,40,95.72,39.11,96.91,40.2,97.84,40.1,98.9Z"/><path class="cls-156" d="M34.36,95.53c-.66-.69-1.51-1.18-1.09-2.49.24-.76-.2-1.58-1.31-.87-1.32-.54-1-1.17,0-1.63a20.88,20.88,0,0,1,2.87-.77h.49Z"/><path class="cls-93" d="M40.11,120c1.85.39,2-1.24,2.6-2.26.43-.72.35-.77,1.24-.14,0,.33,0,.65,0,1-.69,2.58-2.73,2.46-4.75,2.37A1.5,1.5,0,0,1,40.11,120Z"/><path class="cls-100" d="M5.53,92.16c.44-.68,0-2,1.47-1.9.72.61,2.65-.8,2.4,1.43-1.47.81-.49,2.51-1.26,3.2-.1.67.44.37.13.41-.1,0-.15-.06-.1-.2.39-1.14.1-2.53,1.23-3.41.52.25,1,.37.95-.48a1.15,1.15,0,0,1,.8-1.56,1,1,0,0,1,.52.39,18.22,18.22,0,0,1,0,6.42c-.08.63.37.63.36,1a1.18,1.18,0,0,1-.33,1.33c1.14-.14,2.34-.76,3.14.59-.57,2-2.44,2.7-4,3.42-1.37.63-1.62-.67-1.66-1.82,0-.85,1.11-1.82-.22-2.55l0,0c-1.67-1-1.28-3.28-2.86-4.29A3.12,3.12,0,0,0,5.53,92.16Z"/><path class="cls-157" d="M9.88,67.63l1.41.05c1.07-.34,2.48.11,2.77-1.78.15-.94,1.19-1,1.7.08.25.5.31,1.06.57,1.57C17.07,69,17.9,70.41,19.59,71c.1.69-.42,1-.82,1.4-1.11.91-2.24,1.58-3.68.3,1.46,1.7-.84,2.36-.88,3.65,0,.16,0,.31,0,.47-.68,1.19-1.67,0-2.47.32a3.38,3.38,0,0,1-1.85-.31l-.46,0a7.44,7.44,0,0,1,.31-1.1c3.34.38,2.33-2.3,2.7-3.92.18-.79,1.61,0,1.29-1.19a.62.62,0,0,0,0-1,8.3,8.3,0,0,0-2.88.49c-1.16,0-.37-.77-.48-1.18C10.39,68.42,9.56,68.23,9.88,67.63Z"/><path class="cls-158" d="M15.15,85.93c-1.27.08-1.8-.67-2-1.8,1.27,0-.95-3.55,2-2,.44.23,1.27-.62,1.64-1.24-.58-.83-1.12-.17-1.63-.24s-1.29.18-1.39-.57c-.15-1.21,1,.53,1.12-.41.05-.34.44-.64.67-1-.1-1.71-.1-1.71,1.16-1.13-.12.25-.11.22.12,0,1.94-1.46,2.37.12,2.93,1.45S19,82,20,83.58c.44.7-.87.83-1.44,1.15C17.61,85.75,16.89,87.25,15.15,85.93Z"/><path class="cls-159" d="M19.45,79.22c-.11-2.12-2.17-1.26-3.22-2-.45-.31-.52.89-.61,1.47A.9.9,0,0,1,15,77.41c.24-.69-.16-1-.83-1.07-.83-1.29-.8-1.21.44-1.73.91-.38.19-1,0-1.55s-1.17-.68-.34-1.28c.47-.35.87.08,1.16.48,1.13,1.55,2,.24,3-.25.42-.19.61.08.76.4.21,2-1.86,1.29-2.58,2.19.47,1.36,1.9.58,2.64,1.26a2.49,2.49,0,0,1,.45.47c.53,1.37,2,1.52,3,2.25.67,1.57-.43,1.72-1.51,1.88C20.52,80.24,20.15,79.51,19.45,79.22Z"/><path class="cls-160" d="M15.15,85.93c1.79.6,2.17-.92,2.89-1.92a5,5,0,0,1,1,6c-.37.71-1.11,1.08-1.56,1.73s-.36,1.61-1.31,1.3c-.73-.25-.72-1.15-.71-1.85A1.7,1.7,0,0,0,14.89,90a2.13,2.13,0,0,1-.57-1.22c.71-.88.71-.88,2.17-.72.32,0,.19-.46.17-.14,0,.12-.08.14-.2.15-.82.07-1.42-.12-1.31-1.13Z"/><path class="cls-161" d="M9.9,87.85h3.82A1.07,1.07,0,0,1,14.4,89c-1,1.47-1,1.46-2.4.52,0,0-.31.48-.67.28h0C10.05,89.71,10.21,88.6,9.9,87.85Z"/><path class="cls-162" d="M11.79,76.81c.8-1.33,1.6.79,2.4,0l-1.33,3.56-1.55-2.59A1.16,1.16,0,0,1,11.79,76.81Z"/><path class="cls-158" d="M14.21,88.8l-.49-1,1.43-1c.21.77,1,.81,1.51,1.2-.45.86-1.75-.76-2,.72C14.52,89,14.36,89,14.21,88.8Z"/><path class="cls-163" d="M9.9,87.85l1.42,1.91c-.33.48-.65,1-1,1.45C9.44,90.19,10,89,9.9,87.85Z"/><path class="cls-99" d="M11.79,76.81a1,1,0,0,1-.48,1c-.7,0-2.07,1-1.44-1C10.51,76.35,11.15,76.8,11.79,76.81Z"/><path class="cls-99" d="M9.48,80.54c-.82-.24-1.07-.66-.94-1.27,0-.14.44-.35.48-.31A1.66,1.66,0,0,1,9.48,80.54Z"/><path class="cls-164" d="M9.94,83.89c-.59.16-1.13.26-1.4-.42,0-.13.19-.53.21-.52A1.58,1.58,0,0,1,9.94,83.89Z"/><path class="cls-103" d="M7.48,81.62c0-.5,0-1,.11-2.17.52,1.24,1.33,1.86-.12,2.16Z"/><path class="cls-165" d="M10.83,68.65c.17.48-.55,1,0,1.45-.68.52-2.34.59-.91,2.08.25.26.67.88-.13,1.09-.45.12-1.25-.54-1.26.43,0,1.21,1.28-.1,1.59.67-.25,1.55-2.79-.45-2.6,2.17C6.88,75.25,5.85,75,5.08,74.41c-.67-.39-1.62-.77-.61-1.67s.86-3.68-.6-4.25c-.7-.27-1.2-.44-.71-1.27h0c.31-.09.17-.19,1-1.19.56-.67,1.64-.1,2.46-.29L8,66.65c.51.33-1.23,1.12.22,1.19A9.49,9.49,0,0,1,10.83,68.65Z"/><path class="cls-109" d="M3.16,67.22c-.11,1.82,2-.52,2.31,1.3.2,1.1-.34,2.21.24,3.2.35.59.79,1.13,1.29,1.84-1,.26-1.64-1.17-2.45-.36-.12.11.34.79.53,1.21l-1,.48a5.61,5.61,0,0,1-.3-4.14c.18-.72,0-1-.67-1.14C3.27,68.81,2.12,68,3.16,67.22Z"/><path class="cls-166" d="M13.71,69.61c.44,0,1,.06,1,.58s-.68.27-1,.4C13.18,70.26,13.68,69.94,13.71,69.61Z"/><path class="cls-167" d="M8,109.46c-.45-.69.07-1,.49-1.45.68-.51-.18-1.4.48-1.92h0a2.65,2.65,0,0,0,2.21-1.6c.27-.57.39-1.17.7-1.72,1.23-2.14,2.23-2.23,3.6-.24a7.93,7.93,0,0,1,.74,1.22c0,3,1.65,5.91.26,8.94a13.42,13.42,0,0,1-3.53,2.44c-1.51-.35-2.34,1.93-4,1.05-.7-.51-.41-1.26-.48-1.92C6.81,112.8,8.33,111,8,109.46Z"/><path class="cls-168" d="M13.24,123.37c-2-1.05-3.17-2.92-4.8-4.32,0-.32,0-.65,0-1,1.78-1,3.93-.25,5.74-1.16a1.44,1.44,0,0,1,.65.08,1.51,1.51,0,0,1,.65,1.71c-.34,1.82-1.89,2.94-2.26,4.66Z"/><path class="cls-167" d="M14.2,117.13c-1.7,1.65-3.82.72-5.75,1a1,1,0,0,1,.46-1c1.6-.13,2.44-1.71,3.92-2.07C13.79,115.43,14.8,115.75,14.2,117.13Z"/><path class="cls-169" d="M12.75,115.22c-.07,0-.22,0-.22,0-.18,2.61-2.12,1.82-3.62,1.88v-.95c1.43-.11,2.3-1.66,3.85-1.45a.32.32,0,0,1,.1.33C12.83,115.16,12.79,115.22,12.75,115.22Z"/><path class="cls-169" d="M8,109.46c1.33.88.2,2.06.28,3.08a4.24,4.24,0,0,0,.2,1.72c-1.66-.66-1.45-2.1-1.3-3.41C7.18,110.36,7.66,109.92,8,109.46Z"/><path class="cls-169" d="M8.92,106.09c0,.68.68,1.53-.48,1.92-.22-1-1.17-1.09-1.91-1.43-.1-.76.66-1,1-1.45C8,105.43,8.17,106.17,8.92,106.09Z"/><path class="cls-169" d="M15.63,103.69c0-.06-.08-.17-.14-.19-1-.33-.89-2.59-1.89-1.9a4.42,4.42,0,0,0-2.17,4c.12,1.2,0,1.22-2.51.54.16-.17.46-.35.45-.52-.07-1.17-.72-2.79,2.18-1.36C9.7,103.09,8,102.76,8,100.81c0-.16,0-.31,0-.47.45-.58,1.47-.87,1-1.92,1,.18,1.37.64,1,1.65-.31.79-.53,1.87.1,2.33,1,.7,1.4-.65,2.09-1.05a6.32,6.32,0,0,0,2.59-2c0-.65-.76-1.47.17-1.91.68-.32,1.12.38,1.52.87a1.69,1.69,0,0,1,.33,1.09c-.09.57-.05.68.48.77a1.79,1.79,0,0,1,.31,2.46c-.75.26-.08.8-.23,1.18C16.63,104.76,16.14,104.09,15.63,103.69Z"/><path class="cls-170" d="M13.23,123.37c-.05-1.52,0-2.92,1.63-3.82a2,2,0,0,0-.18-2.41c-.22-1.15-.19-2.26.94-2.94.77-.46,1.35,0,1.77.64a9,9,0,0,1,.3,3.68.36.36,0,0,1-.61.06c.24,1.56-2.27,2-1.5,3.88C15.78,122.93,14.57,123.4,13.23,123.37Z"/><path class="cls-137" d="M17.08,118.58l.45,0a10.15,10.15,0,0,0,.06-1.83c.18-1.16.71-1.68,1.88-1,0,1,0,1.93,0,2.89A1.62,1.62,0,0,1,17.08,118.58Z"/><path class="cls-137" d="M19,121.93a1.63,1.63,0,0,1,.39,2.21c-.4.83-1.23-.07-1.83.19C17.83,123.41,17.53,122.14,19,121.93Z"/><path class="cls-137" d="M20,120a1.1,1.1,0,0,1,.25,1.61c-.2.29-.53.11-.73-.17C20.05,121.11,19.94,120.54,20,120Z"/><path class="cls-171" d="M10.37,65.76A7.51,7.51,0,0,1,6,63a1.05,1.05,0,0,1,1-.57c.49-.31.12-1,.66-1.32L8,61a2.35,2.35,0,0,0,2.4-1c1.89-.55,3.31.91,5,1.16a1.56,1.56,0,0,1,.56.35c.78,1.94.36,3.27-1,3.35-.51,0-.41-1-.66-.48-.63,1.32-1,2.56-2.49.67-.09-.12.09.22,0,.37C11.51,66.31,10.94,66,10.37,65.76Z"/><path class="cls-111" d="M8.92,58.09c.54-1.23,0-2.39-.35-3.53a5.25,5.25,0,0,1-.15-2.75.61.61,0,0,1,0-.91c.41-.41,1.61,1.62,1.47-.48,1.08-.18,2-1.19,3.2-.65a1.84,1.84,0,0,1,1.34,1.93c-.19.58-.82.67-1.16,1.09a1.06,1.06,0,0,0-.32.83c.35-.2.06-.68.38-.9.63-.36,1.07,0,1.48.4a1.87,1.87,0,0,1,.24.63c.1,1.61,0,2.82-2.26,2.41-2-.38-.82,1.72-1.56,2.38a2.11,2.11,0,0,1-.87,1C9.75,59.18,8.93,59,8.92,58.09Z"/><path class="cls-118" d="M10.35,59.54a1,1,0,0,1,.48-1c1.83-.39,3.42-.11,4.56,1.55.4.56.39,1-.23,1.33-.84.75-1.73-.05-2.19-.33-.89-.52-1.46-1.39-2.39-.12a6.76,6.76,0,0,1-.23-1Z"/><path class="cls-112" d="M6.52,61c0-.69-.07-1.68.81-1.67,1.05,0,0,1.25.62,1.67H8a1.09,1.09,0,0,1-1.43,0Z"/><path class="cls-110" d="M6.52,61H8a3.24,3.24,0,0,0-.34,1.34c0,.8-.34.42-.62.1C6.84,61.93,6.68,61.45,6.52,61Z"/><path class="cls-90" d="M14.21,51.85c-.67-2.81-2.84-1.11-4.33-1.43,0-.08,0-.18,0-.24-1.47-2.31,1.1-2.92,1.81-4.32.38-.76,1-.26,1.44-.2,1.14.14,2.25,1.51,3.42-.25.31-.46.9.52,1,1.17,1.78,1.77,2.62,1.81,3.77,0-.85.17-1.65.78-2.34,0l.49-1.93a.82.82,0,0,1-.12-.94c.61-.41.94.42,1.47.35.28.16.09-.44.06-.12a2.15,2.15,0,0,1-1.55-1.22c.58-1.8,2,.7,2.69-.53.33,0,0-.06,0,0a1.12,1.12,0,0,1-1.8-.31c-.38-.84,0-2-1.08-2.65.25.46.65.86.17,1.36s-3.75.47-4.61-.21c.54-1.37.54-1.41-.81-1.66-.87-.16-.68-1.45-1.72-1.35a1.25,1.25,0,0,1,1.67-.57c.49.18,1-.17.76-.52-1.39-2.42,1.2-1,1.58-1.68a.74.74,0,0,1,.91-.13c.65,1.93,1-.07,1.48-.13a3.87,3.87,0,0,1,1.61-.3h.65A8.06,8.06,0,0,0,23,33.89a2.37,2.37,0,0,1,.65,0c.55.13,1.1.27,1.28.92-1.69.68-.88,2.52-1.74,3.7,1.17-.25,2-.61,1.22-1.93-.59-1,1-1.19.67-2,.05-.65.52-.9,1-1.13a1.58,1.58,0,0,1,.65,0c.32.13.57.31.43.72.38,1.14,1.31.17,1.9.5.34.64-.94,1.28,0,1.92l-3.84,5.76c.39.9-.46,1.63-.35,2.5a3.69,3.69,0,0,1-1,1.24c-1.27.7-.55,2.55-1.94,3.34-.24.14.43,1.88.62,2.9a.84.84,0,0,1-.48.78,3.71,3.71,0,0,1-2.21-.1c-.24-.35-.13-.85-.51-1.14a1.93,1.93,0,0,1-.45-.8,1.82,1.82,0,0,0,.59,1,1.87,1.87,0,0,1-1.24,2.46c-.88.31-1.63,0-1.73-1.25,0-.28-.85.07-1.29-.13A2.07,2.07,0,0,1,14.21,51.85Z"/><path class="cls-172" d="M11.81,21.59c.68,0,.88.65,1.38.89.7-.12.84.39,1,.88a3.48,3.48,0,0,1-.13,1.89,1.16,1.16,0,0,1-.85.68c-1.15.83-.16,2.75-1.78,3.39-.38.15-.21,1.38-.92,1.05a2.07,2.07,0,0,1-.92-1.94c.12-1.88-.89-2.71-2.57-3,0-.63.34-.89.92-.93.8-.79,2.32-.17,2.85-1.47C11.14,22.54,11.48,22.07,11.81,21.59Z"/><path class="cls-173" d="M14.67,40.34c1.43-1.2,3,.75,4.35,0,.49-1.2-1.94-.56-.79-1.76.95-1,1.36.25,1.71.8s2.27.84.6,2.29c-.26.22,1.61-.09,2.57,0-.84,1.88-2.58.28-3.63,1a.67.67,0,0,1,0,1v.94a1,1,0,0,1-.5-.93c-.44-.9-1.38.09-1.9-.5A1.5,1.5,0,0,0,15.37,42C13.51,42.16,14.1,41.23,14.67,40.34Z"/><path class="cls-174" d="M13.66,25.41l.11-1.81c1.17-.55,1.84-.24,2.25,1.23s.28,2.8.64,4.16a6.56,6.56,0,0,1,.09.76c0,.91.42,1.76.37,2.68s-.25,1.73-1.49,1.19l-.44,0A12.1,12.1,0,0,1,13.66,25.41Z"/><path class="cls-175" d="M13.66,25.41c0,2.82,1.37,5.38,1.53,8.17-.72.6-1-.13-1.47-.45h0c-1.07-2.34-.58-4.78-.5-7.2Z"/><path class="cls-176" d="M15.63,33.62c1-.06,1-.8,1-1.51a.61.61,0,0,1,.57,0,2.67,2.67,0,0,0,1.71.48c.57,0,1.14,0,1.7,0a2.6,2.6,0,0,1,1.76.52c.2.69-.28.85-.77,1a5.85,5.85,0,0,1-1.82-.21c-.67-.24-.44.41-.41.09,0,0,.06,0,.19,0,.44,0,1-.09.87.65l-1.92.06c-.51.26-1-.09-1.48-.08l-.88.05C16,34.25,15.8,33.93,15.63,33.62Z"/><path class="cls-177" d="M11.8,36c-1.15-.31-2.5-.2-3.37-1.62,1.35-.14,2.49-.46,3.37.66A.65.65,0,0,1,11.8,36Z"/><path class="cls-90" d="M17.08,43.21c.73-.2,1.62-1,1.9.5-.37.06-.95,0-1.05.21-.44.84-.38.87-1.34.26Z"/><path class="cls-90" d="M11.8,36v-1c.44.12,1.23-.23,1.15.59C12.9,36.13,12.22,36,11.8,36Z"/><path class="cls-90" d="M13.72,33.13c-.09,1-.75,1-1.55.9.35-.76,1-.81,1.55-.9Z"/><path class="cls-178" d="M19,46.57a11,11,0,0,1,1.4-.08c.77.06-.16-1.64,1-1,.7.4.49,1.26.47,2,0,1-.79,1-1.51,1-1.53.18-2.74,0-2.78-1.93Z"/><path class="cls-179" d="M6.45,45.55c1-.29,1.06-1.1,1.52-1.62.59,1.06,2.3.79,2.56,1.9.1.44-1.69-.31-2.07.85C8.1,46,7.24,46,6.45,45.55Z"/><path class="cls-180" d="M8.41,50.9c0,.3,0,.61,0,.91l-.94,0c.13-.49-.29-1.09.24-1.47C7.8,50.33,8.17,50.71,8.41,50.9Z"/><path class="cls-181" d="M10.8,23c0,2.41-1.82,1.14-2.85,1.47,0-.34,0-.67,0-1A3.25,3.25,0,0,0,10.36,23,1.29,1.29,0,0,0,10.8,23Z"/><path class="cls-178" d="M10.37,65.76c.36-.08.87,0,1.07-.27.39-.43-1.14-.58-.31-1.09.34-.2,1.17-.43,1.34.71.15,1,.89.44,1.06-.1a7.2,7.2,0,0,1,1.32-2.24c.61.55-.1,1,0,1.64,2-.56.89-1.9.8-3,.44-.54,1.1-.53,1.7-.66a1.21,1.21,0,0,1,.62.09c.81.62-.09,1.39.17,2.07a2.18,2.18,0,0,1,.22,2.62c-.45.66-1.14,1.38.35,1.61a.21.21,0,0,0,.23-.06c.21-.2.16-.11-.08-.15-1.87-.35-.4-1.31-.22-1.86.31-.91-.18-1.51-.46-2.22a3.56,3.56,0,0,1,1-2.49.71.71,0,0,1,.62.19,2.24,2.24,0,0,1,.13,3.4c-.35.65.22.44-.09.4-.1,0-.07-.08,0-.23.2-.69,1-1,1-1.85-.17-2.46,1.19-1.88,2.56-1.3.48.25.59,1.15,1.42.79a.76.76,0,0,1,.57.09.4.4,0,0,1-.07.52c.46,1.69-1.89,1.51-1.91,2.88a1.66,1.66,0,0,1-2.06.56c.51,1.11,1.43-.08,2,.4a4.29,4.29,0,0,0,3.85,3.84c.2.79-.29,1-.91,1.13-1.58-.18-3.08-.91-4.49.87-1.13,1.43-1.21-1.29-2.28-1-3-.76-2.95-.75-2.85-1.58.2-1.5-2.41-2-1.29-4.09-1.15,1.59-1.83,3.43-4.05,2.3l1.81-.84C12.38,65.67,11,66.72,10.37,65.76Z"/><path class="cls-99" d="M10.83,68.65l-2.27-.28c-1.38-.18-1.25-.86-.55-1.72a3.93,3.93,0,0,1,1.87,1C9.85,68.29,11.06,67.81,10.83,68.65Z"/><path class="cls-182" d="M30.5,94.59c0,.31,0,.62,0,.93a1.06,1.06,0,0,1-.54.31A1.92,1.92,0,0,0,28.33,97a4.21,4.21,0,0,0,.17,3l.09.3c0,1.31,1.09.73,2.15,1-1.65.66-1.52,1.73-1.18,2.85.68,2.24,0,4.49,0,6.73l-.29.19c-1.86-.45-1.15-2.53-2.21-3.48a41.14,41.14,0,0,0-.87-9.19c.19-3.58-1.18-7-1-10.6.58-.59-.76-1.37.19-1.92.79-.14,1.13.87,1.94.77.11-1.36,1.05-2.47,1.08-3.84l.21-.25c.53,0,.83-.37,1.2-.67a.6.6,0,0,1,.84.16c.34.4-.1.54-.22.83-.58,1.39-1.42,3,1,3.59.44.1,1.11.55.55.93s-.12,1.83-1.48,1.67a5.16,5.16,0,0,0-2.3.1c-1.73.56-.34,1-.06,1.56a3.07,3.07,0,0,0,1,1.42c.11.83-1,1-.88,2a3.78,3.78,0,0,1,1.7,0A1.21,1.21,0,0,1,30.5,94.59Z"/><path class="cls-182" d="M29.08,118.57a3.69,3.69,0,0,1,0-.47c1.67-.82.1-1.61,0-2.41,0-.53.08-1.09-.46-1.44a1.6,1.6,0,0,1-.47-1.34,2.09,2.09,0,0,1,1.39-2l0,0c.72,1.69.14,3.68,1.32,5.3a1.42,1.42,0,0,1-.36,1.9Z"/><path class="cls-183" d="M30,95.55a3.71,3.71,0,0,0,.47,0c1.26.12.31,1,.48,1.45-.86.8.12,1.6,0,2.4-.75.45-1.39,1.16-2.4,1h0c.6-1.24-.78-2.57.18-3.8A4.36,4.36,0,0,1,30,95.55Z"/><path class="cls-154" d="M31,99.37c-.56-.8-2-1.6,0-2.4.16.8.32,1.6.49,2.4Z"/><path class="cls-184" d="M16.1,29.3a15.85,15.85,0,0,1-.47-3.5c-.06-1.08-.13-2.42-1.86-2.2a1.33,1.33,0,0,0-.58-1.12c.56-.6,1.33-.31,2-.44a5.4,5.4,0,0,0,3.79,1c2.72.56,5.42.11,8.13-.1l.52.1c-.58,1.37-1.89.77-2.88,1.06,0,.56,1,.36.79,1s-.83.08-1,.16c-1.1.55-2.18-.05-3.27.09-1.66.23-1,.73-.13,1.26-.78.65-3.18-1-2.14,1.68l-.21.24C17.9,28.82,17.1,29.41,16.1,29.3Z"/><path class="cls-185" d="M19.47,115.68c-2.36-.2-.78,2.26-1.94,2.87-.7-1.2-.39-2.52-.45-3.8,0-.61-.4-1.2-.08-1.83,1.49-2.08.35-4.3-.15-6.2a4.61,4.61,0,0,1,.24-3c0-.32-.57-.62,0-1,1,.15,1.48-2.06,2.79-.64.52,1.42.27,2.89.34,4.35-.27,2.92.13,5.86-.24,8.78Z"/><path class="cls-136" d="M19.48,106.57l-.09-4.8a1.73,1.73,0,0,1-.37-1.26,2.56,2.56,0,0,1,.13-.67,4.55,4.55,0,0,1,.41-1c1.19-1.11,1.3,0,1.57.76.16,1.19-.25,2.41.24,3.58l.5,12.48-.06.11c-.48.72.16,1.64-.45,2.33l-.9-2.93c-.8-1.87-.57-3.88-.74-5.84C19.63,108.44,20,107.47,19.48,106.57Z"/><path class="cls-137" d="M19.48,106.57a41.84,41.84,0,0,1,1,8.64h-.52C18.88,112.38,19.63,109.45,19.48,106.57Z"/><path class="cls-186" d="M21.36,118.14c.19-.77-.32-1.67.45-2.33,0,.93.43,1.94-.41,2.75A1.2,1.2,0,0,1,21.36,118.14Z"/><path class="cls-187" d="M19.48,71.05c1.73-1.7,1.32.19,1.49,1,1.35-.21,1.48-2.61,2-2.07,1,1.07,2.66-.55,3.2,1.08-1.1.79-.82,2.36-1.82,3.22-.28.24,0,.31.16.41,1.37.69.59,1.51.14,2.31a4,4,0,0,1-.3.53A1.54,1.54,0,0,0,24,78.57a7.91,7.91,0,0,1,.28,4.69,1.92,1.92,0,0,1-.25.61l-.25.21a1.11,1.11,0,0,1-.47-1c-.21-.08-.11-.46-.4-.41-.06,0-.07.26-.1.4l0,1.44a2.72,2.72,0,0,1-1.51,1.17,1.38,1.38,0,0,1-.64,0,36.5,36.5,0,0,1,.24-5.43c.6-.36,2,0,1.42-1.46-.32-.74-2.45-.44-1.23-2.11.06-.08-.22,0-.32,0a1.29,1.29,0,0,1-1.32-.34h0c.27-1.33,1.23-2.75-.48-3.84L18.52,72Z"/><path class="cls-188" d="M21.37,85.43a1.54,1.54,0,0,1,1.47-.94c-.07,1.78,1,3.53.09,5.32a1,1,0,0,1-.34-1.1c-.11.37.05,1.16,0,1.93-.41.86,1.14,2.76-1.34,2.51-.74-1.16-.45-2.37-.19-3.58a10.48,10.48,0,0,0,.3-3.82C21.36,85.64,21.36,85.53,21.37,85.43Z"/><path class="cls-189" d="M29.52,110.92c-.25.66-1,1.07-.93,1.89a.61.61,0,0,1-.93,0h0c-.7-.68,0-2.16-1.4-2.42,0-.15,0-.29,0-.44.7-.64-.16-1.73.67-2.33l.3-.11C29,107.91,27.89,110.37,29.52,110.92Z"/><path class="cls-189" d="M26.19,98.41c.46,1.71,1.29,3.3,1.17,5.17a22.52,22.52,0,0,1-.18,3.94l-.06,0c-.41.1-.61,0-.49-.48Z"/><path class="cls-190" d="M21.44,93.22c1.55-.36,0-1.88.92-2.48.15-.23.29-.22.43,0,1,1.51,0,3.23.5,4.79,0,.48,0,1,0,1.45-1.11-.15-1.21-1.52-2.21-1.8A1.59,1.59,0,0,1,21.44,93.22Z"/><path class="cls-188" d="M25.24,85.93c-.23.62,1,1.29-.07,1.88-.42-1.26-1.45-2.29-1.39-3.73V84c1.18-.08,1.14.93,1.45,1.62Z"/><path class="cls-80" d="M26.63,107.07l.49.48c-.72.65.32,2-.91,2.41C26.33,109,25.83,107.94,26.63,107.07Z"/><path class="cls-191" d="M22.79,90.74h-.43c.1-.81-.24-1.66.19-2.47.53.44.23,1,.38,1.54C22.88,90.12,22.84,90.43,22.79,90.74Z"/><path class="cls-188" d="M22.81,83.05c-.57-.59.28-1,.5-1.47v1.48Z"/><path class="cls-192" d="M27.66,112.81h.93c0,.48,0,1,0,1.44H27.17C27.33,113.76,27.49,113.28,27.66,112.81Z"/><path class="cls-193" d="M21.37,103.22c-.89-1.17-.28-2.54-.52-3.8l.24-.19.22.21.07,0,0,1.4Z"/><path class="cls-194" d="M25.23,62.41c0-.15,0-.31,0-.46s.05-.29-.1-.32-.35.11-.39.32-.3,1-.43,1c-.94,0-.5-1.1-1-1.5,0-.47-.05-.92-.59-1.11.14-.5,1-.88.18-1.54s-.66-1.52-1.08-2.24c-.6-.56-1.95.39-2.12-.92-.19-1.58,1.28-2,2.18-2.81l.49-.48c.13-.84.34-1.67.54-2.5.32-1.33,1-.95,1.6-.43,0-1.14-2.81-1.88-.48-3.51a9.18,9.18,0,0,1,1.33-1,1.51,1.51,0,0,1,1.69.88c.14,1.7.65,3,2.73,3,1.05,0,1.39.83,1.71,1.63h0a1.73,1.73,0,0,1,.05,1.9c-.41.3-.94.45-1.26.89-.63.85-1.78.22-2.48.88-1,.07.58,3.15-1.83,1.6-.11.21.12.25.2.35.78,1,1.14,2.4,2.43,3-.62.79,1.52,1.71,0,2.28C27.52,61.74,26.81,63.56,25.23,62.41Z"/><path class="cls-195" d="M24.27,77.3c-.1-.89,1.61-2.59-1.05-2.39-.08,0-.21-.52-.31-.8,2.21.17,1.14-3.16,3.26-3.08a1.52,1.52,0,0,0,1-.94,1,1,0,0,1,.95.49c.41.75-.86,1.85.5,2.41.3,1-1.08,1.05-1,1.91s1.16.69,1.89,1c-.8.6-2,.63-1.9,1.86A9.79,9.79,0,0,0,24.27,77.3Z"/><path class="cls-196" d="M32,65.77c-.54.08-.9,1.07-1.42.58-1.58-1.46-3.22-.4-4.83-.29-.16,0-.34.34-.42,0-.13-.63.15-1.27.75-1.28,1.27,0,2.11-1,3.18-1.25s1.24-.78,1.56-1.54c.79-1.87,2.63-2.06,4.1-.45h0c-.56.35-1-.37-1.56-.26-.19-.18-.07.42,0,.12s.11-.2.2-.09c1.15,1.55-.51,2.44-.92,3.61-.08.24-.52.52-.66.9Z"/><path class="cls-197" d="M30,52.81c.09-.62.19-1.21,1-.49s1.94.85,2.38,1.94a1.62,1.62,0,0,1-1,1c-.45.15-.07.33,0,.49,0,.32,0,.63,0,.94,1.38,1.12.53,1.78-.49,2.41a1.27,1.27,0,0,1-1.43,0c-.46-1.24-1.63-2.32-.94-3.84A3.76,3.76,0,0,0,30,52.81Z"/><path class="cls-198" d="M28.59,59.05c-.75.53-1.51,1.11-1.8-.4-.25-1.29-.25-1.29-1.62-1.18.85-1.25.85-1.25-.84-1.92a2.26,2.26,0,0,1,2.83.4V53.28c1.12.17.84.8.48,1.45C26.83,56.42,29.3,57.38,28.59,59.05Z"/><path class="cls-199" d="M27.64,54.73c0-.53.08-1.1-.48-1.45.84-.91,2.1.8,2.88-.47a1.76,1.76,0,0,1,.3,2.34c-2.19,1.83.22,1.71.9,2.32-.47.44-2,.41-.72,1.59-1-.24-1.53-1-1.37-3C29.27,54.51,28.3,55,27.64,54.73Z"/><path class="cls-200" d="M31,68.65c-1,0-1,.74-.95,1.44-1-.24-2.67-2.89-2.16-3.52.36-.45.86-.31,1.22.05C29.76,67.27,30.37,68,31,68.65Z"/><path class="cls-201" d="M23.31,66.25c-1.48,1.2-2.55,1.44-2.49-1.3.8.85,1.65.58,2.5.34C23.31,65.61,23.31,65.93,23.31,66.25Z"/><path class="cls-199" d="M32,59.05c.43-.75,1.31-1.4.49-2.41,1.22.09.9,1.33,1.44,1.93C34,59.74,34,59.74,32,59.05Z"/><path class="cls-187" d="M24.27,77.3c1.23-.62,2.45-1.22,3.36.46.56.48-.15,1,0,1.45-.39,1,.47.81,1,1,.41.81,1.13-.09,1.77.34-.38.9-2,.78-1.78,2.06h0A9.42,9.42,0,0,1,24,79.16c.61-.55.12-1.25.26-1.87Z"/><path class="cls-202" d="M30.5,94.59l-.44,0a14.09,14.09,0,0,0-1-2.36c-.56-.12-1.32.29-1.64-.42-.22-.51.57-.61.72-1,1,.24,1.66-1.78,2.87-.48a2.34,2.34,0,0,0-.31.32l.3-.33c.54-.11,1.34,0,1.57-.38.79-1.15,1.49-.68,2.27-.1a4.89,4.89,0,0,1-2.49,1c-1,.23-1.09.72-.38,1.42A2.32,2.32,0,0,1,30.5,94.59Z"/><path class="cls-203" d="M27.64,74.9c-.25-.18-1.38.1-.38-.73.46-.38.9-.79,1.34-1.18C30,74.5,28.29,74.43,27.64,74.9Z"/><path class="cls-141" d="M32.17,77.33c.28.39.55.6.59.85a.57.57,0,0,1-.66.72.54.54,0,0,1-.48-.68A3.52,3.52,0,0,1,32.17,77.33Z"/><path class="cls-140" d="M32,65.77c-.29-1.08-.24-1,.49-1.47s-.18-1.91,1.15-2.4c.26-.1-1-.17-1.2-.74a2.57,2.57,0,0,1,2.47.33A6.38,6.38,0,0,1,32,65.77Z"/><path class="cls-204" d="M31.48,50.41c-.61-.44-.95-1.27-1.93-1.16-2.41.28-3.06-1.09-2.86-3.18.25-.67-.05-1.44.26-2.09s.35-1.56,1.3-1.42A2.06,2.06,0,0,1,30,44.33c.13.72.62,1.55-.28,2.17-.46.31-.68-.17-1.43-.61,1.22,1.66,2.32.74,3.48.9-.33-1.67-3.34-2.66-1-4.64.58-.26,1.13.27,1.71.1,1.75-.35,3.16,1.59,3,3.5-.14,2.16-2,2.38-3.17,3.4A1.82,1.82,0,0,0,31.48,50.41Z"/><path class="cls-204" d="M33.39,54.26c-.8-.65-2.22-.53-2.38-1.94.69-.51.4-1.25.47-1.91.59.21.55,1.41,1.33,1.11s1.27-.53,1.53.54S34.43,53.84,33.39,54.26Z"/><path class="cls-90" d="M32.43,42.25c-.46,1.87-1,0-1.45,0-1.51.64-2.7,0-3.81-1-.59-.62-.34-.82.34-.57a11,11,0,0,0,4.44.54Z"/><path class="cls-204" d="M32.42,55.7c-.4-.23-.85-.45-.75-1,0-.08.33-.2.34-.19.15.23.29.48.43.73Z"/><path class="cls-205" d="M27.17,41.32l3.81,1c-1.76,1.72.19,3,1,3.49,1,.62.46.59.18,1.14-.91,1.74-2.43.62-3.33.43-1.36-.29-.52-1.75-.61-2.78,1.17.17.6,1.26,1.25,1.8a2.22,2.22,0,0,0-.11-2.23c-.2-.5-.67-1.25-1.37-1.08s-.59.8-.5,1.41a1.74,1.74,0,0,1-.79,1.62,1.46,1.46,0,0,0-1.45-.93c-.43.11-.62,0-.5-.49-.61-1-.08-1.69.49-2.4C26.21,42.63,27.64,43.94,27.17,41.32Z"/><path class="cls-206" d="M29.07,36.49c-2.06-.64-.31-1.28,0-1.92.48,0,.48,0,.49,1A1,1,0,0,0,29.07,36.49Z"/><path class="cls-207" d="M29.54,25.47a6.18,6.18,0,0,0-.48,3.34,2.16,2.16,0,0,0,0,.44c-.18.37-.35.76-.86.76-1.5-1-.61-2.37-.56-3.6.34-1,.27-2.16,1-3.08C29.46,23.92,28.73,25,29.54,25.47Z"/><path class="cls-152" d="M28.61,29.77l.43-.52c-.27,1.75,1.16,4.15-1.87,4.82l-.49-.46c-.18-.36,0-.58.29-.79a1.34,1.34,0,0,0,.77-1.17,3.87,3.87,0,0,1,.13-.59A2.55,2.55,0,0,1,28.61,29.77Z"/><path class="cls-208" d="M20.43,33.11l-1.9,0c-.39-.21-.75-.44-.56-1a1.89,1.89,0,0,1,.8-.46,8.33,8.33,0,0,1,.86-.22c.75-1.12.81-2.57,1.78-3.58C22.8,28.05,23.8,29,25,29.65c.54.28,1.37.59.77,1.34-.85,1.06-.82-.73-1.58-.5-.12.79-.26,1.68-.4,2.57a.57.57,0,0,1-.58.17A3,3,0,0,0,20.43,33.11Z"/><path class="cls-209" d="M21.41,27.84c.36,1.28-1.08,2.28-.37,3.81.33.72-1,.16-1.56,0-1.7-1.84-1.7-1.84.48-3.36C20.49,28.31,20.68,27.3,21.41,27.84Z"/><path class="cls-210" d="M28.61,29.77c0,.54.06,1.1-.47,1.47h0c0,.78,1,2.12-1,1.88a1.2,1.2,0,0,1-.51-1,20.68,20.68,0,0,1,1-5.73C28,27.51,26.78,29.09,28.61,29.77Z"/><path class="cls-184" d="M20,28.33c-.47,1.08-1.69,2.05-.48,3.36l-.5.48a4.29,4.29,0,0,1-.77-.55c-.6-.68-1.64-1.12-1.39-2.3s1.57-.37,2.16-1l0,0Z"/><path class="cls-207" d="M26.64,32.14a1,1,0,0,1,.51,1c-.16.17-.31.34-.47.5a2.28,2.28,0,0,1-.45,0c-.91.48-1.94.27-2.9.48h0a2.93,2.93,0,0,1-1.85.14.42.42,0,0,1-.08-.65,1.1,1.1,0,0,0,1-.45.74.74,0,0,1,1-.15.68.68,0,0,0,.42.05Z"/><path class="cls-93" d="M33.32,115A1.54,1.54,0,0,1,35,115,1.35,1.35,0,0,1,33.32,115Z"/><path class="cls-211" d="M16.1,98.43,15,97.71c-.43.56.6,1.26-.27,1.68-1.2-.83-2.31-.31-3.55.34.25-.84.45-1.56.66-2.27A4.85,4.85,0,0,0,12.84,94a4,4,0,0,1,2.33-4.2c.57.16,1.53.14,1,1.09s0,1.27.23,1.94c.38-1.17.79-2.25,2.13-2.54a1.5,1.5,0,0,1,1.17,1.07,1.78,1.78,0,0,1-.06.65,11,11,0,0,1-3.24,6.27Z"/><path class="cls-163" d="M15.17,89.76a7.34,7.34,0,0,0-1.8,5.72,1.6,1.6,0,0,1-1.58,2c-.07-.39-1.94-.14-.4-1.12a.44.44,0,0,0,.08-.42c-1-2,.14-4.11-.14-6.16.52,0,.6-1.28.83-.75,1.07,2.46,1.38-.36,2.05-.21h.47Z"/><path class="cls-212" d="M9.4,91.69c-.59,1.53-1.18,3.06-.44,4.88-1.29-1-1.23-1-1.09-1.95.11-.69.63-1.26.45-2-.26-1.14-.21-1.15,1.08-.89Z"/><path class="cls-213" d="M19.51,91.2a1.55,1.55,0,0,1-1-1c1.09-2.17.07-4.19-.47-6.24,1.08,0,2.54.15.85-1.47-.33-.32-.88-.58-.05-1,1.11-.52.45-1.55.61-2.34,1.07-.54,1.4,0,1.48,1a6.35,6.35,0,0,1,0,5.26c.62.61.15,1.38.32,2.07a3.47,3.47,0,0,1-.06.64C20.87,89.32,21.05,90.73,19.51,91.2Z"/><path class="cls-213" d="M17.75,80c0-.34.05-.59.32-.54s.3.3.37.49-.12.26-.19.39Z"/><path class="cls-214" d="M19,72.49c.38,0,1-.75,1.08,0,.1,1,1.56,1.8.45,2.93-.32.33-.7.61-1.05.91-1.4-.52-3.76.39-3.62-2.4C16.88,73.36,18.48,74.13,19,72.49Z"/><path class="cls-214" d="M19.48,76.33c2.16-.64,1.73,1.83,2.87,2.4C21.11,78.28,19.46,78.3,19.48,76.33Z"/><path class="cls-215" d="M17.09,103.68c.21.09.62.21.61.26a16.82,16.82,0,0,0,.57,6,2.92,2.92,0,0,1-1.2,3.32c-.17.39-.51.66-.87.47s-.38-.6-.09-1c.58-3.08-.44-6.07-.48-9.12C16.12,103.53,16.61,104.26,17.09,103.68Z"/><path class="cls-216" d="M16.11,112.81c0,.83.43.74,1,.48.15.49.77,1,0,1.46-2.56-1-1.61,1.57-2.4,2.39H14.2c.09-1.07-1-1.27-1.45-1.91v-.49C13.86,114.07,14.66,112.88,16.11,112.81Z"/><path class="cls-169" d="M11.73,111.57c-2.63-.31-.94-1.82-1.1-2.76C11.66,109.49,11.24,110.61,11.73,111.57Z"/><path class="cls-217" d="M19.39,100.33v1.44c-.86.1-1.1,1.76-2.34,1,.72-.79.09-1.57,0-2.36C17.81,99,18.6,99.86,19.39,100.33Z"/><path class="cls-211" d="M19.39,100.33c-.78.25-1.57-.47-2.34,0-1.76.06-.41-1.4-.95-1.93l0,0c.46-.77,1.06-1,1.71-.29a9.84,9.84,0,0,1,1.62,1.73Z"/><path class="cls-218" d="M17.54,61c-.5.71-1.26.4-1.92.47h-.46c-.41-1.17-.85-2.29-2.36-2.39-.68-.05-1.44.2-2-.49s.91-1,0-1.84c-.5-.46,1-1.52,1.76-1.19,2.06.84,1.95-.56,2.13-1.77,1.51.15,1.33,1.29,1.29,2.29,0,.78-.35,1.56.17,2.3l.41.46A2.31,2.31,0,0,1,17.54,61Z"/><path class="cls-178" d="M17.54,61l-1.42-1.93c.16-.16.41-.33.38-.55s-.15-.07-.13.17-.12.28-.25.38c-1.18-.57-1.16-1.62-.8-2.59a2.21,2.21,0,0,0-.64-2.69c0-.16,0-.31,0-.47-.12-.46.06-.6.5-.48l2.46-.75c1.14.77-1.74,1.37-.05,1.84,1.29.36,1.56-1.08,1.91-2.06h0a1,1,0,0,1,.49,1c.39.28.89.77.38,1.1-1.32.83-.59,2.12-1,3.1,1.3.43,1.91-1.09,3.06-.85.39,1.35.78,2.7,2.16,3.43-.51.64-1.37.21-1.68.89-1.12.81-2.25-.6-3.37,0h0c-.75-.29-1.24.48-1.92.48Z"/><path class="cls-218" d="M13.24,52.81c.34.66.67,1.33-.29,1.76-.33.15-.83-.22-.77-.29.37-.48,0-1.49,1.06-1.47Z"/><path class="cls-218" d="M15.16,52.82l-.5.48-1.42-.49h0a.88.88,0,0,1,1-1A.88.88,0,0,1,15.16,52.82Z"/><path class="cls-178" d="M24.27,46.1C23.15,48,24.67,48.74,26,50c-2.94-1.43-2.72,1.19-3.66,2.3,0-.58-2.57-.5-.41-1.62-.75-.28-.31-1.7-1.7-1.53,1.47,0,2.2-.46,2.18-1.92a1.5,1.5,0,0,1,1.37-1.65A.57.57,0,0,1,24.27,46.1Z"/><path class="cls-219" d="M25.15,34.52c1.59,1.1-.69.89-.5,1.54s1.29-.3,1.21.29a4,4,0,0,1-1.13,2.42c-1,.84-2.05,0-3-.51C22,37,22.9,38,23.54,37.61L22,35.36c1.06-.14,2.19.28,2.81-.77l.17-.16Z"/><path class="cls-220" d="M22.36,56.17c-.85,1.3-2.27,1.61-3.86,2.2.74-1.7-.24-3.71,1.67-4.91a3.16,3.16,0,0,0-.21-.64c.64,0,1.27-.47,1.91,0-.09.3-.09.68-.28.89-1.35,1.5-1.36,1.47.36,1.92C22.12,55.66,22.22,56,22.36,56.17Z"/><path class="cls-221" d="M17,34.51c.57-1.47,1,.17,1.48.08-.79.3.32,1.76-.9,1.64S17.1,35.13,17,34.51Z"/><path class="cls-178" d="M19.48,43.7v-1c.79.43,1.39,1.27,2.94.78C21.05,44.62,20.22,44.71,19.48,43.7Z"/><path class="cls-222" d="M16.12,49.93c-.4-.41-1-.73-.89-1.4a1.17,1.17,0,0,1,1-.28c.68.55.05,1.12-.13,1.68Z"/><path class="cls-176" d="M25.15,34.52a2.66,2.66,0,0,0-.39.07l-1.43-.46c.84-.92,1.93-.38,2.9-.48Z"/><path class="cls-223" d="M19.48,51.85c-1.47-.31-.87-1.28-.51-2.18.17.73.34,1.46.5,2.18Z"/><path class="cls-204" d="M24.27,46.1l-.47-.49.94-1,.5.49A.89.89,0,0,1,24.27,46.1Z"/><path class="cls-210" d="M21.4,33.61v.49a1.3,1.3,0,0,1-.48.45h-.24l-.24,0c-.33-.51-1-.38-1.42-.92Z"/><path class="cls-222" d="M16.12,49.93c.44.07.95,0,1.07.64,0,.06-.18.24-.28.25-.63,0-.73-.41-.79-.89Z"/><path class="cls-176" d="M20.91,34.55l.48-.45,1.94,0C22.64,34.9,21.74,34.55,20.91,34.55Z"/><path class="cls-209" d="M19,28.34c-1.27.59-2.82,1.08-.67,2.59.35.24.46.82.67,1.24l-1,0a.5.5,0,0,1-.57,0,9.48,9.48,0,0,1-1.28-2.44l-.06-.48C16.82,28.24,17.9,28.28,19,28.34Z"/><path class="cls-184" d="M16.16,29.78a4.79,4.79,0,0,1,1.4,2.38.29.29,0,0,1-.48,0,3.47,3.47,0,0,0-.45-.06C16.47,31.33,16.32,30.56,16.16,29.78Z"/><path class="cls-152" d="M23.35,33l-1,.15-1.94,0C21.4,33,22.33,31.49,23.35,33Z"/><path class="cls-152" d="M17.08,32.17h.48a3.42,3.42,0,0,0,.45,0c.17.3.34.59.52.88C17.79,33.18,17.15,33.13,17.08,32.17Z"/><path class="cls-90" d="M21.2,47.68,19,47.81C19.63,46.85,20.15,47,21.2,47.68Z"/><path class="cls-224" d="M19.47,60.49c.62,0,.79-3.28,1.87-.24.08.23,1,.17,1.5.24.81,0,.73.42.46.94-1.44-.76-2.55-.69-2.22,1.29.24,1.42-1.86,1.24-1.3,2.68C19.1,63.71,20.53,62.06,19.47,60.49Z"/><path class="cls-225" d="M18.51,62.89a3.32,3.32,0,0,1,.42,1.1c0,1.41-.93,3.13,1.68,3.65-1.43-.24-2.76.43-3.71-.85.87-1.1,2.28-2.26.66-3.9A.64.64,0,0,1,18.51,62.89Z"/><path class="cls-226" d="M18.51,62.89h-1c-.18-.64.86-1.28,0-1.92.56-.48,1-1.29,1.92-.48A4.73,4.73,0,0,0,18.51,62.89Z"/><path class="cls-227" d="M24.75,62c-.38-.25-.51-.59-.19-.93.55-.6.76.11,1,.35.62.58-.06.48-.34.58Z"/><path class="cls-228" d="M16.51,65.43a3.34,3.34,0,0,1,0-.83c.11-.27.24-.62.63-.5a.57.57,0,0,1,.16.53A4.47,4.47,0,0,1,16.51,65.43Z"/><path class="cls-141" d="M24.27,78.74c.14.35.31,1,.43,1,2.12-.16,2.46,2.08,3.89,2.82,1.25,1.55-.17,3.26-.53,4.32-.56,1.6-2-.12-2.82-1h0a2.65,2.65,0,0,1-.3-2,1.11,1.11,0,0,1,.63-.54,1.64,1.64,0,0,0-.53.33,1.06,1.06,0,0,1-1.24-.19c.2-1.79.39-3.57-.48-5.26C23.86,78,24.32,77.83,24.27,78.74Z"/><path class="cls-95" d="M29.05,92.19c.39.76,2.42.83,1,2.36a2.88,2.88,0,0,1-1.17,0c-.49-.23-1.36.82-1.39-.24,0-.6-.37-2,1.22-1.82C28.81,92.51,28.94,92.29,29.05,92.19Z"/><path class="cls-154" d="M29.08,96.5c-.81,1.2.92,2.72-.49,3.84-.79-.08-1.29-.31-1.08-1.31a14.21,14.21,0,0,0,.13-2.53A1.16,1.16,0,0,1,29.08,96.5Z"/><path class="cls-95" d="M29.08,96.5H27.64c.86-.18,1.12-1.85,2.4-1Z"/><path class="cls-217" d="M19.45,99.85c-.79-.12-1.58-.29-1.86-1.15-.35-1-.93-.48-1.47-.29.09-.46,0-1.07.3-1.36,1.24-1.31,2.45-2.58,2.29-4.6,0-.23.54-.51.83-.77.86,0,.75.67.8,1.22a7.49,7.49,0,0,0,.18,2c.43,1.59-1,2.92-.6,4.51Z"/><path class="cls-193" d="M19.92,99.41c-1.12-1.62.4-3.22,0-4.84,1.64-.59.69,1,1.19,1.4A14.37,14.37,0,0,1,21,99.31l-.14.11C20.54,99.46,20.25,97.87,19.92,99.41Z"/><path class="cls-182" d="M25.24,83.53v2.4c-.49-.64-1-1.29-1.45-1.93v-.47Z"/><path class="cls-229" d="M24.27,78.74a1,1,0,0,0-.95-.47.88.88,0,0,1,1-1c0,.75,1.34.65,1,1.5C25.08,79.23,24.61,78.82,24.27,78.74Z"/><path class="cls-188" d="M20.92,87.37c-.86-.63.17-1.28,0-1.92l.47,0,0,0C21.62,86.19,22.21,87,20.92,87.37Z"/><path class="cls-230" d="M21.09,95.62c-.6-.11-.24-1.26-1.14-1.05.14-.48-.53-.95,0-1.44.6-1.31,0-3,1.34-4.07a.79.79,0,0,1,.59.22c-.7,1.25-.44,2.61-.42,3.94v2.37l-.16.15Z"/><path class="cls-231" d="M21.86,89.28H21.4a1.61,1.61,0,0,1-.48-1.44v-.48c.72-.5.39-1.26.48-1.91C22.82,86.58,21.5,88,21.86,89.28Z"/><path class="cls-190" d="M21.09,95.62a.66.66,0,0,1,.34,0l-.12,3.85L21,99.31C21,98.08,21.06,96.85,21.09,95.62Z"/><path class="cls-232" d="M26.9,50.13c.84.61.86,1.16.39,1.73-.1.12-.51.18-.58.1C26.15,51.36,26.7,50.85,26.9,50.13Z"/><path class="cls-227" d="M25.61,58.16a1.44,1.44,0,0,1,.47,1.94C25.58,59.63,25,59.18,25.61,58.16Z"/><path class="cls-233" d="M25.6,52.43c-.16.39-.34.66-.7.54a.61.61,0,0,1-.33-.49.54.54,0,0,1,.67-.45C25.39,52.06,25.5,52.31,25.6,52.43Z"/><path class="cls-198" d="M26.11,54.24a5.9,5.9,0,0,1-1.22-.12c-.07-.6.45-.26.72-.32a1.6,1.6,0,0,1,.61.13Z"/><path class="cls-141" d="M31,90.25c-.06.45,0,1-.63,1.08-.06,0-.24-.18-.25-.28-.05-.63.4-.74.89-.79Z"/><path class="cls-207" d="M28.14,31.23c-.32,0-.75.44-.91-.18,0-.16.15-.54.28-.56.55-.09.54.39.63.75Z"/><path class="cls-188" d="M20.92,87.85c.58.34.46.91.48,1.44-1.18,1-.25,2.83-1.47,3.84,0-.53.13-1.07-.39-1.45a3.87,3.87,0,0,0,0-.48C20.57,90.34,20.11,88.83,20.92,87.85Z"/><path class="cls-234" d="M11.79,58.2c.78-.68,1-1.84,2.19-1.14.36.22.73.49.4.91C13.75,58.79,12.93,58.7,11.79,58.2Z"/><path class="cls-235" d="M16.12,59.05,16,57.31c.66.39,1.34.65,1.17,1.49,0,.15-.7.17-1.07.25Z"/><path class="cls-218" d="M17.83,55.25a1,1,0,0,1-.89.64.43.43,0,0,1-.5-.57,1.14,1.14,0,0,1,.72-.5A.47.47,0,0,1,17.83,55.25Z"/><path class="cls-236" d="M25.24,83.53c.3-.33.17-1.17.93-.91.17.06.86.36.53.81s-.95.39-1.46.1Z"/></g></g></svg>