<svg xmlns="http://www.w3.org/2000/svg" viewBox="0 0 55.48 91.83"><defs><style>.cls-1{fill:#afdbe5;}.cls-2{fill:#a5bfc7;}.cls-3{fill:#b3e0eb;}.cls-4{fill:#7d8384;}.cls-5{fill:#90a8ac;}.cls-6{fill:#a4d3e0;}.cls-7{fill:#828f91;}.cls-8{fill:#c6d9e0;}.cls-9{fill:#959292;}.cls-10{fill:#829092;}.cls-11{fill:#aab1b2;}.cls-12{fill:#c7cccb;}.cls-13{fill:#e7eff0;}.cls-14{fill:#82888a;}.cls-15{fill:#94a6a8;}.cls-16{fill:#bbc1c0;}.cls-17{fill:#8a8f91;}.cls-18{fill:#6a797b;}.cls-19{fill:#82a79e;}.cls-20{fill:#7a8a8b;}.cls-21{fill:#889497;}.cls-22{fill:#a6c5cd;}.cls-23{fill:#677f83;}.cls-24{fill:#8babb1;}.cls-25{fill:#84999d;}.cls-26{fill:#a6c2c8;}.cls-27{fill:#646b6d;}.cls-28{fill:#6e837a;}.cls-29{fill:#a4d4df;}.cls-30{fill:#95a0a0;}.cls-31{fill:#859ea2;}.cls-32{fill:#acdeea;}.cls-33{fill:#879b9d;}.cls-34{fill:#7a8586;}.cls-35{fill:#9fb1b3;}.cls-36{fill:#bdc9cc;}.cls-37{fill:#9db5bb;}.cls-38{fill:#dbdce1;}.cls-39{fill:#b7e1ec;}.cls-40{fill:#667679;}.cls-41{fill:#c7e6f1;}.cls-42{fill:#98a8ab;}.cls-43{fill:#799ea4;}.cls-44{fill:#81aab2;}.cls-45{fill:#a4ccd6;}.cls-46{fill:#86a0a4;}.cls-47{fill:#6f9398;}.cls-48{fill:#a9dce9;}.cls-49{fill:#c8e9f3;}.cls-50{fill:#c4e8f6;}.cls-51{fill:#85acb4;}.cls-52{fill:#a8dde9;}.cls-53{fill:#b1d3d7;}.cls-54{fill:#d3e7f1;}.cls-55{fill:#5e7072;}.cls-56{fill:#c2e3eb;}.cls-57{fill:#add8e3;}.cls-58{fill:#c2dce5;}.cls-59{fill:#f1eff5;}.cls-60{fill:#758586;}.cls-61{fill:#cfe8f2;}.cls-62{fill:#aed8e1;}.cls-63{fill:#a1d8e5;}.cls-64{fill:#eaf3f9;}.cls-65{fill:#a7dce8;}.cls-66{fill:#7a8c8f;}.cls-67{fill:#596161;}.cls-68{fill:#6b9185;}.cls-69{fill:#9cd2de;}.cls-70{fill:#7c8b8d;}.cls-71{fill:#8da6a9;}.cls-72{fill:#99a7ab;}.cls-73{fill:#addae6;}.cls-74{fill:#abdce9;}.cls-75{fill:#6e888c;}.cls-76{fill:#86a2a7;}.cls-77{fill:#d9ebf1;}.cls-78{fill:#c1e4ed;}.cls-79{fill:#abdde9;}.cls-80{fill:#a3d8e4;}.cls-81{fill:#82a9ac;}.cls-82{fill:#aedfea;}.cls-83{fill:#e6f4fb;}.cls-84{fill:#b2dce5;}.cls-85{fill:#9fdaea;}.cls-86{fill:#bce0ec;}.cls-87{fill:#dec088;}.cls-88{fill:#f3a723;}.cls-89{fill:#a5dcf1;}.cls-90{fill:#ecf6fa;}.cls-91{fill:#c1dddf;}.cls-92{fill:#92d8f4;}</style></defs><title>pants</title><g id="Layer_2" data-name="Layer 2"><g id="Layer_1-2" data-name="Layer 1"><path class="cls-1" d="M55.24,80.64l-.44,0c-2.78.63-3.45.14-3.65-2.66-.08-.2-.15-.4-.22-.6a5.1,5.1,0,0,0-1.32-2.1,11.28,11.28,0,0,1-1-5.47c0-.11.15-.2,0-.36-2.19-1.82-2.31-2.5-1.11-5.89-1-.58-2.57-.32-3.14-1.7a3.62,3.62,0,0,1-.06-2.59c.64-1.84,2-1,3.18-.76a.78.78,0,0,1,.58-.09,1.22,1.22,0,0,1,.4.5c.23.74.29,1.53.56,2.26,1.18,3.55,2,7.18,3.08,10.76.28.74.38,1.6,1.22,2v.89c-1.49.31-.15.93-.15,1.4a10.66,10.66,0,0,0,.61,1.39,7.26,7.26,0,0,0,1.66,2.12A.81.81,0,0,1,55.24,80.64Z"/><path class="cls-2" d="M28.37,55.24l.06,1.42c.49.74-.13,1.68.44,2.4h0c.35.79.31,1.69.66,2.48,0,.21,0,.43,0,.64.11.72-.24,1.49.25,2.16h0c.19,1.59.84,3.14.55,4.79l.93,3.38a6.48,6.48,0,0,1,.31,2.7,3.81,3.81,0,0,0-.34,2.72c.14,1.37.94,2.76.1,4.17a.69.69,0,0,1-.73,0c-1.36-1.61-1-3.67-1.43-5.54a11.93,11.93,0,0,0-.27-2.3,11.92,11.92,0,0,1-.43-1.44c0-2.77-.74-5.46-1-8.21a4,4,0,0,0-.36-2.07c-.31-3-1.38-5.87-.54-8.89.37-.46.73-.59,1,0A10.29,10.29,0,0,0,28.37,55.24Z"/><path class="cls-3" d="M32.66,90.24l-.9,0a.47.47,0,0,1-.56.08c-.64-.62-1.47-.11-2.17-.37a1.28,1.28,0,0,0-1.6-.47,23.13,23.13,0,0,1-2.5,0c-1.26-.65-3.26.24-3.83-1.84.65-1.6,1.81-1.87,3.41-1.52,1,.23,2.09.81,3.15,0,.37-.71,2.48-.19,1.37-2-.19-.72-.24-1.4.57-1.81.87.23,1.32,1,1.93,1.55.95,1.36.45,3.1,1.17,4.52C32.87,89.11,33.24,89.69,32.66,90.24Z"/><path class="cls-4" d="M34.62,64.42a.86.86,0,0,1-.3-1.1c.13-1,.52-1.47,1.55-.94a5.15,5.15,0,0,1,1.29,3c.9,4.06,2.64,7.94,2.72,12.19-.36.78-.8,1.08-1.4.2l-2.85-9.61C34.91,67,35.1,65.63,34.62,64.42Z"/><path class="cls-5" d="M32.25,88.78c-.83-1.48-.46-3.21-1-4.76a1.42,1.42,0,0,1-.05-1.9c-.23-1.64-.42-3.29-.69-4.92-.14-.81-.47-1.63.76-1.83,1.67,1.86,1.42,4.2,1.63,6.42a19.19,19.19,0,0,0-.11,3.39,1.11,1.11,0,0,1,0,.72c-.28.73.2,1.31.36,1.95C32.76,88,33.18,89.09,32.25,88.78Z"/><path class="cls-6" d="M51.44,77.78c.19.14.56.31.54.4-.48,2.46,1.34,2.27,2.82,2.49l-1.37,1.92c-2-.16-3.92,1.36-5.89,0,.19-1.33,1.06-.59,1.41-.69-1.08-.25-1.78-.87-.25-2C49.66,79.31,50.46,78.43,51.44,77.78Z"/><path class="cls-7" d="M47.59,82.54a9.87,9.87,0,0,0,4.11-.42c.69-.28,1.36-.44,1.73.47-1.84,1.68-4.09,1.52-6.33,1.38-1.05-.54-2.27.16-3.31-.43-.4,0-.81-.06-1.06-.46-.37-.85.07-1.15.82-1.18a22,22,0,0,1,2.57,0A2.06,2.06,0,0,1,47.59,82.54Z"/><path class="cls-6" d="M46.17,82.55c-1.1.46-2.47-.76-3.44.53l-.5-.37a24.81,24.81,0,0,0-.83-2.38c0-1,.37-1.81,1.39-1.9a4,4,0,0,1,3.49,1.66C46.86,80.81,47.29,81.78,46.17,82.55Z"/><path class="cls-8" d="M38.48,77.77c.32,0,.66.46,1,0a1.56,1.56,0,0,1,1.69-.26c1,.79.38,1.66.14,2.52a1.09,1.09,0,0,1-.53.33,1.25,1.25,0,0,0-1.34.33A3.27,3.27,0,0,1,38.48,77.77Z"/><path class="cls-9" d="M39.41,80.66c.22-.51-.44-1.38.4-1.55.59-.12.58.8,1,1.14,1.27,2,1.24,2.11-.4,2.34A3.51,3.51,0,0,1,39.41,80.66Z"/><path class="cls-10" d="M52,68.57l.42.08h0a10.37,10.37,0,0,1,.51,2.4c.13,1,.27,1.94.4,2.91-1.44.56-1.27-.62-1.48-1.38C52.05,71.25,50.69,69.86,52,68.57Z"/><path class="cls-11" d="M32.25,88.78l.94-.93c.3,1.28.85,2.53.35,4-1-.15-.67-1-.88-1.58S32.39,89.27,32.25,88.78Z"/><path class="cls-8" d="M40.39,82.59c1.74-.5-.12-1.63.4-2.35l.1-.07c.53-.26.68.22.93.48.79.56.68,1.29.41,2.06C41.6,82.88,40.92,83.9,40.39,82.59Z"/><path class="cls-12" d="M53.37,77.78c-.58-.34-.49-.91-.49-1.46.33-.62.74-.95,1.41-.42l.45.46c.23.59.48,1.17-.17,1.67A1.18,1.18,0,0,1,53.37,77.78Z"/><path class="cls-13" d="M54.29,75.9l-1.41.42a1,1,0,0,1-.6-1.15c.06-.19.68-.21,1-.31Z"/><path class="cls-6" d="M43.79,83.54c1.11.11,2.27-.2,3.31.43C46,84,44.79,84.43,43.79,83.54Z"/><path class="cls-14" d="M.58,5.9,1,5.67l3.33,1c.25.92,1.19.58,2,1.1-.83-.54-1.76-.23-2-1.1C5.91,6,7.46,6.36,9,6.67c1.14-.45,2.4.16,3.53-.39l.86-.07c.95-.45,2,.08,3-.36l1.41-.13a5.65,5.65,0,0,1,2.28-.15,1.14,1.14,0,0,1,.77.82c-.15.62-.65.8-1.17,1-3.07.85-6.26.86-9.39,1.25a8.3,8.3,0,0,1-1.92.2c-2.21,0-4.44.1-6.55-.76a1.58,1.58,0,0,1-.72-.7C.9,6.87.43,6.49.58,5.9Z"/><path class="cls-15" d="M20.23,5.82l-2.45-.1c.91-.68,2-.43,3-.4a27.42,27.42,0,0,0,9.06-1c.56-.32,1.1-.46,1.55.17,0,1.09-1,1.16-1.66,1.52a4.34,4.34,0,0,1-.64.2,5.84,5.84,0,0,0-3,1,4.22,4.22,0,0,1-2,.59c-1,0-1.9.35-2.87.36-.81-.12-1.51-.36-1.47-1.38l1-.51c.32-.36.78-.23,1.18-.3s-.25-.42,0-.17C21.34,6.22,20.78,6,20.23,5.82Z"/><path class="cls-16" d="M31.23,4.78c-.33-.59-.92-.39-1.41-.46l.49-.47c.33-.54,1-.15,1.4-.52C33.34,3.11,34.42,2,35.59,1a8.17,8.17,0,0,1,4.8-.91c-.2,1.34-1.65,1.07-2.31,1.82-.51.37-.53,1.05-.93,1.49s-1.06-.51-1.6,0A5.89,5.89,0,0,1,32.13,5.1.93.93,0,0,1,31.23,4.78Z"/><path class="cls-17" d="M12.54,6.28c-1.09.86-2.34.33-3.53.39A8.3,8.3,0,0,1,12.54,6.28Z"/><path class="cls-17" d="M16.37,5.85c-.91.73-2,.31-3,.36A4.9,4.9,0,0,1,16.37,5.85Z"/><path class="cls-18" d="M43.27,29.3c.78,3.13,1.59,6.26,2.35,9.4.24,1,.37,2,.56,3,.35.88.15,1.91.7,2.75a1.88,1.88,0,0,1,.15.74c-.08.58-.26,1.12-1,1.06S45,45.6,44.83,45c-.41-1.34-.47-2.78-1.26-4-1.93-8.12-3.82-16.25-5.24-24.49.07-.59.06-1.32.7-1.53s.88.6,1.24,1c.57,1,.1,2.23.57,3.27A84.67,84.67,0,0,0,43.27,29.3Z"/><path class="cls-19" d="M37.51,1.5a20.27,20.27,0,0,1,1.92,7c-.68.37-.13.75,0,1.12a2.18,2.18,0,0,1,.22,1.73c-.52.65-1,.26-1.56,0a1,1,0,0,1-.31-.56c.2-.89-.6-1.19-1-1.72a2.32,2.32,0,0,1-.23-.62c-.3-1.49.56-2.92.24-4.41A1,1,0,0,1,37,3.4C37.15,2.76,36.77,2,37.51,1.5Z"/><path class="cls-20" d="M6.86,42.71c-.64-1.78-.32-3.9-1.89-5.35,0-.61-.07-1.22-.1-1.82-1.33-3.43-2.36-6.9-2-10.64,1.4-.69,1.87.19,2.12,1.31.35,1.54.65,3.09.91,4.64a5.92,5.92,0,0,0,.49,2.59A21.91,21.91,0,0,1,8.31,41.2C8.14,42,8,42.81,6.86,42.71Z"/><path class="cls-21" d="M6.86,42.71a1.59,1.59,0,0,0,.93-1.48.57.57,0,0,1,.62.13c.57,1,.48,2.16.94,3.17.24.66,1.16.93,1,1.79-.5.37,0,.82-.09,1.22-.43.61.13,1.74-1,2l-.14-.08a14.2,14.2,0,0,0-1.86-4.77A2.21,2.21,0,0,1,6.86,42.71Z"/><path class="cls-22" d="M20.17,89.31l.09-.53c.54-.74-.48-1.81.52-2.46.93.27.81.86.45,1.51.9,1.44,2.87.11,3.8,1.46a.45.45,0,0,1,0,.6,3.12,3.12,0,0,1-1.67,0c1.22.46,2.32-.47,3.39.08a.54.54,0,0,1,.27.61c-1.11,1.41-2.66-.14-3.88.59h-1a4.27,4.27,0,0,1-1.9-1.48A.83.83,0,0,0,20.17,89.31Z"/><path class="cls-23" d="M46.71,43.19c0,.49,0,1-.05,1.45-.93-.84-.36-1.94-.48-2.92C46.35,42.21,46.53,42.7,46.71,43.19Z"/><path class="cls-24" d="M10.2,57.52c.28-1,1.47-.65,1.91-1.39,1,0,1.46.92,2.09,1.52a1.94,1.94,0,0,1,.11,1c-.35.78.11,2-1.24,2.24-.11-.48.07-1.07-.47-1.4C12.82,57.64,11.65,57.4,10.2,57.52Z"/><path class="cls-25" d="M17.78,80.28c-.83-.64,0-1.87-.9-2.51a120.2,120.2,0,0,0-3.31-13.88c.84-.73,1.2.78,2,.41.46.58.65,1.35,1.33,1.77a6.22,6.22,0,0,1,.95,2.25c.8,3.12,1.27,6.31,1.88,9.47a4.47,4.47,0,0,1-.11,2.56,1,1,0,0,1-.76.56C18.24,81.09,18.29,80.22,17.78,80.28Z"/><path class="cls-26" d="M15.39,64.29c-.8.75-1.13-.65-1.82-.4-.16-1-.33-2-.5-3,.83-.58,0-1.82.95-2.37l.2.26a6.19,6.19,0,0,0,0,.74c0-.32.11-.55.46-.61.91.46.77,1.28.71,2.06a3.12,3.12,0,0,0-.12,2.11C15.44,63.5,15.65,63.88,15.39,64.29Z"/><path class="cls-27" d="M1.07,10.1C1,9.48,1,8.86,1,8.24S.32,6.9,1.49,6.76l0,1c1.37,1.2,1.08,2.89,1.35,4.42a14.85,14.85,0,0,0,.42,3.93c.15.4.31.8.47,1.19a3.83,3.83,0,0,1,.3,1.89,1.62,1.62,0,0,1-1,.73c-.52.08-.76-.28-1-.61C2,18.66,2,18,1.93,17.43c-.42-1,.1-2-.36-3l-.07-1C.92,12.4,1.63,11.16,1.07,10.1Z"/><path class="cls-28" d="M1.57,14.42c.75.93.34,2,.36,3-.53-.75-.35-1.66-.52-2.48C1.46,14.77,1.52,14.6,1.57,14.42Z"/><path class="cls-29" d="M2,19.27l.83.33a.86.86,0,0,1,.67,1.07.71.71,0,0,1-1,0L2,20.15C2,19.85,2,19.56,2,19.27Z"/><path class="cls-30" d="M23.14,91.19c1.1-1.09,2.73.12,3.85-.89a1.8,1.8,0,0,1,1.88-.53c.61-.16,1.21-.36,1.83-.47.87-.15.95.27.57.93L27.9,91.68A14.41,14.41,0,0,1,23.14,91.19Z"/><path class="cls-31" d="M23.08,31.69C24,37.5,25,43.28,26.39,49a2,2,0,0,1,.43,1.93,1.15,1.15,0,0,1-1.35.72c-2-1.38-1.26-3.7-1.94-5.54a123.88,123.88,0,0,0-2.35-12.38,32.69,32.69,0,0,1-.43-3.53c0-.74-.05-1.76,1.28-1.25C22.55,29.8,22.59,30.83,23.08,31.69Z"/><path class="cls-32" d="M23.08,31.69a2.74,2.74,0,0,1-.94-2.37c-1.64-.93-1-2.91-2-4.24-.51-.72.66-1.34,1.44-1.41a9.05,9.05,0,0,1,4.49,1.21,1,1,0,0,1,.52,1.21c-.16.54-.65.62-1.15.6s-.94-.15-1.39-.18c-.23.3.29.67-.09.94C21.84,28.47,23.16,30.23,23.08,31.69Z"/><path class="cls-33" d="M30.75,48.08c-1-2.84-2.25-5.61-2.69-8.62a1.57,1.57,0,0,1,1.29,0c2.31,2,2.39,4.85,2.63,7.61A2.5,2.5,0,0,1,30.75,48.08Z"/><path class="cls-34" d="M30.75,48.08c.05-.58.25-1,.94-1,1.84,2.3,2.12,5.07,2.42,7.85-.33.75-.12,1.81-1.21,2.13C32.18,54.07,31.47,51.07,30.75,48.08Z"/><path class="cls-35" d="M28.9,39.85l-.84-.4-1.56-4C26,33.78,27.57,34.43,28.22,34c.76.74,2,1.35.65,2.64-.24.24.22.29.34.44C30,38.13,30.08,39.05,28.9,39.85Z"/><path class="cls-36" d="M27.91,34.1c.19,1.14-1.75.11-1.41,1.4-1.32-.94,0-2.89-1.47-3.78-.58-.54-.19-1.32-.5-1.93-.48-.57-1.35-1-.48-1.94,1.07-.62,1.36.27,1.74.93s.27,1.4.76,1.95c.95.81.45,2.21,1.25,3.08C27.84,33.91,27.87,34,27.91,34.1Z"/><path class="cls-37" d="M26.44,31.22c-.83-.07-.89-.65-1-1.32-.08-.93-.22-1.89-1.44-2l-.06-.4c.12-.69-1.18-.21-.87-1.06a2.22,2.22,0,0,1,3.21,1.49c.4,1.13,1.73,2,1.12,3.45A.84.84,0,0,1,26.44,31.22Z"/><path class="cls-4" d="M32.9,57.06c.53-.5,0-1.44.77-1.84,1.34,1.49,1.24,3.48,1.83,5.24-.06.84.18,2-1.36,1.23-.74-.72-.5-1.8-1-2.63C33.09,58.4,33,57.73,32.9,57.06Z"/><path class="cls-34" d="M34.17,62.41c0-.31,0-.62.07-.93,1.15.52.79-.41.87-.91,1.34.36.93,1.09.39,1.85-.66-.05-.82.56-1.18.9Z"/><path class="cls-38" d="M24.53,29.79c.76.49.4,1.27.5,1.93C23.77,31.36,24.18,30.57,24.53,29.79Z"/><path class="cls-39" d="M41.82,80.65l-.93-.48.45-2.39a2.51,2.51,0,0,0,1.29-3c-.41-1.69-.45-3.6-1.18-5.07-1.7-3.4-1.93-7-2.35-10.63a46,46,0,0,0-1.73-7.17,11.12,11.12,0,0,1-.5-3.29A8.67,8.67,0,0,0,35.81,44a5.07,5.07,0,0,1-.48-4.58c1.21-.71,1.51-1.85,1.75-3.16.3-1.58,1.7-2.36,2.44-1.57.12.13.41,0,.47-.21.91-.26,1.66-.16,1.62,1a28.6,28.6,0,0,1,0,4.72c-.38,2,1.32,4.65,3.21,5.36a2.87,2.87,0,0,1,.67,1.9c-1.73,2.46-1.73,2.46-1.33,4.58C45,51.53,43.53,49,46,50c1.07,2.74,2.4,5.42,1.61,8.51a2.76,2.76,0,0,1-.07.71c-.24.64-.36.19-.5-.08a1.2,1.2,0,0,0-1.84-.39c-.85.48-.42,1.43-.47,2.19s0,1.4.88,1.39c2.32,0,2.65,1.25,1.94,3.07a5.31,5.31,0,0,0,.07,3c.07.38.19.89.67.73.23-.07.32-.62.58-1-.17,1.68.87,3.2.45,5-.12.49,1.28,1.14.67,2.18-1.16.79-2.23,1.78-3.85,1.39a.63.63,0,0,0-.76.7c0,.5.51.55.9.59a4.55,4.55,0,0,0,2-.63c1-.41,2-1,3.12-.13,0,.17,0,.33,0,.49,0,1.44-1.13,2-2.1,2.52-1.64.84-1.13,1.2.28,1.55-.69.46-1.55,0-2,.69H46.17c.1-2-1.35-3.75-3.07-3.74C41.9,78.83,41.84,79.76,41.82,80.65Z"/><path class="cls-23" d="M47.61,58.54a60.17,60.17,0,0,0-1.92-8.61c-.86-.68-.23-1.64-.46-2.44a2.8,2.8,0,0,1-.5-1.88c-.91-1.5-1.51-3-.59-4.77,1.09,1.2.8,2.82,1.29,4.2.12.35.25.89.75.79s.38-.76.47-1.19c1,2.31,1.17,4.85,1.85,7.25.33,2.07.67,4.14,1,6.2-1.11,0-.88-.84-1-1.87-.15,1.08.28,1.9-.52,2.41A1.11,1.11,0,0,1,47.61,58.54Z"/><path class="cls-40" d="M48,58.63c.05-.82.1-1.64.16-2.52,1,.43.62,1.54,1.33,2a1.26,1.26,0,0,1,0,.43c.31,1.45.55,2.92.89,4.36.57,1,.25,2.36,1,3.35.17.78.35,1.56.53,2.34-.66,1.32,1,2.71-.14,4A87.56,87.56,0,0,1,48.53,61c-.6-.71.28-1.74-.52-2.4Z"/><path class="cls-41" d="M51.43,77.29a4.6,4.6,0,0,0-3.34,1,3,3,0,0,1-2.26.46c-.79,0-1.47-.26-1.51-1.15s.73-1.68,1.21-1.53c1.67.55,2.93-.85,4.46-.67C51.13,75.52,51.27,76.41,51.43,77.29Z"/><path class="cls-42" d="M54.78,77.8c.65.51.41,1.24.45,1.91-1.58.28-1.37-1.16-1.86-1.93Z"/><path class="cls-23" d="M48,58.62c1.46.52.11,1.65.52,2.4A3.63,3.63,0,0,1,48,58.62Z"/><path class="cls-31" d="M27,53.27a34.33,34.33,0,0,0,1,9.58c.21.81-.33.75-.84.73a.92.92,0,0,1-.5-.49c-.43-1.13-.1-2.38-.54-3.5a4.34,4.34,0,0,1-.14-.7c-.18-1.16.13-2.39-.46-3.5-.33-1.24-1.3-2.49,0-3.75,1.43-.28,1.1,1,1.47,1.65Z"/><path class="cls-43" d="M27.92,64.33c.55,2.84,1.42,5.65,1,8.61.16.58-.18.63-.62.57-1.31-2.6-1.43-5.4-1.37-8.23C27.07,64.78,27.18,64.21,27.92,64.33Z"/><path class="cls-44" d="M29.38,73.91c.84,2.67.5,5.54,1.44,8.19-.41,1.3-.83,0-1.25,0A3.86,3.86,0,0,1,28.76,80c.14-2-1.23-3.78-.68-5.8C28.34,73.37,29.06,74.51,29.38,73.91Z"/><path class="cls-45" d="M29.85,82.07c.32.1.63.54,1,0l.38,0c0,.63,0,1.27.05,1.9a1.38,1.38,0,0,1-1.44-1.43A.36.36,0,0,1,29.85,82.07Z"/><path class="cls-46" d="M27.92,64.33a1.07,1.07,0,0,0-.52,1c-1.18-.43-1-1.16-.45-2a1,1,0,0,0,1-.53C28.62,63.36,28.07,63.84,27.92,64.33Z"/><path class="cls-47" d="M29.38,73.91c-.07.36-.15.71-.22,1.07l-.75-1a.33.33,0,0,1,0-.47l.47-.52A1.05,1.05,0,0,1,29.38,73.91Z"/><path class="cls-48" d="M29.85,82.07c0,.17,0,.35,0,.52-.69.51-.39,1.25-.46,1.91a1.57,1.57,0,0,1-.92.51c-3.3,0-4.06-.57-4.76-2.94-.34-1.13,0-1.54.83-2.06a15.16,15.16,0,0,1,2.85-1.08c1.37-.54,1.81,0,2,1.23Z"/><path class="cls-49" d="M21.23,87.83c-.09-.5.09-1.1-.55-1.38a.85.85,0,0,1-.88-.29,1.87,1.87,0,0,1-.66-2.11l.23-.25a2.24,2.24,0,0,1,.62-.25,7.68,7.68,0,0,1,5.12,1.73,4.45,4.45,0,0,0,2.57,1l.25.18c-.31,1.33-1.18.91-2,.68C24.24,86.64,22.57,86.16,21.23,87.83Z"/><path class="cls-50" d="M28.4,84.51h1c.44,0,1-.15,1.21.43s-.36.81-.82,1-1.2.36-1.81.54h0a1,1,0,0,1-.35-.91C27.62,85,28,84.77,28.4,84.51Z"/><path class="cls-22" d="M28.87,89.77c-.48.7-1.24.41-1.88.53l-.06-.07a.45.45,0,0,1-.14-.5.9.9,0,0,1,.68-.45c.47-.16.52-1.11,1.27-.71C29.33,88.88,29,89.34,28.87,89.77Z"/><path class="cls-51" d="M27.47,89.28l-.53.52a1.92,1.92,0,0,1-1.9,0,3.85,3.85,0,0,1,0-.48C25.84,89.35,26.65,88.27,27.47,89.28Z"/><path class="cls-52" d="M44.14,40.84c.2,1.59.39,3.18.59,4.77-.31.41-.61.83-1,1.33-1-1.38-1.12-3.14-2.61-4.14-.63-.41-.49-1.63-.21-2.26.81-1.78-.44-3.59.27-5.34.2-.49-.69-.19-.81-.62-1.09-.6-2.86-.62-2.26-2.66a3,3,0,0,1,.35-.6,3.88,3.88,0,0,0,.17-3.46c-.73-2.52-3.11-2.94-5.71-.9,2,.77,2,2.37,1.7,4a8.85,8.85,0,0,0,.78,5.34c.44,1,1.09,2,.17,3.11,0,1.92.06,3.79,1.43,5.37a3.73,3.73,0,0,1,.48,2.76c-.1,2.67.89,5.06,1.6,7.56C39.92,57.93,40,61,40.38,64a23.48,23.48,0,0,0,1.43,4.66c.9,2.64,1.87,5.42,1.49,8.39-.22,1.74-1.37.37-2,.75l-1.89,0a93,93,0,0,0-4-15.33c0-.65.31-1.36-.39-1.85l-1.44-5.35c-.17-2.84-1.4-5.41-2-8.14-.58-2.26-1.14-4.52-1.78-6.76-.07-.23-.66-.32-1-.47a8.17,8.17,0,0,0-1-5.75h0c-.87-.83-.72-1.85-.54-2.88-.33-1.34-1.41-2.3-1.71-3.71-.26-1.17-1.51-1.15-2.55-1.13.94-1.07,2.1,0,3.15-.27-1.44-1.95-4.25-2.43-5.79-1,.52.83,1.35-.35,2,.4-3,1-.11,2.52-.37,3.83-1.06-.47-1.08.22-.86.87a10,10,0,0,1,.41,3.43,1,1,0,0,1-1,.19c-2.43-2.29-3.18-7.26-1.62-10.33.87-1.68-.23-3.6.53-5.34.21-.48.11-1.11.35-1.63a20.08,20.08,0,0,0,1.62-3c.9-.42,1.43.36,2.11.66,1.59,1.23,2.25,1.1,4-.82a2,2,0,0,1,.59-.35c.16-.05.34-.14.47-.08A23.51,23.51,0,0,0,37.6,15.1c.38,0,.65.43.89.76a4.57,4.57,0,0,1,.41.57c1.21,5.75,2.41,11.49,3.64,17.23C43.05,36.06,43.61,38.45,44.14,40.84Z"/><path class="cls-11" d="M32.25,82.06c.75,1.06.48,2.24.43,3.4C31.84,84.41,32.37,83.19,32.25,82.06Z"/><path class="cls-28" d="M1.49,6.76c-.58.35-.41,1-.52,1.48a2.9,2.9,0,0,0-.41-.06C.39,8.08.33,8,.37,7.86s.09-.18.14-.18L0,6.17.58,5.9Z"/><path class="cls-29" d="M3.39,17.36c-.15-.35-.31-.69-.47-1-.42-1.25,0-2.59-.43-3.84-.32-1.59-.64-3.18-1-4.77,2.27-.13,4.44.86,6.71.55a.45.45,0,0,1-.1.58c-1.09.62-2.3.29-3.29.43,0,2.42,2.84,4.37,1,7.09C5.32,17.43,4.35,17.37,3.39,17.36Z"/><path class="cls-53" d="M19.71,6.79a1.91,1.91,0,0,0,1.48,1,.79.79,0,0,1,.26.54,1,1,0,0,1-.26.54,2.85,2.85,0,0,1-.82.36c-.48.13-.86.47-1.35.58a1,1,0,0,1-.54-.2c-1.56-.66-.51,1-1.12,1.23-.75.68-1.43.41-2.09-.15-.38-.6-.68-1.3-1.62-.93A1.43,1.43,0,0,1,12,9.22c-.5-.57-1.42-.41-1.85-1.09Z"/><path class="cls-54" d="M10.12,8.13c.8.2,1.74-.27,2.42.51-.87.8-2,.7-3.08,1-.76.23-1.16-.23-1.23-1V8.27Z"/><path class="cls-55" d="M4.37,6.71c.69.6,1.64.34,2.39.78-.84-.12-2.09,1.1-2.39-.78Z"/><path class="cls-17" d="M20.23,5.82h2c-.42.69-1,.32-1.45.46Z"/><path class="cls-56" d="M24.08,7.26,26,6.71c1-.68,2.38-.22,3.4-.94h0c1.75-.6,2.64.45,3.41,1.75-.43.74-1.15.67-1.85.67l-.65,0c-2.25.71-.43,2.37-.82,3.51-.44.54-.87,1.09-1.69,1-2-1.22-3.87.39-5.82.35a1.61,1.61,0,0,1-.61-.23c.06-1.46,1.24-2.69.88-4.24.87-.61,1.62.08,2.35.24C24.15,8.34,22.72,8.31,24.08,7.26Z"/><path class="cls-57" d="M32.71,7.7C31.6,7,30.84,5.77,29.35,5.77l1.88-1,1,0a1.4,1.4,0,0,1,1.38-.16c.62.76.31,1.26-.45,1.64.77.1,1.38.35,1.16,1.33A1.07,1.07,0,0,1,33,7.94Z"/><path class="cls-57" d="M24.08,7.26c-.27,1.77,1.77.72,2.06,2-1.42,1.25-2.57-1.27-4-.63a.63.63,0,0,1-1-.1V7.75A5.23,5.23,0,0,1,24.08,7.26Z"/><path class="cls-57" d="M29.35,5.77c-.8,1.52-2.29.54-3.4.94C26.89,5.72,28.12,5.73,29.35,5.77Z"/><path class="cls-58" d="M33.67,4.82H32.22c.93-.93,2.45-.87,3.31-1.94A3,3,0,0,1,36.91,5C35.71,7.31,34.74,5.17,33.67,4.82Z"/><path class="cls-59" d="M36.55,4.84c-.29-.69-1-1.14-1-2,1.23-1.88.9.58,1.48.53,0,.16.05.33.08.49C37.29,4.42,37.4,4.9,36.55,4.84Z"/><path class="cls-60" d="M38.9,16.43a1.6,1.6,0,0,0-.39-.11c-.42-.27-.26-.76-.41-1.13a3,3,0,0,0-.51-2c-.09-.76-1.05-1.67.38-2.16l1.45.49c.06,1.62.73,3.17.52,4.81L39,15.17C39,15.67,38.94,16.05,38.9,16.43Z"/><path class="cls-61" d="M38.09,13.39c1.12.27.86.86.35,1.51a8.92,8.92,0,0,1-8.28-2c-.43-.39-.82-.72-.81-1.34a2.65,2.65,0,0,1-.19-3.81c.35-.43.75-.55,1.15,0,2.05,1.51,4.46,1.26,6.8,1.38.25.53,2.48-.11.9,1.51-1.66,1.07-3.54.32-5.63.72a7.29,7.29,0,0,0,3.75,1.09C37.11,12.32,37.53,12.87,38.09,13.39Z"/><path class="cls-62" d="M38.09,13.39c-1.57-.31-3.16-.58-4.72-1-.89-.22-1.88-.44-2.06-1.84H38c0,.15,0,.3,0,.45C37.3,11.86,38.13,12.6,38.09,13.39Z"/><path class="cls-63" d="M36.55,4.84l.54-.95c1.09,1.62-.44,3.17-.13,4.78A1.22,1.22,0,0,1,35.7,9,2.93,2.93,0,0,1,34.15,7.7c-.56-.89-1.29-1.76-.48-2.88a2.6,2.6,0,0,1,2,.51C36.26,5.91,36.44,5.34,36.55,4.84Z"/><path class="cls-64" d="M35.59,8.66H37a2.48,2.48,0,0,1,.15.41c-2.53,1.29-4.81.31-7.06-.82,0,0,.17-.36.26-.56h0a9,9,0,0,0,3.52.48A2.75,2.75,0,0,1,35.59,8.66Z"/><path class="cls-65" d="M8.19,41.38a1.93,1.93,0,0,1-.4-.15c-.54-2.56-.7-5.22-1.93-7.6-.59-.77,0-1.75-.46-2.54-.31-1.57-.72-3.14-.9-4.73C4.38,25.3,4.07,24.75,3,24.91a1.64,1.64,0,0,1,.5-1.25c-.39-.43,0-.54.28-.67C6,24,6.78,21.74,8.24,21c.37-.36.69-.77,1-1.13s.72-.75,1.12-1.09A2.62,2.62,0,0,0,11.67,16a1.75,1.75,0,0,1,.93-1.82,1.15,1.15,0,0,1,1.08.21,2.4,2.4,0,0,1,.42,1.08c.23,2.8-.36,5.62.23,8.41a3.22,3.22,0,0,1,0,.76C14,25.7,14.5,27,13.16,28c-.62-1.14-.25-2.29-.35-3.34,0,0,0,0,0,0v1.69c0,2.94,0,3-3,3-1.52,0-1.3.78-1.14,1.66.55,2.94,1.27,5.86,1.74,8.82a4.77,4.77,0,0,1,.17.65c.07,1,.63,2,.73,3a.78.78,0,0,1-.41.56,1.87,1.87,0,0,1-1.72-.09,4.77,4.77,0,0,1-.7-2.58c0-.07,0-.21,0-.21C8.26,41,8.39,41.4,8.19,41.38Z"/><path class="cls-66" d="M5.4,31.09a3.48,3.48,0,0,1,.46,2.54C5,32.91,5.45,32,5.4,31.09Z"/><path class="cls-66" d="M2.55,20.68l.88-.15a.59.59,0,0,1,.58.14.94.94,0,0,1,0,.62c-.46.68-.54,1.55-1,2.22C2,22.68,1.49,21.8,2.55,20.68Z"/><path class="cls-67" d="M3,23.51c.25-.8-.68-2,.88-2.33a1.21,1.21,0,0,1,.31,1.61l-.25.26-.45.61Z"/><path class="cls-32" d="M14,24c-1.39-2.82-.13-5.78-.47-8.65A7.14,7.14,0,0,0,14.9,13.8c1.53-2.33,2.43-2.41,4.57-.47a2,2,0,0,1,.15,1.74.91.91,0,0,1-.7.54,3.87,3.87,0,0,0-.43.07c.16.22.41.16.64.19a1.62,1.62,0,0,1,.89.23l.21.24c.38,2-.86,4.08,0,6.15A1.25,1.25,0,0,1,20,23.61c-2,1.87-1.78,3.75-.15,5.69.1.11.2.38.16.42-1.72,1.65.46,2.6.68,3.9.73.69-.21,2.28,1.5,2.59.38.06.48,1.79,0,2.17-1.46,1.13-.79,2.57-.92,3.9a2.25,2.25,0,0,1-.45,1,3.52,3.52,0,0,1-2,.55c-.4,0-1.09.06-1.1.26-.11,2.6-3.62,3.62-2.89,6.71.53,2.26.77,4.72-.84,6.83-1,0-1.33-.93-1.87-1.54,0-.31-.07-.62-.11-.94a14,14,0,0,1-1.82-7.66c.05-.35-.66-.59-.14-1s1-.79,1.65-.37a1.24,1.24,0,0,1,.52.52c.07.31-.27.26,0,.19,0,0,0-.08,0-.24s0-.22-.08-.23c-.4-1.67-.45-3.19,1.55-3.92a1.68,1.68,0,0,0,1-1.51,93.41,93.41,0,0,1,1.37-9.36c.35-1.43.25-3,.92-4.44.34-.74.91-2.43-1.34-1.7C14.79,25.75,14.52,24.56,14,24Z"/><path class="cls-68" d="M10.18,47.53c1,2.47,1.19,5.11,1.82,7.66-1.84-1.44-2.29-3.56-2.73-5.68C10.24,49.16,8.71,47.66,10.18,47.53Z"/><path class="cls-69" d="M11.59,46.57a1.67,1.67,0,0,0-1.55,0c.24-1.06-1-.78-1.26-1.43.37-.4,0-1,.42-1.39h1.9A2.32,2.32,0,0,1,11.59,46.57Z"/><path class="cls-32" d="M9.2,43.71c0,.49.1,1-.42,1.39a13.83,13.83,0,0,1-.59-3.72l.09-.93.27-.08Z"/><path class="cls-70" d="M18.31,80.66h1l.28.3A2.82,2.82,0,0,1,19.27,84l.05,0a.65.65,0,0,1-1-.09c0-.45-.07-.89-.1-1.34A2.22,2.22,0,0,1,18.31,80.66Z"/><path class="cls-71" d="M20.2,86l.48.48c-.09.79.37,1.67-.42,2.33,0-.94-1.13-1.38-1-2.37C19.24,85.58,19.63,85.59,20.2,86Z"/><path class="cls-22" d="M20.2,86a1,1,0,0,0-.95.44A2.76,2.76,0,0,1,18.36,84l1,.09A3.41,3.41,0,0,0,20.2,86Z"/><path class="cls-72" d="M18.31,80.66c0,.66,0,1.32,0,2-.62-.69-.4-1.55-.48-2.36l.34-.26Z"/><path class="cls-73" d="M25,89.77l1.9,0a3.05,3.05,0,0,1,0,.43H23C23.69,89.48,24.42,89.92,25,89.77Z"/><path class="cls-23" d="M50.43,62.88a7.68,7.68,0,0,1-.89-4.36A8.77,8.77,0,0,1,50.43,62.88Z"/><path class="cls-3" d="M14,57.67a20,20,0,0,0,.08-8C13.8,48.63,13.45,47,15.58,47c.7,0,.89-.67.79-1.23-.45-2.51,1-2.72,2.92-2.55.47,0,.95,0,1.42,0a2.42,2.42,0,0,1-.08,3.3c-2.36,2.53-1.19,5.13-.41,7.71a3.7,3.7,0,0,1,.07,2.83c.83-.55,1.45-1.64,2.5-1.07A3,3,0,0,1,24,59.15,3.23,3.23,0,0,0,26.41,63a3,3,0,0,1,.54.39h0c.12.66-.23,1.43.45,2-.08,2.75.69,5.4,1,8.11a.84.84,0,0,0,0,.47c-.17,2.14,1.21,4.06.91,6.23-.8-1.67-2.08-.34-3.05-.33s-1.66.9-2.49,1.4c1.09.77.21,3,2.28,3,.78,0,1.56.15,2.34.23l-.49.94a2.24,2.24,0,0,1-2.87,0c-1.78-.41-3.33-1.66-5.27-1.45-.64-1.05.12-2.31-.47-3.37h0c-.1-4.24-1.55-8.27-1.93-12.47-.6-1.12.39-1.33,1-1.71a2.1,2.1,0,0,0,.85-3.22c-.81-1.19-1.6-3-3.67-1.61a.65.65,0,0,1-.56-.27c-.13-.79.23-1.67-.47-2.35-.33,0-.36-.3-.52-.47h0C14,58.26,14,58,14,57.67Z"/><path class="cls-74" d="M15.39,61.48c.35-.56,0-1.61,1.53-1.13a4.8,4.8,0,0,1,3.24,3.44c.55,1.74-.22,3.1-2.2,3.48-.46.09-.55.51-.61.91l-.93-1.93c-.81-1-.35-2.43-1.29-3.36A1.39,1.39,0,0,1,15.39,61.48Z"/><path class="cls-75" d="M15.5,62.84a4.28,4.28,0,0,1,.92,3.41c-1.37-.11-.83-1.23-1-2l-.48-.89C14.8,62.89,15,62.74,15.5,62.84Z"/><path class="cls-76" d="M15.5,62.84l-.59.56a1.27,1.27,0,0,1,.08-2,1.82,1.82,0,0,0,.4.11C15.42,61.93,15.46,62.38,15.5,62.84Z"/><path class="cls-24" d="M14,58.55l.52.47c0,.51-.08,1-.15,1.79A3.66,3.66,0,0,1,14,58.55Z"/><path class="cls-28" d="M1.07,10.1c.82,1,.3,2.24.43,3.36C.68,12.43,1.18,11.22,1.07,10.1Z"/><path class="cls-77" d="M3.88,20.69l-.45-.16c-.2-.31-.4-.62-.59-.93.22-.42.62-.39,1-.41.59-1.1,1.58-2,2-3.18a2,2,0,0,1,.78-1.08A19,19,0,0,0,9.44,12c1-1.48,2.22-1.78,3.47-.19a2.47,2.47,0,0,1-.35,2.63,2.9,2.9,0,0,0-.49,1.92,6.78,6.78,0,0,1-1.44,2.87l-1,1a1.56,1.56,0,0,1,0-2.15c-2.21,1.28-2.34,1.71-.92,3.11C8.08,22.25,6.82,22.68,6,23.68a1.18,1.18,0,0,1-2.12-.63h0C4.16,22.26,4.93,21.48,3.88,20.69Z"/><path class="cls-78" d="M6.29,16.32c-.93.86-.84,2.59-2.44,2.87a2.6,2.6,0,0,1-.46-1.83c.22-1.19,1.77.2,2-1A.62.62,0,0,1,6.29,16.32Z"/><path class="cls-28" d="M2.49,12.49c.7,1.22.41,2.55.43,3.84A5.55,5.55,0,0,1,2.49,12.49Z"/><path class="cls-79" d="M26.55,63.34c-1.83.09-3.42-1.49-3.12-3.08a2.79,2.79,0,0,0,.12-1.17c-.25-1,0-2.28-1-2.73s-1.26,1-2,1.39c-.32.19-.51.64-1.19.4,1.35-3.27-1-6.2-.93-9.42,0-.55-.28-1.32.32-1.48,2.29-.61,1.83-2.44,1.95-4v-1c1.27.15,1.05,1.22,1.05,2,0,1.63.93,2,2.28,1.89.88,1.66.35,3.69,1.41,5.29.19.09.26.18.21.28s-.12.16-.18.16a5,5,0,0,0,.5,3.37c.64,1.25-.14,2.66.46,3.92a.9.9,0,0,0,0,.4A7.57,7.57,0,0,1,26.55,63.34Z"/><path class="cls-80" d="M24,46.11c-.53.43-.92,1.22-1.79.84s-.95-1.18-1.06-2,.36-1.93-.48-2.71c0-1.43-.49-2.95,1.08-4,.61-.42.59-1.73.05-1.86-1.85-.45-1-1.75-1.13-2.74h1A61.71,61.71,0,0,1,24,46.11Z"/><path class="cls-81" d="M27.38,31.23l.54,2.88c-2.24-.07-.55-2.15-1.48-2.89Z"/><path class="cls-82" d="M35.59,39.38a6.34,6.34,0,0,0-.83-3.17c-.65-1.58-1.26-3.12-.77-5,.32-1.26,1.1-3.34-1.66-3.46a.61.61,0,0,1-.27-1.1c1.24-.91,2.38-2.23,4.16-1.82a3.61,3.61,0,0,1,3.1,3.62c0,1,1.33,2.4-.37,3.25-.66-.54-.58-1.46-1.17-2.32-.6,1.6-1.64,2.87-1.48,4.67,1.14-.53.67-2.33,2.17-2.34-.7,1.85,1.72,1.63,1.92,2.88-.85.62-.22,1.67-.81,2.75-.11-1-.19-1.68-.28-2.51a2.2,2.2,0,0,0-1.78,2.67C37.68,39,37,39.56,35.59,39.38Z"/><path class="cls-52" d="M45.23,47.49a4,4,0,0,1,.46,2.44c-.7.07-1,.38-.69,1.1a2.29,2.29,0,0,1-.63,2.57C42.53,50.88,42.78,49.25,45.23,47.49Z"/><path class="cls-46" d="M26.55,63.34c0-1.27-.06-2.54-.1-3.81,1,1.17.29,2.57.5,3.84Z"/><path class="cls-46" d="M26.44,59.13c-.85-1.23-.28-2.62-.46-3.92C27,56.42,26.28,57.82,26.44,59.13Z"/><path class="cls-83" d="M25,85.46h2.87v1C26.65,87,25.63,86.87,25,85.46Z"/><path class="cls-72" d="M19.3,80.64c.79,1,.32,2.25.46,3.37h-.49Z"/><path class="cls-39" d="M38.47,31.7c-.47,1-1,2-1.4,3-.17.37-.27.79-.77.75s-.63-.56-.71-1c-.22-1.46.61-3.8,2.36-6.43a6.31,6.31,0,0,1,1,3.74Z"/><path class="cls-84" d="M29.35,11.54c2.62,2.23,5.48,3.79,9.09,3.36,0,.47.05.95.07,1.42a3.52,3.52,0,0,0-3.08-1c-1.91.08-3.82.2-5.25-1.52-.57-.7-1.5-.31-2.27-.39a.71.71,0,0,1,0-1C28.41,12.19,28.61,11.46,29.35,11.54Z"/><path class="cls-85" d="M27.92,12.49v1h0c-1.32.88-2.85.79-4.32.95-.9.2-1.38-.43-1.91-.95l-.2-.21a.54.54,0,0,1,.23-.72c1.63.08,2.9-1.43,4.65-1C27,11.67,27.8,11.5,27.92,12.49Z"/><path class="cls-32" d="M23.59,14.41c1.17-1.54,2.85-.78,4.32-.95,0,2.29-2.18,1.83-3.37,2.53C24,16.29,23.72,15.09,23.59,14.41Z"/><path class="cls-32" d="M21.68,13.46c-.08,1.16.16,2.48-1.45,2.88h0a2.74,2.74,0,0,1-.16-2.89,1.18,1.18,0,0,1,1.6,0Z"/><path class="cls-32" d="M6.29,16.32l-.93,0c1.72-2.27-.89-4.05-.79-6.24.06-1.23-.69-1.31.59-1.42,1-.08,2,0,3.07,0,1.44,1.14,2.87-.59,4.31,0,.12.44.19,1.06.84.59,1.87-1.31,2.06-.16,2.06,1.34s-1.16,2.63-1.93,3.85h-.95c0-1,0-1.92,0-2.87-.85-.86-1.92-1.16-2.53,0-.83,1.54-2.43,2.33-3.22,3.83A1,1,0,0,0,6.29,16.32Z"/><path class="cls-86" d="M13.51,14.42c-.22-1.72,1.15-2.64,1.93-3.85.63,0,1.27.48,1.91,0,.4-.4.57-1.15,1.4-1l.1,0a6.47,6.47,0,0,0,2.32,2.85l.54,0c0,.31,0,.62,0,.93H20.21a.63.63,0,0,1-.93,0c-1.79-1-3.46-1.87-4,1.27-.15.95-1.14.55-1.79.64C13.51,15.05,13.51,14.73,13.51,14.42Z"/><path class="cls-87" d="M21.17,12.48c-2,0-2.49-1.13-2.32-2.85.45-.34.63-1.15,1.45-.88.47.45,0,1.23.56,1.68.58-.47-.24-1.19.31-1.65l0-.21,1,.1C23.69,10.43,22.6,11.5,21.17,12.48Z"/><path class="cls-88" d="M21.17,8.78a8.38,8.38,0,0,0,.59,1c.45.58.07,1-.22,1.46a.83.83,0,0,1-1.05.22,1.13,1.13,0,0,1-.64-1.35,10.12,10.12,0,0,1,.45-1.31Z"/><path class="cls-89" d="M18.75,9.61c-.46.33-.66,1-1.4,1-.37-.77-.9-1.67.22-2.14C18.47,8.05,18.7,8.86,18.75,9.61Z"/><path class="cls-61" d="M33.67,8.64a4.71,4.71,0,0,1-3.36-.94h2.4C32.92,8.12,33.94,7.72,33.67,8.64Z"/><path class="cls-56" d="M33.67,8.64l-1-.94h1.44a1.45,1.45,0,0,1,1.44,1Z"/><path class="cls-3" d="M11.59,46.57a8.7,8.7,0,0,1-.49-2.87c0-.16,0-.32,0-.48-.49-.91-.43-2-1-2.88-.17-2.13-.75-4.19-1-6.3-.1-.85-.19-1.84.66-2.38s1.21.77,1.87.87c2-1.36,2.22-3.34,2.1-5.47A4.49,4.49,0,0,1,14,24.5V24c.81-.12,1.36,1.92,2.49.17.36-.56,1.38,0,1.32,1-.07,1.28.54,2.76-.93,3.72-.22.14-.48.6-.4.79.87,2.25.2,4.16-1,6.06-.38.57.69.72.86,1.24.44,1.37-1.55,2-.94,3.64.49,1.37-.37,2.28-2.06,2.79s-.42,2.4-.73,3.63a.28.28,0,0,1-.48,0Z"/><path class="cls-32" d="M14,24.5a30.41,30.41,0,0,0,.25,3.55c.24,1.39,1.14,3.16-1.27,3.9-.89.27,0,1.68-.85,2.39-1-.46-1.27-1.65-2.06-2.71-1.06,3.14.49,5.92.09,8.71-.78-4-2.69-7.79-1.82-12.07,3.41,1.32,4.22.8,4.22-2.58V24c1,.95.06,2.32.71,3.39C13.91,26.52,13,25.27,14,24.5Z"/><path class="cls-90" d="M8.71,21.13c-.69-.06-1.42.18-2.07-.22.29-2.23,2-3.25,3.88-4.57-.19,1.51-1.16,2.56-.85,3.83Z"/><path class="cls-32" d="M10.63,19.21a5.46,5.46,0,0,1,1.44-2.87C12.78,17.89,11.57,18.49,10.63,19.21Z"/><path class="cls-32" d="M10.15,40.34a3.19,3.19,0,0,1,1,2.88A3.2,3.2,0,0,1,10.15,40.34Z"/><path class="cls-32" d="M11.28,23.54c.15-.14.28-.33.45-.38a.55.55,0,0,1,.71.41c0,.11.4.45-.12.44S11.55,24,11.28,23.54Z"/><path class="cls-29" d="M3.88,20.69c.63-.22,1.65-1,1.08.65A2.69,2.69,0,0,1,3.89,23c0-.62,0-1.24-.05-1.86C3.85,21,3.87,20.86,3.88,20.69Z"/><path class="cls-91" d="M19.28,16.34H19c-.61,0-1.36.2-1.6-.65-.07-.27,0-.79.16-.88.71-.38,1,.73,1.66.59A.66.66,0,0,1,19.28,16.34Z"/><path class="cls-92" d="M19.28,16.34c0-.32,0-.64,0-.95,0-.65,0-1.29,0-1.93h.93c0,1,0,1.91,0,2.87Z"/><path class="cls-69" d="M12.07,47h.48c-.06.49-.16,1-.81.88-.16,0-.28-.29-.42-.44Z"/><path class="cls-78" d="M6.79,15.37C7,13.18,9.23,12.57,10.23,11a1.27,1.27,0,0,1,2.31.59c-1.34-.51-2.33-.41-2.92,1.18C9.14,14,7.89,14.66,6.79,15.37Z"/></g></g></svg>