<svg xmlns="http://www.w3.org/2000/svg" viewBox="0 0 68.84 84.12"><defs><style>.cls-1{fill:#353535;}.cls-2{fill:#5e5e5e;}.cls-3{fill:#726f70;}.cls-4{fill:#69686a;}.cls-5{fill:#373737;}.cls-6{fill:#3e3c3c;}.cls-7{fill:#2c2d2d;}.cls-8{fill:#858385;}.cls-9{fill:#5c5c5d;}.cls-10{fill:#4d4c4c;}.cls-11{fill:#bdbbba;}.cls-12{fill:#6d6c6d;}.cls-13{fill:#5b595a;}.cls-14{fill:#343636;}.cls-15{fill:#202324;}.cls-16{fill:#5c5959;}.cls-17{fill:#7d7978;}.cls-18{fill:#948d8a;}.cls-19{fill:#89817f;}.cls-20{fill:#e59f7d;}.cls-21{fill:#eca269;}.cls-22{fill:#b9dde5;}.cls-23{fill:#e78f4c;}.cls-24{fill:#eaefea;}.cls-25{fill:#c3e4ec;}.cls-26{fill:#eb8946;}.cls-27{fill:#de7f45;}.cls-28{fill:#a2dcf2;}.cls-29{fill:#3f3f41;}.cls-30{fill:#4b4846;}.cls-31{fill:#514c4b;}.cls-32{fill:#656464;}.cls-33{fill:#454342;}.cls-34{fill:#343536;}.cls-35{fill:#2e2e2e;}.cls-36{fill:#b0acad;}.cls-37{fill:#7c7977;}.cls-38{fill:#3a3939;}.cls-39{fill:#454445;}.cls-40{fill:#f6ad67;}.cls-41{fill:#eba05d;}.cls-42{fill:#585453;}.cls-43{fill:#646b6c;}.cls-44{fill:#e1edf1;}.cls-45{fill:#e0a88c;}.cls-46{fill:#645f5e;}.cls-47{fill:#696563;}.cls-48{fill:#ebf6f8;}.cls-49{fill:#444546;}.cls-50{fill:#4c4d4f;}.cls-51{fill:#4b4d4f;}.cls-52{fill:#7f7e80;}.cls-53{fill:#838284;}.cls-54{fill:#59595a;}.cls-55{fill:#929294;}.cls-56{fill:#57585a;}.cls-57{fill:#4b4c4c;}.cls-58{fill:#565556;}.cls-59{fill:#1a1c1d;}.cls-60{fill:#151516;}.cls-61{fill:#494d4e;}.cls-62{fill:#d8e5e8;}.cls-63{fill:#e9f5f7;}.cls-64{fill:#5b5b5d;}.cls-65{fill:#9e9b9b;}.cls-66{fill:#343436;}.cls-67{fill:#919092;}.cls-68{fill:#5c5b5d;}.cls-69{fill:#7c7a7c;}.cls-70{fill:#88878a;}.cls-71{fill:#4c4d4e;}.cls-72{fill:#6d6c6e;}.cls-73{fill:#8a888b;}.cls-74{fill:#5f5f60;}.cls-75{fill:#8a898c;}.cls-76{fill:#717070;}.cls-77{fill:#696a6b;}.cls-78{fill:#696464;}.cls-79{fill:#807c7d;}.cls-80{fill:#52504f;}.cls-81{fill:#7a7575;}.cls-82{fill:#54504f;}.cls-83{fill:#e8813f;}.cls-84{fill:#f7a841;}.cls-85{fill:#ed9931;}.cls-86{fill:#f8e4d4;}.cls-87{fill:#f1f2f2;}.cls-88{fill:#f4b65a;}.cls-89{fill:#ed842c;}.cls-90{fill:#f5a745;}.cls-91{fill:#f4f7f8;}.cls-92{fill:#e98664;}.cls-93{fill:#f4ddba;}.cls-94{fill:#fad7a7;}.cls-95{fill:#facc8f;}.cls-96{fill:#f3bb68;}.cls-97{fill:#f4be72;}.cls-98{fill:#f6a53d;}.cls-99{fill:#f6bf73;}.cls-100{fill:#505153;}.cls-101{fill:#333535;}.cls-102{fill:#303131;}.cls-103{fill:#4e4e50;}.cls-104{fill:#353737;}.cls-105{fill:#595756;}.cls-106{fill:#525355;}.cls-107{fill:#4a4a49;}.cls-108{fill:#a9dff3;}.cls-109{fill:#e7f4f7;}.cls-110{fill:#f7f8f6;}.cls-111{fill:#f4fafc;}.cls-112{fill:#454646;}.cls-113{fill:#f2b24f;}.cls-114{fill:#fbf9fa;}.cls-115{fill:#454546;}.cls-116{fill:#5f6160;}.cls-117{fill:#afabac;}.cls-118{fill:#646264;}.cls-119{fill:#dde5e8;}.cls-120{fill:#33302f;}.cls-121{fill:#050605;}.cls-122{fill:#959090;}.cls-123{fill:#d9e2e4;}.cls-124{fill:#434242;}.cls-125{fill:#8d8c8e;}.cls-126{fill:#6e6c6f;}.cls-127{fill:#939194;}.cls-128{fill:#5d5c5d;}.cls-129{fill:#eef6f7;}.cls-130{fill:#d48556;}.cls-131{fill:#595e5d;}.cls-132{fill:#f5b35b;}.cls-133{fill:#777678;}.cls-134{fill:#59585a;}.cls-135{fill:#6e6d6e;}.cls-136{fill:#696869;}.cls-137{fill:#828082;}.cls-138{fill:#676768;}.cls-139{fill:#898889;}.cls-140{fill:#939394;}.cls-141{fill:#7a787b;}.cls-142{fill:#fbb32d;}.cls-143{fill:#f7ca86;}.cls-144{fill:#fcfcfd;}.cls-145{fill:#5a595b;}.cls-146{fill:#6f6e6e;}.cls-147{fill:#deeff3;}.cls-148{fill:#818080;}.cls-149{fill:#f9e4c2;}.cls-150{fill:#fab236;}.cls-151{fill:#616061;}.cls-152{fill:#919192;}.cls-153{fill:#888688;}.cls-154{fill:#dae7ea;}.cls-155{fill:#bcb6b5;}.cls-156{fill:#807e80;}.cls-157{fill:#3a3b3b;}.cls-158{fill:#858688;}.cls-159{fill:#2d2d2e;}.cls-160{fill:#706d6e;}.cls-161{fill:#464749;}.cls-162{fill:#888789;}.cls-163{fill:#8c8b8f;}.cls-164{fill:#696868;}.cls-165{fill:#777576;}.cls-166{fill:#89888a;}.cls-167{fill:#9a9a9d;}.cls-168{fill:#494a4c;}.cls-169{fill:#dadfe4;}.cls-170{fill:#6f6e6f;}</style></defs><title>penguin</title><g id="Layer_2" data-name="Layer 2"><g id="Layer_1-2" data-name="Layer 1"><path class="cls-1" d="M1.13,47.45A2.49,2.49,0,0,0,1,45.75C.37,40.16-.61,34.57.51,28.93c.6-1.46.14-3.13.9-4.56A3,3,0,0,0,2,21.5a2.7,2.7,0,0,1,.43-1.77c1.67-1.09,2.05-.19,2,1.32-.19,1,.17,2,.08,3,.22,4.57-.27,9.19.9,13.7.18,1.91.93,3.68,1.24,5.56.12.3.42-.07.13.06-.07,0-.1,0-.15-.19a1.62,1.62,0,0,1,.15-1.79c1.44.16,1,1.55,1.49,2.3,1.52,3.24,1.44,7,3.35,10.15a4.13,4.13,0,0,1,.08,3c-.19.66-.5,1.17-1.3,1.13-1.84-.83-1.65-2.86-2.52-4.26a5.7,5.7,0,0,1-.55-1.3c0-1.83-1.4-3-2-4.58a14.53,14.53,0,0,1-.38-3c-.79,1.19.09,2.64-1.13,3.41-1.56-1.09-.8-2.71-.91-4.12a10.09,10.09,0,0,1,.54-2.51C.77,45,3.39,48.56,2.84,52c.23-.52,0-1,.2-1.56s.3-1.18,1.12-.71A4.06,4.06,0,0,1,4.63,52a17.8,17.8,0,0,1-.16,3.18,1.71,1.71,0,0,1-.33.66c-.71.45-1.1-.2-1.47-.45-.34,3.39.24,6.76.68,10.13A1.46,1.46,0,0,1,2.92,67c-1.34-.32-1.22-1.42-1.38-2.43a34,34,0,0,0-.4-3.51l0,.05A12.23,12.23,0,0,1,1,54.34,17.55,17.55,0,0,0,1.13,47.45Z"/><path class="cls-2" d="M7.75,43.91c-.8-.65,0-1.87-.9-2.49a1.49,1.49,0,0,1-.51-1.24c-.1-1.9,1.87-.89,2.49-1.77a22,22,0,0,0,.82-2.49c.19-.68.41-1.65,1.18-1.59,1.1.1.7,1.18.78,2.17a14.11,14.11,0,0,1,1.42-6c.34-.81.76-2.08,2.21-1.39.75,2.48-.57,4.74-.73,7.13-.33,2.53-1.78,4.78-1.87,7.38A1.43,1.43,0,0,1,12,44.87c-.47-.06-1,.19-1.43-.18-.35-.74,0-1.55-.25-2.3,0-.31-.3-.13-.19,0,.67.69-.16,1.79.62,2.49a.94.94,0,0,1,.08.93c-.84.94-1.29.45-1.67-.43C8.9,44.71,8.92,43.71,7.75,43.91Z"/><path class="cls-3" d="M4,23.67c.32-.8-.82-1.58,0-2.38C4.7,20,3.76,18,5.82,17.35a1.22,1.22,0,0,1,.47.94,2.73,2.73,0,0,1-.07.7,5.93,5.93,0,0,0,.08,5.26c.2.41.22,1.07.79,1.05s.92-.59,1-1.16a8.67,8.67,0,0,1,1.26-4.27c.45-.69.85-1.67,2-.84-.44,4.13,0,8.56-3.84,11.54a2.33,2.33,0,0,1-.72.32c-1.82.23-2.59-.56-2.56-2.39A18.19,18.19,0,0,0,4,23.67Z"/><path class="cls-4" d="M7.75,43.91c.63-1.72,1-1.16,1.66.05.33.6-.5,2.21,1.26,1.8a1.08,1.08,0,0,1,.69.69,2.55,2.55,0,0,1,.07.67c.71,3.9,2.09,7.66,2.39,11.63-.27.76-.24,2.06-1.59.9-.24-.68-.46-1.38-.69-2.06a2.39,2.39,0,0,0-.37-.81,6.59,6.59,0,0,0-1-4.72C8.71,49.58,9.08,46.48,7.75,43.91Z"/><path class="cls-5" d="M11.17,56.78l.47.51a6.88,6.88,0,0,0,.95,1.92l.24.61.72-1.09a1.78,1.78,0,0,1,.24-2.11c2.13,1.54.94,4,1.65,5.82.56,2.17-.39,4.25-.35,6.39a2.43,2.43,0,0,1-.25.73.94.94,0,0,1-.58.45,1.17,1.17,0,0,1-.69-.12c-.27-2.27-.27-2.27-1.9-4.55-.43-.58-1.28-.94-1.07-1.89,1-1.67-.28-3.18-.34-4.77a.85.85,0,0,1,0-.92A.88.88,0,0,0,11.17,56.78Z"/><path class="cls-6" d="M5.87,17.44C4.63,18.42,5,20.22,4,21.29c0-.91.24-2.05-1.36-1.44-.37-.4-.16-.82-.05-1.23A12,12,0,0,1,3.6,16.25c1.24-.8,0-1.87.28-2.77.07-.32.62-.39.45-.85l1.56-1.87c.4.18.41,1.18,1.22.49.63-.54,1.19-1.33,2.23-1a1.79,1.79,0,0,1,.32.61A11.4,11.4,0,0,1,5.87,17.44Z"/><path class="cls-7" d="M3,67.75,3,66.94c-.59-4.17-1.48-8.33-.7-13.06l1.68,2c.2,2.16.2,2.16,1.61,4.35a1,1,0,0,1-.26.6c-1.28.3-1.79.87-1.26,2.3.38,1,.72,2.07,1,3.13s.7,2-.36,2.8a1.67,1.67,0,0,1-.7.09C3.21,69,3.31,68.24,3,67.75Z"/><path class="cls-7" d="M3.94,49.6c-.93.95-.17,2.17-.58,3.21C2.05,52.49,2,51.45,2,50.28a18.52,18.52,0,0,0-.31-3.55C1.48,45.12,1,43.35,2.66,42c.76-.62,0-1.89.85-2.82.76,1.26.45,2.46.23,3.66-.33,1.79-.62,3.59.19,5.35A1,1,0,0,1,3.94,49.6Z"/><path class="cls-8" d="M10.25,57.76l.33.55c.72,1.16.15,2.33-.22,3.35-.52,1.48-2.11,1.67-3.28.56a26.33,26.33,0,0,1-1.82-2.48,3.91,3.91,0,0,1-.46-1.45,3.56,3.56,0,0,1,.34-2.13c1.12-.84,1.08.25,1.22.8.2.83.15,1.75.86,2.38.36.33.79.61,1.28.34s.43-.8.22-1.24c-.64-1.38-1.36-2.69-3.17-2.72A.82.82,0,0,1,5,56a1.23,1.23,0,0,1-.46-.5c-.28-2.2.06-2.55,1.83-1.82.13.06.19.25.27.39a1.27,1.27,0,0,1,0-.61c.57-1.14,1.15-.2,1.72,0Q9.27,55.6,10.25,57.76Z"/><path class="cls-9" d="M4,23.67c.87.13,1,.66.72,1.38a9.65,9.65,0,0,0-.28,3.07c-.18,1.83.71,2.47,2.41,2.29.3,1.06-.76,2-.19,3.12a4.67,4.67,0,0,1,.13.65c-.26,1.3,0,2.64-.3,3.94a1.15,1.15,0,0,1-1,.3,1.39,1.39,0,0,1-.59-.36C3.43,33.34,4,28.49,4,23.67Z"/><path class="cls-10" d="M3.94,49.6c0-.47,0-1,0-1.42,0-1,0-2.08,0-3.12,0-.64,0-1.46.87-1.43s.86,1,.82,1.5a7.05,7.05,0,0,0,.23,2.55c-1,1.21.46,2.63-.31,3.86A1.38,1.38,0,0,1,4,52Z"/><path class="cls-11" d="M2.94,18.9c-.11.32-.23.64-.34,1l-.12,1.83c-.49.77.31,1.77-.45,2.49-1,1.31,0,3-.93,4.35-.47-2.88.81-5.95-1-8.68a11.74,11.74,0,0,0,1.94-1.19A.78.78,0,0,1,2.94,18.9Z"/><path class="cls-12" d="M4,52l1.41-.51c1.3-.91,2-.25,2.4,1l.5.95c-1.07-.5-1.95.46-3.12.33S5,55.11,4.91,55.85c-.54.24-.71-.2-.94-.52Z"/><path class="cls-13" d="M7.79,52.49a2.37,2.37,0,0,0-2.4-1c.43-1.25-1.79-2.84.5-3.84C6.57,49.26,8.15,50.49,7.79,52.49Z"/><path class="cls-14" d="M4,55.33l.94.52h0c.58.72-.1,1.69.47,2.41,0,.48,0,1,0,1.43.15.13.19.24.12.35s-.12.14-.18.14c-1.87-1-2.43-2.4-1.39-4.32C4,55.68,4,55.51,4,55.33Z"/><path class="cls-15" d="M4.92,38.06a3.49,3.49,0,0,0,.44,0A5.15,5.15,0,0,1,6.84,40c0,.48,0,1,0,1.42V43.3C5.8,41.66,4.83,40,4.92,38.06Z"/><path class="cls-6" d="M2,24.17c.08-.84-.23-1.75.45-2.49C2.52,22.55,3.5,23.58,2,24.17Z"/><path class="cls-1" d="M56.81,28.49l.4.53c.29,1.48-1,2.94-.07,4.42.78,1.13,1.56,2.25,2.31,3.4.35.51.67,1,1,1.56.67.89,1,2.05,2,2.71s3.13.7,2.36,2.92c-.35.57-.46,1.38-1.36,1.4a26.59,26.59,0,0,1-7.92-10.76,3.26,3.26,0,0,0-.93-1.22,5,5,0,0,1-1-1.57c-.19-.49-.34-1-.57-1.47A30.15,30.15,0,0,0,49.65,25,3,3,0,0,1,49,23.84c-1.13-2.12-2.36-4.18-3.67-6.2a29.45,29.45,0,0,0-4.67-7.28,17.38,17.38,0,0,1-1.42-1.29,16.78,16.78,0,0,0-2-2.41,8.42,8.42,0,0,0-1.7-1.45c-.78-.62-2.2-1.21-.1-2A7.07,7.07,0,0,1,40.23,6,11.75,11.75,0,0,0,43.4,8.46a21.16,21.16,0,0,1,3.16,3.95,5.21,5.21,0,0,0,1.29,2.44,5.12,5.12,0,0,0,1.89,1.92A4.66,4.66,0,0,1,51,19a.78.78,0,0,0,0,.4,4.72,4.72,0,0,1,.41.48c.61.92.32,2,.55,3a13.49,13.49,0,0,0,1.81,3C54.62,26.89,56.12,27.23,56.81,28.49Z"/><path class="cls-16" d="M43.31,8.82A4.75,4.75,0,0,1,40.39,7a10.85,10.85,0,0,0-4.75-3.47c-.53-.45-1.82-.17-1.43-1.49l.94.07h0A6.67,6.67,0,0,1,38,3.48l.9.56a6.76,6.76,0,0,1,4.31,3,.81.81,0,0,0,.06.31A1,1,0,0,1,43.31,8.82Z"/><path class="cls-17" d="M46.59,11.27c.19.62.37,1.24.55,1.86-.54.28-.68-.23-1-.48L43.31,8.82c0-.48,0-1,0-1.43C44.84,8.32,45.52,10,46.59,11.27Z"/><path class="cls-18" d="M51,19.9l0-.54,1.4,0c.24.62.66,1.19.46,1.92C51.71,21.54,51.62,20.34,51,19.9Z"/><path class="cls-19" d="M2.05,18.9c-.43.73-.81,1.58-1.92.94l0-.91L1,18.39a.86.86,0,0,1,1-.12A.43.43,0,0,1,2.05,18.9Z"/><path class="cls-20" d="M60.68,68.76c.75.23.74,1.09,1.28,1.5-.17,2.34-.52,4.56-3.21,5.4a1.07,1.07,0,0,1-.42-.54,1.7,1.7,0,0,1,.11-1c.38-.58,1-1.06,1-1.8.12-1-.15-1.66-1.36-1.44a.7.7,0,0,1-.54-.12c-.39-.38-.36-1.11-1-1.25a22.42,22.42,0,0,1-2.45-.29c-.69-.3-1.51.26-2.17-.33,1-2.18,2-2.74,3.9-2.17-.24,1.39,1,.66,1.47,1A10.09,10.09,0,0,1,60.68,68.76Z"/><path class="cls-21" d="M58.62,75.06c0,.2.09.4.13.6a3.55,3.55,0,0,1-2.49,2.69c-2.72-.54-4.77,1.38-7.2,1.92A1.19,1.19,0,0,1,49.54,79C51.07,77.65,53,77.31,54.91,77c1.15-.19,1.29-1.69,2.44-1.89A1.45,1.45,0,0,1,58.62,75.06Z"/><path class="cls-22" d="M40.44,70.74c-1.95,1.39-4.2.8-6.34,1-.83.06-2-.52-2.3.93h-1c-.11-.11-.28-.31-.37-.27-2.74,1.16-5.53-.57-8.27.16a4.6,4.6,0,0,1-2.71-.66c-.37-.08.23-1-.74-.7-.66.22-1.59.28-1.92-.76.72-1.29,2-1.2,3.21-1.34,2.14,0,4.28,0,6.42,0a37.73,37.73,0,0,0,10.11-.79,8.39,8.39,0,0,1,2.6-.12,3.19,3.19,0,0,1,1.6.42C41.49,69.41,40.92,70.07,40.44,70.74Z"/><path class="cls-23" d="M20.24,84.11l-.19,0-.18.05-2.95-.93c-1.17-.78-2.66-1.49-.7-3a1.8,1.8,0,0,1,1,.32c1.34,1,2.7,1.53,4.18.26a3.58,3.58,0,0,1,2.28-1.24c.71,0,1.32.43,2,.47a1.41,1.41,0,0,0,1.44-.54c.45-.85-.61-.88-.87-1.36a2.25,2.25,0,0,1-.62-1.6c.41-2,1.65-.56,2.54-.63a1.92,1.92,0,0,1,1.22.69c1.13,4-.15,5.74-4.69,6.13C23.06,82.82,21.5,83,20.24,84.11Z"/><path class="cls-24" d="M29.36,76.55l-1.28-.12c-1.86-1.6-3.54-3.45-5.9-4.38.61-.53,1.35-.31,2-.35,1.92-.13,3.79,1.46,5.77.07.38-.27.78.35.84.87C27.21,72.76,29.52,75.12,29.36,76.55Z"/><path class="cls-25" d="M40.92,68.81H39.47c-.57-1.15.43-1.33,1.08-1.67a6.72,6.72,0,0,1,3.4-.89,10.29,10.29,0,0,0,6.51-2.47,2.55,2.55,0,0,1,1.41-.29c2,.93,2.14,1.58.41,2.83a49.3,49.3,0,0,1-4.58,2.48c-.16.15-.34.29-.51.42-.91,1.23-2.58.76-3.65,1.64-.35.39-.67.81-1.27.8l-.41-.91A3.62,3.62,0,0,0,40.92,68.81Z"/><path class="cls-26" d="M42.27,71.65l1-1a1.69,1.69,0,0,1,.65-.34,11.51,11.51,0,0,0,3.6-.49c1.54,0,2.72-1.63,4.41-1,.65.29,1.32-.5,2,0,.59,1-.3,1.4-.88,1.85a24,24,0,0,1-2.28,1.26c-.51.24-1.06.4-1.59.63a22.36,22.36,0,0,1-2.52.93,5.5,5.5,0,0,1-1.33.21,5.11,5.11,0,0,1-1.61-.18,4.84,4.84,0,0,1-1.22-.89Z"/><path class="cls-27" d="M42.46,72.63c.58-.35.89-.21.87.49.22,1.85,0,3.85,1.93,5,1.25,1.14,3.15,0,4.35,1.22-.18.3-.36.59-.55.88a6.72,6.72,0,0,1-4.45-.17C41.37,78.79,40.86,76.9,42.46,72.63Z"/><path class="cls-28" d="M40.92,68.81c1.59,0,1.87.68.94,1.93H40.44A3.07,3.07,0,0,1,40.92,68.81Z"/><path class="cls-29" d="M64.43,43.84c.62-2.2-1.82-1.37-2.39-2.4.7-.74-.67-1.31-.17-2,.4-.54.78-1.14,1.62-.83a.22.22,0,0,1,0,.29c.74.59.72,1.84,1.83,2.12l1.09,1.42c1,.8-.43,2.22.74,3a7.84,7.84,0,0,0,1,2.81c.35,2.33.7,4.66-.76,6.79-.9-.59-.72-1.54-.74-2.39a7.46,7.46,0,0,0-.88-3.68,2.23,2.23,0,0,1-.19-.67c.26-1.54-1-2.66-1.19-4.07C64.44,44.06,64.44,44,64.43,43.84Z"/><path class="cls-30" d="M56.77,33.76c-.56-.89-1.49-1.77-.19-2.78.35-.27.28-.41,0-.67-1.82-1.47.75-.69.67-1.29a.93.93,0,0,1,.47,0c.79,2,2.66,3.42,3.09,5.62a1.09,1.09,0,0,1-.93.46,2.55,2.55,0,0,1-1.31-.43,4,4,0,0,1-1.12-1.19c-.12-.18-.13-.42-.29-.58A1.25,1.25,0,0,1,56.77,33.76Z"/><path class="cls-31" d="M59.61,34.74l1.16-.07c1,1.25,2.47,2.14,2.72,3.9l-1.45,1c-.9.37-1.1-.51-1.58-.89A22.61,22.61,0,0,1,59.61,34.74Z"/><path class="cls-31" d="M65.37,41c-2.45.89-1-1.6-1.83-2.12C64.64,39.14,64.81,40.23,65.37,41Z"/><path class="cls-32" d="M21.23.61c2.93-.27,5.85-1.2,8.78,0-1.06,1-2,2.25-3.74,2.15-3.13.13-6.34-.4-9.29,1.12-.69-.11-1.46.22-2.07-.36C16.66,1.72,19.11,1.54,21.23.61Z"/><path class="cls-33" d="M14.91,3.48c.49.32,1-.5,1.52.07,0,1.21-.95,1.6-1.72,2.17a15.29,15.29,0,0,1-2,.9c-.71,0-1.45.36-2.07-.25C11.41,5,13,4.58,14.1,3.56Z"/><path class="cls-34" d="M65.87,48.18C68.05,50.09,67,52.71,67.4,55c.82,1.7-.13,2.91-1.11,4.12L65,60.73c-.54.4-1,1-1.77.38-2.25-1.76.42-2.64.7-4,.16-.28.35-.54.53-.8,1.1-2.07-.27-4.17.07-6.25a3,3,0,0,1,.09-.66C65,48.93,64.87,48,65.87,48.18Z"/><path class="cls-35" d="M61,64l-.22,0-.22.06a1.86,1.86,0,0,1-.91.39,27.51,27.51,0,0,1-5-.05,1.15,1.15,0,0,1-.5-.37c-.58-.62.86-.94.24-1.57a2.69,2.69,0,0,1-.47-1.5c.1-.67.43-1.06,1.16-1a2.06,2.06,0,0,1,1,.92,2.83,2.83,0,0,0,2.08,1.46c.5-.11.62-.63,1-.89a1.42,1.42,0,0,1,.57-.09c1.14.49,1.64-1.84,2.93-.66a4.41,4.41,0,0,1-1.12,2.82Z"/><path class="cls-36" d="M66.29,59.14c0-1.48,1.22-2.61,1.11-4.12.88-2.2.61-4.54.81-6.82,1.26,2.3.16,4.8.6,7.17a9.92,9.92,0,0,1-1.09,3.21C67.4,59.2,67,59.64,66.29,59.14Z"/><path class="cls-37" d="M61.54,63.51a3.38,3.38,0,0,1,1.06-2.84.51.51,0,0,1,.86,0c.51.81,1.05,0,1.57,0A5.16,5.16,0,0,1,61.54,63.51Z"/><path class="cls-38" d="M10.61,6.37c.65.08,1.32-.46,2,0,.46,0,.89.11,1.09.61-1.06,1.66-2.81,2.37-4.45,3.23C8.2,11.05,7,11.68,6.47,13c-.93-.7-.45-1.55-.58-2.27l.46-.6A5.08,5.08,0,0,0,8.68,7.82c.51-.47,1.43-.51,1.51-1.44A3,3,0,0,1,10.61,6.37Z"/><path class="cls-39" d="M26.52,2.08C28.12,2.59,28.57.43,30,.57c1.26.9,3,.33,4.2,1.46.13.83,1.07.88,1.43,1.49-2.08,1.21.86.8.47,1.46-1.33,1.09-2.77.45-4.17.25-2.58.15-5.15.67-7.71-.28-1.27-.48-2.59.71-3.95.18a1.49,1.49,0,0,1-.62-1.35c.74-1.17,1.95-.87,3-.89a57.78,57.78,0,0,1,9.64.95C30.3,3.49,28.11,3.81,26.52,2.08Z"/><path class="cls-40" d="M16.35,80.36c-1.49,1.28.19,1.93.57,2.83-3.16-.16-6.32-.27-9.18-1.88A1.18,1.18,0,0,1,8.36,81c1.49.08,3,.2,4.45.39,1.33-.38,1.66-1.77,2.59-2.56a.86.86,0,0,1,.65,0C16.44,79.28,16.8,79.74,16.35,80.36Z"/><path class="cls-41" d="M8.32,81.24l-.58.07c-2-1.15-1.13-3.13-1.35-4.79a3,3,0,0,1,.42-.06A17.07,17.07,0,0,1,8.32,81.24Z"/><path class="cls-42" d="M51,19.9l1.9,1.41.9,1c.57,1.24,1.15,2.47,1.73,3.71-.53.26-1.13-.3-1.65.14-.77-1.15-1.46-2.35-2.29-3.45Z"/><path class="cls-30" d="M53.82,26c.55-.77,1.11-.35,1.67,0a4.91,4.91,0,0,1,1.32,2.45c-1.05-.93-2.76-.91-3.42-2.4A.28.28,0,0,1,53.82,26Z"/><path class="cls-43" d="M59.66,64h.93c-.17.28-.34.57-.52.85a2.61,2.61,0,0,0-1.45.89c-1.08,1.23-2.1,1.52-3-.22C56.52,63.76,58.33,64.52,59.66,64Z"/><path class="cls-44" d="M55.78,65.46a2.09,2.09,0,0,0,2.84.29L58.25,67l-.31.24a1.91,1.91,0,0,1-2.17-.3c-1.87-.59-2.59,1.2-3.84,1.88-1.47.41-2.69,1.53-4.3,1.52-1.23.45-2.53-.06-3.77.3l-.59.06c-.14-.48-.21-1,.52-.87,1.33.28,2.29-.53,3.38-1a1.38,1.38,0,0,0,1,.47,1.83,1.83,0,0,1-1-.46c1.22-1.71,3.36-1.89,4.94-3,1-.72,1.74-1.36-.15-1.82-1.69-.79-3-2.12-4.61-3.08-1.27-.77-.76-4.85.59-6.27a1.29,1.29,0,0,1,.67.09,7.42,7.42,0,0,1,1.2,2.38,1.32,1.32,0,0,1,0,.9.49.49,0,0,1-.27.26s.11,0,.26-.14c.52.1.76.51,1.06.85a6.46,6.46,0,0,1,.54.75,11.51,11.51,0,0,0,1.74,2.57,11,11,0,0,1,1.21,1.74h0C54.9,64.41,55.68,64.59,55.78,65.46Z"/><path class="cls-45" d="M60.68,68.76l-3.94-.46c-.13-1.14,1-.88,1.49-1.38l0,0A5,5,0,0,1,60.68,68.76Z"/><path class="cls-46" d="M3.88,13.48c1.86.93,1,2,.14,3-.93-.24-.9,1.34-1.89,1C1.6,17,1.75,16.5,2,16l1.44-2.41Z"/><path class="cls-47" d="M2,16c0,.52-.08,1.09.43,1.48.31.53,0,.77-.44.94H1c.05-.46.09-.92.14-1.37C1.43,16.66,1.72,16.31,2,16Z"/><path class="cls-48" d="M14,36.65C13.74,34,15.08,31.58,15,29c-1-1.22.27-2,.61-2.9a1.89,1.89,0,0,1,1.15-.76c2.68,1.36,2.65-1.32,3.65-2.46,1.34-1.29,3.17,0,4.59-.9a2.65,2.65,0,0,1,1,0c1.8.52,3.46,1.4,5.28,1.85,1.24.6,2.82.64,3.46,2.18-.23,1.09-1.41.81-2.16,1.49a1.78,1.78,0,0,0,2.8-.36c1.14-.49,1.53.48,2.07,1.09a21.21,21.21,0,0,0,2.59,3.09l.25.21a2,2,0,0,1,.41.52c.39.9.65,1.85.95,2.78a16.68,16.68,0,0,0,.13,3.46,1.5,1.5,0,0,1-.6.28c-1.83.1-2.24-1-2.33-2.57-.15-2.66-.18-2.66-2.7-2.53-.35,0-.69,0-1,0a3.72,3.72,0,0,1-1.32-.29,1.53,1.53,0,0,1-.73-.8s0-.09,0-.09-.09.15-.1.18c-1,1.38-.38,3-.87,4.49a1.28,1.28,0,0,1-.43.49c-2-.38-2.5,1.74-3.88,2.4-.92,0-1.82-.15-2.73-.11-2.37.12-4.73-.33-7.09,0-.15-.06-.32-.15-.36-.29-.55-1.74-1.28-1.68-2.17-.22-1,0-1.17-.93-1.63-1.53A.92.92,0,0,1,14,36.65Z"/><path class="cls-49" d="M16,26.1c.24,1.13-1.23,1.71-.93,2.87-2.35,1.62-2.15,4.37-2.87,6.68-.27.83-.18,1.73-1.26,2.13-.47-1,.78-2.08-.1-3.29-.56,1.62-1.07,3.08-1.57,4.55-2.21-.58-2.35-.88-1.41-2.53.81-1.43,1.5-2.89.67-4.6a3,3,0,0,1-.13-2.11c1.08-1.12,1.3-3,3.12-3.46a2.57,2.57,0,0,1,1.25,1.16c.23,1.77-2.39,2.34-1.87,4.39,1.17-1.24.92-3.18,2.47-4,1.21,0,.63-1.23,1.18-1.71S15.41,24.61,16,26.1Z"/><path class="cls-50" d="M8.75,29.92A4.12,4.12,0,0,0,9.08,32c1.05,1.8.26,3.34-.84,4.7C7,38.24,8.5,38.44,9.23,39c-.09.91-.5,1-1.19.49S7,39.1,6.84,40a2.39,2.39,0,0,1-1.48-1.89l1,0a5.79,5.79,0,0,0,0-4.33h0c-.78-1.53.24-2.42,1.2-3.34C7.86,30,8.19,29.69,8.75,29.92Z"/><path class="cls-4" d="M14,36.65v1a2.51,2.51,0,0,1,.51,2.25c-.34,2.12.14,4.28-.3,6.39a7.09,7.09,0,0,1-1.77,1.25c-.6,0-1.31.27-1.32-.74l0-.06c.52-.54-.24-1.41.48-1.9s.36-1.46.46-2.21C12.38,40.48,13.5,38.66,14,36.65Z"/><path class="cls-51" d="M10.67,44.8c-.92-.62,0-2.35-1.57-2.63-.25,0-.19-.55.09-.79.52-.44.83-.08,1.17.28.94,1,0,2.11.31,3.14Z"/><path class="cls-52" d="M11.66,44.79c-.33.59,1.2,1.66-.48,1.91l-.51-.94v-1h0C11,44.75,11.33,44.25,11.66,44.79Z"/><path class="cls-53" d="M5.87,17.44C6.62,15,9,13.39,9.25,10.74a1.32,1.32,0,0,1,.62-.35,6.61,6.61,0,0,0,2.49-.68c1.7-.64,3.11.41,2.5,2-.89,2.41-1.41,5.07-3.38,7l-.33.15c-1.72.92-2.1,2.58-2.38,4.29A6,6,0,0,1,8.47,25c-.31.58-.57,1.48-1.4,1.45s-1-.91-1.19-1.57c-.7-2-1.67-4,0-6,1.56.07,1.2,1,.89,1.95a1.86,1.86,0,0,0,.38,2.37c.7-.92,0-1.7-.12-2.5s.63-1.3,1.29-1.81c1.27-1,2.74-2,2.6-4.11-1.6.25-2.52.94-2.59,2.59-.08,2-1.06,2-2.45,1Z"/><path class="cls-54" d="M8.75,29.92l-1,.49c-.17.2-.33.2-.49,0a2.61,2.61,0,0,1,1.24-1.93,4.43,4.43,0,0,0,1.6-3.56,18.08,18.08,0,0,1,1-6h0c.76-1.05,1.88-1.84,2.05-3.31.09-.83.86-1,1.64-.94a1.67,1.67,0,0,1,.62.29c.76,1,.15,1.8-.46,2.56S13.7,19.1,13.12,20a3.46,3.46,0,0,0-.18,4.22,2.43,2.43,0,0,1-1.32,2.36C10.07,27.16,9.89,29,8.75,29.92Z"/><path class="cls-55" d="M5.89,18.42c1.45.31,2.12-.1,2-1.74-.12-1.13,2.34-3,3.45-2.81.35.05.75.4.62.55-.7.84.16,2.24-.82,2.77-1.28.67-1.57,2.57-3.35,2.59-.14,0-.28.67-.42,1a.71.71,0,0,1-1,0c.47-.79.55-1.49-.47-1.92A3.68,3.68,0,0,1,5.89,18.42Z"/><path class="cls-56" d="M7.31,30.4H7.8c-.69,1-1.8,1.88-1.44,3.35-1.15-1.3-.18-2.3.48-3.35Z"/><path class="cls-57" d="M11.15,46.75c.34.52.89.46,1.4.49a1.22,1.22,0,0,1,.83.34,5.11,5.11,0,0,1,1.17,1.48A4.77,4.77,0,0,1,15,50.32a6.61,6.61,0,0,1,.12,1.09c0,.77,0,1.55.13,2.32.42,3,1,5.93-.28,8.84-1.2-1.61.28-3.77-1.11-5.36-.54.43-.2,1-.32,1.52a62.31,62.31,0,0,1-1.81-7.88C11.59,49.47,10.23,48.25,11.15,46.75Z"/><path class="cls-58" d="M12.59,59.21a1.71,1.71,0,0,1-.95-1.92A2.61,2.61,0,0,1,12.59,59.21Z"/><path class="cls-59" d="M4.45,68.81c.69-.58.51-1.27.21-1.93a23.87,23.87,0,0,1-1.61-6.13l2.35-.11.24.21c.54,1.07.6,2.38,1.62,3.19A.87.87,0,0,0,8,63.85c.34-.35.47-.9,1-1,.74-.19,1.36-.09,1.66.73L12.12,65c.48,1.16-.24,1.79-1.1,2.26a1.68,1.68,0,0,1-2.52-.77c-.59,1.44-1,3-2.81,3.21C5.12,69.61,4.35,69.83,4.45,68.81Z"/><path class="cls-60" d="M5.88,69.28c1.64-.55,1.37-2.52,2.55-3.4C10,67.72,11,67.47,12.12,65c1.06,1.41,3,2.57,1.39,4.76A.72.72,0,0,1,13,70a3.44,3.44,0,0,0-1.91.59,2.12,2.12,0,0,1-.62.11,9.31,9.31,0,0,1-2.19-.52,16.86,16.86,0,0,1-2.18-.62Z"/><path class="cls-61" d="M10.68,70.25l.46,0c.64-.19,1.29-.33,1.94-.47a2.08,2.08,0,0,0,.43,0l.56.06a2.48,2.48,0,0,1-1.21,2.85c-1.2.83-2.8.32-4,1.18a1.37,1.37,0,0,1-1-.1,5.48,5.48,0,0,1-2.45-2c-.14-.32-.27-.65-.41-1,.68-.54,1.2,0,1.71.29s1,.55,1.49.06a2.27,2.27,0,0,1,.54-.27C9.36,70.55,10.13,70.81,10.68,70.25Z"/><path class="cls-62" d="M15,62.57c-.05-3,.33-6.1-.39-9.12A1.36,1.36,0,0,1,16,53.8a3.85,3.85,0,0,1,.62,2.51c0,1,.37,2,.08,2.95-1.09,2.82-.36,5.8-.74,8.68a2.09,2.09,0,0,1-.16.74l-.21.33a.94.94,0,0,1-1.05.27C14.26,67,15.34,64.84,15,62.57Z"/><path class="cls-58" d="M10.67,63.54a2.88,2.88,0,0,0-1.91-.48c-2.14.62-2.58.3-3.36-2.42h0a1.42,1.42,0,0,0-.06-.46l.06-.49a11.21,11.21,0,0,1,1.71,1.58c.48.64.78,1.48,1.78,1.13a2,2,0,0,0,1.32-1.79c.09-.77.25-1.54.37-2.3,1.14,1.23.31,3,1.36,4.39C12.44,63.36,11.26,63.45,10.67,63.54Z"/><path class="cls-62" d="M12.62,72.18a3.61,3.61,0,0,0,1.45-2.4l.37-.13c.65.1.73-.5,1-.84h0c1.32,0,1.34.79,1.19,1.74A4.34,4.34,0,0,1,13.31,73a1.42,1.42,0,0,1-.69-.23A.38.38,0,0,1,12.62,72.18Z"/><path class="cls-63" d="M15.47,68.81c-.13.55.33,1.82-1,.84a.31.31,0,0,1,.08-.37Z"/><path class="cls-64" d="M9.71,10.7l-.46,0,0-.5c1-1.69,3-2.11,4.36-3.34A1.18,1.18,0,0,1,14.14,6c1.21-.57,2.1-1.68,3.43-2.06.76-.21,1.48-.64,2.22,0a1,1,0,0,1,.5,1c1,.74,2-.83,2.93,0-.35,1.69-1.84,1.74-3.08,2s-2.67.39-3.47,1.71a1,1,0,0,1-1,.54C13.38,8.53,11.62,9.91,9.71,10.7Z"/><path class="cls-65" d="M2,18.38c.15-.31.29-.63.44-.94.7,0,.11-2.21,1.57-.92L2.94,18.9H2.05C2,18.73,2,18.55,2,18.38Z"/><path class="cls-66" d="M8.24,71.25c.56,1.55-.63.88-1.09.76C6.34,71.79,6,70.71,5,70.72c-.32-.65-1.07-1.06-1.09-1.89l.56,0c.33.59.91.44,1.43.47h0c.28.35.75.19,1.08.4A6.72,6.72,0,0,1,8.24,71.25Z"/><path class="cls-67" d="M5.38,55.86c.1-.48.14-.94.87-.74,2,.51,2.67,2.18,3.39,3.79a1.18,1.18,0,0,1-.71,1.57c-.72.32-1.3,0-2-.39-1.74-1-.5-3-1.59-4.23Z"/><path class="cls-12" d="M5.38,58.26c-.73-.69-.42-1.58-.47-2.41h.47Z"/><path class="cls-56" d="M6.36,33.76c1.13,1.45,1.83,2.89,0,4.33C5.55,36.65,6.22,35.21,6.36,33.76Z"/><path class="cls-68" d="M54.87,33.25a1,1,0,0,1,1,1,19.1,19.1,0,0,0,5.07,8.7c1.54,1.49,1.71,3.78,3.15,5.43.8.92.16,2.37-1.24,2.82-.92.29-1.58.69-1.78,1.67a5.4,5.4,0,0,0-.3,1.64c-.34,1.87.22,4.2-2.51,4.81a1.37,1.37,0,0,1-.48-.93,2.77,2.77,0,0,1,.11-1,9.56,9.56,0,0,0,1.31-4.25c0-.21.05-.41.07-.6.1-.73-.52-1-.91-1.44A1.32,1.32,0,0,1,58.55,49c1.06-.58,2,1.55,3.2,0a18.11,18.11,0,0,1-3-1.85,5.27,5.27,0,0,1-.51-.43c-2-1.75-2.28-4.37-3.44-6.55a2.09,2.09,0,0,1-.41-.48c-1.15-1.78.35-3.5.13-5.25C55.15,34.18,54.56,33.61,54.87,33.25Z"/><path class="cls-69" d="M50,24.65a18.13,18.13,0,0,1,3.38,5.75c-2.22.12-4.44.09-6.65.24C45,29.16,42.44,29,41.07,27a1,1,0,0,1-.22-1,1.79,1.79,0,0,1,.56-.38,3.28,3.28,0,0,1,2.1-.07l.68.22c1.6.63,2.11-.73,3.09-1.46C47.83,23.92,48.83,26.33,50,24.65Z"/><path class="cls-70" d="M50,24.65c-.15.77-.24,1.71-1.2,1.81-1.21.13-1-1.14-1.56-2.05,0,3.05-2.06,2.34-3.43,1.94a11.14,11.14,0,0,0-2.45-.27c-1.06-.64-.93-1.41-.07-2a3.48,3.48,0,0,0,1.61-1.93,1.41,1.41,0,0,1,.43-.48c3.2.56.29-1.66,1-2.24a1.52,1.52,0,0,1,.29-.6,1.14,1.14,0,0,1,.65-.16c1.7,1.44,2.58,3.55,4.21,5.05Z"/><path class="cls-71" d="M60.59,53c0-1.32-.11-2.61,2-2.23,1.15.2,1.44-1.57,1.1-1.87-2.33-2-2-5.6-4.6-7.4s-2.82-4.54-3.31-7.23c1.82,4.19,4.79,7.59,7.66,11.05.29.29-.49.66.09.95,1.45.72,1.66,1.94,1.34,3.37h0c-1,1.44.37,3.25-.73,4.67-1.15.6-2.25,0-3.35-.19C60.36,54,60.23,53.43,60.59,53Z"/><path class="cls-72" d="M39.52,8.77l1.38,1c.24.26.33.74.08.81-2.25.56-.73,1.15,0,1.76s2.21,1,2.07,2.55c-.52.58-1.24.33-1.87.44-1.38-.83-3-1.34-3.69-3-.6-1.53-2.1.1-2.87-.83-2.4-1.23-4.28-3.39-7-4-.8-.18-1.87.12-2-1.18,2.58-1.2,5-.54,7.2.85a6.72,6.72,0,0,0,3,1.4A29,29,0,0,1,39.52,8.77Z"/><path class="cls-69" d="M54.87,33.25c-.07.34.5.68,0,1-.65.63-1.52.55-2.3.76-.88.48-.46,1.44-.8,2.13S50.91,38.5,50,38.49a1.41,1.41,0,0,1-1.46-1.55c0-2.3-1.72-4.17-1.54-6.49,1.08-.69,1.68,0,2.44.68,1.32,1.13,2.79,1.9,4.5.63Z"/><path class="cls-73" d="M53.93,31.76c-.06.95-.15,1.81-1.52,1.29s-3.31-.25-4-2.24c-.17-.49-.81-.38-1.27-.4a.28.28,0,0,1-.47,0c2.24-.54,4.48-1.23,6.73,0C54,30.72,53.87,31.26,53.93,31.76Z"/><path class="cls-74" d="M42.84,15.05c-.05-1.07-1-1.54-1.68-1.8A3.11,3.11,0,0,1,39,9.8c.45-1,1.42,2,1.92,0a19.91,19.91,0,0,1,4.79,7.66,1,1,0,0,1-1,.29,1.22,1.22,0,0,1-.86-1C44.57,15.58,43,15.75,42.84,15.05Z"/><path class="cls-75" d="M39.52,8.77c-1.17,1-2.58.32-3.87.52a5.3,5.3,0,0,1-1.15-3.1c1.12-1.46,2.08-.3,3.08.19A5.59,5.59,0,0,1,39.52,8.77Z"/><path class="cls-76" d="M44.76,17.45h.93a36.23,36.23,0,0,1,3.84,6.23c-2-1.08-3.16-2.93-4.3-4.8C46,18.12,44.31,18.13,44.76,17.45Z"/><path class="cls-29" d="M64.91,49.6c-.36-1.2-.39-2.55-1.88-3.14-.57-.22-.45-.53.45-1.18l1-1.44v0c.06,1.57,1.71,2.61,1.44,4.29v0Z"/><path class="cls-77" d="M37.58,6.38c-1,.09-1.94-1.12-2.9,0-1.47.16-2.92.29-2.85-1.89A12.61,12.61,0,0,0,36.11,5,3.07,3.07,0,0,1,37.58,6.38Z"/><path class="cls-78" d="M59.61,34.74c1,1.11,1.62,2.3,1,3.82-.15.2-.32.22-.49,0l-1-1.42c-.12-1-1.19-1.8-.48-2.91Z"/><path class="cls-79" d="M58.67,34.25l.48,2.91-2.38-3.4c.06-.36,0-.89.22-1s.65.16.88.46Z"/><path class="cls-80" d="M60.1,38.58l.49,0,1.45,1c-.24.64,2.5,1.27,0,1.91C60.9,40.82,60.72,39.56,60.1,38.58Z"/><path class="cls-17" d="M47.6,13.68a6.83,6.83,0,0,1,2,3.27,2.07,2.07,0,0,1-1.95-1.9A1,1,0,0,1,47.6,13.68Z"/><path class="cls-81" d="M53.82,26l-.43.05c-.76-1-1.79-1.93-1.84-3.36A4.16,4.16,0,0,1,53.82,26Z"/><path class="cls-82" d="M47.6,13.68l0,1.37a2.3,2.3,0,0,1-1.44-2.4l1,.48C47.29,13.32,47.45,13.5,47.6,13.68Z"/><path class="cls-83" d="M7.84,73.71l1-.08c1-.86,2.19-.37,3.29-.49,2.17.74.44,1.54,0,2.32a2.9,2.9,0,0,1-.53.39c-.79.41-1.72.6-2.14,1.51a1.22,1.22,0,0,0,.29,1A5.44,5.44,0,0,0,12,80c.93.45,2.61.54,1.06,2.19-1.44-1-3.29.11-4.7-1a5.83,5.83,0,0,1-1.51-4.78C6.59,75.33,8.41,75,7.84,73.71Z"/><path class="cls-84" d="M50.5,71.66c.75-1.4,3-1,3.39-2.84l3.33,0c.54.68-.15,1.35,0,2a1.29,1.29,0,0,1-.5.92C54.65,71.79,52.55,73.1,50.5,71.66Z"/><path class="cls-85" d="M56.73,71.7l0-1a.67.67,0,0,1,1,0,.86.86,0,0,0,.32,0A2.13,2.13,0,0,1,58.72,74c0,.35-.07.7-.1,1l-.92.42c-.54-.32-1.15-.56-1.36-1.24A2.56,2.56,0,0,1,56.73,71.7Z"/><path class="cls-86" d="M58.72,74a7.69,7.69,0,0,0-.66-3.27c.88-.51,2.2-.13,2.14.69C60.13,72.47,60.19,73.72,58.72,74Z"/><path class="cls-87" d="M58.23,66.92,56.74,68.3c-.49-.36-1.7-.21-1-1.4Z"/><path class="cls-88" d="M57.74,70.74l-1,0c.15-.62.31-1.24.46-1.86C58,69.32,57.63,70.09,57.74,70.74Z"/><path class="cls-89" d="M49.61,79.39c-1.61-.39-3.55.85-4.86-1,1.93-.3,4.07-.1,5.28-2.18,1.65-1.37,3.42-.58,5.11-.17.7.17.48.85.19,1.35A17.54,17.54,0,0,0,49.61,79.39Z"/><path class="cls-90" d="M55.33,77.4c-.43-1.64-1.93-1.13-3-1.34a6.16,6.16,0,0,0-2.3.46l-.12-.34a1.32,1.32,0,0,1,.55-.88A3.08,3.08,0,0,1,51.82,75c.32,0,.65,0,1,0,.7.1,1.35.07,1.73-.67a2.34,2.34,0,0,1,.63-.21,1.82,1.82,0,0,1,1.6.49l1,.91C56.46,75.57,56.46,77.19,55.33,77.4Z"/><path class="cls-63" d="M16.47,70.7a1.75,1.75,0,0,0-1-1.9c0-.16,0-.33,0-.49a5.62,5.62,0,0,1,2.41-3.17,11.26,11.26,0,0,0,3.25-3.45c.79-1.23,2.09-1.55,3-.47,1.23,1.43,2.65,1.2,4.49,1.16-1.31-1.12-.73-2.15-.18-3.14a6.58,6.58,0,0,1,4.37-3.44A8.39,8.39,0,0,0,35,55.45a4.72,4.72,0,0,1,.52-.35,4.78,4.78,0,0,0,1.89-1.92,7.13,7.13,0,0,1,2-1.58c1.73-1,2.89-2.72,4.52-3.85.29-.2-.05-.25-.1-.3-.53-.53-1.07-1.17-.62-1.87s1.3.14,2,0a1.56,1.56,0,0,1,.63.17,2.63,2.63,0,0,1,.49.86,9.82,9.82,0,0,1,.32,1,20.94,20.94,0,0,0,1,4c.27,1.12,1.24,2.13.5,3.39-1.89,1.64-.35,3.75-.75,5.59,1.17-.07,1.64,1.08,2.44,1.45A5.64,5.64,0,0,1,52,64H50.53a1.35,1.35,0,0,1-1.65.23,2.42,2.42,0,0,1-.49-.47,2.82,2.82,0,0,1,.43.65c-.24,1.23-1.26,1.11-2,1a17.74,17.74,0,0,0-2-.22c-.84.1-.43.59-.55.29,0-.12,0-.17.12-.2a2.35,2.35,0,0,1,1.81.2c-.09,1.22-1.4.77-1.91,1.39a5.68,5.68,0,0,0-4.81,1.92c-4.33.16-8.57,1.49-12.95,1-.28-.46.59-.83-.06-1.46-2.31-2.2-5.75-1.51-6.66,1.45a3.6,3.6,0,0,0-2.95,1l-.19.13Z"/><path class="cls-91" d="M19.8,69.75c-.61-2.11.12-3.31,2.14-3.32A6.88,6.88,0,0,1,27,68c1.27,1.13,0,1.26-.46,1.75Z"/><path class="cls-92" d="M22.18,72.05c3,0,4.52,2.13,5.89,4.38-.67.62-1.44-1.46-2.08.07-1,0-.87-1.07-1.38-1.53-.65-1.1-1.77-1.29-2.88-1.49-.9-.35-2-.27-2.53-1.37a.68.68,0,0,1,.17-.62Z"/><path class="cls-93" d="M16.47,70.7a1.7,1.7,0,0,0,.39,0,20.65,20.65,0,0,1,2.49.06c1.09.15.12.48,0,.73a1.6,1.6,0,0,0-.1.23c-1.34.7-2.9.8-4.24,1.59-.6.35-1.68.61-2-.65C14.4,72.4,15.31,71.33,16.47,70.7Z"/><path class="cls-94" d="M16.35,80.36l-.45-1.47a.73.73,0,0,0-.44-.14c-1.43.32-3,.44-3.05-1.48,0-1.64,1.34-2.42,3-2.29a3.13,3.13,0,0,1,.69.14,30.46,30.46,0,0,1,3.72,2.43A2.14,2.14,0,0,1,21,79.69c-.19,1.16-1.12,1.13-2,1.27s-1.42.26-2.1-.13Z"/><path class="cls-95" d="M18.82,80.35c.53-.19,1.42.37,1.57-.54a1.61,1.61,0,0,0-.73-1.7c-1.07-.86-2.58-1.21-3.23-2.57,1.48-1.62,2.62-.86,3.67.52,1.08,1.63,3.06,1.35,4.55,2.13,1.31,1.54-.21,1.37-1,1.65s-1.57.58-2,1.41c-.8.52-1.64,0-2.46.08C18.63,81.37,18.49,80.86,18.82,80.35Z"/><path class="cls-96" d="M24.58,78.42c-1.75-.27-3.71,0-4.79-1.93l.21-.23a2,2,0,0,1,.57-.23,5.29,5.29,0,0,0,2.25-.7,2.92,2.92,0,0,0,2.24-.74c.79.4.24,1.46.93,1.91.19.47.37.94.55,1.41C26.09,78.86,25.41,78.92,24.58,78.42Z"/><path class="cls-97" d="M24.58,78.42a3.39,3.39,0,0,0,2-.51c.44.56,2,.1,1.41,1.6-.44,1.12-1.47,1.18-2.35,1.16a5.57,5.57,0,0,1-2-.83C23.76,79.23,25.33,79.59,24.58,78.42Z"/><path class="cls-97" d="M18.82,80.35c.66,1.21,2,.23,2.85.9-1.72,1.31-3.3,1.07-4.77-.42Z"/><path class="cls-44" d="M48.6,64h1.93c-1.38,2.49-4,2.33-6.25,2.87.22-.69.88-.83,1.76-1.31L43.2,65.3c.82-.23,1-.27,1.16-.33C45.74,64.49,47.57,66,48.6,64Z"/><path class="cls-98" d="M50.05,76.52c-1.17,2.41-2.12,2.75-5.3,1.88-2-1.34-2.4-3.13-1.42-5.28l1.91,0c.69,3.34,1.15,3.72,3.9,3.16a.93.93,0,0,1,.88.16Z"/><path class="cls-99" d="M50,76.46c-1,.17-1.49,1.34-2.79.83-2.13-.85-2.66-1.74-2-4.15l1.41,0,.28.18c.38,2.06,2.51,1.35,3.61,2.27Z"/><path class="cls-88" d="M56.75,74.57l-1.92,0a2.5,2.5,0,0,1-.53-.68,2,2,0,0,0-.37-.46A9.8,9.8,0,0,0,51,73c-.78,0-1.57.06-1.92-.87.36-.53.92-.45,1.44-.5,1.71-.06,3.47.35,5.1-.55.59-.33.73.42,1.14.59C56.74,72.65,56.75,73.61,56.75,74.57Z"/><path class="cls-99" d="M49.06,72.16c1.83.89,4-.3,5.77,1-2.58,1.66-6.13,1.67-8.13,0l-.05-.06A6,6,0,0,1,49.06,72.16Z"/><path class="cls-25" d="M43.86,70.6c1.21-.72,2.51-.21,3.77-.3A7.44,7.44,0,0,1,43.86,70.6Z"/><path class="cls-100" d="M65.88,48.15c-.39-1.46-2-2.51-1.44-4.29C65.16,45.21,66.72,46.28,65.88,48.15Z"/><path class="cls-101" d="M19.79,4c-2.21.13-3.85,1.59-5.74,2.47-.32-.56.18-.74.46-1l1.92-1.88c3.12-2.14,6.66-1.4,10.09-1.47l5.91,1.64c-2.56,1.19-4.91-.41-7.34-.14C23.34,3.78,21.5,3.07,19.79,4Z"/><path class="cls-102" d="M14.51,5.43c-.15.35-.3.69-.46,1l-.47.44a1.07,1.07,0,0,1-1-.5A2.8,2.8,0,0,1,14.51,5.43Z"/><path class="cls-103" d="M60.59,53c.8,1.46,2.28.53,3.37,1,2,.4.74,1.89.95,2.88l-.48.48c-1.83,1.18-2.73,3.39-4.8,4.31l-.47,0c-.53.47-1.13.25-1.72.17a3.18,3.18,0,0,1-1.65-.66,1.1,1.1,0,0,1-.49-1,.44.44,0,0,1,0-.59,2.29,2.29,0,0,1,1.83-.21c1.64.59,2.44-.47,3.34-1.49,1.19-1.33,1.42-2.49-.36-3.48C60.13,53.88,60,53.31,60.59,53Z"/><path class="cls-29" d="M64.91,56.8c-.58-.87.39-2.26-.95-2.88.72-1.35-1.16-3.27.95-4.32C65.06,52,66.32,54.4,64.91,56.8Z"/><path class="cls-29" d="M59.63,61.59c1.45-1.6,2.61-3.53,4.8-4.31-.36.68-.56,1.67-1.12,2-1.5.78.29,1,.15,1.46l-.86,0a1.92,1.92,0,0,0-1.83,1.12C60.16,62.79,60,61.58,59.63,61.59Z"/><path class="cls-104" d="M55.31,59.69c0,.16,0,.32,0,.48a.85.85,0,0,0-.94.94C52.8,61,52.64,59.53,52,58.56c-.51-1-.84-2-1.41-3a9.21,9.21,0,0,1-1.62-3,2.6,2.6,0,0,1-.11-1.76c.91-1,1.43-.29,2,.43.59,1.58,2.14,2.62,2.49,4.34.35.87.79,1.71,1.12,2.59C54.54,58.81,55.06,59.16,55.31,59.69Z"/><path class="cls-104" d="M50.84,59.75l-.34-.5c-.32-.66-.34-1.47-1-1.93a3.09,3.09,0,0,1-1-2.25,3.19,3.19,0,0,1-.15-1.4.63.63,0,0,1,.52-.38c1,.59,1,1.94,1.89,2.62.6.84.54,2,1.37,2.75a18.9,18.9,0,0,0,2.68,3.9c.46.07,1.12.18.31.67-.39.23-.83.24-.81.82a2.09,2.09,0,0,1-1.44-1.4A15.46,15.46,0,0,0,50.84,59.75Z"/><path class="cls-104" d="M55.78,65.46A2.6,2.6,0,0,1,54.31,64l5.35,0Z"/><path class="cls-105" d="M54.82,62.56A5.85,5.85,0,0,1,52,58.73c-.12-.43,0-.6.48-.47a9.7,9.7,0,0,0,1.93,2.85C54.51,61.6,54.66,62.08,54.82,62.56Z"/><path class="cls-104" d="M55.79,61.13h1.92c.21.69,1.2,1,1,1.9A2.81,2.81,0,0,1,55.79,61.13Z"/><path class="cls-29" d="M58.68,63c-.52-.53-1.15-1-1-1.9l1.45.48C59.13,62.13,59.25,62.7,58.68,63Z"/><path class="cls-106" d="M31.83,4.51c.29,1.63,2,1.19,2.85,1.89,1.1.7,1,1.81,1,2.89a2.65,2.65,0,0,1-2.21-.68c-2.19-2.43-5-2.23-7.88-2.2-.41.3-.79.08-1.17-.07A2.34,2.34,0,0,1,23.88,6c-.31-.29-.44-.7-.72-1-.95-.37-1.92,1.11-2.87,0,2.75-1.56,5.54.2,8.33,0C29.7,4.82,30.76,4.63,31.83,4.51Z"/><path class="cls-96" d="M19.79,76.49c-.8-1.45-2-1.57-3.36-.95H14.79a1.91,1.91,0,0,0-1.95,1.92c-.06,1,1,.93,1.81,1,.46,0,.95,0,1.25.46l-.43,0c-1.24.59-2.23,1.85-3.84,1.44a3.62,3.62,0,0,1-2.41-1.92c.3-.51.87-.79,1.12-1.34.22-.34.54-.83.86-.76,1.45.33-.11-.76.42-.81h0C13.56,73.69,16,73.84,18.31,74c1.52.1,2.45.78,1.5,2.48Z"/><path class="cls-41" d="M11.63,80.35c1.4-.15,2.17-2,3.84-1.44A4.77,4.77,0,0,1,13,82.2C13.91,80.56,12,81,11.63,80.35Z"/><path class="cls-107" d="M48.6,53.41l-.09,1.66a1.41,1.41,0,0,1-.39-.19c-.33-1.1-.67-2.2-1-3.3-.25-.53-.41-1.2.16-1.47s1.07.27,1.19.84C48.64,51.75,49.31,52.55,48.6,53.41Z"/><path class="cls-107" d="M50.84,59.75a3.63,3.63,0,0,1,2,2.9A6.39,6.39,0,0,1,50.84,59.75Z"/><path class="cls-108" d="M47.16,68.82c.64.08,1.34-.23,2.16.34-.93.31-1.72,1.39-2.15-.35Z"/><path class="cls-63" d="M49.62,58.18c-.11.36-.1.85-.65.79-.13,0-.33-.4-.29-.56.16-.62.62-.2,1-.21Z"/><path class="cls-107" d="M49.47,57.32c1,.29,1.12,1,1,1.93l-.88-1.07v0C49.58,57.9,49.52,57.61,49.47,57.32Z"/><path class="cls-109" d="M14.48,50.08l-.42-.9c.32-.52-.12-1.15.27-1.65A5.35,5.35,0,0,1,17,45.65c1.19-.41,2.32-.61,2.56-2.3.18-1.25,1.6-1,2.6-1.06a12.54,12.54,0,0,0,4.57-.16c1.31.14,1.33-.51.89-1.45A1.2,1.2,0,0,1,28,39.46c.1-.11.3-.23.3-.34-.06-2.86,2-1.86,3.52-2a.6.6,0,0,1,.22.65s0,.09,0,.09l.11-.06a2.28,2.28,0,0,1,.39-.24c.63-.28,1.22-.62,1.87-.9-.39,0-.71.22-1.07.2-.64-.81-.92.55-1.48.25.3-1.8-.91-4,1.44-5.27h0l.52,1-.09.3a.87.87,0,0,0,.1,1.08,1.75,1.75,0,0,0,1.36.33c1-.22.51-1.26,1-1.76,3.27-.17,3.37-.1,3.34,3.29,0,1.38.51,2.08,1.94,2,1.75,3.08,1.48,6.12.12,9.31s-3.53,4.23-6.9,3.9c-2.48-.25-5.09-.47-7.49.71A2.6,2.6,0,0,0,24.74,54c-.68,2.12-2.9,2.73-4.36,1.11A17.13,17.13,0,0,0,17,52.12c-1.3-.84-1-1.61.23-2C16.47,50,15.46,51,14.48,50.08Z"/><path class="cls-110" d="M22.31,42.84c-1.4.07-3.15-.25-2.25,2.21.17.44-.3.72-.73.69-2-.18-3.3,1.26-4.91,2-.61,0-.7-.42-.71-.9a1.31,1.31,0,0,1,.31-.58,49.86,49.86,0,0,1,0-8.64c1-.1.81,1.15,1.5,1.43a2.2,2.2,0,0,1,2.3.47c1.11-1.33,2.5-.34,3.76-.43s2.38,0,3.57,0a1,1,0,0,1-.85,1.22C22.83,40.57,22.58,41.69,22.31,42.84Z"/><path class="cls-111" d="M26.52,51.53c2.81-1.6,5.89-.75,8.85-1,1.26-.09,3.4.5,3.6-.3.59-2.25,3-3.47,3-6,0-2.08-.37-4.1-.53-6.15h.48a.59.59,0,0,1,.67-.08,5.19,5.19,0,0,1,1.79,3.53,4.89,4.89,0,0,0,.78,2.22c.28.67.71,1.33.1,2.05-.67,2.09-1.08-.76-1.72,0-.1,1.26,1.67,1.61,1.54,3-.8.34-.81-.85-1.42-.79a7.25,7.25,0,0,1-4.14,4,58.37,58.37,0,0,1-6.61.18,15.39,15.39,0,0,0-2.35.17c-2.9.49-3.3,2.68-3.5,5-2.35-.07-1.94-1.87-2-3.27A2.82,2.82,0,0,1,26.52,51.53Z"/><path class="cls-112" d="M34.71,26.06C33.82,25,32.35,25,31.29,24.25c-.52-.59-1.55-.4-1.95-1.31.67-.92,1.56-.1,2.17-.21-1.14-.81-2.72.61-4-.57a1.13,1.13,0,0,1-.24-.61c.24-.76.74-.94,1.47-.68a7.44,7.44,0,0,0,3.72.15,2.58,2.58,0,0,1,.68,0,4.57,4.57,0,0,1,1.75,1c.89.79,1.44,1.86,2.24,2.72a3.47,3.47,0,0,0,1.09.54c2,.28,2.74,1.86,3.52,3.4C42.27,30.5,44,31.46,44.9,33c.24.39.71.65.92,1.07.49,1,1.08,2.11.35,3.13s-1.93.86-3,.36a3.1,3.1,0,0,1-1.52-2.59,10.76,10.76,0,0,0-1.24-3.07h0c-.59-.64-.64-1.59-1.28-2.19a7.35,7.35,0,0,0-3.39-2.89A1.31,1.31,0,0,1,34.71,26.06Z"/><path class="cls-113" d="M22.31,42.84c-.76-1.62-.61-2.77,1.5-2.92a1.61,1.61,0,0,0,1.35-.83,5.9,5.9,0,0,1,2.82.37c0,.51.08,1,.13,1.52.11.82-.39,1.25-1,1.6A8.29,8.29,0,0,1,22.31,42.84Z"/><path class="cls-114" d="M34.71,26.06l1,.42c.11.1.15.2.11.29s-.08.15-.12.15c-.23.6.28,1.69-.67,1.77a7.24,7.24,0,0,1-2.95-.54c-.43-.15-.33-.84-.25-1.31.11-.68.58-.63,1.06-.43C33.6,26.69,34.14,26.33,34.71,26.06Z"/><path class="cls-115" d="M25.1,22.28c-.73.58-1.38,1.15-2.45.48A1.64,1.64,0,0,0,20.7,23c-.63.85-1.67.86-2.51,1.28a1.64,1.64,0,0,1-.66,0,1.13,1.13,0,0,1-.5-.42c-.63-1.22.17-1.52,1.11-1.72s1.71-.35,2-1.38a.82.82,0,0,1,.58-.2c.84.39,1.86,0,2.65.59a11.88,11.88,0,0,0,1.59.81Z"/><path class="cls-116" d="M27.49,21.78c1.4.8,2.94.37,4.41.45.56,0,1.14,0,1.47.57a.64.64,0,0,1,0,.6c-.53.49-1,0-1.52-.13l-2.39-.65,1.82,1.63a18.84,18.84,0,0,1-5.28-2A1.42,1.42,0,0,1,27.49,21.78Z"/><path class="cls-117" d="M35.72,26.92a.82.82,0,0,1,0-.44,5.36,5.36,0,0,1,3.77,2.95c.24.78,1.12,1.43.47,2.39C38.15,30.54,37.41,28.32,35.72,26.92Z"/><path class="cls-118" d="M16,26.1c-1.77-.1-1,2-2.11,2.46,0,0-.16,0-.18-.1a3.31,3.31,0,0,1-.12-.45,1.25,1.25,0,0,1-.38-1c1.11-2.95,2.1-3.68,4.2-3.07a.33.33,0,0,1,.07.26.56.56,0,0,1,.12.51,1.42,1.42,0,0,1-.71.83Z"/><path class="cls-119" d="M16.85,25.57c0-.39.11-.77.56-.91.28,0,.73.06.46-.5A3.82,3.82,0,0,1,20.7,23a8.08,8.08,0,0,0-.49,1.32C19.78,26.7,18.44,26.46,16.85,25.57Z"/><path class="cls-120" d="M17.83,39.5a2.21,2.21,0,0,1-2.3-.47c0-.94-.1-2.18,1.21-2.05C18.2,37.12,18.16,38.35,17.83,39.5Z"/><path class="cls-121" d="M35.12,35.19a2.13,2.13,0,0,1-1.81-.49,1.08,1.08,0,0,1,.48-1.83h0l1.21,0C36.36,33.57,36.26,34.34,35.12,35.19Z"/><path class="cls-109" d="M41.8,34.81a4.54,4.54,0,0,0,1.58,2.29.45.45,0,0,1,.13.35c0,.12,0,.19-.06.19a1.26,1.26,0,0,1-1.05.44h-.52c-1.44-.88-.61-2.11-.49-3.22C41.5,34.63,41.63,34.6,41.8,34.81Z"/><path class="cls-122" d="M41.8,34.81a2.9,2.9,0,0,1-.41.06,7,7,0,0,1-1-3C41.7,32.46,41.47,33.76,41.8,34.81Z"/><path class="cls-123" d="M35.12,35.19a1.52,1.52,0,0,0-.15-2.3l1.15-.08C36.12,33.74,37.48,35.24,35.12,35.19Z"/><path class="cls-122" d="M40,31.82c.38-.9-1.1-1.44-.47-2.39,1.06.53.91,1.52.91,2.45l-.23,0Z"/><path class="cls-112" d="M27.49,21.78c-.37.55-1,.37-1.48.48l-.91,0-.07-.1c.61-1.36,1.5-1.05,2.44-.42Z"/><path class="cls-123" d="M33.24,31.85c.23-.41.42-.88,1-.76a.42.42,0,0,1,.18.34c-.23.6-.78.34-1.2.42Z"/><path class="cls-119" d="M17.32,34.46c1.05-.23,1.4-.1,1.62.29,0,0-.15.31-.17.3C18.41,34.92,18.07,34.77,17.32,34.46Z"/><path class="cls-124" d="M17.37,24c-2.21-.13-3,1.5-3.8,3.09-.29.24-.43.78-1,.47a.91.91,0,0,1-1-1l1-2.37A11,11,0,0,0,15.12,21c.7-.55,1.61-.47,2.46-.8.09-.63-1-.67-.73-1.4,1.07-.85,1.31-2.49,2.79-3,.75-.17,1.24.31,1.77.69s1.31.74,1.92,1.19a1.44,1.44,0,0,1,.54,1.18.81.81,0,0,1-.69.64c-1.09.15-2.51-.49-2.9,1.26.41,1.92-1.4,2-2.23,2C16.76,22.88,17.4,23.49,17.37,24Z"/><path class="cls-56" d="M12.6,27.53l1-.47c0,.32,0,.64,0,1C12.2,29.4,12.29,31.53,11,33.06c-1.1-1.34-1.82-2.5.13-3.69C11.77,29,12.12,28.15,12.6,27.53Z"/><path class="cls-125" d="M14,46.24l0,.52c-.31.3-.47.74-.89.93l-.53-.45C12.62,46.28,13.31,46.25,14,46.24Z"/><path class="cls-126" d="M23.16,5a.87.87,0,0,1,1,.92c-.58,1.52-.82,3.27-2.68,3.92a5.86,5.86,0,0,1,3.66,1.65c.05.11.09.21.13.32a.87.87,0,0,1-.29.62,2.53,2.53,0,0,1-1,.32c-1.53,0-3.13.34-4.44-.84A3.41,3.41,0,0,1,19,11.4c-.52-.82-1.1-1.13-1.8-.17a4.78,4.78,0,0,1-.46.44c-1.47.66-.89,2.41-1.79,3.37a1.24,1.24,0,0,0-1.49,1.12,3.71,3.71,0,0,1-2.34,2.73c1-2.14,2-4.28,2.95-6.4.35-.75.67-1.52.05-2.24-.81-.93-1.33,0-2,.32s-1.6.8-2.45.13c1.49-1.61,3.08-3,5.51-1.95.13.06.42.06.45,0C17.14,5.44,21.2,7.28,23.16,5Z"/><path class="cls-127" d="M6.36,20.81h1c1.37.57.67,1.76.72,2.68,0,.26-.46.7-.8.8-.64.2-.86-.4-.86-.84C6.38,22.57,4.74,21.69,6.36,20.81Z"/><path class="cls-50" d="M15.48,21.29c-.76,1.16-.86,3-2.88,2.88-1.43-.8-1.3-2-.73-3.21a12.64,12.64,0,0,1,2.55-3.65,2.56,2.56,0,0,0,1.06-2.26v-.32c.07-.73-.17-1.52.42-2.16.81-.14,1.19.44,1.61.95a1.31,1.31,0,0,1,.07.65c-.43,1.34.13,2.84-.65,4.13C16.31,19.23,16.11,20.37,15.48,21.29Z"/><path class="cls-128" d="M17.39,13.61c-.75.08-.94-.66-1.42-1-.61.71.07,1.68-.49,2.4H15c.08-1.56-.45-3.42,1.92-3.84C18.34,12.52,18.39,12.8,17.39,13.61Z"/><path class="cls-129" d="M26.52,51.53c-.73,2-2,4,.48,5.76A41.4,41.4,0,0,1,31.35,55a4.34,4.34,0,0,1,4.28.39,1,1,0,0,1-1.12,1c-3.46-.18-5.08,2-6.22,4.68.13,1.18,1.83,0,1.64,1.19s-1.38.93-2.18.83c-1.38-.17-3.22.92-3.93-1.48-.2-.67-1.6-.76-1.95.13-1.23,3.11-4.53,4.16-6.35,6.65-.38-2.82.13-5.64,0-8.46,0-.43.47-.58.87-.65.5,1.18,1.25,1.76,2.71,1A19.47,19.47,0,0,0,16,56.33c-.12-.82.31-1.74-.48-2.42-.59-.86-.16-2.08-1-2.86l0-1c1.82-.2,3.64-.9,5.78-.09-1.19,1-2.56.15-3.84,1.12A15.12,15.12,0,0,1,21.2,55c.91,1.22,2.56.37,2.92-1.27A2.33,2.33,0,0,1,26.52,51.53Z"/><path class="cls-63" d="M14.5,51.05c1.57.52,1.1,1.75,1,2.86l-.89-.46Z"/><path class="cls-105" d="M13.08,47.69a.81.81,0,0,1,.89-.93l.45,1c-.09.49.21,1.08-.36,1.46Z"/><path class="cls-7" d="M5.4,60.64c.73,1.36,1.39,2.8,3.36,2.42,0,.53.1,1.1-.52,1.4-.67-.52-.64.27-.9.49A4.83,4.83,0,0,1,5.4,60.64Z"/><path class="cls-58" d="M7.34,65c.16-.44-.68-1.07.14-1.33.58-.19.72.36.76.84Z"/><path class="cls-66" d="M10.68,70.25a1.68,1.68,0,0,1-1.91,1c-.33-.66-1.75-.29-1.46-1.54a.86.86,0,0,1,1,.1Z"/><path class="cls-66" d="M13.08,69.75c-.43,1.07-1.13,1-1.94.47C11.65,69.52,12.17,68.84,13.08,69.75Z"/><path class="cls-59" d="M8.28,69.76l-1,0c-.13.22-.27.22-.42,0a1.15,1.15,0,0,1-1-.52C6.69,69.4,7.6,69,8.28,69.76Z"/><path class="cls-130" d="M12.58,73.61l-3.78,0c.76-1.85,2.72-.5,3.82-1.45a3.84,3.84,0,0,0,0,.48A.64.64,0,0,1,12.58,73.61Z"/><path class="cls-131" d="M6.88,69.8l.42,0c.37.6,1.54.36,1.47,1.42l-.53,0C7.41,71.12,6.84,70.75,6.88,69.8Z"/><path class="cls-63" d="M16,56.33c2.16.2,2.44,2.7,4.19,3.44.22.1.17.85-.19,1.06a4.42,4.42,0,0,1-3.23.2c-1-.21,0-1.22-.3-1.83Z"/><path class="cls-132" d="M12.58,73.61c0-.32,0-.64,0-1H13a1.88,1.88,0,0,0,2.59-.15c1.16-1.09,2.37-.86,3.65-.79.43,1.16,1.8.6,2.47,1.34.49.8,1.25,1.54.54,2.58-.55.54-1.48.14-2,.81h-.49c.22-1.63-.62-2-2.09-1.92a20.29,20.29,0,0,0-6.09,1C11.72,74.76,12.74,74.48,12.58,73.61Z"/><path class="cls-133" d="M46.69,30.4h.47c0,.23-.09.56,0,.69,1.54,1.71,1.7,3.85,1.9,6,.07.68.42,1,1.07,1,1-.14,1.06-1,1.31-1.73s-1.18-1.74.49-2C53.29,36,53.07,38.49,54.83,40h0a13,13,0,0,1,1.68,4.37,2.76,2.76,0,0,0,2.16,2.36,1.74,1.74,0,0,1,0,2.4,1.53,1.53,0,0,0,0,1.91c.38.44,1.26.56,1,1.45h0c-.28.37-.54.76-1.1.55-1.19-.74-2.17-2-4-1.5,2.15.9,1.82,2.29.62,3.86,2,.24,2-2.52,3.8-2.12,1,1.57-.69,2.64-.75,4v1c-2.07,1-3.72.63-4.28-1.35a31.36,31.36,0,0,0-2.75-6.4c.21-.83-.84-1.56-.23-2.44a1.68,1.68,0,0,1,.9-.26c.76,0,1.64,1,2.19.2s-.53-1.69-.88-2.52-1.34-1.58-1.58-2.64c-.28-1.26-1.06-.48-1.67-.37a2.73,2.73,0,0,1-1,.16.91.91,0,0,1-.55-.37c.16-3.33-1.67-6.18-2.21-9.35a2.83,2.83,0,0,0-2.4-2.64,2.29,2.29,0,0,1-2.09-1.71c-.31-.64-.88-1.24-.23-2,1.26.73,1.86,2.54,3.91,2C46.51,28.27,45.87,30,46.69,30.4Z"/><path class="cls-134" d="M55.31,59.69a1.31,1.31,0,0,1-1.35-1,7.3,7.3,0,0,1,4.23.51c1.79-1.13,1.92-2.94,1.93-4.8,2.88.64,2.82.8,1.2,3.37S57.72,60.33,55.31,59.69Z"/><path class="cls-135" d="M54.83,40c-1.13,0-1.91-.2-1.83-1.71s-1.55-2.47-1-4h2.89C55.85,36.18,53.75,38.09,54.83,40Z"/><path class="cls-136" d="M58.19,59.2A14.06,14.06,0,0,1,54,58.69c-.35-.94-.7-1.89-1-2.84.16-2.14-2.3-3.1-2.3-5.16a1.4,1.4,0,0,1,.25-.62.51.51,0,0,1,.61,0,19,19,0,0,1,3,6.72c.4,2,2.33,1.39,3.76,1.43Z"/><path class="cls-136" d="M58.68,49.13v-2.4c1.37.09,2,1.74,3.53,1.62.34,0,.68.42.6.87a1,1,0,0,1-1.22.84c-.73-.07-1.68,1.13-2.16-.27C59.27,49.34,59.13,49.13,58.68,49.13Z"/><path class="cls-136" d="M58.68,46.73c-1.45.26-2.74.73-2.59-1.79.1-1.62-.8-3.29-1.25-4.94.43,0,1.3-.82,1.21.14C55.77,42.87,57.64,44.6,58.68,46.73Z"/><path class="cls-136" d="M58.2,57.29c-.56-1.37,1.23-2.45.48-3.84a.3.3,0,0,1-.11-.32c0-.11.07-.16.11-.16l1-.48A5.78,5.78,0,0,1,58.2,57.29Z"/><path class="cls-136" d="M59.64,52.49l-1-1.45C59.4,51.26,60.49,51.24,59.64,52.49Z"/><path class="cls-137" d="M43.31,21.77c.07,1.22.18,2.34-1.57,2.59-1,.14-.69,1.05-.34,1.72h-.49C39.36,25.61,39.67,24,39,23c-.4-1.75.92-3.36.41-5.13,1.62-.7,2.5.14,2.61,1.59A3.66,3.66,0,0,0,43.31,21.77Z"/><path class="cls-138" d="M39.46,22.74c.48,1.12,1,2.23,1.45,3.35l.48.48a3.53,3.53,0,0,0,.47,1.93q-.24.33-.48,0c-1-1.12-1.68-2.56-3.36-2.87-.15-.58-.58-.52-1-.46-1.06-.75-1.56-2-2.33-2.92.43-.43,1-.29,1.48-.3A2.39,2.39,0,0,1,39.46,22.74Z"/><path class="cls-139" d="M43.31,21.77c-1.22,0-2.12-.39-1.85-1.76.35-1.76-.63-2.05-2-2.09a1.1,1.1,0,0,1-.31-.73c.45-1.7,1.84-1.22,3-1.29,1.69.28,2.23,1.56,2.59,3v.48c-1.81,0-1.07,1.53-1.43,2.39Z"/><path class="cls-140" d="M43.32,21.76a2.12,2.12,0,0,0-.11-.45c-.37-.64-1.34-1.25-.63-2,.52-.56,1.45-.2,2.17.07,0,1.16,1,1.89,1.33,3A2.76,2.76,0,0,1,43.32,21.76Z"/><path class="cls-141" d="M44.76,18.89c-.78-.83-.91-2.3-2.4-2.4l-.19-.28a.77.77,0,0,1,.42-.48,1.42,1.42,0,0,1,1.67.76,1,1,0,0,0,.5,1c.29.43,1,.73.47,1.44Z"/><path class="cls-137" d="M42.35,16c0,.16,0,.32,0,.48-1,.32-2.4-.78-2.89,1-.51.48.13,1.8-1.21,1.67a1.1,1.1,0,0,1-.55-.37,5.23,5.23,0,0,1-.92-1.9c-.44-3-2.82-4.3-5-5.79a10.36,10.36,0,0,1-1.87-1.42c-.57-.92-2.32-.61-2.29-2.17A1.2,1.2,0,0,1,28,6.9a23.67,23.67,0,0,1,6.7,4.3,11.12,11.12,0,0,1,4.2,3.15C39.73,15.49,41.26,15.32,42.35,16Z"/><path class="cls-141" d="M42.35,16a4.48,4.48,0,0,1-4.85-2.48c-.6-1.17-2.43-.89-2.82-2.33.44-.09,1.07.5,1.3,0,.61-1.37,1.52-.72,1.62,0,.34,2.32,2.51,2.63,3.8,3.9.51.13,1.18.09,1,.95Z"/><path class="cls-126" d="M28,6.9c0,.15,0,.31,0,.47-.71.75-1.42,1.7-2.59,1a1.66,1.66,0,0,1-.78-2.4l1,.47C26.23,7.21,27.16,6.76,28,6.9Z"/><path class="cls-76" d="M42.36,16l-1-.95c.48-.77,1-.13,1.44,0,.65.3,1.76.16,1.42,1.44A3.12,3.12,0,0,0,42.36,16Z"/><path class="cls-132" d="M11.62,75.52c1.43,1.51-1.31,1-1,2a1.35,1.35,0,0,1-1.89,0A2.79,2.79,0,0,1,11.62,75.52Z"/><path class="cls-142" d="M8.77,77.42l1.89,0c0,1-.77.92-1.44,1A1,1,0,0,1,8.77,77.42Z"/><path class="cls-143" d="M46.7,73.15c2.71.93,5.42.42,8.13,0,0,.16,0,.31,0,.47A9.67,9.67,0,0,1,52,75.49l-1.42.05a6.42,6.42,0,0,0-1.16,0C47.44,75.89,46.49,75.18,46.7,73.15Z"/><path class="cls-99" d="M52,75.49a3.85,3.85,0,0,1,2.87-1.89c0,.32,0,.64,0,1l-.47,0c-.36.5-1,.55-1.45.92Z"/><path class="cls-88" d="M52.91,75.5a1.46,1.46,0,0,1,1.45-.92C54.83,76.38,53.39,75.2,52.91,75.5Z"/><path class="cls-144" d="M35.63,55.36c-2.1.24-4.49-.8-6.1,1.64-.46.69-1.67.2-2.53.29-1-3.7.56-5.79,4.47-5.72,2.67,0,5.39-.6,8,.44l-1.92,1.44a7.12,7.12,0,0,0-1.92,1.91Z"/><path class="cls-145" d="M41.38,28.5h.48a2,2,0,0,0,1.9,1.25c2.16-.12,2.6,1.37,2.88,2.92a7.12,7.12,0,0,0,1,3.28c1.47,2,.86,4.27,1,6.46,1.1,1.71.28,2.83-1.17,3.75-.52.22-1,.68-1.61.56l-.18-.86c-.25-.83.32-1.25.84-1.7,1.32-.51.39-1.4.36-2.14-.38.08.72-1.23-.42-.43a1.38,1.38,0,0,1-.91-.35c-.93-1.07-2.06-2-2.07-3.63l-.06-.51c.9.21,2.13.84,2.49-.33.28-.93.14-2.54-.95-2.94-1.59-.59-1.23-3.22-3.4-2.95C41.48,30.09,41.43,29.29,41.38,28.5Z"/><path class="cls-107" d="M45.82,46.72l.86-.95c.82.23,1.34,1.71,2.49.59,1.06-.5,1.4.29,1.35,1A12.88,12.88,0,0,0,51,50.08h0c-.47.39,0,1.09-.5,1.47-.5-.11-.57-1.5-1.44-.48a5.07,5.07,0,0,1-3-3.81Z"/><path class="cls-146" d="M46.07,47.26a14.13,14.13,0,0,0,3,3.81c.14.5.29,1,.43,1.49-.28.25,0,.75-.44.93l-.44-.08c-.17-.74-.33-1.48-.52-2.21-.09-.35-.23-.85-.67-.66-.21.1-.2.68-.29,1A12.85,12.85,0,0,1,46.07,47.26Z"/><path class="cls-147" d="M43.59,51c.06,1,.79,2.13-.8,2.42-.51.1-1.45.21-1.5-.24C41.11,51.57,43,52,43.59,51Z"/><path class="cls-148" d="M46.74,44.32l-1.1,1.54-.42,0c-.17-.64-.35-1.27-.53-1.91,0-.75-1.49-1.74.33-2.22.76.18,1.12.83,1.58,1.35C46.88,43.44,47.08,43.85,46.74,44.32Z"/><path class="cls-147" d="M46.17,52.25c0,.76-.17,1-.84,1-1,0-1.09-.62-1.07-1.4,0-.6,0-1.12.86-1C46.13,51,45.89,51.87,46.17,52.25Z"/><path class="cls-129" d="M35.64,55.36c-.21-1.49.43-2.12,1.92-1.91A2,2,0,0,1,35.64,55.36Z"/><path class="cls-44" d="M47.2,63.14c0-.4,0-.84.53-.91.83-.12.84.52.84,1.07,0,.27.34.84-.45.7C47.59,63.9,47.23,63.73,47.2,63.14Z"/><path class="cls-149" d="M22.28,75.48c.39-.93-1.09-1.44-.54-2.41,1.34,0,2.62.12,3.32,1.52,0,2.27-1.4,1.17-2.42,1C22.48,75.69,22.35,75.66,22.28,75.48Z"/><path class="cls-150" d="M22.28,75.48l.36.1c-.32,1.52-1.52.68-2.34.88C20.45,75.11,21.55,75.67,22.28,75.48Z"/><path class="cls-151" d="M50.49,51.55c.06-.53-.07-1.12.5-1.47.13,1,0,2.05,1.29,2.7s.49,2,.64,3.07C52.5,54.19,50.54,53.41,50.49,51.55Z"/><path class="cls-152" d="M49,53.49c.14-.31.29-.62.44-.93L51,55.37c.36.6-.17.7-.52.9C49.39,55.65,49.45,54.45,49,53.49Z"/><path class="cls-107" d="M50.45,56.27c.18-.3.35-.6.52-.9l1.46,2.89-.48.47C50.42,58.54,51.14,57,50.45,56.27Z"/><path class="cls-153" d="M24.59,5.94c.26,2.5,1.65,2.35,3.37,1.43.1,1.51,2.18.55,2.39,1.93-.36.78-1.84-.18-1.79,1a2.51,2.51,0,0,0,1.48,2,5.63,5.63,0,0,1,2.27,2.37,1.32,1.32,0,0,1,.16.64,1.89,1.89,0,0,1-1.9,1.78c-1.32,0-.73-1.31-1.11-1.9a8.28,8.28,0,0,0-4.38-3.59c-1.48-.07-2.48-2.11-4.35-.94-.51.31-.39-.94-.29-1,2.37-.25,2.11-3,3.7-3.9Z"/><path class="cls-154" d="M33.24,36.65c.56-.7,1.37-.47,2.49-.68a6.13,6.13,0,0,1-3.45,2.11C32,37.2,32.77,37,33.24,36.65Z"/><path class="cls-48" d="M27.09,42.58c.06-.71.64-1.09,1-1.6.8.14.76.58.44,1.17S27.78,43.12,27.09,42.58Z"/><path class="cls-48" d="M33.24,36.65l-1,1.43H31.8v-1h0C32.23,36.84,32.52,36.11,33.24,36.65Z"/><path class="cls-123" d="M33.79,32.87a2.18,2.18,0,0,0-.48,1.83C32.49,33.83,32.26,33.12,33.79,32.87Z"/><path class="cls-48" d="M31.81,38.48c-.09.31.05.74-.42.66a.64.64,0,0,1-.38-.47c-.05-.37.26-.49.56-.55C32.12,38,31.54,38.49,31.81,38.48Z"/><path class="cls-155" d="M45.24,41.92c-1.61.26-.07,1.4-.55,2-1.54-1.64-.85-4.15-2.29-5.82.21-.45.63-.47,1-.47L45.71,41A1,1,0,0,1,45.24,41.92Z"/><path class="cls-156" d="M25.08,11.68c1.12-.37,2.07-.51,2.7.91a2.76,2.76,0,0,0,2,1.55c.37.06.89.3.61.76-.38.64-.95,1.49-.11,1.78,1.09.37,1.56-.77,2-1.62,1.08-.7,1.63-.23,1.78.87.11.77-.19,1.56,0,2.47,1.35,0,2.81-.66,4,.48h0c.72,2-1.54,2.42-1.93,3.83l-1.43-.47-1.44-1c-1.05-1.42-1.66-3.27-3.8-3.61-.53-.08-.79-.74-1-1.27a10.56,10.56,0,0,0-3.35-4.25C25.09,12,25.08,11.84,25.08,11.68Z"/><path class="cls-126" d="M25.09,12.15c2.56,0,2.82,2.33,3.77,3.87.37.61.57,1.52,1.29,1.49,2.81-.12,2.62,2.06,3.09,3.77l-.51,0c-1.06.13-1.71-.57-2.39-1.19a11.25,11.25,0,0,0-3.44-2.8c-1.62-.65-.59-3.11-2.43-3.74-.2-.07.19-1,.59-1.41Z"/><path class="cls-157" d="M30.81,19.88l1.92,1.44a4.38,4.38,0,0,1-4.2,0c-.66-.35-.8.05-1.06.43-.82.1-1.71-.25-2.44.42-.66,0-1.38.28-1.87-.45a3.93,3.93,0,0,1,.93-.89c.64-.45,1.41-.65,2.08-1.05A3.54,3.54,0,0,1,30.81,19.88Z"/><path class="cls-158" d="M37,25.17c.25-.38.46-1,1-.64s.48.74,0,1.1Z"/><path class="cls-159" d="M20.28,20.83c-.52-.39-.62-1.35-.35-1.37,1.05-.11,2.14-1.18,3.22-.1a1.38,1.38,0,0,1-.47,1.2c-.59.24-1.15.67-1.85.31Z"/><path class="cls-160" d="M20.83,20.87l1.82-.59c.85-.18,1.49-.06,1.51,1a1,1,0,0,1-1,.44C22.71,20.57,21.2,22.27,20.83,20.87Z"/><path class="cls-48" d="M17.87,24.16c.34.18,1.21-.22,1,.45s-.95.66-1.47.05a1,1,0,0,0,0-.43A2,2,0,0,1,17.87,24.16Z"/><path class="cls-161" d="M16.44,17.93a3.07,3.07,0,0,0,.29-2.73c-.28-.7-.06-1,.67-1.11a.8.8,0,0,1,1.08.53c.34.76.84.71,1.45.49a.7.7,0,0,1-.13.9c-1.39.53-.91,2.93-2.88,2.88C16.57,18.66,16.77,18.16,16.44,17.93Z"/><path class="cls-161" d="M23.16,17.93a2.62,2.62,0,0,1-1.92-1c-.42-.78-.08-2.06-1.47-2.19-1.12-.82,0-1,.4-1.2,1-.41,2.28-.83,3,.33s1.58,2.4,1.05,3.94A.73.73,0,0,1,23.16,17.93Z"/><path class="cls-115" d="M16.44,17.93a1,1,0,0,1,.48,1,3,3,0,0,0,.78.44c.53.11,1.26.06,1.28.74s-.7.66-1.24.75c-.76.13-1.51.31-2.26.47C15.13,20,16,19,16.44,17.93Z"/><path class="cls-115" d="M20.28,14.57c3.08-.31.89,1.49,1,2.4L19.8,16v-1C19.82,14.75,20.14,14.75,20.28,14.57Z"/><path class="cls-161" d="M24.16,21.29l-1.51-1c.17-.3.33-.61.5-.92l.49-.47a.72.72,0,0,1,.88-.18.9.9,0,0,1,.33.52c-.59,1.32.87.37,1,.89.06.09.13.17.19.25Z"/><path class="cls-115" d="M24.61,18.89h-1l-.48-1h1l.33,0c.42.17.78.39.71.93A.37.37,0,0,1,24.61,18.89Z"/><path class="cls-54" d="M24.61,18.89h.46c.36-1-.73-.54-.95-1h0c.07-1.28-.84-2.26-1.19-3.42-.56-1.79-2.05-.25-3.14-.26,0,.07,0,.18,0,.2a3.81,3.81,0,0,0,.45.13l-.48.48c-1.58,1.62-1.6-.66-2.4-1,0-.16,0-.32,0-.48,1-1-.83-1.5-.48-2.41h0c.8-1.33,1.6-1.36,2.4,0h0c1.14,2.6,3.16.84,4.8,1h.95c.18.89-.94,2.34,1.12,2.43.88,0,.11.5.07.76a1.18,1.18,0,0,0,.85,1.48c1.88.29,2.56,1.93,3.71,3a5.1,5.1,0,0,0-4.77.49v-.09c-.32-.54-1.09-.39-1.43-.9Z"/><path class="cls-128" d="M24.11,12.18c-1,.92-2.38.55-3.57,1s-1.22-1-1.23-2C20.71,12.55,22.47,12.09,24.11,12.18Z"/><path class="cls-128" d="M19.31,11.21a1.52,1.52,0,0,0-2.4,0c.06-.76.38-1.36,1.21-1.36S19.27,10.44,19.31,11.21Z"/><path class="cls-54" d="M15.48,15.05c.11-.81-.33-1.73.49-2.4C15.83,13.46,16.27,14.38,15.48,15.05Z"/><path class="cls-162" d="M49.56,41.93c.7,0,1.12-.54,1.69-.79s1.18-.1,1,.48c-.81,2.28,1.81,2.93,2.11,4.71.12.71,1.3,1.24.51,2.22s-1.64.39-2.47-.1A4.57,4.57,0,0,0,51,48.16c-.74-.65-.44-1.83-1.24-2.45A4.71,4.71,0,0,1,49.39,44C49.38,43.29,49.08,42.58,49.56,41.93Z"/><path class="cls-163" d="M58.68,53v.48c-1,.39-1,1.61-1.73,2.17-.56.42-1.3,1.32-2,.59a1.45,1.45,0,0,1,.14-2.29c.25-.18.48-.4.77-.65A8.44,8.44,0,0,0,53,51.57C56.21,50.26,56.89,50.45,58.68,53Z"/><path class="cls-164" d="M50,43.85l0,1.9c-.33.33-.79.53-1,1s.13,1-.47,1.21-.68-.29-.89-.61c-.36-.53-.7-1.06-1-1.58,2-.32,2-1.85,1.92-3.36h.47C49.48,42.83,49.64,43.42,50,43.85Z"/><path class="cls-151" d="M49.09,46.75a.89.89,0,0,1,1-1A3,3,0,0,1,51,48.16c-.32.76,1,1.11.48,1.93H51A2.5,2.5,0,0,1,50,47.64C50.1,47,50.14,46.26,49.09,46.75Z"/><path class="cls-69" d="M50,43.85a1.48,1.48,0,0,1-1-1.43c.16-.17.32-.33.49-.49Z"/><path class="cls-165" d="M36.11,22.72c-.36-1.78,1.9-2.25,1.93-3.83,1,.08.81-1.11,1.43-1.44,0,.16,0,.32,0,.47.65,1,1.79,1.83.13,3-.32.22-.11,1.2-.15,1.83C38.34,22.61,37.24,21.61,36.11,22.72Z"/><path class="cls-166" d="M38,18.88c-1.24.08-2.47-.08-3.75.1s-1.12-1.33-.89-2.12c.34-1.18.4-1.89-1.11-1.8v0c-.13-.09-.36-.2-.35-.29.18-1.35-.44-2.68-.12-4,2.17.46,4.93,3.18,5.27,5.33C37.23,17.07,38.3,17.74,38,18.88Z"/><path class="cls-167" d="M31.8,10.72a3.77,3.77,0,0,1,0,.47c-.14,1.35,1.74.58,1.8,1.7s-1.8.23-1.61,1.5a2.76,2.76,0,0,0,.26.65C31.06,13.48,28.86,13,28.07,11c-.22-.58-.82-1.15-.4-1.77s1.15-.09,1.73,0c.31,0,.63.06,1,.09Z"/><path class="cls-168" d="M46.74,44.32c-.08-.41-.15-.82-.62-1-.18-.64-.46-1.28.08-1.89C47,41,46.39,40,47.3,39a19.6,19.6,0,0,0,.66,5C48.16,44.55,47.32,44.64,46.74,44.32Z"/><path class="cls-169" d="M46.2,41.45c0,.63-.05,1.26-.08,1.89l-.88-1.42a1,1,0,0,1,.47-1Z"/><path class="cls-170" d="M24.61,19.38c.49.28,1.81-.76,1.43.9C25.54,20,24.09,21.24,24.61,19.38Z"/><path class="cls-161" d="M24.12,17.92c.58,0,1.28-.13,1.55.55.13.32-.32.38-.6.41Z"/></g></g></svg>