<svg xmlns="http://www.w3.org/2000/svg" viewBox="0 0 43.02 91.65"><defs><style>.cls-1{fill:#e17b90;}.cls-2{fill:#d26c85;}.cls-3{fill:#d55c7f;}.cls-4{fill:#e45f80;}.cls-5{fill:#d45578;}.cls-6{fill:#e17e98;}.cls-7{fill:#cd597b;}.cls-8{fill:#f5cbd6;}.cls-9{fill:#d66d85;}.cls-10{fill:#e58498;}.cls-11{fill:#e96a8d;}.cls-12{fill:#da8796;}.cls-13{fill:#dc7f92;}.cls-14{fill:#e48497;}.cls-15{fill:#e07590;}.cls-16{fill:#ce798c;}.cls-17{fill:#ce7a8f;}.cls-18{fill:#ce9ca7;}.cls-19{fill:#e1748f;}.cls-20{fill:#d16a85;}.cls-21{fill:#e28293;}.cls-22{fill:#dd8290;}.cls-23{fill:#db778d;}.cls-24{fill:#d08193;}.cls-25{fill:#dd95a1;}.cls-26{fill:#f2d5dc;}.cls-27{fill:#fae8ec;}.cls-28{fill:#f6d5dd;}.cls-29{fill:#f9e0e7;}.cls-30{fill:#f8dae4;}.cls-31{fill:#ede6ed;}.cls-32{fill:#f7dada;}.cls-33{fill:#fae8ed;}.cls-34{fill:#faedef;}.cls-35{fill:#e7c9d4;}.cls-36{fill:#ea6378;}.cls-37{fill:#d67f7d;}.cls-38{fill:#f9e1e6;}.cls-39{fill:#f6d1db;}.cls-40{fill:#eb6c91;}.cls-41{fill:#f6dce3;}.cls-42{fill:#f5b7ca;}.cls-43{fill:#e7d7e5;}.cls-44{fill:#d54e6a;}.cls-45{fill:#f3cbd0;}.cls-46{fill:#f4c4d5;}.cls-47{fill:#f9c73a;}.cls-48{fill:#fad8e6;}.cls-49{fill:#e59183;}.cls-50{fill:#e4984c;}.cls-51{fill:#f4dde2;}.cls-52{fill:#f2d9de;}.cls-53{fill:#fbf1f3;}.cls-54{fill:#f3e4eb;}.cls-55{fill:#fbebee;}.cls-56{fill:#f8dee4;}.cls-57{fill:#f8dbe2;}.cls-58{fill:#fae1d9;}.cls-59{fill:#dad5e5;}.cls-60{fill:#e5eaf3;}.cls-61{fill:#e6e5f2;}.cls-62{fill:#fcf5f9;}.cls-63{fill:#d6ced0;}.cls-64{fill:#f9e8ec;}.cls-65{fill:#e44f7c;}.cls-66{fill:#e48da4;}.cls-67{fill:#ddefee;}.cls-68{fill:#eeacba;}.cls-69{fill:#fbecef;}.cls-70{fill:#eef4f9;}.cls-71{fill:#d9557b;}.cls-72{fill:#dc6580;}.cls-73{fill:#e35c84;}.cls-74{fill:#ed658b;}.cls-75{fill:#f7c1d7;}</style></defs><title>pinkDress</title><g id="Layer_2" data-name="Layer 2"><g id="Layer_1-2" data-name="Layer 1"><path class="cls-1" d="M9.07,10.08a19.19,19.19,0,0,0,1.06,4.22c.33.47,1.15.55,1,1.36-1.44,1.72-2,.14-2.51-.79C7.48,12.63,7,10.12,6.33,7.7c-.22-1.3-.93-2.64.21-3.87.63-.33.9,0,1.09.56,0,.11,0,.21-.07.32.3.82.25,1.71.57,2.53a.48.48,0,0,0,.11.41C9.07,8.27,9,9.22,9.07,10.08Z"/><path class="cls-2" d="M33,90.15a36.62,36.62,0,0,0-9.46.61.84.84,0,0,1-.65-.75c.28-.8,1-.91,1.7-1.19s1.42-.38,2.14-.56a44.51,44.51,0,0,1,6.43-.13,7.28,7.28,0,0,0,4.09-1c1.07-.68,2.24-1.18,3.33-1.82,1,.41.74-1.07,1.51-1,1.41,1.72,1.18,2.74-.73,3.5-.67.27-1.43,0-2,.41h0C37.73,90.52,35.35,90.25,33,90.15Z"/><path class="cls-3" d="M41.77,84.45c-.05.58.24,1.49-.94,1C39.77,85,39.56,84,39.27,83.17a81.55,81.55,0,0,1-2.76-8.53,17.68,17.68,0,0,0-.84-3,3.15,3.15,0,0,1-.16-.69,3,3,0,0,1,.24-1.75,1.31,1.31,0,0,1,1.57-.54c.89,3.68,1.75,7.36,2.67,11a9.79,9.79,0,0,0,1.67,3.88C42.06,83.8,42.05,84.11,41.77,84.45Z"/><path class="cls-4" d="M37.32,68.63l-1.45.48C35,69,35,68.2,34.7,67.63a5.44,5.44,0,0,1-.21-1A9.29,9.29,0,0,0,34.11,65c-.46-1.81-.88-3.63-1.37-5.43a14.46,14.46,0,0,1-.41-3.15,1.32,1.32,0,0,1,.6-.84.79.79,0,0,1,1.11.54A79.39,79.39,0,0,1,37.32,68.63Z"/><path class="cls-5" d="M23,90.16l.59.6c-3.21,1.34-6.46,1-9.71.22-1.4-.17-1.4-.17-1.19-1a3,3,0,0,1,1.53-.37,19.38,19.38,0,0,0,6.58.05A2.27,2.27,0,0,1,23,90.16Z"/><path class="cls-6" d="M34,56.12l-.85-.45c-.2-1.78,1-2.86,2-4,.57,1,1.2-.39,1.78,0a.64.64,0,0,1,0,.89l-.48,1.13a5,5,0,0,1-2,1.82Z"/><path class="cls-7" d="M12.49,90.26l1.37.72L12,91.11l-2-.4C10.62,89.26,11.52,89.56,12.49,90.26Z"/><path class="cls-8" d="M34.49,55.57a5.43,5.43,0,0,1,2-1.82C36.28,54.85,35.73,55.58,34.49,55.57Z"/><path class="cls-9" d="M28.29,38.36c.1,2,.43,3.85,2,5.26.28.39.92.16,1.13.67a.92.92,0,0,1-.25,1c-1.28.56-2.1-.25-3-1a2.32,2.32,0,0,1-.34-.64c-.28-1.38-.55-2.77-.85-4.15-.18-.69-.28-1.4-.51-2.07a4,4,0,0,1-.18-.74c-.22-2.75-.9-5.45-1.06-8.21.17-1.53-.47-3.23,1-4.8.83,1.83,0,3.54.63,5.07l1,7.14C28.36,36.66,27.79,37.6,28.29,38.36Z"/><path class="cls-10" d="M26.87,28.76c-1-1.29,0-2.91-1-5v5a.58.58,0,0,1-.74-.26,30.13,30.13,0,0,1,0-11c1.09-1.18,1,1,1.76.65C26.9,21.71,26.89,25.23,26.87,28.76Z"/><path class="cls-11" d="M28.38,9.65c-.36,1.89-.73,3.79-1.09,5.69C27,16,26.79,17,26,15.7a5.48,5.48,0,0,1-.31-2.36,8.48,8.48,0,0,1,.64-4.07c.14-.28-.09.06.09-.2.44-.63.5-1.93,1.65-1.46C29,8,28.57,8.91,28.38,9.65Z"/><path class="cls-12" d="M28.38,9.65l-.24-1.78C27,8,27.66,9.33,26.82,9.55a2.71,2.71,0,0,1-.4-2.43c.23-1,1.12-1.6,1.46-2.53a1.32,1.32,0,0,1,1-.16,1,1,0,0,1,.51.42C29.05,6.45,28.71,8.05,28.38,9.65Z"/><path class="cls-13" d="M26.34,13.29a9.86,9.86,0,0,0,.09,2.11c.27,1,.56-.08.86-.06a5.06,5.06,0,0,1-.37,2.85c-.23.18-.57.56-.68.5-.66-.35-.14-1.05-.37-1.55C25.11,15.74,24.72,14.39,26.34,13.29Z"/><path class="cls-8" d="M32.15,43.6l3,.11a.61.61,0,0,1-.31.7,3.69,3.69,0,0,1-3.61-.23c-.38-.07-.78-.11-.93-.56Z"/><path class="cls-14" d="M28.29,38.36c-.72-.72-.38-1.62-.41-2.46A3.41,3.41,0,0,1,28.29,38.36Z"/><path class="cls-15" d="M1.42,52.9,1,51.61a.83.83,0,0,1,.16-1.37c1.24-.36.4-1.82,1.26-2.38A.74.74,0,0,1,3,48c.75,1.07.28,2.34.58,3.49a1.6,1.6,0,0,0,.36.46c.83.49,2-.42,2.68.6A2.17,2.17,0,0,1,7,53.2c.84,2.72.21,5.52.48,8.27a134.27,134.27,0,0,1-1.13,15c-.58,1.29-.08,2.8-.83,4.06a.94.94,0,0,1-.76.28c-.91-.42-.64-1.12-.45-1.8.29-7.1,1.26-14.16,1.2-21.29,0-2.44-.4-3.91-3-4.08C1.93,53.62,1.75,53.15,1.42,52.9Z"/><path class="cls-16" d="M12.49,90.26c-.83,0-1.75-.37-2.43.45-2-.55-4.53,0-5.75-2.43L4.59,88c1.5-.62,2.67.54,4,.72a20.18,20.18,0,0,0,3.29.35c.79.08,1.83-.15,2.06,1.07Z"/><path class="cls-17" d="M4.27,79c.08.61,0,1.29.65,1.67.92,1.57.52,3.13,0,4.69a1.82,1.82,0,0,1-.53.61c-.84,0-.78-.54-.55-1.12A17,17,0,0,1,4.27,79Z"/><path class="cls-18" d="M3.79,84.85l.48,1a1.62,1.62,0,0,1,.48,1.79,2.84,2.84,0,0,1-.42.66v0C2.4,87.4,3.52,86.06,3.79,84.85Z"/><path class="cls-19" d="M6.29,28.67,6.21,25c-.16-1.34-.58-2.69.2-4,.53,0,.65.4.8.77a22.31,22.31,0,0,0,.43,2.68,24.1,24.1,0,0,0,.54,2.66c.27,2,.18,4.07.62,6.07A51.43,51.43,0,0,1,8.7,40c-.59,1.42-.06,3-.76,4.43a.64.64,0,0,1-.7.27c-1-1,.18-2.33-.4-3.42,0-3.35-.07-6.7-.16-10A4.45,4.45,0,0,0,6.29,28.67Z"/><path class="cls-20" d="M6.84,41.28c.71,1,.22,2.16.35,3.23-1.27,2-3.12.5-4.68.77a.74.74,0,0,1-.59-.16l-.49,0c0-2,1.54-1.47,2.58-1.37C5.91,43.91,6.88,43.24,6.84,41.28Z"/><path class="cls-21" d="M1.51,7.1l-.1-1.3c-.39-.87-.06-1.24.84-1.23C3.61,5.75,3.71,7.5,4.29,9c.55,2,1.8,3.92,1.38,6.18a1.87,1.87,0,0,1-.92,1.19C2.91,13.56,2.85,10.11,1.51,7.1Z"/><path class="cls-22" d="M4.75,16.4c.06-.43.12-.86.57-1.08A6.91,6.91,0,0,1,6.7,21.08c-.92,1.21-.21,2.63-.49,3.92C5.72,22.13,5.24,19.27,4.75,16.4Z"/><path class="cls-23" d="M28.32,3.88c.16.3.32.59.47.89l-1,0c-.65.87-2.09.13-2.61,1.28-.48,2.32-.58,4.68-1,7-.14.85-.17,1.74-1,2.28-2.12-.35-.47-2-1-2.86l-.12-1c0-.13,0-.25-.05-.37.53-2.12-.15-4.5,1.43-6.38.05-.61.11-1.21.16-1.82l.49-.43C25.52,3,27.1,2.91,28.32,3.88Z"/><path class="cls-24" d="M22.24,12.5c.75.82-.09,2,.68,2.82.19.71-.39.91-.78.82-3.29-.75-6.7-.3-10-1.06a.56.56,0,0,1-.16-.76,23,23,0,0,1,6.18-.87c1.3-.3,2.63,1.58,3.91,0Z"/><path class="cls-25" d="M12,14.32l.06.67a.61.61,0,0,1-.22.49.56.56,0,0,1-.75-.15,1.4,1.4,0,0,1-.95-1Z"/><path class="cls-26" d="M3.84,9.09A17.53,17.53,0,0,1,2.36,4.75c-.15-1.28,1.07-1.46,1.7-2.12.62-.39.56-1.06.7-1.66V0C5.85.43,6,1.61,6.74,2.36c0,.47,0,.94,0,1.41-.64,1.29.06,2.58,0,3.86,0,1.1-.23,2.18-.21,3.28a1,1,0,0,1-.79,1c-.68.16-.67-.47-.86-.85C4.55,10.42,4.59,9.55,3.84,9.09Z"/><path class="cls-27" d="M3.84,9.09c.15-.58.4-1.28.88-.28a20.34,20.34,0,0,1,.9,3.39c.63-1.88-.18-3.52,1.12-4.57.81,2.4,1.56,4.83,2.47,7.2.27.7.75,2.21,1.87.5H12l.23.24c-.51,1.92.23,3.93-.36,5.86-.26.59-.67,1.1-1,1.67-.75,1.3-2,2.17-2.78,3.46a1.23,1.23,0,0,1-.52.35c-.6-.75-.23-1.7-.51-2.51s.11-1.68-.33-2.46c0-.29,0-.57-.07-.86L5.32,15.32C5.45,13.09,4.06,11.23,3.84,9.09Z"/><path class="cls-28" d="M14,90.16c-1.81-1-4,.17-5.78-1a3.41,3.41,0,0,1-1.06-2.49c.13-1.26-.74-1.71-1.26-2.48a4.3,4.3,0,0,1-.05-2.46,5.16,5.16,0,0,1,1.05-1.85c1.11-1.26,2.21-2,3.3.37a5.57,5.57,0,0,1,.28-2.21c.17-.67.25-1.6,1.24-1.42s.83,1.05.9,1.75a7.51,7.51,0,0,1-.39,2.79c2.13-2,2.4-2.93.94-5.1-1-1.45-.72-3-1.05-4.44A27.74,27.74,0,0,1,11.39,67c0-.69-.26-1.44.37-2a.59.59,0,0,0,0-1c-2.77-1.78-1.11-3.43.12-5.11,1.5-1.09,3-1.35,4.52,0,.77.66,1.38.85,1.56-.47.13-.94.6-1.87,1.58-1.71s.66,1.27.83,2-.24,2,.86,2.51c.78.16,1.64,0,2.33.56a.75.75,0,0,1,.1.65c-.77.78-1.83.21-2.73.58-.28.06.14.52,0,.22,0-.11,0-.15,0-.17a3.2,3.2,0,0,1,2.5.12.72.72,0,0,1,.17.63c-.88,1-2.45.43-3.28,1.49-.75,2.11.56,3.71,1.49,5.29s.43,2.85-.74,4c-.65.66-1.28.66-1.84-.33.05.94.22,1.61,1,2,2.22,1,3.23,3.54,5.65,4.27a.81.81,0,0,1,.54.74c-.12,1.69-1.48,2.55-2.54,3.58a2.06,2.06,0,0,1-2.85,0c-1.8-1.41,0-2.25.94-3.39-1.29,0-2.35-.29-1.93,1.46.33,1.37-1.66,1.11-1.76,2.25-.17.44-.28.87.16,1.24,1.32.82,2.54,1.81,4.29,1.58a1.81,1.81,0,0,1,1.77,1.32l-1.55.9C20,90.26,17,91.08,14,90.16Z"/><path class="cls-29" d="M24.53,89.26c-1.81-1.21-4.39-.22-6-2.07-.25-.28-.52-.55-.78-.83a1.45,1.45,0,0,1,1-.55c4.07-.07,8.15-.48,12.21.23.69.49,1.19,1.15.79,2s-1.25.4-1.91.49c-1.15.15-2.35-.33-3.45.29A2.88,2.88,0,0,1,24.53,89.26Z"/><path class="cls-30" d="M36.9,74.36l3.93,11c-.38,1.53-2,1.12-2.89,1.93l-.33-.08a1.46,1.46,0,0,1-.8-1c-.6-1.62-1.2-3.24-.4-5,.14-2.26-1.22-4.48-.15-6.76A.45.45,0,0,1,36.9,74.36Z"/><path class="cls-30" d="M26.42,88.8c1-1,2.29-.54,3.4-.47,1.78.11,1.82-.69,1.39-2l.25-.23a1.19,1.19,0,0,1,1.27.14c.38.48.15,1.53,1.25,1.34,1.28-.18,2.47-1.34,3.86-.36l.1.08c-1.59,1.53-3.61,1.42-5.58,1.45S28.4,88.8,26.42,88.8Z"/><path class="cls-31" d="M36.48,74.36c-.48,2.44.85,4.76.49,7.2-2.2.74-3.06.27-3-1.93A30.76,30.76,0,0,1,34.79,73c.25-.76-.07-1.85,1.19-2a.53.53,0,0,1,.06.39A10.18,10.18,0,0,1,36.48,74.36Z"/><path class="cls-32" d="M36,71c-.67.51-.38,1.24-.46,1.89-1.39.54-1.67-.56-1.88-1.43a3.57,3.57,0,0,1,1.49-4c.24.53.49,1.07.74,1.6C35.9,69.75,35.94,70.38,36,71Z"/><path class="cls-32" d="M36.48,74.36a4.71,4.71,0,0,1-.44-3,5.69,5.69,0,0,1,.86,3Z"/><path class="cls-33" d="M35.13,67.51c.17,1-1,1.61-1,2.56-.06,1.18-.15,2.43,1.4,2.84q-.47,3-1,6.07c-.29,1.87.29,2.94,2.4,2.58,0,.61.15,1.28-.37,1.8s-.4.91.33,1.12c2,.58.72,1.24,0,1.87-1.06.74-2.63.58-3.36,1.91-2,.21-1-1.08-1-1.9-.53-.48-.75-1.4-1.72-1.29a4.78,4.78,0,0,0-3.24.68,2.14,2.14,0,0,1-1.78-.21c-.42-1.77,1-2.43,2.1-3,3.58-1.66,4.11-2.25,3.59-6.43a15.27,15.27,0,0,1-.16-5.35c.24-1.09-.34-2.18-.66-3.25-.65-2.25.33-4.47.13-6.71-.12-.82-.49-1.8.47-2.26a1.5,1.5,0,0,1,1.85.76,23.87,23.87,0,0,1,1.43,5.87A1.83,1.83,0,0,0,35,66.69Z"/><path class="cls-34" d="M33.22,59.34c-.83.06-2.24-.92-2,1.1l-.28.18a.81.81,0,0,1-1-.47c-.58-2.29-1.69-4.1-4.39-4.69-.51.34.49,2-1.08,2.06-.78-.75-.57-2-1.49-2.71a3.89,3.89,0,0,1-1-3.31,59.62,59.62,0,0,1,.84-6.1c.18-.69.4-1.42,1.27-1.55s1,.53,1.51.95c3,2.79,4.77,6.47,6.8,9.94a1.8,1.8,0,0,1,.3,1.44Z"/><path class="cls-8" d="M32.7,56.18l-.53-1c-1.31-2-.51-4.14-.27-6.21a1.39,1.39,0,0,1,1.92-1.21,1.71,1.71,0,0,1,.69,1c-.08-.53-.45-.73-.67-1.05-.37-1.7-1.54-1.38-2.78-1.22-2.32.31-2.93-.29-2.69-2.4,1,.14,1.65,1.35,2.84,1a6.44,6.44,0,0,1,4.2-.17c1.09,1,.6,2.38,1,3.54,0,1.22.43,2.54-.9,3.39-.77,1.3-1.55,2.6-2.32,3.91Z"/><path class="cls-35" d="M35,66.69c-.49-.4-1.37-.7-.37-1.48A1.63,1.63,0,0,1,35,66.69Z"/><path class="cls-36" d="M35.51,51.76A8.61,8.61,0,0,0,36,48.49c-.18-.36-.29-.85.15-1,.69-.2.54.54.75.89L37,49c-.21.94.71,1.89,0,2.83C36.5,51.56,36,53.44,35.51,51.76Z"/><path class="cls-37" d="M36.85,48.4l-.69-.57-.21.66c-.76-1-.37-2.24-.45-3.38-.23-.31-.78-.46-.48-1l.12-.38c1.22-.12.78,1.21,1.4,1.61.4.09.6.29.46.72Z"/><path class="cls-38" d="M28.37,44c.12,2,1.19,2.21,2.9,1.77,2.78-.71,2.92-.54,2.82,2.16h0c-1.1-.14-2,.58-1.78,1.43.4,2-.89,3.84-.14,5.77-1.73-1.85-2.71-4.17-3.86-6.35-.95-1.77-3.26-2.28-3.71-4.43-.07-.34-.69-.14-1,.23-.89,1.23-1,8.7-.12,10.07.85,2-.89,2.36-2,3.11-1.2,0-.94-.7-.73-1.44a27.65,27.65,0,0,0,.63-7.75c0-.4.07-.87-.16-1.16-1.35-1.73-.64-3.41,0-5.1a3.9,3.9,0,0,0,2.81-4.23c0-.15.08-.3.11-.45.22-1.12.11-2.69,1.66-2.67s.22,1.76,1,2.4h0c.28,1.95,0,4,1,5.81l.46.43C28.34,43.76,28.35,43.9,28.37,44Z"/><path class="cls-39" d="M26.91,37.39c-1-.33.08-2.06-1.08-1.94-1.33.13-.66,1.53-.93,2.35a2.44,2.44,0,0,1-.41.56c-1.76-.69-.62-2-.69-3.09.14-2.3.35-4.59,1.69-6.59a2.77,2.77,0,0,1,.41.12C26.11,31.68,27,34.47,26.91,37.39Z"/><path class="cls-39" d="M27.92,43.6c-.59,0-1.44-.24-1.27-.73.63-1.83-.83-3.72.26-5.49.53.55.39,1.28.52,1.94C27.42,40.76,28.19,42.12,27.92,43.6Z"/><path class="cls-40" d="M35,44.09l.48,1L31.21,45c0-.27,0-.55,0-.82Z"/><path class="cls-14" d="M27.92,43.6a11.26,11.26,0,0,1-.49-4.28,12.71,12.71,0,0,1,.9,4.3A1.88,1.88,0,0,1,27.92,43.6Z"/><path class="cls-41" d="M25.49,28.68c0,2.31-1.32,4.44-1,6.8-1.33.72-2,.05-1.61-1.15.67-2.27.15-4.78,1.39-6.64-.18.71-.55,1.73-1.78,1.28-1.07-.39-.54-1.14-.24-1.95.42-1.14-.2-2.42.11-3.63a2.7,2.7,0,0,1-.07-.63l0-.32a4.58,4.58,0,0,0,0-2.38,1.06,1.06,0,0,1,.21-.8.13.13,0,0,1,0-.05,1.79,1.79,0,0,1-.22.13h-.24c-.71-.38-1.54-.24-2.27-.53-.12-.11-.19-.31-.3-.36-1.63-.68-3.08-1.71-4.67-2.49-.35,0-.7,0-1.06,0A2.61,2.61,0,0,1,12,15.36v0a2,2,0,0,0,0-.34c3.32-.08,6.67-.64,9.89.74a.71.71,0,0,0,1-.41c1.13-3.25,1-6.7,1.62-10,1.12-.07,2.31-.26,2.37,1.42l-.09,2.85a12.44,12.44,0,0,0-.48,3.74c-.65,1.22-.35,2.56-.47,3.85C25.09,21,25.67,24.84,25.49,28.68Z"/><path class="cls-42" d="M26.91,6.7,24.54,5.28c.95-1.1,2.2-.19,3.27-.48C28.46,5.88,27.18,6.05,26.91,6.7Z"/><path class="cls-27" d="M8.18,33.08a24.6,24.6,0,0,1-.57-6.17l.11-.1a1.6,1.6,0,0,1,1.34-.39,1.67,1.67,0,0,1,.62.29c.94,1.06-.45,2.93,1.29,3.72A9.91,9.91,0,0,0,15.61,35a3,3,0,0,1,1.79,1.76,1.58,1.58,0,0,1-1.42.87c-3.32,0-4.81,1.92-3.88,5.07.07.23.27.47.22.67-.64,2.85,1.44,3.48,3.4,4.21a2.77,2.77,0,0,1,.53.43c.33.62,1,.7,1.56,1,.37.23.7.69.29.92-1.92,1.13-1.35,4.27-4.15,4.79-1.4.26-1.22,2.06-1.63,3.23a2,2,0,0,1-.44.56c-1.05,1-2.08,2.28-3.69,1.5s-.85-2.22-.79-3.45a3.59,3.59,0,0,0-.2-2.1,8.47,8.47,0,0,0-.91-1.77,1.24,1.24,0,0,1-.1-.39c-.91-1-1.9.88-2.81-.08h0c-.23-1.71-.13-3.44-.5-5.13a2,2,0,0,1,.23-1c1.19-1.24,3.07-.08,4.29-1.21.79-.13,1.37-.42.9-1.36-.29-.57-.52-1.11,0-1.69a1.53,1.53,0,0,0,.67-1.18A24.38,24.38,0,0,0,8.18,33.08Z"/><path class="cls-38" d="M7.23,54.19c1.46.36.78,1.4.79,2.28,0,1.1-1,2.44.35,3.23,1.21.69,1.89-.75,2.85-1.15A4.43,4.43,0,0,0,12,58a.67.67,0,0,1,0,1c-.06.39,0,1-.19,1.14-2,1.48-1.07,2.46.44,3.52.62.43,1.69,1.06-.06,1.73-.76.3-.08,5,.7,5.86.52.58,1.75,1.21-.1,1.72-1,.29-.3.74,0,1.18.73,1.21,1.93,2.44,2,3.68,0,1.87-.72,3.77-3.15,4.19-.06-1.61,1-3.29-.07-5.28a15.5,15.5,0,0,0-1,5c-1.33-.57-.55-2.86-2-2.62-.86.14-1.51,1.56-2.25,2.41-1-1.53-.2-3.25-.56-4.85l1.1-15.32C7.37,59,6.54,56.56,7.23,54.19Z"/><path class="cls-43" d="M5.69,76.71c1.15,1.5.3,3.24.56,4.85,0,1,0,1.91,0,2.87a.88.88,0,0,1-.73.2.64.64,0,0,1-.45-.58c.09-1.17-.23-2.36.2-3.5C5.41,79.27,5.05,77.93,5.69,76.71Z"/><path class="cls-44" d="M1.43,50.33c0-.79,0-1.59,0-2.39.16-.94-.1-2,.51-2.82l.46,0c.73-.13.75.34.73.84-.3.64-.11,1.42-.62,2a8.26,8.26,0,0,1-.2,2.75C1.88,51.6,1.58,50.87,1.43,50.33Z"/><path class="cls-45" d="M7.23,54.19c-.26,2.39.48,4.85-.44,7.2-.27-2.87.27-5.79-.5-8.64A1.58,1.58,0,0,1,7.23,54.19Z"/><path class="cls-45" d="M3.34,47l0,5.32c-1-1.32-.23-2.82-.44-4.22C2.51,47.47,2.51,47.06,3.34,47Z"/><path class="cls-46" d="M5.26,80.55l0,3.88c.2.79-.19,1-.9,1,.18-1.58.36-3.16.53-4.73A2.3,2.3,0,0,1,5.26,80.55Z"/><path class="cls-45" d="M3.38,52.28a3.74,3.74,0,0,0,2-.51c.63-.31.84,0,.81.59C5.26,52.25,4.29,53.43,3.38,52.28Z"/><path class="cls-47" d="M3.34,47c-.14.36-.27.73-.41,1.09a2.25,2.25,0,0,0-.44-.14c.07-.65-.2-1.37.4-1.91a.25.25,0,0,1,.42.08Z"/><path class="cls-46" d="M5.77,84.44h.47C9,84.45,7,87,8.13,88c.2.19,0,.77,0,1.16-1.33-.1-2.42-1.22-3.85-.87l0-.52A15.61,15.61,0,0,0,5.77,84.44Z"/><path class="cls-48" d="M5.77,84.44a2.57,2.57,0,0,1-1.42,3.34c0-.64,0-1.29-.08-1.93a3.74,3.74,0,0,1,.12-.45l.9-1Z"/><path class="cls-49" d="M4.36,2.87l-2,1.88c-.66,0-.91.46-.95,1A1.87,1.87,0,0,1,1,5.67c.07-.81-1-1-1-1.72A2.79,2.79,0,0,0,2.42,2.82,1.34,1.34,0,0,1,4.36,2.87Z"/><path class="cls-50" d="M4.36,2.87,2.42,2.82C2.68,1.54,4.11,1.74,4.76,1,5.48,1.78,6.05,2.57,4.36,2.87Z"/><path class="cls-51" d="M8.18,33.08c.34-.06.93-.38.9.24-.14,2.53.77,5,.55,7.51-.08,1-.49,1.42-1.45,1.38a1.94,1.94,0,0,1,0-2Q8.16,36.67,8.18,33.08Z"/><path class="cls-45" d="M3.31,46.07A1.56,1.56,0,0,1,2.89,46a1,1,0,0,0-.51-.92c.1-.46.24-1.07.85-.64,1.34,1,2.63.56,4,.08l.47.05a.33.33,0,0,1,.12.33c0,.12-.06.18-.1.18C6.53,46.75,4.72,45.52,3.31,46.07Z"/><path class="cls-52" d="M7.68,45.07c0-.17,0-.34,0-.51.38-1.41-.5-3,.5-4.31,0,.66,0,1.31,0,2C8,43.16,11.69,44.78,7.68,45.07Z"/><path class="cls-22" d="M6.77,21.94A3.35,3.35,0,0,1,7.1,24.4C6.46,23.65,6.81,22.77,6.77,21.94Z"/><path class="cls-53" d="M9.61,26.84H9.13c-.42-1.62,1.76-2.26,1.44-3.84a1.41,1.41,0,0,1,.93-1.42c.48.26.63.81,1,1.17,1.57.88,1.22,2.36,1.19,3.75a1.07,1.07,0,0,1-.31.57c-.28.34-1.24.6-.23,1.12a6.52,6.52,0,0,0,2.85,1c1.86.14,3.76-.59,5.56.68,1.14.8,1.71,1.58,1.46,2.94-.36,1.87-.64,3.77-1.94,5.31a1.48,1.48,0,0,1-.54.45c-1.3-.1-2.16-1.1-3.25-1.64-1.73-.6-2.63-2.5-4.78-2.72-.76-.08-1.3-2.29-1.94-3.52C9.4,29.61,10.67,27.93,9.61,26.84Z"/><path class="cls-54" d="M12,23c-.53-.36-.45-.93-.49-1.45-.16-1.18.63-2.37-.47-3.6-.46-.51,1.48-1.37,1-2.62h1.91a.88.88,0,0,1,.18,1.08c-.77,1.27-.36,2.35.44,3.4a.68.68,0,0,1-.3.54c-1.43.18-1.69,1.34-2,2.44Z"/><path class="cls-55" d="M10.57,23c1.4,2-1.19,2.47-1.44,3.84l-1.41,0C7.88,25,9.58,24.24,10.57,23Z"/><path class="cls-56" d="M31.21,67.64a5.14,5.14,0,0,1,.57,5.14c-.16.38-.4.64-.12,1,1.53,2.29.25,4.78.44,7.16.12,1.5-1.48,1.6-2.45,1.75a4.91,4.91,0,0,0-3.72,2.66,15,15,0,0,1-8.16,0c-.06-1-.48-1.86,1.45-2,1.37-.08-.47-1.54-.27-2.68.95.88,1.63-.25,2.49-.15.53.06,1.19-.18,1.45.51s-.17,1.08-.73,1.3c-.82.32-2,.64-1.17,1.69.57.69,1.85,1.43,2.8,0a9.62,9.62,0,0,1,1.47-1.53c1.09-1.09,1.31-1.78-.65-2-1.34-.14-1.73-1.66-2.73-2.38a7.38,7.38,0,0,0-2.25-1.53c-1.91-.61-.48-2-.41-3.19.82-.07.33,1.83,1.24.93.74-.73,2.44-1.56,1.13-3.11-1.07-1.26-1.38-2.83-2-4.26a2.23,2.23,0,0,1,.13-2.26,10.72,10.72,0,0,1,2.24-.45c.61,0,1.24-.06,1.66.54.14.5-.36,1.44.78,1.29a6.71,6.71,0,0,1,5.28,1.72.86.86,0,0,0,1.27-.08Z"/><path class="cls-57" d="M12,59V58c-.1-2.15.19-4.06,2.88-4.34.89-.1,1-.71.94-1.38-.12-1.46.79-2.14,2.18-2.73-1.08-.29-2.42-.06-2.16-1.63.46-.52,1.09-.46,1.69-.48-.61,0-1.24-.07-1.69.48-1.27.14-2.21-.78-3.35-1.07-.27-.07-.46-.41-.69-.62a.85.85,0,0,1-.27-1c.59-2.63-1.87-5.91,1.73-7.91.89-.5,1.73-.75,2.58,0,1.22.6,4.14,1.19,4.8,1h0c1.24-.65,1.83-.18,1.73,1.12a14.72,14.72,0,0,1-.77,2.72,29.26,29.26,0,0,0,.27,5.65c.6,3,.71,6.42-.88,9.44l.61.27c1.34.18.86,1.07.59,1.73a8,8,0,0,1-1.55,2.59c-1.4-1.35-.77-3.15-1-4.84-.78.37-1.45.69-1,1.74a1.09,1.09,0,0,1-.51,1.44,1.27,1.27,0,0,1-1.73-.36C15.2,57.71,13.57,58.68,12,59Z"/><path class="cls-34" d="M23.52,65.24c-.34-.57-.91-.46-1.43-.48-.15-1.26,1.16-.34,1.43-1v-.46a.66.66,0,0,1,0-1c0-.16,0-.32,0-.48-.08-.48.13-.58.54-.41.7.71.48,1.78,1.17,2.93.2-1.07-.37-1.88.05-2.59s1.09-.74,1.47.09c.73,1.61,1.61,1.26,2.46.19a12,12,0,0,1,2-1.65h0c1.22,1.44-.08,2.88,0,4.33.05,1,0,1.91,0,2.87h0A50.37,50.37,0,0,1,23.52,65.24Z"/><path class="cls-33" d="M24,61.4l-.49.48H20.65a3.7,3.7,0,0,1,.89-2.55c.43-.58.85-1.15.07-1.77.33-1.17,2.21-1.3,1.92-2.88,1.33.62.87,1.84,1,2.88l-.24.21c0,.23-.94.07-.33.45,1.77,1.12,1.85,1.36.41,3.11Z"/><path class="cls-58" d="M17.77,85.4H27.85a3.56,3.56,0,0,1,3.28-.18.79.79,0,0,1,.08,1.15H17.77Q17,85.88,17.77,85.4Z"/><path class="cls-38" d="M13.16,84.16a1.47,1.47,0,0,1-1.26,1.17c-.41.08-1-.17-.92-.45.24-.56.29-1.43,1.09-1.51A1.08,1.08,0,0,1,13.16,84.16Z"/><path class="cls-33" d="M23.53,62.36c0,.32,0,.64,0,1-1.14-.12-2.31.22-3.63-.31C21.06,61.92,22.38,62.54,23.53,62.36Z"/><path class="cls-59" d="M12.79,87c.89-.81,1.81-.69,3-.33C14.74,87.79,13.72,87.1,12.79,87Z"/><path class="cls-33" d="M23.52,63.79l-1.43,1h-2.4A5.5,5.5,0,0,1,23.52,63.79Z"/><path class="cls-60" d="M33.61,88.26c-.21-3,2.08-1.55,3.36-1.91a1.39,1.39,0,0,1,.87.9C36.27,86.91,35.17,88.53,33.61,88.26Z"/><path class="cls-29" d="M31.21,86.36v-1a.65.65,0,0,1,0-1c1.53-.15,1.47.89,1.43,1.92Z"/><path class="cls-61" d="M31.21,84.44v1l-3.36,0C28.57,83.65,30.09,84.75,31.21,84.44Z"/><path class="cls-34" d="M32.4,60.72a1.61,1.61,0,0,1,0,1.71C32.05,61.94,32.11,61.45,32.4,60.72Z"/><path class="cls-62" d="M31.21,60.44c-.32,1.19-1.39,1.83-2.1,2.7-1,1.26-2.24.86-2.67-.82-.2-.76-.53-.58-1-.45a1,1,0,0,1-.28-.58c1-1.47-.51-2.48-.68-3.73h0c.83-.78.35-1.79.48-2.69.07-.48.08-1,.71-1s.67.36.7.78c.08,1,.54,1.22,1.57,1.13,1.22-.09,1.66.87,1.84,2S29.81,60.05,31.21,60.44Z"/><path class="cls-63" d="M34.09,48c1,1,1,1,.45,2.77-.73-.94-.33-1.91-.45-2.78Z"/><path class="cls-64" d="M21.61,42.2c-.86-.82-.4-1.54.1-2.32.79-1.26,0-1.52-1.06-1.52,0-1.83,1.67-3,1.68-5,0-2.16-1.21-3.83-3.49-3.74-1,.05-2,.58-3,.11a.48.48,0,0,1,0-.6c.6-.5,1.43-.47,2.05-.91.53-1.1.82-2.38,2.23-2.75.56-.64.13-1.41.3-2.1.58-1,1.33-.95,2.17-.36a4.64,4.64,0,0,1-.31,4.73.56.56,0,0,0,.18.82.8.8,0,0,0,1.22-.33,6.55,6.55,0,0,1,1.15-2.5c-.43,2.72-.78,5.45-1.34,8.15-.21,1.05-.38,1.72,1,1.61,0,1-1.09,1.92,0,2.88a4.09,4.09,0,0,0,0,.7C24.94,41.41,24,42.43,21.61,42.2Z"/><path class="cls-54" d="M13.44,26.36c-.85-.95.43-2.83-1.45-3.33l.15-.17c1.4-.38,1.6-1.75,2.27-2.74l0-.08a8.71,8.71,0,0,1,.45-4.71c.75.07,1.72-.29,1.9.88a1.12,1.12,0,0,0,1.57,1c1.55-.54,1.55.59,1.82,1.48a2,2,0,0,1,.55,1c.07,1.13.3,2.29-.5,3.29-.85.38-1.23-.33-1.72-.77-1.06-.94-1.76-.67-2.19.62-.81,1.12-2,2-2.25,3.5A.47.47,0,0,1,13.44,26.36Z"/><path class="cls-27" d="M14.88,15.33c.59,1.64-.1,3.16-.45,4.71-3.24-1.23-.58-3.1-.5-4.68Z"/><path class="cls-65" d="M22.5,19.23l.12.85a3.27,3.27,0,0,1-.05,2.44h0c-3,.74-1.93-1.52-2.14-2.85.3-1,.91-.94,1.64-.48a.7.7,0,0,0,.43,0Z"/><path class="cls-66" d="M20.6,19.62c0,1.38-.31,3,2,2.9a1.29,1.29,0,0,1,0,.48c-.7.14-1.74-.4-1.86.91-1.08.44-1.41.12-1-1,.83-1,.16-2.21.47-3.28C20.31,19.42,20.44,19.41,20.6,19.62Z"/><path class="cls-67" d="M22.5,19.23c.19-.56-.2-1.28.78-1.92.28,1,.42,1.65-.78,1.92Z"/><path class="cls-68" d="M20.6,19.62l-.4,0,0-1c.81-.51,1.5-.52,1.9.51C21.54,19.19,21,19,20.6,19.62Z"/><path class="cls-66" d="M22.57,22.52c0-.81,0-1.63.05-2.44A1.7,1.7,0,0,1,22.57,22.52Z"/><path class="cls-64" d="M20.65,38.36a4.1,4.1,0,0,1-.13.94c-.17.46-.93.51-.94.35-.25-2.46-3.94.83-3.73-2.25l1.44-.48C18.87,36.33,19.56,37.79,20.65,38.36Z"/><path class="cls-55" d="M9.61,26.84c1.92.88.55,2.58,1,3.84C8.13,29.93,10,28.09,9.61,26.84Z"/><path class="cls-45" d="M5.19,49.43c-.27.17-.44.34-.61.35-.32,0-.6-.17-.48-.53,0-.12.37-.23.55-.22S5,49.25,5.19,49.43Z"/><path class="cls-69" d="M7.42,64.45c.83.18.84,1.31,1.89.88s1.6.44,1.54,1.3c-.09,1.13-1.35,1.71-2.09,2s-1-.94-1.06-1.68S7.52,65.44,7.42,64.45Z"/><path class="cls-70" d="M15.9,29.17l-.06.55c-1.45.36-2.33-1.19-3.73-1.09-.43,0-.58-.5-.52-.91.17-1.21,1.15-.77,1.86-.88a3.65,3.65,0,0,1,2.57.95A1.18,1.18,0,0,1,15.9,29.17Z"/><path class="cls-55" d="M15.86,27.8a2.39,2.39,0,0,1-2.41-1c0-.16,0-.32,0-.48l.53,0a1.5,1.5,0,0,1,1.95-.09A1.16,1.16,0,0,1,15.86,27.8Z"/><path class="cls-71" d="M14.41,20.12c-.05,1.5.49,3.48-2.27,2.74C11.78,21,12,19.64,14.41,20.12Z"/><path class="cls-33" d="M23.52,65.24c.22.1.44.29.64.28,2.63-.23,4.88.8,7.05,2.12,0,1.06-.37,2-1.49,1-1.81-1.55-3.67-2.48-6.08-1.84-.58.16-.91-.18-1-.72S23,65.31,23.52,65.24Z"/><path class="cls-27" d="M15.85,48c.93-1.76,2.27-.83,3.51-.49-1.09.74-2.33.38-3.51.49Z"/><path class="cls-33" d="M25.45,61.4v.47c.19.68.36,1.37.57,2s.5,1.09-.38,1.27a1,1,0,0,1-1.27-.77c-.19-1-.25-2-.36-3A1,1,0,0,1,25.45,61.4Z"/><path class="cls-34" d="M25.45,61.4H24c1.17-1.84,1.17-1.85-.86-2.17-.68-.11-.59-.64-.56-1.07.12-1.77,1.26-.4,1.9-.6C25.21,58.74,27.25,59.59,25.45,61.4Z"/><path class="cls-72" d="M15.82,26.41,14,26.34c-.68-2,.66-2.89,2-3.77,2.15.25,3.16,2.08,4.61,3.3-1.18.46-2.26.94-1.62,2.59.1.27-.43.35-.76.32A6.87,6.87,0,0,1,15.82,26.41Z"/><path class="cls-73" d="M20.62,25.87c-2.13-.28-3-2.26-4.61-3.3-.39-1,.07-1.39,1.06-1.53.73-.11,1.34-.36,1.7.59a6,6,0,0,0,1,1.31c0,.67.3,1,1,1C21.13,24.59,21.31,25.25,20.62,25.87Z"/><path class="cls-74" d="M15.82,26.41a3.08,3.08,0,0,1,2.42,2.37,2.93,2.93,0,0,1-2.34.39c0-.46,0-.92,0-1.37S15.83,26.87,15.82,26.41Z"/><path class="cls-75" d="M17.14,24.43c.54,0,1,.11,1,.73,0,.34-.07.64-.48.69a1,1,0,0,1-1.13-.65C16.35,24.66,16.72,24.51,17.14,24.43Z"/></g></g></svg>