<svg xmlns="http://www.w3.org/2000/svg" viewBox="0 0 90.33 143.89"><defs><style>.cls-1{fill:#e63538;}.cls-2{fill:#d83d33;}.cls-3{fill:#e53a3b;}.cls-4{fill:#ea4c3c;}.cls-5{fill:#ec5c46;}.cls-6{fill:#f0775c;}.cls-7{fill:#e63a36;}.cls-8{fill:#e43e3a;}.cls-9{fill:#e34b49;}.cls-10{fill:#eb2830;}.cls-11{fill:#e14a48;}.cls-12{fill:#e96950;}.cls-13{fill:#d66355;}.cls-14{fill:#e23a35;}.cls-15{fill:#e84037;}.cls-16{fill:#e3403f;}.cls-17{fill:#e4503f;}.cls-18{fill:#e2493f;}.cls-19{fill:#df433b;}.cls-20{fill:#e85c45;}.cls-21{fill:#de4440;}.cls-22{fill:#ef6d53;}.cls-23{fill:#ed664c;}.cls-24{fill:#e81f31;}.cls-25{fill:#e23b3b;}.cls-26{fill:#dc4f48;}.cls-27{fill:#e84a3d;}.cls-28{fill:#e23e42;}.cls-29{fill:#e33b38;}.cls-30{fill:#e54b3d;}.cls-31{fill:#eb785a;}.cls-32{fill:#e73f37;}.cls-33{fill:#cf593d;}.cls-34{fill:#e14e41;}.cls-35{fill:#cc4748;}.cls-36{fill:#ed5a45;}.cls-37{fill:#f06f53;}.cls-38{fill:#ed7458;}.cls-39{fill:#ee7158;}.cls-40{fill:#faf1ef;}.cls-41{fill:#ed634b;}.cls-42{fill:#f7ede0;}.cls-43{fill:#e74141;}.cls-44{fill:#e73e38;}.cls-45{fill:#ee654d;}.cls-46{fill:#e73232;}.cls-47{fill:#e85944;}.cls-48{fill:#e33f3f;}.cls-49{fill:#dd4e43;}.cls-50{fill:#e63a39;}.cls-51{fill:#dd5b42;}.cls-52{fill:#f8f1ec;}.cls-53{fill:#df7e62;}.cls-54{fill:#df3f3e;}.cls-55{fill:#e9514b;}.cls-56{fill:#e63e34;}.cls-57{fill:#eb5642;}.cls-58{fill:#ed5942;}.cls-59{fill:#f69f81;}.cls-60{fill:#ec694d;}.cls-61{fill:#e92830;}.cls-62{fill:#eb4741;}.cls-63{fill:#f39e84;}.cls-64{fill:#f29177;}.cls-65{fill:#ed775d;}.cls-66{fill:#ef8b70;}.cls-67{fill:#fcebe0;}.cls-68{fill:#ec8669;}.cls-69{fill:#e43841;}.cls-70{fill:#f09a82;}.cls-71{fill:#f17e64;}.cls-72{fill:#e83835;}.cls-73{fill:#e3423d;}.cls-74{fill:#e73132;}.cls-75{fill:#e44f45;}.cls-76{fill:#e65942;}.cls-77{fill:#f2bfab;}.cls-78{fill:#ea745b;}.cls-79{fill:#ef6148;}.cls-80{fill:#ed5941;}.cls-81{fill:#ea5d48;}.cls-82{fill:#e7523f;}.cls-83{fill:#e7393b;}.cls-84{fill:#e63c34;}.cls-85{fill:#e53b3c;}.cls-86{fill:#e83a36;}.cls-87{fill:#e24a40;}.cls-88{fill:#e14944;}.cls-89{fill:#d65346;}.cls-90{fill:#ee5e47;}.cls-91{fill:#ec4b39;}.cls-92{fill:#efa089;}.cls-93{fill:#f17f64;}.cls-94{fill:#ec7f64;}.cls-95{fill:#ea7c61;}.cls-96{fill:#ed7157;}.cls-97{fill:#f1ebed;}.cls-98{fill:#fbe0d5;}.cls-99{fill:#f1795d;}.cls-100{fill:#ee8065;}.cls-101{fill:#f08064;}.cls-102{fill:#ef674f;}.cls-103{fill:#f7eee9;}.cls-104{fill:#ee785e;}.cls-105{fill:#def0f5;}.cls-106{fill:#eeeeeb;}.cls-107{fill:#e47157;}.cls-108{fill:#fae7dc;}.cls-109{fill:#ec7963;}.cls-110{fill:#ee654b;}.cls-111{fill:#f06c51;}.cls-112{fill:#ef745c;}.cls-113{fill:#ee654e;}.cls-114{fill:#ec543d;}.cls-115{fill:#e96954;}.cls-116{fill:#ef856a;}.cls-117{fill:#ef654c;}.cls-118{fill:#dd7360;}.cls-119{fill:#ef7b5e;}.cls-120{fill:#d1edfb;}.cls-121{fill:#db4138;}.cls-122{fill:#eb795d;}.cls-123{fill:#ee745b;}.cls-124{fill:#f29076;}.cls-125{fill:#ef7760;}.cls-126{fill:#ef7458;}.cls-127{fill:#de2a2f;}.cls-128{fill:#ec7056;}.cls-129{fill:#ee5641;}.cls-130{fill:#df4e44;}.cls-131{fill:#f0856a;}.cls-132{fill:#f6e5dc;}.cls-133{fill:#ee7c64;}.cls-134{fill:#e7614d;}.cls-135{fill:#ee5f45;}.cls-136{fill:#f29d7a;}.cls-137{fill:#ed684e;}.cls-138{fill:#ee7459;}.cls-139{fill:#f27e60;}.cls-140{fill:#ee6a51;}.cls-141{fill:#f19077;}.cls-142{fill:#f5ede8;}.cls-143{fill:#f9f2ef;}.cls-144{fill:#ed886e;}.cls-145{fill:#dfeff4;}.cls-146{fill:#faf1e9;}.cls-147{fill:#ef8b73;}.cls-148{fill:#ef7052;}.cls-149{fill:#f2785e;}.cls-150{fill:#f17c61;}.cls-151{fill:#f2ad93;}.cls-152{fill:#f08566;}.cls-153{fill:#ed6048;}.cls-154{fill:#ee6c50;}.cls-155{fill:#f2cdc0;}.cls-156{fill:#f5eae7;}.cls-157{fill:#f8ede8;}.cls-158{fill:#e0674f;}.cls-159{fill:#d66f5b;}.cls-160{fill:#e58a79;}.cls-161{fill:#fbcab2;}.cls-162{fill:#f7ede7;}.cls-163{fill:#e0765a;}.cls-164{fill:#e3937d;}.cls-165{fill:#f08367;}.cls-166{fill:#ee866a;}.cls-167{fill:#fbeadd;}.cls-168{fill:#e28b74;}.cls-169{fill:#ef7057;}.cls-170{fill:#e2775e;}.cls-171{fill:#fae8dd;}.cls-172{fill:#f7ebe3;}.cls-173{fill:#fae4da;}.cls-174{fill:#eea38c;}.cls-175{fill:#f4f1ee;}.cls-176{fill:#fcf0ed;}.cls-177{fill:#e69983;}.cls-178{fill:#f8ece5;}.cls-179{fill:#f8c2ad;}.cls-180{fill:#f5e8e2;}.cls-181{fill:#d94537;}.cls-182{fill:#e97e61;}.cls-183{fill:#e03636;}.cls-184{fill:#d7725d;}.cls-185{fill:#f7d3b5;}.cls-186{fill:#f3ebe7;}.cls-187{fill:#f8e8d8;}.cls-188{fill:#f1715b;}.cls-189{fill:#fbe7cf;}.cls-190{fill:#e59b84;}.cls-191{fill:#dc8669;}.cls-192{fill:#f8e9df;}.cls-193{fill:#fbeee4;}.cls-194{fill:#f8ab8a;}.cls-195{fill:#eb7e64;}.cls-196{fill:#f7eee5;}.cls-197{fill:#f27b5f;}.cls-198{fill:#e14042;}.cls-199{fill:#f2957a;}.cls-200{fill:#ee9177;}.cls-201{fill:#f7eae0;}.cls-202{fill:#fae0d5;}.cls-203{fill:#f4f0ea;}.cls-204{fill:#fef8e6;}.cls-205{fill:#f9d7cb;}.cls-206{fill:#ea9881;}.cls-207{fill:#ef7558;}.cls-208{fill:#ee5e46;}.cls-209{fill:#f59376;}.cls-210{fill:#edeeee;}.cls-211{fill:#e47d65;}.cls-212{fill:#f9e8e0;}.cls-213{fill:#ee674d;}.cls-214{fill:#fce7de;}.cls-215{fill:#f9ece4;}.cls-216{fill:#e1886d;}.cls-217{fill:#ea8c72;}.cls-218{fill:#d9f0f9;}.cls-219{fill:#f4efeb;}.cls-220{fill:#e3eeec;}.cls-221{fill:#e2f2f1;}.cls-222{fill:#dfeff3;}.cls-223{fill:#f9f0e4;}.cls-224{fill:#cbebfb;}.cls-225{fill:#feeed6;}.cls-226{fill:#e89381;}.cls-227{fill:#d48668;}.cls-228{fill:#e6f1f8;}.cls-229{fill:#d8effb;}.cls-230{fill:#dff1f5;}.cls-231{fill:#dadbd8;}</style></defs><title>pj</title><g id="Layer_2" data-name="Layer 2"><g id="Layer_1-2" data-name="Layer 1"><path class="cls-1" d="M33.17,124.59V120c-1.25-2.12-.79-4.37-.53-6.6a15.67,15.67,0,0,0,1-6.55c-.06-3.26,0-6.53,0-9.79,0-.82-.27-1.83.9-2.21,1.53.55,1.1,1.9,1.24,3-.13,6.78.31,13.56,0,20.34,0,4.94.33,9.89-.27,14.81a.88.88,0,0,1-.61.5,1.75,1.75,0,0,1-.77-2.22A24.38,24.38,0,0,0,34.4,128s-.47.34-.16.25a5.21,5.21,0,0,1-.09,2.29c-.51.16-.71-.12-.78-.57C33.25,128.16,33.58,126.36,33.17,124.59Z"/><path class="cls-2" d="M33.25,113.21l-.1-2.85a.22.22,0,0,0,0-.34c.45-4.59.08-9.19.2-13.78,0-1.42.18-2.87-.63-4.16-.68-2.47.16-5.06-.64-7.52A23.69,23.69,0,0,1,32,81.64a13.87,13.87,0,0,1,.44-4.44.59.59,0,0,1,.45-.59,1.22,1.22,0,0,1,1,.62,3.59,3.59,0,0,1,.36,1.58,10.24,10.24,0,0,0,.41,3.2c0,3.45.8,6.86.59,10.32,0,.93.15,1.92-.64,2.66s-.48,1.63-.49,2.46c0,4,0,7.94,0,11.91C34.05,110.69,34.15,112.06,33.25,113.21Z"/><path class="cls-3" d="M77.41,119.43c.59,1.8,1.17,3.59,1.75,5.39,0,.3.1.6.16.9.46,2.42.86,4.86,1.41,7.26a2.18,2.18,0,0,1-.47,2.39c-.76.33-.92-.34-1.25-.73a3.32,3.32,0,0,1-.24-.62,9.52,9.52,0,0,0-.48-2.52,13.19,13.19,0,0,1-.5-1.23,26.33,26.33,0,0,1-1.33-7,5,5,0,0,0-.43-.5,1.46,1.46,0,0,1-.4-.89,13.77,13.77,0,0,1,.21-1.68,1.41,1.41,0,0,1,.55-.89A1,1,0,0,1,77.41,119.43Z"/><path class="cls-4" d="M33.11,2.84a.28.28,0,0,0,.31.08c.47.1.83.3.76.87-.38.49-1.12.59-1.32,1.26-.44.89-.43,2.1-1.72,2.37-.41,0-.8,0-1.09-1-.24,1.4.94,2.29.24,3.24a12.46,12.46,0,0,0-2.5,1.56,1.53,1.53,0,0,1-1.35-.06c-1-1.24-.14-2.29.43-3.27A19.28,19.28,0,0,1,31.5,2.82a3,3,0,0,1,.65-.26A1,1,0,0,1,33.11,2.84Z"/><path class="cls-5" d="M33.55,130l.5.59c.51.73.15,1.56.26,2.33,0,.2,0,.41,0,.61s.07.17.12,0l.13-.08H35a1.18,1.18,0,0,1,.94-.35,1.57,1.57,0,0,1,1.11.68c.52.75-.63,1.21-.32,1.93a1,1,0,0,1-.46.83c-1,.43-1.86-.11-2.77-.27-.48-1.77.16-3.62-.36-5.38v-.65A.27.27,0,0,1,33.55,130Z"/><path class="cls-6" d="M33.56,96a1.38,1.38,0,0,1-.39-.18c0-.28,0-.56-.07-.84L33,93.56c-.17-.51-.36-1,.14-1.47C33.94,93.34,33.59,94.69,33.56,96Z"/><path class="cls-7" d="M32.15,62.37l0-2.31A1.65,1.65,0,0,1,32.23,58c.92-1.06,2.26-1.34,3.46-1.87a12.8,12.8,0,0,1,1.3-.49c1.85-.66,4-.5,5.57-1.9,1.68.55,3.58-.56,5.17.66.48.35,1,.69,1,1.38a1.23,1.23,0,0,1-1,.87c-4.11.51-8.17,1.33-12.24,2.06a2,2,0,0,0-1.87,1.81c-.1.68.19,1.44-.44,2A.85.85,0,0,1,32.15,62.37Z"/><path class="cls-8" d="M30.21,58.53l-1-1.92c-.83-1.18-.42-2.64-.85-3.91l0,0a40.6,40.6,0,0,1-1.24-6.47,3.9,3.9,0,0,1,.43-2,.67.67,0,0,1,.68-.28,3.9,3.9,0,0,1,1.48,2.62c.4,3.44,1.82,6.63,2.39,10C32,57.75,32.36,59.45,30.21,58.53Z"/><path class="cls-9" d="M21.66,52.92c.39,1.28-.53,2.32-.62,3.51a14.86,14.86,0,0,1-2.27,4.87c-1,.68-.7,2.21-1.88,2.74a1.12,1.12,0,0,1-.67-.17,1.49,1.49,0,0,1-.31-1A13.55,13.55,0,0,1,17.06,59a4.67,4.67,0,0,1,.24-.62,13.38,13.38,0,0,1,1.06-1.63C19,55.5,19.47,54.17,20.2,53a1.59,1.59,0,0,1,1.08-.81C21.66,52.28,21.88,52.49,21.66,52.92Z"/><path class="cls-10" d="M32.15,62.37h.94a1.19,1.19,0,0,1,.51.78,89.64,89.64,0,0,1,0,12.8,1.26,1.26,0,0,1-.5.79l-.5,0c-.16.22-.3.2-.41,0A111.14,111.14,0,0,1,32.15,62.37Z"/><path class="cls-11" d="M21.66,52.92l-.54-.64c-.73-1.15,0-2.11.5-3a23,23,0,0,0,1.27-2.76c1.07-1.73,1.53-3.81,3-5.28a.61.61,0,0,1,.63.12,2,2,0,0,1,.28,1.34,4,4,0,0,1-.16.66c-.5.85-.52,1.93-1.25,2.68v.49a7.68,7.68,0,0,1-2.27,3.89Z"/><path class="cls-12" d="M30.21,58.53c1.72.29,1.34-1,1.45-1.92s.23-1.56.33-2.34c2.19-1,2.19-1,2.88,1.22.11,1.58-2.14,1.19-2.2,2.64a3.31,3.31,0,0,0-.57,1.93C31.26,59.81,30.36,59.63,30.21,58.53Z"/><path class="cls-6" d="M32.19,76.74l.41,0,.06,4.76c-.84-1.17-.21-2.58-.63-3.81C32.08,77.4,32.14,77.07,32.19,76.74Z"/><path class="cls-13" d="M26.4,43.16,25.74,46l-.31,0A3.17,3.17,0,0,1,26.4,43.16Z"/><path class="cls-14" d="M71.1,85.85a3.49,3.49,0,0,0,.36,2.55c0,.28,0,.56.07.84v2.4c.43.81.73,1.62,0,2.44-2.27.09-2.35-1.59-2.11-3,.21-1.25,0-2-1.1-2.51a1.26,1.26,0,0,1-.37-.59c1.66-2.65.57-5.47.48-8.22a6.82,6.82,0,0,0-.07-.79A102.54,102.54,0,0,1,67,64.5a3.12,3.12,0,0,1,.5-2c1.53-.32,1,1.17,1.58,1.75.9,1.71.08,3.57.46,5.33a38.38,38.38,0,0,0,1.06,8.26c1.18,2,.2,4.33,1,6.41A3.35,3.35,0,0,1,71.1,85.85Z"/><path class="cls-15" d="M34.07,136.79v-.5c.8-.88,1.6.31,2.4,0l.3.11c1,.72,1.58,2,2.79,2.49.28.15.57.3.87.43a42,42,0,0,0,7.52,0c1.77-.08,2.45-.79,1.85-2.52-.62-3.54.84-6.84,1.08-10.28a1.18,1.18,0,0,1,.66-.92c1.67,1.37,1,3.23.76,4.82-.35,2.22-.19,4.45-.32,6.66-.06.95.51-.36.78,0,.57,1.14.14,2.34.27,3.5.11.91-.55,1-1.17,1.17-1.9.61-3.86.94-5.79,1.43a1.94,1.94,0,0,1-.76.08,1.3,1.3,0,0,1-.67-.36h-1a4.81,4.81,0,0,1-5.3-1.82A.38.38,0,0,0,38,141C36.68,139.62,35.37,138.21,34.07,136.79Z"/><path class="cls-16" d="M74.4,141.11C73,142,71.72,143.5,69.7,143c-2,.23-3.87,1.15-5.91.46-.38,0-.78.08-1-.38s0-.9.45-1.21a8.59,8.59,0,0,1,2.09,0,24.3,24.3,0,0,0,7.74-2.5c.79-.42,1.39-1.09,2.15-1.56s1.26-1.07,2.17-1c.47.13,1,.21.81.91l-1,1.42C76.58,140.21,75.81,141.12,74.4,141.11Z"/><path class="cls-17" d="M78.23,137.74a1,1,0,0,0-1-.52c-.81-1.94.57-2.4,1.94-2.86l1.06,1C80,136.52,79.54,137.5,78.23,137.74Z"/><path class="cls-18" d="M4.34,55.64c.12-1.42,1.54-2.32,1.54-3.79,1.73-3,4.48-5.48,5.2-9.08.28-.69.35-1.47,1-2v0c.13-.3.13-.64.25-.94.57-1.45,1.16-2.87,2.66-3.64a1,1,0,0,1,1.16.53,2.06,2.06,0,0,1,.13,1c-.32,1.31-1.55,2.15-1.83,3.5a5.18,5.18,0,0,1-.26.6,11.81,11.81,0,0,0-1.74,3.43A35.18,35.18,0,0,1,11,48.64c-.77,1.07-1.12,2.51-2.58,3-1.07,0-1,1.08-1.47,1.62C6.11,54.1,5.94,55.63,4.34,55.64Z"/><path class="cls-19" d="M27.47,5.75c1.55-1,2-3.66,4.64-2.93-2.17,2.54-5.3,4.41-5.72,8.18a3.58,3.58,0,0,1-1.95,2.74,1.22,1.22,0,0,1-1-.28.76.76,0,0,1,0-.69l.07-.83a8.92,8.92,0,0,1,2-3.3Z"/><path class="cls-20" d="M22.56,15.32l0-1,.91-1.59c0,.21.08.43.13.64C24.07,14.49,24,15.24,22.56,15.32Z"/><path class="cls-21" d="M76.42,36.82l.82.58,9.51,14.45c.88.48.59,1.55,1.12,2.21a1,1,0,0,0,.43.16,1.49,1.49,0,0,1,.49.41,2.76,2.76,0,0,1,.61,1.83c-1.69,1.77-2.22.17-2.9-1a29.35,29.35,0,0,1-1.41-2.87,8.51,8.51,0,0,0-.74-1,119.06,119.06,0,0,1-8.22-13.08A1.6,1.6,0,0,1,76,37.31.86.86,0,0,1,76.42,36.82Z"/><path class="cls-22" d="M39.82,139.66l-.49-.47c-1.3-.62-1.52-2.31-2.86-2.89h0c0-.32,0-.64,0-1a6.57,6.57,0,0,0,2.31-2.43,6,6,0,0,0,.28-.91c.19-1.16.27-2.43-1.26-2.56s-1.65,1.13-1.65,2.3a3.26,3.26,0,0,1-.1,1.64l-1,0q0-7.68,0-15.36c.55-.52-.14-1.44.69-2,.9.57.39,1.3.41,2,.67-2.2-.58-4.37-.22-6.57.14-.83-.19-1.78.91-2.18.61.38.64,1,.72,1.62.15.92-.37,2.36,1.32,2.22,1.45-.12,1.75-1.16,1.37-2.44-.45-1.55-1.93-1.26-3-1.66-.5-1.62-2.4-2.74-1.71-4.78,0-.15,0-.35,0-.48a5.58,5.58,0,0,0-.5-5.9c-.17-1,.33-2-.46-2.89.3-4.49-.68-8.94-.51-13.43A2.34,2.34,0,0,1,34,79.64a.6.6,0,0,1,.74.06,3.17,3.17,0,0,1,.49,1.94,23.16,23.16,0,0,0,.32,4.78,29.13,29.13,0,0,1,.16,4.28c-.25,1.91,1,3.27,1.74,4.87.36-1.89.86-3.69,1-5.59.23-2.38,2.93-4.43,5.28-4.36,1.11,0,1.36.64,1.1,1.6a5.84,5.84,0,0,0-1.09,2.57c-.06.72-.25,1.48-1,1.74-1.9.65-.2,1.24,0,1.84.38,1-.6,2-.11,3.1a2.42,2.42,0,0,0,2.71,1.8,2,2,0,0,1,1.29.52.93.93,0,0,1-.3,1.25c-.66.48-1.59.14-2.26.72.36.7,1.42.35,1.69,1.15a10.54,10.54,0,0,1-.34,3.06,15.46,15.46,0,0,0,.17,6.31c.69,3.4,1.81,6.9.57,10.46a2.09,2.09,0,0,1-.7.8c-1.75,1.13-1.36,2.68-.76,4.21a10.94,10.94,0,0,0,2,2.65c.33.42.52,1.12,1.2,1s.83-.88.89-1.51a14.83,14.83,0,0,0-.16-3.33,3.2,3.2,0,0,1,0-.69,8.76,8.76,0,0,0-.51-4.88c-.5-1.11.74-2.84-1.25-3.44-.23-.07-.23-.64-.07-.88,1.11-1.58.8-3.51,1.32-5.23,1.14-1.21,1.6-2.94,3-4a1.17,1.17,0,0,1,.57.55,3.45,3.45,0,0,1,.25,1.87c-.58,4.9,0,9.76.42,14.63a2.37,2.37,0,0,1-.59,2.2c-.57,3.84-1.77,7.61-1.41,11.56-.71,1.49-1.74,2-3.27,1.14a1.77,1.77,0,0,0-2.23.07C43.42,139.86,41.64,139.8,39.82,139.66Z"/><path class="cls-23" d="M35,97.88c3.55,2.06.91,4.92.94,7.43,0,.77-.49,1.52,1,1.59,1.32.06-.62,1.49.45,2a.56.56,0,0,1-.46.52c-1,1.29-.67,2.84-.36,4.13a8.91,8.91,0,0,1-.41,5.29l-.33-2.31c-.31.59-.57,1.06-.82,1.53Q35.05,108,35,97.88Z"/><path class="cls-24" d="M34.13,133.38c0-.95-.05-1.9-.08-2.84v-3.28h.5v6.13h0C34.39,133.62,34.25,133.61,34.13,133.38Z"/><path class="cls-25" d="M4.34,55.64a11.91,11.91,0,0,0,2.79-4c.34-.68.66-.44,1.08-.33C8.71,54,7,55.8,5.79,57.82a16.68,16.68,0,0,0-3,4.82,1.6,1.6,0,0,0,.35,1.76,3.51,3.51,0,0,0,2.06,1.14c1.43.83,3.13,1,4.55,1.89a1.64,1.64,0,0,1,.57.91c-.07.5-.06,1.09-.86.81h-.2L9.1,69a16.8,16.8,0,0,0-2.87-.91,6,6,0,0,1-2.47-.75c-.87-1.15-2.59-1.24-3.3-2.61A1.44,1.44,0,0,1,.3,62.82C1.62,60.42,3,58,4.34,55.64Z"/><path class="cls-26" d="M15.36,68.1C15,71.21,12.65,69.77,11,70l-1.55-.89a.94.94,0,0,0,.58-1c1.46-.79,3.37.27,4.69-1.14C15.26,67.21,15,67.85,15.36,68.1Z"/><path class="cls-27" d="M.46,64.77c1.13.83,2.83.94,3.3,2.61C2.24,67.05.83,66.56.46,64.77Z"/><path class="cls-28" d="M6.23,68.13A3.21,3.21,0,0,1,9.1,69,5.36,5.36,0,0,1,6.23,68.13Z"/><path class="cls-29" d="M76.32,119.47l0,1c-1.16-.09-1.2-1-1.38-1.83a5.77,5.77,0,0,1,0-.72,17.37,17.37,0,0,0-.91-6.14,34.88,34.88,0,0,0-.92-4c-.16-.43-.34-.84-.53-1.25a7.25,7.25,0,0,1-.78-3.26c.44-1.09,1.18-2.08.52-3.38a1.25,1.25,0,0,1,.58-1.66.38.38,0,0,1,.51.24l2,11.76a15.7,15.7,0,0,0,.94,4v0C76.31,115.94,77.86,117.71,76.32,119.47Z"/><path class="cls-30" d="M76.32,119.47c.85-1.76-.36-3.53,0-5.3a13.41,13.41,0,0,1,1.07,5.26Z"/><path class="cls-29" d="M72,92.12c.18,1.45.35,2.89.53,4.33-1,.26-1-.72-1.47-1.14-.23-.42-.43-.84,0-1.27.81-.67.36-1.59.49-2.41Z"/><path class="cls-30" d="M76.35,114.19a4.79,4.79,0,0,1-.94-4A8.61,8.61,0,0,1,76.35,114.19Z"/><path class="cls-31" d="M86.89,55.15c.68.61.72,2.85,2.4,1a.65.65,0,0,1,.81.24c0,.11.05.21.08.31L90.33,58l-.55.52c-.91-1.75-.81.94-1.46.33a2.25,2.25,0,0,1-1,0c-1.25-.29-2-1.45-3.19-1.85-.4-.24-.84-.45-.63-1a2.44,2.44,0,0,1,1.58-.5A4.89,4.89,0,0,0,86.89,55.15Z"/><path class="cls-32" d="M22.56,15.32c.88-.35,1-1.12,1-1.91h.92c1,1.87-.28,3.59-.61,5.25C23.14,22.32,23,26.21,21,29.54a11.57,11.57,0,0,0-.73,1.22A20.62,20.62,0,0,0,19,33.22c-.49.68-.82,1.59-1.93,1.46a.86.86,0,0,1-.31-1.29c.68-1.85,1.35-3.69,2-5.53,1.59-3,2.16-6.32,3-9.56C22.29,17.39,21.82,16.18,22.56,15.32Z"/><path class="cls-33" d="M14.81,35.81a3.71,3.71,0,0,0,1.67-2.06l.51-.26c0,.44,0,.91.41,1.22a.77.77,0,0,1,.09.63,4.73,4.73,0,0,1-.7,1.51c-.4.33-.79.45-1.2,0a.91.91,0,0,0-.83-.64A2,2,0,0,0,14.81,35.81Z"/><path class="cls-34" d="M87.36,58.55l1,0a1.8,1.8,0,0,1,.41,1L85.91,61.4l-1,0c-.31-.4-.14-.83,0-1.25C85.22,58.88,86.28,58.7,87.36,58.55Z"/><path class="cls-35" d="M88.73,59.46c-.92,0-.58-.51-.41-1,.56-.18.46-1.24,1.26-1,.16.06.14.68.2,1A1.66,1.66,0,0,1,88.73,59.46Z"/><path class="cls-36" d="M33.1,76.75q0-7.19,0-14.38c-.11-3.89,0-3.94,3.85-4.13,1.66-.08,2.79-1.66,4.6-1.55a20.38,20.38,0,0,0,6-.55,1.54,1.54,0,0,1,.35.59,4.28,4.28,0,0,1-1.12,2.82,11.39,11.39,0,0,0-1.94,2.33c-1.46,2.08-1.93,2.12-4,.32a9,9,0,0,1-.64-1.54c-.59-1.48-1.53-1.46-2.62-.57-2.16,1.75-3.8,3.62-3.36,6.81a51.51,51.51,0,0,1,0,7.66c0,.93.18,1.94-.64,2.69Z"/><path class="cls-37" d="M33.58,77.25q0-6.56,0-13.11c0-1.32.06-2.56,1.81-2.86a2.14,2.14,0,0,0,1.21-1.06,2.5,2.5,0,0,1,2.8-1.6c1.33.24,1.38,1.32,1.48,2.37a7.55,7.55,0,0,0,.38,1.37.74.74,0,0,1,.11.92c-1,.76-1.78,1.9-3.15,2.15a1.77,1.77,0,0,1-.65,0c-.22-.07-.6-.22-.66-.08-1.87,4-3.37,8.12-1.5,12.61,0,.73.32,1.61-.88,1.72h-.47c-.34-.23-.16-.71-.47-1Z"/><path class="cls-36" d="M33.61,78.68a1,1,0,0,1,.47,1c0,.64,0,1.28,0,1.92C33.22,80.72,33.72,79.65,33.61,78.68Z"/><path class="cls-38" d="M75.31,118.55a3.25,3.25,0,0,0,1,2c0,.48.21,1-.19,1.4-.55.19-.74-.26-1-.56s-.38-.65-.79-.73a3.31,3.31,0,0,0-.55,0c-.66.24-.72.87-.92,1.41-.45,3.09-.18,3.43,2.7,3.38a1.16,1.16,0,0,1,.56.41c.54,1.73-.31,2.31-1.88,2.29a2.44,2.44,0,0,1-.71-.16c-.81-.44-1.79-.67-2.15-1.7-.67-1.44-.44-3.06-1-4.58s-.93-3-2.37-4.14c-1.22-1-.78-2.1.79-2.57,1.79.81,3.09-1.06,4.77-.88C74.37,115.49,74.06,117.33,75.31,118.55Z"/><path class="cls-39" d="M73.44,127.65c1.33,0,2.7.15,2.4-1.88.26-1.15.16-2.39.93-3.4l1.47,8.14c1,1.86-.43,2.15-1.7,2.51a3.64,3.64,0,0,0-.81.47c-.86.6-1.67,1.86-2.83.87a2.93,2.93,0,0,1-.52-3.87c.13-.25.54-.39.33-.78-.42-.2-.93-.21-1.26-.61C71.58,127.89,72.47,127.71,73.44,127.65Z"/><path class="cls-40" d="M73.92,119.94l.47,0c.3.35.52.78,1,.94l.71,1,.22.45a3.19,3.19,0,0,1-1,3.35c-.83.62-1.76.93-2.56.1a3.47,3.47,0,0,1-.44-4C72.88,121.22,73.07,120.31,73.92,119.94Z"/><path class="cls-41" d="M76.32,132.44c.85-.43,2.43-.14,1.92-1.93a1.06,1.06,0,0,1,.48,1c.59.89-.15,2,.48,2.88h0c-.49,1.07-2.31,1.22-1.94,2.86l-1.9,1-.22-.26C74.06,135.8,75.82,134.26,76.32,132.44Z"/><path class="cls-42" d="M75.35,125.7l1-3.35a.41.41,0,0,1,.46,0c0,1.23.38,2.54-.93,3.4Z"/><path class="cls-17" d="M79.2,134.36c-.88-.84-.33-1.92-.48-2.88C79.58,132.32,79,133.4,79.2,134.36Z"/><path class="cls-43" d="M85.42,60.43l-.47,1c-2.26,1.17-4.43,2.69-7.21,1.94l-.42-.7c-.57-.79,0-2.09-1.13-2.63l.1-.08-.09.09c-.11-.44.13-.66.51-.79.8-.07,1.31.46,1.87.9,1,1,2.06.88,3.27.36S84.21,59.47,85.42,60.43Z"/><path class="cls-20" d="M19.71,30.72c1.71-3,2.32-6.3,3.06-9.66.56-2.53.59-5.24,1.71-7.66.88-.6.8-2,1.91-2.4h1.44c.24,2.34-.73,4.3-1.95,6.19-.25.39.4.13.46.38.36.43.13.83,0,1.23a8.08,8.08,0,0,0-1.26,3,9.24,9.24,0,0,1-.24,1c-.51,2.15-1.87,4-2,6.33C22.7,30.43,21.36,31.38,19.71,30.72Z"/><path class="cls-44" d="M38.37,5.75l2,1.28c-.08,1.8-.82,2.39-2.42,1.84a15.55,15.55,0,0,1-2.85-1.7c-.86-.75-2.26-1-2.46-2.39-.18-.92-.18-.92,1.55-1C35.69,4.2,36.7,5.66,38.37,5.75Z"/><path class="cls-45" d="M26.39,17.72l-2.15.1c2.58-1.85,2.53-4.6,3.59-6.82.14-1.58,1.32-1.43,2.4-1.43a.81.81,0,0,1,.59,1,15.14,15.14,0,0,0-1.31,2.14c-.94.87-.82,2.17-1.32,3.22C27.71,16.64,27.38,17.51,26.39,17.72Z"/><path class="cls-46" d="M30.74,10.5l-.51-.93a6.67,6.67,0,0,0-.55-1.28,1.28,1.28,0,0,1,.34-2c1-.64.11,1.43,1.16.93.48.32.61.86.9,1.31a10.07,10.07,0,0,0,2.21,2.7c.41.37,1,.63.76,1.37a1.6,1.6,0,0,1-1,.36A4.26,4.26,0,0,1,30.74,10.5Z"/><path class="cls-47" d="M31.65,8.62c-.54-.36-.44-.92-.47-1.45,1-.51.63-1.81,1.46-2.39.56.94,1.93.85,2.4,1.89l-.22.23C33.42,6.84,32.65,7.94,31.65,8.62Z"/><path class="cls-48" d="M63.37,10.44c.22.5.44,1,.67,1.51l.75,1.46a.86.86,0,0,1,.11,1c-.81.49-1.32-.08-1.88-.51-1.34-1.75-2.68-3.49-3.94-5.31a2.84,2.84,0,0,1-.23-1.29,1.22,1.22,0,0,1,.92-.86.9.9,0,0,1,.61.16l.57.58c.22.31.43.62.65.92a1.12,1.12,0,0,1,.37.49A4.41,4.41,0,0,0,63.37,10.44Z"/><path class="cls-49" d="M64.78,14.39c0-.33,0-.66,0-1,.91.54,1,1.67,1.65,2.39.25.8.5,1.61.76,2.41-.51.39.07,1.21-.6,1.54-1.16-.35-1.09-1.46-1.43-2.31C65.13,16.41,64.07,15.51,64.78,14.39Z"/><path class="cls-50" d="M66.68,19.66c.06-.53-.05-1.11.52-1.45.25,1.21,1.17,2,1.89,2.89a16.37,16.37,0,0,0,2.38,4.81,2.82,2.82,0,0,0,.9,2L73.51,31c.19.45.29.88-.23,1.2-.88,0-1.31-.81-2-1.13a4.68,4.68,0,0,1-1.58-2.12,4.39,4.39,0,0,1-.16-.95,3.61,3.61,0,0,0-1.1-2.41,3.15,3.15,0,0,1-.26-.56,10.51,10.51,0,0,0-.72-1.73,6.28,6.28,0,0,1-.27-.59C67,21.69,65.79,20.84,66.68,19.66Z"/><path class="cls-51" d="M73,32.12c.46-.25.47-.71.56-1.14a1.47,1.47,0,0,1,.39.21l2.52,5.63-.1.11a.85.85,0,0,1-.93.18,9,9,0,0,1-2.17-2.84,4.42,4.42,0,0,1-.41-1.86C72.85,32.31,72.9,32.22,73,32.12Z"/><path class="cls-52" d="M36.05,133.37c-.83-1.52-1-3,.29-4.37a1.81,1.81,0,0,1,2.59,0c1.67,1.28.86,2.84.42,4.34-.75.41-1.4,1.28-2.38.47Z"/><path class="cls-53" d="M37,133.84l2.38-.47c-.76.95-1.47,2-2.88,2C35.21,134.36,37.83,134.68,37,133.84Z"/><path class="cls-1" d="M34.13,133.38l.41,0c.12.49.23,1,.36,1.53C33.82,134.73,34.18,134,34.13,133.38Z"/><path class="cls-54" d="M45.11,7.1a2.28,2.28,0,0,0,1.48-1.25,33.25,33.25,0,0,0,4.82-4.36h0A9.83,9.83,0,0,1,53.32,0V0l.9.47c.07.54.89.88.44,1.57a7.08,7.08,0,0,1-1.37.7,8.45,8.45,0,0,0-3.46,3.11A4.38,4.38,0,0,1,48.74,7a18.32,18.32,0,0,0-2.89,2.24c-.82-.19-1.72-.31-1.19-1.54Z"/><path class="cls-55" d="M76.19,60c1.51.38,1,1.66,1.13,2.63l-.23,0-.24,0a.27.27,0,0,0-.06-.32C77.16,61.45,76.38,60.82,76.19,60Z"/><path class="cls-56" d="M48.48,55.64l-1-.94a2.62,2.62,0,0,1,.22-.25c.67-.39,1.49-.32,2.18-.68a7,7,0,0,1,2.23-.62,4.9,4.9,0,0,0,2.19-.75,3.43,3.43,0,0,1,.7-.18c1.26-.18,2.45.31,3.69.36.91,0,1.81,0,2.71,0a3.82,3.82,0,0,1,2.27.45c-.37.79-.37.79-1.51.68.2.57,1.55-.07,1.15,1.08-2,.76-3.94.16-5.91.22-.14-.85-.73-.94-1.44-.82-.32,0-.39.06,0,.12a1.72,1.72,0,0,1,.43.18c.9.79,1.68,1.56-.26,1.94-2.12-.24-4.21-1-6.39-.34A1.36,1.36,0,0,1,48.48,55.64Z"/><path class="cls-57" d="M42.72,53.73c0,.65,0,1.27-.9,1.42-1.64.28-3.26.63-4.89,1-.57-.23-1-.55-1.07-1.25a1,1,0,0,1,.46-.51,26.05,26.05,0,0,0,3.33-1.12,2.63,2.63,0,0,1,2.89.22Z"/><path class="cls-57" d="M47.52,54.7c-.48-.17-1.21-.61-1.38-.45-1.42,1.35-2.39.34-3.42-.52v0c.17-1.48,1.86-.91,2.45-1.83a2.31,2.31,0,0,1,1.79-.7c.73.86.21,2,.77,2.94a.63.63,0,0,1-.21.55Z"/><path class="cls-58" d="M48.48,55.64c2.59-.38,5.2-.92,7.69.46l-.23.26c-2.1.69-4.37.14-6.45,1a2.86,2.86,0,0,1-2-.7c0-.16,0-.32,0-.48A1,1,0,0,0,48.48,55.64Z"/><path class="cls-59" d="M32.67,58.13c-.87-.81-.27-1.23.46-1.45a2.19,2.19,0,0,0,1.44-1,1.1,1.1,0,0,1,1.06-.29c.52.29.81.65.32,1.2Z"/><path class="cls-12" d="M36,56.56a.87.87,0,0,0-.44-.92c-.31-.56-.31-1,.48-1l.94,1.42Z"/><path class="cls-60" d="M32.16,54.19c-.13.81.32,1.75-.5,2.42L28.3,44.11c-.79-1.45-.62-3-.57-4.59,0-.86-.2-1.24-1.05-1.24a2.78,2.78,0,0,1,0-2.47c.23-.59.52-1.21,1.22-1.28s.9.69,1.2,1.2a3.86,3.86,0,0,1,.2.74,14,14,0,0,0,1.34,5.42c1,2.11.72,4.62.49,7a2,2,0,0,0,.65,2.47A1.86,1.86,0,0,1,32.16,54.19Z"/><path class="cls-61" d="M26.93,38.42l.89-1.59h.48v7.28a3.24,3.24,0,0,1-.44,0c-.11-1.66-1.06-3.07-1.43-4.65A1.3,1.3,0,0,1,26.93,38.42Z"/><path class="cls-62" d="M26.85,39.29a8.4,8.4,0,0,1,1,4.81c0,.68-.05,1.37-.07,2a9.73,9.73,0,0,1-.5-3.82,10.32,10.32,0,0,0-.89-1.09l0,0a1.41,1.41,0,0,1-.18-1.77A.48.48,0,0,1,26.85,39.29Z"/><path class="cls-63" d="M10.59,48.47,12,45.06l.3-.17a.76.76,0,0,1,.46.45,1.43,1.43,0,0,1,0,.46c-.49,2.84-.33,3,2.61,2.81a1.18,1.18,0,0,1,.58.29,1.68,1.68,0,0,1,.06.89c-.05,1.12-.16,2.31,1.65,1.89.35-.08.64.36.86.69a3.31,3.31,0,0,1,.29,2.33c-1.17.3-2.93-.39-2.83,1.93.05,1.31,1.28,1.19,1.78,1.9a.72.72,0,0,1,0,.46c-1.19.82-2.69,1.23-3.28,2.83-.28.78-1.18,1-2,1.06a2.94,2.94,0,0,0-2.41,1.21,1.69,1.69,0,0,1-.53.39c-1,.57-1.17-1.5-2.24-.66-1.73,0-3-.57-2.78-2.63.49-.75,1-.17,1.4.05.77.37,1.57.68,1.94-.4s-.13-1.65-1.26-1.73a2.38,2.38,0,0,1-1.33-.44.76.76,0,0,1-.12-.62,4,4,0,0,0,2.43-3C8.25,52.79,9.74,50.74,10.59,48.47Z"/><path class="cls-64" d="M18.24,52.28l-.63-.3c-.82-.33-1,1.83-1.56.71s-1.29-2.46-.21-3.76c-.29-3,2.08-5.33,1.9-8.27,1.43-.69,2.14.13,2.38,1.35.28,1.39.85,2.42,2.33,2.57s1,1.1,1,1.9c-.34,2.11-2.15,3.63-2.33,5.8-.18.31-.37.61-.56.92-1.37.22-.75-1.21-1.34-1.61-.41,0-.55.31-.76.54Z"/><path class="cls-65" d="M9.61,64.28c0-.16,0-.31,0-.47a3.54,3.54,0,0,1,2.55-1A2.7,2.7,0,0,0,14.49,62c1.25-1.28,1.66-.58,1.77.77v1a2.47,2.47,0,0,1-1.22,2.69C12.58,67.38,11.13,65.74,9.61,64.28Z"/><path class="cls-66" d="M16.26,62.79c-.59-.07-.55-1.51-.92-.93-1.47,2.26-4,1-5.74,2,2.36-1.53,5-2.63,7-4.74.19-.21.76-.06,1.15-.08Z"/><path class="cls-67" d="M17.76,58.53c-.94,0-2.05.23-2.35-1a3.54,3.54,0,0,1,.83-3.35c1.09-1.14,1.56.58,2.41.65a2.15,2.15,0,0,1,.06,2.3Z"/><path class="cls-68" d="M18.71,57.1l-.06-2.3a5.45,5.45,0,0,1-.41-2.52h0c.31-.33.39-.89,1-1,.62-.27,1.13-.29.86.59-.2.64-.1,1,.51,1.29C20,54.5,19.33,55.8,18.71,57.1Z"/><path class="cls-69" d="M14.9,66.21c.86-.59.67-1.76,1.37-2.44l.7.1c0,1.62-1,2.85-1.61,4.23-.42-.2-.47-.58-.51-1A.59.59,0,0,1,14.9,66.21Z"/><path class="cls-70" d="M23.45,46.48c-.1-.12-.26-.23-.29-.36-.36-1.73-2.52-.7-3.2-2.15-.54-1.15.42-3.45-2.18-3.2a1.76,1.76,0,0,1-1.62-.45,1.28,1.28,0,0,1,.43-1.86c.61-.4,1.08.07,1.43.46.83.9,2.05.78,3,1.29.47.61-.09,1.22,0,1.84a1.62,1.62,0,0,0,1.22,1.59.77.77,0,0,0,1-.53,1.93,1.93,0,0,0-.37-2c-.49-.58-1.44-.27-1.86-1,1-1.79,2.19-3.46,4.41-3.92,1.47.68.14,2.31,1.07,3.17,0,.61-.05,1.22-.07,1.83Z"/><path class="cls-13" d="M26.4,41.24c.72,0,1,.39.89,1.09l-.83.49Z"/><path class="cls-71" d="M32.16,54.19c0-1.06.2-2.06-1.23-2.68-1-.44-1-1.64-.22-2.59a5.49,5.49,0,0,1,1.63.88c.41,1.77,1.89,2.5,3.28,3.32.35.46.69.93.38,1.56h0a1,1,0,0,0-.48,1h-.94C34.32,54.26,33.42,53.93,32.16,54.19Z"/><path class="cls-72" d="M65.78,52.28l.11.9c-1,1.23-1.35.33-1.65-.58-.13-1.41-1.26-2.43-1.52-3.8.47-2-.28-3.92-.49-5.88a83.18,83.18,0,0,0-2.18-11.6,15.15,15.15,0,0,1-.31-1.52,5.71,5.71,0,0,1-.25-3c.1-.46.28-.92.82-1s.86.26,1.13.66a18,18,0,0,1,1.78,4.33c.52,1.7,1.34,3.29,2,4.95a2.08,2.08,0,0,1-.22,1.6,1.2,1.2,0,0,1-.53.29c-.68.29-.32.8-.26,1.24a6.08,6.08,0,0,1,.17,2.12v.31c-.41,1.63.73,3.08.53,4.69.44,1-.19,2.05.41,3h0C65.91,50,65.07,51.24,65.78,52.28Z"/><path class="cls-73" d="M76.84,59.47l-.64.58c-.29-.18-.57-.37-.85-.56a6.35,6.35,0,0,0-1.82-2.91c-1.18-1.91-2.36-3.81-3.53-5.72-.75-.3-.68-1-.8-1.61A16.54,16.54,0,0,0,66.79,44h0l-.16-1.14c-.19-.79-.78-1.4-1-2.16-.3-1.23.38-1.15,1.19-.77a15.78,15.78,0,0,1,4.06,8.67c1,2,2.76,3.51,3.9,5.43C75.46,55.89,76.93,57.38,76.84,59.47Z"/><path class="cls-74" d="M64.78,52.24c0,.76,0,1.53,1.11.94l.81.6a1.42,1.42,0,0,1,0,1.95,1.26,1.26,0,0,1-.66.18c-.57.15-.64-1.11-1.38-.5a1,1,0,0,1-1.29-.73c-.29-.59-1-.34-1.52-.72.62-.49,1.6.07,2-.73a.5.5,0,0,1-.16-.36c0-.14,0-.21.05-.21C64,52.31,64.29,52,64.78,52.24Z"/><path class="cls-75" d="M66.73,40.28c-.36-.06-1-.53-.75.42.23.73.8,1.35.66,2.19-.46-.7-.91-1.41-1.37-2.12A3.49,3.49,0,0,1,64.33,39c-.16-.53-.52-1.06,0-1.6.58-.35.48-.93.5-1.46l.29-.16a.86.86,0,0,1,.5.38A29.17,29.17,0,0,0,67,39.37,1,1,0,0,1,66.73,40.28Z"/><path class="cls-76" d="M66.23,55.67c.73-.49.42-1.23.47-1.89l.91.53c0,1.25,0,2.49.07,3.74-.94.19-1-.74-1.43-1.15C66,56.49,65.84,56.08,66.23,55.67Z"/><path class="cls-77" d="M64.72,38.9a2.61,2.61,0,0,1,.55,1.87l-.93.48h-.08C64.29,40.45,63.41,39.46,64.72,38.9Z"/><path class="cls-78" d="M65.78,52.28c-.93-1-.4-2.23-.5-3.36C66.18,49.93,65.81,51.13,65.78,52.28Z"/><path class="cls-78" d="M65.28,48.92c-.9-.89-.47-2-.41-3A5.63,5.63,0,0,1,65.28,48.92Z"/><path class="cls-79" d="M69.1,79.17a3.69,3.69,0,0,1,0,.47,1.11,1.11,0,0,0-.24.89c.13,3-2.2,3.86-4.23,4.82a2.65,2.65,0,0,0-1.77,2,1.65,1.65,0,0,0,1.18,2A2.22,2.22,0,0,1,64.3,91c-.09.46-.28,1-.7,1.13-1.64.47-1.91,1.63-1.75,3.07a3.7,3.7,0,0,1-2.62.13,11.39,11.39,0,0,0,3.14.14,1.88,1.88,0,0,1,1.86,1.77,1.22,1.22,0,0,1-.5,1.24.86.86,0,0,1-1.26-.12c-.81-1.19-1.89-.56-2.88-.51-.27.16-.55.3-.84.45-.58.25-1,.76-1.69.88a2.64,2.64,0,0,1-.69,0c-2-.88-1.12-2.59-1.13-4,.26-1.08.44-2.18.74-3.25-.2.48-.18,1.25-1,.64a35.71,35.71,0,0,1-1.77-10.75c1.08,0,1.69-.43,1.47-1.62.32-2.12,1.61-3.89,2.15-5.95.19-.73-.14-.77-.52-1a1,1,0,0,1-.36-.54,15.94,15.94,0,0,1,1.43-3.75c.09-.25.62-.7-.2-.8-.49-.07-.55,0-.65.57-.25,1.52-1,1-1.75.28a1.27,1.27,0,0,1-.39-1.09c.25-1.27-.22-2.85,1.14-3.67s-.81-2.48,1-2.88c.18.07.3.2.23.33-.14.28-.15.39,0,.12.26-.42-.19-1.34.66-1.27.67.06.74.86.66,1.37-.25,1.61,1.18,2.74,1,4a26.79,26.79,0,0,1-.95-8.05A1.77,1.77,0,0,1,59.44,56c1.18-.42,2.34-1.11,3.66-.51.39.17.66.66.47,1-.82,1.38.56,1.95.95,2.69,0,.5.51.06.24.23-.1.07-.16,0-.17-.17,0-.69-.51-1.62.86-1.55a3.15,3.15,0,0,1,.5,1.74c.48,1.59.3,3.28.72,4.88.2.87.24,1.76.48,2.63a29.51,29.51,0,0,0,.65,5.35,3.82,3.82,0,0,1-.5,3.6c-1.51.9-1.84-.47-2.47-1.29-.83-1.08-1.69-2.08-3-.5-2.07,1-2.6,2.1-2.08,4,.47,1.72-.41,2-2,1.6A6.76,6.76,0,0,1,59.08,82c.07.5-.06,1.27.79,1.2A1.49,1.49,0,0,0,61.24,82a6.38,6.38,0,0,1,1.54-3.41c1.93-.91,1.5.9,2,1.94-.19-1.94.17-2.87,1.87-1.36.64.57,1-.07,1.48-.25A.89.89,0,0,1,69.1,79.17Z"/><path class="cls-80" d="M63.81,89.24c-.46.07-.77,1.49-1.32.29a4,4,0,0,1-.06-3.19c.46-1.18,1-1.86,2.4-1.47.55.15,1.29-.22,1.21-.83-.2-1.58.23-1.85,1.62-1.13.65.34.44-.38.49-.66a4.91,4.91,0,0,1,.95-2.61,16.75,16.75,0,0,0,.28,3.06c.48,2,.59,4-1.16,5.5l-.26.2A3.48,3.48,0,0,0,63.81,89.24Z"/><path class="cls-81" d="M68.22,88.2a1.43,1.43,0,0,0,.41.09c.84.89.1,2.08.34,2.81a21,21,0,0,0,2.4,5.12,4.48,4.48,0,0,1,.49.81,2.29,2.29,0,0,1-.14,1.76c-2,.58-2.77-1.38-4.2-2-.45-.19-.67-.85-1.22-1.06s-1.47-.1-1.91-.8c-.16-.26,0-.42.26-.53-.9-1.78.48-2.07,1.64-2.51a1.19,1.19,0,0,0,.63-.67c.47-.91.43-2,1.12-2.84Z"/><path class="cls-80" d="M66.72,75.8c.79-1.37,1.31-2.58.27-4.27-.83-1.36-.17-3.22-.28-4.85.16-.85-.56-2,.93-2.38A107.43,107.43,0,0,0,69.1,79.17h-.95c-.43.37-.79.25-1.11-.16-.23-.87.07-1.85-.51-2.66A.6.6,0,0,1,66.72,75.8Z"/><path class="cls-82" d="M71.5,96.93a11.31,11.31,0,0,1-2.87-8.64c1.91-.18,1.92,2,1.65,2.31C68.86,92.26,70.54,93,71,94a1,1,0,0,0,.48,1A1.78,1.78,0,0,1,71.5,96.93Z"/><path class="cls-76" d="M67.64,64.3l-.93,2.38c-.8-.67-.36-1.59-.48-2.4a14.82,14.82,0,0,1,.21-3.64C68,60,67.5,61.36,67.72,62c0,.12,0,.24,0,.36Z"/><path class="cls-76" d="M67.74,58.4a15.55,15.55,0,0,1,.89,5.89c-.78-.42-.19-1.51-1-1.93h0C67.56,61,66.62,59.7,67.74,58.4Z"/><path class="cls-83" d="M67.74,58.4c0,1.32,0,2.64-.07,4-.77-.42-.18-1.5-1-1.91A2.84,2.84,0,0,1,65.89,59a3.1,3.1,0,0,1-.1-.68,1.57,1.57,0,0,1,.9-1.74l1,1.46A.29.29,0,0,1,67.74,58.4Z"/><path class="cls-84" d="M53.7,81.53c0,3.75,1.2,7.35,1.5,11.07.65.71,0,1.67.46,2.41.37,1.27-.86,2.95,1,3.83.91,4.2.39,8.51,1.1,12.72a3.93,3.93,0,0,1-.17,1.41c-.13.37-.31.8-.77.73s-.38-.64-.63-.93a60.12,60.12,0,0,1-2-10.56c0-1.83-.89-3.47-1.11-5.26.32-3.85-1.22-7.5-1.19-11.31a13.56,13.56,0,0,1,.84-7.57c1.15.45,1.09,1.32,1.28,2.06a1.72,1.72,0,0,1,0,1.12Z"/><path class="cls-85" d="M51.81,125.68c-.57-3.6-.3-7.26-.86-10.88-.43-2.75.72-5.5.39-8.28,0-.13,0-.26,0-.39.22-.51.06-1.51,1.14-.86a18.52,18.52,0,0,1-.09,4.82l.38,2.18c1,3.45.48,7,.24,10.41a76.86,76.86,0,0,0,.28,12.14c.07.85.28,1.78-.59,2.42s.07,1.91-1,2.83C50.67,135.13,52.09,130.4,51.81,125.68Z"/><path class="cls-86" d="M58.08,129.57l-.07-5.1c-.16-1.22-.49-2.45.22-3.61,1.86.68,1.16,2.5,1.7,3.77a22.59,22.59,0,0,0,1.56,6.47,3.06,3.06,0,0,1,.43,1.41,29.44,29.44,0,0,0-.34,4.3,7.65,7.65,0,0,0,.08,2.24,5.68,5.68,0,0,0,.28.55c.43.58,1.39,1.05.86,1.91-.4.65-1.1.21-1.65-.08-.73-.72-1.08-1.78-2-2.29-.32-1.57.09-3.23-.55-4.77C58.25,132.78,56.86,131.3,58.08,129.57Z"/><path class="cls-87" d="M52.37,110.09c-.39-1.64.5-3.43-.54-5-.73-.68-.61-1.66-.87-2.5a3.77,3.77,0,0,1,0-1.21c.3-3.46.12-6.93.59-10.38.21-1.87-.55-3.87.76-5.59.09.12.29.24.28.36-.25,3.75,1.6,7.28,1.16,11-.76.91.41,2.12-.47,3A73.42,73.42,0,0,1,52.37,110.09Z"/><path class="cls-88" d="M58.56,120.92c-1,1.06-.21,2.39-.55,3.55a103.11,103.11,0,0,1-1.84-11.7c.24.17.63.54.7.49.52-.38.13-1,.26-1.46a.71.71,0,0,1,.86.63C58.15,115.26,59.5,118,58.56,120.92Z"/><path class="cls-89" d="M59.1,139.14c1.51-.23,1.51,1.37,2.35,2,.3,1,1.36.45,1.89,1l-.52,1.06C60.39,142.91,59.84,140.94,59.1,139.14Z"/><path class="cls-89" d="M63.79,143.5,69.7,143c-1.83,1-3.82.87-5.8.78A2,2,0,0,0,63.79,143.5Z"/><path class="cls-90" d="M39.82,139.66c1.72-.59,3.78-.25,5-2.09a1.4,1.4,0,0,1,2-.09c1.36,1.34,2.43.61,3.57-.24.68,1.52.71,2.35-1.46,2.55C45.88,140.08,42.86,140.49,39.82,139.66Z"/><path class="cls-90" d="M36.47,136.3c.53-.26,1.18-.45,1.3.32.19,1.11,1.18,1.63,1.56,2.57C37.78,138.82,37.15,137.54,36.47,136.3Z"/><path class="cls-41" d="M61,137.22a11.72,11.72,0,0,1,.5-4.85c3-.88,3.17-1.16,3-4.24.17-.91-.67-1.41-.86-2.13s-.77-1.92.95-1.5c.14,0,.39.19.39.17a1.7,1.7,0,0,0-.16-.69,3.49,3.49,0,0,1-.17-2.32c.53-1.51,1.76-1.89,2.89-.77a6.25,6.25,0,0,0,2.27,1.63c.93.35,1,1.19,1.19,2.12.23,1.47-.72,3.1.53,4.44h1.92a7.64,7.64,0,0,0-1.68,3.85,3,3,0,0,1-2.16,2.36,7.28,7.28,0,0,0-3.56,3c.83-1.95,2.11-1.7,3.11-.5,1.15,1.37,2.94.63,4.12,1.6l.18.29c-2.41,1.82-5.29,2.32-8.15,2.86-.53-1.32-2.55-1.78-2.16-3.65.22-.23-.23-.11-.23-.06,0,1-.75.95-1.46.84h0C60.83,138.92,61.62,137.93,61,137.22Z"/><path class="cls-91" d="M61.44,139.64c.87-.38,1.68-.83,1.62-2.08.45,1.62.39,3.19,2.51,3.66,1.19.27-.23.82-.28,1.29a3.27,3.27,0,0,1-2-.46c-.73-.11-1.75.32-1.89-1,.36.07.73.58,1,.21a.61.61,0,0,0-.4-.89C61.59,140.31,61.42,140.09,61.44,139.64Z"/><path class="cls-41" d="M75.36,138.21c-.62.51-1,1.32-1.92,1.44v0c-.34-.69-1-1.27-.69-2.18a.91.91,0,0,1,1.09-.43,5.61,5.61,0,0,1,1.52,1.17Z"/><path class="cls-92" d="M16.31,40.28c.54,0,1.11-.07,1.47.49,1.13.93,1.19,1.82.17,3s-2.35,2-.59,3.9c.92,1-1.36.39-1.52,1.3h-.49c-.15-1.81-.65-3.35-2.75-3.72l-.16-.15c.24-1.23,1.11-2.17,1.45-3.35a2.36,2.36,0,0,1,.11-.44A2.9,2.9,0,0,1,16.31,40.28Z"/><path class="cls-64" d="M16.31,40.28a2.35,2.35,0,0,1-2.31,1c-.09-1.5,1.23-2.25,1.83-3.38a1.48,1.48,0,0,1,1.53-.47c2.36.9,3.76-.65,5.27-2a2.37,2.37,0,0,1,.78-.59c.92.21,2.33-.19,2,1.59-1.85.83-2.79,2.64-4.27,3.87h0c-1.26.22-2.48.27-3.42-.81C16.07,37.6,16.45,39.41,16.31,40.28Z"/><path class="cls-93" d="M23,35.5c-1.29,1.65-2.34,3.7-5.09,2.55a6.63,6.63,0,0,0-2.11-.17c0-.31,0-.62,0-.92l1-.51A2.08,2.08,0,0,0,17.25,35c0-.15,0-.29.05-.44l1.36-1.48.27.19C19.46,35.51,20.94,36.06,23,35.5Z"/><path class="cls-94" d="M10.59,48.47a11.32,11.32,0,0,1-2.06,5.46c-.4.44-.87,1.27-.71,1.68,1.16,3-1.44,1.9-2.51,2.45-.16-.09-.22-.2-.18-.32s.08-.18.13-.18a18.7,18.7,0,0,0,3-6.23C9.52,50.81,9.57,49.23,10.59,48.47Z"/><path class="cls-95" d="M13.89,41.7c.39,1.49-.69,2.35-1.45,3.35H12A5.8,5.8,0,0,1,13.89,41.7Z"/><path class="cls-96" d="M75.37,36.9l.95,0c.48,2.65,2.25,4.63,3.62,6.81,1.62,2.58,3.29,5.14,4.94,7.71a1.48,1.48,0,0,1-1,.34,2.39,2.39,0,0,1-2.33-1.74c-.19.9.17,2.21-1.45,1.88a1.76,1.76,0,0,1-.52-.85c-1-1.48.87-3.63-1.06-4.82S77,43.07,76.21,41.5a6.5,6.5,0,0,1-.6-1.59C75.35,38.92,74.47,38,75.37,36.9Z"/><path class="cls-97" d="M84,51.33l.88.12.53.88c0,1.27,1.58,2.51,0,3.79l-1.93,0a1.31,1.31,0,0,1-.86-.66C81.8,52.82,82,52.38,84,51.33Z"/><path class="cls-98" d="M85.45,56.12c.61-1.27-.16-2.52,0-3.79.49.94,1,1.88,1.48,2.82A1.08,1.08,0,0,1,85.45,56.12Z"/><path class="cls-6" d="M52.34,85.4l-.05,5.76c-.84,2-.71,4.13-.7,6.23A11,11,0,0,1,51,99.92c-.29.57-.63,1.28-1.38.54-1.25-1.22-1.73,0-2.42.67a1.73,1.73,0,0,1-.75.74.55.55,0,0,1-.58-.34,1.42,1.42,0,0,1,.22-1.73,1,1,0,0,0,.49-1,2.82,2.82,0,0,1,.81-2c.65-.68.72-1.72,2-2.11,1-.31.68-1.62.29-2.54-.29-.65-1-1-1.13-1.79-.09-1.14-.29-2.17-1.85-1.78a1.8,1.8,0,0,1-.61-.18l-1.22-.92-.18-.24c-.05-.7.14-1.43-1.13-1.15-3.07.65-4.17,2-4.47,5.15a28.06,28.06,0,0,1-1.68,6.32c0-2.49-2.54-4-2.31-6.47a9.45,9.45,0,0,0,0-4.81c-1-1.52-.26-3.21-.46-4.81a3.88,3.88,0,0,1,3.85-1.26c-.66-3.11-2.29-6.12.9-8.59.37-.55.59-1.27,1.43-1.29A16.82,16.82,0,0,1,42.45,72a1.66,1.66,0,0,1-.18,2c-.91,1-.85,2.18-1,3.32,1-1.29,1.88-1.12,2.54.32a4,4,0,0,1,0,3.25A1.88,1.88,0,0,0,44,83.09c.38.36.92.12,1.38.16-.29,0-.61,0-.8-.32a.8.8,0,0,1,.1-1.09c.7-.68.16-1.52.33-2.26a1.84,1.84,0,0,1,.61-.38,4.2,4.2,0,0,1,2.14,0c1,.55,2,1.35,1.74-.93-.18-1.62-.09-3.19-1.48-4.33-.16-.18-.45-.38-.42-.55.43-3.3-.71-6.82,1.36-9.89.62-.26.2-.85.38-1.25.61-.58.95-1.39,1.55-2,.57-.42.58-1.1.78-1.69s.46-1.24,1.26-1.19a1.79,1.79,0,0,1,1.46,1.09,5.73,5.73,0,0,1,.31,4c-1,3.72,0,7.13,1.41,10.49h0c1.06,1.27-.16,2.35-.29,3.52-.12,1-.81,1.86-.91,2.89a3.82,3.82,0,0,1-.05.68,1.11,1.11,0,0,1-1.13.59c-.77-.46-.3-1.33-.79-2.23A27.85,27.85,0,0,0,52.34,85.4Z"/><path class="cls-99" d="M46.07,101.72h.48c.77-.07.77.49.62.92-.72,2.1-.24,4.28-.49,6.4-.21,1.77.66,1.62,1.8,1.32-.15,1.85.56,3.86-1.17,5.39-.34.3,0,1,.25,1,2.29-.28,1,1.08,1,2,0,1.49,1.31,2.71.9,4.33-.19.73.29,1.62-.55,2.19-.76-1.43-1.62-2.77-3.29-3.3,1-3.67.24-7.36-.71-10.78a15.07,15.07,0,0,1-.2-5.73,24.2,24.2,0,0,1,.89-3.67A.29.29,0,0,1,46.07,101.72Z"/><path class="cls-100" d="M39.83,72c-2.59,1.75-1.67,4.23-1.45,6.62.11,1.11,1,1,1.85,1.39-1.88,1.3-3.94.88-5.66,1.59,0-.63,0-1.27,0-1.91.71-.5.41-1.25.48-1.92a8.69,8.69,0,0,1,0-6c.58-1.71.34-3.63,1.47-5.2.4-.56.51-1.37,1.46-1.27h.47a4,4,0,0,1,1.66,1.42,1.6,1.6,0,0,1,.05.65.8.8,0,0,1-.43.47c-.88-.09-1.77-.14-2,1a2.21,2.21,0,0,0,.76,2.31C38.85,71.45,39.46,71.5,39.83,72Z"/><path class="cls-101" d="M48.48,110.36c-1.09.11-.7,2.19-1.87,1.69s-.49-1.85-.51-2.82a26.67,26.67,0,0,1,.45-7.51v-1c1.24-.63,2.2-.64,2.15,1.12-.05,1.93,1.62,3,2.17,4.64A4.12,4.12,0,0,1,48.48,110.36Z"/><path class="cls-102" d="M42.75,93.6c-.8-.8-3.33-1.48-.16-2.54.79-.27.54-1,.61-1.62.11-1,.22-1.91,1.43-2.12h0c.42.4,1.06.48,1.43,1h0c2.16,1.43,2.36,2,1.52,4.59a2.24,2.24,0,0,1-.54.48,3,3,0,0,1-1,.26c-1,0-2,.06-3,0Z"/><path class="cls-99" d="M50.88,106.52c-1.63-1.14-2.88-2.47-2.58-4.7.21-1.56-1.06-.87-1.74-1.06.42-1.07,1.95-.89,2.27-2.34l1.27,2c.46-.93.85-1.75,1.25-2.58a6.69,6.69,0,0,1,0,3.84v1a6.69,6.69,0,0,1,0,3.84h-.47Z"/><path class="cls-103" d="M45.61,121.9c2.61-.41,3.29,1.11,3.29,3.3h0a2.77,2.77,0,0,1-2.51,2.68,1.92,1.92,0,0,1-2-1.25,3.45,3.45,0,0,1,.76-4.27Z"/><path class="cls-104" d="M45.11,122.37a5.33,5.33,0,0,0-.32.63c-.55,1.53-1.21,3.29.61,4.21s2.63-.79,3.51-2c.88,1.47.51,3.09.45,4.64A1.67,1.67,0,0,1,48,131.36c-.89.22-1.13-.45-1.52-1.11-.66-1.11-1.64-2-2.33-3.12C43,125.31,43.57,122.89,45.11,122.37Z"/><path class="cls-105" d="M42.23,96.52c-.95-1.18.3-2,.52-2.92v0a4.31,4.31,0,0,1,4,.32,3.44,3.44,0,0,1-.39,4C44.41,99,43.25,98,42.23,96.52Z"/><path class="cls-106" d="M37,109.4l.46-.52c1.68-.66,2.82-.19,3.34,1.59.54.83-.2,1.49-.38,2.19s-1,.83-1.78.83c-1.5,0-1.22-1.37-1.67-2.18Z"/><path class="cls-107" d="M46.05,97.79a5.34,5.34,0,0,0,.47-3.64c-.17-.35-.74-.52-.45-1.06h1c2.25,1.21,1,2.81.48,4.32-.8.16.26,1.55-.95,1.44H45.11C44.82,97.94,45.92,98.31,46.05,97.79Z"/><path class="cls-107" d="M46.07,101.72h-.48c-.88-.28-2.58.66-2.56-.69,0-1.83,1.9-1,3-1.23Z"/><path class="cls-108" d="M36.94,111.31c.72.61.59,2.13,2.07,1.9s1.34-1.72,1.76-2.74c.45,2.18,0,3.1-1.81,3.35C36.87,114.12,36.82,112.79,36.94,111.31Z"/><path class="cls-109" d="M46.05,97.79l-.94,1c-1.65.09-2.71-.56-2.88-2.31A4.19,4.19,0,0,0,46.05,97.79Z"/><path class="cls-37" d="M35,86.36c1.28,1.6.48,3.2,0,4.81C35,89.56,35,88,35,86.36Z"/><path class="cls-66" d="M14.9,66.21c0,.3,0,.61-.05.91-1.11,2.56-3.09,1.19-4.79,1.06l-.5-.51c-.41-.46-.18-1-.08-1.42-.78-.87-3.12-.76-1.81-2.91,1.18-.78.95,1.33,1.94.94,1,.12,2.07,0,2.25,1.41.11.86.85.56,1.28.37A1.83,1.83,0,0,1,14.9,66.21Z"/><path class="cls-110" d="M10.08,66.2c-.17.49-.34,1-.52,1.47-1.67-.44-3.41-.72-4.76-2,0-.12-.09-.24-.13-.35a1,1,0,0,1,.54-.5C7.07,64.45,8.4,66,10.08,66.2Z"/><path class="cls-27" d="M5.26,57.56c0,.17,0,.34,0,.5a1.75,1.75,0,0,0,0,.46,2.76,2.76,0,0,1-.19,1.27A7.32,7.32,0,0,0,4.42,62c-.48.77-1,1.41-2,.8C2.46,60.58,4.1,59.21,5.26,57.56Z"/><path class="cls-110" d="M2.38,62.82c.85.1,1.27-.67,1.93-.94.73,1,1.53,2,.51,3.33l0,0c-.71.14-1.18-.68-1.91-.48C2.09,64.27,1.48,63.74,2.38,62.82Z"/><path class="cls-27" d="M2.87,64.77c1.07-1.52,1.39-.15,1.91.48,0,.16,0,.32,0,.47C3.86,66,3.46,65.2,2.87,64.77Z"/><path class="cls-111" d="M71.51,129.08c-1.33.93-1.72,0-1.29-.93.64-1.36-.33-2.67.23-4a.84.84,0,0,0-.61-1.12c-1.46,0-2-1.09-2.86-2-1.14-1.26-1.56.1-1.94.91s.29,1.35.37,2,1.15,1.31.18,1.82c-.78.42-1.09-.63-1.55-1.13-1,1.52,2.2,1.85.92,3.42-2.57-1.3-3.06-1-3.44,1.8-.07.55,0,1.12-.5,1.53a13.2,13.2,0,0,1-1.51-6.69c.24-3.33-1.18-6.57-.68-9.88.41-2.64-.46-5-1.18-7.41s.05-3.3,2.05-4.09c-.4-.54-1.3-.69-1.19-1.54.31-.47.81-.42,1.28-.43.85,0,1.63-.2,1.82-1.17s-.41-1.48-1.13-1.91c-.47-.28-1-.39-1.41-.86.93-1.38,2.45.33,3.64-.71.39-.33.27,1,.22,1.57,1.12-1.48,1.12-1.48-.53-2.38a1.15,1.15,0,0,1-.49-1c-1.26-1.44-1.79-2.65.87-3,.6-.06.91-.54,1.14-1,1.26-.18,2.41.52,3.66.48a1.15,1.15,0,0,1-.84,1c-.75.22-1.93-.09-2,1.08s1,1.13,1.83,1.53a17.91,17.91,0,0,1,3.92,3.15,1.77,1.77,0,0,0,1,.57,3.55,3.55,0,0,1,.53,4.3l1,3.36c-.11.13-.28.31-.38.26-3.12-1.53-3.9,1.1-5.16,2.89a9,9,0,0,1-.55.78c-.44.45-.3,1-.29,1.53,0,1.58-.77,1.59-1.92,1,.39.88,1.34.63,2,1a8.83,8.83,0,0,0,2.26,1,2.2,2.2,0,0,1,.2.23c-2.08.91-1.45,2.1,0,2.67,1.27.5,1.31,1.18,1.47,2.27.33,2.21.91,4.39,1.39,6.58-.13,1.23,1.2.27,1.43.95l0,0C72.8,128.13,72.16,128.61,71.51,129.08Z"/><path class="cls-112" d="M66.67,110.31c.06-1.84,2.21-2.58,2.32-4.51.05-.69,1.23-.47,1.89-.18s1.17,1.14,2.1.89a1,1,0,0,1,.46,1,48.76,48.76,0,0,1,0,6.73c-1.41.45-2.39,2.84-4.32,1h0c-.34-.57-1.58.22-1.51-1,.54-.57,1.29-.5,2-.61,1.08-.17,1.79-.72,1.69-1.87s-1.12-1.58-2.23-1.61c-.72,0-1.35.42-2.08.41Z"/><path class="cls-113" d="M73.43,114.2c-1.2-2.25-.45-4.49,0-6.73a8.25,8.25,0,0,1,1,4.33c.73,2,.63,4.16.92,6.25,0,.16,0,.33,0,.5-.7.18-1.93,1.53-1.27-.86C74.26,116.88,73.33,115.45,73.43,114.2Z"/><path class="cls-14" d="M72,103.15c-.17-1.43-.35-2.87-.53-4.3,0-.64,0-1.28,0-1.92s0-1.28,0-1.92l1,1.44c.1.67-.11,1.41.41,2A1.37,1.37,0,0,0,72.8,100C73.66,101.3,73.26,102.33,72,103.15Z"/><path class="cls-30" d="M75.33,118.05a27,27,0,0,1-.92-6.25C75.68,113.74,75.47,115.9,75.33,118.05Z"/><path class="cls-114" d="M85.42,60.43a5.51,5.51,0,0,0-3.63.74c-1.57,1.08-2.6.59-3.56-.73a2.41,2.41,0,0,1,1-1.23,5.31,5.31,0,0,0,5.26-2.52c1.18.25,1.79,1.39,2.83,1.86C87.11,59.59,85.13,58.83,85.42,60.43Z"/><path class="cls-115" d="M84.53,56.69c-.68,3-2.75,3.39-5.33,2.81-.17-.64.3-.88.73-1a2.17,2.17,0,0,0,1.68-2.21c.29-.6.6-1.17,1.41-.66l.5.49C83.73,56.55,84.14,56.6,84.53,56.69Z"/><path class="cls-116" d="M25.43,36.45C25.29,35.3,24,35.76,23.52,35c-.62-.45-.44-1.27-.86-1.82-.06-.07-.12-.15-.19-.22L22,32.55c-1.19-1-1.87.06-2.68.63a.59.59,0,0,1-.61-.08l-.09-.05c-.1-1,.55-1.62,1.05-2.33,1.52-.5,2.91-.66,2.6-3.17-.2-1.59,1.34-3.39,2.1-5.1.38.22.46.62.62,1,.78,1.87,2.33,2.15,3.47.53a2.8,2.8,0,0,1,1.72-1.13c.77-.19,1.44.15,1.08,1a17.85,17.85,0,0,0-.73,3c-.45,1.75-2,2.34-3.68,1.48a10.34,10.34,0,0,0-1.4-.42c.67.75,0,3.06,2.37,1.87.57-.28.84.37,1,.8.29,1.06,1.16,1.71,1.7,2.59a1.78,1.78,0,0,1,0,1.36c-.51.56-.64,1.56-1.7,1.47-.26-.36-.48-1-.78-1-.56-.09-.56.57-.72,1a4.81,4.81,0,0,0-.36,2.51c0,.29-.05.58-.08.87l-.41.09C25.08,38.75,26.1,37.31,25.43,36.45Z"/><path class="cls-64" d="M17.25,35c.91.81.07,1.09-.44,1.48C16.77,35.9,16.72,35.35,17.25,35Z"/><path class="cls-117" d="M49.43,63.32c-2,2.78,0,6.28-1.62,9.16-.14.26.43.93.67,1.4.54,1-.18,1.3-.86,1.45a15.07,15.07,0,0,0-2.39.85c-1.27.26-1.88-.42-2.26-1.52-.31-.88-.21-1.88-.74-2.7-1.17.14-1.49-.55-1.5-1.54a1.45,1.45,0,0,1-.43-1,2.13,2.13,0,0,1,.3-1.35,5,5,0,0,1,1-.63c1.8-1.3,1.74-2.3-.2-3.86a2.88,2.88,0,0,1-.13-.31c0-.31,0-.63,0-1,2.86,2,2.84-1.43,4.15-2.3.36-.24.38-1,1.11-.58A1.64,1.64,0,0,1,47,61c0,.4-.45.93.33,1.11C48,62.58,48.88,62.7,49.43,63.32Z"/><path class="cls-118" d="M46.56,61.4c0-.64,0-1.28,0-1.92.33-1,.66-1.91,1-2.86.68.05,1.42-.2,2,.44a1.42,1.42,0,0,1-.49.84c-1.53.8-.52,2.65-1.51,3.67A.76.76,0,0,1,46.56,61.4Z"/><path class="cls-117" d="M44.57,59.62c-.06,1-1.15.89-1.67,1.4-.19.18-.65-.38-.6-.8.09-.72.28-1.47,1.12-1.6C44,58.53,44.43,59,44.57,59.62Z"/><path class="cls-119" d="M37.92,65.24c-1.35,1.69-1.5,3.67-2,5.7A35,35,0,0,0,35,77.72c-1.39-1.69-1.38-7.46.07-9.61A3.6,3.6,0,0,0,36,66c0-.54-.83-1.26.21-1.6A1.36,1.36,0,0,1,37.92,65.24Z"/><path class="cls-119" d="M39.84,66.68c-.62-.34-1.43-.49-1.45-1.43,1-.67,1.24-2.3,2.88-1.94v0A2.63,2.63,0,0,1,39.84,66.68Z"/><path class="cls-42" d="M73.92,119.94c-.48.67-.79,1.48-1.57,1.91C72.4,120.82,72.76,120.05,73.92,119.94Z"/><path class="cls-42" d="M75.38,120.91l-1,.32,0-1.26C75,120,75.4,120.23,75.38,120.91Z"/><path class="cls-39" d="M73.42,127.63c-.53-.23-1.81.65-1.43-.95C72.4,127.11,73.33,126.73,73.42,127.63Z"/><path class="cls-111" d="M73,137.72c-.17.72,1.13,1.07.48,1.91-1.08-.7-2.35.33-3.41-.35s-1.47-1.87-2.91-2.08c-.06.85,1,1.79-.41,2.21-.84.24-1.11-.25-1.47-.82-.73-1.16.27-1.22.92-1.62,1.34-.82,2.23-2.22,4-2.59.87-.17,1.36-1.38,1.34-2.36a3.06,3.06,0,0,1,2-2.94c1.37.55.38,1.17-.09,1.36-1.19.48-.85,1.4-.81,2.21a1.63,1.63,0,0,0,.91,1.56c.69.28.93-.43,1.35-.74s.77-1.05,1.53-1c-.18.94,1.11.78,1.22,1.73-3.5-.16-1.61,2.56-2.19,4-.7,0-1.39,0-1.44-.94a6.87,6.87,0,0,0-1.51-1.62C72.73,136.38,72.66,137.09,73,137.72Z"/><path class="cls-120" d="M73.92,125.49c-.43-.06-.45-.39-.44-.7s0-.69.44-.69.43.38.44.69S74.35,125.43,73.92,125.49Z"/><path class="cls-121" d="M55.68.9a8.17,8.17,0,0,0,2.69,3l1.68,2.78-1,.51c-.58.29-.75.89-1.06,1.39a4.09,4.09,0,0,1-1.91,2.22A.9.9,0,0,1,55,10.21c-.14-1,.53-1.58.9-2.33a2.43,2.43,0,0,0,.23-2.41c-.22-1.28-1.46-2.15-1.43-3.53-.18-.48-1-.75-.46-1.45Z"/><path class="cls-122" d="M82.07,56.6c.52,2.43-1.79,2-2.87,2.9a.88.88,0,0,1-1,.94l-1.39-1q-1.25-2.62-2.47-5.25a1.06,1.06,0,0,1,1.07-.76,1.77,1.77,0,0,1,1.3,1.07C77.85,57.42,78.69,57.75,82.07,56.6Z"/><path class="cls-123" d="M48.47,6.67l1-1c2-1.55,4.11-2.06,6.46-.85a1.65,1.65,0,0,1,.45.5c.19.65.43,1.31-.23,1.86-1.16,0-1.27,1.66-2.49,1.58-1.07-.48-.94-1.46-1-2.44-.73,1-1.34,2-.3,3.11a.85.85,0,0,1-.07,1.26,1.91,1.91,0,0,1-1.65.13c-1.46-1.08-3,.38-4.45-.08-1,0-1.51-.79-2.2-1.28a7.45,7.45,0,0,1-1.35-.88.45.45,0,0,1,.15-.56l1.92-.36c0,1,.85,1,1.41,1.38A3.72,3.72,0,0,0,48.47,6.67Z"/><path class="cls-47" d="M42.74,8.07v.48A11.08,11.08,0,0,0,40,11.43c-1.38,1.67-3.09,1.72-5,1l-1-.9c.45-.59,1.09-.54,1.72-.57.26,0,.76.38.71,0-.1-.57,1-.82.21-1.61S34.82,8,35,6.7l0,0c1.08.12,1.76,1,2.62,1.46C39.08,9,40,8.76,40.37,7Z"/><path class="cls-124" d="M30.22,33.09A2.81,2.81,0,0,1,28.3,30c-.78.43-1.12,1.37-2.14.79-.73-.42-1.09-.81-.8-1.67s-1-1.47-.42-2.42c.69.74,2.08.09,2.55,1.37.19.51.83.49,1.23.14.7-.6,1.78-1.13,1.43-2.25s.37-1.75.88-2.55c-1.18.15-1,.28-2,1.33a3.43,3.43,0,0,1-2.48.87c-.82,0-2-.23-2.1-1.53,0-.56-.06-1.11-.09-1.67,0-.3.05-.59.07-.89a.47.47,0,0,1,.6,0,2.38,2.38,0,0,1,.41,1.09c.17.89.4,1.9,1.6,1.39,1-.44.83-1.39.41-2.23-.2-.43-.53-.78-.71-1.22A.67.67,0,0,1,27,20a1.35,1.35,0,0,1,1-.15c.82.42,1.92.6,1.63,1.49a1.71,1.71,0,0,1,1.81-1.5c1.16,0,1.64.74,1.65,1.84A1.51,1.51,0,0,0,33.41,23c.41.56,1.13.89,1.29,1.64a1,1,0,0,1-.62.7,2.52,2.52,0,0,1-.9.17c-2.31,0-1.57.95-.56,1.94l.47.44c.37.39.94.54,1.2,1.05a1.23,1.23,0,0,1-.6,1.44C31.46,29.89,31.22,32,30.22,33.09Z"/><path class="cls-125" d="M27.82,20.1,26.88,20c-.87-.06-1.49-.31-1-1.36l.48-1,1.43-1.93c1.12.57,1.52,1.37.58,2.37C27.84,18.75,28.12,19.49,27.82,20.1Z"/><path class="cls-116" d="M25.91,18.68c-.07.74.61.94,1,1.36l0,.11a5,5,0,0,1-1.95,1.4h-.43A5.1,5.1,0,0,1,25.91,18.68Z"/><path class="cls-125" d="M34.65,24.52c-.61-.4-1.5-.52-1.52-1.52.12-.65,1.52-.07,1.15-1.2.24-1.49,0-2.56-1.9-2.15a8.53,8.53,0,0,1-1.43,0c-.72,0-1.62.08-1.78-.79-.2-1.16.89-1.1,1.62-1.26,1.57-.35,2.93-.77,1.49-2.74a7.84,7.84,0,0,1-1.06-1.17c-.4-.82-1.51-.56-2-1.28.42-.7.05-2,1.49-1.91,1.29.35,1.89,1.85,3.32,2,.53.64,1.77-.37,2,.87a.92.92,0,0,1-1.1.2c.29.39.69.12,1,.05a2.6,2.6,0,0,1,2.2.08c-.24,1.14-.24,1.14-1.89,1.41.69.57.58,1.41.8,2.13s-.19,1.61.14,2.38a3.87,3.87,0,0,0,.35.45,2.07,2.07,0,0,0,1.88.41c1.23-.9.88-1.78,0-2.64a1.46,1.46,0,0,1-.76-1.11.87.87,0,0,1,.34-.64,3,3,0,0,1,1.87-.25,1.88,1.88,0,0,1,2,2.06,11.71,11.71,0,0,1-.19,3.69c-.7.37-1.46.73-.23,1.42a2,2,0,0,1,.47,1.57c-.86,2-1.87.14-2.82.11C38.28,24.12,36.43,25.66,34.65,24.52Z"/><path class="cls-116" d="M32.6,14.38c1.45,1.39,1.46,2.4.07,3.15a3.43,3.43,0,0,1-1.49.67c-.53,0-1.12-.14-1.68.4.68,1,1.71.57,2.51.52,3.57-.22,3.57-.26,2.55,2.92a1.32,1.32,0,0,1-1.93,0c0-.92-.08-1.93-1.29-1.8-.79.09-1.72.55-1.17,1.73.12.26.14.44-.14.48-.43.06-1-.21-.92-.53.33-1.22-.95-1.16-1.29-1.82s-.95-1.45-.18-1.91c1.36-.83.52-1.58.18-2.4.25-1.22,0-2.65,1.43-3.38.84.26,2.09-.55,2.43,1-.33.43-.84.31-1.28.42-1,.26-1,1.08-.92,1.88a1.12,1.12,0,0,0,1.05,1.07c.87.16,1.3-.33,1.47-1.13A2.2,2.2,0,0,1,32.6,14.38Z"/><path class="cls-126" d="M35,6.7c.36.76,1.3,1,1.62,1.69s1.58,1.23,1.19,2a2.06,2.06,0,0,1-2.36,1.14,4.91,4.91,0,0,0-1.43,0c-1.54-.35-1.65-1.89-2.39-2.9C32.06,6.73,33.41,6.47,35,6.7Z"/><path class="cls-127" d="M36.05,13.34c-.5-.65-1.52-.16-2-.88l1,0c1.61-.41,3.57.3,4.79-1.43a.81.81,0,0,1,1-.1,1,1,0,0,1,.13.68,4.55,4.55,0,0,1-3.21,2C37.17,13.55,36.54,13.88,36.05,13.34Z"/><path class="cls-128" d="M56.15,10.52l1.47-2.36a2.21,2.21,0,0,1,1.88,0l3.82,5.3c1.07,1.12.76,3.1,2.41,3.86a5.88,5.88,0,0,0,1,2.38c-.22,1.28,1.24,2.05,1,3.33a.88.88,0,0,1-1.23-.39c-.69-2.13-2.52-3.1-4.15-4.31a2.37,2.37,0,0,1-.74-2.61c.58-2.28-.8-.87-1.46-.82-1.32-.1-1.85,1.2-2.86,1.65-.55.06-1-.35-1.47-.44-1.73,1.58-4.37,1.75-5.82,3.76-1.19.69-1,1.77-1,2.9.12,1.9.53,3.86-.57,5.67-1.12-.53-1-1.58-1.53-2.24-.91-2.56-.21-5.46-1.69-7.9a30.29,30.29,0,0,1-.74-4.64c-.06-2.5.58-2.95,2.95-2,.29.11.59.21.89.3,1.75.79,3.39,0,5.06-.36A13.89,13.89,0,0,0,56.15,10.52Z"/><path class="cls-129" d="M65.73,17.28c-.57.17-1.3,1.33-1.57-.3-.21-1.2-.56-2.37-.84-3.56.54.25.73,1,1.46,1C65.1,15.36,65.41,16.32,65.73,17.28Z"/><path class="cls-130" d="M59.5,8.12a1.58,1.58,0,0,1-1.88,0c.42-.41.16-1.78,1.42-1Z"/><path class="cls-131" d="M56.16,15.32l1,1a1.2,1.2,0,0,1,.32.86c0,1.17.54,1.86,1.76,1.52a1.73,1.73,0,0,0,1.32-2.35c-.19-.66-.87-1.16-.65-2,1.92-1,2.19-.85,2,1.4a2.81,2.81,0,0,0,1.86,2.95c1.47.58,2.45,1.23,2.57,2.93,0,.62.68,1.05,1.3,1.31h0a6.92,6.92,0,0,0,.92,1.94,3.41,3.41,0,0,1,0,.46c.14,1,1.31,1.39,1.4,2.42l0,1a.81.81,0,0,1-.61.06c-1.81.15-2.09.69-1.26,2.5a3.68,3.68,0,0,1,.64,1.51c-1,3,0,5.08,2.88,6.34a1.36,1.36,0,0,1,.6,1,5.48,5.48,0,0,1-.89,2.92,2.72,2.72,0,0,0,.07,3.31c.77,1,.68,1.92-.6,2.48h-.33a24.44,24.44,0,0,0-3.8-8.66c0-.32,0-.64,0-1A26.19,26.19,0,0,0,65.27,36h0c-.81-1.93-1.89-3.83-.92-5.43-.31,1-.31,1-1.49.63l-2.28-5.36a4,4,0,0,0-.12,3.91,12.91,12.91,0,0,0-.83,3.13c-.3,1-.59,1.95.79,2.52.67.28.64,1.22,1,1.82-.28,1.47,1.54,3.42-1,4.39a1.25,1.25,0,0,1,.67.89c-.07.6-.53.76-1,.92a11,11,0,0,0,2-.41.56.56,0,0,1,.46.41,4.79,4.79,0,0,1-1.4,3.71c-.81-.14-.7-1.05-1.21-1.44-1.06-1.16-2.09-.4-3.12.07a.76.76,0,0,1-.52-.39,8,8,0,0,0-1.91-5.59c-1.5-2-1.24-4.63-.68-7.06-.48-1.35-.54-2.78-1.38-4.08-1.08-1.68.47-3.3.78-5,.1-.56.68-1,.4-1.73a11.27,11.27,0,0,0,.49-4.16C54.83,17,55.39,16.08,56.16,15.32Z"/><path class="cls-132" d="M69.59,28.74a1.63,1.63,0,0,0,.44.08l1.4,1.89a.79.79,0,0,1,.36.62c-1,2.67-1.59,3-3.6,1.66-.09-.48,0-1-.48-1.36C67.19,29.42,67.51,28.93,69.59,28.74Z"/><path class="cls-128" d="M70.06,27.81c-.17-1-2.35-.8-1.4-2.42A2.31,2.31,0,0,1,70.06,27.81Z"/><path class="cls-51" d="M71.49,31.16a3.47,3.47,0,0,1-.06-.45c1-.07,1.16.79,1.52,1.41l0,.06c-.21.44-.52.67-1,.44C71.42,32.23,71.89,31.58,71.49,31.16Z"/><path class="cls-128" d="M68.61,24.93A1.7,1.7,0,0,1,67.69,23,2.64,2.64,0,0,1,68.61,24.93Z"/><path class="cls-133" d="M75.37,36.9c-.2,1.15.68,2,.87,3A1.14,1.14,0,0,1,75,39.71c-.37-.28-.75-.54-1.14-.79-2.53-1.64-2.61-2.16-.69-4.74l.3-.16C74.05,35,75.2,35.63,75.37,36.9Z"/><path class="cls-133" d="M72,32.57l.89-.39A2.94,2.94,0,0,1,73.45,34l0,.06c-.39.6-.92,1-1.52.39S71,33.13,72,32.57Z"/><path class="cls-134" d="M55.67,5.24c-2.18-1.19-4.18,0-6.23.48a5.5,5.5,0,0,1,3.88-3.36C55.16,2.46,56,3.39,55.67,5.24Z"/><path class="cls-135" d="M48.47,6.67c-.27,1.33-.11,3.09-2.4,2.42C45.76,7.18,47.65,7.46,48.47,6.67Z"/><path class="cls-136" d="M55.67,5.24a3.35,3.35,0,0,0-2.35-2.88c.3-.66.84-.51,1.36-.42.78,1,1.74,2,1.91,3.32-.15.22-.29.21-.42,0Z"/><path class="cls-137" d="M61.43,53.24H58.56c-.81-1.58-2.39-.67-3.56-1.11a.87.87,0,0,1-.41-.49c0-1.94-1-2.8-2.68-2.34a4,4,0,0,1-1.61.13c-1.71-.53-1.91-2.16-1-3,2.26-2.1.2-2.68-.93-3.67a1.41,1.41,0,0,1-.13-1.32c.5-.66,1.21-.45,1.88-.44,1,.84,1.65,2.34,3.46,1.81.54-.16,1,.44,1.17,1a5.39,5.39,0,0,0,1.58,2c.69,1.25,1.3,2.62,3.11,2.44.77.24,1.59-1,2.34.06A2.31,2.31,0,0,1,62,49a2.44,2.44,0,0,1-2.13,3.1,4.19,4.19,0,0,1,1.63.54A.46.46,0,0,1,61.43,53.24Z"/><path class="cls-58" d="M65.27,57.56c-.86.64-.21,1.66-.62,2.41-.1-.1-.29-.2-.29-.3-.07-1.61-1.69.62-1.92-.8-.16-1.06.71-1.76.68-2.72,0-.15-.28-.4-.46-.42-1.07-.13-2,.52-3,.74-1.56.34-.69,1.33-.77,2.19A17.6,17.6,0,0,0,60,67.25c-2-.66-1.25-2.29-1.65-3.62l-.88,2V61c-.67,0-.19.77-.56,1a.24.24,0,0,1-.2-.07,3.9,3.9,0,0,1-.12-.46c-.74-.74-.87-1.81-1.51-2.62-1.1-1.4-.88-2.37,1-2.65l0,0c1.8-.46.08-.94,0-1.41a.61.61,0,0,1,.93,0c2.08-.58,4.16-.14,6.24,0l1.45.5C65.35,55.89,65.91,56.61,65.27,57.56Z"/><path class="cls-137" d="M54.71,52.76h-.47c-.54.52-1.46.27-1.94.94l-2.37.51a1.63,1.63,0,0,1-1.41.12c-.53-.83-.14-1.62.1-2.41.72-.57,1.52-1.08,1.69-2.09,1.61.35,2.65,1.94,4.4,2h0A.63.63,0,0,1,54.71,52.76Z"/><path class="cls-58" d="M54.71,52.76c0-.32,0-.63,0-.95a7.09,7.09,0,0,0,2.08-.17c1.79-.71,1.78.39,1.76,1.59C57.26,53.23,56,52.52,54.71,52.76Z"/><path class="cls-74" d="M57.11,54.68l-.93,0c-.68-.11-1.42.2-2.15-.36,1.25-1.12,2.69-.4,4.34-.7Z"/><path class="cls-58" d="M48.47,54.2l1.46,0c-.69.77-1.6.35-2.42.45v-.5a1.32,1.32,0,0,1-.1-1.38C48.73,52.52,48.1,53.74,48.47,54.2Z"/><path class="cls-58" d="M52.3,53.71c-.14-1.94,1.36-.49,1.94-.94A1.69,1.69,0,0,1,52.3,53.71Z"/><path class="cls-58" d="M61.43,53.24c0-.16,0-.31,0-.46a1.63,1.63,0,0,1,2.39,0c0,.15,0,.3,0,.46Z"/><path class="cls-12" d="M36,54.68l-.48-1.43c0-.11,0-.21,0-.32.12-1.07,1-2,.57-3.17a1.64,1.64,0,0,1,.19-1c.78-.9,1.64-.68,2.52-.18.68.43.91,1.2,1.37,1.8a6.62,6.62,0,0,0,1,1.15c1.08.87,2.28.52,3.46.36a1.13,1.13,0,0,1,.88.39c-.64,1.11-2.08.62-2.88,1.43a3.6,3.6,0,0,0-3.38.23A5.28,5.28,0,0,1,36,54.68Z"/><path class="cls-138" d="M45.59,52.28h-.88c-.52-.65-.08-1.29,0-1.94.83-2.18-.72-3.16-2.12-4.22-.11-.21-.24-.49-.12-.67,1.62-2.59.26-4.34-1.76-5.83.77-1.57,3.46-.09,3.53-2.44a1.3,1.3,0,0,1,.87-.52,1.08,1.08,0,0,1,.62.26A1.42,1.42,0,0,1,46,38.07,3.23,3.23,0,0,0,47.36,42,2,2,0,0,1,48,43.23a24.77,24.77,0,0,1,0,6.38,3,3,0,0,1-1,1.75Z"/><path class="cls-139" d="M47,51.36c.06-.54-.07-1.13.52-1.48,1.4.93,1,1.9,0,2.87,0,.48,0,1-.07,1.42C46.35,53.41,46.81,52.36,47,51.36Z"/><path class="cls-140" d="M56.15,56.13c-1,.57-1.82,1.24-.55,2.32a3.32,3.32,0,0,1,1,2.95c.09,2.17-1.24,3.93-1.76,5.93-.23.93.11,1.51,1.17,2-.22-1.44.77-2.09,1.71-3,1.35,2.71-1.07,4.42-1.6,6.56A11,11,0,0,1,54,63.53a19.77,19.77,0,0,0,.27-3.06c0-1.13,0-2.59-1.34-2.58-.92,0-.71,1.5-.85,2.38,0,.33.38.86-.26.88-.28,0-.58-.46-.87-.72-.79-.64-.64-1.9-1.6-2.42a1.23,1.23,0,0,1-.35-.53l.52-.42C51.54,55.6,53.91,56.31,56.15,56.13Z"/><path class="cls-141" d="M28.79,36c.63-.32.39-1.53,1.44-1.44,1.26.13,2.5.41,3.77.5a1.6,1.6,0,0,1,1.19,2.15c-.19,1,.5,1.36,1.17,1.76s1.25.63,1.42,1.41a1.2,1.2,0,0,1-.25.93c-2.87-.66-3.13-.46-3.26,2.52,0,.39,0,.79-.39,1-1.15.11-1.25-.76-1.33-1.52a3.79,3.79,0,0,0-1.19-2.46,19.94,19.94,0,0,1-2.56-4.37C28.79,36.28,28.79,36.12,28.79,36Z"/><path class="cls-116" d="M28.8,36.44c1.42.94,1.8,2.65,2.87,3.84a14.91,14.91,0,0,1,.48,9.6c-.7,0-1.39,0-1.44-1,.27-1.88-.46-3.74-.1-5.64A1.63,1.63,0,0,0,30.19,42C28.28,40.45,29,38.34,28.8,36.44Z"/><path class="cls-142" d="M12.6,45.2c3.11-.13,3.61.54,2.75,3.72-1,.54-2.14,1-3.08,0C11,47.61,12.06,46.4,12.6,45.2Z"/><path class="cls-143" d="M4.77,59.47c.1-.35.06-.78.49-.95,1.11.12,2.48-.61,3.19.79.48,1,.58,2.13-.42,2.78-1.48,1-2.47.08-3.19-1.25A1,1,0,0,1,4.77,59.47Z"/><path class="cls-144" d="M4.77,59.47c0,.46.05.92.07,1.37-.16,2.09,1.12,2.54,2.83,2.5.1,1.29.36,2.2,2.09,1.85,1.4-.29.64.53.32,1-1.9.46-3.37-1.4-5.26-1a9.45,9.45,0,0,0-.51-3.34C4.45,61.07,4,60.15,4.77,59.47Z"/><path class="cls-63" d="M19.19,51.32a1.68,1.68,0,0,1-1,1c0-.58-.14-1.28.53-1.56C19.1,50.59,19.15,51,19.19,51.32Z"/><path class="cls-145" d="M17,57.48c-.39,0-.63-.26-.53-.6s.2-1,.83-1c.38,0,.38.44.38.76A.7.7,0,0,1,17,57.48Z"/><path class="cls-146" d="M21.16,40.32c.86-.14,1.83-.89,2.43.47.51,1.14.88,2.3-.13,3.3a1.46,1.46,0,0,1-2.15,0,2.34,2.34,0,0,1-.16-3.73Z"/><path class="cls-147" d="M32.15,49.88a5.07,5.07,0,0,1,0-4.16c.49-.92,0-1.59-.33-2.41a4.21,4.21,0,0,1-.18-3,3.13,3.13,0,0,1,1.46,3c-.1.68.11,1.26.95,1.32,1-.2,2-.56,3-.74a1,1,0,0,1,.54.32,1.23,1.23,0,0,1-.29,1.32c-2,2.28-2.22,4.93-1.78,7.75h0C33.53,53,32.2,52.08,32.15,49.88Z"/><path class="cls-148" d="M62.39,43.17h-.48c-.55.31-1,.39-1-.48-.14-.59-1.81-1.22.14-1.87.3-.1-.07-2.22-.13-3.41-.41-.9-.35-1.89-1-2.79-.83-1.09-.28-2.42.57-3.48a52.56,52.56,0,0,1,2.38,12C62.71,43.39,62.55,43.39,62.39,43.17Z"/><path class="cls-78" d="M63.84,52.77H61.45c-.67-.24-1.8.52-2-.51-.17-.87.73-1,1.56-1.25s.27-1.39.44-2.12c.44-.3.69.51,1.13.2a.51.51,0,0,1,.38-.24c.71,1.07,1.8,1.94,1.82,3.38Z"/><path class="cls-78" d="M62.39,43.17h.48c0,1.9,1.58,3.78.09,5.7l-.11.08c-.65.41-.65-1.15-1.39-.47-.76-.23-1.26.82-2.06.39a1,1,0,0,1-.16-.56,1.68,1.68,0,0,1,.9-1.11A1.58,1.58,0,0,1,61,47Z"/><path class="cls-149" d="M60.49,31.13c-.81,2.16.51,4.17.47,6.27-.63-.76-.53-2.28-2.16-2-.34.07-.68-.39-.49-.6,1.26-1.48.19-3.93,2.14-5.09C60.47,30.19,60.48,30.66,60.49,31.13Z"/><path class="cls-150" d="M62.85,31.17c1.35.51.9-.59,1-1.15a.8.8,0,0,1,1-.73c1,.26-.09.63,0,1,.34,1.19-1.29,2.68.61,3.72.22.12-.14,1.31-.23,2h-.47A21.2,21.2,0,0,1,62.85,31.17Z"/><path class="cls-151" d="M64.72,38.9c-.73.68-.27,1.58-.46,2.36-.6-.72-.29-1.63-.51-2.43,0-.54-.65-1.34.55-1.4h0Z"/><path class="cls-75" d="M64.3,37.43c-.63.29-.42.91-.55,1.4a1.77,1.77,0,0,1-.32-1.76c0-.16.31-.28.47-.41Z"/><path class="cls-152" d="M75.37,53.71l-1,.51c-1.31-1.74-2.88-3.29-3.84-5.28l.07-.06c2.94-.81,3.63-.37,4.71,3C75.52,52.49,75.86,53.09,75.37,53.71Z"/><path class="cls-76" d="M65.27,57.56l-.47-2.38c.68-.62.7.17,1,.45.68.88-.15,2,.47,2.89V59c0,.89-.42.76-1,.48Z"/><path class="cls-58" d="M66.23,58.52c-.87-.85-.32-1.93-.47-2.89a3.57,3.57,0,0,1,.47,0,1,1,0,0,0,.46.92C66.54,57.24,66.38,57.88,66.23,58.52Z"/><path class="cls-150" d="M65.27,36c1.33.75,1.48,2,1.44,3.35A4,4,0,0,1,65.27,36Z"/><path class="cls-153" d="M58.58,101.69a2.37,2.37,0,0,1-.26,3c-.38.33-.91.89-.6,1.16,1.55,1.31.22,3.41,1.54,4.85.84.92.09,2.33.11,3.5a33.21,33.21,0,0,0,.57,7.29,4.17,4.17,0,0,1-.43,3.25c-.79-1.17-.37-2.63-.95-3.85-.32-2.3-.65-4.59-1-6.89-.1-.76.24-1.6-.47-2.23-1-3.57,0-7.32-1-10.9a2.78,2.78,0,0,1,.46-2.06h.5c.68.72.66,1.81,1.33,2.54C58.51,101.49,58.55,101.59,58.58,101.69Z"/><path class="cls-154" d="M62.92,78.73C62.66,80,61.87,81,61.85,82.36c0,1.52-1.71,1.66-2.6,1.84s-.67-1.18-.67-1.87c0-1.6-1.42-2.16-2.3-3.13a1.51,1.51,0,0,1,2-.27c.38.19.72.84,1.09.11A.86.86,0,0,0,59,77.82c-1.48-.77-1.28-1.3.12-2,1-.49.6-3,2.77-2l.13.3a.56.56,0,0,1-.05.23C60.2,77,60.2,77,62.77,78.44Z"/><path class="cls-154" d="M66.72,75.8v.48c.66.7.23,1.62.47,2.4a1,1,0,0,0,1,.49L67.35,81c-.94-.52-.79-2-2-2.12-.44.6.41.86.39,1.37s0,1.15-.71,1.26-1.08-.33-1.17-1.08.85-1.92-.91-1.68l-.1-.13c.82-1.73,1.62-3.46-.82-4.61l-.11-.14c.37-.61.18-1.63,1.24-1.74-.33,1.46,2.55-.34,1.69,1.66C66.1,73.85,65.34,75.83,66.72,75.8Z"/><path class="cls-155" d="M61.4,66.17c-2.12-.86-2.19-2.57-1.58-4.33a1.69,1.69,0,0,1,2.47-1.14c2,1,1.89,2.69,1,4.45C62.84,65.84,62,65.84,61.4,66.17Z"/><path class="cls-156" d="M67.58,91.48c-1.38,1-2.5.17-3.66-.48,0-.59-.07-1.17-.11-1.76,1.21-2.55,2-2.72,4.23-.85A8.12,8.12,0,0,1,67.58,91.48Z"/><path class="cls-157" d="M59.07,97.48a2.49,2.49,0,0,1,1.84.32c1.15.66,2,1.59,1.36,2.94-.76,1.76-2.25,1.42-3.69,1h0a2.38,2.38,0,0,1,0-3.8Z"/><path class="cls-154" d="M54.74,80.1c-.41-2.57,1.44-4.69,1.41-7.18.67.1,1.39-.23,2,.19a37.92,37.92,0,0,0-2.93,7A.26.26,0,0,1,54.74,80.1Z"/><path class="cls-58" d="M65.28,59.48a1,1,0,0,0,1-.48c.57.35.47.92.49,1.45-.22,1.27.48,2.66-.49,3.83C65.25,62.81,66.11,61,65.28,59.48Z"/><path class="cls-158" d="M61.91,95a1,1,0,0,1,.49,1h-5v-.65C58.82,94.68,60.4,95.16,61.91,95Z"/><path class="cls-159" d="M58.59,97.9a4.51,4.51,0,0,0,0,3.8c-1.65-.35-1.43-1.67-1.45-2.85C57.62,98.54,57.82,97.78,58.59,97.9Z"/><path class="cls-153" d="M55.66,95c-1.87-.47-.26-1.62-.46-2.41l.92-1.29C56.05,92.79,56.55,93.94,55.66,95Z"/><path class="cls-6" d="M54.74,80.1l.44,0c0,.47,0,1,0,1.42s0,1.11-.64,1c-.33,0-.56-.67-.84-1h.18c.34-.39.39-.94.75-1.31Z"/><path class="cls-160" d="M61.4,66.17l1.89-1C63,66.19,62.26,66.27,61.4,66.17Z"/><path class="cls-79" d="M67.19,78.68c-.79-.67-.36-1.59-.47-2.4C68,76.87,67.72,77.74,67.19,78.68Z"/><path class="cls-161" d="M54.63,80.21c.11.64.26,1.31-.75,1.31,0-.31-.08-.61-.11-.92A.79.79,0,0,1,54.63,80.21Z"/><path class="cls-102" d="M51.35,106.52c0-1.28,0-2.56,0-3.84.78.68.35,1.59.47,2.4C51.8,105.6,51.91,106.17,51.35,106.52Z"/><path class="cls-162" d="M61,131.46a19.25,19.25,0,0,1-.1-2.62,2.38,2.38,0,0,1,1.77-2.31c1.28-.3,1.9.52,2.27,1.6a3.35,3.35,0,0,1-.8,4c-.89,1-1.74.75-2.69.24Z"/><path class="cls-91" d="M61,137.22c1.43.56,0,1.68.46,2.42C60.64,139,61.07,138,61,137.22Z"/><path class="cls-102" d="M51.36,101.72c0-1.28,0-2.56,0-3.84.34-2.24-.81-4.68.94-6.72C51.46,94.63,52.36,98.26,51.36,101.72Z"/><path class="cls-163" d="M73,137.72a3.43,3.43,0,0,1-1.23-3.29c1.06.9,2.37,1.23,2.19,2.82A1,1,0,0,0,73,137.72Z"/><path class="cls-164" d="M18.75,33.1l.41,0c.08,0,.18,0,.23.07,2.12,2,2.12,2,3.59-.51.89.62.4,1.57.54,2.37-.16.16-.32.33-.49.49C20.28,37.21,18.93,36.46,18.75,33.1Z"/><path class="cls-165" d="M82.07,56.6c-.74,1-1.58,1.86-2.95,1.33s-2.75-1.44-2.79-3.3a1.45,1.45,0,0,1,.86-.47c1.72.14,1.61-2,3-2.37,2.07-.53.11-2,.69-3,1.67.1,1.16,2.93,3.15,2.54-1.62,1.14-1.23,2.75-1,4.32A.87.87,0,0,0,82.07,56.6Z"/><path class="cls-166" d="M76.64,41.31c1.08,1.82,1,4.46,3.61,5.26.37.11,0,.75-.1,1.07a4.11,4.11,0,0,0,0,3.21,1.18,1.18,0,0,1-1.26.28,4,4,0,0,1-1.32-1.5,2.9,2.9,0,0,1-.25-.61A5.64,5.64,0,0,0,75,45.12c-.79-.54-.82-1-.26-1.69S75.76,41.78,76.64,41.31Z"/><path class="cls-167" d="M76.64,41.31a4.48,4.48,0,0,1-1.35,2.19,2,2,0,0,1-2.91-.1c-.94-1-.6-2-.09-3,.78-1.07,1.71-1.67,3.06-1l.89.61C76.37,40.39,76.51,40.85,76.64,41.31Z"/><path class="cls-168" d="M78.73,50.83l1.42,0c0,.31,0,.63,0,.94-.85,1.08-.62,3.27-2.93,2.86.07-1.2.89-2.16,1.07-3.33A1.27,1.27,0,0,1,78.73,50.83Z"/><path class="cls-169" d="M42.23,72a4.78,4.78,0,0,1,1.42,2.81c.14,1,.73,1,1.46,1,.66,1.27,0,2.55,0,3.83.8,1,1.83,2-.27,2.61.21,1.21,1.33.38,1.82,1.1a5.1,5.1,0,0,1-1.17.13c-.72-.06-1.29,1.52-2,.34-.52-.88-1.24-2-.25-3.07a.64.64,0,0,0,.13-.19c.61-1.4.35-3.19-.79-3.52-1.48-.43-.26,1.73-1.64,2.52.16-2.13-1.2-4.1.86-5.82C42.39,73.26,42.18,72.58,42.23,72Z"/><path class="cls-170" d="M45.11,79.65c-1.08-1.28-.18-2.56,0-3.83.53-1.69,2.94-.09,3.37-1.94,1.59.43,1.74,1.92,1.68,3-.08,1.47.31,3.21-1.22,4.39-.82-.2-.19-1.35-.93-1.64-.31-.45-.1-.9,0-1.35.16-.77.09-1.49-.82-1.63s-1.2.57-1.35,1.3a8.09,8.09,0,0,1-.13,1.63Z"/><path class="cls-102" d="M47.51,97.4c0-1.45.89-3-.48-4.32h0c.73-.27.64-.93.77-1.52s.08-1.49,1.14-1.36c-.11,1,1.36.82,1.39,1.71,0,1.39,1.39,3.28-1.45,3.58C48,95.59,49,97.47,47.51,97.4Z"/><path class="cls-171" d="M38.75,87.1A1.72,1.72,0,0,1,37,85.25c0-1.21.49-2.08,1.71-2.17a1.76,1.76,0,0,1,2.06,1.79C40.9,86.35,39.82,86.71,38.75,87.1Z"/><path class="cls-172" d="M45.71,79.6A2.21,2.21,0,0,1,45.53,77a1.6,1.6,0,0,1,2.33-.89,1.5,1.5,0,0,1,.91,2.12c-.21.5-.5,1-.76,1.46Z"/><path class="cls-173" d="M40.75,69.64c0,.26,0,.52,0,.78L39.83,72c-2.18-.09-3.33-1.54-2.69-3.47.49-1.48,1.29-2.23,2.67-.78C40.93,68,40.29,69.07,40.75,69.64Z"/><path class="cls-22" d="M49,90.2a3,3,0,0,0-1,2.47c0,.81-.52.53-.94.41,1.07-1.88.31-3.39-1-4.8C48.26,87.09,49.12,87.87,49,90.2Z"/><path class="cls-174" d="M49.4,57.61c1.65.32,1.37,1.69,1.51,2.82s-.28,1.83-1.45,2c-.6.37-1.14.41-1.57-.25C49.61,60.59,49.61,60.59,49.4,57.61Z"/><path class="cls-118" d="M48,61.88c.34.58.93.47,1.46.55.06.3.5.62,0,.89a2.35,2.35,0,0,1-2.4-1c-.2-.42,0-.58.39-.69A.61.61,0,0,1,48,61.88Z"/><path class="cls-22" d="M46.07,88.28a1.43,1.43,0,0,1-1.43-1C45.33,87.31,46,87.31,46.07,88.28Z"/><path class="cls-37" d="M39.84,66.68l1.44-3.35c1.12.3,2.59.37,2.32,2-.23,1.47-.7,3-2.79,2.77-.5-.15-.68-.6-.94-1A3.71,3.71,0,0,1,39.84,66.68Z"/><path class="cls-119" d="M39.87,67.15l.94,1-.06,1.51c-.31-.65-.63-1.29-.94-1.94Z"/><path class="cls-109" d="M46.07,93.09l.45,1.06a6.24,6.24,0,0,0-3.78-.53C43.71,92.57,45,93.28,46.07,93.09Z"/><path class="cls-112" d="M63,106.21c1.74.33.9,3,3,2.64a3.15,3.15,0,0,1-.5.92c-.58.69-1.32.48-2,.43-.55,0-.76-.6-.46-.8C64.53,108.37,62.82,107.35,63,106.21Z"/><path class="cls-112" d="M66.7,114.23c-1.37,0-2.79.08-2.78-2,.86-.3,1.41,1.12,2.1.46s-.21-1.09-.4-1.66c-.33-.95.64-.56,1-.76l.12.12a5.21,5.21,0,0,1,.54,3.65A.42.42,0,0,1,66.7,114.23Z"/><path class="cls-38" d="M65.11,116.14c.47,0,1,0,.9.72S65.55,118,64.76,118a.8.8,0,0,1-.88-.85C63.86,116.27,64.42,116.12,65.11,116.14Z"/><path class="cls-38" d="M66.7,114.23l.53,0a.27.27,0,0,1,.44.12l1.44.86C68.26,115,67.05,115.72,66.7,114.23Z"/><path class="cls-175" d="M67.67,114.3a.58.58,0,0,0-.44-.12c-.87-1.16-.59-2.47-.44-3.75a3,3,0,0,1,3.86-.79A2.35,2.35,0,0,1,72,112.42a2,2,0,0,1-2.17,1.82Z"/><path class="cls-176" d="M23,32.64c0,1.19,0,2.53-1.49,2.82-1.79.35-1.79-1.35-2.33-2.38,1.28-2.1,1.91-2.19,3.43-.5a2.49,2.49,0,0,1-.52.4,1.84,1.84,0,0,0,.51-.41A.92.92,0,0,1,23,32.64Z"/><path class="cls-177" d="M34.06,35.48c-1.33-.1-2.82.45-3.83-1,0-.48,0-1,0-1.43.57-3.21,1.07-3.63,3.36-2.88a.59.59,0,0,1-.1.61,6.16,6.16,0,0,1-1,.59,1.43,1.43,0,0,0-.86,1.71c.21.77.9.73,1.52.74a1.35,1.35,0,0,1,1.07.34A1,1,0,0,1,34.06,35.48Z"/><path class="cls-6" d="M47.64,61.82l-.61.54c-.4.09-.85.66-1.18.08-.09-.16.46-.68.71-1h.85A.32.32,0,0,1,47.64,61.82Z"/><path class="cls-178" d="M47.64,61.82c-.07-.14-.15-.28-.23-.42.25-1.42-1-3.4,1.55-3.92a1.32,1.32,0,0,0,.44.13c1.7,3.09,1.37,4.08-1.4,4.27A.63.63,0,0,0,47.64,61.82Z"/><path class="cls-179" d="M56.17,5.24l.42,0c.93,2-.48,3.29-1.44,4.71a.66.66,0,0,1-.9.21A1,1,0,0,1,54,9.57a7.38,7.38,0,0,1,1.71-2.39C56.27,6.64,56.1,5.91,56.17,5.24Z"/><path class="cls-130" d="M54.27,10l.88,0a1,1,0,0,0,1,.55A3,3,0,0,1,53.76,12c-.44-.36-1.1.09-1.5-.42-.21-.71.48-.9.78-1.31C53.42,10,53.79,9.74,54.27,10Z"/><path class="cls-180" d="M78.67,51.41a3.65,3.65,0,0,1-1.44,3.24l-.9,0-1-.92c-.17-.48-.35-1-.53-1.44a2.91,2.91,0,0,1,0-2.26c.52-1.59,1.42-1.76,2.9-.59h0A5.18,5.18,0,0,1,78.67,51.41Z"/><path class="cls-181" d="M48.47,12.47a1.83,1.83,0,0,1-.47,0c-3.39-1.07-3.47-1-2.79,2.74a12.24,12.24,0,0,1,.37,3,.84.84,0,0,1-.94.15c-1-1.92-.76-4-.86-6a9.24,9.24,0,0,0-.26-2.57.82.82,0,0,1,.65-.69l1.91,1.46c.84-.3,1.35.56,2.09.6a1.3,1.3,0,0,1,.49.44A.83.83,0,0,1,48.47,12.47Z"/><path class="cls-182" d="M54.27,10l-.91.52c-.39.26-.76.36-1-.14-2-2.07-1.86-2.8.69-4.8.25,1-.07,2.17.75,3,.39.2.23.63.4.92A4.05,4.05,0,0,0,54.27,10Z"/><path class="cls-183" d="M44.17,9.05l-.51.52c-1,.31-1.54,1.65-2.85,1.43h-1c.61-1.24,1.28-2.41,2.9-2.44C43.24,8.66,43.81,8.53,44.17,9.05Z"/><path class="cls-182" d="M48.1,11.42c-.94.29-1.35-.6-2-.91,3.47-.93,3.47-.93,4.32,0a1,1,0,0,1-.53.73C49.31,11.65,48.67,11.13,48.1,11.42Z"/><path class="cls-184" d="M54.15,9.53c-.13-.31-.27-.61-.4-.92.75-.33.65-1.83,1.94-1.43A3.47,3.47,0,0,1,54.15,9.53Z"/><path class="cls-185" d="M49.85,10.94l.55-.41,1.91-.15,1,.14-1.13.92a1.19,1.19,0,0,1-1.29.36A1.64,1.64,0,0,1,49.85,10.94Z"/><path class="cls-186" d="M24.91,21.55c.4-.81.86-1.54,1.95-1.4.93.87,2,1.68,1.56,3.22-.27,1.05-.78,1.7-2,1.62s-1.45-.82-1.53-1.76C24.87,22.67,24.91,22.11,24.91,21.55Z"/><path class="cls-187" d="M34.65,24.52c2.05.07,4-1.06,6.08-.54A1.81,1.81,0,0,1,41,25.77a1,1,0,0,1-1.32.21c-2.51-1-4.47.39-6.49,1.49a.92.92,0,0,1-.69-.07c-1.7-2.29.8-1.82,1.62-2.46Z"/><path class="cls-188" d="M33.55,30.72l0-.51c.17-.48.34-.95.5-1.42A2.36,2.36,0,0,1,36,27.74c1.08.08,2.41-.1,1.82,1.73-.31.47-.83.87-.61,1.56-.27,1.29-1.34,1.19-2.28,1.32-.75-.12-1-.74-1.32-1.31C33.59,30.93,33.57,30.83,33.55,30.72Z"/><path class="cls-189" d="M39.78,25.35a1,1,0,0,0,1,.53.63.63,0,0,1,.08.66,3.65,3.65,0,0,1-2.7,1.59A11.79,11.79,0,0,0,35.91,28c-1.09-.09-2.12,1.07-3.25.17a1.45,1.45,0,0,0-.1-.41.33.33,0,0,1,.11-.48l.55,0C35.21,26,37.7,26.35,39.78,25.35Z"/><path class="cls-190" d="M32.67,27.32c0,.16-.07.32-.11.48-1-.4-2-1-1.52-2.18.61-1.45,2.05-.38,3.08-.68C33.62,25.72,31.57,25.56,32.67,27.32Z"/><path class="cls-191" d="M32.63,22h1.93c.37.09,1,.09,1.06.29.28.78-.45.61-.83.65a15.32,15.32,0,0,1-1.66,0C32.53,22.91,31.9,22.83,32.63,22Z"/><path class="cls-177" d="M32.66,28.21c1.17.41,2.21-.55,3.36-.31.13.09.18.18.12.26s-.1.12-.15.12l-1.91.51C33.55,28.74,32.94,28.87,32.66,28.21Z"/><path class="cls-71" d="M36,28.28c0-.13,0-.26,0-.38l2.3-.14a2.88,2.88,0,0,0,2.43-1.49,1.28,1.28,0,0,0,0-.39c0-.63,0-1.26,0-1.9.65.22.93,2,2,.46,1.81,2.72,2.13,5.78,2.07,8.92a.66.66,0,0,1-.39.44c-.56.15-1.18-.1-1.69.32-1.33,2.57-1.05,3.05,1.94,3.3,0,2.55-2.24,1.45-4,2.3,2.26-.25,2.76,1.45,3.26,2.28.72,1.18-.56,2.72-1.21,4-1.49.69-3.06,1.26-3.84,2.89-.8-.08-1.6-.67-2.41,0-.32.32-.42.64,0,1,1.07,1.52-.21,2.37-1,3.36-1.26-2.55-1.16-4.92.83-7.12a10,10,0,0,0,1.11-2c.75-1.29.11-2.58,0-3.87-.77-1.15-3.14-.69-2.88-2.87,1.21-.46,2-1,.58-2.19a4.35,4.35,0,0,1-1-1.85,1.22,1.22,0,0,1,.41-1.25c.63-.72,2.16,0,2.35-1.41.19-.32.68-.5.48-1C38,28.15,37,28.24,36,28.28Z"/><path class="cls-38" d="M44.62,33.6c.09-1.24-1.89-2.28-.34-3.65-1-.61.27-1.83-.7-2.5s-.86-1.92-.87-3L42.23,23a.64.64,0,0,1,0-1c0-1.34-.08-2.68,0-4,.1-1.17-.33-1.71-1.47-1.76-.55-1.11-2.15.56-2.36-.74-.17-1.08,1.23-1.3,1.91-1.94a1.18,1.18,0,0,0,.23-.9,1.72,1.72,0,0,1,.91-1.35,1.22,1.22,0,0,1,.62.31,16.8,16.8,0,0,1,2,5c-.1,1.41.8,2.52,1.06,3.82.68,4.16,1.45,8.32.89,12.57a1.75,1.75,0,0,1-.68,1C45,34.2,44.65,34.16,44.62,33.6Z"/><path class="cls-41" d="M40.79,12.91c.63.15,1.26.36.35,1s-1.63.92-2.41,1.35c.25,1.52,2.33-1.48,2.06,1l-1.92,0a3.77,3.77,0,0,1-1.61.93l-.31,0c-1.2-.05,0-2.32-1.7-1.87-.09-.5.22-.81.61-.74a3,3,0,0,0,2.52-.77c0-.1.08-.2.11-.3A2.24,2.24,0,0,1,40.79,12.91Z"/><path class="cls-192" d="M39.31,21.06c-1,.1-1.92.26-2.39-.91a2.14,2.14,0,0,1,.69-.51,1.9,1.9,0,0,0-.68.52c-.94-1-.28-1.95,0-2.91h0c.61-.17,1-1.26,1.84-.34l.89.37Q41.69,19.4,39.31,21.06Z"/><path class="cls-193" d="M32.6,14.38c0,1.07.37,2.29-1,2.89a2.14,2.14,0,0,1-2.4-.45,2.24,2.24,0,0,1-.43-2.43c.46-1.64,1.69-1.29,2.87-1Z"/><path class="cls-71" d="M39.31,21.06a3,3,0,0,0,.38-3.78c1.5.47,1.05,1.72,1.08,2.75S40.06,21.09,39.31,21.06Z"/><path class="cls-194" d="M36.05,13.34h1.82c.5-.12.64.09.51.54h-3.9C34.93,13.11,35.58,13.56,36.05,13.34Z"/><path class="cls-71" d="M42.23,22v1c-2,.08-.47-1.32-.78-2Z"/><path class="cls-71" d="M38.8,16.91,37,17.25c.35-.89,1.08-1,1.91-.95Z"/><path class="cls-41" d="M44.62,20.13a4.89,4.89,0,0,1-.89-2.9c-.16-2.24-1.46-3.91-2.46-5.74a.28.28,0,0,1-.47,0c0-.16,0-.32,0-.48,1.11-.16,1.26-2.22,2.85-1.43.56.61,1.16.83.81,2.18-.5,2,.06,4.29.17,6.45A1.36,1.36,0,0,1,44.62,20.13Z"/><path class="cls-119" d="M40.8,11.48h.47l-.48,1.42-2.41,1-.51-.54Z"/><path class="cls-126" d="M56.12,46.05a1.56,1.56,0,0,1-1.4-.79c-.6-1.18-.68-2.72-2.86-1.64-.8.4-1.24-1.57-2-2.38a1.41,1.41,0,0,1,.45-2.08c2.13-1.65,1.53-3.59.74-5.57a8.59,8.59,0,0,1-.71-2c-.15-1.13-.6-1.75-1.87-1.46a1.23,1.23,0,0,1-1.39-.72c-.34-1.22-.55-2.42.35-3.51.75.4.36,1.29.89,2.38,0-2.31.33-4.16-.09-5.82-.48-1.84,0-2.71,1.64-3.29,1.06,1.2.8,3.21,2.55,4,.45.22.4,1.09.08,1.55-1.91,2.76.2,4.8,1.2,7a4,4,0,0,0,.47.82c-.56,1.58.09,3.15,0,4.73A2.77,2.77,0,0,0,55.39,40c1.86,1.41,1.91,3.45,1.24,5.54A.58.58,0,0,1,56.12,46.05Z"/><path class="cls-56" d="M47.48,25.89l.06,3.83c1.1,3.77,2.06,7.56.93,11.52l0,1.44A3.57,3.57,0,0,1,49.26,46c-.58,1.92,1,3.92-.3,5.78a4.25,4.25,0,0,1-.49,2.4l-.9-1.45c0-1,.78-1.93,0-2.87,0-2.4,0-4.8,0-7.2-1.64-2.83-1-6.13-1.88-9.12.22-4.52-.5-9-1-13.43,0-.64,0-1.29,0-1.93h.94c1.26,1.35,1.4,3,1.47,4.77C47.09,24,46.69,25,47.48,25.89Z"/><path class="cls-195" d="M54.22,32.61c-3-2.21-3.7-4.71-2.25-7.8.26-.55.51-1.39,0-1.48-2.66-.48-1.5-2.74-2.08-4.17,1-1,1.75-2.22,3.52-2.1,1.17.09.92-2.49,2.72-1.74,0,1.41-.87,2.06-2,2.47a1.41,1.41,0,0,1-.57.4c-.81.3-1.76.54-1.86,1.57s.83,1.39,1.57,1.82a2.34,2.34,0,0,1,.53.46c.68.08,1.22.86.77,1-1.91.78-1,2.72-1.84,4-1.15,1.67,1.17,1.81,1.68,2.8.24.54-2.29,0-.46,1C55,31.47,54.47,32,54.22,32.61Z"/><path class="cls-196" d="M59.94,14.4c.88,1,2,2,1.27,3.46-.6,1.14-1.59,2.06-3.07,1.6-1.76-.56-1.15-1.94-1-3.14C57.79,15.22,58.27,14,59.94,14.4Z"/><path class="cls-197" d="M47.69,18.63c-1.18-1.95-2.12-3.58-1.56-5.67a7.84,7.84,0,0,1,2.92,1C47.18,15,48.41,16.86,47.69,18.63Z"/><path class="cls-198" d="M50.85,11.43h1.38c.54.08,1.16-.06,1.53.53-1.74.43-3.41,1.59-5.29.5v-.86C49.22,10.94,50,11.26,50.85,11.43Z"/><path class="cls-199" d="M77.74,49.42c-2.18-.67-2.7-.16-2.9,2.85-.49-2.28-1.56-3.84-4.24-3.38.52-.75,1.73-1.23.17-2.38a2.34,2.34,0,0,1-.16-3.24,16.32,16.32,0,0,0,1.41-3,.36.36,0,0,1,.53,0c-.72,2.62-.06,3.37,2.74,3.18.18.41-.93.67-.2,1.07A4.73,4.73,0,0,1,77.74,49.42Z"/><path class="cls-200" d="M72.55,40.32l-.53,0c-.39-.38-.71-.93-1.18-1.13-2.57-1.09-4.33-2.45-2.45-5.51.08-.13-.13-.44-.2-.66,2,1,2.73-.26,3.3-1.83.58.32.48.89.54,1.41-.44,1.32-.36,2.17,1.38,1.51-1.25,3-1.25,3,1.94,5.25C74.22,39.1,73.51,40.06,72.55,40.32Z"/><path class="cls-201" d="M55.21,31.43c-.16-1.23.29-2.21,1.57-2.15,1.47.08,1.51,1.48,1.6,2.54s-.34,1.8-1.49,1.71A1.67,1.67,0,0,1,55.21,31.43Z"/><path class="cls-202" d="M53.78,22c-1.51,0-2.84-.5-2.77-2.19s1.51-2.19,3.1-2.06A3.13,3.13,0,0,1,53.78,22Z"/><path class="cls-203" d="M60.45,47.41l-1.06,1c-2.4-.12-2.85-.69-2.31-2.89.85-2.38,2.16-1.05,3.38-.42A2.45,2.45,0,0,1,60.45,47.41Z"/><path class="cls-204" d="M63.91,24.5c.62,0,.83.38.86.89a1.17,1.17,0,0,1-.95,1.38c-.72.13-.94-.4-1-1A1.2,1.2,0,0,1,63.91,24.5Z"/><path class="cls-128" d="M55.63,18.67c.27.64.52,1.29.82,1.92.16.34.58.65.06,1a1.36,1.36,0,0,1-.87.24c-.49-.12-.41-.61-.42-1,0-.71,0-1.42,0-2.13Z"/><path class="cls-205" d="M57.08,45.52a2.37,2.37,0,0,0,2.31,2.89.86.86,0,0,1,0,.45c-1.93,0-3.09-.82-3.28-2.81l.51-.52A.77.77,0,0,0,57.08,45.52Z"/><path class="cls-206" d="M69.59,28.74c-1.68.28-2,1.47-1.88,2.89-2.06-1.62,0-2.73.66-3.82C68.66,27.34,69.26,28.28,69.59,28.74Z"/><path class="cls-78" d="M61,42.68a1,1,0,0,0,1,.48c-.54,1.83-1.65-.15-2.45.24Z"/><path class="cls-205" d="M60.45,47.41c0-.77,0-1.54,0-2.31.75.48.35,1.27.53,1.91Z"/><path class="cls-140" d="M48.47,41.24l-.93-11.52c2.48-1,3.58,0,3.63,2.51,0,1,1.16,1.49,1.14,2.55,0,1.77.85,3.79-1.63,4.78-.54.22-.73,1-.77,1.68A1.26,1.26,0,0,1,48.47,41.24Z"/><path class="cls-207" d="M54.71,51.8c-2.28,1.25-3.08-.82-4.31-1.92a.66.66,0,0,1,0-1,3.36,3.36,0,0,0,2.17-.63c.64-.45,1.84-.87,1.55.86-.08.42.24.58.53.63C57.81,50.37,55.51,51.1,54.71,51.8Z"/><path class="cls-208" d="M50.4,48.92v1c.28,1.21-.35,1.74-1.44,1.92a53.47,53.47,0,0,0-.47-9.12c1.59-.17,2.29,1,2.73,2.14s-.73,1.26-1.51,1.75A1.37,1.37,0,0,0,50.4,48.92Z"/><path class="cls-209" d="M61.46,48.47c.71-.59,1,.19,1.4.47,0,.51.19,1.07-.24,1.55-.93-.14-.51-1.27-1.17-1.59C61.45,48.76,61.46,48.61,61.46,48.47Z"/><path class="cls-210" d="M45.31,50.3a3.8,3.8,0,0,1-.6,2c-1.4.57-2.74.7-3.9-.51-.42-1.2.33-2.47-.23-3.66a1,1,0,0,1,.46-.49c2-.6,3.05.69,4.1,2A1.35,1.35,0,0,1,45.31,50.3Z"/><path class="cls-211" d="M45.31,50.3c-.05-.14-.11-.27-.16-.4-1.16-1.33-2-3.32-4.39-2h0c-.49.89,0,2.08-.85,2.87-.78-.39-.58-1.32-1.05-1.89C38.81,46.18,40.72,46,42.71,46,45.11,46.73,45.77,47.81,45.31,50.3Z"/><path class="cls-212" d="M39.92,50.81c-.09-1.07-.17-2.13.85-2.87a3.26,3.26,0,0,1,0,3.84Z"/><path class="cls-211" d="M36.48,49.88c-.33,0-.78.46-.89-.16s.38-.75.87-.8C36.47,49.24,36.47,49.56,36.48,49.88Z"/><path class="cls-213" d="M45.6,33.56c1.84,1,.95,3,1.29,4.44a39.1,39.1,0,0,1,.59,4.68c-2.73-1.23-2.59-3.4-1.9-5.76-.6-.58-.53-1.37-.67-2.1a1.24,1.24,0,0,1,.11-.63Z"/><path class="cls-214" d="M45,34.19a.4.4,0,0,0,.09.33A2.18,2.18,0,0,1,45,36.86l-.36.56c-1.12.83-2.44,1-3.07-.29a2.58,2.58,0,0,1,1.14-3.63c.55.7-.2,1.67.5,2.37.8-.56.26-1.65.93-2.24a2.58,2.58,0,0,1,.48,0Z"/><path class="cls-71" d="M45,36.86c0-.78.07-1.56.11-2.34.81.67.38,1.58.47,2.4Z"/><path class="cls-215" d="M37,44.15c-.92.6-1.83,1.24-3,.44a12.69,12.69,0,0,1-.49-2,2.35,2.35,0,0,1,1.55-2.37c1.21-.57,1.61.51,2.25,1.11A2.06,2.06,0,0,1,37,44.15Z"/><path class="cls-216" d="M34.59,33.55c.76.62.79,2,2.14,2a.4.4,0,0,1,.33.67c-.65.73-1.18,1.83-2.5,1.17.49-.81.53-1.5-.49-1.92L34,34a1.6,1.6,0,0,0,.1-.23A.75.75,0,0,1,34.59,33.55Z"/><path class="cls-217" d="M37,44.15c.12-.94.23-1.88.35-2.82,0-.35,0-.7,0-1.06.35.77.69,1.55,1.07,2.31.58,1.17-.21,1.37-1,1.56H37Z"/><path class="cls-218" d="M5.49,60.26c.68-.91,1.26-.92,2-.39C7,60.71,6.36,60.42,5.49,60.26Z"/><path class="cls-219" d="M62,74c1.08-.06,2.07,0,2.36,1.35a2.55,2.55,0,0,1-1.54,3.26c-1-.43-2.53.23-2.87-1.48S61,74.86,62,74Z"/><path class="cls-199" d="M78.67,51.41a3.91,3.91,0,0,1-.94-2,1.44,1.44,0,0,1,1,1.42Z"/><path class="cls-220" d="M75.31,41c0,.85-.36,1.16-1,1.12-.42,0-.8-.21-.65-.71s.36-1.1,1-1.07A.62.62,0,0,1,75.31,41Z"/><path class="cls-221" d="M38.91,71.37a1.83,1.83,0,0,1-1.28-1.89c0-.59.29-1.42,1.11-1.23s1,1.11,1.06,1.92A1.18,1.18,0,0,1,38.91,71.37Z"/><path class="cls-222" d="M22.58,32.57c-.33,1.43-1.26,1-2.33.75.66-1.07,1.6-.57,2.34-.74Z"/><path class="cls-223" d="M34,34c-.91.43-1.86,1.08-2.76.08a2,2,0,0,1-.21-2.2c.48-1.22,1.39-1.35,2.48-1.17h0A2.92,2.92,0,0,1,34,34Z"/><path class="cls-224" d="M49.41,60.34c0,.32,0,.69-.38.77s-.47-.32-.51-.62,0-.68.37-.76S49.33,60.05,49.41,60.34Z"/><path class="cls-225" d="M50.85,11.43l-2.38.18a.54.54,0,0,0-.37-.19c.44-.7,1.14-.42,1.75-.48Z"/><path class="cls-226" d="M39.78,25.35c-1.71,2.26-4.35,1.37-6.56,1.93C34.41,25.49,37.39,24.62,39.78,25.35Z"/><path class="cls-227" d="M37.43,29.7c.42.14,1.31-.19,1.11.61s-1,.28-1.59.39c-.33-.11-.88-.09-.69-.61S37,29.76,37.43,29.7Z"/><path class="cls-177" d="M34,34a6.27,6.27,0,0,0-.49-3.31c.74.17,1,.75,1.05,1.4,0,.48,0,1,0,1.44Z"/><path class="cls-226" d="M40.75,26.27a1.8,1.8,0,0,1-2.43,1.49Z"/><path class="cls-228" d="M44.14,33.63a3.56,3.56,0,0,1-.6,3.36c-.24.32-.58.18-.78-.11a3.09,3.09,0,0,1,0-3.38C43.24,32.94,43.68,33.4,44.14,33.63Z"/><path class="cls-229" d="M36.93,20.16c.23-1.05.81-1.2,1.71-.69-.28,1.06-1.16.46-1.72.68Z"/><path class="cls-230" d="M31.47,15.13c-.21.49-.36,1.09-1,1-.46,0-.62-.4-.62-.84,0-.69.38-1,1-.94C31.24,14.42,31.57,14.6,31.47,15.13Z"/><path class="cls-140" d="M50.33,26.54l-.56.43c-.09-.16-.28-.34-.25-.48s.26-.28.4-.42Z"/><path class="cls-231" d="M53.07,19.24c.39,0,.59.31.45.63a1,1,0,0,1-.66.53c-.42.07-.48-.32-.45-.64S52.73,19.27,53.07,19.24Z"/><path class="cls-212" d="M40.76,47.94c1.78-1.59,3.44-.85,4.39,2C43.73,49.14,42.73,47.47,40.76,47.94Z"/></g></g></svg>