<svg xmlns="http://www.w3.org/2000/svg" viewBox="0 0 64.74 49.15"><defs><style>.cls-1{fill:#7cbf90;}.cls-2{fill:#cde6d2;}.cls-3{fill:#e37943;}.cls-4{fill:#e78256;}.cls-5{fill:#a5d3b1;}.cls-6{fill:#e38b49;}.cls-7{fill:#e69e6d;}.cls-8{fill:#dbebdd;}.cls-9{fill:#89c396;}.cls-10{fill:#6ec29f;}.cls-11{fill:#82c6a6;}.cls-12{fill:#8ab47e;}.cls-13{fill:#d5e9e1;}.cls-14{fill:#e37240;}.cls-15{fill:#d8ebdd;}.cls-16{fill:#e98444;}.cls-17{fill:#efc452;}.cls-18{fill:#80c395;}.cls-19{fill:#96c191;}.cls-20{fill:#ca8443;}.cls-21{fill:#ef752b;}.cls-22{fill:#89c698;}.cls-23{fill:#8fc59d;}.cls-24{fill:#e99771;}.cls-25{fill:#9bbb8c;}.cls-26{fill:#63be8f;}.cls-27{fill:#de8d4e;}.cls-28{fill:#e87036;}.cls-29{fill:#54a45b;}.cls-30{fill:#8fc393;}.cls-31{fill:#049f54;}.cls-32{fill:#7fc398;}.cls-33{fill:#83c6a2;}.cls-34{fill:#f7c86a;}.cls-35{fill:#eb7543;}.cls-36{fill:#9bd1b3;}.cls-37{fill:#ec9756;}.cls-38{fill:#e68c54;}.cls-39{fill:#e5863a;}.cls-40{fill:#f8cc65;}.cls-41{fill:#eb9a5d;}.cls-42{fill:#f8c85a;}.cls-43{fill:#f3cb59;}.cls-44{fill:#88c086;}.cls-45{fill:#f9e0bd;}.cls-46{fill:#cdac67;}.cls-47{fill:#89be8e;}.cls-48{fill:#68c0a1;}.cls-49{fill:#c2ddcc;}.cls-50{fill:#eba249;}.cls-51{fill:#74be8d;}.cls-52{fill:#70a774;}.cls-53{fill:#88c7a3;}.cls-54{fill:#e5914a;}.cls-55{fill:#f2c85b;}.cls-56{fill:#fad26c;}.cls-57{fill:#70c498;}.cls-58{fill:#80c57b;}.cls-59{fill:#56b988;}.cls-60{fill:#b6c571;}.cls-61{fill:#a9d298;}.cls-62{fill:#5ea454;}.cls-63{fill:#db8354;}.cls-64{fill:#f9d988;}.cls-65{fill:#fbce6c;}.cls-66{fill:#77be89;}.cls-67{fill:#a99043;}.cls-68{fill:#e9753d;}.cls-69{fill:#d57a4c;}.cls-70{fill:#ea9e3c;}.cls-71{fill:#f48d40;}.cls-72{fill:#f3cc2e;}.cls-73{fill:#fad679;}.cls-74{fill:#f7cf5f;}.cls-75{fill:#fad36d;}.cls-76{fill:#66a457;}.cls-77{fill:#81b471;}.cls-78{fill:#65b881;}.cls-79{fill:#a0ab71;}.cls-80{fill:#67b477;}.cls-81{fill:#60b898;}.cls-82{fill:#54b67d;}.cls-83{fill:#5cb464;}.cls-84{fill:#c2e2c9;}.cls-85{fill:#56a757;}.cls-86{fill:#f1e5c4;}.cls-87{fill:#fdd88e;}.cls-88{fill:#879f58;}.cls-89{fill:#e9942f;}.cls-90{fill:#f8cc58;}.cls-91{fill:#eecd79;}.cls-92{fill:#fdecab;}.cls-93{fill:#fadd94;}.cls-94{fill:#f8d882;}.cls-95{fill:#c7c27a;}.cls-96{fill:#f9a65d;}.cls-97{fill:#fcd36c;}.cls-98{fill:#efcd44;}.cls-99{fill:#fbd12a;}.cls-100{fill:#5aa354;}.cls-101{fill:#6ebe84;}.cls-102{fill:#66c0a0;}.cls-103{fill:#fbcc46;}.cls-104{fill:#fdc94b;}.cls-105{fill:#fcd97b;}.cls-106{fill:#d88e3d;}.cls-107{fill:#aec17c;}.cls-108{fill:#11a162;}.cls-109{fill:#a9d399;}.cls-110{fill:#fbcd63;}.cls-111{fill:#ea8344;}.cls-112{fill:#fbda84;}.cls-113{fill:#fbdb8d;}.cls-114{fill:#eed374;}.cls-115{fill:#53aa5a;}.cls-116{fill:#fbe3a5;}.cls-117{fill:#fad555;}.cls-118{fill:#8cc885;}.cls-119{fill:#f9de97;}</style></defs><title>rollerskates</title><g id="Layer_2" data-name="Layer 2"><g id="Layer_1-2" data-name="Layer 1"><path class="cls-1" d="M51.26,46.17l-1.44,1.44a3,3,0,0,1-.57-.28c-.7-.54-1.62-.54-2.38-.94a1.13,1.13,0,0,1-.51-1.15,3.24,3.24,0,0,0,1.79-2,1.56,1.56,0,0,1,.82-.58,20.86,20.86,0,0,1,2.09.08,2.76,2.76,0,0,1,1.74.51.92.92,0,0,1-.06,1l-.13.85C52.38,45.75,51.67,45.77,51.26,46.17Z"/><path class="cls-2" d="M51.26,46.17a1.64,1.64,0,0,1,1.35-1.06c0,.34,0,.68.08,1Z"/><path class="cls-3" d="M46,3.94c.37-.93,1.81.51,2-.89h0c1.15,0,.78,1,.64,1.29-.79,1.82-.34,3.61.08,5.36.36,1.47.34,3,.64,4.42a.37.37,0,0,0,0,.38,3.26,3.26,0,0,1,.35,2.77,1.39,1.39,0,0,1-1.73.74c-.67-.57-.67-1.42-.94-2.16a10.77,10.77,0,0,1-.23-2.33c-.13-2.42-.16-4.87-1.12-7.15C45.25,5.43,45.72,4.73,46,3.94Z"/><path class="cls-4" d="M27.7,17.47l.06,3.74a4.45,4.45,0,0,1-1.3,5A12.19,12.19,0,0,1,24,28.11a1.34,1.34,0,0,1-.69.06,1,1,0,0,1-.7-1.11c.26-1.5,1.65-2.17,2.41-3.31,1.06-1.16-.56-3,1.05-4,1.16.49.47,1.73.89,2.46,0-1.57-.68-3.16.16-4.74A.36.36,0,0,1,27.7,17.47Z"/><path class="cls-5" d="M28.24,28.89l.89,0c.18.64.35,1.27.52,1.9.9,1.27.52,2.55,0,3.83h0c-.4.24-.06,1.46-1.11.85-.23-1.79.09-3.67-1-5.33C27.22,29.66,27.73,29.18,28.24,28.89Z"/><path class="cls-6" d="M60.5,25.06l-.14.47c-1.36-.1-1.72-1.58-2.81-2-.68-.65-1.47-1.27-1-2.39a.91.91,0,0,1,1,.08A12.51,12.51,0,0,1,60.5,25.06Z"/><path class="cls-7" d="M57.57,21.18l-1,.05a1,1,0,0,1-1,.2c-.81-.91-2.62-.5-2.85-2.16l2.84.1C56.2,20,57.15,20.3,57.57,21.18Z"/><path class="cls-8" d="M28.7,35.61l.95-1c.35,2.71-1.64,3.8-3.58,4.52-1.29.49-3,1-4.2-.63l.22-.26A9,9,0,0,0,28.7,35.61Z"/><path class="cls-9" d="M45,44.27l-.22,0h-.21c-1.86-1.76-.69-3.76-.44-5.68a2.53,2.53,0,0,1,2.52-1.63,6.21,6.21,0,0,1,1.14,0,2.29,2.29,0,0,1,1,.34,1,1,0,0,1,.33.91,7.91,7.91,0,0,0-.52,2.05,1.14,1.14,0,0,1-.42.45,5.65,5.65,0,0,0-1.68.89c-.44.29-.87.59-.89,1.19S45.51,43.91,45,44.27Z"/><path class="cls-10" d="M45,44.27c0-.64,0-1.28,0-1.93a1.26,1.26,0,0,1,1.32-.29,9.64,9.64,0,0,1,2,1.25c-.09,1.2-.3,2.27-1.92,1.93a.82.82,0,0,1-1.05.05C45.28,45,45.14,44.61,45,44.27Z"/><path class="cls-11" d="M41.73,36.6c-.19.94-.37,1.89-.55,2.83-.43.15-.5.5-.54.88l-3.31,1c-.56-1.15.43-1.53,1.08-2a2.45,2.45,0,0,0,1.32-2,1.67,1.67,0,0,1,.58-.93A1.11,1.11,0,0,1,41.73,36.6Z"/><path class="cls-12" d="M45.41,45.28l1.05-.05c.17.3.34.61.5.92.75.86,1.79.85,2.8.93l.06.53C47.33,48.72,46,48,45.41,45.28Z"/><path class="cls-13" d="M4.71,43.31a3.19,3.19,0,0,1-1.92-.5c0-.18,0-.36,0-.55.63-.7,1.8-.24,2.37-1.08A1.79,1.79,0,0,1,6,40.66a.89.89,0,0,1,.59.17l.09.57A2.13,2.13,0,0,1,4.71,43.31Z"/><path class="cls-14" d="M58,23.14c1.1.48,1.58,1.6,2.38,2.39.52,1.13,1,2.27,1.55,3.41a6.7,6.7,0,0,1-.16,3.74,4.88,4.88,0,0,1-1.38,1.26A1.43,1.43,0,0,1,59,33.85c-.55-.93-.08-1.84.12-2.73a4.09,4.09,0,0,0-1.32-4.45c-.71-.54-1.56-.86-2.3-1.35a1.9,1.9,0,0,1-.62-.81,1.2,1.2,0,0,1,.14-1C55.89,22.71,57.06,23.83,58,23.14Z"/><path class="cls-15" d="M64.25,35.61c.84.85.31,1.91.45,2.87a2.7,2.7,0,0,0-.41.07l-.15-.12A2.06,2.06,0,0,1,64.25,35.61Z"/><path class="cls-16" d="M4.22,21.2c1-.87,1.55-2.25,2.81-2.9a1.47,1.47,0,0,1,1.36-.17c.77,1.38-1,1.59-1.15,2.55-.82,2-2.22,3.77-2.63,6a7.68,7.68,0,0,0-.21,2.53c-.09,1.19.25,2.44-.53,3.52-2.46-.49-1.73-2.28-1.56-3.83A29.84,29.84,0,0,1,4.22,21.2Z"/><path class="cls-17" d="M2.31,28.87c.08,1.42.09,2.86,1.38,3.85a1,1,0,0,1,1-.19,1.66,1.66,0,0,1,.74,1.39c0-.76-.55-1.72.39-2.2s1.08.28,1.29.91a8.25,8.25,0,0,1,.11,1.72,1.66,1.66,0,0,0,1,1.88c1.7.72.62,1.32-.17,1.88-1.82,0-2.76-1.73-4.35-2.2A10.41,10.41,0,0,1,1.82,34a1.69,1.69,0,0,1-.33-.62,6.66,6.66,0,0,1,.29-2.08C2.07,30.52,1.44,29.53,2.31,28.87Z"/><path class="cls-18" d="M19.6,46.2c-.2.6-.4,1.19-.61,1.79-1.86,1.83-3.75,1.21-5.64.06-.55-.57-.64-1.5-1.45-1.86h0c-.83-.79-.5-2-1-2.89l.05-1c.7-1.06.47-2.87,2.38-2.95a1.38,1.38,0,0,1,.42.91c.21.83-1.29,1.62-.07,2.48a5.44,5.44,0,0,1,.22,1c.22,1.58,1.44,2.36,2.8,3.64-.29-1.7-2.18-1.69-2.07-3.09a1.54,1.54,0,0,1,.53-.42,15.1,15.1,0,0,1,2-.4,1.31,1.31,0,0,1,1.1.36c.06.14.24.28.29.22s0-.28,0-.44a1.56,1.56,0,0,1,.67-1.45c1.05-.1.88.59.84,1.25A7.17,7.17,0,0,1,19.6,46.2Z"/><path class="cls-19" d="M13.36,39.47C12.05,40,12.3,41.79,11,42.33c0-.62-.05-1.23-.08-1.85A1.8,1.8,0,0,1,11,38.3c1.45-.45,2.44-1.88,4.09-1.92a3.8,3.8,0,0,0,1.84.55c.68.07,1.4,0,1.92.61,1.05.72,1.4,1.94,2.06,3l-.18.89a1,1,0,0,1-1.23.12c-.69-.69-.85-2.39-2.48-1.31C15.8,40,14.74,38.94,13.36,39.47Z"/><path class="cls-20" d="M3.72,35.61C5.65,35.53,6.5,37.44,8.1,38l.3.1a1.75,1.75,0,0,1,.45.45c.13.55.84,1.17-.21,1.56l-1.59-.78A4.12,4.12,0,0,0,5.79,39a4,4,0,0,1-.66-.16C4,38.07,3.14,37.15,3.72,35.61Z"/><path class="cls-21" d="M8.64,40.09c.48-.56-.25-1.05-.1-1.6a1.76,1.76,0,0,1,1.84-.41,1.22,1.22,0,0,1,.62.48c.41.66,0,1.28-.08,1.92Z"/><path class="cls-19" d="M11,43.3c.47.17,1.77-.31.9,1-.54.77.19,1.3.05,1.94A2.25,2.25,0,0,1,11,43.3Z"/><path class="cls-22" d="M6.14,38.56c.53,0,.91.13.91.75-.16.51-.32,1-.47,1.52l-.22.05-.22,0A1.6,1.6,0,0,1,6.14,38.56Z"/><path class="cls-19" d="M11.9,46.19c1.14.11,1.27,1,1.45,1.86C12.41,47.78,12.32,46.86,11.9,46.19Z"/><path class="cls-23" d="M64.25,35.61c0,.94-.08,1.88-.11,2.82-.65,1.48-2.13,2-3.29,2.93-1.09.08-1.94-.57-2.89-.93s-.53-1.23-.88-1.81l0-.33c-.56-.82,0-.92.63-1a1.38,1.38,0,0,1,.6.28c.67.89,1.34,1.76,2.67,1.39,1.83-.27,2.17-1.33,1.59-2.93-.26-.73-.7-1.47-.29-2.29.87-.14,1.22.67,1.83,1C64.17,35,64.21,35.32,64.25,35.61Z"/><path class="cls-24" d="M56.5,38.48A9.55,9.55,0,0,1,52.8,41a1.31,1.31,0,0,1-.56-1.26,2.31,2.31,0,0,1,.2-.68,3.65,3.65,0,0,1,1.41-.91,2.6,2.6,0,0,1,1.24-.37A2,2,0,0,1,56.5,38.48Z"/><path class="cls-25" d="M52.59,39.38,52.8,41a.78.78,0,0,1-.13.37,1.33,1.33,0,0,1-2.35-.92,1.7,1.7,0,0,1,.39-1.14A1.48,1.48,0,0,1,52.59,39.38Z"/><path class="cls-26" d="M50.82,41.44l1.85,0a3.81,3.81,0,0,0,.13.45c0,.48-.11,1-.16,1.44H50.76a1.47,1.47,0,0,1-.39-.94A1.12,1.12,0,0,1,50.82,41.44Z"/><path class="cls-27" d="M56.5,38.48c-.51,0-1.07.09-1.4-.47-.12-1.24.83-1.43,1.67-1.74a1.69,1.69,0,0,1,.67.08c.42.25.7.57.54,1.1-.42.15-.88.25-.87.84Z"/><path class="cls-28" d="M24.34,1.93l.45-.9a.88.88,0,0,0,.6-.83c.87-.33,1.47-.39,1.37.9a12.51,12.51,0,0,0,.44,4.82q.06,5.67.14,11.36v6c-1.34-1-.62-2.56-1.47-3.5l-.3-.27A12.3,12.3,0,0,1,25,14.12c.29-2.63-.42-5.21-.46-7.83a4.33,4.33,0,0,1-.06-1.08c0-.46.56-.91,0-1.39C24.15,3.2,23.86,2.59,24.34,1.93Z"/><path class="cls-29" d="M49.76,47.08c-1.27.71-2.34.8-2.8-.93C48,46.21,49,46.13,49.76,47.08Z"/><path class="cls-30" d="M48.38,43.3c-.75-.09-1.76.33-1.91-.95a1.69,1.69,0,0,1,2.12-.26.72.72,0,0,1,.34.64Z"/><path class="cls-31" d="M48.93,42.73a1,1,0,0,0,0-.3l.21-.29a1.26,1.26,0,0,1,1.62.2c0,.31,0,.62,0,.93A2.12,2.12,0,0,1,48.93,42.73Z"/><path class="cls-32" d="M6.14,38.56v2.3c-.15.18-.31.35-.46.52-1.78,1.17-3.07,0-4.39-.94-.56-.32-.43-.87-.47-1.36-.34-1.77-.72-3.55.78-5,1.24.68.82,1.89.95,2.93.23,1.92,1.15,2.36,3.09,1.5Z"/><path class="cls-33" d="M1.86,34.23c-1.3,1.41-.69,3.23-1,4.85a4.44,4.44,0,0,1-.44-4.43c.5-.28.7-1,1.37-1l.47.2C2.24,34.12,2.13,34.25,1.86,34.23Z"/><path class="cls-33" d="M1.29,40.44c1.43.45,2.78,1.29,4.39.94-.5,1.73-1.89.62-2.84.88C2.47,41.53,1.38,41.41,1.29,40.44Z"/><path class="cls-34" d="M33.1,6.82c.49-.45.57-1.29,1.36-1.47,1.66,1.1,3.5,1.92,4.87,3.43C39,9.32,37.62,8.5,38,10.17a15,15,0,0,1,0,3.73c0,1.86.13,3.75-1,5.38-1,.23-1.07-.55-1.16-1.1A61.44,61.44,0,0,0,34.33,12c0-.85,0-1.71-.09-2.7-.32.69-.09,1.52-.82,1.88C32.82,9.78,33.06,8.29,33.1,6.82Z"/><path class="cls-35" d="M34.93,11.62l1.9,7.73c1,1.26,1,2.8,1.14,4.29A9.51,9.51,0,0,0,38.08,26c.07.21.13.42.19.64.07.83.82,1.72-.24,2.44a1.1,1.1,0,0,1-.67-.08.86.86,0,0,1-.24-.63c-.79-2.53-2.15-4.9-2.18-7.65l-.48-3.34c-.64-1.22.24-2.64-.53-3.84v0a10.17,10.17,0,0,1,0-4.08C35.06,10.07,34.41,11.1,34.93,11.62Z"/><path class="cls-36" d="M32.52,33.69a.73.73,0,0,0,.06-.41,5.54,5.54,0,0,1,.93-1.5c1.43-.66,1.32-3.13,3.48-2.92.1-.19.23-.2.37,0v.1a1.51,1.51,0,0,1,.3,1.69,6.24,6.24,0,0,0-3.57,3.16,1.31,1.31,0,0,1-1.52.89Z"/><path class="cls-37" d="M34.93,11.62l-1-1.95v3.91c-.74-.66-.39-1.57-.52-2.38.07-1.21.14-2.42.25-4.13C35.12,8.7,34.93,10.18,34.93,11.62Z"/><path class="cls-38" d="M37.36,28.82l-.37,0c-.81-2.68-2.54-5.12-2.05-8.12C35.75,23.43,36.56,26.13,37.36,28.82Z"/><path class="cls-37" d="M33.93,13.56c1.08,1.15.36,2.56.53,3.84C33.67,16.2,34.06,14.85,33.93,13.56Z"/><path class="cls-39" d="M39.32,8.7c-1.8-.85-3.94-1.22-4.86-3.35.76-1.53,1.95-.16,2.89-.44,2.54.5,5-1,7.61-.12.56.19.6-.65,1-.85-.12,2.29,1.25,4.29,1.24,6.6,0,1,.2,2.05.16,3.08-1.57-.66-1.33-2.2-1.52-3.42-.27-1.68-.77-2.45-2.55-1.63a12.54,12.54,0,0,1-2.28.6A1.7,1.7,0,0,1,39.32,8.7Z"/><path class="cls-40" d="M41.16,8.66,45.8,7.19c.64,2.16.56,4.43,1.58,6.43l.09,2.3-.31.11a8,8,0,0,1-2.55-2.49C43.67,11.76,42,10.5,41.16,8.66Z"/><path class="cls-41" d="M52.71,19.27c.68,1.06,2.56.34,2.89,1.93a1.18,1.18,0,0,1-.56.37c-2.11.12-4-1-6.16-.88a1.79,1.79,0,0,1-.56-.3c-.36-.52-.27-1.18-.52-1.74,0-.1,0-.2-.07-.3a.65.65,0,0,1,.22-.52l1.42-.46C49.91,19,51.38,19,52.71,19.27Z"/><path class="cls-42" d="M48,17.83l-.05.51c-1.5-.5-1.07-1.43-.53-2.39l.1,0C48,16.45,47.8,17.19,48,17.83Z"/><path class="cls-43" d="M25.32,24.19,23,27c-.5.69,0,1.57-.4,2.26-.48,1.2-1,2.38-2.45,2.67A7.26,7.26,0,0,1,18,30.84c-.66-1.25.11-2,.85-2.91s2.35-1.43,2.52-3c.11-1,.16-2.11,1.12-2.8.95-.25.87.95,1.54,1.1a5.62,5.62,0,0,1,.53.19C24.87,23.6,25.21,23.78,25.32,24.19Z"/><path class="cls-44" d="M20.08,31.8c.83-.84,1.76-1.61,1.92-2.89.45-.36,1-.55,1.45-.94l.44-.06a1.54,1.54,0,0,1,1.78-.19,1.27,1.27,0,0,1,.52.94,1.6,1.6,0,0,1-.15.68c-.77.76-1.87,1.06-2.57,1.91-.52.46-.5,1.33-1.23,1.62-.64,0-.66.48-.76.92a2.8,2.8,0,0,1-.17.63C21,35,21,35.86,20,35.65a2.36,2.36,0,0,1-.47-1.37,4.7,4.7,0,0,1,0-.75A2.21,2.21,0,0,1,20.08,31.8Z"/><path class="cls-45" d="M25.32,24.19l-.91-.57c-.24-1.53-.42-3,1.39-3.82l.07,0C25.3,21.2,27.06,22.91,25.32,24.19Z"/><path class="cls-46" d="M25.77,27.91H23.89c.15-1.14,1.51-1,1.93-1.84,0,.32,0,.63,0,.94a.58.58,0,0,1,.13.74Z"/><path class="cls-46" d="M23.45,28c-.06,1-.77.92-1.45.94L23,27A1,1,0,0,0,23.45,28Z"/><path class="cls-47" d="M25.83,29.39V28.9a1.54,1.54,0,0,1,2,0,1.2,1.2,0,0,1,.38,0c-.14.42-.63.9-.26,1.28,1.64,1.66,1.11,3.55.72,5.44C27.25,38.32,25.61,39,22,38.49c-.21-.28-.41-.57-.61-.85l.2-.3c1.34-.85,3,0,4.35-.93,2.23-2,2.38-3.39.58-5.65C26.21,30.35,25.61,30.08,25.83,29.39Z"/><path class="cls-48" d="M27.86,28.86l-2,0-.06-1,0,0a1.44,1.44,0,0,1,1.93.1Z"/><path class="cls-49" d="M27.73,28l-1.93-.1.06-.86C26.61,27.09,27.61,26.67,27.73,28Z"/><path class="cls-50" d="M55.1,21.22l.5,0,.95,0c.4.69.57,1.55,1.43,1.91-.64,2.05-2,0-2.86.47a.58.58,0,0,1-.07-.58C55.55,22.44,54.8,21.82,55.1,21.22Z"/><path class="cls-51" d="M32.56,34.66a6.42,6.42,0,0,0,2-2.79,1.91,1.91,0,0,1,2.8-1.08c1.69-.73,2.06.27,2.17,1.63-.09.23-.26.47-.48.43-1.3-.25-2.56-.45-3.12,1.19-.39,1.14-.76,2.38.17,3.34,1.18,1.22,2.57.81,3.88.09.06,0,.16,0,.23,0,.11,1,0,1.73-1.14,2.16-.71.26-1.61.65-1.73,1.67a1.73,1.73,0,0,1-2.49.12c.27-.59.27-.59-.93-.49C31.9,39.2,31.69,37.05,32.56,34.66Z"/><path class="cls-52" d="M33.91,41c.79-.93,1.42-.39,2.29.27l-1.36.22A1,1,0,0,1,33.91,41Z"/><path class="cls-53" d="M19.57,41.36l1.18,0c.1,1.72.08,3.42-1.15,4.82-.39-1.25.75-2.71-.51-3.86-.81,0-.72-.47-.55-1A.8.8,0,0,1,19.57,41.36Z"/><path class="cls-54" d="M20,34.16l.24,1.4a.27.27,0,0,1,.08.29c0,.1-.08.14-.11.14a2.8,2.8,0,0,0-1.29,1.54l-2.23-.06a1,1,0,0,1-.15-.92,5.39,5.39,0,0,1,1-1.28C18.23,34.73,18.7,33.57,20,34.16Z"/><path class="cls-47" d="M20.16,36a.54.54,0,0,1,0-.43c.28-.46.56-.92.83-1.39,1.85.83,1,2.1.56,3.31l-.18.16C20.69,37.31,20.63,36.5,20.16,36Z"/><path class="cls-55" d="M56.94,36.55c-.62.47-1.52.6-1.84,1.46l-.91.48a3.3,3.3,0,0,0-1.72.31,3.5,3.5,0,0,1-1.54.14,1.94,1.94,0,0,1-.62-.15c-.62-.24-1-.83-1.48-1.21L48,37.43c.9-2.14,2.7-1.36,4.27-1.32,2.15,1,.89-1.19,1.49-1.65,2-2.5,4.12-4.95,4.28-8.39,3,2.19,1.76,4.95,1,7.65.19.46-.06.8-.3,1.15A8.55,8.55,0,0,1,56.94,36.55Z"/><path class="cls-56" d="M52.69,36.56c-1.6.17-3.35-.45-4.74.87h-1c-1.18-.61-2.74-1-1.94-2.9,2.47.37,4.89-.86,7.38-.25a1.38,1.38,0,0,1,.58.49A1.46,1.46,0,0,1,52.69,36.56Z"/><path class="cls-55" d="M45,34.65c-.23,1.52,1.52,1.68,1.9,2.78A3.09,3.09,0,0,0,44.5,38.5c-.3-.34-.6-.67-.91-1-.11-.68-.74-1.21-.56-2,.93-.58-.62-1.56.35-2.13a1.67,1.67,0,0,1,1.72.2A.84.84,0,0,1,45,34.65Z"/><path class="cls-57" d="M50.33,38.46l.51.08a.62.62,0,0,1,0,.84l-.09,1a1.81,1.81,0,0,1-1.4.49,1.37,1.37,0,0,1-1-.5c.2-.64-1.15-1.68.5-1.93A1.14,1.14,0,0,1,50.33,38.46Z"/><path class="cls-58" d="M48.39,40.41l1,0c.39.77,0,1.38-.4,2h0l-2.47-.08H45c0-1,.73-1,1.42-1,.59-.42,1.44-.32,1.93-.94Z"/><path class="cls-59" d="M48.38,40.43c-.22,1.18-.92,1.37-1.93.94C46.63,40.1,47.61,40.49,48.38,40.43Z"/><path class="cls-60" d="M50.33,38.46l-1.44,0-.06-.9A1.42,1.42,0,0,1,50.33,38.46Z"/><path class="cls-61" d="M41.73,36.6l-1.45-.05L40,36.36a2.58,2.58,0,0,1-.35-.88c-.13-.63-.42-1.26,0-1.88a1.31,1.31,0,0,1,.63-.18c1.15.25,1.38,1.37,2,2.12a.86.86,0,0,1-.15.94A1.37,1.37,0,0,1,41.73,36.6Z"/><path class="cls-56" d="M42.17,36.48l-.11-.87a.86.86,0,0,1,0-1c.77-.07,1.18.2,1,1,.53.53,1.2,1,.48,1.87Z"/><path class="cls-62" d="M39.7,33.74l.42,1.89a.63.63,0,0,0,.05,1l.11-.07c0,.32-.05.64-.08,1a2.36,2.36,0,0,1-3.36,1.1A2.5,2.5,0,0,1,35,36c0-1.67.39-3.18,1.92-4.05,1-.55,1.6.32,2.3.8A.83.83,0,0,1,39.7,33.74Z"/><path class="cls-63" d="M8.55,18.34,7,18.3c.27-.3.48-.74.8-.86,4.93-1.74,4.51-5.68,4-9.66A29.63,29.63,0,0,0,11.31,0l3.16,1.91c-.28.6-1.08.63-1.35,1.25a8.45,8.45,0,0,0-.07,1.74,96.08,96.08,0,0,0,.33,10.73,1.64,1.64,0,0,1-1,1.16C10.93,16.83,10,18.27,8.55,18.34Z"/><path class="cls-64" d="M45,33.71l-1.93,0a2.34,2.34,0,0,1-1.92,0,2.34,2.34,0,0,1-.52-2,1.94,1.94,0,0,1,.36-1,4.52,4.52,0,0,1,3.81.46c.62.43,1.25.58,1.65-.1,1.13-1.95,3.08-2.82,5.07-3.79a10.46,10.46,0,0,1-5.19-8,6.46,6.46,0,0,0-1.76-3.58c-.58-.66-1.5-1.29-.87-2.42a1.08,1.08,0,0,1,1.3.2c.77.83,1.95,1.24,2.35,2.41.18.8-.27,1.73.53,2.39h0c.62.53,0,1.38.48,1.92h0a5.91,5.91,0,0,1,3.53,2.36c.46.25.94.46,1.41.69a5.14,5.14,0,0,1,1.79,1.27l.48.47C58,26.72,58,26.72,56.65,29.47a15.45,15.45,0,0,1-2.12,3.67,2.84,2.84,0,0,1-2.51,1C49.69,33.88,47.27,35.05,45,33.71Z"/><path class="cls-65" d="M52.71,33.7c2.91-1,2.74-4.32,4.5-6.25.51-.55-1.38-1.34-1.62-2.4a6.63,6.63,0,0,1,2.4,1c0,1.21,1.9,2.4-.37,3.67-1,.58-1.48,2.33-2,3.64a1.74,1.74,0,0,1-2,1.28.63.63,0,0,1-1,0l0,0A.64.64,0,0,1,52.71,33.7Z"/><path class="cls-66" d="M62.31,33.72c.29.73.59,1.47.88,2.21.86,2.24.13,3.34-2.34,3.52a1,1,0,0,1-.06-1.31c1.11-1.48.49-2.67-.54-3.82a.68.68,0,0,1,.08-.62c.17-.39.21-.91.83-.84A1.51,1.51,0,0,0,62.31,33.72Z"/><path class="cls-67" d="M60.33,33.7l.09.53c-.12,1.56-.19,3.15-2.27,3.39L58,37.45l-.45-.84a13.09,13.09,0,0,1,.95-2c.18-.3.35-.6.53-.89Z"/><path class="cls-6" d="M55.11,24.58a2.66,2.66,0,0,1-2-.9c-.76-.74-.69-1.22.43-1.39a1.82,1.82,0,0,1,1.52.85c0,.16,0,.31,0,.47C55.11,23.93,55.11,24.26,55.11,24.58Z"/><path class="cls-68" d="M12.4,2.5c.54-.75,1.38-.36,2.07-.57,2.66.1,5.17,1.42,7.9,1,1.63-.32,1.41.6,1.07,1.6a1.88,1.88,0,0,1-.83.75c-.8.3-1.68.23-2.48.51A6.22,6.22,0,0,1,18.71,6a4.23,4.23,0,0,1-.71,0,12,12,0,0,1-3.92-1.43A3.33,3.33,0,0,1,12.4,2.5Z"/><path class="cls-69" d="M23,4.39c.42-.73.55-1.35-.58-1.49l2-1c.17.63.35,1.25.53,1.88a1.49,1.49,0,0,1-1.34.9A.85.85,0,0,1,23,4.39Z"/><path class="cls-70" d="M4.21,26.49c0-2.41,2-4,2.44-6.22.92-.52,2-.71,2.63-1.78a1.81,1.81,0,0,1,2-.77c.74.69.29,1.33-.17,1.85-2.14,2.39-4.37,4.7-6.6,7Z"/><path class="cls-71" d="M11.43,17.86c-.86.44-1.88.57-2.33,1.67s-1.6.6-2.45.74c.28-1,1.6-1,1.9-1.93,1-.88,1.82-2.07,3.4-1.9C12.37,17.13,12.08,17.56,11.43,17.86Z"/><path class="cls-72" d="M4.7,32.74l-1,0c0-1.27.05-2.53.08-3.8a.81.81,0,0,1,.74-.22,1,1,0,0,1,.58.54A3.63,3.63,0,0,1,4.7,32.74Z"/><path class="cls-70" d="M4.24,28.87l-.47.05c.07-.83-.32-1.73.44-2.43l.06,0A1.68,1.68,0,0,1,4.24,28.87Z"/><path class="cls-73" d="M4.7,32.74c0-1.28,0-2.56,0-3.84,1.32-.7,2.4-1.42,2.54-3.23.12-1.39,1.54-2.11,2.72-2.78.6-.35,1.59-.57,1.38-1.4-.63-2.46,1.25-4,2-5.91,0-.61,0-1.21,0-1.82-.36-2.74,0-5.5-.23-8.24A3.58,3.58,0,0,1,13,4.73c.18-.68.33-1.42,1.26-.67l3.9,1.34a.7.7,0,0,1-.22,1.17c-1.32.7-1.45,1.9-1.46,3.19-.1.47-.56.92-.48,1.32.75,3.76-.07,7.27-1.07,10.91-.77,2.8.31,3.35,3.59,2.52a2.65,2.65,0,0,1,1.39.27,1,1,0,0,1,.41.54c-.84,1.94-3.3,3-6.15,2.73-.3,0-.59-.28-1,.1,1.57.47,1.8,1.69,1.8,3.05a3.69,3.69,0,0,1-.6,2.64c-2.59-.21-5.24,0-7.71-1.11-.15-.59-.42-1.25-.88-.26A8.65,8.65,0,0,0,5.6,35C5.19,34,5,33.36,4.7,32.74Z"/><path class="cls-74" d="M14.3,33.69l0-2.87a.5.5,0,0,1,.59-.06c.94.51.44,2.54,2.26,2.12a2.93,2.93,0,0,1,1,0,3.19,3.19,0,0,1,1.77.82.69.69,0,0,1,0,.45c-1.05,0-1.41,1.13-2.26,1.46-.91-.2-1.78-.3-2.2.81l-.25.18c-1.54.39-2.46,2.11-4.24,2l-.52-.07c0-1.3,1.22-1.11,1.85-1.52-1.43,0-2.51,1.85-4.22,1v0c-.44-.3,2.09-1.27-.31-1.22-1.29,0-1.17-1.17-1.15-2.11,1.7-1.18,3.62-.57,5.45-.65C12.85,34,13.64,34.35,14.3,33.69Z"/><path class="cls-75" d="M14.3,33.69c-.14,1.17-1,1-1.79,1-2,0-3.92,0-5.87,0V32.73C9.22,32.8,11.87,32.38,14.3,33.69Z"/><path class="cls-76" d="M1.86,34.23l.36-.38c.8.32,1.06,1.12,1.5,1.76C4,36.79,4.26,38,5.64,38.47c0,.8-.31,1.54-1.24,1.24s-1.81-.07-2.25-1.33C1.66,37,2.22,35.58,1.86,34.23Z"/><path class="cls-77" d="M18.63,41.37a1,1,0,0,0,.46,1c0,.64,0,1.28,0,1.92a.67.67,0,0,1-.95,0,1,1,0,0,0-1-.51H15.7a3.14,3.14,0,0,0-1.48.29.87.87,0,0,1-.84-.3v-.95c.55-1.17,1.16-2.2,2.67-1.18,1.12.33.93-.8,1.36-1.23a1.2,1.2,0,0,1,.63-.25C18.72,40.32,19.11,40.63,18.63,41.37Z"/><path class="cls-78" d="M13.38,43.76l.94,0a.55.55,0,0,1,.47.47c.5,1.1,1.85,1.07,2.56,1.94.42.51.71.82.14,1.34s-1.07.84-1.42.3C15.19,46.47,13.26,45.78,13.38,43.76Z"/><path class="cls-79" d="M13.36,39.47c1.62-2.63,2.58.19,3.85.45.38-.14.49.06.5.39l-.1.18a3.16,3.16,0,0,1-2.34.45c-.66-.07-1.37,0-1.91-.51Z"/><path class="cls-80" d="M13.36,40.43l1.89,0c.8.48,1.13,1.07.5,1.92-1.15-1.61-1.54.55-2.38.48C12.09,42,13.42,41.22,13.36,40.43Z"/><path class="cls-81" d="M15.76,43.3c.53,0,1.09-.09,1.43.48-.5.68-1.25.41-1.91.47C15,43.7,15.5,43.56,15.76,43.3Z"/><path class="cls-82" d="M18.16,44.29l.95,0c-.09.45.23,1.22-.57,1.16C18,45.38,18.19,44.71,18.16,44.29Z"/><path class="cls-83" d="M15.76,43.3l-.48,1h-.49c-.16-.16-.32-.31-.47-.47C14.66,43.21,15.22,43.3,15.76,43.3Z"/><path class="cls-84" d="M17.71,40.31l-.5-.39c0-.7.42-1.08,1.06-.82a2,2,0,0,1,1.3,2.26h-.94A1.1,1.1,0,0,0,17.71,40.31Z"/><path class="cls-74" d="M16.68,36.59c0,.3,0,.59,0,.88-.69.07-1.29,0-1.4-.86l.07-.07A1,1,0,0,1,16.68,36.59Z"/><path class="cls-17" d="M8.11,38c1.73.09,3-1.79,5-1.26l-2.65,1.75H8.54Z"/><path class="cls-85" d="M58.15,37.62c1.35-.73,1.43-2.32,2.27-3.39,1.88.93,2.45,2.14.94,3.9a4.17,4.17,0,0,0-.51,1.32C59.11,40.08,58.41,39.18,58.15,37.62Z"/><path class="cls-86" d="M50.87,39.38l0-.84,1.87-.11a.36.36,0,0,1,.13.37c0,.14-.06.2-.1.2s-.1.26-.15.38Z"/><path class="cls-87" d="M52.74,39l0-.57a.85.85,0,0,1,1.48.06C53.83,39,53.27,39,52.74,39Z"/><path class="cls-88" d="M49,42.42a2.73,2.73,0,0,1,.4-2h1.43c0,.34,0,.68,0,1s0,.6,0,.9Z"/><path class="cls-89" d="M58.48,34.61c-.12.76.36,1.8-.95,2l-.59-.06A2.83,2.83,0,0,1,58.48,34.61Z"/><path class="cls-90" d="M20.06,5.36c.7-.67,1.59-.35,2.4-.48.79.4,1.8.24,2.47,1a19.13,19.13,0,0,1,.71,7c0,2.35.33,4.68.16,7-1,1.07-.78,2.6-1.39,3.82h-.48c-.68-.59-.42-1.46-.64-2.18,0-2,0-4,0-5.94s.08-3.59-1.11-5.35C21.22,8.77,21.67,6.59,20.06,5.36Z"/><path class="cls-91" d="M24.93,5.83c-.95,0-2,.22-2.47-1L23,4.39l.49.05c.45.27,1.11-.1,1.46.48Z"/><path class="cls-92" d="M24.9,4.92c-.53,0-1.11.09-1.46-.48l1.43-.63C25.22,4.17,25.07,4.55,24.9,4.92Z"/><path class="cls-93" d="M43.58,13.54c1.25,1.84,3.48,3.37,3.35,5.66-.14,2.57,1.93,3.94,2.41,6.11.2.89,1.61.74,2.45,1.13,1.07.49,1.32,1,.08,1.49a9.79,9.79,0,0,0-5.38,4.24c-.23.39-.77.71-1,.42-1.09-1.59-3-.93-4.37-1.75-1,.59-1.54-.2-2.12-.79-.65-1.11-.51-2.48-1.18-3.58h0c-.6-.73,0-1.7-.46-2.46l-.57-4.67c.17-1.93.74-3.83.53-5.8C39.43,12.77,41.51,11.68,43.58,13.54Z"/><path class="cls-94" d="M43.58,13.54c-2.07-.48-4.15.15-6.22,0,0-.86,0-1.72,0-2.57-.11-1.48.4-2.34,2-2.28l1.84,0A8.79,8.79,0,0,1,45,13.54Z"/><path class="cls-95" d="M39.25,29.87c.69.23,1.07,1,1.91,1v.95c-.65.47-.25,1.45-.94,1.9l-.52.05c-.17-.33-.35-.66-.53-1,0-1.22-.47-2-1.82-2V28.92a2.16,2.16,0,0,1,.44,0C38.27,29.26,38.89,29.36,39.25,29.87Z"/><path class="cls-38" d="M39.25,29.87c-.7,0-1.38,0-1.46-.93.94-.8-.33-1.65.07-2.47A7,7,0,0,1,39.25,29.87Z"/><path class="cls-38" d="M37.4,24c.6.74.39,1.63.46,2.46C37,25.8,37.44,24.86,37.4,24Z"/><path class="cls-96" d="M44.2,5.94a10.72,10.72,0,0,1-6.82,1.23A15.41,15.41,0,0,1,44.2,5.94Z"/><path class="cls-42" d="M55.11,23.14l-1.42-.5c-.83-.54-1.36.09-1.95.5l-3.36-2.88c2.33-.3,4.51.45,6.72,1,.14.72,1.29.76,1.18,1.53C56.2,23.3,55.53,23.07,55.11,23.14Z"/><path class="cls-42" d="M48.38,20.26c-.7-.5-.39-1.26-.48-1.92C49.09,18.73,48.39,19.58,48.38,20.26Z"/><path class="cls-73" d="M20.06,5.36a2.15,2.15,0,0,1,2.28,2.75c-.51,1.67.57,2.16,1.31,3,.48.51.24,1,.24,1.53,0,2.86,0,5.72,0,8.59a.44.44,0,0,1-.57.1A4.57,4.57,0,0,1,22.58,20c0,.59.42.83.55,1.23a.73.73,0,0,1-.22.88A3.43,3.43,0,0,0,22,25.06a1.4,1.4,0,0,1-1.92,0h0c-.93-2.55-.24-5,.64-7.36a10.73,10.73,0,0,0-.41-7.41c-.86-1.5-1-3.27-1.66-4.87Z"/><path class="cls-97" d="M20.07,25.06H22c.19,2.13-2.1,2.21-3,3.5a3.46,3.46,0,0,0-.85,2.26,1.68,1.68,0,0,1,0,2.39h-.95c-1-.33-1-1.18-1-2,0-1.68-1,0-1.36-.44h-.47c-.08-.81.25-1.87-1.13-1.91-.84,0-1.5-.36-1.15-1.29s1.25-.68,2-.4A6,6,0,0,0,20.07,25.06Z"/><path class="cls-98" d="M18.14,33.21c0-.8,0-1.59,0-2.39.77.07,1.77-.3,1.93,1,0,.63-.1,1.27-.16,1.91C19.3,33.64,18.59,33.89,18.14,33.21Z"/><path class="cls-99" d="M23.44,21.2h.47c0,.81,0,1.62,0,2.43-1.61.39-.72-1-1-1.47l.06-.93A.28.28,0,0,1,23.44,21.2Z"/><path class="cls-100" d="M25.83,29.39c2,1.35,3.16,3,2.23,5.53-.3.82-.67,1.63-1.75,1.65-2.75.13-4-1.1-3.69-3.7.09-.67-.15-1.43.37-2C23.9,30.29,24.49,29.1,25.83,29.39Z"/><path class="cls-101" d="M23,30.83c-.09,4.39-.09,4.39,3.32,5.74-1.24,2-3.17.52-4.73.91-.6-1,.47-2.35-.56-3.31,0-.15,0-.31,0-.47.36-.28.48-.81,1-1C22.77,32.32,22.15,31.2,23,30.83Z"/><path class="cls-102" d="M22,32.73a.9.9,0,0,1-1,1c.09-.56-.29-1.3.36-1.63C21.89,31.81,21.9,32.41,22,32.73Z"/><path class="cls-103" d="M16.68,36.59l-1.37-.05c0-.67-.33-1.52.64-1.8a1.42,1.42,0,0,1,1.74.88A1.75,1.75,0,0,1,16.68,36.59Z"/><path class="cls-104" d="M52.72,34.67h1c.91,1,1,1.94-.31,2.61-.48.24-.59-.32-.67-.71Z"/><path class="cls-105" d="M52.71,33.7c0,.31,0,.63,0,.95-1.65.05-3.34-.22-4.87.73-1.13.71-1.69-1.12-2.79-.73,0-.31,0-.63,0-.94Z"/><path class="cls-106" d="M41.61,33.63c.54-.75,1,0,1.48.1.37.63,2.7,1.24,0,1.9-.32-.33-.65-.65-1-1C41.22,34.69,41.42,34.16,41.61,33.63Z"/><path class="cls-107" d="M41.61,33.63l.52,1c0,.32,0,.64-.07,1-1.19-.08-.75-1.74-1.84-1.92.11-.74-.33-1.74.94-1.9C41.29,32.41,41,33.12,41.61,33.63Z"/><path class="cls-108" d="M40.17,36.62c-.31,0-.74.39-.84-.21s.28-.76.79-.78C40.14,36,40.15,36.29,40.17,36.62Z"/><path class="cls-109" d="M36.85,36.27c-.06.32-.12.67-.54.63a.83.83,0,0,1-.82-.72.64.64,0,0,1,.69-.77A.81.81,0,0,1,36.85,36.27Z"/><path class="cls-110" d="M13.81,15.9c-.83,1-.79,2.54-2,3.34-.15.1-.29.51-.21.62,1.66,2.58-.42,3.11-2.08,4-.88.47-2,1.16-1.86,2.26.36,2.52-1.09,2.8-2.95,2.8a3.71,3.71,0,0,1-.47,0l0-2.34C5.79,24,8.08,22.13,10,20c.57-.64,1.39-1.1,1.4-2.11.18-.47.35-.95.52-1.42a1,1,0,0,0,.93-.47A.62.62,0,0,1,13.81,15.9Z"/><path class="cls-68" d="M13.81,15.9l-.93.07a68.38,68.38,0,0,1-.46-11.53c.52-.3.66.21.94.43v0c.46,2.18.08,4.38.22,6.57.05.85-.25,1.74.25,2.54Z"/><path class="cls-111" d="M13.36,4.87l-.94-.43c0-.65,0-1.29,0-1.94l1.85,1.56C13.61,4,13.44,4.36,13.36,4.87Z"/><path class="cls-50" d="M51.74,23.14c.34-1.37,1.1-1.11,1.95-.5-.89,0-.7.52-.53,1Z"/><path class="cls-112" d="M18.64,5.42c.93,1,2,1.89,1.64,3.46-.05.21-.05.62,0,.66,2.71,1.17,1,3.65,1.6,5.45a3.91,3.91,0,0,1-.74,3.1c-1.16,2-.84,4.61-1.12,7H18.63c-.86-1-.41-2,0-3.11a14.63,14.63,0,0,0,.95-8.6c-.38-2-1.25-3.38-3.39-3.65-.62-1.54-.67-2.86,1.29-3.42.45-.13.56-.48.63-.88Z"/><path class="cls-113" d="M16.23,9.7c1.93-.83,3-.26,3.6,1.83,1.05,3.88,1.1,7.61-.94,11.2a5,5,0,0,0-.26,2.33C17.32,25,16,27,14.69,25a4.4,4.4,0,0,1,0-4.94,8.41,8.41,0,0,0,.88-6.9C15.09,11.58,15.16,10.7,16.23,9.7Z"/><path class="cls-111" d="M13.84,14c-1.07-3-.24-6.08-.47-9.12C14.34,7.9,13.51,11,13.84,14Z"/><path class="cls-114" d="M14.79,30.82a7.32,7.32,0,0,0,.49-1c.11-.39.19-.79.69-.78s.7.51.72,1c.06,1.09-.14,2.21.5,3.21C15.57,33.73,15.57,33.73,14.79,30.82Z"/><path class="cls-115" d="M15.75,42.33a3.19,3.19,0,0,0-.5-1.92l2.36.08C18.28,42.4,17.17,42.53,15.75,42.33Z"/><path class="cls-116" d="M43.11,28.9c-2.57.58-4.42-1.18-3.83-3.72a12.41,12.41,0,0,0,.18-6.57c-.35-1.16.6-2.17,1.22-2.89s1.25.7,1.92.85c3.5.77,2.57,4.19,3.69,6.3,1,1.85-.76,3.51-2.2,4.79-.42.37-1,.57-1,1.24Z"/><path class="cls-116" d="M43.11,28.9c.43.06,1-.15,1.18.42,0,.09-.21.41-.36.43-.64.1-.75-.37-.82-.85Z"/><path class="cls-117" d="M23.44,21.2l-.23,0H23c-1.62-.36-.78-1.54-1-2.73C23.18,19.27,23.14,20.33,23.44,21.2Z"/><path class="cls-118" d="M24.82,35c-.75-.81-.19-1.33.26-2C25.44,33.84,25.54,34.46,24.82,35Z"/><path class="cls-119" d="M19.58,16.9a5.88,5.88,0,0,1-.85,4.15c-.32.41-.65,1.3-1.48.82a1.29,1.29,0,0,1-.81-1.55c.55-1.8.16-3.65.26-5.47.06-1-.09-2.1,1.24-2.19s1.55,1.09,1.63,2.14C19.63,15.44,19.58,16.08,19.58,16.9Z"/></g></g></svg>