<svg xmlns="http://www.w3.org/2000/svg" viewBox="0 0 91.31 66.97"><defs><style>.cls-1{fill:#b4deea;}.cls-2{fill:#e63d36;}.cls-3{fill:#e93430;}.cls-4{fill:#b2dce8;}.cls-5{fill:#ccebf6;}.cls-6{fill:#ea3832;}.cls-7{fill:#e94e3c;}.cls-8{fill:#e53a35;}.cls-9{fill:#eb6852;}.cls-10{fill:#e26150;}.cls-11{fill:#e1f0f8;}.cls-12{fill:#98d5e6;}.cls-13{fill:#c4e3ef;}.cls-14{fill:#e63b34;}.cls-15{fill:#eb3b38;}.cls-16{fill:#ed8878;}.cls-17{fill:#ed5139;}.cls-18{fill:#e83333;}.cls-19{fill:#e24e47;}.cls-20{fill:#fbf9fb;}.cls-21{fill:#a1daea;}.cls-22{fill:#9fd9e5;}.cls-23{fill:#db8c79;}.cls-24{fill:#e73633;}.cls-25{fill:#f6c9bb;}.cls-26{fill:#f0a68e;}.cls-27{fill:#e25d46;}.cls-28{fill:#d5868b;}.cls-29{fill:#ed775d;}.cls-30{fill:#ec6048;}.cls-31{fill:#ee6d55;}.cls-32{fill:#ed7759;}.cls-33{fill:#ee886e;}.cls-34{fill:#f4805f;}.cls-35{fill:#ec5e46;}.cls-36{fill:#eb5b41;}.cls-37{fill:#eb806b;}.cls-38{fill:#d46d5a;}.cls-39{fill:#e1f2fa;}.cls-40{fill:#e5f3f9;}.cls-41{fill:#77d0eb;}.cls-42{fill:#e94e3b;}.cls-43{fill:#f1977d;}.cls-44{fill:#ef8d72;}.cls-45{fill:#ed7459;}.cls-46{fill:#ee785b;}.cls-47{fill:#e96b50;}.cls-48{fill:#ec6a50;}.cls-49{fill:#ee7c62;}.cls-50{fill:#ed6f56;}.cls-51{fill:#ee5a45;}.cls-52{fill:#ee5944;}.cls-53{fill:#e9866c;}.cls-54{fill:#ea4a38;}.cls-55{fill:#eb735a;}.cls-56{fill:#d95438;}.cls-57{fill:#d6effa;}.cls-58{fill:#ed8065;}.cls-59{fill:#f4c1ac;}.cls-60{fill:#eb6751;}.cls-61{fill:#ed2e30;}.cls-62{fill:#f8d4c6;}.cls-63{fill:#f08367;}.cls-64{fill:#f6a187;}.cls-65{fill:#ef886e;}.cls-66{fill:#f0876b;}.cls-67{fill:#f2957a;}.cls-68{fill:#f39f84;}.cls-69{fill:#f6aa91;}.cls-70{fill:#e8846b;}.cls-71{fill:#ed997f;}.cls-72{fill:#f3ad96;}.cls-73{fill:#f5b9a4;}.cls-74{fill:#f5ac93;}.cls-75{fill:#f7b7a1;}.cls-76{fill:#f1a991;}.cls-77{fill:#f29a80;}.cls-78{fill:#ed7c60;}.cls-79{fill:#f0957c;}.cls-80{fill:#ed7259;}.cls-81{fill:#f28165;}.cls-82{fill:#f0765a;}.cls-83{fill:#f07c5f;}.cls-84{fill:#f7cfbf;}.cls-85{fill:#eb9c84;}.cls-86{fill:#f28e73;}.cls-87{fill:#f2977d;}.cls-88{fill:#f5ad93;}.cls-89{fill:#f18e73;}.cls-90{fill:#e58169;}.cls-91{fill:#e97f65;}.cls-92{fill:#f59275;}.cls-93{fill:#ece0de;}.cls-94{fill:#f17e63;}.cls-95{fill:#f1957a;}.cls-96{fill:#f29478;}.cls-97{fill:#ea987d;}.cls-98{fill:#ea947c;}.cls-99{fill:#f4957a;}.cls-100{fill:#ee7559;}.cls-101{fill:#e5725e;}.cls-102{fill:#f6b8a2;}.cls-103{fill:#eea187;}.cls-104{fill:#fad4c5;}.cls-105{fill:#f5c5b4;}.cls-106{fill:#f9c3b0;}.cls-107{fill:#f3b69f;}.cls-108{fill:#f9b9a4;}.cls-109{fill:#ee6a51;}.cls-110{fill:#ec654e;}.cls-111{fill:#ee7157;}.cls-112{fill:#e9664e;}.cls-113{fill:#da5645;}.cls-114{fill:#f5a58c;}.cls-115{fill:#f7b199;}.cls-116{fill:#f9bba5;}.cls-117{fill:#e75c45;}.cls-118{fill:#ea987f;}.cls-119{fill:#e7674e;}.cls-120{fill:#f8b29a;}.cls-121{fill:#e7937c;}.cls-122{fill:#ea947d;}</style></defs><title>santahat</title><g id="Layer_2" data-name="Layer 2"><g id="Layer_1-2" data-name="Layer 1"><path class="cls-1" d="M89.63,54.26c2.25,1.82,2.24,3.44,0,5.84L89.28,60a2.2,2.2,0,0,0-1.11-.25c-.3,0-.85-.2-.8.39,0,.18.54.17.82.32a.44.44,0,0,1,0,.59l-.48.93c-.6.5-1,1.38-2.06,1a4.76,4.76,0,0,1-.89-1.4c-1.07-2.14-.56-3.19,1.79-3.8.64-.17,1.73,0,1.71-.89s-1.12-.9-1.88-1c-3-.41-3.38-1.12-1.93-3.81a1.2,1.2,0,0,0-.4-1.8c-1.78-1.43-4.14-.82-5.38,1.4S76,54.4,74,53a1.21,1.21,0,0,1,.13-.65c.66-.7,1.75-.1,2.49-.89-.88.35-1.67.72-2.46.09a1.09,1.09,0,0,1-.1-1,1.69,1.69,0,0,1,.52-.51c1.59-.9,2.43-2.69,4.22-3.42,1.13-.47,2.07-.7,3.11,0l1.4.06c.49.4,1.16.42,1.69.73,1,.54,1.68,1.55,2.67,2.13.92,1.1.14,2.87,1.49,3.8C89,53.82,88.77,54.3,89.63,54.26Z"/><path class="cls-2" d="M74.53,50.4a.27.27,0,0,0-.27.09c-.47.48-.25,1.4-1.06,1.67a1.27,1.27,0,0,1-1-.12c-1.27-1.71-1.57-4-3.17-5.51h0c-.62-.29-.8-1-1.25-1.42a12.15,12.15,0,0,1-2.51-4.49,1.36,1.36,0,0,1,.13-.62,15.91,15.91,0,0,0,1.74-1.21,1,1,0,0,1,.62.18c1,1.22,2.25,2.22,3.08,3.46.13-.78-.45-1.9.61-2.63.71.1.74.64.83,1.14-.06-1.31-1.28-2.71.09-4,1.15.27,1,1.34,1.28,2.11-.38,2.15.34,4.25.32,6.38a1.06,1.06,0,0,1-.16.6.36.36,0,0,1-.36.14c.13.22.21-.07.34-.05s.32-.09.38.13a.33.33,0,0,0,.07.39C74.92,47.85,75.67,49.06,74.53,50.4Z"/><path class="cls-3" d="M16.63,45.69a4.13,4.13,0,0,0-2.42.93h0c-.55.5-1.36.49-1.93,1h0a2.25,2.25,0,0,1-1.47.92h0L5.54,50.93c-.51.22-.81,0-1.07-.45a1.14,1.14,0,0,1,0-.63c.59-.94,1.76-1,2.52-1.71.57-.58,1.08-1.21,1.71-1.74L9.21,46c.95-1.24,2.52-1.6,3.63-2.6,2.58-1.4,5.1-3,8.16-3.12,5.4-1.86,10.88-1,16.35-.47,1.59.41,3.26.57,4.65,1.55a3.53,3.53,0,0,0,1.71,1c.84.38,1.67.78,2.48,1.21a9.7,9.7,0,0,0,2.17.94c1,.46,1.64,1,.91,2.19a2.23,2.23,0,0,1-1.87.38,2.15,2.15,0,0,1-1.47-.53A3.51,3.51,0,0,0,44,45.64,45.88,45.88,0,0,1,38.31,44c-1.88-1.08-4-1-6-.91-3.07.05-6.12.4-9.17.73a24,24,0,0,1-6.49,1.91Z"/><path class="cls-4" d="M72.39,51.9l.86.13a.94.94,0,0,1,.36.81,1.65,1.65,0,0,1-.18.57c-.31.32-.22.63.07.92a8.14,8.14,0,0,1,.41.77c.65.93,1.78.36,2.57.84a1.35,1.35,0,0,1,.45.47c.4,1.23-.19,1.86-1.23,2.43s-2.1,1.26-1.41,2.76c1.94,2.14,2.23,2.15,4.11.15,2.1-1.57,2.5-1.49,3.16.84.47,1.65,1.32,2,2.75,1.14A3.11,3.11,0,0,1,85.75,63c.67-.27,1.09-1,1.94-1,.23,3-3.55,6.07-6.17,4.59-1.83-1-3.37-.77-5.11-.73-.55,0-1.11,0-1.67,0-3.06-1.36-4-2.92-3.39-5.73h0c1-1.29,1.32-2.58,0-3.87-.66-1.27,0-2.51.05-3.77A1.29,1.29,0,0,0,72.39,51.9Z"/><path class="cls-5" d="M71.38,56.22c2.33,1.29,1.38,2.58,0,3.87A5.49,5.49,0,0,0,71.38,56.22Z"/><path class="cls-6" d="M4.63,50v.47c.61,1.05-.25.9-.83,1.08a1.88,1.88,0,0,1-2.38-1C.19,48.39.37,46,.64,43.7a4.25,4.25,0,0,0,.06-.94,26.79,26.79,0,0,1,1.47-7.67,1,1,0,0,1,1-.13,2.57,2.57,0,0,1,.38,3.22c-.29.54-.24.54.27,1a1.43,1.43,0,0,1,.28,1.11c-.13.8-.34,1.58-.54,2.37C2.21,45.37,4.13,47.59,4.63,50Z"/><path class="cls-7" d="M3.67,40.4C2.1,38.77,4,36.82,3.2,35.12c.09-.81,0-1.67.84-2.29-.58,0-.8.69-1.34.36a2.83,2.83,0,0,1,.59-1.92,1,1,0,0,1,1.1-.75,2.66,2.66,0,0,1,2.08,1.92c-.06,2.8-1.32,5.27-2.12,7.88A.51.51,0,0,1,3.67,40.4Z"/><path class="cls-7" d="M.7,42.76c.35,2.34-.16,4.78.94,7,.85,1.72,1.05,1.81,3,.69l.91.45a3.14,3.14,0,0,1-1.85,1.5,1.16,1.16,0,0,1-1.57-.09l-.45-.91C.12,50.16,0,48.45.25,46.66V45.15a1,1,0,0,1,.06-1.4Z"/><path class="cls-8" d="M2.7,33.19A6.33,6.33,0,0,1,4,31.92c.61-.32,1.33.45,1,.68-1,.66-.73,2-1.8,2.52l-1,0A2.77,2.77,0,0,1,2.7,33.19Z"/><path class="cls-9" d="M6.44,23.63a2,2,0,0,1,1-1.48c.61.27,1.53.06,1.67,1.07-.76,1.05-.84,2.68-2.51,3A.84.84,0,0,1,6,26,4.67,4.67,0,0,1,6.44,23.63Z"/><path class="cls-10" d="M6,26h.53c1,2.5-1.45,3.28-2.43,4.8l-.85.47C3.71,29.25,5,27.67,6,26Z"/><path class="cls-11" d="M84.78,47.61a3,3,0,0,1,1.93.47l1,1.44A5.11,5.11,0,0,1,84.78,47.61Z"/><path class="cls-12" d="M89.63,54.26c-.8,1.06-1.66-.21-1.66-.32,0-.82.74-.47,1.19-.62C89.55,53.52,89.59,53.89,89.63,54.26Z"/><path class="cls-13" d="M88.17,61.07l0-.51c.14-1.06.76-.84,1.41-.54l0,.08C89.55,61.06,88.84,61,88.17,61.07Z"/><path class="cls-14" d="M9.93,18.43c.48-.46,1.13-.78,1.25-1.53l3-2.93c.62-.53.89-1.49,1.89-1.55a.63.63,0,0,1,.31.42.43.43,0,0,0,.08.42.48.48,0,0,1,.22-.41,2.17,2.17,0,0,1,.56-.13,4.77,4.77,0,0,0,2.82-1.5c.3-.25-.37-.19-.5-.41a.81.81,0,0,1-.23-.57c.27-.8,1.12-1,1.6-1.58l1.46-1.38,6.78-3.76c2.26-.43,4.12-2.08,6.52-2.07a3.27,3.27,0,0,1,1.16-.18c.81-.05,1.95-.68,2.23.46.24,1-.92,1.31-1.68,1.68-.36.17-.76.22-1.13.37-.89.34-1.8.62-2.68,1a20.76,20.76,0,0,0-4.16,2,80.31,80.31,0,0,1-12.09,9.91,6.77,6.77,0,0,0-2.57,3,7.6,7.6,0,0,1-2.11,2.19,2.9,2.9,0,0,1-1.73.93,2.75,2.75,0,0,1-1.26-.52c-1-.92-1.35-1.82.12-2.63a.86.86,0,0,1,.3.3,1.06,1.06,0,0,0-.34-.36A1.14,1.14,0,0,1,9.93,18.43Z"/><path class="cls-15" d="M17.12,13h-.49c-.16.23-.32.22-.48,0v-.5c-.14-1.45,1.42-1.43,2-2.28l.39-.12a.67.67,0,0,1,1,0c0,.16,0,.31,0,.47C19.83,12.56,18.34,12.66,17.12,13Z"/><path class="cls-16" d="M18.13,10.26c-.27,1.11-1.7,1.19-2,2.28l-2,1.43A7.05,7.05,0,0,1,18.13,10.26Z"/><path class="cls-17" d="M19.51,10.18l-1,0a3.6,3.6,0,0,1,2.41-1.48A2.78,2.78,0,0,1,19.51,10.18Z"/><path class="cls-18" d="M70.4,29.34c.65,2.55,1.29,5.09,1.94,7.63-.44,2,1,4,.18,6.19-1.3-.9-.06-2.51-1.21-3.23a.53.53,0,0,1-.67-.06,16.45,16.45,0,0,1-1.77-4.74c-.25-2.72-1.56-5.1-2.43-7.62-.38-1.11-.87-2.2-1.21-3.33a8.34,8.34,0,0,0-.77-2.11,6.19,6.19,0,0,1-.3-.57c-.25-.58-.55-1.14-.79-1.73a2.24,2.24,0,0,1-.07-1c.41-1-.62-1.48-.85-2.25a4.24,4.24,0,0,1-.23-.59,7.54,7.54,0,0,0-.87-2c-.48-1.06-1.78-1.51-2-2.74-.28-1.51-1.55-2.17-2.62-3a8.94,8.94,0,0,1-1.93-1.59,2.79,2.79,0,0,0-1.11-1,4.3,4.3,0,0,1-.52-.35c-.91-.77-2.05-1.28-2.6-2.43a1.42,1.42,0,0,1,.7-1.47,1.11,1.11,0,0,1,.43.12c.51.61,1.31.6,2,.9h0a2.15,2.15,0,0,0,2,.78,8.81,8.81,0,0,1,2.74,2.3l.41.41c1.25.41,1.87,1.57,2.8,2.37,1.78,3,3.61,6,4,9.61a2.08,2.08,0,0,0,.93,1.87C68.79,22.57,69.66,25.93,70.4,29.34Z"/><path class="cls-14" d="M51.23,1.43c-.18.5-.35,1-.52,1.52-1.21.74-2.47,0-3.7.12a2.43,2.43,0,0,1-1-.35C45,.62,47.44,1.3,47.92.38a1.27,1.27,0,0,1,.95.14c.58.31,1.14.7,1.85.41Z"/><path class="cls-19" d="M53.62,2.45c-.78,0-1.75.36-2-.9A2.59,2.59,0,0,1,53.62,2.45Z"/><path class="cls-19" d="M55.5,3a1.41,1.41,0,0,0,0,.46c-.77-.07-1.81.38-1.93-1Z"/><path class="cls-20" d="M85.75,63l-1,.95c-2.68.89-3.25.57-3.43-2.06,0-.5,0-1-.54-1.16-1.16-.3-1.66.61-2.25,1.34-1.3,2.63-2.25,2.62-4.82,0-.44-1.83.69-2.7,2.11-3.32,1.23-.54,2.22-1.08.76-2.43h0c-.93-.93-2.4,0-3.33-1l-.05-1a.65.65,0,0,1,0-.9c0-.18.05-.36.08-.53a.73.73,0,0,1,.9-.17c2.31,1,3.3.76,3.85-1.34S80.5,49.07,82,48.78s2.66.86,3.54,2c.52.66.27,1.3-.6,1.69a1.37,1.37,0,0,0-.84,1.75c.28.94,1,1.11,1.89,1.06a7.63,7.63,0,0,1,1.91,0A1.82,1.82,0,0,1,89.26,57c.07.87-.67,1.13-1.49,1.16a13.68,13.68,0,0,0-1.38.31c-1.85.27-2.3,1.16-1.18,2.68A2.63,2.63,0,0,1,85.75,63Z"/><path class="cls-21" d="M89.56,60c-.5.1-1.08,0-1.41.54-.71.34-1.45.81-2.09-.07a.58.58,0,0,1,.34-.93C87.52,59.2,88.75,58.27,89.56,60Z"/><path class="cls-22" d="M74.4,51.45A2.3,2.3,0,0,0,77,49.89c0,2.5,0,2.5-2.72,2.48C74,52,73.91,51.7,74.4,51.45Z"/><path class="cls-23" d="M74.4,51.45l-.12.92a.41.41,0,0,0-.09.34l-.9.16c0-.28,0-.56,0-.84l1-1.54C74.31,50.81,74.35,51.13,74.4,51.45Z"/><path class="cls-24" d="M51.16,49.15c-.62-.54-1.53-.72-1.93-1.53a.93.93,0,0,1,.45-.65c.8-.24,0-.66.1-1a10.54,10.54,0,0,1,.84-8.64,2.59,2.59,0,0,1,.48-.61,8.13,8.13,0,0,1,6.14-2.23c1.75.07,3.5-.51,5.24,0a4.54,4.54,0,0,1,1.83,1,7,7,0,0,0,1.81,1.7,2.55,2.55,0,0,1,.77.95,1.87,1.87,0,0,1,.13.91c-.11.83-.41,1.37-1.36.81-.62-.35-.63-1.3-1.43-1.48-2.26-1-4.54-2-7.09-1a10.14,10.14,0,0,0-2.44.81c-1.29.19-1.81,1.31-2.56,2.14a3,3,0,0,0-.43,2c1,1.91.74,3.91.38,5.92A1.42,1.42,0,0,1,51.16,49.15Z"/><path class="cls-25" d="M67,39.1l-.37-.63c.18-.55.52-1.08.27-1.71.45-.76,1.37-1,1.89-1.67a.35.35,0,0,1,.53.13l1.59,4.62c.42,1.14-.16,1.25-1.06,1s-1.66-1.18-2.48-1.8A1.19,1.19,0,0,0,67,39.1Z"/><path class="cls-26" d="M67.39,39c1.08,0,1.74.91,2.64,1.32s.75-.09.9-.52l.38.09V43.6C69.91,41.89,68.18,40.9,67.39,39Z"/><path class="cls-27" d="M64.61,38c1.32.08.83,1.18,1,1.88,0,.17,0,.34-.08.5l-1-1A1,1,0,0,1,64.61,38Z"/><path class="cls-18" d="M73.8,46.1c-.56.78-1,.29-1.64-.14.66-.5,1.13.1,1.64.17Z"/><path class="cls-28" d="M2.12,52.34l1.57.08a2.7,2.7,0,0,1-1.87,1.26c0-.43-.07-.86-.11-1.3A2.85,2.85,0,0,1,2.12,52.34Z"/><path class="cls-19" d="M48.87.52l-1,.13c-.64.51-1.5.43-2.2.8-1.27.55-3-.46-4,1.1a9.74,9.74,0,0,1-1.51,1.5,1.13,1.13,0,0,1-.63,0c-1.24-.87-2.5.68-3.74,0a.42.42,0,0,1,0-.58c.83-.79,2.39-.37,2.9-1.84l-3-.14L37.31.63C40.16.42,43,.17,45.85,0A5,5,0,0,1,48.87.52Z"/><path class="cls-29" d="M20.48,40.9c-2.82.24-5,2.09-7.67,2.88a2.07,2.07,0,0,1-1.44.45A2.11,2.11,0,0,1,9.3,42.78c.6-1.56,2.34-.88,3.32-1.7,2.27-.39,4.06-2.07,6.35-2.41.06,0,.19.11.2.1,1.33-2,1.34-2,3.87-2.53,1.33-.3,2.44-1.5,4-1,1.21,1,2.59-.71,3.81.22.32-.49-.34-.82-.22-1.28a2,2,0,0,1,.12-.64c.48-.85,1.22-.42,1.9-.43,1.34,0,2.64.39,3.14-1.83.37-1.62,1.64-.62,2.27.43a2.22,2.22,0,0,1,.07,1.3c-.3,1-1.11,1.76-1,2.88-.1.46-.3.81-.83.83a7.42,7.42,0,0,0-3.56,1.43c-1.57,1.06-2.79.72-4.16.26-1.13-.37-2.07-.62-3,.45-.68.8-1.82.25-2.68.72S21.09,40.05,20.48,40.9Z"/><path class="cls-30" d="M20.48,40.9c.15-2.36,2.37-1.48,3.55-2.25.25-.16,1,.15,1.07,0,1.36-3.3,3.43-.46,5.09-.45.82,0,1.17.13,1.72-.57.39-.48,1-1.28,2-.5.49.41.94.19.74-.53s-.08-.93.55-1a.88.88,0,0,1,1.11.91c.17,1.23,0,2.63,1.47,3.25a.48.48,0,0,1,0,.6c-2.55.18-5-.57-7.6-.54A37.75,37.75,0,0,0,20.48,40.9Z"/><path class="cls-31" d="M9.42,42.79c.67.28,1.09,1,1.93,1-.3,1.18-2,1.44-1.94,2.84l-.45,0c-1.1-.53-1.85.52-2.81.63-3.32-1.38-3.63-1.84-3-4.49a3.83,3.83,0,0,1,.49-2.39l.44,0c.67.53.62,1.29.67,2,.51,2,.49,2,1.94.87.41-.32,1-.42,1.46-.74A1.11,1.11,0,0,1,9.42,42.79Z"/><path class="cls-32" d="M45.91,43.76c-1,.17-1.64-.53-2.39-1a1.35,1.35,0,0,1-.43-.88c.17-1.73,2.26-.95,2.82-2.17.73-.11,1.55.62,2.21-.24a1.42,1.42,0,0,1,1.35.51c.32.74-.11,1.4-.2,2.1C48.93,44.74,48.36,45,45.91,43.76Z"/><path class="cls-7" d="M3.18,42.79c-.64,2.8,1.92,3.15,3.34,4.36-.12.78.39,1.11,1,1.38L4.63,50c-.23,0-.54,0-.69-.17C2.94,48.89,2.43,44,3.18,42.79Z"/><path class="cls-33" d="M45.93,39.94c-.13,1.49-1.68,1.19-2.42,1.9a1.08,1.08,0,0,1-1.45,0L37.74,40.4a3.54,3.54,0,0,0,0-.46c1.16-1.82,2.84-.68,4.3-.75a3.31,3.31,0,0,1,2.77.14A1.68,1.68,0,0,1,45.93,39.94Z"/><path class="cls-7" d="M45.91,43.76c2.73.67,2.73.67,3.32-3.85-.29-1.54-.44-3,1.91-2.45-1.72,2.91-1.21,6.06-.92,9.18-.19.28-.48.23-.76.21l-.19-.21c.21-1.3-.8-1.44-1.64-1.77C47,44.62,46,44.91,45.91,43.76Z"/><path class="cls-34" d="M7.5,48.53c-1.38.28-1.11-.6-1-1.38.61-1.19,1.2-2.42,2.44-.5Z"/><path class="cls-35" d="M9.41,46.6c-.42-1.68.64-2.34,1.94-2.84l1.46,0C12.17,45.31,10,45,9.41,46.6Z"/><path class="cls-7" d="M49.75,47.12l-.52.5a3.84,3.84,0,0,1-1.92-.95l2,0h0C49.41,46.82,49.72,46.83,49.75,47.12Z"/><path class="cls-36" d="M42.06,41.86l1.45,0c0,.32,0,.63,0,.95C42.83,42.81,42.13,42.82,42.06,41.86Z"/><path class="cls-37" d="M62.65,38.49C61.2,36.26,58.9,37.27,56.93,37c2.8-1.46,5.22-.1,7.68,1,0,.46,0,.93,0,1.4Z"/><path class="cls-38" d="M54.55,38a3.47,3.47,0,0,0-.06.45l-2.35,1.91A2.78,2.78,0,0,1,54.55,38Z"/><path class="cls-39" d="M78.57,62a2,2,0,0,1,2.53-1.84c1.35.18.51,1.28.53,2.06.05,2.32,1.88,1.51,3.16,1.66C83,65.43,81.08,65.07,81,63,81,60.25,79.81,61.32,78.57,62Z"/><path class="cls-40" d="M76.62,56.25c.61.14,1.72-.41,1.69.64a2.45,2.45,0,0,1-2,2.14c-1.69.37-2.3,1.48-2.6,3-1.24-2,.27-3,1.59-3.66A1.77,1.77,0,0,0,76.62,56.25Z"/><path class="cls-40" d="M73.29,55.27c1.15.2,2.57-.54,3.33,1C75.51,55.94,74,57,73.29,55.27Z"/><path class="cls-41" d="M73.21,53.4l0,.9c-.43-.06-1.13.2-1.14-.44S72.79,53.47,73.21,53.4Z"/><path class="cls-42" d="M9.93,18.43l0,1.33h0c-1.17.79-.56,1.59,0,2.39-.06.57-.14,1.12-.94,1-.39-.47-1.58.26-1.47-1C8.22,20.85,8.71,19.4,9.93,18.43Z"/><path class="cls-43" d="M4.14,42.81l0-2.44c0-2.85,1.68-5.3,2-8.08.07-.4.26-.65.71-.63,1.2,1.63-.38,3.12-.22,4.7a9.18,9.18,0,0,1-.55,3.93c1.93.05,4,.46,5.13-1.15,1.4-2,3.94-2.73,4.92-5,.19-.45.62-1,.23-1.3-1-.91-.57-1.83-.21-2.8a2,2,0,0,1-.24-1.56c1.18-2.11,3.19-1.91,5.15-1.88,0-1.48.34-2.6,2.14-2.47,1-.3,1.49,0,1.52,1.05,0,.22,0,.43,0,.65,1.07,1,1.63,2.45,2.64,3.53a1.57,1.57,0,0,1,.46,1.52c-.2.73-.75.74-1.33.53-.37-.13-.46-.07-.82.24-1.5,1.33-2.34,1-3-1.11-.25,1.69,1.48,1.87,2.08,2.87.4.93,2,.45,2.08,1.76-1.83.71-4,.19-5.64,1.58-.24.19-.62-.25-.82-.24-.49,0,.35-1.46-.73-.57-.65.53-2.12.29-1.81,1.72.36,1.63-.65,2.06-1.84,2.3S13.91,41,12.79,41.36c-.62,1.65-2.49.37-3.37,1.43L8,42.81C6.71,42.81,5.42,43.48,4.14,42.81Z"/><path class="cls-8" d="M6.63,31.79l-.49.5a5.64,5.64,0,0,0-2-1.49c.25-1.89,2.55-2.73,2.43-4.8,1.19-.64,1.62-1.9,2.39-2.88.32-.32.63-.64.94-1a1,1,0,0,1,1,.5,1.12,1.12,0,0,1,.35.93c-.59,1.83-2,3.16-2.84,4.86a12.46,12.46,0,0,0-1,2.7A1.87,1.87,0,0,1,6.63,31.79Z"/><path class="cls-44" d="M17.09,16.37,27.71,8.12c.62-.48.48-1.57,1.43-1.79,2-.5,3.74-.16,4.71,1.95.14.91.6,1.79.23,2.75-1.79.38-2.61,0-4.31-1.21a1.64,1.64,0,0,0-2.07.77c-.12,2.69-2.46,3-4,4.16-1,.7-2.61.07-3.39,1.38-.54.54-1.51.66-1.6,1.65a1,1,0,0,1-.52.39,1.21,1.21,0,0,1-1.26-.43A1.22,1.22,0,0,1,17.09,16.37Z"/><path class="cls-45" d="M17.09,16.37v1.46a11.36,11.36,0,0,0-1.69,3.1,16.24,16.24,0,0,1-6.1,7.76A1.22,1.22,0,0,1,8,28.4c.5-1.88,1.87-3.23,2.88-4.8a13.57,13.57,0,0,0,1.43-1.93c1.41-1.07,2.16-2.66,3.18-4C15.92,17,16.25,16.41,17.09,16.37Z"/><path class="cls-46" d="M33.42,8.26c-1.08-1.41-2.69-1.66-4.29-1.93a11.23,11.23,0,0,1,4.3-1.93c.54.41.55,1.09.81,1.64.42.78,1,.21,1.46.13a.94.94,0,0,1,.63.14C36.51,8.29,35.66,8.86,33.42,8.26Z"/><path class="cls-47" d="M33.9,6.31c-.7-.51-.4-1.26-.47-1.91a4.82,4.82,0,0,1,2.4-1c0,.15,0,.31,0,.47.22.24.58.33.71.67a1.59,1.59,0,0,1-.73,1.74h0A4.49,4.49,0,0,1,33.9,6.31Z"/><path class="cls-17" d="M17.12,13c.82-.78,2.28-.92,2.4-2.39h1.82C19.87,11.89,19.22,13.65,17.12,13Z"/><path class="cls-42" d="M9.91,19.76c.94.12,1.25.71,1.23,1.67-1.28,0-1.2-.87-1.23-1.67Z"/><path class="cls-42" d="M12.3,21.67c-.14.9-.3,1.77-1.43,1.93v-1Z"/><path class="cls-17" d="M16.15,13h.48a1.35,1.35,0,0,1-1.14,1.39Z"/><path class="cls-48" d="M40.13,3.88A1.33,1.33,0,0,1,41.58,2.5a4.37,4.37,0,0,1,3.79-.42,2.62,2.62,0,0,1,.54.38l1,0c.29.28.78.29,1,.58.5.66.79,1.52,1.88.67.33-.25,1,.09,1.25.45.66.89,1.68.89,2.59,1.17h0a2.22,2.22,0,0,1,.74,1.09c-1,1-.24,1.41.57,1.84,1.38.73,2.4,2.1,4.07,2.33a1.92,1.92,0,0,1,.86.5c.12,1.3,2,1.43,1.9,2.89a1,1,0,0,1-.6.26,1.38,1.38,0,0,1-.61-.23c-1.07-1.51-2.56-.2-3.81-.54C54.92,11.85,52.53,10.94,51,9c-1.26-.37-2.75.3-3.45-1.9-.55-1.75-2.88-2.24-4.8-2.52A1.69,1.69,0,0,0,41.27,5a.78.78,0,0,1-.85-.22A1.32,1.32,0,0,1,40.13,3.88Z"/><path class="cls-49" d="M69.34,35.22l-.41,0c-2.52-1.55-3.47-4.31-5.07-6.56A7.16,7.16,0,0,1,63,26.84c.37-1.41-.34-2.79-.06-4.22.21-1.1.56-1.65,1.7-1h0c.34.62.31,1.42.89,1.94,1.25,3.16,2.54,6.3,3.73,9.48A7.15,7.15,0,0,1,69.34,35.22Z"/><path class="cls-50" d="M64.65,21.66c-2,.57-1.23,2.14-1,3.24.22.9.31,1.46-.51,2-.35.28-.61.05-.87-.17a5.74,5.74,0,0,1-1.18-2c-1.08-1.7-3-2.88-3.11-5.18-.25-.85.79-1.35.58-2.19l-.23-.56a1.2,1.2,0,0,1,0-.93,1.5,1.5,0,0,1,.55-.31c2.84-.22,1.34,2.17,2,3.26a2.35,2.35,0,0,1,2.84.95A2.86,2.86,0,0,1,64.65,21.66Z"/><path class="cls-51" d="M53.59,5.35c-1.05.56-2.15,1.51-2.71-.58-.09-.33-1-1.11-1.32-.64-1.72,2.16-1.42-.23-1.92-.78l-.77-.87A10,10,0,0,1,50.71,3C51.8,3.6,53,4.11,53.59,5.35Z"/><path class="cls-52" d="M58.88,11.1c-2.2-.15-3.42-2-5.11-3-1-.58.55-1.09.3-1.76a.66.66,0,0,1,1,0L57,7.76C57.29,9.05,58.92,9.59,58.88,11.1Z"/><path class="cls-53" d="M63.7,19.74a4.09,4.09,0,0,0-3.39,0c-.55-1.39.49-2.61.45-3.95a1.49,1.49,0,0,1,1.94.12,1.65,1.65,0,0,1,0,.44,16.72,16.72,0,0,0,.92,2.44Z"/><path class="cls-54" d="M58.88,11.1c-.77-1-2.2-1.7-1.93-3.34,1.14,1,2.71,1.56,2.89,3.35Z"/><path class="cls-55" d="M62.7,15.92H60.79c-1.35-1,.05-1.34.48-1.91h.47A2.49,2.49,0,0,1,62.7,15.92Z"/><path class="cls-50" d="M63.67,18.8c-1.13-.5-1-1.49-.92-2.44C63.22,17.11,64.25,17.65,63.67,18.8Z"/><path class="cls-56" d="M55,6.32h-1a1,1,0,0,1-.47-1C54.3,5.35,55,5.36,55,6.32Z"/><path class="cls-50" d="M65.53,23.61c-1.23-.22-.81-1.2-.89-1.94A2.39,2.39,0,0,1,65.53,23.61Z"/><path class="cls-18" d="M45.91,2.46h-.24l-.23,0a.94.94,0,0,1,0-1.38c.82,0,1.53-.69,2.4-.42.37.77,0,.91-.69.87S46,1.67,45.91,2.46Z"/><path class="cls-57" d="M82,52.4c-.14-.2-.36-.39-.33-.51a.6.6,0,0,1,.45-.36c.33,0,.6.17.48.53C82.59,52.2,82.28,52.26,82,52.4Z"/><path class="cls-58" d="M51.14,37.46c-1.68,0-1.52,1.44-1.91,2.45H47.82a1.53,1.53,0,0,1-.65-1.1.89.89,0,0,1,.24-.58c1.39-1.33-.24-2.46-.24-3.69a.73.73,0,0,1,.22-.52c.32-.15.56-.34.31-.75a1,1,0,0,1,0-.59c.51-.44.5-.76,0-1.06-.18-.12-.2-.41-.2-.65a5.74,5.74,0,0,1,.33-1.28,2.42,2.42,0,0,1,1.17-1.53,1.49,1.49,0,0,1,.63,0c.68.28,1,1,1.67,1.28a5.9,5.9,0,0,0,2.44.06,2.08,2.08,0,0,1,.66.11,1.71,1.71,0,0,1,.91,2.09c-.27.66-.61,1.24-1.43,1.26-1.13-.6-.91.37-1,.92-.05,1.33-2,1.62-1.69,3.16C51.18,37.18,51.16,37.32,51.14,37.46Z"/><path class="cls-59" d="M61.71,24.59c.3.64.61,1.27.92,1.91-.48,1-1,1.8-2.43,1.22.5.73,1.66.46,1.77,1.46.71,1.67.56,3.85,2.78,4.61a6.55,6.55,0,0,1,1.91,2.08c.28.34.1.82.37,1.16,1.48.9-.23,1-.38,1.44L66,37.53c-.61-.53-1.26-1-1.85-1.52l-1.38-1c-.6-.26-1.15-.62-1.75-.88-.78-1.19-1.31-2.53-2-3.79a12.24,12.24,0,0,0-1.48-3c-.77-1.5-1-3,.6-4.23,1.5-.1,1,1,1.08,1.57C59.87,23.39,60.74,23.64,61.71,24.59Z"/><path class="cls-60" d="M61.32,34.09a1.92,1.92,0,0,1,1.48,1c-4,0-8-.45-11.61,2-.92-1.14-.88-1.08.34-1.87.49-.32.73-1,1.08-1.52-.16-.83.46-.83,1-.92.73.06.92-.66,1.41-.95,1.48-1,2.86-.89,3.86.63C59.48,33.36,60.46,33.6,61.32,34.09Z"/><path class="cls-27" d="M64.18,36A2.3,2.3,0,0,1,66,37.53,2.17,2.17,0,0,1,64.18,36Z"/><path class="cls-61" d="M49.75,47.12l-.48-.48h.95c.36.06.94.13.7.58S50.15,47.19,49.75,47.12Z"/><path class="cls-62" d="M67,37a1,1,0,0,1-.48-1c-.44-.85-.19-2.39-1.93-1.9-1.72.24-1.84-1.59-2.89-2.22,1.47-.85-1.33-1.74,0-2.59,1,0,1.45-1.07,2.43-1l4.75,6.81C69.28,36.82,67.54,36.29,67,37Z"/><path class="cls-63" d="M40.13,3.88l.5.52c-.1,2.61-1.37,4.84-2.28,7.23.42,0,.52-.52.85-.7s.7-.51,1-.07c.47.62.14,1.23-.19,1.77-.73,1.16-.52,3.89-3.22,1.78-.56-.44-1.3.62-1.7,1.32-.69.63-1.21.54-1.5-.39-.09-1.13.94-2.15.34-3.34a.87.87,0,0,1-.05-.88c-.16-.95-.33-1.9-.49-2.86,1.28-.07,2.74.09,2.4-1.95.17-.64.34-1.27.5-1.9a4.71,4.71,0,0,1,3.35-.49Z"/><path class="cls-14" d="M45.44,1.07V2.45l-3.86,0c.07-.41-1.5-.88,0-1.17A26.53,26.53,0,0,1,45.44,1.07Z"/><path class="cls-48" d="M39.67,3.92c-1,.94-2.24.28-3.35.49l-.48-.51c.83-.25,1.67-.47,2.5-.75S39.58,3.05,39.67,3.92Z"/><path class="cls-64" d="M33.91,11.12l.46.48c-.46,1.6-2,.67-2.89,1.25-1.33-.23-1.93,1.72-3.4,1.08,1,2.76-.78,7.31-3.32,8.36,1.15,0,2.11,1.54,3.3.24a1.08,1.08,0,0,1,.42.5C29,25.3,27.93,27.69,29,30a2.55,2.55,0,0,0,.63,1c1.25.52,1.43,1.6,1.44,2.76v.47c-1.5-.15-3,2-4.5.09-.34-.86-.55,0-.83.08a1.17,1.17,0,0,1-1.38-.64c-.1-.12-.18-.3-.31-.35-2.44-1-2.13-2.71-1.25-4.77.92.63.42,1.35.29,2a1.11,1.11,0,0,0,.84,1.28,1.54,1.54,0,0,0,1.32-.24c.89-1,.9-1.09,2.1-.52.62-2.58-1.84-1.28-2.61-2,.17-1.07,1.35-.37,1.67-1.16-.47-1-3.19-.16-2.05-2.46,0-.59.24-1.51-.95-1-2-.64-.86-1.94-.65-3,.15-.58.9-1,.53-1.67-.16-.28-.72.14-1.11.05-1.25-1.57-.36-3,.43-4.3.23-.37.74-.58.79-1.12.68-.61,1.17-1.56,2.3-1.42.93.12,1.21-1,1.18-1.15-.46-1.81.58-2.1,2-2.55s1.27-.68,1.49.77c.05.39.53.66.58.6C32.15,9.12,32.85,11.51,33.91,11.12Z"/><path class="cls-65" d="M28.15,23.12c0-.15,0-.31,0-.46-.16-.35.3-.61.26-.75-.67-2.15-.68-2.15,1.56-2,1,.6,1.58,1.72,2.83,1.91A4.57,4.57,0,0,1,34,22.9a2.16,2.16,0,0,1,.29.59c.49,1.53.31,3.15.62,4.89.5-1,1.14-1.7,1.06-2.71-.15-1.83.82-2,2.23-1.54,1.66.92.87,2.22.56,3.45a2.87,2.87,0,0,0,.1,3.23c0,.7-.48.93-1.1,1-1-.81-1-.8-1.22.44s-2.78,2.07-4.3,1.44c-.47-.2-.81-.5-1.2,0-.47-.94-.81-2-1.92-2.4.21-1.35,1.7-2.38,1-4-.14-.32.27-.57.59-.61,1.06-.13,1.58.53,2,1.33-.91-1.4-1.07-3.28-2.76-4.19-.32-.06-.64-.12-1-.2A1.85,1.85,0,0,1,28.15,23.12Z"/><path class="cls-66" d="M12.79,41.36A5.47,5.47,0,0,1,16,39.55a1.38,1.38,0,0,0,1.24-1.78c-.94-2.9,2.6-1.47,2.87-3.1.24,2,1.34.95,2.34.77a39.37,39.37,0,0,1,4.21-.33c.47-.14.6.06.49.49a5.35,5.35,0,0,0-3.9,1.71l-.49.42c-1.2-2.35-2.69,1.67-3.76-.79-.4,1.57.76,1.28,1,1.89C17.41,39.13,15.52,41.42,12.79,41.36Z"/><path class="cls-67" d="M42.08,39.91c-1.45-.11-2.91-.8-4.36,0-2.18-.32-2.36-.74-1.41-3.39a1,1,0,0,0,.49-1c.06-.15.14-.34.27-.36a9.71,9.71,0,0,1,5.7,1.22C42,37.49,42.67,38.83,42.08,39.91Z"/><path class="cls-68" d="M42.55,36.56a1.25,1.25,0,0,0-1.69-.3c-.72.36-1.53,1.33-1.7-.42-.9,1-1.51-.72-2.36-.25-.56-1.14.45-1.68.93-2.41a8.67,8.67,0,0,1,5.4-.14,1.23,1.23,0,0,1,.17.62c-.12.51-.74,1,.05,1.51a1.35,1.35,0,0,1,.31.56C43.53,36.33,43.29,36.78,42.55,36.56Z"/><path class="cls-69" d="M43,33.21c-1.76,0-3.52.39-5.28,0,0-.48,0-1,0-1.42l1-1a1.91,1.91,0,0,1,.35-2c.93-.55,2.34-.5,2.23.47-.21,2,1.31,2.1,2.31,2.84A.84.84,0,0,1,43,33.21Z"/><path class="cls-65" d="M27.19,35.6l-.49-.49c-.49-1-2.27.19-2.39-1.43l1.43.47a.66.66,0,0,1,1,0c.69.4,1.6,1.32,2,0,.66-2.09,1-2,1.47,0a3.86,3.86,0,0,0,.81,0c-.31.83,1.48.67.79,1.58-.48.64-1.09.85-1.73,0-.47-.63-.69.3-1.11.35C28.28,36.16,27.56,36.62,27.19,35.6Z"/><path class="cls-70" d="M4.14,42.81c.81-1.1,2.65.71,3.33-1.18.08-.23.41.72.52,1.18-.59.92-1.08,1.89-2.44,1.92S4.13,43.8,4.14,42.81Z"/><path class="cls-71" d="M47.36,38.49l.46,1.42c-.61,1.16-1.26-.09-1.89,0l-1.45,0C44.77,38.1,46,38.2,47.36,38.49Z"/><path class="cls-72" d="M47.36,38.49c-.85.7-2.36.07-2.88,1.43a2.18,2.18,0,0,0-2.4,0c.14-1.12-1.54-2.5.47-3.35a1.65,1.65,0,0,0,1-1c.53-1.49.27-3.44,2.37-4a3.82,3.82,0,0,1,2,1.58h0c.28.54-.2.7-.49.95h0c-.14,1.45,1,2.88,0,4.34Z"/><path class="cls-73" d="M16.62,29.85c.14.57.9,1,.45,1.66,0,0-.62-.32-1-.49-.48,1.36,2.08,1.09,1.3,2.33-1,1.66-2.13,3.5-3.68,4.56a6.08,6.08,0,0,0-1.93,1.53c-1.58,2.33-4,1.16-6.1,1.48.13-1.5.25-2.92.38-4.35.69-1.34.68-3.09,2.29-3.88a1.64,1.64,0,0,1,.84,1.39c.23.94.45,1.85-.56,2.54-.31.2-.65.58-.27,1a.86.86,0,0,0,1.1,0c2-1.29,3.9-2.74,4.58-5.22-.39-1.29-1.58-2.29-1.37-3.8C14.75,27.14,14.75,27.14,16.62,29.85Z"/><path class="cls-74" d="M22.87,21.68c.27.95-.78,2.11.49,2.88-1.84-.17-1.47,1.46-1.94,2.4l-.28-.12a4.67,4.67,0,0,1-1.35-1.27,1.67,1.67,0,0,1-.11-.63,2.41,2.41,0,0,1,.52-1.19A4.27,4.27,0,0,0,20,19.58c-.2,0-.39.07-.58.12a2.1,2.1,0,0,0-1.72,2.39,2.9,2.9,0,0,1-.45,2,.77.77,0,0,1-.66.08,6.49,6.49,0,0,1-1.23-1.76c.23-3.42.67-4.05,3.21-4.57h0c1.55.16.81-1.4,1.44-1.92.42-2.11,2.23-1,3.36-1.45.41,1.53-1.52,2.28-1.24,3.83.08.48-.3,1.05.3,1.45C23.61,20.14,22.71,21,22.87,21.68Z"/><path class="cls-75" d="M20,25v.49c.31.64.94,1,1.43,1.45h0c0,.31-.18.81-.47.62-1.89-1.26-3.32-.13-4.8.82-.75-.71-1.23-1.47-.46-2.46C17,25.27,18.13,23.32,20,25Z"/><path class="cls-76" d="M16.14,26c-1,.81.12,1.61,0,2.41.16.48.32,1,.47,1.45-1.18-.73-2-2.93-3.84-1a1.14,1.14,0,0,1-1.47-.5c-.14-.77,0-1.35.88-1.56,1,.06,2.3.48,1.85-1.4,0-.79.06-1.58,1-1.92.6.22.7.81,1,1.28S16.39,25.55,16.14,26Z"/><path class="cls-77" d="M8.47,32.72,6.08,36.57c-.33-1.65,1.12-3.1.55-4.78L7,31.21a1.35,1.35,0,0,1,1.42-.15,1.11,1.11,0,0,1,.33,1.37Z"/><path class="cls-64" d="M19.07,31.37c.16.27.34.44.35.61,0,.33-.17.6-.53.49-.13,0-.24-.37-.23-.56S18.88,31.61,19.07,31.37Z"/><path class="cls-78" d="M8.43,31.23H7A3.51,3.51,0,0,1,8,28.4H9.43a1.13,1.13,0,0,1,.36.93A2.6,2.6,0,0,1,8.43,31.23Z"/><path class="cls-79" d="M9.44,29.36v-1c2.46-2.84,5.21-5.49,6-9.42a1.66,1.66,0,0,1,1.67-1.15h1.45c-2.37.75-2.59,2.8-2.87,4.8.31.56.32,1-.49,1l-.95,1.93c.37,1.82-1,1.36-1.92,1.44l-1,1.43-.12.29C10.73,29.17,10.36,30,9.44,29.36Z"/><path class="cls-79" d="M20,15.92c-.18.87.69,2.51-1.44,1.92C16.69,15.44,19.91,16.86,20,15.92Z"/><path class="cls-63" d="M33.9,6.31c.64-.85,1.28-.24,1.93,0-.46.47-.85,1.19-1.54,1.15C33.77,7.43,34,6.73,33.9,6.31Z"/><path class="cls-80" d="M34.88,15.43c.6-1.77,1.69-2.16,2.75-1,.52.58,1.36.33,1.26-.14-.29-1.38.91-2,1.53-3.65-1.27,1.12-2.15,1.8-3.77,1.54a3.1,3.1,0,0,0,1.89-2.86c.1-.69-.25-1.36.94-1.41.68,0,.72-.82.32-1.32-1-1.27.19-1.62.83-2.22l.48.48a.43.43,0,0,1,.61,0c.81,1.27.29,2.61.21,3.94-.14,2.38.37,3,2.5,3.38a4.62,4.62,0,0,1,4.1,3.15c-1.78,1.67-3.37.45-5-.31-.3-.66.21-.75.53-1-.31-.14-.63.22-1,.27,0,0-.61-.21-.24.23.12.15.44.16.63.31,2.23,1.89,2.23,1.89-.08,5.16a2.57,2.57,0,0,1-2,.1c-1.1-1.32-1.1-1.32.07-3C39.39,18.42,37.39,17.9,34.88,15.43Z"/><path class="cls-81" d="M48.32,15.43a7,7,0,0,0-3.86-2.88c-.25-1.05.56-1.43,1.22-1.9,2-.55,3.59-1.8,5.52-2.4,1.5,2.09,4.13,2.83,5.74,4.79.68,2.14-.16,3.51-2.2,3.61a1.35,1.35,0,0,1-1.12-.26c-1.09-1.09-2.34-1.22-4.27-.45C48.82,16.14,48.52,15.89,48.32,15.43Z"/><path class="cls-82" d="M51.2,8.25c-.14.83.42,2.51-1.5,1.23a2.42,2.42,0,0,0-.88-.17c.29,2.64-2,1.07-2.91,1.81-1-.26-1.5-.77-.94-1.87.39-.78.1-1.62-.69-1.68-2-.15-1.87-1.51-1.87-2.87.05-.1.1-.2.14-.3,1.47-.23,3-.78,4.09.88.52.78,1,2.1,2.23.69.53,1-.75,1.25-.58,2.28Z"/><path class="cls-55" d="M49.26,15.91c-.09-.52-.18-1-.34-1.93,1.89,1.51,3.69.94,5.45.39.45.86-1.29,1.26-.37,1.69a2.2,2.2,0,0,0,2.49-.75A3.4,3.4,0,0,0,56.94,13c1.29.33,3.18-1.84,3.86,1a1.13,1.13,0,0,1-1.06.38c-1.29-.19-1.31.68-1.35,1.55h0c-.51.65.25.67.48,1,.24,1.8-1,1.69-2.18,1.7-1.72-1.34-3.82-.15-5.64-.83C50.18,17.41,49.84,16.54,49.26,15.91Z"/><path class="cls-83" d="M58.39,15.92c-.75-2.17-.75-2.17,2.41-1.93h.47c.16.72-1.12,1.07-.48,1.91.24,1.33-.45,2.54-.48,3.84-.68-.55-.51-1.22-.25-1.89C60.75,16.14,59.81,15.82,58.39,15.92Z"/><path class="cls-82" d="M41.59,4.88h-.48c.31-.43.31-1.17,1-1.2.37,0,.4.4.44.72h0C42.33,4.76,42.13,5.16,41.59,4.88Z"/><path class="cls-84" d="M64.18,28.38c-.62.8-1.28,1.51-2.43,1-.25-.62-.69-.65-1.33-.67-1.12,0-1.29-1-.9-1.72s.81-.25,1.33.28c.89.91.89-1.13,1.78-.75l.55.36A2.07,2.07,0,0,1,64.18,28.38Z"/><path class="cls-85" d="M61.71,24.59c-1-.22-2-1-2.71.57-.07-.52-.14-1.05-.22-1.58,0,0-.13-.1-.19-.1s-.14.07-.21.11c-1,0-1.27.79-1.5,1.57a3.05,3.05,0,0,1-2.62-1.93,3.71,3.71,0,0,1-.37-1.67c.76-1.56,2.31.8,3-.67-.78,0-1.84.31-2-.86s.84-1.3,1.7-1.47c.7,0,1.43-.09,1.78.74C58.66,21.58,60.73,22.75,61.71,24.59Z"/><path class="cls-83" d="M58.37,19.3a3.1,3.1,0,0,0-1.84-.54l-.17-.23.14-.24c1.06,0,2.1-.07,2.37-1.41C60.28,18,58.44,18.47,58.37,19.3Z"/><path class="cls-83" d="M58.87,16.88c-.56-.14-1.47.35-1.61-.5-.09-.59.71-.38,1.13-.46Z"/><path class="cls-86" d="M49.27,28.4l-1,1.43a1.82,1.82,0,0,1-1.76.44,1.23,1.23,0,0,1-.8-.66c-.26-.6.42-1.56-.51-1.86s-1.11.87-1.64,1.35a1.28,1.28,0,0,1-2,.07c-.63-.7-1.42-.47-2.16-.56-.85-.88.13-1.44.36-2.13a16.17,16.17,0,0,1,1.54-1.76c1.13-1,1.56-2.56,2.54-3.7.81-.55,1.41-1.51,2.59-1.34.81,1.15.55,2.4.31,3.62a3.29,3.29,0,0,0,.46,2.89C47.37,27.41,48.9,27.37,49.27,28.4Z"/><path class="cls-87" d="M61.32,34.09c-1.06.1-2,.3-2.6-1.13-.67-1.68-2.34-1.15-3.71-1.18a1.68,1.68,0,0,0-.95-2c-.7-.83-1.25-1.78-.34-2.72s1.92-.39,2.83.1a7.42,7.42,0,0,1,2.8,3.12A7.41,7.41,0,0,1,61.32,34.09Z"/><path class="cls-88" d="M59.35,30.32c-1.14-.09-1.34-1.23-2-1.83-.92-.81-1.94-1.68-3.09-1.2s.16,1.68-.17,2.54l-.47,0c-1.18,0-1.05-1.15-1.54-1.76-.68-2.7.08-3.34,3.41-2.88a2.35,2.35,0,0,0,1.48-.15c.32-.79-1.24-1.35-.39-2.09s1.07.82,1.83.62c-1.07,1.16-.93,2.31-.22,3.65C58.66,28.2,60,28.92,59.35,30.32Z"/><path class="cls-89" d="M45.91,29.36l.48.48c.3.6,1.09.45,1.45.95.65,1.7,1.71-.32,2.5.29-.22,1.43-2.16.85-2.51,2.12-.61-.53-1.84-.22-1.93-1.44-.54-.21-1.18-.3-1.33-1a1.27,1.27,0,0,1,.66-1.55A.84.84,0,0,1,45.91,29.36Z"/><path class="cls-89" d="M52.17,27.91c1.34,0,.61,1.54,1.42,1.94a2.11,2.11,0,0,1-2.42,0c-.35-.66-1.06-1.13-1.05-2C50.82,27,51.5,27.25,52.17,27.91Z"/><path class="cls-71" d="M47.37,38.49c-.18-1.45-.73-2.89,0-4.34a14.5,14.5,0,0,1,1.13,2.31C48.73,37.38,49.07,38.54,47.37,38.49Z"/><path class="cls-90" d="M49.27,28.4c-1.59.36-1.89-.89-2.39-1.9.83-.64,1.62.23,2.44.06.75.14,1.32.38.74,1.28a1.11,1.11,0,0,1-.31.56Z"/><path class="cls-91" d="M47.84,30.79c-.47-.33-1.94.84-1.45-.95h1.92A1,1,0,0,1,47.84,30.79Z"/><path class="cls-92" d="M53.6,32.73l-1,.92c-.85-1.07.2-1.52.79-1.68S53.57,32.45,53.6,32.73Z"/><path class="cls-91" d="M49.75,28.4v-.49c.17-.19.32-.18.47,0,.53.54,1.17,1,1,1.92C50.24,29.81,50.1,29,49.75,28.4Z"/><path class="cls-89" d="M47.34,34.15l.49-.95c.37.31,1.33.26,1,1S47.86,34,47.34,34.15Z"/><path class="cls-93" d="M64.62,34.17c.46-.94.84-.73,1.76-.3,1.71.81-.24,1.53.17,2.2C65.34,36,65.51,34.55,64.62,34.17Z"/><path class="cls-94" d="M34.88,15.43c1.27.95,3.29.43,4.19,2.18.16.32.81.2,1-.22,1-2.24,1.84-1.17,2.75,0-.47.85-2.79.36-1.7,2.33-1,.74-1.54-.54-2.48-.45-.06,1.72-.21,3.41.82,5a3.11,3.11,0,0,1,.2,2.33c-.22.71-.42,1.44-1.42,1.3-.55-1.07,1.74-2.54-.48-3.36-1-1.32-2.93,0-3.84-1.44v0c.11-.85,1-1.45.78-2.4.19-.36.59-.51.77-.87s.25-.68.41-1c-.26.28-.28.68-.53,1-.67.77-1.11-1-1.76-.12-1.48.51-.45,1.66-.63,2.49-1.57.26-2.41-.55-2.88-1.93a5.7,5.7,0,0,1-.75-.54c-.53-.57-1.14-1.22-.82-2,.39-1,1.29-.51,2-.43a2,2,0,0,0,.9-.13,1.89,1.89,0,0,0,.92-1.37c0-.2.07-.4.11-.6a4.61,4.61,0,0,1,.14-.62,4.29,4.29,0,0,1,.23-.63c.23-.4.54-1.06,1-.79.67.44.43,1.21.12,1.87C34,15.58,34.12,16.17,34.88,15.43Z"/><path class="cls-44" d="M33.91,15V13.21l-1,1.27a4.75,4.75,0,0,0-1.43-1.91c.68-1.11,2.1-.07,2.85-1C35.47,12.89,34.43,13.89,33.91,15Z"/><path class="cls-44" d="M36.29,12.85c-.13.14-.25.4-.41.43a.3.3,0,0,1-.34-.43c.08-.19.32-.3.49-.44Z"/><path class="cls-44" d="M35.57,11c0-.36-.17-.6-.1-.76s.34-.17.52-.25c0,.14.18.32.13.41A3.39,3.39,0,0,1,35.57,11Z"/><path class="cls-47" d="M37.92,5.42c-.22.18-.44.46-.7.53s-.35-.27-.21-.43A3.49,3.49,0,0,1,37.73,5Z"/><path class="cls-95" d="M31.52,12.57c.83.36,1.81.63,1.43,1.91-.51.32-.24.64,0,1v.47c-.63.28-1.48.41-.94,1.45a3.22,3.22,0,0,1-1,.51c-2.09.22-2.09.2-.94,2.36a3.43,3.43,0,0,0-.72,0c-.45.13-1.3-.41-1.29.51s.78.48,1.28.51c.18,0,.36.21.55.33-.32.89-1.45.28-1.76,1.06-.76.52-.77,1.51-1.56,2.68,0-2.19-1.18-2.73-2.71-2.64.08-.36.09-.63.15-.64,3.66-.71,2.89-4.17,4-6.45a.67.67,0,0,0-.34-1c-.82-.24-.72-.7-.4-1.25.58-1,.77-.26,1,.23.33-.69,1.38.34,1.66-.78C30.2,11.91,30.37,12,31.52,12.57Z"/><path class="cls-96" d="M28.15,23.12h1c.32.46.64.47,1,0,2.19.84,2.38,3.07,3.24,4.8a1,1,0,0,1-.93,1.34c-1,0-.43-.5-.34-1,.13-.82-.59-1.14-1.54-1.23,1.24,2.05-.17,3.14-1.4,4.29-.9-1.44-2-2.94-1.18-4.66C28.51,25.39,27.46,24.23,28.15,23.12Z"/><path class="cls-97" d="M25.46,19.81c-1.33-1.86,0-3,1.14-4.74C27.12,17.17,25.51,18.3,25.46,19.81Z"/><path class="cls-98" d="M22.87,21.68c-1-.45.08-1.38-.46-1.93.36-.65,1.07-1.37,1.55-.66C24.68,20.16,23.76,21,22.87,21.68Z"/><path class="cls-43" d="M26.71,34.16h-1c.1-.51-.22-1.44.29-1.47C26.89,32.64,26.63,33.58,26.71,34.16Z"/><path class="cls-43" d="M25.62,25.89c-.09.12-.19.38-.34.41-.44.09-.67-.26-.87-.58s.21-.3.33-.35C25.17,25.18,25.44,25.41,25.62,25.89Z"/><path class="cls-99" d="M33.91,23.12c1.15.82,3.15-.62,3.84,1.44-.44.2-1.53-.5-1.28.2.57,1.59-.29,2.49-1,3.59-.19.3.29,1-.57.91-.49-.07-.56-.55-.59-.92C34.17,26.6,34.05,24.86,33.91,23.12Z"/><path class="cls-100" d="M33,22.16c-1.1-1.17-1-2.14.48-2.88,1.06-.1.69,1.24,1.45,1.45,1.12,1.37.24,1.94-1,2.37A.85.85,0,0,1,33,22.16Z"/><path class="cls-101" d="M38.23,27.92a1.46,1.46,0,0,0,1-1.44.66.66,0,0,1,1,0c.07.83-.71,1.25-.94,1.93.16.11.22.21.17.31s-.11.16-.16.16c-.17.64-.35,1.27-.52,1.91C37.26,30,37.2,29.07,38.23,27.92Z"/><path class="cls-64" d="M30.07,23.12c0,.58.14,1.22-.4,1.71-.85-.44-.44-1.15-.56-1.71Z"/><path class="cls-102" d="M45,30.81c.32.31.64.63.95,1-.45,1-2.38,1.49-1.19,3.14l-1.21.71H43c-.71-.64.46-1.28,0-1.92,0-.16,0-.31,0-.47l.48-1c-.52-.92,0-1.35.79-1.66A.81.81,0,0,1,45,30.81Z"/><path class="cls-69" d="M43,33.68c.88.64-.18,1.28,0,1.92C42.19,35,41.62,34.32,43,33.68Z"/><path class="cls-103" d="M44.48,30.78a1.56,1.56,0,0,0-1,1.44c-.14-.06-.28-.19-.42-.18-1.67.1-3.41.51-2.1-2.33.42-.91-1-.72-1.75-.83a2.44,2.44,0,0,1,0-.47c1.53-.69,2.75,1.39,4.29.47h.35C44.87,29.25,44.86,30,44.48,30.78Z"/><path class="cls-104" d="M14.71,32.24c-.91,1.5-.67,3.8-3.16,4.22-.52.08-.81,1.13-1.34,1.58a2.06,2.06,0,0,1-2.8.08,1.35,1.35,0,0,1,.93-2c1.82-.27-1.14-1.8.59-2C10.68,33,12,30.62,14.71,32.24Z"/><path class="cls-105" d="M14.71,32.24c-2.43-.9-3.66,1.84-5.78,1.9l-.46-1.42v0c.69-1.62,2.41-2.54,2.89-4.3h0l1.43.46C13.45,30,14.46,30.89,14.71,32.24Z"/><path class="cls-106" d="M16.14,26,15.66,25c-.36-1-.08-1.37,1-1h.48c.57-1.72-.4-4.2,2.4-4.8H20a1.75,1.75,0,0,1,.53,2.25c-1.51.91-.17,1.73-.07,2.56L20,25c-1.24-.19-2.49-.49-3.11,1.13C16.77,26.47,16.35,26.27,16.14,26Z"/><path class="cls-107" d="M20.45,24.09c-.58-.61-1-1.44-2.14-1.74,3,0,1.46-1.9,1.68-3.07.17-.37.41-.78.85-.66a.72.72,0,0,1,.41,1,3.39,3.39,0,0,0,.33,3.3C22.32,24,20.74,23.58,20.45,24.09Z"/><path class="cls-107" d="M19.51,19.28c-2.13.93-1.65,3.17-2.4,4.8.14-1.79-.7-3.89,1.59-5A.58.58,0,0,1,19.51,19.28Z"/><path class="cls-107" d="M16.63,24.08a.89.89,0,0,0-1,1c-.55-.35-.45-.91-.47-1.44a1.06,1.06,0,0,0,.49-1C16.66,22.68,16.64,23.39,16.63,24.08Z"/><path class="cls-43" d="M21.43,27A1.32,1.32,0,0,1,20,25.52C20.62,25.86,21.42,26,21.43,27Z"/><path class="cls-108" d="M12.32,27c.6-.54,1.83-.22,1.92-1.44.77.11,1.31.61.62,1.18S13.29,28.31,12.32,27Z"/><path class="cls-76" d="M11.35,28.4c.76,2.59-1.94,2.86-2.89,4.3l0-1.47c0-.79.72-1.22,1-1.87Z"/><path class="cls-109" d="M41.59,4.88l1-.48c.07.58,1.08.82.53,1.63s.21.93.68,1c1.92.25,2.48,1,1.57,2.57-.55.92.38,1,.58,1.53a3,3,0,0,0-1.45,1.43c-2.46.53-3.81-1-3.2-3.92A22.71,22.71,0,0,0,41.59,4.88Z"/><path class="cls-110" d="M46.38,19.74c-.86.39-1.26,1.5-2.38,1.46-.56.25-.62,1.43-1.62.87-.61-1.25.44-1.7,1.12-2.31,0-.47-.12-1.15.12-1.35,1.48-1.25.59-2.33-.11-3.45h0c1.59.24,3.16.79,4.81.47l.94.48c1.54-.57.83,1.09,1.44,1.44l-.11.32a2.29,2.29,0,0,1-1.83.72c-.75.11-1.73-.33-2,.87A1.13,1.13,0,0,1,46.38,19.74Z"/><path class="cls-111" d="M43.5,19.76c0,.91-1.27,1.34-1,2.39a2,2,0,0,1-1,.6c-.49.19-1.15.19-1.27.88-.17,1,.85.95,1.3,1.41a3,3,0,0,1-1.44,1.44h-1c0-.93.14-1.86-.69-2.66-1.39-1.35.09-3.3-.91-4.94-.36-.58,1.2-.68,1.82-.26s.85,1.16,1.7,1.14Z"/><path class="cls-112" d="M43.51,15c-.62-.09-1.16.6-1.81.21a1,1,0,0,1-.5-1c0-.35.34-.69.62-.56,1.39.66,2.91-.71,4.41.31-.72,1-2.11.06-2.72,1Z"/><path class="cls-113" d="M40,15.74c-.27.07-.53,0-.46-.26a2.45,2.45,0,0,1,.46-.69c.12.08.29.14.34.25C40.49,15.41,40.19,15.57,40,15.74Z"/><path class="cls-55" d="M53.1,13.79c-1.31.21-2.2.49-3.13-.49A2.81,2.81,0,0,1,53.1,13.79Z"/><path class="cls-83" d="M50.7,17.35a35.79,35.79,0,0,0,4.64-.22c1.2-.2,1.08.48,1.16,1.16l0,0c-1.1.87-2.3,0-3.44.19-.87-.17-2,.19-2.32-1.09Z"/><path class="cls-114" d="M50.71,17.42c.69.75,1.6.29,2.4.42,1.67,1.37,1.65,1.59-.27,2.61a.91.91,0,0,0,.24.49,3.66,3.66,0,0,1,1,.74c.56.35.46.92.48,1.46a.41.41,0,0,1,.15.34c0,.13-.05.2-.08.2-.89.73-1.76,1.55-3.08,1.11a5.2,5.2,0,0,0-3-.25c.53.28,1.13.34,1.37.9A1.46,1.46,0,0,1,49.27,27c-1,.72-1.53-.65-2.39-.45-.9-.83-1.43-1.7-.76-3s.17-2.51.26-3.77c0-.15,0-.29,0-.44.65-.74,1.68-.84,2.41-1.45A3.24,3.24,0,0,0,50.71,17.42Z"/><path class="cls-115" d="M52.16,20.25c.68-.66,2.81-.74,1-2.41,1.18-.26,2.21.55,3.36.48,0,.14,0,.29.06.44-.22.64-1.48.36-1.27,1.14.31,1.18,1.07.17,1.65.18a1.28,1.28,0,0,1,1.25,1.18c0,.87-1,.27-1.1.38-1,.89-2-.41-3,0-.53,0-1.1.08-1.45-.48.13-1.33,1-.53,1.46-.58C53.58,20.16,52.74,20.79,52.16,20.25Z"/><path class="cls-116" d="M54.53,23.6c0-.15,0-.31,0-.46l2.38,1.92a1.44,1.44,0,0,1-1.41.94C55.28,25.16,53.81,24.84,54.53,23.6Z"/><path class="cls-117" d="M41.59,25c-.5-.53-1.63,1.19-1.88-.65-.19-1.36.28-1.92,1.44-2.16a8.11,8.11,0,0,1,1.4-.08c.5-.29.7-1,1.45-.95.39,1.41-2.25,2.05-1,3.75C43,25,42,24.45,41.59,25Z"/><path class="cls-90" d="M45.91,29.36h-.47c-.41-1.11-1.4.16-1.93-.47h0c-.06-1.38.59-2.21,2-1.85S46.58,28.42,45.91,29.36Z"/><path class="cls-118" d="M54.53,23.6c.33.8.66,1.6,1,2.4-1.12-1.1-2.19.22-3.33.15-.79,0,1.38,1.16,0,1.76-.65,0-1.3-.47-2,0h-.47c.27-.54.36-1-.48-1,.16-.48.31-1,.47-1.44,0-1.68,1.19-.82,1.93-1s1.87.13,1.83-1.24Z"/><path class="cls-86" d="M43.51,28.88c1,.12,1-1.33,2-1.27.55.63-.22,1.16-.08,1.74-.57.35-.47.92-.49,1.46l-.47,0C44.66,29.89,44,29.42,43.51,28.88Z"/><path class="cls-119" d="M34.88,20.73c-2.2,1.23-.57-1.36-1.45-1.45-.4-.33-.45-.7.07-.87.92-.3,1.28.23,1.33,1.13a3.19,3.19,0,0,1,2.5-2.16C36,18.49,36.43,20.22,34.88,20.73Z"/><path class="cls-44" d="M32,17.36c-.29-.58-1.56.34-1.35-.74.27-1.41,1.42-.78,2.29-.71Z"/><path class="cls-44" d="M32.94,15.44c-.42-.31-1.32-.37-1.16-1s.76,0,1.17,0Z"/><path class="cls-55" d="M48.81,17.85A2,2,0,0,1,46.4,19.3C45.94,16.73,48,18.26,48.81,17.85Z"/><path class="cls-120" d="M51.67,24.56c-.06.38-.07.92-.66.5s-1-.1-1.27.45a3.91,3.91,0,0,0-2.45-.39C48.8,23.57,50.12,23.08,51.67,24.56Z"/><path class="cls-121" d="M51.28,20.47c-.76.9-1.3,1.35-2.25,1C49.53,20.59,50.27,20.69,51.28,20.47Z"/><path class="cls-122" d="M52,22.81c.06.24,0,.49-.26.46a1.83,1.83,0,0,1-1-.36c-.26-.28.09-.53.38-.6A.84.84,0,0,1,52,22.81Z"/><path class="cls-55" d="M50.45,18.8c-.24.9-.6,1.26-1.32,1.22C49,19,49.78,19.16,50.45,18.8Z"/><path class="cls-85" d="M52.16,20.25h2.23l-1.76.95A1,1,0,0,1,52.16,20.25Z"/></g></g></svg>