<svg xmlns="http://www.w3.org/2000/svg" viewBox="0 0 66.3 55.87"><defs><style>.cls-1{fill:#bddfe7;}.cls-2{fill:#c4beb5;}.cls-3{fill:#d6937f;}.cls-4{fill:#d6effb;}.cls-5{fill:#b8dfea;}.cls-6{fill:#d48f78;}.cls-7{fill:#c5e1e5;}.cls-8{fill:#a8c3c6;}.cls-9{fill:#afc7c1;}.cls-10{fill:#a7dded;}.cls-11{fill:#cdb2ae;}.cls-12{fill:#ecedec;}.cls-13{fill:#cc8c7b;}.cls-14{fill:#b3dce8;}.cls-15{fill:#abd4de;}.cls-16{fill:#e6f3f8;}.cls-17{fill:#e3624d;}.cls-18{fill:#f9f0e6;}.cls-19{fill:#d3e9ef;}.cls-20{fill:#e54f3d;}.cls-21{fill:#dd4642;}.cls-22{fill:#d6e9ef;}.cls-23{fill:#b5d9e6;}.cls-24{fill:#cde0e1;}.cls-25{fill:#b3dfec;}.cls-26{fill:#ddecef;}.cls-27{fill:#95d1db;}.cls-28{fill:#cdebf8;}.cls-29{fill:#bedfe7;}.cls-30{fill:#e54838;}.cls-31{fill:#e5eeeb;}.cls-32{fill:#e06354;}.cls-33{fill:#9ed8eb;}.cls-34{fill:#d8aea3;}.cls-35{fill:#addce7;}.cls-36{fill:#e3584e;}.cls-37{fill:#da685d;}.cls-38{fill:#d1e9f3;}.cls-39{fill:#9ad6e3;}.cls-40{fill:#d2ecf7;}.cls-41{fill:#e6473b;}.cls-42{fill:#c4836d;}.cls-43{fill:#a5dae6;}.cls-44{fill:#dee5e7;}.cls-45{fill:#de4b3c;}.cls-46{fill:#e84a39;}.cls-47{fill:#efe7e1;}.cls-48{fill:#e3baa5;}.cls-49{fill:#c57568;}.cls-50{fill:#bfd3d4;}.cls-51{fill:#acdae7;}.cls-52{fill:#ebf3f7;}.cls-53{fill:#dbebf3;}.cls-54{fill:#fae7dc;}.cls-55{fill:#dfb6a5;}.cls-56{fill:#cbe2e9;}.cls-57{fill:#a1d6e3;}.cls-58{fill:#d2a48f;}.cls-59{fill:#f9d2c2;}.cls-60{fill:#d2dad6;}.cls-61{fill:#e9543d;}.cls-62{fill:#f8f1ef;}.cls-63{fill:#e53b39;}.cls-64{fill:#d2e8eb;}.cls-65{fill:#dc4c44;}.cls-66{fill:#dbe0e7;}.cls-67{fill:#ca6657;}.cls-68{fill:#e74a37;}.cls-69{fill:#e98b71;}.cls-70{fill:#f3cebb;}.cls-71{fill:#e43b39;}.cls-72{fill:#df6150;}.cls-73{fill:#d0eaf1;}.cls-74{fill:#f9e4d7;}.cls-75{fill:#c8bfb5;}.cls-76{fill:#c17d6f;}.cls-77{fill:#f5f5f6;}.cls-78{fill:#e1f2f9;}.cls-79{fill:#c2e1ea;}.cls-80{fill:#e1cac3;}.cls-81{fill:#e74437;}.cls-82{fill:#c7403f;}.cls-83{fill:#e92c31;}.cls-84{fill:#e63d35;}.cls-85{fill:#ea6e4e;}.cls-86{fill:#f9f3f1;}.cls-87{fill:#e58f77;}.cls-88{fill:#e85540;}.cls-89{fill:#e8805e;}.cls-90{fill:#e97b67;}.cls-91{fill:#d79e89;}.cls-92{fill:#e91c31;}.cls-93{fill:#b16459;}.cls-94{fill:#c2c0bc;}.cls-95{fill:#9dd2cf;}.cls-96{fill:#d56d5b;}.cls-97{fill:#b7e2f4;}.cls-98{fill:#dadedd;}.cls-99{fill:#e9f3f7;}.cls-100{fill:#e83535;}.cls-101{fill:#e83332;}.cls-102{fill:#ea2f31;}.cls-103{fill:#e58067;}.cls-104{fill:#f6c8a8;}.cls-105{fill:#f48e73;}.cls-106{fill:#e0e7e8;}.cls-107{fill:#9ad0dc;}.cls-108{fill:#e14c45;}.cls-109{fill:#e9f2f9;}.cls-110{fill:#e7383f;}.cls-111{fill:#ed2e34;}.cls-112{fill:#e73b39;}.cls-113{fill:#d1e0db;}.cls-114{fill:#b36d66;}.cls-115{fill:#ddb496;}.cls-116{fill:#cde9f4;}.cls-117{fill:#da7560;}.cls-118{fill:#f8f5f3;}.cls-119{fill:#ea322f;}.cls-120{fill:#e64032;}.cls-121{fill:#eff5f6;}.cls-122{fill:#faf4f1;}.cls-123{fill:#de5748;}.cls-124{fill:#aed4da;}.cls-125{fill:#ed644d;}.cls-126{fill:#ea3e32;}.cls-127{fill:#cb7d6e;}.cls-128{fill:#a2dcec;}.cls-129{fill:#d2b2a4;}.cls-130{fill:#aedde7;}.cls-131{fill:#e7f2f5;}.cls-132{fill:#de614f;}.cls-133{fill:#b3b5b0;}.cls-134{fill:#ea5643;}.cls-135{fill:#e74035;}.cls-136{fill:#f27659;}.cls-137{fill:#dff0f4;}.cls-138{fill:#dad9db;}.cls-139{fill:#df4e43;}.cls-140{fill:#d3edf5;}.cls-141{fill:#e9826d;}.cls-142{fill:#cdebf6;}.cls-143{fill:#e83c3a;}.cls-144{fill:#e75d49;}.cls-145{fill:#e88f6e;}.cls-146{fill:#e68e75;}.cls-147{fill:#db5248;}.cls-148{fill:#ebe3d8;}.cls-149{fill:#d9d1c3;}.cls-150{fill:#e2453e;}.cls-151{fill:#b8e0f3;}.cls-152{fill:#da5140;}.cls-153{fill:#afb39f;}.cls-154{fill:#f6bd9e;}.cls-155{fill:#d5cec5;}.cls-156{fill:#b7b09f;}.cls-157{fill:#bde6fa;}.cls-158{fill:#f4f3f0;}.cls-159{fill:#eb8b71;}.cls-160{fill:#e86a55;}.cls-161{fill:#e4e9eb;}.cls-162{fill:#e96a51;}.cls-163{fill:#ec5640;}.cls-164{fill:#e67558;}.cls-165{fill:#e23c3b;}.cls-166{fill:#e75e4b;}.cls-167{fill:#e55245;}.cls-168{fill:#eb4c37;}.cls-169{fill:#e4aa9f;}.cls-170{fill:#cfecf8;}.cls-171{fill:#c8e9ef;}.cls-172{fill:#e7cdbe;}.cls-173{fill:#9cdbf7;}.cls-174{fill:#e66f55;}.cls-175{fill:#e14b43;}.cls-176{fill:#ea6147;}.cls-177{fill:#da7e64;}.cls-178{fill:#d26341;}.cls-179{fill:#ec5d58;}</style></defs><title>scarf2</title><g id="Layer_2" data-name="Layer 2"><g id="Layer_1-2" data-name="Layer 1"><path class="cls-1" d="M3.26,24c-2.11-3.2-2.43-7-3.21-10.56-.24-1.09.43-2.1,1-3.06.34-.52,1.27-.87.77-1.78l2.38-.09c0,.09.1.19.16.28a1.32,1.32,0,0,1-.12.62,5.64,5.64,0,0,0-1,2.3,7.83,7.83,0,0,1-.19.94C3,14.93,2.2,17.29,4,19.3a1.47,1.47,0,0,1,.46.47,1.63,1.63,0,0,1,0,1.3c-.7.77-.52,1.85-1,2.72Z"/><path class="cls-2" d="M55.09,53.31c0,.28,0,.57-.05.85h-.87c-.69-.24-1.47,0-2.12-.4a6.32,6.32,0,0,1-.6-.25,4.59,4.59,0,0,1-2-1.22,4.81,4.81,0,0,1-1.13-2.62c.29-1.7,1.08-2.51,2.84-1.57.72.74-1.42,1.79.27,2.43C52.68,51.43,54.32,51.8,55.09,53.31Z"/><path class="cls-3" d="M65.68,15.84a1.85,1.85,0,0,1,.08.46.57.57,0,0,0-.16.35c-.53.08-1.13,0-1.39.66-.29,1-1.21,1.23-2,1.58-.86.52-1.47,1.46-2.61,1.51-1-.15-1.11-.82-1-1.63a3.84,3.84,0,0,1,3.05-2.37,3.12,3.12,0,0,0,2.2-.47C64.37,15.62,65,15.15,65.68,15.84Z"/><path class="cls-4" d="M6.13,8.61l1.45,0L9,8.6a.74.74,0,0,1,.18.92,9.17,9.17,0,0,1-3.45.85.84.84,0,0,1-.67-.63C5.15,9.12,5.81,9,6.13,8.61Z"/><path class="cls-5" d="M23.42,33c-3-.77-6.14.12-9.09-.94a.41.41,0,0,1,0-.57,2.16,2.16,0,0,1,.58-.31c.41-.19,1-.24,1-.83,0-.38-.39-.42-.67-.52-.54-.49-.57-1.29-1.08-1.8a3,3,0,0,1-.32-.55,1.66,1.66,0,0,1-.12-1.29,1.69,1.69,0,0,1,.73-.67c.73-.24,1.68-.66,2,.3.52,1.45,1.73,1.33,2.8,1.62a1.29,1.29,0,0,1,.49.44c.39,1.18-1.09,1.13-1.35,2.08.79-.29,1.38-.89,2.17-.73a2.63,2.63,0,0,1,1,.29c.82.71,2,.39,2.87,1C25,31.76,24.17,32.36,23.42,33Z"/><path class="cls-6" d="M24.79,42.15c-.41-3.18.18-6.31.5-9.46.74-1.82,1.46-2,4.24-1.31a1,1,0,0,1,.32,1.1c-3.07.5-2.73,3.08-3.17,5.18a16.72,16.72,0,0,0-.18,4.06c-.09,1.31,1.58,1.13,1.82,2.15-.41.84-1.18.8-1.93.81a2.23,2.23,0,0,1-1.08-.38A2.71,2.71,0,0,1,24.79,42.15Z"/><path class="cls-7" d="M9.05,30.63c-2.46-.73-3.8-2.6-4.86-4.76,0-.09.08-.19.13-.28a2.22,2.22,0,0,1,.93-.81c.58,0,.91.44,1.32.74.87.62,1.18,1.67,1.9,2.41a2.88,2.88,0,0,1,.52.81C9.19,29.37,9.56,30,9.05,30.63Z"/><path class="cls-8" d="M29.66,31.61c-1.46.36-3.27-.74-4.37,1.08a2.83,2.83,0,0,1-1.87.3l1-2.28c1.77-1.17,3.65-.74,5.54-.42.45.28.87.61.64,1.21S30,31.82,29.66,31.61Z"/><path class="cls-9" d="M9.05,30.63c-.16-.68-.31-1.35-.47-2a1.35,1.35,0,0,1,1.06-.09c1.38.88,3,.43,4.46.7a2,2,0,0,1,.63.28.77.77,0,0,1,.21.61c.11.41-.94.13-.46.77.27.19.44.41.31.75h-.52a3.38,3.38,0,0,1-3.38-.43Z"/><path class="cls-10" d="M24.79,42.15c.63.45.6,1.12.62,1.78.34,1,1,2.19-1,2.1l-.49-1C24,44,23.59,42.85,24.79,42.15Z"/><path class="cls-11" d="M10.89,31.2a10.72,10.72,0,0,0,3.38.43l.06.43C13.15,31.89,11.66,33,10.89,31.2Z"/><path class="cls-12" d="M4.19,25.87C3,25.71,3.33,24.75,3.26,24v-.13c1.73-.07,1.51.89,1,2Z"/><path class="cls-13" d="M65.66,1.87l-.06,2c-1,.31,0,1.52-.84,2a.75.75,0,0,1-.64,0,1.77,1.77,0,0,1-.34-.58c-.23-1-.11-2-.26-2.95,0-.32.11-.78-.51-.66-1.48.78-3,1.34-4.66.71a1.3,1.3,0,0,1-.52-.41C59.79.39,62.26.67,64.47.05,65.58-.26,65.6,1,65.66,1.87Z"/><path class="cls-14" d="M22,12.47a8.19,8.19,0,0,0,5.31,0c.47-.65,1.45-.29,1.92-.95.82,0,1.26-.68,1.92-1,1.11-1,2.73.05,3.86-.93l.93-1a1.31,1.31,0,0,1,2,.26c.45,1.25-.84,1.87-1.05,2.88a2.3,2.3,0,0,1-1,1c-2,.49-3.8,1.32-5.71,2a23.2,23.2,0,0,1-3.22.39,3.13,3.13,0,0,1-1.7-.51c-1-1-2.5-.28-3.59-1C21.12,13,21.54,12.75,22,12.47Z"/><path class="cls-15" d="M54.59,3.81h.31c1,.73.26,1.52.08,2.3a2.12,2.12,0,0,1-.7.76c-.73.56-2,0-2.45,1.11a2.33,2.33,0,0,1-.55.81A2,2,0,0,1,50,9a1.58,1.58,0,0,1-.6-.24c-.53-.47-.24-1.43-1-1.74a1.1,1.1,0,0,1-.39-.44c1.49-1.29,3-2.41,5.2-2.16A1.51,1.51,0,0,0,54.59,3.81Z"/><path class="cls-16" d="M37.62,9.09a2.22,2.22,0,0,0-1.73-.52c.68-2.49,2.45-3.17,4.8-2.85.43,1.81-1.6,1.88-2.12,3A1.31,1.31,0,0,1,37.62,9.09Z"/><path class="cls-17" d="M41.72,6.74l5.22-.09,1,0a.41.41,0,0,0,.32.09.37.37,0,0,1,.14.61A2.18,2.18,0,0,1,47.07,8c-1.73-.33-3.56.1-5.25-.6a.43.43,0,0,1-.12-.65Z"/><path class="cls-18" d="M41.7,6.74a.73.73,0,0,1-.15.35c-.46,1.25-1.64,1.4-2.69,1.76a.88.88,0,0,1-.58-.31c.18-1.47,2.1-1.46,2.42-2.82Z"/><path class="cls-19" d="M35,9.59c-.92,1.84-2.59.53-3.86.93.71-1.76,2.24-.64,3.36-1Z"/><path class="cls-20" d="M27.32,54.59a6,6,0,0,1-2.05-3.78c-.26-2.69.51-3.42,3.28-3.08a.58.58,0,0,1,.22.59c-.37.58-1.29,1.25.24,1.54a9.72,9.72,0,0,1,2.66,1.37,4.56,4.56,0,0,1,.58.3,5.17,5.17,0,0,0,2.08.79c1.49,1.09.75,1.67-.53,1.89a11.2,11.2,0,0,1-4.28,0c-.75-.16-.71.25-.85.65a.92.92,0,0,1-.93-.13A.63.63,0,0,0,27.32,54.59Z"/><path class="cls-21" d="M51.21,50.91a1.78,1.78,0,0,1-1.68-1.36c-.13-1.15,1.34-.36,1.71-1.08a1.26,1.26,0,0,1,.53-.86,49,49,0,0,0,8.57-5.53,2.12,2.12,0,0,1,2.43.09c.19,1.76,1.25,3.37.94,5.22-.19.33-.52.36-.86.39-2.31-.17-.67-2.3-1.78-3.31a13.16,13.16,0,0,1-2.64,2,11.93,11.93,0,0,1-1.33.9C56,48,55,48.64,53.85,49.21a3.74,3.74,0,0,0-1.45,1.55A.89.89,0,0,1,51.21,50.91Z"/><path class="cls-22" d="M62.77,42.17l-2.42.36a4.3,4.3,0,0,0-.7-.13c-3.4-.08-3.4-.08-1.58-3.22A1.48,1.48,0,0,1,59.38,39c.75.32,1.14,1,1.72,1.61.26-.45.22-1,.71-1.32C63,40,63,41.05,62.77,42.17Z"/><path class="cls-23" d="M61.81,39.32c-.29.6.29,1.71-.37,1.82-1.23.22-1.44-1.17-2.06-1.91-1.15-.64-1.12-1.58-.68-2.63,1.07-.69,1.44.43,2.11.8A2.86,2.86,0,0,0,61.81,39.32Z"/><path class="cls-24" d="M60.81,37.4c-.85.15-1.33-.38-1.78-1-.53-.28-.58-.86-.83-1.32a2.44,2.44,0,0,1-.37-.82c0-.24.11-.32.34-.25,1.52-.73,1.39,1.08,2.2,1.43C60.52,36.12,60.66,36.76,60.81,37.4Z"/><path class="cls-25" d="M58,22.06c-.1.93-.81.92-1.48,1-1.22,3.15-3.74,2.5-6.17,2.1a1.25,1.25,0,0,1-.75-1.48c2-.93,3.45-2.87,5.83-3.09a2.37,2.37,0,0,1,.94.2,13.25,13.25,0,0,0,1.68.75A.44.44,0,0,1,58,22.06Z"/><path class="cls-26" d="M58,22.06l0-.49a.44.44,0,0,1-.17-.36c0-.13,0-.2.06-.2.51-.62,1.43-.33,2-.88l2-1.75c.54.43,1.3.37,1.85.81C62,20.37,60.34,21.93,58,22.06Z"/><path class="cls-27" d="M63.75,19.19c-.72,0-1.9,1-1.85-.81l2.31-1.07C65.05,18.18,64.13,18.62,63.75,19.19Z"/><path class="cls-28" d="M54.61,28.77l.5,0,.94,0c0,.32,0,.63,0,.95C55.07,30.17,54.59,29.84,54.61,28.77Z"/><path class="cls-29" d="M28.71,48c-2.16-.34-3.35.53-3.44,2.77A8.51,8.51,0,0,1,24.39,46c1.37-.2.81-1.34,1-2.1l.82.19c.44.32,1,.44,1.31,1-.1,1.55,1.88,1.65,2.09,3A.78.78,0,0,1,28.71,48Z"/><path class="cls-30" d="M4.16,21.08V19.73a2.12,2.12,0,0,1-.28-2.18c.19-.24.48-.62.72-.27.36.51.48.66,1.28.52,1-.18,1.15,1,1.13,1.94C6.69,21,7.92,21.8,8,23c0,1.38-1.14,1.29-2,1.64-1.28-.53-1.47-1.82-2-2.88A.83.83,0,0,1,4.16,21.08Z"/><path class="cls-31" d="M3.77,19.51c-.66.8-.82.3-1-.35a14.19,14.19,0,0,1-.23-6.73C4.51,14.52,4.05,17,3.77,19.51Z"/><path class="cls-32" d="M3.77,19.51c0-2.44-.75-4.73-1.22-7.08l.24-.94a.87.87,0,0,1,.65-.11,6.24,6.24,0,0,1,.84,5.86l-.12,2.49A3.61,3.61,0,0,0,3.77,19.51Z"/><path class="cls-33" d="M4.16,21.08a.42.42,0,0,1,.11.44c.07,1.2,1.37,2.05.94,3.39,0,.56-.28.94-.91.94-.21-.72.17-1.76-1-2C3.53,22.94,2.57,21.6,4.16,21.08Z"/><path class="cls-34" d="M3.3,11.52l-.51,0A2.65,2.65,0,0,1,4.18,9.12a1,1,0,0,1,1,.45l.64.44a.56.56,0,0,1,0,.57c-.46.43-1.1.42-1.64.68a3.18,3.18,0,0,1-.54.21Z"/><path class="cls-35" d="M5.13,9.57a1,1,0,0,1-1-.45l0-.49,1.92,0C6.13,9.28,5.75,9.55,5.13,9.57Z"/><path class="cls-36" d="M60.81,48.89c-.16,1-1.43,1.09-1.79,2l-.06,0a2.58,2.58,0,0,1-2,1.36l-1.3.55c-1.09.39-1.33-.07-1-1.05a3.31,3.31,0,0,1,1.17-1.24c.79-.55,1-1.68,2.08-2a1.4,1.4,0,0,1,.9.11C59.37,49.59,60.21,48.1,60.81,48.89Z"/><path class="cls-37" d="M55.06,51.7c-.22.6-.23,1.09.62,1.11l-.59.5-3.88-2.4,1-.55c1.19-.72,1.53.75,2.37.92A1.67,1.67,0,0,1,55.06,51.7Z"/><path class="cls-38" d="M11.89,10.52l1,0a5.46,5.46,0,0,1,3.81,1c1,1.08,1.92,0,2.88,0a3.67,3.67,0,0,0,0,.46,3.09,3.09,0,0,0,0,.43,1.91,1.91,0,0,1-1.52.68c-2.06.33-3.8-.89-5.72-1.24A.79.79,0,0,1,11.89,10.52Z"/><path class="cls-39" d="M18.14,12.47l1.47-.09,2.34.09-.48.9c-.76.82-1.75.62-2.69.64-.6-.09-1.35,0-1.54-.76S17.86,12.77,18.14,12.47Z"/><path class="cls-40" d="M29.18,11.48c-.16,1.28-1.17.86-1.92.95C27.42,11.16,28.42,11.55,29.18,11.48Z"/><path class="cls-41" d="M37.29,55.57H35.43c-.12-.74.45-1,1-1.16,1.11-.24,1.28-.57.89-1.74s1.26-1.91,3.58-1.27c.21,1,.7.81,1.26.28.59.14,1.12.12,1.45-.5a.44.44,0,0,1,.54.12c.64,1.54-.35,2.27-1.46,2.95C41.07,55.56,39.05,55.05,37.29,55.57Z"/><path class="cls-42" d="M44.1,51.31l-.48-.05c-1.68-2.27-4.13-1.62-6.39-1.68-1,0-2.07,0-3.1,0a11,11,0,0,1-2.29-.18c-.93-.37-2-.23-2.88-.7l-.25-.27V48l.88-.16c.89-.77,1.93-.56,3-.43,2.67.67,5.38.11,8.07.28,1.49.1,3.05,0,4.12,1.37a1.12,1.12,0,0,1-.22,1.23C44.07,50.52,44.23,51,44.1,51.31Z"/><path class="cls-43" d="M49.82,52.25l-1-.38-1-.56a4.25,4.25,0,0,0-2.38-1.44,1.09,1.09,0,0,1-.42-.43c-.13-.39-.37-.76-.18-1.2a2.62,2.62,0,0,1,1.23-1.39,4.79,4.79,0,0,1,2.61,3Z"/><path class="cls-44" d="M45.49,49.4c0,.15,0,.31,0,.47-.06.36.2.85-.27,1-.16.06-.47-.35-.71-.54l.11-.94A.54.54,0,0,1,45.49,49.4Z"/><path class="cls-44" d="M48.74,49.81,46,47a.8.8,0,0,1-.17-.65c.71-1.41,1-3.19,3.08-3.36.88.54,2,.4,2.87,1a1.33,1.33,0,0,1,.33.91c-.4,1-.86,2.07-.27,3.19l-.61.4C49.76,47.71,49,48.24,48.74,49.81Z"/><path class="cls-45" d="M64.27,5.81a2.62,2.62,0,0,1,.4-.11.89.89,0,0,1,1.07-.07c.55,3.4.94,6.81-.06,10.21-1.46-.38-2.19,2.05-3.82,1,.28-1.2.54-2.4,1.72-3.08,1.21.45,1.08-.45,1.11-1.14s-.85-1.12-1-1.85C63.66,9.08,63.06,7.34,64.27,5.81Z"/><path class="cls-46" d="M65.74,5.63l-1.07.07a15.91,15.91,0,0,1,.07-1.83c.19-1.31.57-.07.86,0C65.65,4.43,65.69,5,65.74,5.63Z"/><path class="cls-47" d="M63.73,13.85c-.68,1-.71,2.32-1.87,3-1.32,0-2,1.23-3,1.77a.38.38,0,0,1-.57,0,3.05,3.05,0,0,1-.61-1.58c.68-1.8,2.23-2.6,3.82-3.37.81.31,1.38-.85,2.22-.39A.47.47,0,0,1,63.73,13.85Z"/><path class="cls-48" d="M58.54,18.6h.33c0,.69,0,1.43,1,1.53-.3.89-1.07.9-1.81,1a1.22,1.22,0,0,1-1.5,0l-.93-.07a.38.38,0,0,1-.16-.5,3.08,3.08,0,0,1,.95-.7,13.15,13.15,0,0,0,1.23-.66A2.7,2.7,0,0,1,58.54,18.6Z"/><path class="cls-49" d="M57.84,33l.33,1h-.29a1,1,0,0,1-.58.32,1.65,1.65,0,0,1-.66-.13c-.79-.68-1.57-1.37-1.21-2.58a.94.94,0,0,1,.91-.27A3.14,3.14,0,0,1,57.84,33Z"/><path class="cls-50" d="M57.84,33l-1.28-1.41a.27.27,0,0,1,.44,0l1,0Z"/><path class="cls-51" d="M57,31.62h-.44l-1-.07A1.92,1.92,0,0,1,53.91,29l.24-.22a3.55,3.55,0,0,1,.46,0,1.52,1.52,0,0,0,1.45.95Z"/><path class="cls-35" d="M18.14,12.47l-.55.71,1.05.22c.27.45,0,.75-.29,1a2.37,2.37,0,0,1-.5.32l-.52.28a2,2,0,0,1-1.11.53,2,2,0,0,1-1.41-.79c-1.26-1.58-3-1.85-4.84-1.9-1.4-.85-3.33-.75-4.28-2.4,0-.16,0-.32.08-.48A4.8,4.8,0,0,1,9,9.53a3.29,3.29,0,0,0,.44.05c.36,1.46,1.58.71,2.42.94A11,11,0,0,0,18.14,12.47Z"/><path class="cls-52" d="M16.7,15.32c0-.38.07-.74.48-.9a2.17,2.17,0,0,1,.63,1.73c-.15,2.43.37,4.84.3,7.27-.26.71-.78,1-1.48.72-.88-.43-.21-1.05-.18-1.2.05,1.18-1.25,1.93-2.14,2.95l-.47.5c-1.09-.14-.89-1.26-1.4-1.84-.16-1.87-.7-3.71-.5-5.61,0-.19.36-.36-.1-.69-1.95-1.39-1.94-1.86-.21-3.4,1.48-.11,3-.51,4.16.94C16.11,16.18,16.41,15.52,16.7,15.32Z"/><path class="cls-53" d="M14.31,25.89c.58-.18-1.11-1.87.87-1.32a19.89,19.89,0,0,0,1.3-3c1,.43-1.05,2.53,1.17,2.35,1,1.13,2.62,1.89,1.93,3.84-1.36-.23-3.34.87-3.55-1.84C16,25.43,14.91,26.05,14.31,25.89Z"/><path class="cls-54" d="M19.58,27.8c0-1.62-1.94-2.23-1.93-3.84a53.39,53.39,0,0,1-.47-9.54h.58c1.49,1.69.24,3.75.77,5.56a15.86,15.86,0,0,0,2.26,6.46,5.05,5.05,0,0,1,.92,2.91.36.36,0,0,1-.44.35h-.73c-.69-.44-.3-1.44-1-1.89Z"/><path class="cls-55" d="M30.11,30.67l-5.73,0c-1.09-.19-2.44.47-3.11-1l.22,0c1.11-.82,2.43-.16,3.6-.53a20,20,0,0,0,4-.47c.69-.15.94.34,1.22.8a1.58,1.58,0,0,1,.12.64A.94.94,0,0,1,30.11,30.67Z"/><path class="cls-56" d="M19.58,27.82c1.31.12.82,1.17,1,1.89a2.32,2.32,0,0,0-.7.05c-.78.31-1.52,2-2.31.55-.47-.87.8-1.57,1.81-1.86C19.47,28.41,19.5,28,19.58,27.82Z"/><path class="cls-57" d="M14.77,30.19l0-.44a.27.27,0,0,1,.46,0c.46-.09.74-1.23,1.22-.5a1.56,1.56,0,0,1-.32,2.26c-.35.22-.91.11-1.37.15l-.52-.47C14,30.61,14.51,30.46,14.77,30.19Z"/><path class="cls-58" d="M14.32,29.72c-1.63-.27-3.51.76-4.84-1a2.46,2.46,0,0,1,2-.59,7.81,7.81,0,0,1,1,.1c.76.16.87-.53,1.21-.94a.35.35,0,0,1,.51,0,2.35,2.35,0,0,0,.17.44A1.51,1.51,0,0,1,14.32,29.72Z"/><path class="cls-59" d="M14.19,27.34h-.48A1.48,1.48,0,0,1,12.39,27c-.6-.65-1.09-1.31-.52-2.23a.81.81,0,0,1,1,.1c1.25-.11.45,1.13,1,1.49C14,26.71,14.08,27,14.19,27.34Z"/><path class="cls-60" d="M14.32,29.72c0-.65,0-1.29,0-1.94,1.22.21.81,1.19.9,1.93l-.46,0Z"/><path class="cls-61" d="M25.87,42.2a26.66,26.66,0,0,1,.45-6.79c.27-2,1.17-3.26,3.43-2.92a5.09,5.09,0,0,1,4.36.22,1.07,1.07,0,0,1,.06.66,16.69,16.69,0,0,0-3,2.33c-1.1.45-2.67.5-2.1,2.41.07.21.12.42.18.63.23,1.16.68,2.16,2,2.26a5.6,5.6,0,0,0,4-1.2c.48-.37.21-.87.06-1.31a2.47,2.47,0,0,1-.05-2.06A3.54,3.54,0,0,1,37,35.34,4.08,4.08,0,0,1,39,39.57a4.74,4.74,0,0,1-4.18,3C31.82,42.79,28.78,43.61,25.87,42.2Z"/><path class="cls-62" d="M27.26,45.08l-1-1c.68-.15,1.46.12,2.05-.45,2.47-1.32,5.23-.74,7.83-1.19.77-.14,1.58-.12,2.36-.2,3,.28,3.81,1.45,3.28,4.81a1.89,1.89,0,0,1-1.82.25,3.82,3.82,0,0,0-2.36-.68,3.39,3.39,0,0,1-1.76-.44c-.65-.8-1.52-.53-2.37-.56C31.38,45.58,29.22,46.28,27.26,45.08Z"/><path class="cls-63" d="M38.85,42.58c-2.29,1.27-4.84.38-7.23.87a24.51,24.51,0,0,1-3.33.22c-.91-.33-2.29.12-2.42-1.47,2.67,0,5.35,0,8,0,2.14,0,3.63-1.27,4.89-2.86l.24.2a3.06,3.06,0,0,1,.53,2.07A2.08,2.08,0,0,1,38.85,42.58Z"/><path class="cls-64" d="M34.05,33l-4.3-.55-.09-.88c.88,0,.73-.42.45-.94,0-.16,0-.32.05-.48A5,5,0,0,1,32,29.57a1.61,1.61,0,0,1,.85.87c.18.26.37.55.73.47s.22-.46.16-.74a1.2,1.2,0,0,1,.11-.91c.42-.33.84-.15,1.26,0A3.63,3.63,0,0,1,36.2,30a9.28,9.28,0,0,1,1.35,3.05,1,1,0,0,1-.24.63,2,2,0,0,1-.66.24A3.7,3.7,0,0,1,34.05,33Z"/><path class="cls-65" d="M11.91,28.73l-2.43,0-.9-.15-.46-.48a.36.36,0,0,1,.07-.55c.75-.55,1.77.09,2.48-.51s1.11-.6,1.61,0S12.37,28.26,11.91,28.73Z"/><path class="cls-66" d="M5.21,24.91c-.06-1.2-1.28-2.08-.94-3.39.6,1,1.2,2,1.81,3a.8.8,0,0,1,.37.44,1,1,0,0,1-.17.85Z"/><path class="cls-67" d="M6.28,25.84l-.1-.93c2.14-.1,2.13,1.32,2,2.83,0,.13,0,.25-.05.38C7.09,27.69,7.29,26.28,6.28,25.84Z"/><path class="cls-60" d="M14.77,30.19c-.17.32-.34.64-.5,1-.58-.06-1.3.17-1.53-.71C13.39,30,14.11,30.29,14.77,30.19Z"/><path class="cls-68" d="M57.57,2.88l.61-1c1.82.55,3.42-.19,5-.82A13.85,13.85,0,0,1,63.72,3c0,1,0,1.92,0,2.87a28.52,28.52,0,0,0,.19,4.53.83.83,0,0,1-.92.38c-.8-.27-.72-1.37-1.54-1.62-.28-.16-.75-.43-.68-.6.58-1.45-.32-2.84-.09-4.26.27-.29.68-.33,1.19-.72-1.43-.38-2.78-.2-4-.48Z"/><path class="cls-69" d="M63.74,10.42a8.85,8.85,0,0,1-.41-4.78c.21-.3.39-.67.87-.48,0,.21,0,.43.07.65,0,1.89,0,3.77,0,5.66.3.65.29,1.08-.62.89A1.53,1.53,0,0,1,63.74,10.42Z"/><path class="cls-70" d="M64.2,5.16l-.87.48c-.07-1.19-.13-2.39-.2-3.58.25,0,.38-.23.61-.24C64.57,2.84,64.14,4,64.2,5.16Z"/><path class="cls-71" d="M63.74,1.82l-.61.24a.84.84,0,0,1,.1-1C64.1.84,64,1.31,63.74,1.82Z"/><path class="cls-68" d="M54.62,6.26c.1-.82.19-1.63.29-2.45a2.81,2.81,0,0,1,2.66-.93l.06.05c.21.91,1.25,1.18,1.58,2A5,5,0,0,1,57.55,8.2c-1.12,0-1-.93-1.37-1.79.15.89.59,1.65-.14,2.27C54.77,8.34,54.16,7.61,54.62,6.26Z"/><path class="cls-72" d="M25.34,14.37l1.56.21a2.31,2.31,0,0,1,1.22,2c-.31,2.1.19,4.28-.66,6.32-.85.48-1-.2-1-.72a22.89,22.89,0,0,0,.08-2.43,6.39,6.39,0,0,1-.29,2.59c-.41,1.06-.94.89-1.51.11-.18-1.34.1-2.69,0-4-.06-.82-.09-1.6-1-2-.62-1.17-2.5-.89-2.77-2.44A5.08,5.08,0,0,1,25.34,14.37Z"/><path class="cls-73" d="M30.13,14.34a10.88,10.88,0,0,1,5.78-1.9,1.25,1.25,0,0,1,1.45-.16,2.09,2.09,0,0,1-.33,3c-.83.82-1.69.41-2.55-.16-1.26-.83-2.81.4-4.1-.46Z"/><path class="cls-74" d="M37.33,12.45H35.91c.16-.33.31-.65.47-1,1.32-1.35,2.57-1.65,3.7.22a5.2,5.2,0,0,1,.54.91c.32,1.22,1.43,2.29.69,3.71-.91.51-1.31-.07-1.6-.79a4.89,4.89,0,0,0-.89-1.65A6.83,6.83,0,0,0,38,13C37.75,12.84,37.54,12.64,37.33,12.45Z"/><path class="cls-75" d="M25.34,14.37c-1.47.25-2.89-.95-4.37-.11a1.57,1.57,0,0,1-1.39.65,1.8,1.8,0,0,1-1.45-.56l.51-.95,2.83,0C22.72,13.83,24.48,12.38,25.34,14.37Z"/><path class="cls-76" d="M39.69,11.92c-.88-1.76-2.16-.64-3.31-.45-.09-1.06,1.08-1.45,1.24-2.38l.66-.55.5.08C39.15,9.7,40.82,10.43,39.69,11.92Z"/><path class="cls-73" d="M27.81,16.32c-.62-.42-.61-1.16-.92-1.73,1.06-.46,2.16-.13,3.24-.25l0,0c.47.41,1.82.37.79,1.55-.84.24-1.83-.46-2.58.38A.48.48,0,0,1,27.81,16.32Z"/><path class="cls-77" d="M54.62,6.26c.47.81.94,1.61,1.4,2.42,1.29,2.89,1.16,6,1.41,9.06-.32,1.1-1.31,1.78-1.76,2.79,0,.18,0,.35-.05.52C54,21,53,22.21,51.8,23c-.65.44-1.14,1-2,.53a1.78,1.78,0,0,1-.31-2.06c2.19-1.24,2.62-1.85,2.74-4.08-1.31,1-1.16,3-2.66,3.81A.73.73,0,0,1,49,20.8a23.87,23.87,0,0,1-.81-4.59c-.18-2.15-.83-4.27-.25-6.45.28-.64.55-1.3,1.43-1.27a3.17,3.17,0,0,1,.44.12c.82.91-.25,2.19.6,3.19.55-1.06-.1-2.35.86-3.19l0-.92c.72-1,2.09-.11,2.85-1Z"/><path class="cls-78" d="M51.27,8.61v4.66c-2.78-1.16-1.79-3-1.46-4.66Z"/><path class="cls-79" d="M54.16,6.69c-.46,1.73-1.93.6-2.85,1C51.71,5.8,53.22,7.05,54.16,6.69Z"/><path class="cls-80" d="M49.37,8.49l-.94,1.07a1,1,0,0,1-.4-.82c.15-.52.15-1.06.31-1.58a.7.7,0,0,0-.08-.45C50.05,6.42,49.63,7.5,49.37,8.49Z"/><path class="cls-81" d="M39.69,11.92c0-.87.06-1.69-1-2.14-.71-.31,0-.77.07-1.16l2.77-1.53c2,.17,4-.14,5.86.52a.72.72,0,0,1-.21,1.16.82.82,0,0,1-.63-.08,1.56,1.56,0,0,0-1-.4c.36.11.72.11,1,.38a1.29,1.29,0,0,1,.27,1,1.76,1.76,0,0,1-1.12,1.25c-2,0-1.13,1.6-1.49,2.52-1.07.65-1.39-.22-1.75-.91-.48-.89-1-1.2-1.78-.29a1.15,1.15,0,0,1-.54.32Z"/><path class="cls-82" d="M47,8.6a1,1,0,0,0,.43-1,.94.94,0,0,1,.93-.45,1,1,0,0,1,0,1.41c-.32.31-.09.9-.58,1.12C47.17,9.57,46.66,9.38,47,8.6Z"/><path class="cls-83" d="M40.7,51.79c-.9-.83-1.74.2-2.65.11-.65-.07-.64.59-.25,1a16.89,16.89,0,0,0,1.7,1.34c-1.62.69-3.18.14-4.07,1.35a8.93,8.93,0,0,1-6.73-.87l-1.33-1.25a26.35,26.35,0,0,0,6.38.23c1,0,1.52-.3.23-.95-.55-.49-1.36-.46-1.92-.94h-.48c-.3-.95-.3-.95,1.05-1.09-.5-.34-1.31.18-1.44-.48s.64-.72,1.12-.89a4.37,4.37,0,0,1,2.55.26c1.53,1.08,3.18.48,4.8.36,1.38-.1,2.69-.06,2,2A.82.82,0,0,1,40.7,51.79Z"/><path class="cls-84" d="M34.93,49.88c-1.13,0-2.31-.77-3.48.31l1.58.29c-.14.87-2.1-.41-1.45,1.31-1.14-.25-1.76-1.59-3.12-1.45-.64.06-1.43-.06-1.47-.84,0-1.16,1-1,1.72-1.08h0c.9.55,1.95.08,2.88.46L34,49c.3.28.87.11,1,.61Z"/><path class="cls-85" d="M31,52.81c-.23.12-.4.27-.49.23-1-.44-2.46,0-3.08-1.35-.07-.14.12-.59.21-.59A3.9,3.9,0,0,1,31,52.81Z"/><path class="cls-84" d="M32.06,51.8a1.67,1.67,0,0,1,1.92,1A1.67,1.67,0,0,1,32.06,51.8Z"/><path class="cls-86" d="M51.85,48.07c-1.45-1-1.38-2-.11-3,.95-1,2.8-.22,3.5-1.75-1.28-.21-2.11,1.55-3.5.78-1-.25-2.2.62-2.89-.73,0-.87.59-1.25,1.23-1.63a27.54,27.54,0,0,0,3.33-2.22c1.39-.84,2.84-1.4,4.41-.43,0,.11.1.21.16.32.78,1.1-.62,1.57-.75,2.44.91.91,2.57-1.68,3.12.67C58,45.18,54.85,46.48,51.85,48.07Z"/><path class="cls-87" d="M58,48.9c-1.08.22-.65,1.88-1.87,2-.52-.1-1,.2-1.47.23-1.73-.1-1.31-1.18-1-2.21A12.6,12.6,0,0,1,57,47c.74-.45,1.16,0,1.46.58A.92.92,0,0,1,58,48.9Z"/><path class="cls-88" d="M62.8,47.51c-.6.38-1,1.06-1.85,1-.51-.15-1.09,0-1.52-.45.17-1.13-.9-1.38-1.42-2,1.06-.74,2.34-1.22,3-2.67,1,.93,1.76,1.76,1.09,3C61.56,47.4,62.7,47.06,62.8,47.51Z"/><path class="cls-89" d="M58,46.08c1.24.07,2.34.25,1.47,1.93.12.49-.12.75-.56.89H58c.46-1,.19-1.7-1-1.92Z"/><path class="cls-90" d="M53.63,48.88c.54.54-.34,1.79,1,1.94a.64.64,0,0,1,0,1c-1.19.19-1.28-1.46-2.38-1.43C52.22,49.42,52.79,49,53.63,48.88Z"/><path class="cls-91" d="M58.43,34.54c.81.44.41,1.26.6,1.9a4.89,4.89,0,0,0,.35,2.8l-1.4.18,0-.18a1.38,1.38,0,0,1-.48-.86,2.51,2.51,0,0,1,0-.67c0-.56.24-1.09.33-1.64A2.33,2.33,0,0,1,58.43,34.54Z"/><path class="cls-92" d="M58.92,48.9c.19-.3.37-.6.56-.89.57,0,1.15-.1,1.47.54a.54.54,0,0,1-.14.34c-.62,0-1,.51-1.45.7C58.34,50,58.93,49.23,58.92,48.9Z"/><path class="cls-93" d="M58.43,34.54v1.81a.36.36,0,0,1-.61.07c-.46-.76-1-1.51-.25-2.39a1.15,1.15,0,0,0,.32,0Z"/><path class="cls-94" d="M49.44,21.12a2.33,2.33,0,0,1,.38,0h0c0,.82,0,1.64,0,2.47l.62,1.37-.14,0h-.15c-1.13,1-2.5.49-3.76.61a8.46,8.46,0,0,0-3.09.22,5.65,5.65,0,0,1-.57.38,2.55,2.55,0,0,1-1.66.43,1.08,1.08,0,0,1-.71-.73,1.88,1.88,0,0,1,0-1.05,10.87,10.87,0,0,0,1.59-3.66.7.7,0,0,1,.58-.21c.62.37.6,1.09.92,1.63a1.31,1.31,0,0,0,1.27.73,6.67,6.67,0,0,1,1.84-.15C48.46,23.83,48.56,21.91,49.44,21.12Z"/><path class="cls-95" d="M56.55,21.12l1.5,0c0,.16,0,.32,0,.48C57.4,21.77,56.69,22.39,56.55,21.12Z"/><path class="cls-96" d="M42.58,25.84a1.16,1.16,0,0,1,.08-.32c1-.85,2.32,0,3.39-.54l4.08,0,2.38,2.43c-.06,1.14-.85.84-1.52.78-.67-.22-1.24-.67-1.91-.9-1.54-1-3.25-.75-4.94-.67A2,2,0,0,1,42.58,25.84Z"/><path class="cls-97" d="M53.17,27.32c1.65-.44.75.88,1,1.42v0a.82.82,0,0,1-1,.14,1.19,1.19,0,0,1-.33-.6A1.38,1.38,0,0,1,53.17,27.32Z"/><path class="cls-98" d="M53.17,27.32v.95a1.19,1.19,0,0,1-1.33.76,2.11,2.11,0,0,1-1.14-.66.73.73,0,0,1,0-.63c.62.05,1.31.44,1.76-.36Z"/><path class="cls-99" d="M27.26,45.08c2.62-.36,5.29.58,7.94-.57,1-.46.46,1,.7,1.53.75,1.13.61,1.84-.88,2A5.2,5.2,0,0,1,32.48,48l-2.89-.12C28,47.6,27.08,46.8,27.26,45.08Z"/><path class="cls-100" d="M8.17,27.74c-.57-1-.54-2.44-2-2.83a.33.33,0,0,1-.1-.36c-.19-1.19,1.73-.33,1.5-1.55.69-.27,1,.26,1.37.65.75,1.16,2,.33,2.9.67a.45.45,0,0,1,.18.36c0,.14,0,.21,0,.21a3.23,3.23,0,0,0,.87,2,1.44,1.44,0,0,1,0,2l-.94-.09c-.1-.57,1.15-3-1.07-.72C10.46,28.41,9.09,27.85,8.17,27.74Z"/><path class="cls-101" d="M4.28,17.24c-.33-1.91-.65-3.81-1-5.72v0C5.12,10.42,5.56,11.76,6,13s.74,2.77,1.38,4.07c.22.67.35,1.36.52,2a1.81,1.81,0,0,1-.2,1.38c-.57.4-.85,0-1.11-.41-.47-.56.7-3-1.62-1.4Z"/><path class="cls-102" d="M6.63,20.12l1,.48c.83.24,1.25,1,1.87,1.51.42.53,1.07,1.06.52,1.81-.39.53-.94.42-1.43,0a1.68,1.68,0,0,0-1-1C7.36,22,6.2,21.32,6.63,20.12Z"/><path class="cls-103" d="M7.08,17.27c-1-1.09-1-2.58-1.44-3.88-.26-1.08-.17-2.45-1.89-2.38.5-.75,1.29-.38,1.94-.52,1.32.79,3,.77,4.15,2a1.5,1.5,0,0,1,.67.94A4.84,4.84,0,0,1,10.3,16c-.82.86-1,0-1.23-.5-.32-.78-.13-1.72-.86-2.5-.08.56.27,1,0,1.49C7.6,15.31,7.93,16.54,7.08,17.27Z"/><path class="cls-32" d="M3.75,11c2.05-.33,2,1,1.89,2.38C5.12,12.45,5,11,3.31,11.5Z"/><path class="cls-104" d="M54.61,51.79v-1c.5-.13,1-.81,1.49,0l-1,.84A3.58,3.58,0,0,0,54.61,51.79Z"/><path class="cls-84" d="M41.66,51.8c-.22-1.18-.66-1.55-2.06-1.31s-3.36,1.35-4.67-.61h0c.6-.83,1.63-.52,2.39-.91,1.18,0,2.35,0,3.52-.07,1.71-.1,2.7.59,2.77,2.37-.14.56.25,1.4-.39,1.65-.8.3-.47-1-1.14-1.09A.27.27,0,0,1,41.66,51.8Z"/><path class="cls-105" d="M41.66,51.8a2,2,0,0,0,.43,0c0,.86-.37,1.5-1.21,1.33s0-.91-.18-1.36Z"/><path class="cls-106" d="M32.48,48a12.94,12.94,0,0,0,1.39-.07c.93-.15,2.3,0,1.39-1.67L35.9,46l2,0c.48.62,1.43.28,1.9.93h1.89c.82-.36,1.34.37,2,.53.39.4,1.33,0,1.37.9l.45,1h-.86c-2.41-1.55-5.09-.9-7.68-1C35.45,48.36,33.92,48.68,32.48,48Z"/><path class="cls-20" d="M37.33,49a5.3,5.3,0,0,1-2.39.91L34,49Z"/><path class="cls-20" d="M31.59,48.88a3.19,3.19,0,0,1-2.88-.46C29.68,48.52,30.72,48.15,31.59,48.88Z"/><path class="cls-107" d="M45,48.42l-1.45-.51c-.68-1-.61-1.85.73-2.24.75,0,1.38.24,1.6,1.07A2.29,2.29,0,0,0,46,47,1.52,1.52,0,0,1,45,48.42Z"/><path class="cls-108" d="M45.92,46.74l-1.4-.7c-2.06-2-3.75-4.17-3.36-7.31A9.23,9.23,0,0,1,42.87,37a13.41,13.41,0,0,1,5.07-2.48,4.6,4.6,0,0,0,2.05-.6l.3-.11a1.23,1.23,0,0,1,.63.09,1.11,1.11,0,0,1,.51.8,1.8,1.8,0,0,1-1,1.22c-1,.63-1.94,1.3-2.95,1.88-.78.65-1.78,1.08-2.23,2s-.88,1.8-.06,2.62,1.73.45,2.5-.25c.16-.15.32-.29.5-.43a2.87,2.87,0,0,1,2-.93,1.34,1.34,0,0,1,.59.28c.24.56-.23.77-.53,1.06l-1.46,1.17C47,43.76,47.38,46,45.92,46.74Z"/><path class="cls-109" d="M51.74,44.11c1-.54,2.06-1.07,3.08-1.63.45-.25,1-.42,1.32-.07.57.55,0,1-.3,1.44-1,1.55-2.62,1.2-4.1,1.23Z"/><path class="cls-110" d="M63.8,12.45l.42-1c1.67-.44,1.13.93,1.07,1.53-.07.77-.1,1.88-1.15,2-.49.07-.33-.74-.41-1.16a1.23,1.23,0,0,0-.1-.43A.72.72,0,0,1,63.8,12.45Z"/><path class="cls-111" d="M65.59,7.68c0,.86.32,1.79-.42,2.78-.72-1-.36-1.94-.45-2.81A.52.52,0,0,1,65.59,7.68Z"/><path class="cls-46" d="M65.59,7.68l-.87,0c.1-.37-.29-1.05.37-1.05S65.61,7.23,65.59,7.68Z"/><path class="cls-112" d="M56.91,18.25c-.3-3.19-.59-6.38-.89-9.57.31-1-.39-2-.33-3.2,1.2.61.82,2.12,1.81,2.64a1,1,0,0,1,.23.6,6.07,6.07,0,0,0,.07,1.41c.2.83.28,1.85,1.37,1.95s1.08-1,1.44-1.61a12.14,12.14,0,0,1,1.2-1.87c1.31.15.86,1.19,1,1.94a2.48,2.48,0,0,1-1.07,3.25c-1.25,1.1-2.73,2-3.66,3.38a3.18,3.18,0,0,1-.12,2.44l-1.35.5C55.84,19.35,56.75,18.86,56.91,18.25Z"/><path class="cls-113" d="M61.72,13.79c.36-1.08.72-2.17,1.07-3.25l1-.12.06,2-.17,1C62.79,12.47,62.85,16.2,61.72,13.79Z"/><path class="cls-3" d="M57.94,19.61l.12-2.44.48,1.43C58.47,19,58.42,19.45,57.94,19.61Z"/><path class="cls-114" d="M56.91,18.25c-.11.62-.21,1.24-.32,1.86a.9.9,0,0,1-.92.42C55.13,19.26,56,18.76,56.91,18.25Z"/><path class="cls-115" d="M55,31.14l.52.41A5.15,5.15,0,0,0,57,34.07c.33.48.47,1-.09,1.36-.38.25-.67-.17-1-.4-.35-.39-.69-.8-1.07-1.17a7.63,7.63,0,0,0-1.21-1,1.58,1.58,0,0,1-.77-1.4,1,1,0,0,1,.4-.56A2.06,2.06,0,0,1,55,31.14Z"/><path class="cls-91" d="M56.05,34.51c.24.19.54.58.7.53.46-.14.19-.63.26-1l.55,0c.17.79.34,1.58.52,2.37a1.41,1.41,0,0,1-2.29-.24A1.45,1.45,0,0,1,56.05,34.51Z"/><path class="cls-98" d="M55,31.14l-1.88.06a5.69,5.69,0,0,1-2.71,1.2c-.31,0-.62,0-.94,0-.66,0-1.33,0-1.55-.76s.54-1.05,1-1.35a2.93,2.93,0,0,1,2.19-.66c.84.09,1.4-.47,2-.9h1A2.46,2.46,0,0,0,55,31.14Z"/><path class="cls-116" d="M10,13.36c-.05-.3-.09-.61-.14-.91,3.13-1.07,4.63,1.77,6.86,2.87-.1.73.35,1.82-.68,2-.82.16-.55-.94-.87-1.39-.86-1.23-2.19-.37-3.27-.63A11.32,11.32,0,0,0,10,13.36Z"/><path class="cls-117" d="M18.13,14.35l1.49.09a1.32,1.32,0,0,1,.3,1c-.74,1.52-.7,3.35-1.83,4.71-.57-1.89,0-3.85-.33-5.76A1.63,1.63,0,0,0,18.13,14.35Z"/><path class="cls-118" d="M10,13.36c1.45-.15,2.17.42,1.9,2-1.69.44-.55,1.66-1,2.45,1.41.35.66-1.26,2-1.14-.65,2.76.1,5.5,0,8.28H12c-.06-.14-.11-.29-.16-.43A3.47,3.47,0,0,1,11,22.82c-.2-2.2-1.75-4.2-1-6.55Z"/><path class="cls-119" d="M18.09,20.19c.3-1.68.24-3.48,1.48-4.88,2.29-.54,2.41-.31,2.62,1.78a17.22,17.22,0,0,0,1.86,5.38c1,2.25.94,2.39-1.47,2.85a1.69,1.69,0,0,1-.36.23c.22-.1.39-.27.61-.38,1.27.13,2.52.24,3.32-1.11a1.1,1.1,0,0,1,1.29-.36c1.12.69,1,1.91,1.33,3,.31,1.91-.93,2.35-2.43,2.54-1-.27-2.06.87-3-.16.15-.58.77-.76,1.18-1.36-.86,0-.69.83-1.09,1.06-1.81.64-1.84-1.39-2.88-1.91A10.21,10.21,0,0,1,18.09,20.19Z"/><path class="cls-120" d="M23.42,28.75c1,1.09,1.92-.35,2.88,0,.27.94-.62.57-.95.83a7.88,7.88,0,0,1-3.86.09c-.32-.95-.63-1.9-.95-2.84C21.74,27.11,22.16,28.56,23.42,28.75Z"/><path class="cls-121" d="M42.2,21.06c-.14,1.42.18,3-1.53,3.81-.87.84-2-.19-2.9.41a3.11,3.11,0,0,0-1.11,1.32.83.83,0,0,1-.73.37c-.11-.07-.22-.29-.28-.28s-.17.17,0,.31a.9.9,0,0,1-.12.51,3.41,3.41,0,0,1-1.19.91,9.93,9.93,0,0,1-2.26,1.29c-.54.56-1.06,1.16-1.9.48a1.32,1.32,0,0,1,0-.44c-.08-1.1-1.16-1.64-1.41-2.69a10.49,10.49,0,0,1-.32-4.87,14.49,14.49,0,0,0-.15-5.93c0-1.44.11-1.46,2.38-.46,1.95-.39,3.06.79,3.89,2.12.35.08.48,0,.6-.13.43-.58.28-1.79,1.4-1.63.89.13.83,1.06,1,1.75.27,1.58.74.74,1.19.1a2.3,2.3,0,0,0,.07-2.65c-.27-.66-.54-1.32.06-2,1.09.13,1.29,1,1.42,1.83.09.62.31,1,1,1.05a.45.45,0,0,1,.66.06,9.71,9.71,0,0,1,.81,2.9A2.28,2.28,0,0,1,42.2,21.06Z"/><path class="cls-122" d="M28.24,16.26c1,.15,1,.89.92,1.61-.28,2.13.56,4.3-.59,6.46-.38.73.38,2.26,1,3.23a3.67,3.67,0,0,1,.59,2.19l-.9-1c-1.09-.24-.47-1.37-1-1.91l-.9-2.92a.59.59,0,0,1-.09-.92c0-2.25-.48-4.53.58-6.68A3,3,0,0,1,28.24,16.26Z"/><path class="cls-123" d="M28.22,26.84c.33.64.66,1.28,1,1.91-.17.37.08,1.36-.45,1-1.2-.77-2.32.23-3.42-.18l.95-.83C27.48,28.66,28.51,28.42,28.22,26.84Z"/><path class="cls-65" d="M12.85,28.82v-2l.86.49C13.61,28,14.45,29.1,12.85,28.82Z"/><path class="cls-124" d="M41.34,38.84c.2,2.78,1.83,4.93,3.18,7.2-1.25.15-.87,1.12-.93,1.87-.87.15-1.27-.66-1.94-.92-.63-1.66-.24-4-2.8-4.41a.85.85,0,0,1,.39-.94c.56-.92-.27-1.56-.46-2.33h0a10.79,10.79,0,0,0-1.86-4,.94.94,0,0,1-.45-.8,1.17,1.17,0,0,1,.34-.88l.66-.19a.77.77,0,0,1,.9,0c.86,1.19,2.15,2.14,2.11,3.82,0,.45-.13,1,.43,1.21A1.3,1.3,0,0,1,41.34,38.84Z"/><path class="cls-125" d="M28.7,38.35c-.76-2.31-.35-2.8,2.4-2.88,2.48-1.08,3.31-.89,4.31,1a9.49,9.49,0,0,1,.14,1.18c0,.93,1.37,1.55.78,2.48s-4.84,1.91-6,1.42c-1.46-.59-1.65-1.81-1.58-3.16,1-.83,2-.61,3.14-.24.34.11.2,1.15.89.47A1,1,0,0,0,33,37.7c-.08-.48-.49-.56-.89-.63A3.61,3.61,0,0,0,28.7,38.35Z"/><path class="cls-126" d="M35.41,36.44c-1.16-1.54-2.84-.78-4.31-1,.59-1.2,1.17-2.43,2.9-1.93,1.3-.69,1.94.46,2.79,1,.05.28.09.55.13.82C36.85,36.32,36.2,36.47,35.41,36.44Z"/><path class="cls-127" d="M36.79,34.54c-1.1.16-1.67-1.19-2.79-1,0-.17,0-.33,0-.5a6.76,6.76,0,0,1,2.76.64C36.81,34,36.8,34.26,36.79,34.54Z"/><path class="cls-128" d="M39.76,47c-.74-.1-1.76.4-1.9-.93C38.62,46.13,39.62,45.66,39.76,47Z"/><path class="cls-61" d="M38.78,39.31c.37.73,1.45,1.33.46,2.33C39.08,40.86,38.93,40.09,38.78,39.31Z"/><path class="cls-129" d="M34,27.85l1.42-.58a6.46,6.46,0,0,1,2-.47,2.65,2.65,0,0,1,.69.15,1.62,1.62,0,0,1,.78.66,1.17,1.17,0,0,1,.09.64,3.47,3.47,0,0,1-1,1.26,1.31,1.31,0,0,0-.36,1.42,3.5,3.5,0,0,1,.15.62,1.64,1.64,0,0,1-.4,1.5c-1.06-.64-.82-2-1.48-2.81,0-.63-.31-.92-1-.63L34,29.2A1,1,0,0,1,34,27.85Z"/><path class="cls-130" d="M34,27.85c0,.45,0,.9,0,1.35s0,.66,0,1c-.19,1.06-.79.86-1.44.46-.17-.31-.33-.63-.49-.95C32.13,28.52,33.57,28.72,34,27.85Z"/><path class="cls-131" d="M32.55,30.66c.52,0,1.09.1,1.44-.46.49.06,1,.25.83.83-.29.91-1.15.58-1.78.58S31.88,31.41,32.55,30.66Z"/><path class="cls-132" d="M37.37,33.05c0-.62-.06-1.24-.08-1.87,1.16-.13,1.27.91,1.72,1.57,0,.57-.12,1-.81,1l-.73-.23A2.33,2.33,0,0,0,37.37,33.05Z"/><path class="cls-133" d="M34.94,29.61c.1-.64.48-1,1.06-.67s.36.9-.11,1.3Z"/><path class="cls-134" d="M57.5,8.59V8.12c0-1.34,1.33-2.09,1.44-3.36.46-.89,1.08-1.09,1.9-.47,0,.47-.05,1,.41,1.31,1.12.71,1.13,1.3.06,2.16-.65.51,0,.72.5.84-.08.75.33,1.75-.94,1.92a.78.78,0,0,1-.55.25,3.76,3.76,0,0,1-1.53-1C58.4,9.33,57.83,9.09,57.5,8.59Z"/><path class="cls-71" d="M60.84,4.29a3,3,0,0,0-1.9.47c-.75-.39-2.2-.27-1.31-1.84,1.46-.92,3,.27,4.59-.3.64-.23.6.81.51,1.28C62.42,5.36,61.45,4,60.84,4.29Z"/><path class="cls-135" d="M27.23,23l.09.92c-1.16,2-2.89,2.16-4.86,1.47,2-.79,1.64-2,.71-3.46a31.91,31.91,0,0,1-2-4.79c-.6-1.44-.23-1.6-1.63-1.83,0-.29,0-.58.05-.87L21,14.26c1,.59,2.75.2,3,2A11.7,11.7,0,0,1,24.87,22c.24.31.45,1.1.91.3a7.54,7.54,0,0,0,.61-3.52C27.11,20.39,26.23,21.86,27.23,23Z"/><path class="cls-136" d="M24.87,22c-.57-1.87-1.27-3.72-.95-5.75.58-.27,1.26-.33,1.29.43C25.27,18.47,25.82,20.31,24.87,22Z"/><path class="cls-137" d="M39.24,18.2a4.75,4.75,0,0,0-.47,1,.89.89,0,0,1-1.19.8c-.58-.11-.66-.58-.71-1.07-.08-.8.19-1.68-.33-2.44-.87.35-.57,1-.64,1.48s-.14,1-.72,1.08a1,1,0,0,1-1.31-.72c-.41-1.75-1.93-2-3.25-2.56,1-.85-.42-.92-.47-1.44,1.23-.14,2.56.36,3.68-.55.35-.27.83-.36,1,.12.25.81.44,1.69,1.52,1.23.92-.38,1-1.34,1-2.24v-.47h1c.24,1.38-.08,2.92,1.14,4C39.44,17.06,39.66,17.67,39.24,18.2Z"/><path class="cls-138" d="M39.25,16.29c-2.37-.78-.85-2.5-.92-3.83a1,1,0,0,1,.45.94,3.25,3.25,0,0,0,.49,1.92A.67.67,0,0,1,39.25,16.29Z"/><path class="cls-81" d="M41.59,16.43l-.41-.15c.1-1.38-1-2.43-1.06-3.76l.14-.11C42.42,13.22,42.73,14.16,41.59,16.43Z"/><path class="cls-139" d="M49.44,21.12c-.21,2.75-.64,3.08-3,2.34a.6.6,0,0,1-.08-.58,9.47,9.47,0,0,0,1.06-2.81c-.1-1.34-1.71-2.24-1.11-3.77a2.62,2.62,0,0,1,.71-.66c1.18-1.42,1.62-.74,1.81.64Z"/><path class="cls-140" d="M49.82,21.08c-.11-1.66,1.32-2.71,1.63-4.25.16-.81,1.12-.73,1.6,0s-1.34,4.83-2.35,4.92c-.27,0-.59-.46-.88-.71Z"/><path class="cls-141" d="M48.8,16.28c-.42-.93-.88-.91-1.39-.06-1.1-1.7-.65-3.53-.48-5.34a2.46,2.46,0,0,1,.93-1.37l.49-.94c0,.33,0,.66.08,1C47.9,11.83,48.85,14,48.8,16.28Z"/><path class="cls-142" d="M52.74,12.11a3.87,3.87,0,0,1-.05-3.67A4.21,4.21,0,0,1,52.74,12.11Z"/><path class="cls-143" d="M41.59,16.43c.11-1.52.41-3.11-1.33-4,.09-.79.22-1.67,1.14-1.79s1.2.83,1.52,1.51.29,1.26,1.13,1.27a1.8,1.8,0,0,1,.62,1.87c-.3.45-.82.12-1.24.35.51.67,1.6,0,2,.87a6,6,0,0,1,.5,4.42c-.69,1-1,2.56-2.77,2.22-.89-.47-.52-1.31-.59-2a1.75,1.75,0,0,0-.38-2A6.36,6.36,0,0,1,41.59,16.43Z"/><path class="cls-144" d="M45.5,21.07a18,18,0,0,0-.48-4.8c-.12-.33-.46-.57-.47-1a3.23,3.23,0,0,1-.5-1.91,1.94,1.94,0,0,0-.13-.7c-1.38-2.13-.15-2.34,1.59-2.18,1.27,1.76,1.87,3.63,1,5.74-.33,1.62,1.86,2.24,1.52,3.86C47,19.92,46.52,21.24,45.5,21.07Z"/><path class="cls-145" d="M46.46,16.26c.23-2-.86-3.78-1-5.74l1-.95c.88-.24.83.45,1,1,0,1.89,0,3.79,0,5.68Z"/><path class="cls-17" d="M46.78,8.69c-1.14-.25-2,.17-3-.46C45,7.22,45.7,8,46.78,8.69Z"/><path class="cls-17" d="M47.42,10.54l-1-1c0-.33,0-.65,0-1H47a1.3,1.3,0,0,0,.88.91A1,1,0,0,1,47.42,10.54Z"/><path class="cls-146" d="M56.05,36c.55.71,1.32.44,2,.45a1.33,1.33,0,0,0,.34,0c-.16.52-.31,1-.46,1.56-.2.09-.41,0-.6.08.18.15.43.17.6.33,0,.31,0,.62,0,.92a6.37,6.37,0,0,0-5.39,1.5c-.7.55-1.22,1.48-2.3,1.47l.48-1A5.5,5.5,0,0,1,53.5,37a3.6,3.6,0,0,0,1.23-.88,1.42,1.42,0,0,1,.79-.44A.72.72,0,0,1,56.05,36Z"/><path class="cls-147" d="M58,38.32a1.93,1.93,0,0,1-.24,0c-.64-.13-1.42.4-1.89-.4,0-.1.16-.42.31-.54.82-.62,1.24.25,1.82.52Z"/><path class="cls-148" d="M45.5,21.07c.9-.13.8-2.88,2.48-.95-.62.92.09,2.49-1.44,3-1.06-.58-1.43.43-2,.88a1.5,1.5,0,0,1-1.36-.83C44.26,22.84,44.61,21.64,45.5,21.07Z"/><path class="cls-149" d="M37.35,24.92c1.09-1.19,2.22,0,3.32-.05l0,1A4.93,4.93,0,0,1,39.27,27a.87.87,0,0,1-.59-.07A9.47,9.47,0,0,1,37.35,24.92Z"/><path class="cls-150" d="M42.58,25.84c.56.06,1.17,0,1.55.55-.05.1-.09.21-.14.32-1,.55-1.91,2.58-3.16.25a1.2,1.2,0,0,1,.3-.62Z"/><path class="cls-151" d="M44.49,24c.19-.76.31-1.64,1.23-1.83.61-.12.69.51.82.95a1.22,1.22,0,0,1-.13.38Z"/><path class="cls-152" d="M42.16,19.15c1.31.43,1.77,1,.38,2a1.33,1.33,0,0,0-.34-.05C42.18,20.43,42.17,19.79,42.16,19.15Z"/><path class="cls-153" d="M41.13,26.34a1,1,0,0,1,0,.42,1.34,1.34,0,0,1-.56.44,1.28,1.28,0,0,1-1.32-.35c.06-1,.74-1,1.45-1Z"/><path class="cls-154" d="M46.05,25c-1,.69-2.27.27-3.39.54C43.64,24.39,44.92,25.12,46.05,25Z"/><path class="cls-155" d="M44.13,26.39a4.61,4.61,0,0,1,5.25.46c.2.53-.09.89-.43,1.24-1.22.74-2.47.23-3.71.08a2.27,2.27,0,0,1-.86-.57c-.29-.37-.55-.74-.28-1.23Z"/><path class="cls-156" d="M48.81,27.73l.57-.88a1.28,1.28,0,0,1,1.37.89c0,.16,0,.33,0,.49a.72.72,0,0,1-.57.21C49.64,28.34,49.1,28.26,48.81,27.73Z"/><path class="cls-157" d="M53.19,28.75c-.29.95-.67,1.78-1.91,1.48-.33-.63-.7-1.28.44-1.47l1.45-.49C53.18,28.43,53.18,28.59,53.19,28.75Z"/><path class="cls-158" d="M51.72,28.76c-.58.36-.42.94-.44,1.47-1.49-.59-2,.93-3.09,1.19.55,1.19,1.67-.28,2.12.74a1.7,1.7,0,0,1-.13,1.8l.07,0c-.46.7-1.29.71-1.94,1-2,.4-3.55,1.53-5.26,2.44-1.5-1.37-1.47-1.54.39-2.68,0-.37-.27-.54-.54-.69-2.22-1.28-2.21-1.27-.69-3.19.17-.21.13-.61.31-.89a7,7,0,0,1,4-1.66,18.8,18.8,0,0,0,3.75-.06c.15,0,.29,0,.43,0C51.11,28.31,51.51,28.35,51.72,28.76Z"/><path class="cls-30" d="M11.49,23a1.67,1.67,0,0,1,.33,1.49c-1.17.35-2.43,1.24-3.28-.51,2.67,0,.14-1.31.46-1.9,0-.11.06-.22.08-.33.34-.58.34-1.4,1.21-1.66C11.13,20.85,10.89,22.09,11.49,23Z"/><path class="cls-159" d="M7.08,17.27c.36-1-.77-2.43,1-2.92a7.07,7.07,0,0,1,1.28,7.33c-1.75,0-1-1.76-1.77-2.5C7,18.66,7.21,17.92,7.08,17.27Z"/><path class="cls-30" d="M7.57,19.18c1,.5.68,1.77,1.43,2.4.17.09.23.19.18.29S9.08,22,9,22l0,0c-.91-.05-1.08-.84-1.42-1.45C7.57,20.12,7.57,19.65,7.57,19.18Z"/><path class="cls-160" d="M9,22l0-.45c.89-2.57-.17-4.88-.94-7.23-.07-.22-.13-.45-.22-.66-.18-.46-1.34-.12-.88-1a1.46,1.46,0,0,1,.79-.48c.69-.22.95.31,1.29.76.78,1,0,2.41.93,3.35.51,2.23,1,4.46,1.52,6.7-.82-.54-.68-1.55-1.28-2.46C9.86,21.08,10,22.14,9,22Z"/><path class="cls-161" d="M42.61,30.25c1.18,1.31-2.75,1.62-.68,2.64a10.63,10.63,0,0,1,3,2.22c-1,.67-3.75-.26-1.9,2.29-.3.79-1.11,1-1.71,1.44l-.62,0c-.53-.34-.47-.9-.52-1.42-.24-1.45-1.5-2.35-2-3.66l.72-1.06C39.36,30.63,40.85,30.23,42.61,30.25Z"/><path class="cls-162" d="M54.13,37.37c-1.88.63-2.2,2.6-3.34,3.86h-.48c-1.26-.92-1.37.48-1.94,1h0c-1.13-.23-2.65.08-1.89-2.1.31-.89.09-2,.94-2.7l2.88-1.91c.68.76,1.26,1.26,2.44.59S54.86,35.66,54.13,37.37Z"/><path class="cls-163" d="M47.42,37.39c-.71,1,.41,2.43-.79,3.5-.28.24,1.2.74,1.74,1.3-1.49,1.56-3.41,1.94-4,.61a3.29,3.29,0,0,1,1.13-4.14C46.1,38.21,46.52,37.42,47.42,37.39Z"/><path class="cls-164" d="M54.13,37.37c.14-1.67-1.07-1.22-1.56-.72-2.25,2.32-2.14.43-2.27-1.17l1-.94a1.55,1.55,0,0,1,1-.55c1.79-.19,2.63.73,2.8,2.41A1.45,1.45,0,0,1,54.13,37.37Z"/><path class="cls-165" d="M52.21,34.5l-.93,0-.49-.49c-.57-2.08,1-2.13,2.29-2.37l1,1C54.7,34.54,52.68,33.73,52.21,34.5Z"/><path class="cls-166" d="M53.08,31.68c-.95.6-2.09,1-2.29,2.37L50.18,34a1.57,1.57,0,0,1,.13-1.8c.9-.43,1.66-1.29,2.82-1A2.61,2.61,0,0,1,53.08,31.68Z"/><path class="cls-167" d="M48.37,42.19c.14-.75.25-1.58,1.12-1.81.59-.16.75.37.82.85C49.47,41.16,49.05,41.92,48.37,42.19Z"/><path class="cls-166" d="M48.31,35a4.11,4.11,0,0,1,1.94-1C50,35,49.18,35,48.31,35Z"/><path class="cls-168" d="M57.5,8.59c.7,0,1.4,0,1.45,1,.53.23.32,1.57,1.42.94h.5c0,.88.05,1.74-1,2.17-.78.32-1.67.15-1.92-.41C57.45,11.15,56.43,10,57.5,8.59Z"/><path class="cls-166" d="M52.21,34.5c.18-1.08,1.87-.6,1.9-1.83a1.38,1.38,0,0,1,1,.88c.4.75,1.07,1.44.45,2.38l-.5.47C54.28,35.52,53.86,34.08,52.21,34.5Z"/><path class="cls-164" d="M55.57,35.93l-.45-2.38.93,1V36Z"/><path class="cls-120" d="M23.34,28.85c.39-.69-.6-1.56.33-1.92s1.24.58,1.9,1.15Z"/><path class="cls-135" d="M22.4,25.44c-.85.63-1.36.35-1.8-.55C21.4,24.62,21.78,25.71,22.4,25.44Z"/><path class="cls-169" d="M37.35,24.92c.94.34,1.63.86,1.42,2,0,.27-.11.41-.39.39l-.58,0c-.47-.33-1.19-.26-1.45-.92A1.41,1.41,0,0,1,37.35,24.92Z"/><path class="cls-170" d="M31.48,26.63c-.12-.2-.2-.28-.18-.33.27-.87.41-1.85,1.4-2.25a.45.45,0,0,1,.62.48A3,3,0,0,1,31.48,26.63Z"/><path class="cls-171" d="M35.42,26.85c-.42-.07-1,.12-1.17-.43,0-.1.2-.41.36-.45.7-.19,1.2,0,1.3.82C35.77,27,35.61,27,35.42,26.85Z"/><path class="cls-172" d="M35.42,26.85l.48-.06.45-.42,1.45.92-2.42,0C35.4,27.13,35.41,27,35.42,26.85Z"/><path class="cls-74" d="M39.25,16.29c0-.33,0-.65,0-1a2.16,2.16,0,0,1,0,2.88C39.24,17.56,39.25,16.92,39.25,16.29Z"/><path class="cls-173" d="M40.2,37.38c.57.33.48.9.52,1.42-.19.28-.53.51-.74.23A1.13,1.13,0,0,1,40.2,37.38Z"/><path class="cls-174" d="M28.7,38.35c.61-1.63,3.33-2.67,4.75-1.8.69.43.58,1.07.32,1.68a3.39,3.39,0,0,1-2.26,1.89c.55-3.1-1.82-1.28-2.81-1.76Z"/><path class="cls-175" d="M42.61,30.25a10.18,10.18,0,0,0-3.69,2.41c-1.07.1-1-1.11-1.63-1.48h0c-.19-.74,1.52-1,.5-2l.93-1c1.43,1.08,2.75.38,4-.32.59-.33,1-1.11,1.85-.59l.45.51c.27.63,1.58-.27,1.44,1Z"/><path class="cls-176" d="M44.58,27.27c-1.53.7-2.54,2.58-4.7,1.92-.52-.17-.62.13-1.16-1,0-.13,0-.25,0-.38.48-.66,1.44-.37,2-1a1.35,1.35,0,0,1,.44-.07c.12.74.38,1.16,1.19.61.56-.38,1.19-.67,1.78-1Z"/><path class="cls-132" d="M37.79,29.22a1.36,1.36,0,0,1,.93,1.72c-.23.69-1.08-.72-1.43.23C36.83,30.36,36.5,29.58,37.79,29.22Z"/><path class="cls-177" d="M40.69,26.83c-.36.91-1.13,1-2,1l-.35-.48.39-.39.48-.08Z"/><path class="cls-178" d="M60.37,10.51c0,.51-.23,1-.82.85-.94-.28-.5-1.16-.6-1.79C59.7,9.47,59.88,10.23,60.37,10.51Z"/><path class="cls-81" d="M44.55,15.31c.29.26,1.05.28.47,1-.84-.27-1.32.63-2.14.71,0-.79.1-1.53.16-2.36Z"/><path class="cls-179" d="M46.47,28.76l-1.44-1c1.26-.05,2.52.44,3.78-.05.53.07,1.13-.07,1.49.5C49.13,29.16,47.74,28.56,46.47,28.76Z"/></g></g></svg>