<svg xmlns="http://www.w3.org/2000/svg" viewBox="0 0 43.55 67.37"><defs><style>.cls-1{fill:#e57155;}.cls-2{fill:#bb757e;}.cls-3{fill:#e36654;}.cls-4{fill:#f4d9c3;}.cls-5{fill:#e6a08f;}.cls-6{fill:#db7a72;}.cls-7{fill:#b97b6e;}.cls-8{fill:#eb705c;}.cls-9{fill:#e88974;}.cls-10{fill:#f4e5da;}.cls-11{fill:#de524a;}.cls-12{fill:#e19776;}.cls-13{fill:#f2d5c1;}.cls-14{fill:#f8c08d;}.cls-15{fill:#e58f74;}.cls-16{fill:#cb7277;}.cls-17{fill:#dc746c;}.cls-18{fill:#e9a495;}.cls-19{fill:#dc907d;}.cls-20{fill:#de8057;}.cls-21{fill:#c3626f;}.cls-22{fill:#dd8479;}.cls-23{fill:#f6e2df;}.cls-24{fill:#ce8d8b;}.cls-25{fill:#f7c756;}.cls-26{fill:#f8d694;}.cls-27{fill:#d8676a;}.cls-28{fill:#9c77a6;}.cls-29{fill:#e2494e;}.cls-30{fill:#fdce8d;}.cls-31{fill:#c5754f;}.cls-32{fill:#ec866a;}.cls-33{fill:#9b7bae;}.cls-34{fill:#da5858;}.cls-35{fill:#e9363b;}.cls-36{fill:#ca4f5b;}.cls-37{fill:#b56779;}.cls-38{fill:#ec553d;}.cls-39{fill:#e28673;}.cls-40{fill:#b084ac;}.cls-41{fill:#dec0d1;}.cls-42{fill:#f9db95;}.cls-43{fill:#f7e8ce;}.cls-44{fill:#eaa37b;}.cls-45{fill:#f2e5e6;}.cls-46{fill:#f9d681;}.cls-47{fill:#997baa;}.cls-48{fill:#a082b1;}.cls-49{fill:#e37167;}.cls-50{fill:#a387b7;}.cls-51{fill:#e36f53;}.cls-52{fill:#a98db9;}.cls-53{fill:#f6c55b;}.cls-54{fill:#e7583a;}.cls-55{fill:#a989b5;}.cls-56{fill:#f3c276;}.cls-57{fill:#d68a8c;}.cls-58{fill:#eb865e;}.cls-59{fill:#f1c9d6;}.cls-60{fill:#a896c0;}.cls-61{fill:#be7078;}.cls-62{fill:#b28592;}.cls-63{fill:#f9d471;}.cls-64{fill:#f6d9c7;}.cls-65{fill:#f8ce81;}.cls-66{fill:#eca670;}.cls-67{fill:#dc8b50;}.cls-68{fill:#f7d87f;}.cls-69{fill:#cb7378;}.cls-70{fill:#de5d4a;}.cls-71{fill:#fbca9f;}.cls-72{fill:#e5504f;}.cls-73{fill:#9580b5;}.cls-74{fill:#eabfc5;}.cls-75{fill:#ea9c91;}.cls-76{fill:#e15443;}.cls-77{fill:#fbd688;}.cls-78{fill:#f7d376;}.cls-79{fill:#f4cf56;}.cls-80{fill:#bb848c;}.cls-81{fill:#aa93c1;}.cls-82{fill:#9175ab;}.cls-83{fill:#9985ba;}.cls-84{fill:#cf7767;}.cls-85{fill:#a48ebb;}.cls-86{fill:#e1af9e;}.cls-87{fill:#f7d477;}.cls-88{fill:#fbcf5a;}.cls-89{fill:#e65742;}.cls-90{fill:#f5d2b5;}.cls-91{fill:#b47193;}.cls-92{fill:#d65a4e;}.cls-93{fill:#dd4e4f;}.cls-94{fill:#f8dd9a;}.cls-95{fill:#f4d885;}.cls-96{fill:#f2ca81;}.cls-97{fill:#f2e4b0;}.cls-98{fill:#b776a1;}.cls-99{fill:#c85b57;}.cls-100{fill:#fee9dc;}.cls-101{fill:#fae2a6;}.cls-102{fill:#f6cca1;}.cls-103{fill:#8c7ab1;}.cls-104{fill:#dc5e32;}.cls-105{fill:#f4ebec;}.cls-106{fill:#fed680;}.cls-107{fill:#ee9979;}.cls-108{fill:#f1a29c;}.cls-109{fill:#9275b0;}.cls-110{fill:#f9eed7;}.cls-111{fill:#e05e4c;}.cls-112{fill:#fce9ee;}.cls-113{fill:#f3c19d;}.cls-114{fill:#b17790;}.cls-115{fill:#e3a09a;}.cls-116{fill:#f6d88a;}.cls-117{fill:#f2e0bb;}.cls-118{fill:#bca5c9;}.cls-119{fill:#e6a193;}.cls-120{fill:#eacf40;}.cls-121{fill:#9684b1;}.cls-122{fill:#fbe2c3;}.cls-123{fill:#fdf7f4;}.cls-124{fill:#a489b4;}.cls-125{fill:#b29ec9;}.cls-126{fill:#c88da0;}.cls-127{fill:#f9d27d;}.cls-128{fill:#f5ce75;}.cls-129{fill:#d95e57;}.cls-130{fill:#e28c58;}.cls-131{fill:#b28bb7;}.cls-132{fill:#d07457;}.cls-133{fill:#f8d98b;}.cls-134{fill:#d95f54;}.cls-135{fill:#c46c6f;}.cls-136{fill:#fedb5c;}.cls-137{fill:#f3dc9b;}.cls-138{fill:#df4946;}.cls-139{fill:#a77da1;}.cls-140{fill:#856fa4;}.cls-141{fill:#9289bb;}.cls-142{fill:#9b7da7;}.cls-143{fill:#9e84b7;}.cls-144{fill:#a77db7;}.cls-145{fill:#a583ac;}.cls-146{fill:#af98be;}.cls-147{fill:#baa9cf;}.cls-148{fill:#e3703e;}.cls-149{fill:#facc6b;}.cls-150{fill:#e56f3b;}.cls-151{fill:#af6884;}.cls-152{fill:#fae9d6;}.cls-153{fill:#fbe8b8;}.cls-154{fill:#e3dea0;}.cls-155{fill:#f1bd6f;}.cls-156{fill:#e35b66;}.cls-157{fill:#e54044;}.cls-158{fill:#d2455a;}.cls-159{fill:#7c74b2;}.cls-160{fill:#e47968;}.cls-161{fill:#a69ccb;}.cls-162{fill:#e9dee2;}.cls-163{fill:#dea1ac;}.cls-164{fill:#c4abd0;}.cls-165{fill:#d65557;}.cls-166{fill:#e4734c;}</style></defs><title>scarf1</title><g id="Layer_2" data-name="Layer 2"><g id="Layer_1-2" data-name="Layer 1"><path class="cls-1" d="M38.4,63.52l-.2-.05-.19.06c-3,1.6-6.19.73-9.32.68a2.35,2.35,0,0,1-.67-.29c-.76-.64-1-1.29,0-1.94.58-.13,1.13-.37,1.71-.51.5.11.92-.19,1.39-.27a3.39,3.39,0,0,1,1.84.46c1.15.62,2.34-.17,3.5.09a3.19,3.19,0,0,1,2,1.14A.58.58,0,0,1,38.4,63.52Z"/><path class="cls-2" d="M43.26,17.88a1.31,1.31,0,0,1-.38.09A1.55,1.55,0,0,1,41,17.82c-1.52-1.77-1.21-3.52.09-5.24a.79.79,0,0,1,.65.62c0,.13,0,.21.14.19a.67.67,0,0,1,0-.38,23.32,23.32,0,0,1-.17-3.91,10.55,10.55,0,0,1,.22-2.63,1.34,1.34,0,0,1,.46-.59l.36.11.15,2.31c1.14,2.36.49,4.84.45,7.27.18.63-.5,1.3.1,1.91A.48.48,0,0,0,43.26,17.88Z"/><path class="cls-3" d="M33.64,27.06l1.89,4a.41.41,0,0,0,0,.37.75.75,0,0,1,.17.92c-1-.26-.74.76-1.17,1.08-1.53-.63-1.17-2.27-1.82-3.38s-1.39-2.3-.15-3.53C33.16,26.31,33.42,26.66,33.64,27.06Z"/><path class="cls-4" d="M35.54,32.36c0-.32,0-.63,0-.94L37,32.85c-.17.5-.34,1-.5,1.5-.9,0-.91-.79-1.13-1.37A.9.9,0,0,1,35.54,32.36Z"/><path class="cls-5" d="M36.54,2.08A6.79,6.79,0,0,1,39.17.21c.93-.36,1.73-.39,1.66,1-.16.34,0,.79-.42,1-.58.15-1.18.09-1.75.29a3.44,3.44,0,0,1-1.28.06A1.25,1.25,0,0,1,36.54,2.08Z"/><path class="cls-6" d="M40.4,2.14l.43-.94A5.87,5.87,0,0,1,42.34,4c0,.63,0,1.26,0,1.88L42.26,6c-.79.14-.68-1.29-1.62-.92-.59-.26-.68-.8-.76-1.35a3.28,3.28,0,0,1,0-.7A1.64,1.64,0,0,1,40.4,2.14Z"/><path class="cls-7" d="M36.54,2.08l1,0a.79.79,0,0,1-.07,1.12c-.69.21-1.39.44-1.43-.7a2.6,2.6,0,0,1,0-.39Z"/><path class="cls-8" d="M12.71,60.66a13.41,13.41,0,0,1-1.63-6.16c-.43-.78.1-1.7-.37-2.48-.17-1.59-.34-3.19-.52-4.78.27-3-.2-6.11.46-9.13.89-.85-.69-2.59,1.12-3.1a.82.82,0,0,1,.66.78,2.56,2.56,0,0,1,0,.73,13.08,13.08,0,0,0-.13,3.25c0,.88,0,1.76,0,2.65,0,.51,0,1,0,1.55.06,1.68-.21,3.38.25,5.05a8.1,8.1,0,0,1,.2,1.91A12.11,12.11,0,0,0,13,54.22a4.77,4.77,0,0,1,.16.73,8.75,8.75,0,0,1,.09,1.14,8.54,8.54,0,0,0,.52,3C14,59.85,14.25,60.94,12.71,60.66Z"/><path class="cls-9" d="M12.08,35.25c-1.82.28-.28,2.25-1.43,2.86,0-1.58,0-3.16,0-4.74.53-.74-.13-1.72.48-2.44h0c.64-1.08-.4-2.88,1.46-3.44a1.53,1.53,0,0,1,.41.65,12.44,12.44,0,0,1,.12,3.5,6.75,6.75,0,0,1-.14.76C12.59,33.32,13,34.49,12.08,35.25Z"/><path class="cls-10" d="M12.52,27.52c-.94.94-.61,2.39-1.35,3.42a4.83,4.83,0,0,0-.51-2.42c1.44-.8,1-1.58,0-2.35a1.16,1.16,0,0,1,.7-.44C12.56,25.77,13.33,26.13,12.52,27.52Z"/><path class="cls-10" d="M11.17,30.93c0,.84.19,1.73-.48,2.44C10.74,32.53,10.32,31.61,11.17,30.93Z"/><path class="cls-11" d="M35.63,32.79l.9,1.56q1,4,2,8.09l1.41,8.68a.72.72,0,0,1,.15.91c-1.75.51-1.15-1.78-2.33-1.94a11.12,11.12,0,0,1-3,.66A19.46,19.46,0,0,1,30,50.52c-.9-.55-1.92-1.08-.19-1.88,1.83-.48,3.82.39,5.58-.66a1.86,1.86,0,0,0,1.32-2.55,18.85,18.85,0,0,1-.74-3.66,6.11,6.11,0,0,0-.26-1.34c-.18-.9-.31-1.82-.56-2.71-.2-1.25-.78-2.43-.65-3.73A3.8,3.8,0,0,1,35.63,32.79Z"/><path class="cls-12" d="M30.83,5.49l2.36-1a2.87,2.87,0,0,1,1.44-.27.78.78,0,0,1,.63.8A3.1,3.1,0,0,1,32.75,6.5a2.8,2.8,0,0,1-1.84-.35A.45.45,0,0,1,30.83,5.49Z"/><path class="cls-13" d="M29.36,6.93a1.09,1.09,0,0,1-.5-1,3.23,3.23,0,0,1,2-.45,3.55,3.55,0,0,0,0,.46c.2.56-.1.89-.52,1.17A.93.93,0,0,1,29.36,6.93Z"/><path class="cls-14" d="M34.66,4.51l-1.47,0c.33-.46,1-.62,1.06-1.33l.88,0C35.42,3.74,35.07,4.14,34.66,4.51Z"/><path class="cls-15" d="M39.48,21.34a6.07,6.07,0,0,1-4.51,2c-1,.08-2.56-.13-2.26,1.78-1.18-.1-1.19-1.22-1.68-1.93a1.33,1.33,0,0,1,.15-1,1.77,1.77,0,0,1,.6-.33,6,6,0,0,1,1.4-.08c2,.07,3.23-.48,2.87-2.8a1.86,1.86,0,0,1,.44-1.54.64.64,0,0,1,.64.06,3.81,3.81,0,0,1,.64,1.88C37.92,20.41,39.61,20.08,39.48,21.34Z"/><path class="cls-16" d="M39.48,21.34c-.59-.85-2.08-.2-2.42-1.45.53-.49.37-1.63,1.48-1.59,1.2.61,2-.31,2.84-.82l1.5.49C41.92,19.27,41.26,20.87,39.48,21.34Z"/><path class="cls-17" d="M31.33,23.24c1,.26.73,1.41,1.38,1.91a2.64,2.64,0,0,1,.93,1.91l-.86-.49a2.2,2.2,0,0,1-1.31-.2,2.6,2.6,0,0,1-1.1-2.06,2,2,0,0,1,.13-.69C30.69,23.3,30.9,23,31.33,23.24Z"/><path class="cls-18" d="M10.71,52c.68.75.39,1.63.37,2.48l-.42-.06Z"/><path class="cls-1" d="M27.9,64.5l-1,.91-4.58,1.1c-.72.14-1.46.57-2.09-.21-.07-.77.51-1.1,1-1.5a1.84,1.84,0,0,1,.73-.16,5.29,5.29,0,0,0,3.39-.31A2.13,2.13,0,0,1,27.9,64.5Z"/><path class="cls-19" d="M20.28,66c.51.73,1.33.33,2,.53-1,1-2.23.79-3.43.86-.82-.62-2-.75-2.42-1.9a1.45,1.45,0,0,1,1.49-.66C18.69,65.22,19.65,65.27,20.28,66Z"/><path class="cls-20" d="M1.14,17.81a.35.35,0,0,0,0-.34L.94,15.7c0-.11,0-.21,0-.31A1.73,1.73,0,0,1,1.57,14a.82.82,0,0,1,.78.42c.33.64.56,1.33.92,1.95l.59,1.12a6.56,6.56,0,0,1,1,2.08,1.71,1.71,0,0,1-.34,1.33C2.56,20.78,2.11,19,1.14,17.81Z"/><path class="cls-20" d="M.13,15.33l0-1.69c1.12.2,1.16.95,1,1.84l-.17.22Z"/><path class="cls-21" d="M17.89,65l-1.47.44c-.74-.41-1.46-.82-1.49-1.8,0-.76-2.32-1.43-.09-2.28a2,2,0,0,1,.9.49c1.61,1.42,3.56,1,5.43,1,1,0,2.08-.17,3,.53.37,2.37-1.58,1.11-2.43,1.56l-.57,0A3.18,3.18,0,0,1,17.89,65Z"/><path class="cls-22" d="M15,61.66c-1.55.66.68,1.35,0,2-1.64-.35-1.5-2-2.22-3,.94-.16,1-.8.52-1.38-.87-1.05-.59-2.25-.63-3.42,1.19.06.93,1.21,1.38,1.83C14.24,59,15.79,60.06,15,61.66Z"/><path class="cls-23" d="M1.14,17.81c1.48.63,1.69,2.58,3.24,3.13a1.17,1.17,0,0,1,.87.34c.65.77,1.58.59,2.41.72a2.38,2.38,0,0,1,.85.51c.53.55,1.19,1,1.33,1.85-.15.53-.57.63-1.05.62-.77.11-1.5-.83-2.29-.06-.14.26-.3.48-.62.23h-1c-1-2-1.63-4.2-3.37-5.76C1,19,1,18.4,1.14,17.81Z"/><path class="cls-24" d="M8.77,24.65c.38,0,.74-.06.92-.47a2.36,2.36,0,0,1,2.6-.33c1,1.43.22,1.7-1.08,1.63a2.12,2.12,0,0,0-.12.51l-.45.18-1.86-.09c-.48-.47-1.71.19-1.67-1.09C7.54,24.24,8.13,24.36,8.77,24.65Z"/><path class="cls-10" d="M7.25,25.2l1.53.89a3,3,0,0,1-2.9-.94l.46-.41C6.9,24.38,7.05,24.83,7.25,25.2Z"/><path class="cls-25" d="M32.76,62.06l-2-.47c-.67-.57-1.31-1.17-2-1.73a4.72,4.72,0,0,1-1.26-4.26A6.28,6.28,0,0,1,29.07,53a2.12,2.12,0,0,1,2.6-.44,1.76,1.76,0,0,1,1.13,2.22c-.19,1.1,0,2.17-.64,3.3a2.71,2.71,0,0,0,.75,3A.91.91,0,0,1,32.76,62.06Z"/><path class="cls-26" d="M32.76,62.06l0-.91c-1.27-2.59-1.15-3.2,1-4.77.5-.37,1-.93,1.69-.59s.74,1.21.52,1.9c-.51,1.64-.13,2.66,1.74,2.78a5.47,5.47,0,0,1,1.34,0,.72.72,0,0,1,.57.76,1.87,1.87,0,0,1-1.22,1.21,5.8,5.8,0,0,1-1.76-.18C35.34,61.92,34,63.3,32.76,62.06Z"/><path class="cls-27" d="M27.89,55.45a5.68,5.68,0,0,0,1.44,4.26c.35.6,1,1.14.4,1.93-.43.25-.58,1.47-1.38.39-1.59-1-.7-2.91-1.7-4.1a7.54,7.54,0,0,0-1-2.23,3.7,3.7,0,0,1,0-2.54,1.31,1.31,0,0,1,1.14-.78c.84.45.71,1.37,1,2.08A3,3,0,0,1,27.89,55.45Z"/><path class="cls-28" d="M27,57.8c1.47,1.08.61,2.93,1.39,4.23a1,1,0,0,0-.51,1.44c-.67.86-1.6.48-2.44.51a2.68,2.68,0,0,1-1.23-.71.74.74,0,0,1-.23-.61c.51-1.16,2.3-.67,2.64-2a2.25,2.25,0,0,0,0-1.18,3.68,3.68,0,0,1-.37-1.15,1.14,1.14,0,0,1,.22-.57A.38.38,0,0,1,27,57.8Z"/><path class="cls-29" d="M25,63.49l2.81,0,.85.12c-.26.3-.53.6-.79.91a6,6,0,0,0-3.29.82A3,3,0,0,1,21.72,65c.49-1,2.21.1,2.4-1.4A.62.62,0,0,1,25,63.49Z"/><path class="cls-30" d="M29.73,61.64c-.13-.64-.27-1.29-.4-1.93a2,2,0,0,1,1.44,1.88C30.43,61.8,30.1,62.08,29.73,61.64Z"/><path class="cls-31" d="M36.61,62.21,38.42,62a.83.83,0,0,1,.11,1.16h0Z"/><path class="cls-32" d="M39.9,52c0-.3,0-.61,0-.91,1.56.8,1.38,2.7,2.4,3.84.07.71.1,1.43.21,2.13.67,4.4.68,4.39-3.55,5.91-.47-.66,0-1,.48-1.29a13.45,13.45,0,0,0,2.15-1.4c.82-.73-.45-.36-.43-.7a2,2,0,0,1-.2-1.29,6.64,6.64,0,0,0-.62-3.62C40.07,53.83,39.48,53,39.9,52Z"/><path class="cls-1" d="M41.39,59.73c.33-.07.63-.83.84-.39a1.31,1.31,0,0,1-.52,1.8c-.94.56-2.26.61-2.74,1.86l-.44.13c0-.39-.07-.77-.11-1.16l1-.85A2.52,2.52,0,0,1,41.39,59.73Z"/><path class="cls-33" d="M41.38,17.48c-.77.91-1.06,3.24-2.9,1-.81-.79-.57-1.82-.65-2.78,0-2.08.08-4.17-.06-6.25,0-1.17-.55-2.25-.66-3.41a3,3,0,0,1,.11-.67c.43-.57.46-2.22,1.71-.66,0,0,.07,0,.13-.21.17-.7.27-1.47,1.31-.89.1.5,0,1.08.52,1.42a5.89,5.89,0,0,1,1,4c-.2,1.22.46,2.57-.57,3.66C41.1,14.26,39.79,15.89,41.38,17.48Z"/><path class="cls-34" d="M41.41,8.85c-.18-1.29-.35-2.57-.52-3.85.09-.42-.15-1.08.46-1.16s.39.54.49.89.28.87.42,1.3c0,1,0,1.89,0,2.83A.6.6,0,0,1,41.41,8.85Z"/><path class="cls-35" d="M41.41,8.85h.89c0,1.59,0,3.18,0,4.76a.56.56,0,0,1-.91,0l-.12-1Z"/><path class="cls-36" d="M41.41,13.6l.91,0c-.07.57.29,1.27-.47,1.68C41.1,14.87,41.47,14.18,41.41,13.6Z"/><path class="cls-4" d="M34.86,33.8l.78,3.81a1.14,1.14,0,0,1-1.37.25,1.64,1.64,0,0,1-.6-.86c-1.06-2.11-2-4.28-3.8-5.93a.77.77,0,0,1-.13-.64,2.66,2.66,0,0,1,1.07-.87,2.59,2.59,0,0,1,2.36-.15c.65,1.25.57,2.77,1.47,3.93A.42.42,0,0,1,34.86,33.8Z"/><path class="cls-37" d="M33.17,29.41l-2.4.7a1.84,1.84,0,0,1-1,0,2.43,2.43,0,0,1-1-1.22c.24-1.4,2.25-.57,2.48-2a1.83,1.83,0,0,1,.51-.8,1.16,1.16,0,0,1,1,.45C32.4,27.59,32,28.61,33.17,29.41Z"/><path class="cls-38" d="M34.86,33.8l-.22-.46c.19-.42-.41-1.58.9-1a1.57,1.57,0,0,1,.09.43C35.61,33.31,35.45,33.71,34.86,33.8Z"/><path class="cls-39" d="M37.56,5.49,37.5,6c-.55.22-1-.17-1.52-.23s-.75-.3-.84-.77l-.48-.45c.15-.46.31-.92.47-1.38l.93-.61c.3.59.85.56,1.38.54a.52.52,0,0,1,.25.49,1.45,1.45,0,0,0,0,1.4A.51.51,0,0,1,37.56,5.49Z"/><path class="cls-40" d="M37.56,5.49a.93.93,0,0,1,0-.33,1.63,1.63,0,0,1,0-1.8,1,1,0,0,0-.08-.3l.12-1,1.39,0a2.16,2.16,0,0,1,1.44.94c0,.16,0,.33,0,.49-1.32.07-.68,1.33-1.13,2.12C38.67,4.67,38.12,4,37.56,5.49Z"/><path class="cls-41" d="M40.39,3.09A1.65,1.65,0,0,1,39,2.15c.47-.81,1-.24,1.45,0C40.4,2.45,40.4,2.77,40.39,3.09Z"/><path class="cls-42" d="M12.17,51.06l-.09-1.86c-.37-1.76.08-3.57-.36-5.33l0-1.43c.87-.89-.12-2.88,1.85-3.14,1.88.53,2.19,1.68,1.31,3.31a9.52,9.52,0,0,0-.78,2.21c-.19.92,0,1.52,1,1.77.66.17,1.61.24,1.49,1.18s-1.1,1-1.87.9c-.41,0-.72-.15-.54.45-.66.66.16,1.39-.1,2.07a1.44,1.44,0,0,1-1.3.26A1.67,1.67,0,0,1,12.17,51.06Z"/><path class="cls-43" d="M13.53,39.55c-1,.42-1,1.29-.95,2.16,0,.66-.07,1.13-.89.73,0-.94,0-1.89,0-2.83.5-1.1-.14-2.33.4-3.42v0c1.43-.54,1.57.6,1.94,1.46A2,2,0,0,1,13.53,39.55Z"/><path class="cls-44" d="M13.54,37.67c-.35-.63-.45-1.51-1.46-1.5v-.92c.18-1-.35-2,.46-2.9a1.31,1.31,0,0,1,.53.83c0,1.48.73,2.08,2.15,2,.69.12,1.35.26,1.44,1.14S15,37,15.41,38.14a1.13,1.13,0,0,1-1.21.25C13.87,38.25,13.77,37.9,13.54,37.67Z"/><path class="cls-45" d="M12.6,55l-.1-.52A2.1,2.1,0,0,1,12.45,53a1.3,1.3,0,0,1,.62-.41,5.67,5.67,0,0,1,3.23.63.9.9,0,0,1,.36.6c-.08,1.09-1.09,1-1.76,1.42a4,4,0,0,1-1.25.44C13.14,55.69,12.87,55.33,12.6,55Z"/><path class="cls-46" d="M11.72,43.87c.91,1.73.57,3.53.36,5.33C11.29,47.47,11.83,45.65,11.72,43.87Z"/><path class="cls-44" d="M12.08,36.19c-.09,1.14.29,2.34-.4,3.42C11.75,38.46,11.22,37.24,12.08,36.19Z"/><path class="cls-18" d="M12.59,53l-.09,1.44c-.74-1.07-.29-2.26-.34-3.4l.41,0A1.41,1.41,0,0,1,12.59,53Z"/><path class="cls-47" d="M12.6,55l.94.44a1.63,1.63,0,0,1,0,2.37c-.77-.42-.22-1.48-.94-1.93Z"/><path class="cls-48" d="M12.66,31.88,12.57,28c.53-.24.17-1,.76-1.23a3.21,3.21,0,0,1,.87-.18c.21,0,.48.25.63-.1a1.09,1.09,0,0,1-.52-.43A1,1,0,0,1,15,24.75a3.42,3.42,0,0,0,1.92-1c.37-.4.53-1,1-1.27a1.91,1.91,0,0,1,1.68,0c.53.72,1.6,1.49-.39,1.78-.47.07-.65,1-.86,1.62a12.64,12.64,0,0,1-2.57,3.68c-.38.44-1.7.19-.79,1.68.61,1-1,.92-1.81.92A1.26,1.26,0,0,1,12.66,31.88Z"/><path class="cls-49" d="M13.11,27.11c.18.52.31,1-.54.86a1.33,1.33,0,0,0-.05-.45c.3-1.24-.43-1.51-1.43-1.53l-1.44-.61c.93-.68,2.49.52,3-1.13a1.31,1.31,0,0,1,.89-.54,3.44,3.44,0,0,1,.72-.06,2,2,0,0,1,1.34.49.83.83,0,0,1-.1,1c-.54.06-1,.25-1,.88S13.43,26.59,13.11,27.11Z"/><path class="cls-50" d="M12.66,31.88h.4c.56.47.95,1,.59,1.78-.55.43-.8,0-1.06-.38,0-.31,0-.62-.05-.93Z"/><path class="cls-51" d="M2.12,3.17,3.5,1.76l.88-.17c.67-.17.76.31.87.78C5.19,3.64,4,4.13,3.43,5.09a11,11,0,0,0-.65,1.1C2.15,7,2.33,8.26,1.39,8.94.76,9,.48,8.52.14,8.13L0,7.85C.06,6,1.41,4.73,2.12,3.17Z"/><path class="cls-52" d="M36.51,41.53c.32,1.53.66,3,1,4.59s-.07,2.34-1.78,2.1c-.34.25-.56.76-1.13.51-1-1.19-.39-3.15-2.29-4-.72-.31,0-1.36.64-1.86.27-.08.74-.1.16-.51a1,1,0,0,1,0-.6,1.62,1.62,0,0,1,.75-.64A3.47,3.47,0,0,1,35.61,41,1.52,1.52,0,0,1,36.51,41.53Z"/><path class="cls-53" d="M35.13,50.16a7.28,7.28,0,0,0,2.83-1,7,7,0,0,1,1.32,4.49c.13.53-1.65-.31-.66,1,.48.63.13,1.44-.8,1.57s-1.64-.24-1.38-1.32c.22-.9-.22-1.72-.12-2.59.07-.48.7-.6.74-1.11-.57.24-.75.89-1.28,1.17-1.29-.2-3.5,1.19-3.17-1.82C33.4,50.09,34.35,50.65,35.13,50.16Z"/><path class="cls-54" d="M39,54a15,15,0,0,0-1-4.78c.8,0,1,.48,1,1.18A1.63,1.63,0,0,0,39.9,52c.57,2.07,2.33,3.86,1.45,6.27C39.35,57.51,39.13,55.76,39,54Z"/><path class="cls-55" d="M34.63,48.64l1.06-.42c-1.73,1.83-3.89.68-5.86.85-.69-.64-1.81,0-2.46-.84-.07-1.41,1.21-1.5,2-2A15.24,15.24,0,0,1,34.63,48.64Z"/><path class="cls-56" d="M34.22,37.6h1.42a6.32,6.32,0,0,1,.54,2.81.64.64,0,0,1-.56.26c-1.27-.51-2.88.94-3.95-.68C32.12,38.78,33.24,38.26,34.22,37.6Z"/><path class="cls-57" d="M27.47,48.16c.79.29,2-.55,2.36.92-1.46.45.13.65.08,1,.24.59-.1.94-.52,1.25A1.43,1.43,0,0,1,28,51.24c.69-1.42-1.23-.63-1.24-1.46a1.61,1.61,0,0,1-.28-1.68A.8.8,0,0,1,27.47,48.16Z"/><path class="cls-58" d="M29.36,51.07l.55-1,5.23.1c-.69.72-1.63.3-2.43.52-1.11.38-1.52,2.12-3.09,1.62C28.91,52,29.62,51.44,29.36,51.07Z"/><path class="cls-59" d="M35.63,40.5l.55-.08c.46.27.43.68.33,1.11l-1-.09c-.23-.19-.52-.38-.43-.73S35.38,40.4,35.63,40.5Z"/><path class="cls-60" d="M27.46,8.36l.92.05a2.79,2.79,0,0,1,.51.52,4,4,0,0,1,.36,3.17,2.26,2.26,0,0,1-.53.77c-.45.42-.92,1-1.6.72s-.62-1-.61-1.64c0-.3.15-.6,0-.92-.21,1.15-1.06,1.8-1.58.64-.68-1.51-1.16.08-1.65-.18a1.89,1.89,0,0,1-1.23-1.08c-.09-.88.5-1.4,1.06-1.92Z"/><path class="cls-61" d="M11.63,6.86l1.92,0a.47.47,0,0,0,.4,0c.76.44,1.6.11,2.4.25,1.07.56.72,1.69,1,2.56a6.33,6.33,0,0,1-.27,3.75.64.64,0,0,1-.64.26c-1.15-.95-.28-2.54-1.15-3.57a3,3,0,0,0-2-1.49c-.64-.25-1.36-.29-1.85-.86A.82.82,0,0,1,11.63,6.86Z"/><path class="cls-62" d="M23.12,8.49c.22.85-.5,1.24-.88,1.8a.4.4,0,0,1,0,.55.7.7,0,0,1-.6,0,2,2,0,0,1-.42-1.14A1.58,1.58,0,0,1,21.3,8.5l-.06-.21A1.68,1.68,0,0,1,23.12,8.49Z"/><path class="cls-63" d="M35.14,5l.92.54a3,3,0,0,1,.17,1.83c-.1,1.16-.53,2.12-1.9,1.85-1-.19-2.45,0-2.19-1.8.44-.35.39-.93.62-1.38Z"/><path class="cls-14" d="M32.76,6c.05.31.51.62,0,.92-.36.24-.91-.32-1.18.28a1,1,0,0,1-1.17-.32L30.86,6Z"/><path class="cls-64" d="M30.39,6.88h1.4c.14,1,.19,2,.43,3A50.31,50.31,0,0,1,32.39,18a5,5,0,0,1-.14.77c-.69,1,.34,2.34-.77,3.2-2.23-.37-1.66-2.12-1.75-3.55a27.58,27.58,0,0,0,.32-8.11c-.21-.66-.33-1.35-.56-2a6.57,6.57,0,0,1-.15-1c0-.14,0-.29,0-.43Z"/><path class="cls-13" d="M29.34,7.36l.46.69c-.13.36-.12.8-.55,1a.67.67,0,0,1-.79-.25c0-.13-.05-.26-.08-.39Z"/><path class="cls-65" d="M3,5c.29-1.09,1.39-1.48,2-2.3a1.62,1.62,0,0,0,0-2c.73-.82,1.27-.47,1.38.39a7.23,7.23,0,0,0,.93,2,1.66,1.66,0,0,0,.4,1.31C9.31,5.65,9.26,7.27,8.8,9c-.7,1.51-.53,3.34-1.67,4.7a.6.6,0,0,1-.62-.33,5.47,5.47,0,0,1-.13-3.3C7.66,7.07,6.84,5.84,3,5Z"/><path class="cls-66" d="M8.27,8.84c.13-1.4.84-2.88-.91-3.92a1.09,1.09,0,0,1-.09-1.83,3.69,3.69,0,0,1,.46.08.93.93,0,0,0,.47.89C8.6,5,9.87,5,10.22,6,9.67,7,10,8.3,8.84,9.05A.67.67,0,0,1,8.27,8.84Z"/><path class="cls-67" d="M5,.67c1.37.68,1.27,1.35,0,2a1.16,1.16,0,0,0-.56-1.08Z"/><path class="cls-68" d="M31.78,18.44c-.23-3,.54-6.12-.44-9.12,3.09-1,4.13-.1,3.59,2.94-.2,1.12.13,2.37-1,3.28-.29.24,0,.78.41.93s.53-.23.61-.54a12.22,12.22,0,0,0,.26-3.53C35.14,11,35.05,9.31,37,8.81c1,1.17.64,2.53.53,3.86-.7,1.53.23,3.39-.94,4.84l0,.94c-.07,3.92-.64,4.37-4.83,3.83-.14-.08-.19-.17-.15-.26s.09-.13.14-.13c-.26-1-.81-2,0-3,.15.13.3.11.31-.09S31.9,18.53,31.78,18.44Z"/><path class="cls-69" d="M31.74,21.89c0,.13,0,.26,0,.39a2.36,2.36,0,0,0-.46,0c-.69.58-1.71.73-2.13,1.65-2.59.57-3.35.27-4.18-1.7.67-.67,1.54-.55,2.37-.62A2,2,0,0,0,28.73,21c.77-.68.39-1.78.95-2.54a.49.49,0,0,1,.57-.09C30.52,19.67,29.75,21.37,31.74,21.89Z"/><path class="cls-70" d="M38.48,15.56v2.89l-1.42,1.44c0-.82-.05-1.64-.07-2.46a2.91,2.91,0,0,0,0-.31c.08-.61,0-1.3.56-1.74A.75.75,0,0,1,38.48,15.56Z"/><path class="cls-71" d="M36.61,17.51c.16-1.61-.52-3.3.44-4.83,1.32,1.59,0,3.19,0,4.79l-.08,0Z"/><path class="cls-72" d="M29.41,23.24c.16-1,.16-1,1.88-.95,0,.32,0,.63,0,.95-.18.18-.36.37-.53.56C30.17,24,29.77,23.68,29.41,23.24Z"/><path class="cls-73" d="M31.76,26.12v.93c-1.48.76-2.85,1.92-4.7,1.24-.9-1-.88-2.31-1.18-3.51,1.5-1.1,3.15-1,4.83-.63A3.71,3.71,0,0,0,31.76,26.12Z"/><path class="cls-74" d="M30.72,24.15l-4.69.5a2.78,2.78,0,0,1-1.6-.86,1.58,1.58,0,0,1-.23-.59,1.34,1.34,0,0,1,.25-.91.44.44,0,0,1,.57,0c1.24,1.37,2.65,1.92,4.39.91.59-.14.95.3,1.39.56A2,2,0,0,1,30.72,24.15Z"/><path class="cls-75" d="M17.89,65h3.26c.07.65-.32.87-.87.94C19.37,65.93,18.36,66.15,17.89,65Z"/><path class="cls-76" d="M0,12.68.21,7.92c.68,0,.82.44.88,1,.92,1.06.5,2.35.59,3.54,0,.24,0,.47,0,.71a9,9,0,0,1-.15,1c0,.47.17,1-.41,1.32a3.25,3.25,0,0,0-.95-1.84C.11,13.32.05,13,0,12.68Z"/><path class="cls-77" d="M1.52,14.16l-.33-.53C2.11,13,3,12.25,2.93,11a1.07,1.07,0,0,1,.2-.68C3.71,9.51,4.53,8.53,5.38,9s.32,1.57-.33,2.25a1,1,0,0,0-.33.9c2-1.46,1.31,1,2.05,1.41l.08.05c.78.8.54,1.78.47,2.72-.14,2,.54,3.92.36,5.9-1.15.35-2.3.71-2.88-.85a4.41,4.41,0,0,0,.42-2.08c0-1.26-1.21-1.23-1.82-1.83l-.48-1c.69-1.09-.66-1.26-.88-1.94Z"/><path class="cls-78" d="M3.4,17.51c1.41-.13,2.79-.21,2.43,1.91a1,1,0,0,1-1.36,0Z"/><path class="cls-79" d="M4.47,19.4l1.36,0c0,.85.24,1.81-1,2l-.42-.48Z"/><path class="cls-78" d="M2,14.6c.44.68,1.67-.2,1.86.9.11.68-.34,1-1,1A3,3,0,0,1,2,14.6Z"/><path class="cls-80" d="M8.74,8.84c.61-.91.16-2.35,1.48-2.89l1.41.91v1l-.18.27c-.69.39-.87,1.17-1.3,1.75a1,1,0,0,1-1,.11C8.8,9.69,8.51,9.37,8.74,8.84Z"/><path class="cls-81" d="M24.11,62.6v.48c-1.19.33-1.43-1.14-2.46-1.23-.35.48,0,1.43-.89,1.66-1.87-.08-3.93.55-5.3-1.4a5.41,5.41,0,0,1,.5-2.69,2.36,2.36,0,0,0,.15-1.77,1.32,1.32,0,0,1,.26-.83s.41,0,.08-.21a.6.6,0,0,0-.23,0,.78.78,0,0,1-.41-.39,1.2,1.2,0,0,1,.75-.93,1.71,1.71,0,0,1,.63-.15c.65.05,1.28.16,1.93.21,1.39.51,2,1.4,1.52,2.88.75-.89.81-2.86,2.83-2.31a1.07,1.07,0,0,1,.87.87,1.09,1.09,0,0,1-.17.58c-.65.61.29.73.37,1.12C25.41,60,24.9,61.3,24.11,62.6Z"/><path class="cls-82" d="M16.41,59.71c-.64.67-.06,1.83-.95,2.4L15,61.66l-1.41-3.87V55.42l.88-.54c.89-.1,1.89-.79,2.48.51h0c-.21.42-1.33-.07-.94,1h0c.49.45,0,.94,0,1.41C16,58.44,16.76,59,16.41,59.71Z"/><path class="cls-83" d="M20.76,63.51c.95-.94-.42-1.67-.3-2.53,1.92-.42,2.53,1.27,3.65,2.1a1,1,0,0,1,.92.41l-.91.12Z"/><path class="cls-84" d="M8.74,8.84l.45.92A9.45,9.45,0,0,1,9.27,13c-.95,2.36.38,4.66.19,7-.2,1-.25,2.08-1.23,2.73l-.55-.49c-1.67-2.74-.84-5.72-.83-8.62q.71-2.42,1.42-4.81Z"/><path class="cls-85" d="M8.23,22.76c.4-.78.27-1.77,1-2.42a1,1,0,0,1,1.42-.64c.28.12.48.65.62.55,1.37-.95,1.36-1,2,.63.55,1.06,1.67,2.07.27,3.29l-.9.08-2.93-.07A3.57,3.57,0,0,1,8.23,22.76Z"/><path class="cls-86" d="M7.25,25.2l-.91-.46c-.25-.16-.64-.28-.7-.49a.43.43,0,0,1,.58-.47c.83.36,1.83.21,2.55.87C8.22,24.73,7.6,24.57,7.25,25.2Z"/><path class="cls-87" d="M29.39,52.05c1.56.65,1.78-1.95,3.32-1.37C33.11,53,35,51.57,36.1,52a.3.3,0,0,1,.47,0c0,1.06,1.72,1.87.35,3.16-.35.33.24.62.65.61.84,0,.76-.49.62-1.13-.11-.49-.83-2,.81-.73,1,1.32,1.07,3.16,2.35,4.34,0,.47,0,1,0,1.43a3.52,3.52,0,0,1-1.93,1.39L39,60.65c-.2-.47.27-.67.41-1a.7.7,0,0,0-.58-1c-.85,0-.47.58-.33,1,.25.64-.29,1-.43,1.52-4.19.19-2.88-2.66-2.33-5.08-2.65,1.1-4.1,2.45-3,5.15-.67-.07-1.27-.17-1.17-1.1.12-1.16-.7-2.41.75-3.41.71-.49-2.14-1.74.18-2.5.24-.08,0-.74-.21-.75-.81,0-1.29-1.07-2.35-.48s-1.11,1.91-2,2.54l-.41-.51a16.3,16.3,0,0,0,.43-2.87A1,1,0,0,1,29.39,52.05Z"/><path class="cls-88" d="M38,61.08c-.68-.42.44-1-.21-1.6-.39-.33-1.25-1.12-.07-1.62s1.94.32,2.48,1.3c.3.54.29.54-.92,1.18a1.73,1.73,0,0,0-.35.31Z"/><path class="cls-47" d="M16.9,55.39c-.69-.81-1.65-.33-2.48-.51L16.49,54c.78-.81,1.81-.65,2.79-.7a8.9,8.9,0,0,0,4.1-.62,2,2,0,0,1,2.58.39l.11,2.76c.33.62,1,1.18.43,2,0,.16,0,.32,0,.48-.31.15-.73.09-.79-.16-.24-.93-.87-.92-1.59-.8a1,1,0,0,0-.49-1c-1.55-.67-3.05-1.85-4.81-.5A2.94,2.94,0,0,1,16.9,55.39Z"/><path class="cls-89" d="M26,53.06c-2.31-.35-4.36,1.45-6.7.79-.3-.12-.61-.24-.62-.63a.89.89,0,0,1,.32-.54c1-.65,2.26-.22,3.21-.94a10,10,0,0,0,2.55-.92,2.38,2.38,0,0,1,1.15-.41,4,4,0,0,1,.87.27A5.34,5.34,0,0,1,27.9,51l1.46,0c1.58.28-.23.66,0,1-.52.09-1.09,0-1.5.42a.59.59,0,0,1-.82.15Z"/><path class="cls-90" d="M27.07,52.62l.82-.15c1.33,1.06-.24,1.65-.41,2.47A2.93,2.93,0,0,1,27.07,52.62Z"/><path class="cls-91" d="M26.5,57.8c-.15-.66-.29-1.32-.43-2,1.16.27.84,1.21.89,2H26.5Z"/><path class="cls-83" d="M24.11,57.32c.83,0,.66-.62.58-1.22,1.14.49.7,1.94,1.8,2.18.17.32.33.64.49,1,.36.48-.43.95,0,1.44,0,2.09-1.81,1.42-2.85,1.92-.11-1.44.78-2.88,0-4.32a.64.64,0,0,1,0-1Z"/><path class="cls-47" d="M27,60.68c-1.2-.49-.34-1,0-1.44C27.74,59.72,27.12,60.2,27,60.68Z"/><path class="cls-92" d="M37.07,17.47c0-1.6,0-3.19,0-4.79-.1-1.3.35-2.67-.45-3.89-.78-.43-.56-1.34-1-1.95.14-.45.28-.89.41-1.34C36.8,4.84,37,6,37.5,6c0,1,1.07,1.75.58,2.83-.35,2.24.45,4.57-.53,6.75C37.47,16.21,37.76,17,37.07,17.47Z"/><path class="cls-93" d="M37.55,15.54c.27-2.24-.61-4.57.53-6.75.8,2.22.34,4.51.4,6.77Z"/><path class="cls-94" d="M29.86,30.9c1,0,1.63-.09,1.81,1.36.21,1.67,2.27,2.58,2.46,4.44-2.6,2.61-3,2.65-4.86.53,1.58-1.16,1-2.41.26-3.8-1.23.89.19,2.09-.62,2.89a5.33,5.33,0,0,1-4.13.1c-.18-.16-.39-.4-.32-.59.63-1.73,1-3.44-.13-5.13A1.36,1.36,0,0,1,25.82,30a10.28,10.28,0,0,1,2,.55A1.85,1.85,0,0,0,29.86,30.9Z"/><path class="cls-95" d="M29.36,37.17c1.29.79,2.58,1.85,3.69-.26.11-.21.71-.15,1.08-.21l.09.9c-.28,1.37-1.5,1.75-2.5,2.37a.61.61,0,0,1-.57.18,1.67,1.67,0,0,0-1.72.15,1.72,1.72,0,0,1-.64,0c-.73-.31-1.42-.64-1.48-1.57a4.38,4.38,0,0,1,1.47-1.64A.63.63,0,0,1,29.36,37.17Z"/><path class="cls-96" d="M27.94,30.91c-.66-.06-1.4.23-1.92-.45a1.68,1.68,0,0,1,1.55-1.07,3.31,3.31,0,0,1,2.27.53l.93.19-.91.38C29.29,31,28.75,31.54,27.94,30.91Z"/><path class="cls-97" d="M27.94,30.91l1.92-.42v.41c-.06.5-.24.9-.83.94A.9.9,0,0,1,27.94,30.91Z"/><path class="cls-98" d="M27,28.06c1.78.53,3.11-1.07,4.79-1-.08.55.26,1.34-.79,1.28a2.8,2.8,0,0,0-2.12.62,1.29,1.29,0,0,1-1.8.18A.79.79,0,0,1,27,28.06Z"/><path class="cls-99" d="M27,29,28.86,29c.58.07,1,.31,1,1H27.39a1.06,1.06,0,0,1-.51-.64Z"/><path class="cls-100" d="M37.52,3.36v1.8C36.86,4.56,36,4,37.52,3.36Z"/><path class="cls-101" d="M14,49.15l-1-.72c1-.63,2.28.19,3.29-.65-3.62-1.46-3.84-2.19-1.79-5.35l.27.26c.25,2.27,1.45,3.27,3.76,3a2.23,2.23,0,0,1,2,.64,2.81,2.81,0,0,1,0,2.78c-1,1-2.35.54-3.49.93A3.73,3.73,0,0,1,14,49.15Z"/><path class="cls-101" d="M13.54,37.67l.52.47c.79,1,1.64.74,2.51.13a3.55,3.55,0,0,1,3.27.81,2.84,2.84,0,0,1,.94,1,4.77,4.77,0,0,1-.93,2.49c-.42.28-1.12.5-1.32.21-1.24-1.88-2.65-.71-4-.35h0a1.91,1.91,0,0,0-1-2.88C13.53,38.92,13.53,38.29,13.54,37.67Z"/><path class="cls-46" d="M14,49.15l2.88.48c1.13,0,2.26,0,3.39,0a1.83,1.83,0,0,1,1.43.34c.55,1.35-.46,1.39-1.31,1.57-1.3.28-2.73-.12-3.9.77a2.27,2.27,0,0,1-1.84,0A1.25,1.25,0,0,1,14,51.08c-.27-.63-1.44-.6-1.21-1.52C13,49,13.59,49.21,14,49.15Z"/><path class="cls-102" d="M14,51.08a.9.9,0,0,1,.47.91c-.28.56-1,.5-1.36.89l-.54.14c0-.64,0-1.29,0-1.93Z"/><path class="cls-103" d="M16.59,36.62c-.2-.9-.92-.94-1.63-1a.74.74,0,0,1-.15-.69c1.09-1.44,2.52-1,3.94-.75.58.11,1,.5,1.76.38,2.08-.33,2.4.27,1.53,2.38a9.35,9.35,0,0,1-4.81.17A1.4,1.4,0,0,1,16.59,36.62Z"/><path class="cls-104" d="M16.59,36.62a1,1,0,0,1,.3.05,2.26,2.26,0,0,0,1,.43c1.57.11,3.14,0,4.71,0a1.17,1.17,0,0,1,1.16.77.82.82,0,0,1-.46.55c-.81.32-1.69.24-2.5.52a2.33,2.33,0,0,1-.74.07,10.14,10.14,0,0,0-4.29-.72l-.27-.26c-.29-.58-1.35-.51-1.25-1.45Z"/><path class="cls-105" d="M14.91,35.31a.91.91,0,0,0,.05.33c-1.94.37-2.65-.49-2.37-2.36l.93.54.31,0A1.9,1.9,0,0,1,14.91,35.31Z"/><path class="cls-106" d="M16.45,38.64c-1.15,1.56-1.9,1.15-2.4-.5l1.41-.07v0C15.7,38.46,16.25,38.24,16.45,38.64Z"/><path class="cls-107" d="M13.13,52.88c0-1,.78-.79,1.36-.89l1.91,0A1.16,1.16,0,0,1,17.87,52c-.1,1.59-1.48.27-1.85.86.8.13,1.8-.46,2.73.22a3.13,3.13,0,0,1,0,.43,3.27,3.27,0,0,1-2.46.08Z"/><path class="cls-108" d="M16.33,53.54l2.46-.08.47.39L16.48,54Z"/><path class="cls-109" d="M13.52,33.82c-.16-.65-.31-1.29-.46-1.94.42-.67,1.6.64,1.7-.57.07-.87-.88-.65-1.76-.94,2.61-.73,3.74-2.6,4.84-4.57.43-.79.26-2.49,2.05-1.9l-.11-1.15c-.14-.45.13-.65.48-.8a2.28,2.28,0,0,1,1.07,0c.77.25,1.66.29,2.09,1.16.31,2.8.09,3.12-2.42,3.37.48,1.68,1.61,3.22.59,5.15C20.78,33.15,19.73,34,18,33.83a13.45,13.45,0,0,0-4.52,0Z"/><path class="cls-110" d="M20.26,22.22l-.48.53-1.86,0c-1.06.05-1.51-.64-1.79-1.51a1.09,1.09,0,0,1,.33-1C18,20.36,19.45,20.68,20.26,22.22Z"/><path class="cls-111" d="M15.47,25.14l-.05-1a1,1,0,0,1-.18-.65c.24-.7,0-1.71,1.19-1.81.35.82,1.11,1.47,1,2.47C16.89,24.69,16.43,25.42,15.47,25.14Z"/><path class="cls-112" d="M13.11,27.11c.05-.85.65-1,1.35-1.09.61.44,1.64-.28,2.14.91A9.84,9.84,0,0,1,13.11,27.11Z"/><path class="cls-113" d="M17.46,24.17a3.66,3.66,0,0,1-1.11-2.31.45.45,0,0,1,.17-.6l1.4,1.46C17.83,23.23,18,23.8,17.46,24.17Z"/><path class="cls-114" d="M13.52,24.17a2.94,2.94,0,0,0-.94-2.93c1.36,0,1.49-1.67,2.64-2,.83.38.69,1.12.68,1.81a2.57,2.57,0,0,1-.19.67A3.11,3.11,0,0,1,14,24.2Z"/><path class="cls-115" d="M14,24.2l1.44-2.34a1.82,1.82,0,0,1,.05,1.86c0,.15-.05.29-.07.44Z"/><path class="cls-116" d="M3,5c.87.29,1.64-1.73,2.11-.55C5.75,6.15,10.2,6.8,6.83,9.8,5.44,8.88,4.37,7.58,3,6.68a1.2,1.2,0,0,1-.55-.77Z"/><path class="cls-117" d="M2.43,5.91,3,6.43c.51,1.92-.13,3.83-.16,5.74a1.08,1.08,0,0,1-1.66,1c0-1.42,0-2.83-.08-4.25C1.75,8,1.54,6.7,2.43,5.91Z"/><path class="cls-118" d="M34.63,48.64c-1.93-.37-3.49-1.59-5.25-2.37l-.2-.25a.89.89,0,0,1,.2-.88c.8-.82-.75-1.46-.17-2.26,1-1.56,2.34-2,4-.9l0,.46c.17.1.22.21.17.31s-.11.16-.17.16c-.42.8-1.6,1.64.33,2.16C35.7,45.65,33.87,47.56,34.63,48.64Z"/><path class="cls-119" d="M31.34,40a1.7,1.7,0,0,0,.39,0c.87.23,1.72.64,2.63,0,.62-.44,1.16-.42,1.27.52-.51.27-.12.62-.1.94l-1.82,0A37.18,37.18,0,0,0,27,42.61c-1.71-1.13-1.21,1.31-2.2,1.37a2.25,2.25,0,0,1-.3-3.34c.45-.56-.28-1,.21-1.27,1.53-.63,2.82.32,4.2.65l.47,0C30,40.36,30.68,39.8,31.34,40Z"/><path class="cls-55" d="M26.5,42.39c2.23-1.65,4.79-.67,7.21-.91l-.52.5c-1.47-.06-3-.3-3.84,1.4a1,1,0,0,1-1.21.29c-.64-.86-1.71.84-2.3-.37C25.76,42.78,25.82,42.36,26.5,42.39Z"/><path class="cls-55" d="M33.22,42.91v-.47a1.34,1.34,0,0,1,1.39,1.13Z"/><path class="cls-120" d="M36.57,52.05l-.47,0c-.67-1.17.63-1,1-1.37s.38.23.41.47C37.59,51.81,37.6,52.48,36.57,52.05Z"/><path class="cls-121" d="M26.09,43.39c.61.65,1.24-1.23,1.86,0,.32.55.07,1.06-.11,1.58-.84,2,1.52.28,1.54,1.29h0c0,1.28-1.71.82-1.91,1.89l-.84.08a1.14,1.14,0,0,1-.95-.67,6.67,6.67,0,0,1-.2-3.17A1.48,1.48,0,0,1,26.09,43.39Z"/><path class="cls-122" d="M26,47.6c.2.21.39.43.58.64.14.46.26.91.39,1.37a1.55,1.55,0,0,1-.5,1.41L26,50.6a2.15,2.15,0,0,1-.64-2.81A.61.61,0,0,1,26,47.6Z"/><path class="cls-123" d="M26.51,51c0-.51-.07-1.09.5-1.41.07.62,2.19,0,.89,1.42C27.43,51.08,27,52,26.51,51Z"/><path class="cls-124" d="M23.15,23.24c-.43-.78-1.51-.19-1.95-.95a8.34,8.34,0,0,1,0-1.73c.43-3.25-.23-6.61.94-9.79,0-.16.06-.32.08-.48l.89.94c.73,2.4,1.62,4.72,3.51,6.42.45-.58.84-1.76,2.22-1.72a1.47,1.47,0,0,1,.44.55,3.74,3.74,0,0,1,.19,1.1c0,.38-.1.75-.11,1.13-.07.88.2,1.81-.45,2.59,0,.61-.31,1-1,.93a3.29,3.29,0,0,0-3.37.08l0,.93A1,1,0,0,1,23.15,23.24Z"/><path class="cls-125" d="M28.88,16c-1.42.72-2,2.06-2.45,3.63-.29-2-1-3.41-2.81-4.19-.51-.22-1.61-1.1,0-1.69.12,0,.2-.17.3-.25a3.5,3.5,0,0,0-.55-.4c-1-.54-.85-1.19-.21-1.9,1.19.12.68-1.22,1.37-1.65.58.65-.17,2,1.83,2,.2-.06-.93-1.76.52-1.52.26,0,.47.36.7.55a2.62,2.62,0,0,0-.44,2.65c.86.06,1.1-.88,1.78-1.05A3,3,0,0,1,28.88,16Z"/><path class="cls-126" d="M28.88,16c0-1.28,0-2.56,0-3.84a10.23,10.23,0,0,0-.43-3.39h.9c1.17,2.3.72,4.69.42,7.08a.78.78,0,0,1-.84.66Z"/><path class="cls-127" d="M21.68,9.26v1.48c-.3,2.37.09,4.82-.9,7.11-.48.55-.47,1.71-1.54,1.53a3.2,3.2,0,0,1-2.57-1.92,3.77,3.77,0,0,1,.22-3.86l0-4.3c.46-1.51,1.57-.64,2.42-.63A3.69,3.69,0,0,1,21.68,9.26Z"/><path class="cls-128" d="M16.88,13.6a22.12,22.12,0,0,0,.07,3,2.56,2.56,0,0,0,2.15,2.13c1.41.37.21-1.41,1.18-1.3.82,1,.55,2.4,1.39,3.37,0,.54.1,1.09-.47,1.44l-.94-.07L16.5,20.41a1.37,1.37,0,0,1-.51-.72c-.17-2-.83-4.11.52-6Z"/><path class="cls-129" d="M16.51,13.68c-.05,2.07-.1,4.13-.16,6.2-.52.34.35,1.49-.84,1.44-.15-.64.18-1.43-.59-1.87-.7-.05-.7-.52-.63-1a3.27,3.27,0,0,1,.3-.66c.45-1.6.14-3.22.21-4.83.09-1.06-.25-2.23.72-3.08C17.36,10.73,16,12.45,16.51,13.68Z"/><path class="cls-130" d="M21.68,9.26c-1.61.31-3.22-.66-4.83,0-.72-.49.15-1.36-.44-1.88,1.62.41,3.34.36,4.89,1.08Z"/><path class="cls-131" d="M15.52,9.84c0,1.09-.07,2.18-.1,3.28a.38.38,0,0,1-.54.09,1.62,1.62,0,0,1-.31-.54,3.83,3.83,0,0,1-.1-.59c0-.58-.12-1.13-.74-1.42a2.87,2.87,0,0,1-.93-.8,2,2,0,0,1-.37-1.26.68.68,0,0,1,1.11-.27C14.59,8.31,15.4,8.62,15.52,9.84Z"/><path class="cls-80" d="M13.54,8.33l-1,.48c-1,.38-1.3.08-1-.92l0,0C12.29,8,13,7.66,13.54,8.33Z"/><path class="cls-132" d="M21.67,20.85c-1.76-.59-1.35-2.07-1.39-3.37,1-2.13,0-4.69,1.39-6.74l.49,0A64.05,64.05,0,0,1,21.67,20.85Z"/><path class="cls-133" d="M35.65,6.84a3.2,3.2,0,0,1,1,1.95c-1.69,2.33-.12,5.09-1,7.56-.19.56-.26,1.2-.91,1.19-.86,0-1.26-.87-1.77-1.43-.37-.41-.27-1,.33-1.41,1.53-1.1.64-3.13,1.62-4.45a6.16,6.16,0,0,0-3.57-.93c.4-.76-.18-1.71.45-2.44.34-.48.64,0,1,0-1,2.08,1,1.5,1.69,1.68C36.07,9.08,35.42,7.58,35.65,6.84Z"/><path class="cls-134" d="M29,18.46v-1c1.19-1.74.39-3.72.67-5.56.11-.73-.61-1.77.66-2.15a17.47,17.47,0,0,1-.06,8.62l-.4,0A.55.55,0,0,1,29,18.46Z"/><path class="cls-135" d="M30.31,9.79c-.95,1.78-.22,3.71-.46,5.55-.1.8.38,1.83-.87,2.16,0-.32,0-.64,0-1,1-2.54.21-5.16.42-7.74.08-.29,0-.66.44-.75A2.23,2.23,0,0,1,30.31,9.79Z"/><path class="cls-136" d="M31.78,18.44c.84.06,1,.57.86,1.28,0,.16-.37.39-.46.35-.52-.24-.33-.78-.44-1.2A2,2,0,0,1,31.78,18.44Z"/><path class="cls-137" d="M1.17,13.14C2.5,13,2.71,12,2.45,11,2,9.38,2.58,7.93,3,6.43c2.06.23,2.78,2,3.84,3.37l-.06,3.8c-1,0-.81-.93-1.11-1.55-.49.59-.08,1.47-.89,1.72-.4.12-.61-.19-.69-.48-.19-.78-.42-1.67.2-2.27s1.33-.63,1-1.59c-1.15.59-2,1.25-2,2.85,0,1.13-1,1.49-2.11,1.35C1.18,13.47,1.18,13.31,1.17,13.14Z"/><path class="cls-138" d="M29,18.46l.86,0c-.32.95.81,2.37-.92,2.87Z"/><path class="cls-139" d="M24.58,22.31c1.1-1,2.21-1.52,3.37-.08l-2.93.1A2.16,2.16,0,0,1,24.58,22.31Z"/><path class="cls-140" d="M27,28.06l0,1v0c-1.16.58-1.47-.41-1.89-1.09s-.7-1.71-1.11-2.53c0-.65-.55-1.5.6-1.77a1.63,1.63,0,0,1,1.41,1C27.26,25.53,26.94,26.84,27,28.06Z"/><path class="cls-50" d="M24.62,23.65l-.52,1.5c.29,1.18-1.27,2.09-.47,3.35a6.31,6.31,0,0,1-.1,2.63,22,22,0,0,0-.25,3.53c-.09.77.22,1.84-1.1,1.93,0-1.43-.14-2.45-2-1.34-.8.49-1.39-.63-2.32-.66a3.78,3.78,0,0,0-3,.72,3.76,3.76,0,0,1-1.39-1.49c1-.74,1.84-1.63,3.39-.68a2.65,2.65,0,0,0,3.33-.46c.79-1.09,1.92-2.37,1-4a22.43,22.43,0,0,0-.94-2.16c-.38-.54.1-1.05.79-.94,1.68.27,1.95.07,2-1.62a5.38,5.38,0,0,1,.12-.7h1.39A1.86,1.86,0,0,1,24.62,23.65Z"/><path class="cls-141" d="M11.6,7.89a.86.86,0,0,0,1,.92,1,1,0,0,1,.49,1,2.22,2.22,0,0,1-1.32.76,1.32,1.32,0,0,1-1.44-.43c0-.1-.07-.2-.1-.3C9.76,8.49,10,7.72,11.6,7.89Z"/><path class="cls-142" d="M8.74,13.14c.15-1.13-.4-2.35.45-3.38l1,0h0C10.19,11.12,11.34,13,8.74,13.14Z"/><path class="cls-143" d="M18.81,55.86c1.67-1.93,2.37-1.86,4.81.5-1.85-.53-1.77,1.33-2.59,2.08-.3.26-.19,1.31-1.07.48-.63-.59-.53-.6.19-1S20.1,56.34,18.81,55.86Z"/><path class="cls-144" d="M16.41,59.71c-.27-.67-1-1.08-.95-1.92a.67.67,0,0,1,1,0A1.16,1.16,0,0,1,16.41,59.71Z"/><path class="cls-47" d="M16.43,57.79h-1l.48-1.44H18C17.46,57,16.3,56.77,16.43,57.79Z"/><path class="cls-145" d="M24.1,57.32v1c-.58-.08-1.51.12-1.31-.85S23.64,57.24,24.1,57.32Z"/><path class="cls-47" d="M16,56.35c-.21-.19-.63-.48-.59-.57.32-.74,1-.23,1.53-.38Z"/><path class="cls-146" d="M8.74,13.14c1.86-.51.34-2.5,1.46-3.34l1.42.47c1.7,0,2,2,3.33,2.37l0,.51a12.32,12.32,0,0,1,0,5.27,2.5,2.5,0,0,1-.38.06c-2,0-2.21-1.31-2-2.77.13-.8.25-1.57-.64-1.7-1.19-.17-.85,1-.85,1.53a12.42,12.42,0,0,0,.2,3,1,1,0,0,1-.67,1.3l-1.42.46C8.59,18,7.73,15.62,8.74,13.14Z"/><path class="cls-147" d="M10.64,19.88c0-1.69-.55-3.4,0-5.08.18-.53-.69-1.33.36-1.6a2.32,2.32,0,0,1,2,.49c.69.54.56,1.26.35,2a3.37,3.37,0,0,0,1.19,2.83,1,1,0,0,0,.34,1c-.13,1.45-.46,2.64-2.34,1.79-.12-.56.3-1.3-.58-1.64-.54.78.66,1.72-.4,2.52A4.38,4.38,0,0,1,10.64,19.88Z"/><path class="cls-148" d="M25.6,47.79c-.3,1,.38,1.86.38,2.81l-.83.48c-.73-.46-.73-1.32-1.11-2a31.11,31.11,0,0,1-1.55-7.32c0-1.24-.3-2.53.59-3.63l.52-.06a.5.5,0,0,1,.58-.06,1.76,1.76,0,0,1,.41,1.51c.84,1.39-.84,3,.4,4.37a1.11,1.11,0,0,1,.46.58C25.4,45.6,26,46.67,25.6,47.79Z"/><path class="cls-149" d="M24.54,49.2c.78.44.37,1.26.61,1.88-.81.87-1.91.84-3,1-1.44.27-2.88.7-4.33,0L16.4,52c.25-1.29,1.3-.79,2.08-.94,1.1-.22,2.48.47,3.21-1C22.39,49,23.59,49.52,24.54,49.2Z"/><path class="cls-150" d="M17.86,52.1l4.33,0c-.86,1.38-2.39.3-3.44,1H15.84C16.4,52.11,17.43,52.83,17.86,52.1Z"/><path class="cls-151" d="M23.05,28.07c-1.1-1.5.82-1.91,1.05-2.92.84,0,.84.66,1,1.26.35,1,.47,2.33,1.88,2.63.13.29.25.58.37.87L26,30.46a1.33,1.33,0,0,0-1.49.41.39.39,0,0,1-.55.05C23,30.17,24.42,28.68,23.05,28.07Z"/><path class="cls-97" d="M29.36,37.17l-.44,0a.63.63,0,0,1,0-.94,2.6,2.6,0,0,0-.66-1.48c-.42-.67.1-1.2.4-1.72a.84.84,0,0,1,1.21-.38c1.52.83.66,2.51,1.25,3.74C31.55,37.33,30,37,29.36,37.17Z"/><path class="cls-96" d="M24.12,30.88a1.86,1.86,0,0,1,.41,0c.11,1.36,1.42.82,2.39,1.27-1.53,1.09-1.61,2.71-2.3,4l-.38.1c-1.11-.87-.64-2.12-.77-3.23a6.48,6.48,0,0,1,.09-1.16A1.52,1.52,0,0,1,24.12,30.88Z"/><path class="cls-96" d="M28.89,36.19l0,.94c-.36.63-.54,1.45-1.49,1.49-.79.53-1.38.12-1.94-.4a.72.72,0,0,1,.37-.88,16.4,16.4,0,0,1,2-.36,7.05,7.05,0,0,1-1.76.17,2.88,2.88,0,0,1-1-.11.76.76,0,0,1-.54-.79l.1-.1Z"/><path class="cls-152" d="M25.53,38.09l1.9.53L28.91,40a15,15,0,0,1-4.32-.47c-.63-.32-.46-.87-.42-1.39A.91.91,0,0,1,25.53,38.09Z"/><path class="cls-56" d="M31.34,40a1.19,1.19,0,0,1-2,0C30,38.55,30.66,39,31.34,40Z"/><path class="cls-42" d="M24.54,49.2c-.54,1.57-2,.29-2.85.91H20.26a.66.66,0,0,1,0-1c0-1,0-1.92,0-2.88-.73-1.21-.46-2.54-.47-3.83a2.33,2.33,0,0,1,.94-2.38L21,40c.71.67,1.83.91,2.13,2Q23.83,45.59,24.54,49.2Z"/><path class="cls-153" d="M19.78,42.44c1.34,1.13.35,2.55.47,3.83H18.38c-4.39-.05-3.84.57-3.88-3.83.67-.31,1-1,1.52-1.42.75-.58,1.78-1.43,1.93.57C18,42.83,19.1,42.29,19.78,42.44Z"/><path class="cls-154" d="M20.26,49.15v1c-1.12-.18-2.35.43-3.36-.49C17.91,48.72,19.14,49.34,20.26,49.15Z"/><path class="cls-155" d="M16.45,38.64c-.39-.06-.78-.12-1-.53a20,20,0,0,1,4.81.51c.27.55.34,1-.5,1A5.08,5.08,0,0,0,16.45,38.64Z"/><path class="cls-42" d="M19.78,39.58a1,1,0,0,0,.5-1,.75.75,0,0,1,.42-.07c1,.44,1,.55.06,1.48l0,0Z"/><path class="cls-156" d="M22.18,36.59c1-1,.26-2.18.46-3.27.14-.82-.17-1.71.4-2.46l.29.2a4,4,0,0,1,.28,2.07v.7a7.32,7.32,0,0,0,.21,2.42.92.92,0,0,1-.2.69,1.88,1.88,0,0,1-1.42.45c-1.59-.13-3.2.26-4.78-.23l-.53-.49Z"/><path class="cls-155" d="M20.76,40c.16-.5.69-1-.06-1.48.72-.6,1.57-.38,2.38-.39l.06,3.8C22.29,41.39,21,41.41,20.76,40Z"/><path class="cls-157" d="M22.65,37.17l1-.53c.51-.35.95.45,1.46.08H26a.6.6,0,0,1,0,.93l-.49.45-1.36.07-.57-.06a1,1,0,0,0-.91-.48c-.17-.09-.24-.18-.19-.29S22.6,37.17,22.65,37.17Z"/><path class="cls-158" d="M22.65,37.17c0,.15,0,.3,0,.45-1.75-.22-3.59.57-5.27-.46Z"/><path class="cls-159" d="M18.35,31a.81.81,0,0,1,.89.85c0,.85-.51,1-1.21,1-.46,0-1,0-.91-.7S17.56,30.94,18.35,31Z"/><path class="cls-160" d="M15.51,21.32l.84-1.44.15.53c0,.28,0,.57,0,.85s-.12.4-.17.6c-.29.62-.58,1.24-.86,1.86,0-.62,0-1.24-.05-1.87Z"/><path class="cls-161" d="M27.45,44.84,28,43.4l1.4,0c.21.9,1.33.75,1.74,1.45-.44.76-1.16.37-1.73.49C28.55,45.88,28.09,45,27.45,44.84Z"/><path class="cls-55" d="M27.45,44.84c.84-.64,1.2.62,1.91.48,0,.32,0,.64,0,1a5.8,5.8,0,0,1-.93,0c-.54,0-.86,1.13-1.55.24S27.08,45.35,27.45,44.84Z"/><path class="cls-162" d="M25.12,44.34a2,2,0,0,1-.13-.42c0-.55,0-1.1,0-1.64s0-1.21.8-1.16.66.73.67,1.27a.87.87,0,0,0-.41,1l-.18,1A.47.47,0,0,1,25.12,44.34Z"/><path class="cls-163" d="M25.12,44.34h.79c0,1.08.09,2.17.13,3.25l-.44.19Z"/><path class="cls-114" d="M15,18.42c0-1.76,0-3.51,0-5.27a3.15,3.15,0,0,0,.44,0C15.26,14.89,15.94,16.73,15,18.42Z"/><path class="cls-164" d="M15,12.64c-.8.15-1.88.65-1.84-.79,0-1.2-1.75-.36-1.49-1.58.34-.54.91-.45,1.43-.5l1,.51c.92.36.22,1.5.94,2Z"/><path class="cls-146" d="M15,12.24c-2,.18-.46-1.38-.94-2C15.35,10.44,14.89,11.47,15,12.24Z"/><path class="cls-165" d="M24.12,30.88l-.14,1c-.79.2-.44-.67-.81-.87L23,30.86c0-.93,0-1.86,0-2.79.17-.42.23-1,.86-.88s.26.58.25.92C24.14,29,24.13,30,24.12,30.88Z"/><path class="cls-146" d="M11.55,16.52c-.1-.37-.25-.6-.18-.73s.33-.24.5-.35c.06.14.19.31.15.42A3,3,0,0,1,11.55,16.52Z"/><path class="cls-166" d="M25.07,36.72c-.53.72-1,.1-1.46-.08,0-.15,0-.3,0-.44-.51-.73.12-1.68-.44-2.4v-.51c.25-.25.39-.69.88-.49.31,1.13-.29,2.38.48,3.45Z"/><path class="cls-157" d="M24,32.8l-.88.49c0-.77,0-1.55,0-2.32l.81.87Z"/><path class="cls-166" d="M26,37.64c0-.31,0-.62,0-.93a3.17,3.17,0,0,1,2.1.2C27.67,38,26.77,37.62,26,37.64Z"/><path class="cls-157" d="M23.15,33.8c.8.68.36,1.59.44,2.4C22.86,35.51,23.24,34.61,23.15,33.8Z"/></g></g></svg>