<svg xmlns="http://www.w3.org/2000/svg" viewBox="0 0 56.28 72.56"><defs><style>.cls-1{fill:#de7590;}.cls-2{fill:#e994ac;}.cls-3{fill:#8f73ab;}.cls-4{fill:#8e70a9;}.cls-5{fill:#d6c4dc;}.cls-6{fill:#9478ac;}.cls-7{fill:#db567e;}.cls-8{fill:#9b80b3;}.cls-9{fill:#947baa;}.cls-10{fill:#9f84ac;}.cls-11{fill:#b39bc6;}.cls-12{fill:#d46683;}.cls-13{fill:#dd5f7f;}.cls-14{fill:#d67288;}.cls-15{fill:#c76790;}.cls-16{fill:#df6081;}.cls-17{fill:#da5a78;}.cls-18{fill:#e3d8e9;}.cls-19{fill:#d47485;}.cls-20{fill:#b9a3c6;}.cls-21{fill:#e49db8;}.cls-22{fill:#efaec7;}.cls-23{fill:#ae95c3;}.cls-24{fill:#c8b5d7;}.cls-25{fill:#d2c0da;}.cls-26{fill:#9479ad;}.cls-27{fill:#a68dbb;}.cls-28{fill:#baa4cc;}.cls-29{fill:#a188b8;}.cls-30{fill:#c0abce;}.cls-31{fill:#9b8baf;}.cls-32{fill:#9d83b3;}.cls-33{fill:#cbacd1;}.cls-34{fill:#e793ad;}.cls-35{fill:#efa4b7;}.cls-36{fill:#e78ea9;}.cls-37{fill:#e67592;}.cls-38{fill:#dbcbe1;}.cls-39{fill:#aa99b8;}.cls-40{fill:#a58cbb;}.cls-41{fill:#dc5d7f;}.cls-42{fill:#d98999;}.cls-43{fill:#8f71a5;}.cls-44{fill:#c6b4d6;}.cls-45{fill:#eb97ae;}.cls-46{fill:#ecafc8;}.cls-47{fill:#edc0d2;}.cls-48{fill:#f6c0d7;}.cls-49{fill:#edb4d0;}.cls-50{fill:#e69fba;}.cls-51{fill:#d988a2;}.cls-52{fill:#e5bbd7;}.cls-53{fill:#f291aa;}.cls-54{fill:#ef80a7;}.cls-55{fill:#c897b3;}.cls-56{fill:#e8aec8;}.cls-57{fill:#f2b9d0;}.cls-58{fill:#fadae8;}.cls-59{fill:#d39db7;}.cls-60{fill:#9f88b0;}</style></defs><title>scuba</title><g id="Layer_2" data-name="Layer 2"><g id="Layer_1-2" data-name="Layer 1"><path class="cls-1" d="M55.63,62.38a10.29,10.29,0,0,1,.19,3.75c0,.16,0,.33,0,.49A3,3,0,0,1,56.28,68a2.91,2.91,0,0,1-2.41,2.6,1.15,1.15,0,0,1-.43-.59,2.34,2.34,0,0,1,.3-1.77c.66-1,.37-2.22.39-3.35.08-2.06-1.46-3.51-2-5.32a1.51,1.51,0,0,1,.78-1.14l1.91,2.4Z"/><path class="cls-2" d="M55.83,68c.13.51.27,1,.4,1.52-.17.47-.33,1-.49,1.42-.59.5-1.22.16-1.84.11a.39.39,0,0,1-.14-.37c0-.13.06-.19.1-.19A3.32,3.32,0,0,0,55.83,68Z"/><path class="cls-3" d="M11.21,42.66l.86-.48c1.73,0,3.06-1.28,4.72-1.53a.69.69,0,0,1,1,.55c.15.77-.63.93-1.07,1.31C14.22,44.27,11,44.9,8.91,47.39c-2.51,3-5.61,5.71-6.11,10a2.56,2.56,0,0,1,0,.62,3.67,3.67,0,0,0,.06,2.34,12,12,0,0,0,.53,1.41c.55,1.9-1.18,1.14-1.87,1.6C-.76,59.69-.43,55.65,2.28,52a55.87,55.87,0,0,1,7.45-8.3A2.9,2.9,0,0,0,11.21,42.66Z"/><path class="cls-4" d="M1.47,63.34c.09-.54.15-1.06,1-.82,1.13.34.56-.4.48-.81-.35-.53-.11-1.14-.27-1.7.06-.8.27-1.58.33-2.38A2.56,2.56,0,0,1,3.1,57C4.5,54.11,7,52.27,9.39,50.43c1.32-.84,2.74-1.48,4-2.33a2.5,2.5,0,0,1,1-.2,1.6,1.6,0,0,1,1,.34,1.26,1.26,0,0,1-.11,1.32,9.88,9.88,0,0,1-2.56,2.17,15.89,15.89,0,0,0-6.18,5c-1.77,1.57-1.5,3.7-1.59,5.73a7.08,7.08,0,0,0,3.52,7c.51,2.22-1,1-1.77,1-.38,0-.76-.06-.91-.5a10.17,10.17,0,0,1-1.94-2.39c-.44-.52-.66-1.27-1.4-1.51Z"/><path class="cls-5" d="M37.43,38.36c.67-.08,1.44,0,1.54-1,.66-.14.71.34.79.78-.18.77.2,1.13.9,1.4a7.24,7.24,0,0,1,2.67,1.51.91.91,0,0,1,.06.63c-1,1.5-3,1-4.18,2.17a6.22,6.22,0,0,1-2.15-.19,23.73,23.73,0,0,0-11.65.71,16.45,16.45,0,0,1-2.76.63c-.72-.08-1.51.11-1.33-1.22.08-.6-1.16-.27-1.63-.75a1,1,0,0,1-.42-1.62,22.48,22.48,0,0,1,10.64-2.85C32.42,38.45,34.93,38.84,37.43,38.36Z"/><path class="cls-6" d="M37.43,38.36c-.25,1.6-1.52.88-2.27.84a36,36,0,0,0-15.87,2.47c-.86.83-1.76,1.37-2.9.47-.12-.57,2.34-.43.4-1.49A31.16,31.16,0,0,1,37.43,38.36Z"/><path class="cls-7" d="M39.53,38.34c-.19-.33-.38-.65-.56-1-.44-.67-.87-1.35-1.3-2C36.33,34.45,36,33,35.58,31.59a1.07,1.07,0,0,0-.54-1c-.75-.39-.42-1.32-.91-1.84l-3.41-6.65a1.42,1.42,0,0,1-.1-1c.72-.53,1,.19,1.4.5.85,1,1.53,2.13,2.46,3.05a31,31,0,0,1,2.39,4.61,12.58,12.58,0,0,0,.88,2,4.4,4.4,0,0,1,.31.56c.78,1.72,1.85,3.27,2.78,4.9.42.73,1,1.42.71,2.38C40.38,40.13,39.89,39.4,39.53,38.34Z"/><path class="cls-8" d="M6.74,70.47c.42-.43,2,.91,1.47-1a1.11,1.11,0,0,1,.65-.38,7.85,7.85,0,0,1,3,.64,13.69,13.69,0,0,0,10.08-1.12c1.12-.42,2.09-1.39,3.45-1A3.82,3.82,0,0,1,27.48,69,19.17,19.17,0,0,1,16,72.33c-1.07-.74-2.29-.5-3.43-.41-1.87.13-3.54-.59-5.28-1Z"/><path class="cls-9" d="M27.48,69a2.66,2.66,0,0,1-2-1.1.58.58,0,0,1,.18-.63,14,14,0,0,1,4.65-1.6c2.2-.46,3.91-2.17,6.19-2.44a1.2,1.2,0,0,1,1.16.71c-.05,1-1.05.77-1.56,1.19l-4.35,2.34C30.8,68.85,29.31,68.8,28,69h-.47Z"/><path class="cls-10" d="M50.07,47.88c.39,1.94.83,3.88,0,5.81-.37.3-.67.89-1.25.3-.75-1.62-.08-3.42-.67-5.12a25.21,25.21,0,0,0-1.41-4.25c-.3-.54-.63-1.14,0-1.72l1.34.74A19.22,19.22,0,0,1,50.07,47.88Z"/><path class="cls-11" d="M46.7,42.9a34.87,34.87,0,0,1,2.41,7c.36,1.45-.37,2.79-.09,4.19a2.1,2.1,0,0,1-.31,1.38c-.57.76-1.18,1.28-2.14.52-.17-.14.18-.49-.18-.41-1.37.3-1.45.27-1.44-1.2a14.49,14.49,0,0,0-.13-4.21c-1-2.25-2.94-3.66-4.71-5.23a2.72,2.72,0,0,1-.73-1.44c.68-1.89,2.83-.78,3.88-1.89.21.3.42.6-.14,1,.66-.19.62-.69.82-1a3.24,3.24,0,0,1,.47-.83.72.72,0,0,1,.54-.26,8.37,8.37,0,0,1,1.71,2.17Z"/><path class="cls-12" d="M46.66,42.74a3.68,3.68,0,0,1-1.9-2.07c-.63-.1-.84-.61-1.08-1.09a8.16,8.16,0,0,0-.83-1.35c-1-1.68-1.89-3.46-2.86-5.18-1.38-2.83-3.13-5.47-4.41-8.36a20.48,20.48,0,0,0-3.13-5c-.42-1.11-1.1-2.08-1.61-3.14-.38-.86-.85-1.68-1.19-2.55a1.68,1.68,0,0,1,0-.63,1.48,1.48,0,0,1,.7-1l.34,0L35,19.64l1.38,2.88c.72.41.57,1.44,1.32,1.83a13.58,13.58,0,0,1,1.21,3.39q3.7,6.93,7.41,13.87A5.25,5.25,0,0,1,46.66,42.74Z"/><path class="cls-13" d="M30.79,21c0,.38-.05.76-.07,1.14-2.28-2.52-3.49-5.76-5.62-8.37-1.19-3.27-3.56-5.9-4.88-9.1-.42-1.32-.19-2.15,1.45-1.9.47.56.21,1.3.47,1.92,1,1.72,2.4,3.22,3,5.18a4.17,4.17,0,0,1,.24.58,4.94,4.94,0,0,0,.56,1.37c.34.5.67,1,1,1.5,1.32,1.87,2.5,3.82,3.72,5.75C30.93,19.69,31.36,20.31,30.79,21Z"/><path class="cls-14" d="M21.7,3.33c-1.64-.83-1.37.46-1.48,1.33-.75-.47-.6-1.12-.36-1.79C21.63,2.49,22.45.75,24,0c.08,2.22,2.11,3.56,2.53,5.63a.84.84,0,0,1-.64.66c-.9-.07-1.2-.79-1.58-1.43a9.15,9.15,0,0,0-.6-1.05C23.16,3.1,22.28,3.81,21.7,3.33Z"/><path class="cls-15" d="M48.52,55.1a1.12,1.12,0,0,1,.5-1l1-.42c0,.26,0,.53,0,.79a3.9,3.9,0,0,1,.24,1c-.28,1,.1,1.91-.06,2.86a1.83,1.83,0,0,1-1.2,1l-.56-.91C47.55,57.29,48.38,56.2,48.52,55.1Z"/><path class="cls-16" d="M49.92,55.68c0-.4.09-.8.14-1.2l2.82,4a1.09,1.09,0,0,1-.55,1,.55.55,0,0,1-.57,0,10.3,10.3,0,0,1-.81-.94C50.39,57.64,49.6,56.86,49.92,55.68Z"/><path class="cls-17" d="M25.93,6.16l.57-.53Q28.39,9,30.3,12.39a1,1,0,0,1-.49.94c-1.74-.36-1.71-2.18-2.63-3.23A8.52,8.52,0,0,1,26,7.85C25.77,7.29,25.5,6.73,25.93,6.16Z"/><path class="cls-18" d="M37.51,23.89c0,.21-.06.43-.08.65a3,3,0,0,1-1-2C37.2,22.63,37.45,23.18,37.51,23.89Z"/><path class="cls-19" d="M44.84,70.87l-1.15-1.79c-.17-.43.08-.63.43-.79a1.53,1.53,0,0,1,.67.06c1.59,1.32,2.87,3.31,5.43,2.64a8.17,8.17,0,0,0,1.46-.35c.56-.21,1-.57,1.58-.78a.65.65,0,0,1,.56.11c0,.16,0,.33,0,.49s0,.37,0,.56a7.72,7.72,0,0,1-7.84.87A1.63,1.63,0,0,0,44.84,70.87Z"/><path class="cls-20" d="M3.89,67.58c.86.62,1.82,1.16,1.94,2.39-1,0-1.45-.72-1.9-1.45C3.92,68.21,3.91,67.89,3.89,67.58Z"/><path class="cls-21" d="M51.89,59.44a3.25,3.25,0,0,1,.44,0,8.43,8.43,0,0,1,2.41,5.23c-.45.89,0,1.87-.27,2.79a.79.79,0,0,1-.9.29c-.09-.63-.77-1-.76-1.67.3-1,1.09-2.17-.71-2.63A3.68,3.68,0,0,1,51,60.55,1.23,1.23,0,0,1,51.89,59.44Z"/><path class="cls-2" d="M54.29,67.58c.17-1-.35-2,.45-2.88-.16,1.28.51,2.65-.43,3.83A.63.63,0,0,1,54.29,67.58Z"/><path class="cls-22" d="M54.29,67.58l0,1c-.57.34-.45.92-.49,1.44h-.46a2.73,2.73,0,0,1-.25-.23,1.9,1.9,0,0,1-.24-1,1.37,1.37,0,0,1,.51-1.19Z"/><path class="cls-23" d="M16.39,42.14l2.9-.47c0,.64.34.91.93.95C20,43.78,20,43.78,18.46,43.8c-.32.92.64,1.15.93,1.74-.1.89-.73,1.06-1.46,1.12-1.3-.26-3-1.6-3.23,1.14a.73.73,0,0,1-.26.56l-.92,0c-2-.34-2.82,1.17-3.83,2.4A31.27,31.27,0,0,0,3.45,57c-.37.13-.63.5-1.06.51-.58-1.44.22-2.73.85-3.76,2.32-3.76,5-7.3,8.9-9.61C13.5,43.37,15.23,43.35,16.39,42.14Z"/><path class="cls-24" d="M2.39,57.54c.28-.32.33-1.11,1.06-.51,0,.15-.06.29-.08.45-.47.75.08,1.68-.39,2.43,0,.6,0,1.2-.07,1.8-.56-.3-.41-.85-.47-1.32a3.68,3.68,0,0,1,0-2.45A2.67,2.67,0,0,0,2.39,57.54Z"/><path class="cls-23" d="M2.39,57.94c0,.81,0,1.63,0,2.45A1.77,1.77,0,0,1,2.39,57.94Z"/><path class="cls-25" d="M11.08,55.08c.13,2.25-.3,4.54.5,6.73-.59.95.39,1.21.78,1.7s1.47.79,1.17,1.85c-.5.92-1.8,1.86-.61,2.88a3.28,3.28,0,0,0,3.64.88A7.72,7.72,0,0,1,22.2,69c-4.41,2.84-8.94,2-13.49.44-.43-.33-1-.52-1.1-1.17a6.35,6.35,0,0,0-1.91-4,1.59,1.59,0,0,1-.58-1.69c.3-1-.66.1-.65-.41,0-2.08-.46-4.34,1.82-5.72.3-.5.86-.66,1.31-1,1.33-.86,2.07-.52,2.17,1.05.06,1.06.53,2.11.28,3.18.31-.78-.15-1.62,0-2.43S9.75,55.38,11.08,55.08Z"/><path class="cls-26" d="M17.8,46.42l1.48-.92c.72-1.06,2-.52,2.9-.94,3.94-1.08,7.86-2.28,12-2a12.26,12.26,0,0,1,3.25.52c-.12,1.31-1.14,1.29-2.07,1.41-3.51.18-7.06.13-10.46,1.28a18,18,0,0,1-2.19.56c-2-.18-3.7.67-5.41,1.54h0c-.63.22-1.11,1-1.93.46h-1c0-.15,0-.3,0-.45C15.34,46.86,16.22,45.85,17.8,46.42Z"/><path class="cls-27" d="M11.08,55.08c-1,1.66-.11,3.54-.66,5.46C9.22,59,9.15,57.3,9.18,55.21A4,4,0,0,1,6.29,56.5a11.4,11.4,0,0,1,6.37-5.2C12.13,52.56,11.6,53.82,11.08,55.08Z"/><path class="cls-20" d="M4.47,62.22c.43-.2.86-.41,1.3-.6s.8-.28.92.3c.07.33,0,.66-.43.71-1.75.19-.93.94-.19,1.31.93.46.83,2,2.18,1.91-1.68.64,1.18,1.75-.25,2.41.23.41.47.82.71,1.22l-.5,0C5.35,68.45,4.25,66.3,4.47,62.22Z"/><path class="cls-28" d="M9.69,50.79c-.33-.09-.93,0-.34-.62a20.18,20.18,0,0,0,2.36-2.25c1.15-1.6,1.36-.26,1.81.47C12.59,49.74,10.93,49.93,9.69,50.79Z"/><path class="cls-29" d="M15.44,48.37l1.93-.46A3.68,3.68,0,0,1,15,49.36Z"/><path class="cls-23" d="M3,59.91c0-.82-.3-1.71.4-2.43C3.36,58.31,3.68,59.19,3,59.91Z"/><path class="cls-30" d="M22.18,44.56a5.32,5.32,0,0,1-2.9.94c-.85-.23-1.52-.1-1.43-1.66s.2-1.33,1.1-.79c.7.43,1.14.61,1.27-.43C21,42.88,21.44,43.36,22.18,44.56Z"/><path class="cls-31" d="M44.69,41.16l-.46.49c-.52.31-.69-.2-1-.43-1.26-.49-2.48-1.07-3.77-1.46-2.06-.6,0-1,.05-1.42.77,0,.85,1.39,1.85.92.41-.28.79-.07,1.18.05a4.29,4.29,0,0,1,.58.26A4.54,4.54,0,0,1,44.69,41.16Z"/><path class="cls-32" d="M35.58,44.06a2.71,2.71,0,0,0,1.9-.93l1.9.39a1.8,1.8,0,0,1,1,1c-.49.5.75,1.28-.28,1.69-1.61-.19-2.78-1.63-4.48-1.56a.39.39,0,0,1-.14-.39C35.51,44.13,35.54,44.06,35.58,44.06Z"/><path class="cls-33" d="M43.25,41.22l1,.43c.45,1.79-1.33,1.11-1.95,1.77,0-.82,1.21-.9,1-1.79C43.26,41.49,43.25,41.36,43.25,41.22Z"/><path class="cls-34" d="M42.32,39.7l-.94-.44c-.76-2.83-3.25-4.79-3.87-7.69.22-1.1.69-1.44,1.47-.42A9.4,9.4,0,0,0,40.39,33a25.09,25.09,0,0,1,2.93,5.2A1.56,1.56,0,0,1,42.32,39.7Z"/><path class="cls-35" d="M40.39,33c-1.08,0-1.39-.82-1.75-1.57-.53-1.09-.75.13-1.13.13h0a7.51,7.51,0,0,0-.93-1.91l-2.46-4.76c-.21-.53.06-.85.46-1.12.63-.14,1,.33,1.49.6C37.33,27.34,39.32,29.94,40.39,33Z"/><path class="cls-36" d="M34.65,23.88l-.54,1C33,24.2,32.52,23,31.76,22,31,20.2,33,21.74,33,20.9,33.89,21.72,35.16,22.32,34.65,23.88Z"/><path class="cls-37" d="M32.74,21c.37,1-1.37-.07-1,1l-1-1c-.16-.62-.33-1.25-.5-1.88a.88.88,0,0,1,.88-.27,2.8,2.8,0,0,1,1.24,1A1,1,0,0,1,32.74,21Z"/><path class="cls-34" d="M36.57,29.65a1.7,1.7,0,0,1,.93,1.91A2.55,2.55,0,0,1,36.57,29.65Z"/><path class="cls-38" d="M22.2,69c-2,.82-4.25-.16-6.37,1.15-1.15.71-3-.87-4-1.79-.66-.66-.27-2.8,1.63-3.23,1-.45,1.81.12,2.62.58a15.64,15.64,0,0,0,4.81,1.76.24.24,0,0,0,.19-.12.64.64,0,0,0,0-.24c1.51-.37,2.9.52,4.38.42l-.06.37C24.16,67.69,23.45,69.15,22.2,69Z"/><path class="cls-39" d="M36.42,63.64l1.06-.9A5.09,5.09,0,0,1,41,61.31a.5.5,0,0,1,0,.66c-1.23.61-2.05,1.87-3.47,2.16Z"/><path class="cls-40" d="M40.92,62l-.1-.74a1.8,1.8,0,0,1,.36-1.35c1.91-3,3.17-6.05,1.46-9.6a1.63,1.63,0,0,1,.16-2c2.47.46,1.78,2.68,2.24,4,0-.73-.48-1.63.14-2.52,1.29,2-.23,4.27.68,6.45.46-1.68,2.32.55,2.66-1.16.53,1.11-.19,2.2,0,3.3C45.59,58.82,43.51,60.94,40.92,62Z"/><path class="cls-41" d="M51.38,60.41c.37.93.31,2,1,2.85a2,2,0,0,1,.41.58,2.7,2.7,0,0,1,0,1.41c-1.61,3.8-4.14,4.79-7.1,2.78a5.4,5.4,0,0,1-.43-.52c-.27-.45-.82-.8-.56-1.45,1-1.16,1.72.1,2.43.45,1.14.55,2.16,1.06,3.23,0s.84-2.23.26-3.46-1-2.47-1.52-3.71c0-.61.38-.86,1-.88.89-.14.86.66,1.15,1.12A3.8,3.8,0,0,0,51.38,60.41Z"/><path class="cls-42" d="M44.64,66.06l1,1-.39.39a9.85,9.85,0,0,0-1,1l-.61.59C41.93,67.42,43.82,66.9,44.64,66.06Z"/><path class="cls-43" d="M45.18,49.81v2.82c-.65-1.55-.84-3.28-2.45-4.24-1.37-.21-1.63-1.52-2.37-2.37-.07-.5-.74-1,0-1.49C42.24,46.06,44.27,47.43,45.18,49.81Z"/><path class="cls-44" d="M44.69,41.16c-.64-.46-1.29-.91-1.94-1.36.31-.56.64-1.07,1.37-.53.21.46.42.93.64,1.4C44.73,40.83,44.71,41,44.69,41.16Z"/><path class="cls-45" d="M31.21,19.13l-.92,0c-1.63-1.69-2.61-3.81-3.82-5.78a1.18,1.18,0,0,1,.83-1.61c1.49-.1,1.31,1.86,2.55,2.07.45.82.91,1.63,1.37,2.45C30.72,17.2,32.17,18.17,31.21,19.13Z"/><path class="cls-46" d="M29.85,13.79c-.14.54-.4,1.31-.88.35a8.64,8.64,0,0,0-1.55-2.26A7.41,7.41,0,0,1,25.87,9c-.2-.54-.47-1.3.59-1.38l3.35,5.76C29.82,13.49,29.83,13.64,29.85,13.79Z"/><path class="cls-47" d="M32.74,21l-.46-1a.81.81,0,0,1,.43-.46c1.76,1.16,2.48,3,3.35,4.81l-1.41-.49C34.48,22.61,33.3,22,32.74,21Z"/><path class="cls-48" d="M32.71,19.56c-.14.16-.29.31-.43.46a1.7,1.7,0,0,1-1.07-.89c.28-1-1.32-1.93,0-2.89C31.67,17.37,32.84,18.17,32.71,19.56Z"/><path class="cls-49" d="M44.12,39.27l-1.37.52-.43-.09,1-1.49Z"/><path class="cls-50" d="M24.08,3.71l.47,1C25,5.86,25.7,6.89,25.79,8.2c.06.91.12,1.73-.78,2.27L21.63,4.72C22.29,4,23.56,4.76,24.08,3.71Z"/><path class="cls-51" d="M25,10.47c1.17-2-.42-3.84-.46-5.78l1.38,1.47c.18.47.36.94.53,1.41-.73,1.67,1.27,2.74,1,4.31l-1,1.45c-.31-.48-.62-1-.94-1.44.07-.56.11-1.12-.52-1.42Z"/><path class="cls-52" d="M24.08,3.71c.33,3.13-1.69.53-2.45,1-.75-.51-.14-.94.07-1.39C22.48,3.53,23.64,1.36,24.08,3.71Z"/><path class="cls-53" d="M25,10.47c.4-.16.78-.44,1.08.2s-.05,1-.56,1.22C25,11.56,25,11,25,10.47Z"/><path class="cls-54" d="M51,59.9l-1-1.47c0-.92-1.13-1.81-.07-2.75a7.89,7.89,0,0,0,1.5,2.74C51.41,59,51.45,59.52,51,59.9Z"/><path class="cls-55" d="M51,59.9c0-.54-.11-1.12.47-1.47a1.08,1.08,0,0,1,.47,1c-.17.33-.34.65-.5,1Z"/><path class="cls-2" d="M45.73,67.5c2.7,2,4.76,1.28,6.64-2.36a1,1,0,0,1,.5.7v.3c.34.43,1,.76.51,1.46,0,.47,0,.94-.05,1.4-.41.66-1.59.3-1.73,1.31-.62.6.46.33.35.67-.4.52-1,.42-1.51.41-2,0-3.13-1.56-4.61-2.49A.83.83,0,0,1,45.73,67.5Z"/><path class="cls-56" d="M45.73,67.5c.41,1.81,2.23,2,3.38,3a12.18,12.18,0,0,0,1.33.87c-2.42.69-4-.09-5.75-2.85-.27-.63.14-1,.49-1.44a2.36,2.36,0,0,1,.46,0A1.7,1.7,0,0,1,45.73,67.5Z"/><path class="cls-57" d="M52,71c-.17-.18-.91.2-.52-.53.46-.88,1.09-1.07,1.91-.47h0A1.47,1.47,0,0,1,52,71Z"/><path class="cls-58" d="M45.18,67.1c-.16.48-.32,1-.49,1.44a2.91,2.91,0,0,1-.4-.05C44.15,67.75,44.14,67.09,45.18,67.1Z"/><path class="cls-2" d="M52.4,63.74a3.88,3.88,0,0,1,0-.48c.48.17,1.38-.71,1.41.42,0,.86.64,2.11-.9,2.46v0C52.22,65.42,53.22,64.4,52.4,63.74Z"/><path class="cls-59" d="M53.34,70a3,3,0,0,0-1.91.47c-.42-.58-1.63-1.34.3-1.43.53,0,1.06,0,1.6,0C53.33,69.33,53.34,69.65,53.34,70Z"/><path class="cls-28" d="M17.8,46.42c-1.32,0-2.06,1.34-3.32,1.49-1.47-1.67,0-2.07,1.14-2.38A1.7,1.7,0,0,1,17.8,46.42Z"/><path class="cls-60" d="M21.13,67.15c.17.17.46.32.49.51.07.58-.38.26-.59.24-2.75-.23-5-1.88-7.53-2.73a23.27,23.27,0,0,1-2.66-2.59c-.58-.75-.19-1.15.74-.77A20.77,20.77,0,0,0,21.13,67.15Z"/><path class="cls-29" d="M22.71,46l-1.58.89c-1.39-.17-2.39,1.16-3.78,1A6.72,6.72,0,0,1,22.71,46Z"/><path class="cls-29" d="M35.59,44.47c-3.75-.38-7.33,1.1-11.05,1,3.54-1.57,7.29-1.5,11-1.45C35.58,44.19,35.59,44.33,35.59,44.47Z"/><path class="cls-21" d="M52.4,63.74c1.76.48-.07,1.66.46,2.38a1,1,0,0,1-.49-1Z"/></g></g></svg>