<svg xmlns="http://www.w3.org/2000/svg" viewBox="0 0 81.91 66.72"><defs><style>.cls-1{fill:#d2e7ec;}.cls-2{fill:#f9f5f5;}.cls-3{fill:#dee9eb;}.cls-4{fill:#c5e3ed;}.cls-5{fill:#dccfc2;}.cls-6{fill:#c2e3ef;}.cls-7{fill:#eeede8;}.cls-8{fill:#e7f0ef;}.cls-9{fill:#d1e0e0;}.cls-10{fill:#cbdada;}.cls-11{fill:#cee1e4;}.cls-12{fill:#b4dcea;}.cls-13{fill:#a6d8df;}.cls-14{fill:#f8e8e3;}.cls-15{fill:#b7c7c7;}.cls-16{fill:#ddedf1;}.cls-17{fill:#d88d80;}.cls-18{fill:#e63736;}.cls-19{fill:#f8f0ee;}.cls-20{fill:#e3413e;}.cls-21{fill:#d2d4cf;}.cls-22{fill:#d2e6ea;}.cls-23{fill:#d6e2ca;}.cls-24{fill:#e2433b;}.cls-25{fill:#f4f2f1;}.cls-26{fill:#faf7f6;}.cls-27{fill:#e44f44;}.cls-28{fill:#e55b4b;}.cls-29{fill:#f9f3f0;}.cls-30{fill:#e83631;}.cls-31{fill:#f8e6de;}.cls-32{fill:#f7f2f2;}.cls-33{fill:#faf1f3;}.cls-34{fill:#f5e9ec;}.cls-35{fill:#b2deea;}.cls-36{fill:#a4d7cd;}.cls-37{fill:#e52d38;}.cls-38{fill:#ea3d37;}.cls-39{fill:#e7f3f6;}.cls-40{fill:#f9f4f3;}.cls-41{fill:#f7f2ef;}.cls-42{fill:#faf1ef;}.cls-43{fill:#e33f39;}.cls-44{fill:#e43d37;}.cls-45{fill:#f5f2ee;}.cls-46{fill:#e73936;}.cls-47{fill:#de7962;}.cls-48{fill:#e6453e;}.cls-49{fill:#e5453f;}.cls-50{fill:#e64442;}.cls-51{fill:#de4f45;}.cls-52{fill:#e04f48;}.cls-53{fill:#d95b4f;}.cls-54{fill:#fcf7f5;}.cls-55{fill:#e93834;}.cls-56{fill:#faf5f3;}.cls-57{fill:#f8f4f2;}.cls-58{fill:#c8e0e3;}.cls-59{fill:#fae9d4;}.cls-60{fill:#f8f6f7;}.cls-61{fill:#e63e37;}.cls-62{fill:#f9f0ef;}.cls-63{fill:#e63b33;}.cls-64{fill:#e53837;}.cls-65{fill:#f6f2ef;}.cls-66{fill:#e53d3a;}.cls-67{fill:#f8f1ee;}.cls-68{fill:#eecabe;}.cls-69{fill:#dbedee;}.cls-70{fill:#e73d35;}.cls-71{fill:#f9eade;}.cls-72{fill:#db5b49;}.cls-73{fill:#def0f7;}.cls-74{fill:#dcc8b7;}.cls-75{fill:#d9eef3;}.cls-76{fill:#e93534;}.cls-77{fill:#efede6;}.cls-78{fill:#c3d8da;}.cls-79{fill:#e63b32;}.cls-80{fill:#d0ecf7;}.cls-81{fill:#e83831;}.cls-82{fill:#f4f0ee;}.cls-83{fill:#e7eff0;}.cls-84{fill:#e7433a;}.cls-85{fill:#f2f4f5;}.cls-86{fill:#e05242;}.cls-87{fill:#d7442f;}.cls-88{fill:#e73134;}.cls-89{fill:#e35e54;}.cls-90{fill:#ebf2f6;}.cls-91{fill:#e66b56;}.cls-92{fill:#d6e8eb;}.cls-93{fill:#e5484b;}.cls-94{fill:#d93639;}.cls-95{fill:#ed382a;}.cls-96{fill:#d8f0fc;}.cls-97{fill:#d8eff3;}</style></defs><title>shirt1</title><g id="Layer_2" data-name="Layer 2"><g id="Layer_1-2" data-name="Layer 1"><path class="cls-1" d="M36.36,4.16c3.53.44,5.8-1.8,8.16-3.84A1.42,1.42,0,0,1,46,.11c.71.54,1.44,1.08,1.09,2.16-2.82.83-4.92,3.05-7.67,4-1-1.2-2-.73-3,0a1.44,1.44,0,0,1-1,0c-1.86-1.19-3.64-2.63-6.1-2-.54-.86.24-1.52.33-2.28a1.52,1.52,0,0,1,.95-1,1.24,1.24,0,0,1,1,.29c.89.08,1.32,1.28,2.37,1C34.6,3.08,35.73,3.31,36.36,4.16Z"/><path class="cls-2" d="M27.71,52.17h-.46a3.56,3.56,0,0,1,.08-4.1,4.22,4.22,0,0,1,3-.11,20.23,20.23,0,0,0,5.9.67,6.61,6.61,0,0,1,1.66.19,48.92,48.92,0,0,0,11.15,0,8.45,8.45,0,0,1,2-.21c1.3.13,2.58-.26,3.88-.1a1.15,1.15,0,0,1,.73,1.26c-.51,1-1.46.87-2.34.94a4.8,4.8,0,0,0-2.35.89,8.73,8.73,0,0,1-4.94,1.2c-5-.08-10,.32-15.06-.09a1.44,1.44,0,0,1-1.24-1.17,2.1,2.1,0,0,0-.07-.56,5.09,5.09,0,0,0-.12.68,1.45,1.45,0,0,1-.32.55A1.44,1.44,0,0,1,27.71,52.17Z"/><path class="cls-3" d="M13,57.24c.37,1.52,2,3.32-.74,4.12-.49.14-.55.9-.48,1.46a3.4,3.4,0,0,1-1.26,3h0a6.63,6.63,0,0,1-1-2.32c.45-.82-.65-2.36.75-2.73-.65-.23-1.84,1.1-2.22-.78a1.4,1.4,0,0,1,.47-.37,4.11,4.11,0,0,1,.79-.17c.53-.07,1.17-.06,1.28-.85s-.51-.82-.9-1.1-.54-.47-.36-.94A3.92,3.92,0,0,1,12,56,1.7,1.7,0,0,1,13,57.24Z"/><path class="cls-4" d="M18.63,45c-.49.91.33,2.27-1,2.91a4.89,4.89,0,0,1-1.9,4.36,2,2,0,0,1-1.08-1.14c0-1.37,1.46-2.06,1.49-3.4.43-1.13.48-2.39,1.16-3.43a1.1,1.1,0,0,1,1.31.23A2.46,2.46,0,0,0,18.63,45Z"/><path class="cls-5" d="M14.82,51.1a1.08,1.08,0,0,1,.92,1.13c.19,1.27-1,1.86-1.41,2.81a1.18,1.18,0,0,1-.58.29c-1.13-.08-2.53.44-2.85-1.34,1.22-.7,3.22-.29,3.46-2.42A1.16,1.16,0,0,1,14.82,51.1Z"/><path class="cls-6" d="M13.81,55.06l.52,0c.44,1.08,1.1,2.2-.51,2.92a.92.92,0,0,1-1-1C12.17,55.82,13.28,55.59,13.81,55.06Z"/><path class="cls-7" d="M61.26,34.91c-.8-.26-.33-2.14-1.87-1.46-1.68-1.42-1.71-2.53-.12-4.06a10.15,10.15,0,0,0,2.11-1.51,5.27,5.27,0,0,0,1.13-1.08,9.28,9.28,0,0,1,3.26-3.21.91.91,0,0,1,1.11,1,6.16,6.16,0,0,1-.73,1.85c-.24.49-.47,1-.75,1.44a15.16,15.16,0,0,1-2.42,3c-.66.61-1.74,1-1.28,2.22a2.61,2.61,0,0,1,0,1.33A1.11,1.11,0,0,1,61.26,34.91Z"/><path class="cls-8" d="M54.84,50.39l-.38-.8a1.3,1.3,0,0,1,.74-.94,2.3,2.3,0,0,1,.79-.23,3.05,3.05,0,0,1,.52-.05c1.07.06,1.83-.22,1.48-1.93a1.64,1.64,0,0,1,.3-1.48.55.55,0,0,1,.74.15c.43,0,.89.08,1.1-.62.08-.27-.19-1.21.51-.6.29.25.63.54.34,1.15a9.8,9.8,0,0,0-1.25,5c.05.58-.35.72-.78.71-.75,0-1.49,0-2.24.06C56.17,50.15,55.34,51.33,54.84,50.39Z"/><path class="cls-9" d="M59.9,29.73c-2.17,1-.89,2.4-.51,3.72l.45,1.45a1.37,1.37,0,0,1-1.39.56c-.56-.26-1.31-.09-1.69-.75,0-1.26.06-2.55-1.31-3.26.06-.71.67-.84,1.16-1.09,1.45-1,.22-2.8,1.11-4a.71.71,0,0,1,.57-.27c1,.54.41,1.92,1.31,2.51a2.07,2.07,0,0,1,.43.5A.85.85,0,0,1,59.9,29.73Z"/><path class="cls-10" d="M61.26,34.91l.11-.64a1.49,1.49,0,0,1,1.44.6,15.23,15.23,0,0,0,1.68,3.38c.31,1.06.34,2.23,1.16,3.11.3.68-.11,1-.65,1.19h-.32a15.1,15.1,0,0,1-2.89-5.77c-.51-.36,0-1.06-.47-1.43A3.47,3.47,0,0,0,61.26,34.91Z"/><path class="cls-11" d="M59.81,37.73c.5,1.09,1.4,2.06,1,3.41-.56.52-.78,1.37-1.58,1.66-.88.08-1.24-.47-1.43-1.21.58-1.27.28-2.69.71-4A1.09,1.09,0,0,1,59.81,37.73Z"/><path class="cls-12" d="M59.4,42.54a1.31,1.31,0,0,1,1.38-1.4c0,1.12,0,2.23.07,3.34h-1a.37.37,0,0,1-.53-.08A4.09,4.09,0,0,1,59.4,42.54Z"/><path class="cls-13" d="M59.81,37.73H58.6a.75.75,0,0,1-.92.26c-.38-.22-.33-.51-.14-.82a2.17,2.17,0,0,0,.74-1.56l.17-.24,1.39-.47Z"/><path class="cls-7" d="M61.32,35.36c.56.34.45.91.47,1.43C59.78,36.92,62,35.66,61.32,35.36Z"/><path class="cls-14" d="M70.43,31.08v.82c.32.48,0,.87-.15,1.29-.76,1-1.16,2.37-2.8,2.21-.37-.55-.13-1.08.09-1.6.44-1,.59-1.87-.65-2.39a1.22,1.22,0,0,1-.57-.81,2.59,2.59,0,0,1,1.49-2.19,1.42,1.42,0,0,1,.68,0C69.61,29,69.69,30.27,70.43,31.08Z"/><path class="cls-15" d="M70,32.87c.13-.32.27-.64.41-1,.95,1.5,2.7,2.78,1.44,4.93l-.31.11a.92.92,0,0,1-.49-.4C70.8,35.29,70,34.21,70,32.87Z"/><path class="cls-16" d="M18.62,44.49l-1.5.06a1.64,1.64,0,0,1-2.43-.18c0-.88.78-.9,1.31-1A5.19,5.19,0,0,0,19.32,41a2.69,2.69,0,0,1,1.29-.68,1.11,1.11,0,0,1,1,.35,4.91,4.91,0,0,1-1.13,3.78Z"/><path class="cls-17" d="M66.53,24.76l1,.64.61.84c.15.33.31.66.47,1,0,.48,0,.95-.08,1.43L68,28.6a3.21,3.21,0,0,1-.94-1.19c-.27-.57-1-.66-1.33-1.12A2.6,2.6,0,0,1,66.53,24.76Z"/><path class="cls-18" d="M15.13,30.06l.13-.8a1.27,1.27,0,0,1,1.32-.58c2,.59,4,1.38,6,2.06,1.59,1.56,1.59,2-.08,3.9-3.09.6-5.55-.77-7.88-2.53A1.4,1.4,0,0,1,15.13,30.06Z"/><path class="cls-19" d="M14.81,31.88a16.88,16.88,0,0,0,7.62,2.58.68.68,0,0,1,.09.6c-.91.79-1.08,2-1.65,3a2.27,2.27,0,0,1-.67.21c-2.28-.5-4.77-.47-6.42-2.54-.56-.52-1.27-.27-1.92-.35,1-.91,3.29-.56,2.89-2.88A.42.42,0,0,1,14.81,31.88Z"/><path class="cls-20" d="M72.44,59.24l.39-.82c2.11-2,4.11-4.12,6.74-5.47l2.34,2.64L80,58c-.87.64-1.72,1.31-2.62,1.91C74.47,61.86,74.46,61.85,72.44,59.24Z"/><path class="cls-21" d="M24.82,37.28l0-1.42.26-.15a.78.78,0,0,1,.51.29,2.36,2.36,0,0,0,1.05,1c.59.33,1.5.22,1.65,1.17-.32.58-1,.54-1.48.94-.39.74.13,1.59-.3,2.32l-.21.23-1,0C24.93,40.19,25.6,38.65,24.82,37.28Z"/><path class="cls-22" d="M56.52,7l.5.49a.58.58,0,0,1,.06.61c-.43.48-.8,1.09-1.6.9A12.81,12.81,0,0,0,53,6.66c-.46-.77-.86-1.56-1.25-2.37-.11-.73-.42-1.63.93-1.08h.5C55.22,3.65,54.7,6.36,56.52,7Z"/><path class="cls-23" d="M49.83,2.21l2.84.08c0,.31,0,.62,0,.92-.95,0-.55.62-.5,1.08a6.54,6.54,0,0,1-2.25,0c-.17-.65-1-1.18-.36-2Z"/><path class="cls-24" d="M13.78,35.7a30.73,30.73,0,0,0,6.67,2.15c.93,1.22.59,2.31-.94,3.07a4.36,4.36,0,0,1-2.28.33c-1.69-.54-3.81-.06-4.89-2C11.44,37.46,11.72,36.21,13.78,35.7Z"/><path class="cls-25" d="M12.34,39.2c1.51.84,3.23,1,4.84,1.46.67.65,1.76-.28,2.37.63-.68,2.5-2.73,2.6-4.77,2.72-1.81.52-3.35.26-4.34-1.53L10,42C11.05,41.31,11,39.68,12.34,39.2Z"/><path class="cls-26" d="M59.41,13.75c.52,0,1.08-.07,1.41.5,0,.16,0,.32,0,.48-.38,1.42-1.61,1.91-2.75,2.46a26.63,26.63,0,0,1-9.93,2.45,56.56,56.56,0,0,1-18.05-1.45,34.55,34.55,0,0,0-3.49-1,3.58,3.58,0,0,1-.64-.18c-.88-.35-1.79-.63-2.69-.91a5.89,5.89,0,0,1-.59-.21c-.63-.31-1.44-.37-1.68-1.23l-.47-.92a3.45,3.45,0,0,1,1.62-2.2,16.69,16.69,0,0,1,2.55.1c2.39.22,4.56,1.29,6.88,1.79a46.67,46.67,0,0,0,5.39.79c4.32.68,8.57-.09,12.82-.65a24.35,24.35,0,0,1,3.3-.51,5.81,5.81,0,0,0,3.13-.44,1.69,1.69,0,0,1,.67-.07C57.68,13.08,58.89,12.65,59.41,13.75Z"/><path class="cls-27" d="M21,14.71l1.94.94c-.27.54-1,.39-1.41,1,.85.83,2.12.84,3.06,1.45.58.38,1.63.52.91,1.63-2.09.41-3.86-.45-5.62-1.38a2.27,2.27,0,0,1-.48-2.15C19.84,15.65,20.08,14.83,21,14.71Z"/><path class="cls-28" d="M17.72,23.75c0-.77,0-1.53,0-2.3.48-.31.64-1,1.36-1.06,2.8.49,5.11,2,7.44,3.51.6.44,1.68.26,1.8,1.35-.81.71-1.06,1.34.23,1.82.81.3,1.69.38,2.49.67s1.81.32,1.37,1.61c-2.09.85-4-.15-5.77-.86-2.65-1.07-5.29-2.24-7.85-3.55C18.27,24.68,17.77,24.4,17.72,23.75Z"/><path class="cls-29" d="M26.23,24.37l-7.17-4c-.65-.6.67-1.16,0-1.76L20,18c1.91.56,3.73,1.44,5.75,1.6l.34-.05c.67.1,1.46.08,1.16,1.16-.53.65-1.06,1.31-2,.74.6.57,1.36.25,2,.39s1.56.11,1.58,1.08c0,.81-.78.87-1.37,1.06a7.2,7.2,0,0,0-.9.28Z"/><path class="cls-30" d="M25.74,19.6c-.78-1.14-2.18-1.12-3.25-1.73-.63-.37-1.9.23-1.76-1.25.16-1.67,1.51-.56,2.2-1h0a8.55,8.55,0,0,0,2.92.94.37.37,0,0,1,.4,0c1,.85,2.33.57,3.48.91,6.84,1.41,13.72,2.13,20.69,1.08a22.39,22.39,0,0,0,10.38-3.91c1.2.59,1.38,1.85,1.94,2.87l-1.9,1.45c-.8,1.23-2.16,1.57-3.4,2.06-5.39,2.14-11,2.33-16.68,1.8-5.13-.56-10-2.34-15-3.33Z"/><path class="cls-20" d="M5.23,66.53C4.12,66.11,3,65.71,1.9,65.27c-.69-.27-1.84,0-1.9-1.06a1.74,1.74,0,0,1,1.76-1.87C4,62,6,63,8.14,63.35c1.33.69,2.28,1.56,1.44,3.22C8.12,67,6.68,66.48,5.23,66.53Z"/><path class="cls-31" d="M9.58,66.57c-.06-1.23-.33-2.34-1.66-2.82.85-.71,1.51-.49,2,.42a2.33,2.33,0,0,1,1,2.41Z"/><path class="cls-32" d="M46.93,2.19l2.79.11c-.55.66.71,1.21.11,1.87,0,1.16-1,1.32-1.76,1.66a16.69,16.69,0,0,1-6.5,1.41c-1.16-.19-2.54.4-3.38-.94.23-.5.6-.49,1-.25,1.34-.89,2.71-1.74,4-2.68A5.25,5.25,0,0,1,46.93,2.19Z"/><path class="cls-33" d="M29.22,4.17c.56,0,1.14,0,1.35-.67s.71-.88,1.05-.44c1,1.34,3,1.35,3.76,3a1.38,1.38,0,0,1-.92.54,4.37,4.37,0,0,1-1.8-.1c-1.26-.53-2.77-.63-3.57-2C29.14,4.39,29.18,4.28,29.22,4.17Z"/><path class="cls-34" d="M34.3,6.16l1.08-.11h1a1.34,1.34,0,0,1,1.89,0c1,.89,2.27.25,3.39.49,0,.23,0,.49-.24.62C39.73,8.15,35.81,7.57,34.3,6.16Z"/><path class="cls-35" d="M38.27,6.1l-1.89,0c.2-1.31,1.36-1.18,2.19-1.27s.62.73.64,1.27Z"/><path class="cls-36" d="M27.33,3.44A3,3,0,0,0,28.74,2.3L30,2.13c.25.89-.64,1.32-.82,2a.73.73,0,0,1-.25.08.5.5,0,0,1-.72,0Z"/><path class="cls-37" d="M57,48.3l-.73.1c-.86.22-1.7.39-1.9-.86a2.19,2.19,0,0,1-2,1.5,1.63,1.63,0,0,0-1.14.22l-1.78.09a80,80,0,0,1-11.79,0l-1.32-.08c-2.68-.11-5.16-1.45-7.91-1.21-1,.08-1.38-.57-1.45-1.52-.08-1.1.47-1.34,1.44-1.35.62,0,1.26-.14,1.9-.17a4.51,4.51,0,0,1,1.42.06c.89.3,1.9.06,2.72.56s.69.82-.18,1a7,7,0,0,1-1.35.24,10.64,10.64,0,0,0,1.68-.25c3-1.57,6.14-.6,9.21-.89.79,0,1.58,0,2.37,0,2.57-.06,5.18.47,7.68-.55a3,3,0,0,1,.72-.2C57.34,45.32,57.71,45.84,57,48.3Z"/><path class="cls-38" d="M30.15,45.34c-.47.65-1,0-1.54.11s-1.17,0-1.31.73a1.2,1.2,0,0,0,.61,1.43c.52.22,1.25.63,1.39-.46,0-.36.34-.73.56-.42,1.63,2.28,4.56,1.13,6.49,2.53-3.1.25-6.05-.83-9.1-1-1.23-3-1.1-3.29,1.35-3.45C29.28,44.51,29.88,44.42,30.15,45.34Z"/><path class="cls-38" d="M51.24,49.26c1.95-.09,2.32-2.67,4.44-2.95.13.81-1.86,2.31.57,2.09L55.07,49Z"/><path class="cls-38" d="M37.67,49.34H49.46A33.83,33.83,0,0,1,37.67,49.34Z"/><path class="cls-39" d="M30.12,52.15h-1c.13-.87-.33-1.84.39-2.67C31,50.16,29.89,51.29,30.12,52.15Z"/><path class="cls-8" d="M53.18,50.27a1.75,1.75,0,0,1-2,.93C51.42,49.91,52.41,50.32,53.18,50.27Z"/><path class="cls-40" d="M30.15,45.34l-1.55-.51c-1.87-.26-2.81-1.19-2.28-3.17l0-.2c2.59-1,5,.48,7.44.7,2.05.18,4.07.7,6.15.77a5.42,5.42,0,0,1,.79.13,29.58,29.58,0,0,0,12.66-.7,6,6,0,0,1,.71-.25c1.29-.13,2.44-1.23,3.85-.55.47.33.67,1.08,1.44,1,.76.59.31,1.21.06,1.83-.58.88-1.59.69-2.41,1-.86.11-1.73-.44-2.59,0l-.18,0-.16.09c-2.57.9-5.28.51-7.91.91a3.38,3.38,0,0,0-2,0,25.59,25.59,0,0,0-5.67-.17,67.85,67.85,0,0,1-7-.74Z"/><path class="cls-41" d="M13.81,55.06l-1,1.9c-1.05.72-2.25.4-3.38.51-1.83.58-3.15-.26-4.28-1.58s.39-2.46.5-3.7l.4-.08L6.69,52c1.93-.41,3.22.53,4.25,2C11.65,55.1,12.9,54.61,13.81,55.06Z"/><path class="cls-42" d="M16.65,47.86c.17,1.52-1.38,2.08-1.84,3.24a.27.27,0,0,0-.1.24C12.05,52,9.91,51,8,49.21c-.72-1,.12-2.85,1.49-3.32C12.17,45.56,14.36,46.86,16.65,47.86Z"/><path class="cls-43" d="M16.65,47.86c-2.55,0-4.78-1.23-7.13-2-.92-1.47-.66-2.62.92-3.41A13.15,13.15,0,0,0,14.78,44a4.09,4.09,0,0,0,2.34.54C18.07,45.81,16.7,46.74,16.65,47.86Z"/><path class="cls-44" d="M8,49.21c2.23.67,4.3,1.89,6.68,2.13-.17,2.94-.22,3-3.77,2.71L6.7,52C6.52,50.81,6.3,49.55,8,49.21Z"/><path class="cls-45" d="M9.94,64.17a2.67,2.67,0,0,0-2-.42,20.37,20.37,0,0,1-6.16-1.41c.1-.53,1.76-.57.49-1.54-.45-1.36,1.3-1.06,1.47-2,1-.61,1.69.33,2.5.63.64.43,1.48.62,1.84,1.43,1.29.84,2.7.2,4.45.31C11.29,62.12,9.92,62.64,9.94,64.17Z"/><path class="cls-46" d="M6.54,60.08l-2.37-1c-.73-.94-.35-1.88,0-2.82l1.42-.13c1.43.51,2.73,1.39,4.28,1.58.68.75,2.41-.25,2.49,1.47a1.65,1.65,0,0,1-.89,1.76A3.79,3.79,0,0,1,9,61,17.86,17.86,0,0,0,6.54,60.08Z"/><path class="cls-47" d="M6.09,59.86c.94,0,1.89-.12,2.44.9l-.47.14Z"/><path class="cls-48" d="M65.83,22.94c0,.29-.09.58-.13.87l-3,3.39c-.33.3-.85.39-.95.92a3.56,3.56,0,0,1-1.87,1.61,1.27,1.27,0,0,1-.09-.47c-1.12-1.31-.71-2.65-.09-4a3.76,3.76,0,0,1,1.55-2.19,3.31,3.31,0,0,0,1.57-1.82,1.58,1.58,0,0,1,.85-.89c1.2-.58.88.88,1.49,1.1A1.38,1.38,0,0,1,65.83,22.94Z"/><path class="cls-49" d="M67.56,27.21c.15.46.29.93.44,1.39l-1.33,2.17a18.33,18.33,0,0,1-1.64,2,6.65,6.65,0,0,1-2,2.11l-.33,0a1.63,1.63,0,0,1-1.35-.64c0-.38-.08-.75-.13-1.12-.68-1.53,1.37-1.61,1.45-2.74l2.21-2.77C65.72,27.11,66.51,26.33,67.56,27.21Z"/><path class="cls-50" d="M67.56,27.21l-2.66.43c.28-.45.56-.9.83-1.35C66.55,26.19,67.4,26,67.56,27.21Z"/><path class="cls-51" d="M62.69,30.41c.34,1.35-1.52,1.53-1.45,2.74C60.14,31.4,62,31.23,62.69,30.41Z"/><path class="cls-52" d="M61.77,28.12c-.89-1.56.33-.93.95-.92C62.49,27.6,62.32,28.06,61.77,28.12Z"/><path class="cls-38" d="M54.46,45.4a4.76,4.76,0,0,1,2.4-.49c1-.08,2-.73,2.74.48,1,1.7.57,2.28-2.12,2.88l-.5,0C57.11,46.5,56.57,45.27,54.46,45.4Z"/><path class="cls-53" d="M57.48,48.27c.76-.77,3-.45,1.89-2.62-.61-1.18-1.69-.43-2.51-.74.77-.62,1.75-.26,2.59-.54a.49.49,0,0,0,.36.12c0,.23.07.46.13.68C60.7,48.2,60.65,48.26,57.48,48.27Z"/><path class="cls-54" d="M17.72,23.75c3.91,1.65,7.61,3.79,11.75,4.92a7.85,7.85,0,0,0,3,.4,14.5,14.5,0,0,1,6.29,0c3.68.55,7.25,0,10.85-.52,2,0,3.9-.53,5.88-.45C56.91,28.64,58,29.28,57,31c-.51.07-1.09,0-1.42.54C55.06,32.66,53.94,32.75,53,33,45.7,35.2,38.36,35,31,33.51c-1.43-.41-2.88-.77-4.35-1-.36-.12-.82-.28-.91-.62-.4-1.44-1.13-1.1-2-.45a2.54,2.54,0,0,1-1.29-.34,12.33,12.33,0,0,1-5.85-2.11c-.65-.59-1.83-1.18,0-1.76.61.51,1.16.21,1.74-.09a2.06,2.06,0,0,1,2.56.39c-1.28-1.72-2.86-.12-4.3-.29C16.82,26,16.23,24.54,17.72,23.75Z"/><path class="cls-55" d="M30.69,32.91c5.66.71,11.32,1.61,17.05.6a43.83,43.83,0,0,0,7.81-2c2.3.22,2.48.67,1.35,3.24-2.09,2.09-5,2.08-7.54,2.58a45.11,45.11,0,0,1-19.94-1,4.77,4.77,0,0,1-2.51-1.47c-.68-1.68-.09-2.46,1.68-2.25A6,6,0,0,1,30.69,32.91Z"/><path class="cls-56" d="M29.19,35.77c9.32,2.1,18.57,2.19,27.7-1,.48.32,1.45-.65,1.56.6v0c-.43.53.68,1.5-.52,1.81l-.47.46c-1,1.86-3.07,1.57-4.54,2.5-5.76,1.56-11.52.75-17.28,0-1.7-.38-3.42-.66-5.16-.87a4.65,4.65,0,0,1-.72-.16,2.94,2.94,0,0,1-1.54-.91c-.45-.76-1.52-.19-2-.93-.44-.41-.44-1.09-.93-1.47h0c-.11-.48.2-.69.58-.84C27.09,34.85,28,35.8,29.19,35.77Z"/><path class="cls-57" d="M63.69,20.36l-.49,1a8.42,8.42,0,0,1-1.51,1.95c-.54.55-1.44.84-1.39,1.84A2,2,0,0,1,59,26.52a.9.9,0,0,1-.58-.25l-.46,0a6.75,6.75,0,0,0-2.37-.12,30.54,30.54,0,0,0-5.4.57,4.48,4.48,0,0,1-.73.14,14.58,14.58,0,0,1-3.79-.12c-.59-.21-1.52-.38-1.52-1,0-1.1-.6-.8-1.16-.79a12.8,12.8,0,0,1-5.16-.66c-1.55-.62-1.36-1.29-.29-2.17a10.23,10.23,0,0,1,3.12.27,39.52,39.52,0,0,0,20.18-3.34C61.75,19.6,63.19,19,63.69,20.36Z"/><path class="cls-58" d="M56,25.85c.74-.26,1.56-.92,2,.39,0,1.16,0,2.33,0,3.49,0,.69-.13,1.25-1,1.27a1.9,1.9,0,0,0-1.45-2.39.91.91,0,0,1,0-.61C55.73,27.3,55.37,26.46,56,25.85Z"/><path class="cls-52" d="M59,26.31l1.26-1.14a7.53,7.53,0,0,0-.49,4.09.7.7,0,0,0-.36-.19C58.68,28.24,58.3,27.36,59,26.31Z"/><path class="cls-59" d="M59,26.31c.14.92.27,1.84.41,2.76-1.89-.37-.63-1.88-1-2.8Z"/><path class="cls-60" d="M71.89,36.8a.93.93,0,0,0,.91,1c-.13.62-.27,1.25-.41,1.87a1,1,0,0,1,.31.86c-.36,2-3.74,4.79-5.94,5-1.48-.42-.41-2.66-2.09-2.94l.93-.93c1.69-1.91,3.28-4,5.73-5Z"/><path class="cls-61" d="M71.33,36.65c-1.84,1.74-3.46,3.74-5.73,5-1.71-.6-1.54-1.93-1.28-3.29.61-1.51,2-2.1,3.28-2.87L70,32.87C70.82,34,71.63,35.14,71.33,36.65Z"/><path class="cls-62" d="M67.6,35.48a7.73,7.73,0,0,1-3.28,2.87c-1.17-.85-2-1.88-1.59-3.44h.05c1.82.19,1.36-1.49,1.92-2.33a4.3,4.3,0,0,1,2-1.8l.41.3c1,.73,1,1.8,1,2.87Z"/><path class="cls-63" d="M53,39.58l4.47-1.92,1.15.07c.15,1.34.87,2.77-.64,3.83l-3.8,1c-.14-.26-.23-.49-.66-.43a1.14,1.14,0,0,1-1.44-.9c-.14-.84.63-.85,1.2-1.14S52.84,39.9,53,39.58Z"/><path class="cls-64" d="M71.36,55l-.9-.49a.93.93,0,0,1-.52-.92l-.36-1.81c2-2,4.2-3.84,6.11-6,1.18-.11,1,1,1.43,1.6h0a6.9,6.9,0,0,1,.79,2,1.16,1.16,0,0,1-.13.61c-.52.69-1,1.4-1.54,2.08C74.64,53.11,73.58,55,71.36,55Z"/><path class="cls-65" d="M75.77,46a16.29,16.29,0,0,1-6.19,5.72,2.55,2.55,0,0,1-1.14-2.44l.49-1a17.62,17.62,0,0,1,5.48-5.59C76,43.35,76.75,44.32,75.77,46Z"/><path class="cls-66" d="M74.29,43l-5.36,5.25c-1.39.42-1.4-1.18-2.26-1.54a.92.92,0,0,1,.09-1.23c2.39-1.44,4.78-2.89,5.63-5.83l.87-.44a3.7,3.7,0,0,1,1.38,1.65A2.08,2.08,0,0,1,74.29,43Z"/><path class="cls-9" d="M57.92,37.2c.66-.47-.3-1.4.52-1.81C58.71,36.12,59.58,37,57.92,37.2Z"/><path class="cls-67" d="M71.36,55l4.71-3.34a7,7,0,0,0,1.54-1.88h0c.19-.13.22-.43.51-.46.48.65.95,1.31,1.43,2,0,.56.51,1.12,0,1.69a25.08,25.08,0,0,1-6.74,5.47C72.37,57.26,70.78,56.57,71.36,55Z"/><path class="cls-68" d="M78.12,49.29l-.51.46c-.12-.8-.71-1.49-.52-2.36C77.88,47.78,78,48.54,78.12,49.29Z"/><path class="cls-69" d="M68,33.94c-.72-.82-.61-1.92-1-2.87C69.48,31.33,68.6,32.69,68,33.94Z"/><path class="cls-70" d="M22.58,11.28l-.09-1.34.44-.45,1.8-.8c2.37-.25,4.47.92,6.72,1.34,3.12.59,6.28,1,9.41,1.48,0,1.2,0,1.2-1.92,1.29.68-.12,1.14.13,1.2.63s-.51.71-1,.82c-1.69.41-3.28-.47-4.46-1.19s-1.63.1-2.4.17a9.11,9.11,0,0,1,2.65.36c.72.19,1.86-.15,1.84,1.2-3.72,0-7.19-1.17-10.7-2.19-.52-.16-1.07-.22-1.61-.33S23,12,22.58,11.28Z"/><path class="cls-71" d="M41.14,11.9A48,48,0,0,1,24.73,8.69L23.87,8c.39-.47,1.25-.24,1.45-1a.84.84,0,0,1,.91-.94c2.4.89,4.48,2.52,7.14,2.84a18.57,18.57,0,0,0,3.25.34c2.41.7,5-.48,7.34.5.21,1.44-.75.68-1.52.86,1.9.11,3.64-1,5.3,0,.54.76-.11.94-.59,1.12a14,14,0,0,1-2.52.31,3.55,3.55,0,0,1-.71.19,5.47,5.47,0,0,1-2.17,0A1.46,1.46,0,0,1,41.14,11.9Z"/><path class="cls-72" d="M36.35,9.88c-3.76-.22-7.31-1-10.12-3.79.35-1,1.33-1.28,2-1.89l.72,0L32.48,6.1c-1.36,1.1-2.54-.21-3.87-.3,1.63,1.62,3.78,2,5.75,2.78C35.1,8.87,36.21,8.66,36.35,9.88Z"/><path class="cls-73" d="M25.32,7c.24.15.63.25.68.45s-.23.49-.56.5c-.52,0-1.05,0-1.57,0A1.5,1.5,0,0,1,25.32,7Z"/><path class="cls-74" d="M19.55,41.29c-.78-.24-1.73.15-2.37-.63,3.1.07,3.7-.45,3.27-2.81l.56-.09a.8.8,0,0,1,.62-.21c.34.15.62.32.34.75.25,1.2-.76,1.66-1.39,2.35Z"/><path class="cls-21" d="M29.19,35.77c-1.2.36-2.24-.47-3.39-.44-.88-.33-1.7-1.41-2.68-.08-.24.32-.7.27-.73-.33,0-.16,0-.31,0-.46.46-1.13,1.69-2.25.06-3.41h1.38A3.62,3.62,0,0,1,26,32c.61.89.17,2.24,1.28,2.91Z"/><path class="cls-75" d="M22.52,35.06l2.71-1.59c.27.65-.2,1.6.7,2l-.48.51L25,36c-1.68-.48-1.84,1-2.38,1.91-.08-.36-.07-.86-.6-.74-.17,0-.24.49-.36.75l-.48,0C20.29,36.32,21.38,35.68,22.52,35.06Z"/><path class="cls-76" d="M41.14,11.9h.49c1.22.75,2.61.4,3.5.66.73,0,.43-.57.46-.25,0,.08,0,.12-.08.12-.6,0-1.44.64-1.53-.61h0c2-.44,4.16.17,5.89-1.33A12.93,12.93,0,0,1,55.4,9.17c1.64-.51,2.17.77,2.87,1.78l.29.92a1.47,1.47,0,0,1-1.57.91l-.48.08c-.84.77-2,.52-2.95.87-5,.73-10,1.72-15.13,1.32-.54,0-1.08-.17-1.62-.26-1.75-1.13-4-.48-5.74-1.55,3-2.8,5.71,1.17,8.69.43-.22-.84-1.15-.58-1.51-1.16C39.17,12,40.34,12.77,41.14,11.9Z"/><path class="cls-77" d="M57,12.78l1.57-.91c1.12.25,1.22,1,.85,1.88C58.89,12.73,57.21,14.57,57,12.78Z"/><path class="cls-78" d="M58.27,11c-1-.35-1.26-2-2.7-1.57-.11-.1-.14-.19-.09-.28S55.56,9,55.6,9c.46-.34.66-1.05,1.41-1l1,1C57.59,9.7,58.71,10.2,58.27,11Z"/><path class="cls-79" d="M40.2,43.56c-4.72,0-9.2-1.59-13.84-2.1,0-.92-.75-1.82-.09-2.77l.36,0a5.39,5.39,0,0,1,2.77.47c.41.25.9.44.65,1.06a.92.92,0,0,1-1.17.59c2.94.62,5.9.11,8.85.13.55,0,1.11,0,1.66,0,.85.06,2-.12,2.31.82C42.18,43,40.6,42.87,40.2,43.56Z"/><path class="cls-79" d="M28.21,38.24l1.55.4c-1.09.73-2.24.25-3.37.15l-.12-.1C26.77,37.94,27.6,38.55,28.21,38.24Z"/><path class="cls-80" d="M25.31,35.84c1,0,1,.76.93,1.47C25.29,37.22,25.29,36.54,25.31,35.84Z"/><path class="cls-81" d="M36.35,9.88C35,9,33.26,8.78,31.75,8.33,30,7.8,28.94,6.63,27.47,5.65c1.93-1.36,3.33,1,5,.45l1.82.06a13,13,0,0,0,7.36.43,15,15,0,0,0,8.17-2.42,3.26,3.26,0,0,1,2.32.12c.37.72,1.29,1.22,1,2.25-1.08,1.76-3,2.21-4.68,3-1.16.14-2.27.54-3.41.74a1.23,1.23,0,0,1-1-.3C41.47,10,38.91,10.46,36.35,9.88Z"/><path class="cls-82" d="M48.36,9l4.75-2.44c1.26.37,2.44.82,2.49,2.43a1.89,1.89,0,0,0,0,.41l-5.3,1.54c-.76.26-1.51.62-2.28,0H41.72c1-.74,1.93-.28,2.31-1l.81-.09A9.77,9.77,0,0,0,48.36,9Z"/><path class="cls-27" d="M29.74,17.56c-1.23,0-2.63.58-3.48-.91A7.8,7.8,0,0,1,29.74,17.56Z"/><path class="cls-27" d="M25.86,16.6a2.84,2.84,0,0,1-2.92-.94A4.94,4.94,0,0,1,25.86,16.6Z"/><path class="cls-77" d="M53.56,13.73a7,7,0,0,1,2.95-.87C55.82,14.14,54.63,13.72,53.56,13.73Z"/><path class="cls-83" d="M22.58,11.28l1.92,1c-.91.25-1.67-.37-2.53-.41Z"/><path class="cls-84" d="M49.8,29.14C44,30.5,38.27,30,32.51,29.07c-1.26-1.31-3.14-.77-4.6-1.54-.73-.38-1.53-.83-1.4-1.68s1.2-.36,1.8-.63c2-.78,3.89-.08,5.8.36.71.62,2,.37,2.35,1.49,0,.21-.49.56.18.55a75.27,75.27,0,0,1,11.63.2,3.6,3.6,0,0,0,1.82-.46,1.48,1.48,0,0,1,2.14.83C51.85,29.61,50.43,28.36,49.8,29.14Z"/><path class="cls-57" d="M34,26.21l-5.66-1-2.08-.85.1-.09c3.72-1.08,7.46-1.83,11.2-.17,1,.43,2.45.69,1.54,2.4C37.32,27.25,35.66,26.43,34,26.21Z"/><path class="cls-85" d="M39.24,26.31a2.91,2.91,0,0,0-3.17-2,2.4,2.4,0,0,1-2.22-.55,1.37,1.37,0,0,0-1.77-.24c-1.8,1.43-3.83.58-5.75.76,0-1.49,1.69-.43,2.16-1.58a12.77,12.77,0,0,1-5.13-1.76c1.45-.75,2.89.72,4-.49a1.56,1.56,0,0,1,1.56-.36c2.77.94,5.69,1.34,8.43,2.36-.25,2.24,1.83,1.18,2.71,1.81.48.34,1.42-.05,2.1.1,1,.21,2.83-1,2.71,1.42,0,.17.46.36.7.54l-.32.26c-1.6.55-3.24.27-4.87.26A1.79,1.79,0,0,1,39.24,26.31Z"/><path class="cls-86" d="M37.31,22.45l-10-2-1.58-.87c2.39-.16,4.69-.13,6.91,1.15s4.7.47,7,1.2c.37.12.7.31,1.05.46Z"/><path class="cls-38" d="M36.39,47.59c3.61.74,7.34-1.22,11.47.8C43.65,48.07,40,48.89,36.39,47.59Z"/><path class="cls-38" d="M31.56,45.44l12.66.91c-3.41.22-6.87-.22-10.26.54-.12-.11-.16-.21-.12-.32s.08-.16.12-.16.18,0,.23,0a1.66,1.66,0,0,0,.22-.3C33.51,45.61,32.34,46.4,31.56,45.44Z"/><path class="cls-38" d="M46.21,46.35a54,54,0,0,1,7.91-.91c-1.23,1.34-2.86.9-4.36,1C48.58,46.44,47.4,46.37,46.21,46.35Z"/><path class="cls-38" d="M52.22,48.16l-3,.72C50.28,47.3,51.35,48.24,52.22,48.16Z"/><path class="cls-87" d="M34,46.41v.48a1.54,1.54,0,0,1-2.08.2C32.37,46.1,33.25,46.52,34,46.41Z"/><path class="cls-38" d="M53,47c-.73.59-1.22.34-1.94.4C51.73,46.63,52.23,47,53,47Z"/><path class="cls-88" d="M26.39,38.79l3.37-.15a.25.25,0,0,1,.35.12,10,10,0,0,0,5.42.87c4.41.21,8.79,1.27,13.24.63,1.41-.2,2.81-.45,4.21-.68l1.75.3c-.47,1.24-1.74.34-2.31,1.19.32.85.95.78,1.69.62.39-.09.41,0,0,.92h0c-3.1.56-6-1.08-9.11-.63-.31-.13,0,.44-.08.12,0-.12,0-.18.15-.16a28.41,28.41,0,0,0,3.06.2c.47,0,1.06.13,1.09.69s-.55.94-1.15.92a58.44,58.44,0,0,1-7.6-.16l-.15.07-.15-.09c-.72-1.37,1.06-.73,1.26-2a55.64,55.64,0,0,0-6.72.06A16.24,16.24,0,0,1,28.07,41c.5-.66,1.45-.12,1.65-1C28.87,39,27.35,39.62,26.39,38.79Z"/><path class="cls-63" d="M40.5,43.58h8.38l0-.79c-1.56-.45-3.34,0-5-1.07a24.68,24.68,0,0,1,10.25.88C49.71,44.49,45.12,44.21,40.5,43.58Z"/><path class="cls-89" d="M61.69,23.33a4.1,4.1,0,0,1,1.51-1.95A2,2,0,0,1,61.69,23.33Z"/><path class="cls-7" d="M64.7,32.57a4.11,4.11,0,0,1,.16,1.57c-.31,1.09-.87,1.91-2.08.76Z"/><path class="cls-90" d="M16.65,27.19c1.87-2.81,3.84.38,5.76-.08a.85.85,0,0,1,.3.56c0,.17-.4.46-.45.43-1.75-1.09-3.88.23-5.61-.92Z"/><path class="cls-91" d="M27.23,34.92c-1.93-.24-1.31-1.68-1.33-2.82,0-.27.15-.32.36-.14a12.1,12.1,0,0,1,4.43.95A13.31,13.31,0,0,1,28.8,33C27.25,32.83,26.79,33.49,27.23,34.92Z"/><path class="cls-92" d="M26.26,32a.67.67,0,0,1-.36.14,3.32,3.32,0,0,1-2-1.05c.23-.31.48-.6.7-.92s.48-1.17,1.16-.88c.89.38.11.86-.08,1.29C25.36,31.22,26.18,31.43,26.26,32Z"/><path class="cls-93" d="M49.8,29.14c.55-.93,1.83-.06,2.38-1l.27-.26a3.37,3.37,0,0,1,2.91,0l.24.28c0,.14-.05.27-.08.4C53.6,28.68,51.75,29.43,49.8,29.14Z"/><path class="cls-94" d="M46.43,34.77a11,11,0,0,1-1.14.11,47,47,0,0,1-6.91-.32h8Z"/><path class="cls-79" d="M35.53,39.63c-.16,0-.38,0-.46.06-2.11,2.1-3.43,0-4.95-.93A17.45,17.45,0,0,1,35.53,39.63Z"/><path class="cls-95" d="M52.18,28.17c-.66-.07-1.17-.83-2-.08-1.16,1-2.59.07-3.9.08-3.27,0-6.53,0-9.8,0-.73,0-1.57.33-2.28-.47.65-.76,1.49-.35,2.2-.48.81-.71,1.79-.44,2.74-.49,3.56-.21,7.17.58,10.7-.48a.29.29,0,0,1,.36,0,3.15,3.15,0,0,1,2.1,0,1.49,1.49,0,0,1-.06,2Z"/><path class="cls-93" d="M49.8,26.23c-.79,1-1.91,1-3,1H36.36c-.56-.9-1.86,0-2.39-1l5.27.1H40a15.29,15.29,0,0,0,5.52,0v0Z"/><path class="cls-93" d="M52.16,26.3l-2-.11c1.92-.38,3.82-1.11,5.81-.34-.4.74,1,1.77-.37,2.36l-.15-.12C54.54,27.16,53.26,26.9,52.16,26.3Z"/><path class="cls-96" d="M56.75,23.76c0,.46-.32.53-.61.51s-.69-.17-.75-.36c-.15-.43.28-.46.58-.5A.67.67,0,0,1,56.75,23.76Z"/><path class="cls-97" d="M50.47,25a1.34,1.34,0,0,1-.5.2c-.35,0-.55-.25-.37-.58.08-.13.39-.19.59-.17S50.6,24.62,50.47,25Z"/><path class="cls-68" d="M77.61,49.74a1.87,1.87,0,0,1-1.54,1.88A4.4,4.4,0,0,1,77.61,49.74Z"/><path class="cls-70" d="M48,11l2.28,0c-1.89,1.67-4.15.68-6.25.9Z"/><path class="cls-70" d="M44,11.82c.44.75,1.32.3,1.92.7-2.79.52-3.13.47-4.27-.62Z"/><path class="cls-71" d="M48.36,9c-1,1.12-2.25,1-3.52.89A11,11,0,0,1,48.36,9Z"/><path class="cls-57" d="M45.52,26.28a10.76,10.76,0,0,1-5.52,0Z"/><path class="cls-84" d="M52.16,26.3c1.49-.11,3.07-.4,3.29,1.79l-3.25.07C52.19,27.54,52.17,26.92,52.16,26.3Z"/></g></g></svg>