<svg xmlns="http://www.w3.org/2000/svg" viewBox="0 0 56.4 56.13"><defs><style>.cls-1{fill:#e93130;}.cls-2{fill:#e83535;}.cls-3{fill:#d9705d;}.cls-4{fill:#e92f30;}.cls-5{fill:#e63732;}.cls-6{fill:#e73b32;}.cls-7{fill:#ee5344;}.cls-8{fill:#e28669;}.cls-9{fill:#e24737;}.cls-10{fill:#e93031;}.cls-11{fill:#d5715f;}.cls-12{fill:#e43e34;}.cls-13{fill:#e72e31;}.cls-14{fill:#ef6c52;}.cls-15{fill:#f1745a;}.cls-16{fill:#ec654a;}.cls-17{fill:#ee5943;}.cls-18{fill:#dd3d2f;}.cls-19{fill:#f05e47;}.cls-20{fill:#e23a31;}.cls-21{fill:#ef644b;}.cls-22{fill:#f08469;}.cls-23{fill:#f07459;}.cls-24{fill:#f07b60;}.cls-25{fill:#ee735a;}.cls-26{fill:#ef735a;}.cls-27{fill:#f07f62;}.cls-28{fill:#e96444;}.cls-29{fill:#f07d61;}.cls-30{fill:#f08065;}.cls-31{fill:#f07c5f;}.cls-32{fill:#ef6f56;}.cls-33{fill:#ed6c52;}.cls-34{fill:#dd9576;}.cls-35{fill:#f9f6f5;}.cls-36{fill:#f9f6f4;}.cls-37{fill:#ed6b57;}.cls-38{fill:#ea765f;}.cls-39{fill:#bd8f81;}.cls-40{fill:#f18b70;}.cls-41{fill:#f0836a;}.cls-42{fill:#e98b75;}.cls-43{fill:#f5f3f0;}.cls-44{fill:#e68a74;}.cls-45{fill:#e18f74;}.cls-46{fill:#d5effa;}</style></defs><title>shirt2</title><g id="Layer_2" data-name="Layer 2"><g id="Layer_1-2" data-name="Layer 1"><path class="cls-1" d="M34,54.16,30.16,55l-.46.07a14.66,14.66,0,0,1-11-.07,11.6,11.6,0,0,0-2.7-.67c-2.76,0-3.86-1.54-4.08-4a2.41,2.41,0,0,1-.5-1,6.59,6.59,0,0,1-.07-1.47c.12-1.39.72-2.76.25-4.19a1.52,1.52,0,0,1,.21-1l-.4-9.53c-.26-.28-.4-.67-.76-.82-.39,3-2.82,3.1-5,3.49-.42-.13-.89-.15-1.21-.53C3.28,34,2.13,32.82,2.53,30.88c.13-.64-.55-1.1-1-1.58a1.34,1.34,0,0,1,.49-2.15c.84-.38,1.15.51,1.53,1.07A14.78,14.78,0,0,0,5,29.8c.56.94,2.24.7,2.31,2.17-.11.36-.59.43-.67.82.35,0,.54-.28.78-.47.45-.51.76-1.12,1.2-1.63A7.81,7.81,0,0,0,10,27.93c.29-.86.74-1.76,1.78-1.64s1.54,1,1.69,2.05a8.2,8.2,0,0,0,.49,2.82,24.48,24.48,0,0,1,1.48,8.19c.11,3.12.72,6.18.9,9.28.1,1.77,1.43,2.35,2.59,3.15,2.76,1.42,5.5,2.55,8.57.74,1.51-.89,3.33-.17,4.93-.72,1.25-.42,2.58-.56,3.82-1A46.2,46.2,0,0,1,43,48.05c2-1.42,4.08-1,6.13,0a1.89,1.89,0,0,1,.08,1.64c-.9,1.32-1.92.56-3.06.07-.12-.09,0,.48.09.18,0-.09.09-.05.23,0a1,1,0,0,1,.74,1.28c-.27.79-1.19.56-1.65,1.07l-.18,0-.2,0C41.47,53,37.64,53,34,54.16Z"/><path class="cls-2" d="M5.53,35.51a10.82,10.82,0,0,1,2.23-.84c1.33-.18,2.27-.43,2-2.15A1.2,1.2,0,0,1,11,31.14c.35,1-.29,1.92-.51,2.87A2.57,2.57,0,0,0,10,35.78a5.34,5.34,0,0,1-4,.37A.66.66,0,0,1,5.53,35.51Z"/><path class="cls-3" d="M10.51,34A5.89,5.89,0,0,1,11,31.14c.63.56.49,1.26.38,2Z"/><path class="cls-4" d="M49.88,35c-.15.44-.34.86-.89.94-2.08.06-1.62,1.86-1.28,2.62,1.11,2.49-.44,5.18.85,7.59.26.49-.09.9-.62,1.07-1.53.5-3.84-.83-4.32-2.5A3.17,3.17,0,0,1,44,43.36a12.19,12.19,0,0,0,.76-9,11.44,11.44,0,0,1-.34-3.29c.24-1.23.1-3,2.22-1.55a2,2,0,0,0,1.94,1.05c1.81-.16,1.56,1.69,2.3,2.55S50.21,34.36,49.88,35Z"/><path class="cls-5" d="M49.88,35c.35-.92,1.16-2-.66-2.28.8-1.71-.13-1.83-1.44-1.51-1,.23-1-.61-1.28-1.07a1.31,1.31,0,0,1,.53-.4c1.13-.32,2.3.13,3.48-.48,1.79-.91,2.43-1.79,1.87-3.69-.3-1-.81-1.92-.49-3a2.76,2.76,0,0,0-.07-2.84,1.73,1.73,0,0,1,0-2.15c1.4,1,1.32,3.08,2.77,4.07a10.24,10.24,0,0,0,.52,1.05c1.78,2.9,1.87,5.67-.57,8.27C52.67,32,51.88,34.18,49.88,35Z"/><path class="cls-6" d="M44.09,45c.36,2.3,2.49,1.61,3.65,1.67s.18-1.43,0-2.11c-.18-.93-2.18-1.74.07-2.7a2.19,2.19,0,0,0-.1-1.79c-1.12-1.38-.09-2.94-.53-4.38-.22-.74.4-1.19,1-.17.12.21.51.28.77.41a1.65,1.65,0,0,0-1,2.22c.26,1,.45,2.11.67,3.16a14.27,14.27,0,0,0,.24,5.13,1.13,1.13,0,0,1,0,1.45c-.42.17-.81,1-1,.73-1.52-2.08-3.13-.41-4.69-.24-1.11-.86-.72-1.88-.29-2.9C43.19,45.1,43.53,44.79,44.09,45Z"/><path class="cls-7" d="M34,54.16a17.29,17.29,0,0,1,11.15-1.87c-1.74,1.36-4,1-5.93,1.78Z"/><path class="cls-8" d="M48.89,47.9c0-.48,0-1,0-1.45.69.36.79,1,.94,1.72-.09,3.15-.89,3.91-4.28,4.1l1.42-1c.59-.53,1.44-.71,1.89-1.43C48.88,49.18,48.88,48.54,48.89,47.9Z"/><path class="cls-2" d="M4.72,30.16a5.56,5.56,0,0,1-2.26-2.77,1.16,1.16,0,0,0-.6,1.79c.48,1.06.92,2.11-1,1.93C-.38,30.43,0,29.62.44,28.54c2-4.37,3.86-8.8,5.77-13.21l.86-1.08a.59.59,0,0,1,.61-.08,3.32,3.32,0,0,1,1.08,1.64c-.19,1.35-1.17,2.34-1.6,3.58-.09.2-.19.39-.29.58-.7,1.45-1.24,3-1.8,4.46-1.37,1.79-.72,3.63-.14,5.47Z"/><path class="cls-9" d="M.87,31.11c1.29-.14.91-1.16,1-1.93.91,0,1.48.92,1.3,1.39-.79,2,.84,3,1.54,4.44-.34.2-.65.23-.88-.16A14,14,0,0,0,1,32Z"/><path class="cls-10" d="M8.51,15.73a1.52,1.52,0,0,1-.9-1.46c-.13-1,.58-1.62,1-2.39L13.5,5.23a1.66,1.66,0,0,1,1.3-1h.47c.9.26.93-.7,1.43-1h0c.87-.31,1.82-.66,1.33.92-.24.75,0,1.53-.24,2.26C17.19,8.1,15.43,8.7,14.39,10a21.47,21.47,0,0,0-1.66,2C11.38,13.32,10.39,15,8.51,15.73Z"/><path class="cls-11" d="M8.56,11.88c0,.93-.65,1.58-1,2.39l-.54,0A3.19,3.19,0,0,1,8.56,11.88Z"/><path class="cls-12" d="M17.25,6.19c.52-.85-.83-2.06.52-2.76l-1.1-.23,0-1a1,1,0,0,1,.57-1.12,1.55,1.55,0,0,1,1.31.13c1.21-.38,2.05.42,3,.94l.95.56c3.61,2.61,6.44,1.91,9.15-2.26,1.56-.95,2.72-.31,3.73.93.39.31,1.27.05,1.15,1A3.48,3.48,0,0,1,34.73,4,4.37,4.37,0,0,0,32,5.13c-3.57,3-7.53,4-12,2C19.11,6.7,18,6.89,17.25,6.19Z"/><path class="cls-12" d="M16.7,3.19c-.29.61-.3,1.61-1.43,1C15.42,3.4,16,3.18,16.7,3.19Z"/><path class="cls-13" d="M35,3.78c.35-.62.5-1.44,1.44-1.48a.42.42,0,0,1,.53-.13,9,9,0,0,0,2.35,1.38c.55.17.77.64,1,1.08C41.89,5.78,43,7.55,45,8.16c3.19,2.49,5,5.95,6.84,9.42a3.93,3.93,0,0,0,.76,2.33c.85.91.59,1.82-.35,2.57-.49.21-.81-.08-1.13-.39a2.73,2.73,0,0,1-.34-.54,16.22,16.22,0,0,0-1-2,4,4,0,0,1-.28-.54,3.19,3.19,0,0,0-1.16-1.7,22,22,0,0,0-4.48-5.09q-1.47-1.54-3-3c-1.27-1.45-3-2.28-4.46-3.51C35.79,5.2,34.8,4.9,35,3.78Z"/><path class="cls-14" d="M36.43,51.27a11.79,11.79,0,0,1-3.84,1c-2,.49-4,0-6,.45a1.14,1.14,0,0,1-.79-.41c-.71-1.09-.75-1.1-1.77-.41a1.87,1.87,0,0,1-.56-.34c-2.73.31-4.08-1.77-5.73-3.3a3.37,3.37,0,0,1-1-2.82c0-.56.41-1.22.19-1.64-1.68-3.26-1-6.69-.88-10.08,0-.63.2-1.69-1.27-1.2-.83.28-.93-.85-.73-1.33,1.08-2.68-1.57-5-.59-7.69,0-.11-.74-.11-1-.39a1.33,1.33,0,0,1-.25-.63c.58-1.39,1.09-2.71,0-4.18a2.34,2.34,0,0,1,.07-2.49c1.58-.9,2.35-2.73,4.11-3.46.77-.32,1.49-.75,2.19-.13,1.63,1.43,2,0,2.55-1a1.37,1.37,0,0,1,.62-.32.88.88,0,0,1,.67.77,2.23,2.23,0,0,1,0,.73c-.22,1.19,0,2.4-.19,3.58s-.51,1.78-1.91,1.18c-1.9-.82-2.43-.43-2.28,1.65a17.61,17.61,0,0,0,1.6,7,35.16,35.16,0,0,1,1.12,4.77,2,2,0,0,1-1.26,2.65c-1.25.51-.78,1.36-.31,2.09s1.12.83,1.65,1.3c.46.81.18,1.73.39,2.58-.08,2.42.68,4.7,1.16,7,.28,1.35.7,1.84,2,.83,1.85-1.4,2.42-1.2,3.21.95.37,1,.95,1.18,2,1.52C31.76,50.17,34.18,50.42,36.43,51.27Z"/><path class="cls-15" d="M36.43,51.27c-2.16-.14-4.52.6-6.27-1.41a.67.67,0,0,0-.63,0c-2.09,1.39-2.23-.35-2.53-1.63-.43-1.88-1.05-2.61-2.42-.62a2.23,2.23,0,0,1-2.33.73c-1.08-.15-.24-1-.38-1.56-.68-2.61-1.58-5.19-1.28-7.95,1.83-.46,1.41,1,1.53,1.89.19,1.38-.08,2.85,1.1,4.43-.12-2.38,1.64-4.34-.07-6.42-.46-.56-.1-1,.49-1.32,1-.46,2-1,3.07,0a7.6,7.6,0,0,1,2.06,6.15c-.19,4.74-.1,4.84,4.33,3.11a2.35,2.35,0,0,0,.58-.41A2.25,2.25,0,0,0,34.6,44a3.38,3.38,0,0,1,.72-2.61,13.58,13.58,0,0,0,1.94-4.28c.21-.56.2-1.31,1.1-1.29a13.78,13.78,0,0,1,1.41,4c.32,1.3.33,2.73-1.32,3.4-.7.28-1.36.69-1.07,1.56.39,1.15,1.58,1.21,2.49,1.61a1.08,1.08,0,0,0,1.56-.61c.46-1,.62-2.22,2.11-2.18.7.82-.15,1.32-.39,1.95a6.37,6.37,0,0,0,0,2.88Z"/><path class="cls-16" d="M12.42,22.94c.72,0,1.66-.46,1.23,1.17-.24.9.54,2.09.91,3.13.59,1.64.15,3.26-.26,5.2,1.29-1,2.17-2,2.3.54.09,1.66.36,3.19-.31,4.78a2.74,2.74,0,0,0,.37,3.1,3.88,3.88,0,0,1,.74,4c-.47,1.55.73,2.44,1.56,3.68,1.38,2.06,3.48,1.61,5,2.73-1.69.68-3.37,1.44-5.28,1-1.42-.91-2.79-1.27-3.09-3.76-.69-5.78-.36-11.72-2.18-17.36a36.56,36.56,0,0,0-1.26-7.42A1.25,1.25,0,0,1,12.42,22.94Z"/><path class="cls-17" d="M18.65,52.22c1.72-.56,3.4-1.33,5.28-1,0,.16,0,.32,0,.48.47.83,1.46-.38,1.92.48h6.73c-.8.78-1.8.41-2.72.46a5.2,5.2,0,0,0-2.53.51A7.88,7.88,0,0,1,18.65,52.22Z"/><path class="cls-2" d="M12.42,23.43c1.59,2.39.76,5.09,1,7.67-.84-.78-.4-1.8-.47-2.71a1.65,1.65,0,0,0-1.36-1.65c-.64-.07-.9.72-1.06,1.37-.28,1.21-.43,2.53-1.89,3l-.25-.27C8.64,27.79,9.73,25.17,12.42,23.43Z"/><path class="cls-6" d="M48.87,49.82c0,1.26-.85,1.5-1.89,1.43-.25-1.63-1.78-.52-2.57-1.26C45.85,48.21,47.46,50.67,48.87,49.82Z"/><path class="cls-18" d="M7.62,32.54c-.38.53-.41,1.51-1.42,1.31a1,1,0,0,1-.76-1.1c.11-1.13,1.1-.52,1.7-.7C7.56,32,7.76,32.08,7.62,32.54Z"/><path class="cls-2" d="M7.62,32.54l-.48-.49c-.25-1.34-2.28-.41-2.42-1.89l0,0c1.51-.66,2.67.13,3.81.95l0,0A1.5,1.5,0,0,1,7.62,32.54Z"/><path class="cls-6" d="M43.45,51.28l-2-.73a1.84,1.84,0,0,1,2.13.32S43.52,51.09,43.45,51.28Z"/><path class="cls-19" d="M43.15,45.51c.15-.65.31-1.29.47-1.93,0-.11,0-.23,0-.34.11-.68.39-1.32.51-2a6,6,0,0,1,.19-.73c.45-3.61-1.22-6.89-1.57-10.36-.24-2.31-1.05-4.77.89-6.82,1.3.32,1,1.44,1.13,2.33.27,1.81-.23,3.66.29,5.45a10.21,10.21,0,0,0,.46,3.77c1.14,3.61-.08,6.87-1.42,10.13Z"/><path class="cls-20" d="M45.05,31.11a9.66,9.66,0,0,1-1-5c0-.91.34-1.91-.46-2.7a1.62,1.62,0,0,1-.69-2.08.66.66,0,0,1,.79-.38c1.24.25,1.51,1.28,1.82,2.29.21,2.35,1.72,4.43,1.44,6.89H46.5c-.42-.14-.55-.92-1.06-.67C44.76,29.8,45.17,30.55,45.05,31.11Z"/><path class="cls-21" d="M47,30.14a23.19,23.19,0,0,1-1.92-6.72c1.46.27,1.42,1.69,2,2.62s.79,2.44,2.5,1.9c1.5-.48,1.6-1.81,1.75-3.05.12-1-.79-2,0-3,.3.18.6.36.89.55a6.49,6.49,0,0,0,.47,2.32c1.4,3.53-.56,6-4.27,5.41A13.75,13.75,0,0,0,47,30.14Z"/><path class="cls-22" d="M8.51,15.73a21.32,21.32,0,0,1,3.86-3.85c.65-.48,1.42-.67,1.87.07s-.36,1.08-.78,1.52a6.37,6.37,0,0,0-1.73,6.74,5.52,5.52,0,0,1-.28,3.26c-.72,2.08-2.74,3.23-3.72,5.14-.44.84-1.06.66-1.73.09-1.4-1.2-2.06-2.56-1.3-4.37a11.81,11.81,0,0,1,1.94-4.77,2.35,2.35,0,0,1,.5.67,2.18,2.18,0,0,0-.5-.67C6.91,18.11,7.87,17,8.51,15.73Z"/><path class="cls-23" d="M4.7,24.33a4.6,4.6,0,0,0,2.36,4.38c.6-2.17,2.89-3.24,3.92-5.29.43-.4.5-1.32,1.44-1v1a18.14,18.14,0,0,0-3.86,7.65c-1.37.08-2.5-.78-3.81-.95C3.43,28.21,2.87,26.28,4.7,24.33Z"/><path class="cls-24" d="M12.42,22.46l-1.44,1a12.41,12.41,0,0,0-.22-4.58c-.36-2.72.88-5.07,3.65-6.8l-2-.16C13,10,14.66,9,16,7.75c.52-.47,1.16-.77,1.25-1.56,1,0,2-.42,2.85.43-.6,1.61,1,1.51,1.67,2.15.4.41,1.33.32,1.2,1.19s-.88.75-1.43,1h0c-1,1.21-1.88,2.65-3.62.66-.55-.63-1.58-.14-2.18.63a24.51,24.51,0,0,1-3.32,3.51,4.39,4.39,0,0,0,.95,3.5C14.66,20.66,12.9,21.42,12.42,22.46Z"/><path class="cls-25" d="M21.54,10.94l1.34-1.08C21.14,9.22,19.23,9,20.1,6.62c4.6,1.71,8.68,1,12.08-2.67A1.91,1.91,0,0,1,35,3.78c1.79,2.1,4.67,2.91,6.28,5.23-2.12,1.1-3.79-.45-5.54-1.1a4.94,4.94,0,0,0-3.87-.24c-.81.21-.8.88-.86,1.52a2.51,2.51,0,0,1-.53,1.16c-.47.58-1.16.45-1.79.42.92.22,1.57.44.62,1.42-.87.29-2.13-.51-2.58.93-.38.66-.22,1.74-1.39,1.76a2.36,2.36,0,0,1-1-2.22,5.25,5.25,0,0,1,.77-2.58,2.26,2.26,0,0,1-3,1.34Z"/><path class="cls-26" d="M51.33,21.93c.28,1.84,1.06,3.46-.09,5.54-.73,1.33-1.91.58-2.54,1.54-.3.46-.79-.69-1.2-1.11-1.21-1.28-1.32-3.15-2.44-4.48-.53-.68-.29-1.94-1.59-2.08-.73.74.31,1.38.15,2.08-1,3.47-.37,6.83.5,10.22.64,2.46,1.63,5,.46,7.54-1-.79-2.16-1.53-1.56-3.1.78-2.07-.1-2.82-2.1-2.74a2.4,2.4,0,0,1-1-.16.86.86,0,0,1-.39-.52c0-.93.83-1,1.31-1.53.72-.71,1.64-1.4.87-2.62-.41-.35-1-.48-1.2-1.07a7.16,7.16,0,0,0,.78-6.19A2.55,2.55,0,0,1,41.7,21a25.52,25.52,0,0,0,2.29-3,3.56,3.56,0,0,0,.09-4.33,2.71,2.71,0,0,1-.34-1,1,1,0,0,1,.37-.9,15.55,15.55,0,0,1,4.77,5.33c.53.53.45,1.36,1,1.88h0c.22,1,.17,2.07,1.42,2.41A3.28,3.28,0,0,1,51.33,21.93Z"/><path class="cls-27" d="M44.11,11.88l0,1c-.78.23-1.13-.42-1.6-.8s-.88-.34-1.44.07c-1.81,1.35-2,1.24-2.3-1.32a2.36,2.36,0,0,0-.86,1.49c0,.71.32,1.54,0,2.13a8.35,8.35,0,0,0-.1,8c.24.49.25.95.82,1.27,2.46,1.37,2.74,2.43,1.49,5a2.16,2.16,0,0,1-.63,1c-1.84,0-2.31-1.59-3.07-2.81-.54-.87-1-1.8-1.47-2.7a24.47,24.47,0,0,1-1.36-7.08,11.29,11.29,0,0,0,.8-4.14,1,1,0,0,1,.55-.3c1.46-.27.25-1,.28-1.56a3.61,3.61,0,0,1-.19-.64c.21-1.62-1.11-1.4-2-1.73s-2.39.18-1.85-1.65c3-1.65,5.23.94,7.83,1.46A11.41,11.41,0,0,0,41.24,9,11.85,11.85,0,0,1,44.11,11.88Z"/><path class="cls-28" d="M51.29,21.5c-2.1.16-2.28-.82-1.42-2.41C50.94,19.55,50.78,20.72,51.29,21.5Z"/><path class="cls-28" d="M49.87,19.09c-.88-.34-1-1.07-1-1.88C49.77,17.54,49.9,18.28,49.87,19.09Z"/><path class="cls-29" d="M34,46.46a5.86,5.86,0,0,1-5.39,1.83c-1.47-.29-.92-1.77-.78-2.63a11.66,11.66,0,0,0,0-4.92c-.73-2.94-1.57-3.58-4.59-2.71,3.3,2.42-.16,5.23.57,7.83.07.25-.32.51-.69.47s-.49-.33-.64-.62a9,9,0,0,1-1-4.6c0-.82.55-2-.91-2.33-.55-.79.15-1.59,0-2.38l.24-.23c1.27-.24,2.65-.29,3.22-1.79a2.3,2.3,0,0,1,.57-.74c.72-.43.68-1.17.74-1.86a6.87,6.87,0,0,1,.17-1c.14-.38.16-.78.3-1.15s.3-1,.9-.88c.39.07.53.54.63.93a2,2,0,0,1,.09.47c.07,2.69,1.14,4.48,4.11,4.57a1.11,1.11,0,0,1,.38.94c-.19.62.18,1,.53,1.48a1.41,1.41,0,0,1-.07,1.93c-1.72,2.28-1.52,4.52.5,6.71A2.21,2.21,0,0,1,34,46.46Z"/><path class="cls-30" d="M22,11.42c1.06-.6,3.24-.26,2-2.71,2.83.94.86,2.5.85,3.76-1.29.28-1.19,1.29-1.21,2.26a64.34,64.34,0,0,0,.73,8.08,13.76,13.76,0,0,1,.07,4.05c-.12,1.88-1.88,3.1-1.92,5.11,0,.94-1.33,1.4-2.39,1.56a2.15,2.15,0,0,1-1.42-.33.44.44,0,0,1-.05-.66c1.32,0,1.86-.47,1.46-1.91s-.66-3.2-1-4.81a8,8,0,0,1,.61-5.68c.43-.73-.1-2.61,1.9-1.68.37.17,0-.16,0-.25A49.25,49.25,0,0,0,22,11.9C22,11.74,22,11.58,22,11.42Z"/><path class="cls-25" d="M22,11.9c1.28,2.25-.32,4.49,0,6.76.1.76-.34.39-.65.11a1.63,1.63,0,0,0-.61-.21c0,1.64-1.79,3.29-1.22,4.37.74,1.41-.18,2-.36,2.89-1.86-2.7-1.86-5.8-1.9-8.88,0-.63.21-1.1.91-1.16,1.18-.12,2.35-.2,2.91,1.43C22.12,15.32,20.85,13.4,22,11.9Z"/><path class="cls-25" d="M12.42,15.74c1.22-1.87,2.37-3.82,4.48-4.88.43-.21,1-.53,1.28,0,1.09,2.34,2.22.72,3.36.11a8.25,8.25,0,0,0-.46,1.57c-.13,1.41-.77,1.59-1.86.88-.62-.41-1.21-1.5-1.91-1-1,.76-2.61.76-2.91,2.19S13.26,15.7,12.42,15.74Z"/><path class="cls-16" d="M25.86,52.22c-.48-.78-1.8,1.76-1.92-.48.66-.7.84-1.84,2.12-2.19C26,50.49,25.93,51.35,25.86,52.22Z"/><path class="cls-29" d="M18.66,32.54l.06.61a11.47,11.47,0,0,0,2,2.65.54.54,0,0,1-.13.57l0,0C17.91,35.92,17.18,34.44,18.66,32.54Z"/><path class="cls-31" d="M40.74,34.94c3.28-.4,4,.19,2.83,2.88-.78,1.77,1.45,2,1,3.36,0,.16,0,.32,0,.48a4.68,4.68,0,0,0-1,1.92h0a2.39,2.39,0,0,0-1.31,1.32c-.31.93-.14,2.48-1.43,2.39A8.31,8.31,0,0,1,37,45.76c-1.17-.81-.83-2.85.47-3,2.89-.39,2-2.39,1.41-3.66a8.86,8.86,0,0,1-.58-3.18c.72-.45,1.09,0,1.41.55s.25,1,.87,1.29C41.46,36.8,39.85,35.82,40.74,34.94Z"/><path class="cls-32" d="M39.3,36.86a.87.87,0,0,0-1-1c-.48,1.42-1.06,2.81-1.41,4.26-.22.89-.53,1.44-1.47,1.5a12.76,12.76,0,0,1-1.19,1.72c-.83.78-1.39.48-1.47-.66a4.08,4.08,0,0,0-.19-5.21A2.25,2.25,0,0,1,32.12,36c.43-1.79,1.59-3.47.1-5.42-.62-.8-.21-2.16-.43-3.25-.11-.54-.17-1.25.47-1.43s1.06.47,1.33,1.06-.08,1.47.69,1.91a1.88,1.88,0,0,1,.46.43c.4.47-.14,1.49.94,1.56a1.21,1.21,0,0,1,.52.34c.2.94.38,1.76,1.67,1.9a2.35,2.35,0,0,1,1.9,1.87h0C40.25,35.74,41.44,36.72,39.3,36.86Z"/><path class="cls-33" d="M33.06,42.62c.13.56.25,1.22.93.42a4.51,4.51,0,0,1,1.47-1.38c-.09.9-.59,1.69-.18,2.72A1.49,1.49,0,0,1,34,46.46H32.58a3.68,3.68,0,0,1-.94-2.4C31.62,43.18,31.66,42.18,33.06,42.62Z"/><path class="cls-15" d="M43.62,43.58a1.28,1.28,0,0,1,1-1.92A2.58,2.58,0,0,1,43.62,43.58Z"/><path class="cls-34" d="M6.64,19.56c1.1.2,1.14.82.67,1.69-1-.27-.47-1.13-.67-1.69Z"/><path class="cls-35" d="M26.29,12.92c.17-2.56,1.72-1.13,2.83-1,1,.77.8,2,1.16,3a116.74,116.74,0,0,1,2.1,15.46c.06,1.2.94,2.35.3,3.63-1.05.85-2.31.34-3.46.48-1,.13-1.24-.73-1.48-1.54a17.84,17.84,0,0,1-.54-4.48c-.16-4-1.19-7.85-1.52-11.81C25.69,15.38,26.16,14.18,26.29,12.92Z"/><path class="cls-36" d="M20.57,35.93c-1.28-.49-2.27-1.17-1.85-2.78L20,33.08c1.57.07,2.69-.37,3-2.18.2-1.22.84-2.35.9-3.63C24.12,22.48,22.71,17.8,23,13c0-.53-.18-1.2.47-1.47.87-.37,1,.56,1.43.94.2.77.39,1.55.59,2.32a4.42,4.42,0,0,1,.65,2.45c0,1.82.32,3.6.48,5.4a35.54,35.54,0,0,1-.63,8.43L25.8,32c-.3.68-.2,1.56-1,2l-.43.41C23.47,35.76,22.3,36.51,20.57,35.93Z"/><path class="cls-37" d="M29.69,14.77c-.73-.83-.45-1.87-.57-2.82.75-1.14-.73-.73-.88-1.3.55-.47,1.51.12,1.94-.67a3.79,3.79,0,0,1,3.07-.52,4.84,4.84,0,0,1,2.21,1.48h0c.24.74.82,1.56-.48,1.92h0c-.21-.13-.47-.1-.67-.19-2.45-1.08-2.44-1.08-3.15,1.52C30.94,15,30.72,15.92,29.69,14.77Z"/><path class="cls-38" d="M35.46,10.94c-.9.2-1.38-.44-1.92-1-.68-1.16-2.05-.27-2.88-1a1.36,1.36,0,0,1,.48-1.92c1.14,1.65,2.91,1.2,4.52,1.36Z"/><path class="cls-27" d="M30.66,9c1.1-.11,2.56-1.29,2.88,1H30.18Z"/><path class="cls-39" d="M25.89,16.68a2.75,2.75,0,0,1-.45-1.89c.29-.62.57-1.25.85-1.87,0,1.26,0,2.51-.05,3.77C26.12,16.91,26,16.91,25.89,16.68Z"/><path class="cls-40" d="M37.38,11.9c-.17-1.38,1.42-1.07,1.69-2.29.43,1.21,0,2.14.63,3.16,1.58-2.92,3-1.71,4.39.09l.48.48c-.4,1.64,0,3.36-.83,5a11.12,11.12,0,0,1-1.5,2.32,4,4,0,0,1-2.64.82c-2,.23-3.15-1.38-2.61-3.69C37.45,15.84,38.3,13.94,37.38,11.9Z"/><path class="cls-41" d="M37.38,11.9c1.32,1.91.76,3.86.22,5.87-.68,2.55.1,3.31,2.62,2.63.71-.19,1.26.87,2,.14.14.1.19.21.15.32s-.1.16-.15.16A3.27,3.27,0,0,0,42,23.76c.56,2.12.89,4.29-1.27,5.88-.47.84-1,.85-1.45,0a8.67,8.67,0,0,0,.9-2.36c.46-1.75-.57-2.64-2.67-2.71-.83,0-.59-.6-.45-1,.37-1,.62-2.13-.28-2.89-1.67-1.4-1.33-2.89-.28-4.29S37.33,13.45,37.38,11.9Z"/><path class="cls-27" d="M42.18,21v-.48c.69-1.81,1.9-3.44,1.55-5.58-.07-.48.54-1.08.84-1.62,0,1.05,1.78,1.54,1,2.82C44.59,17.87,44.2,20,42.18,21Z"/><path class="cls-42" d="M39.3,29.66a1.26,1.26,0,0,0,1.45,0c.54,0,1.1-.05,1.5.44l-.24.33c-1.56.95-3.25,1.27-4.55-.19s-3-3.33-1.94-5.85A23,23,0,0,0,39.3,29.66Z"/><path class="cls-42" d="M39.77,34.93a3.57,3.57,0,0,0-2.3-1.45C36,33.19,36,32.23,35.91,31.22c.77-.51,1.12.23,1.58.56,2.17,1.58,2.69,1.49,4.07-.81a6.76,6.76,0,0,1,.55-.77l.14-.12c1.47,1.82-.28,2.65-1.19,3.67C40.69,34.17,39.77,34,39.77,34.93Z"/><path class="cls-15" d="M39.3,36.86c1.67-.26.24-1.3.48-1.92h1A5.45,5.45,0,0,0,41.13,36c.56.9,1.16,2,0,2.58C39.77,39.19,39.53,37.85,39.3,36.86Z"/><path class="cls-43" d="M42.11,30.2a2.93,2.93,0,0,1-1.84,3.24c-1.37.51-2.39-.39-3.3-1.33a13.12,13.12,0,0,0-1.06-.89.38.38,0,0,0-.33-.18c-.86-.35-.66-1.29-1-1.9h0a30.83,30.83,0,0,1-3.64-15.83c0-.89.3-1.61,1.27-1.73a1.57,1.57,0,0,1,1.72,1.35,6.27,6.27,0,0,1,.15,3.76,50,50,0,0,0,1.47,7.68,18.58,18.58,0,0,0,.39,1.83C37.29,30.33,37.74,30.61,42.11,30.2Z"/><path class="cls-38" d="M34.05,16.69c-.17-.86-.36-1.71-.51-2.57s.17-2.18-1.28-2.12-1.15,1.35-1,2.23a63.55,63.55,0,0,0,2.05,10.56c.44,1.44.86,2.9,1.28,4.35-.71.08-1.77.64-1.42-.88a1.75,1.75,0,0,0-.64-2.09c-.17,2.59.22,3.78,1.52,6.2.6,1.12-1.5,1.42-1.11,2.67.07.23-.21.57-.32.86a.67.67,0,0,1-1,0V35c.05-.58.71-.64.93-1.08A162.87,162.87,0,0,0,30,17.61c-.17-.93-.24-1.89-.35-2.84,1.37.5.86-.59,1-1.15.17-.87-.48-2,.63-2.54,1.29-.6,2.2.21,3,1.17a5.89,5.89,0,0,0,.7.61C34.35,14.06,35.56,15.7,34.05,16.69Z"/><path class="cls-38" d="M35,12.86c.7-.51.41-1.26.48-1.92a1.91,1.91,0,0,1,.87,1.84C36.05,13.92,35.49,13.77,35,12.86Z"/><path class="cls-44" d="M32.54,33.87A1.34,1.34,0,0,1,31.61,35c-4.24,0-4.24,0-5-5.79-.62.51,0,1.47-.71,1.91q0-7.2-.05-14.39h.35a88.13,88.13,0,0,1,1.59,14.59C27.9,34.35,28.36,34.47,32.54,33.87Z"/><path class="cls-15" d="M31.62,35.9h1C32.19,37.48,34,38,34.24,39.42s.18,2.48-1.18,3.2c-2,1.05-.53,2.53-.48,3.84-2.39-2-2.7-6-.64-7.75.91-.77.32-1.39-.42-1.77C30.53,36.43,31.12,36.2,31.62,35.9Z"/><path class="cls-44" d="M20.57,35.93a6.67,6.67,0,0,0,3.79-1.59c-.27,2.5-1.95,2.41-3.77,2C20.58,36.23,20.58,36.08,20.57,35.93Z"/><path class="cls-44" d="M24.79,33.93a4.67,4.67,0,0,1,1-2C25.77,32.77,26.27,33.85,24.79,33.93Z"/><path class="cls-45" d="M23.87,27.27c-.1,2.18.36,4.56-2.16,5.85-.59.31-1.16.57-1.72,0,1.15-.54,2.84-.44,1.94-2.75C21.54,29.32,23.76,28.69,23.87,27.27Z"/><path class="cls-38" d="M34.54,29.14a3.76,3.76,0,0,1,1,1.9C33.39,31.42,35,29.71,34.54,29.14Z"/><path class="cls-46" d="M40,31.5c0,.46-.33.52-.62.5s-.68-.17-.75-.35c-.14-.44.29-.47.59-.51A.67.67,0,0,1,40,31.5Z"/></g></g></svg>