<svg xmlns="http://www.w3.org/2000/svg" viewBox="0 0 56.79 26.1"><defs><style>.cls-1{fill:#dfd1e2;}.cls-2{fill:#9077aa;}.cls-3{fill:#8f72a9;}.cls-4{fill:#e3805d;}.cls-5{fill:#eed0b3;}.cls-6{fill:#9579ad;}.cls-7{fill:#9f86b4;}.cls-8{fill:#a999be;}.cls-9{fill:#db8466;}.cls-10{fill:#a591b9;}.cls-11{fill:#977cae;}.cls-12{fill:#f0dfdd;}.cls-13{fill:#ddcedd;}.cls-14{fill:#a48db4;}.cls-15{fill:#e5d8e6;}.cls-16{fill:#9d7fb0;}.cls-17{fill:#8969a2;}.cls-18{fill:#f7d1d1;}.cls-19{fill:#d6ccd8;}.cls-20{fill:#f2d1c2;}.cls-21{fill:#e47751;}.cls-22{fill:#9d8fba;}.cls-23{fill:#ed9872;}.cls-24{fill:#7074a4;}.cls-25{fill:#9782b2;}.cls-26{fill:#e5d9e9;}.cls-27{fill:#dcd3e6;}.cls-28{fill:#a087b5;}.cls-29{fill:#e0cddb;}.cls-30{fill:#f0eae8;}.cls-31{fill:#e08a6b;}.cls-32{fill:#e87031;}.cls-33{fill:#c8b9d5;}.cls-34{fill:#a28ab9;}.cls-35{fill:#e38257;}.cls-36{fill:#af90b2;}.cls-37{fill:#f4cbb9;}.cls-38{fill:#cba4c9;}.cls-39{fill:#f9f6f7;}.cls-40{fill:#c3b8d8;}.cls-41{fill:#e7947a;}.cls-42{fill:#f7c6b7;}.cls-43{fill:#e0d1e1;}.cls-44{fill:#e0b89f;}.cls-45{fill:#e2794b;}.cls-46{fill:#ecd0d7;}.cls-47{fill:#dc8a6a;}.cls-48{fill:#cad6ec;}.cls-49{fill:#f26d21;}.cls-50{fill:#d07460;}.cls-51{fill:#c3747b;}.cls-52{fill:#e0c3d4;}.cls-53{fill:#f1d4d6;}.cls-54{fill:#d39389;}.cls-55{fill:#e96f41;}.cls-56{fill:#d8a797;}.cls-57{fill:#fdecd9;}.cls-58{fill:#edd5d9;}.cls-59{fill:#d1def1;}</style></defs><title>shoes2</title><g id="Layer_2" data-name="Layer 2"><g id="Layer_1-2" data-name="Layer 1"><path class="cls-1" d="M33.29,7.39c.15-.66.29-1.32.43-2,.3-.54-.18-1.55,1-1.59,1.63,1.19,2.9,2.84,4.73,3.8A1.17,1.17,0,0,1,40,9.2a2.27,2.27,0,0,0-.69,2.72c.24.64.63,1.29.22,2-1.1.87-1.87.16-2.64-.54,1.38,1.19,1.38,1.19,2.62.54a1.38,1.38,0,0,1,1.24-.23,1.78,1.78,0,0,1,1.19,1c.07.35-.28.71,0,1.06.29.15.8.2.84.4.44,2.2,1.91,4.18,1.51,6.57-2.56-.15-4.3-1.71-5.69-3.6a15,15,0,0,0-2.47-2.8,4,4,0,0,1-1.13-2.16C34.27,12,35.06,9.33,33.29,7.39Z"/><path class="cls-2" d="M34.22,15.4c-.18-1.1-.37-2.19-.55-3.29-.5-.76.06-1.7-.4-2.47,0-.75,0-1.5,0-2.25.77-.55,1.26-.59,1.4.57.24,2,.59,4.06.89,6.09-.53.57.38,1.64-.7,2C34.48,16,34.33,15.73,34.22,15.4Z"/><path class="cls-1" d="M33.27,9.64a4.05,4.05,0,0,1,.4,2.47,3.15,3.15,0,0,1-.44,0C33.24,11.27,33.26,10.46,33.27,9.64Z"/><path class="cls-3" d="M4.49,24.06a2.43,2.43,0,0,0-1.92-1c-3.91-4-2.6-8.36-1-12.77C1.92,9.49,2,8.47,3.1,8.38A1.47,1.47,0,0,1,4.68,9.66c-.88,2.45-2.51,4.71-1.83,7.54a10.11,10.11,0,0,0,2.3,4.51,6.16,6.16,0,0,0,2.7,1.44,2.77,2.77,0,0,1,.6.29,2.38,2.38,0,0,1,.71.77c.3,1.61-.73,1-1.5.91l-.85,0L6.35,25C5.51,25.13,5,24.54,4.49,24.06Z"/><path class="cls-4" d="M2.58,6.18,2,5.39c-1-1.17-.81-2.5-.48-3.85v0A3.53,3.53,0,0,1,3.18.1,3.48,3.48,0,0,1,4.09,0c.68.05,1.59,0,1.73.78S5,1.56,4.54,1.91c-1.48,1-.72,1.88.28,2.55A8.89,8.89,0,0,0,9.05,5.79c.31,0,.62.06.93.07.84-.1.73-.85.92-1.38s.49-.94.71-1.43c.25-.76,1-.74,1.56-1L15,1.46a2.35,2.35,0,0,1,1.17-.14c.82.07,2-.41,2.16.83.1,1-1.15.83-1.81,1.17a5.68,5.68,0,0,0-2.93,2.12C14,6.58,15.77,5.79,16,7.18c-.91,1.14-2.33.55-3.42,1-1.72-.09-3.43.27-5.15,0C6.18,7.84,4.75,8,3.64,7.08A1.53,1.53,0,0,1,2.58,6.18Z"/><path class="cls-5" d="M15.84,2.92c.56-.7,1.57-.12,2.2-.77C17.19,1,16,1.77,15,1.46l2.9-.89c1.12.81,3.06.79,2.92,2.88.39.67-.33,1.35-.49,1.11C19.14,2.91,16.93,4.43,15.84,2.92Z"/><path class="cls-6" d="M55.82,11.61a16.41,16.41,0,0,1,1,6,5.58,5.58,0,0,1-2.46,5,2.08,2.08,0,0,1-1.07.75c-.69.05-1.09-.24-1.13-.95a1.79,1.79,0,0,1,.21-.64,10.74,10.74,0,0,0,1.29-9.15,4.16,4.16,0,0,1-.46-.48,3.6,3.6,0,0,1-.41-.89c-.19-.72-.5-1.46.16-2.12a1.66,1.66,0,0,0,1-1,.92.92,0,0,1,.78-.49,1.11,1.11,0,0,1,.43.48C55.49,9.29,55.18,10.54,55.82,11.61Z"/><path class="cls-1" d="M53.33,23.13l1-.47c1,2,.11,2.81-1.86,2.93.69-1-.34-.59-.62-.8-1.64-2.05-3.87-1.45-6-1.33a2.21,2.21,0,0,1-.68,0l-.32-.1a.86.86,0,0,1-.36-.55c-.15-1.41,0-2.58,1.88-2.44,1.18.1,1.45-1.11,2.2-1.51,1.6-.85,3.39-1.77,5,.12.27,1.3-.66,2.17-1.16,3.2h0C52,23.24,52.29,23.54,53.33,23.13Z"/><path class="cls-7" d="M41.43,23.56,39,21.66c-.39-1.12-1.75-1.58-1.94-2.84.79-1.13-1.6-1.69-.51-2.88,2.49,2.33,4.24,5.5,7.65,6.79a1,1,0,0,1,.52.38l-.07.12c0,1.17-.6,1.26-1.5.94Z"/><path class="cls-8" d="M43.18,24.17a1.58,1.58,0,0,0,1.5-1l.51,0a3,3,0,0,0,2.55.74c1.43,0,2.9-.25,4.19.66l1,.25-.5.76C49.18,26.4,46,26.41,43.18,24.17Z"/><path class="cls-9" d="M56.22,1.09c.08.31.17.63.25,1-.41,1.08-.83,2.16-1.24,3.25A3.35,3.35,0,0,1,54,6.54c-.33.22-.67.41-1,.64a3.2,3.2,0,0,1-.8.46A2.29,2.29,0,0,1,51,7.7a1.25,1.25,0,0,1-.55-.33c.23-.55.1-1-.52-1.13.31-1.14,1.54-1,2.22-1.66a6.62,6.62,0,0,0,2.94-3.13C55.38,1.13,55.73.87,56.22,1.09Z"/><path class="cls-10" d="M54.8,7.84c.76.43.25,1.47.93,1.94l.09,1.83A5,5,0,0,1,54.8,7.84Z"/><path class="cls-11" d="M12.62,7.7c1-.91,2.45.12,3.36-.94s2-1.13,3.12-1.47a4.17,4.17,0,0,0,2.28-1.08c1-1.14,1.38-.1,1.73.71,1.27,6.41-1.38,11.56-5.27,16.3-.52.41-.89.21-1.19-.28a1.57,1.57,0,0,1,.18-1.35,7.1,7.1,0,0,0,1.06-2.7,39.43,39.43,0,0,1,1.9-3.79,6.45,6.45,0,0,1,.31-.58,8.14,8.14,0,0,0,.62-1.3c.31-1.05,1-2.32.19-3.17s-1.72.36-2.64.44C16.33,8.67,14.24,9.81,12.62,7.7Z"/><path class="cls-12" d="M23.11,4.92c-.44-.15-.68-1.34-1.17-.64-1.5,2.16-4,1.58-6,2.48-1.31,0-3.22.17-3.61-.9-.45-1.24,1.89-1.29,2.42-2.5.12-.25.69-.3,1.05-.44.69.08,1.47.4,2,.18C19,2.7,19.6,2.44,20,4c.19.69.58-.14.74-.51l2.35,0C23.12,4,23.12,4.43,23.11,4.92Z"/><path class="cls-13" d="M7.77,23.62a5.48,5.48,0,0,1-2.9-1.42c.22-.6.3-1.24.58-1.82s.66-.93,1-.37c1.34,1.92,3.16.9,4.81.89.7,0,1.58-.28,1.85.6.33,1.06-.61,1.28-1.36,1.58.66-.11,1.24-.53,1.94-.43a2.25,2.25,0,0,1,.67.2,1.1,1.1,0,0,1,.59.84c-.43,1.17-1.58,1.61-2.42,2.35-1.28-.2-2.67.5-3.84-.5a2.23,2.23,0,0,1,1.52-.46,8.23,8.23,0,0,1-1.52-1l-.57-.41c.11-.13.18-.34.12-.36C8.05,23.25,7.91,23.44,7.77,23.62Z"/><path class="cls-14" d="M15,23.69l-.49-.54a2.59,2.59,0,0,1,2.31-2.5,1,1,0,0,0,1,.57A4.67,4.67,0,0,1,15,23.69Z"/><path class="cls-15" d="M44.75,23.11c-.18-.12-.35-.25-.52-.38.32-1.67-1.64-2.67-1.38-4.17.31-1.77-.64-2.24-1.94-2.63.28-.35.81-.44.94-.94l-1-1a.46.46,0,0,1,0-.62,1.76,1.76,0,0,1,1.93.43c.28.36.4.85.88,1.07,0-.43-.48-.59-.59-.95.44-1.45,1.94-1.43,2.93-2.13a2,2,0,0,1,1-.08,1.41,1.41,0,0,1,.93.94c.12.31,0,.88.58.8s.55-.67.71-1.08a1.14,1.14,0,0,1,.73-.66,1.76,1.76,0,0,1,1,0,1.06,1.06,0,0,1,.66,1.11c-.08.65-.58,1.08-.91,1.67,1.16,0,1.85-1.92,3.22-.76.13,1,0,2,.16,3,.09.72.31,1.7-.8,2.05-.18.14-.43.46-.54.41-2.18-.84-2.94-.63-4.52,1.37-.44.55-.9.35-1.47.31C45.41,20.83,44.26,21.21,44.75,23.11Z"/><path class="cls-16" d="M34.71,4l1.8.05C38,5.48,40,5.06,41.85,5.36c-.62,2.1,1.46,0,1.54,1,.14.66-.27,1-.76,1.29s-1,.31-1.19.85-.44.94-1.07,1a.67.67,0,0,1-.49-.32c-.12-1.32-1.4-1.31-2.16-1.89A8,8,0,0,1,34.71,4Z"/><path class="cls-17" d="M36.58,15.94c0,1,.84,1.38,1.3,2.06.86,1.28-.44.62-.79.82L34.8,16.36a1.18,1.18,0,0,1,0-.46c.55-.5,0-1.43.75-1.86A3.66,3.66,0,0,0,36.58,15.94Z"/><path class="cls-18" d="M40.91,13.51c0,.17,0,.34,0,.52H39.45a14.1,14.1,0,0,1-.86-2.46c-.18-1.05-.49-2.34,1.29-2.43l.15,0C39.88,10.71,40.71,12.05,40.91,13.51Z"/><path class="cls-19" d="M39.45,14c.14.5.7.91.29,1.51-3.08-1.28-3.08-1.28-3-4.16.57,1.81,1.39,2.58,2.73,2.65Z"/><path class="cls-20" d="M41.85,15c.43.89.41.9-.94.94A.84.84,0,0,1,41.85,15Z"/><path class="cls-21" d="M49.94,6.3c.72,0,.92.34.53,1-1.21,1-2.15.21-3.11-.47a2,2,0,0,1-.67-1.35,1.47,1.47,0,0,1,1-1.51c.88-.85,1.38-2.12,2.7-2.49,1-.27,1.91-1.23,3-.36.11,1.77-1.78,1.9-2.45,3C50.58,4.84,49.62,5.27,49.94,6.3Z"/><path class="cls-22" d="M43.26,6.34c-.7-.1-1.3.82-2,.23-.09-.08.38-.79.58-1.21,1.16,0,2.62.39,2.21-1.74-.08-.39.7-.53,1.16-.65l.48,0,1,.46c-.58.51-1.31.94-1,1.91a1.64,1.64,0,0,1-.23.92,1,1,0,0,1-.56.3C44.3,6.56,43.74,6.72,43.26,6.34Z"/><path class="cls-23" d="M53.35,1.49c-1-1-2,.2-3,0,2.38-1.72,4.25-1.83,5.86-.37l-1.11.53A1.19,1.19,0,0,1,53.35,1.49Z"/><path class="cls-24" d="M45.24,5.49c-.67-1.47-.21-2.16,1.42-2l1,.49c-.2.43-.41.86-.62,1.29C46.53,6,45.91,5.9,45.24,5.49Z"/><path class="cls-25" d="M8.74,24.09l4.08.87c-1.63.9-2.89.52-4.08.58l-1.08-.42C8.19,25,9.29,25.38,8.74,24.09Z"/><path class="cls-26" d="M14,23.14c-1.17-.3-2.22.75-3.42.33.41-1.09,2.56-.54,2.13-1.75s-1.94-.1-2.91-.08c-1.56,0-3,.66-3.72-1.42-.51.61.14,1.92-1.22,2-1.15-1.42-2.5-2.73-2.4-4.77-.2-.9-.67-2,.32-2.56.66-.4,1.33.32,1.91.71,1,.69.91,1.56.26,2.57-.14.15.43.11.13,0-.08,0,0-.08.06-.23.27-.64,1.24-.64,1.08-1.88s1.47-.55,2.18-.92C8,14.83,6.74,15.25,6.74,14c.76-.73,1.74-.51,2.65-.57,1.16-.07,1.91-.54,2-1.77s-.75-1.55-1.61-1.92a1.23,1.23,0,0,1-.79-1c.14-.79.78-.82,1.29-.64,2.55,1,5.24.41,7.84.82.47.07,1.13,0,1.19.55A11.55,11.55,0,0,0,20.24,13l0,0c-1.27,1.47-2.78,2.81-3,4.93-1.69-.32-2.38.36-2.28,2.09A3.84,3.84,0,0,1,14,23.14Z"/><path class="cls-27" d="M6.81,14l3.71,1.44c-1.34.19-2.13.25-2.88.44-.41.1-1.22-.74-1.17.4,0,.2.7.36,1.36.67-1.46.46-2.77.86-2.94,2.88-.83-1.49.22-2.23.16-3.07-.09-1.2-1.64-.69-2-1.72-.9.77-.43,1.63-.61,2.35-1-3,.16-5.42,2-7.69A1,1,0,0,1,5.87,9c.8,1,2.46,1.28,2.56,2.91-.6.54-1.37.41-2.08.53-.28,0-.63-.26-.84,0s.12.41.28.56C6.13,13.4,6.57,13.61,6.81,14Z"/><path class="cls-28" d="M5.81,9.11l-1.36.63A1.53,1.53,0,0,0,3,8.74l1.1-2.22c.68,1.32,2.41.27,3.17,1.4.12.51-.26.71-.57,1A1.15,1.15,0,0,1,5.81,9.11Z"/><path class="cls-26" d="M7.77,23.62c.23-1,.23-1,1.64-.09l-1.24.15A.91.91,0,0,1,7.77,23.62Z"/><path class="cls-29" d="M6.32,8.74l.92-.82,5.38-.22c3.13,1.4,6,.2,8.94-1A6.68,6.68,0,0,1,20.24,13c-1.48,0-1.27-1.31-1.35-2.11-.1-1.15-.32-1.69-1.59-1.33s-2.78-2.24-3.78.4c-.33-.19-.66-.37-1-.57-1.06-.62-2.08-1.4-3.38-.55a10.52,10.52,0,0,1-1.92,1C6.52,9.83,6.39,9.31,6.32,8.74Z"/><path class="cls-30" d="M9.17,6.33C7.28,6.05,5.43,5.81,3.85,4.5c-1.38-1.15-1.4-2,.1-3A2.09,2.09,0,0,1,6.53,2,3.06,3.06,0,0,0,8,3.25C8.78,4.11,10.81,4.51,9.17,6.33Z"/><path class="cls-31" d="M6.39,2.36c-.6-.91-1.55-.78-2.44-.83.3-.54,1-.38,2-.84L2.9.54C6-.94,7.69,1.41,9.68,3c.55,0,1,.39,1.45.52L12,3.32a1.49,1.49,0,0,1-.95,1.16c-.45.55-.29,1.41-.93,1.86h-1c.87-1.65-1-1.88-1.47-2.84C7.35,3,6.59,3,6.39,2.36Z"/><path class="cls-32" d="M10.16,6.34c.2-.67-.4-1.75.93-1.86C11.42,5.42,11.85,6.41,10.16,6.34Z"/><path class="cls-33" d="M11.13,3.5c-.84.83-1.07,0-1.45-.52,0-.32.09-.67.5-.61A1,1,0,0,1,11.13,3.5Z"/><path class="cls-34" d="M53.41,18.84a7.23,7.23,0,0,0,.09-5.39c-.42-.59,0-1,.35-1.34.73.48,1.26.74.85,2-.6,1.9.26,4.06-.77,6.06a4,4,0,0,1-1.51,2C52.16,20.9,53.63,20.12,53.41,18.84Z"/><path class="cls-35" d="M53.85,12.11l-.36,1.34c-.7.6-1.39,1.23-2.13,1.78-.41.3-1,.76-1.45.24s0-1,.4-1.33.75-.78,1.13-1.17.81-1.53,1.89-.9Z"/><path class="cls-36" d="M51,7.33l1.34,0a1.41,1.41,0,0,1,1,1.92c-.91.64-.2,1.31-.05,2-.45.34-.83.14-1.19-.17a6.22,6.22,0,0,1-1-1.31,7.94,7.94,0,0,1-.43-1.87A.59.59,0,0,1,51,7.33Z"/><path class="cls-37" d="M52.36,10.6l1,.6v.87c-.81-.07-1.2.73-1.9.9a.91.91,0,0,0-.5-.92C50.88,11.05,51.37,10.58,52.36,10.6Z"/><path class="cls-38" d="M53.38,9.23l-1-1.92.57-.5c1.07-.08,1,.9,1.37,1.48C54.19,8.79,54.38,9.61,53.38,9.23Z"/><path class="cls-10" d="M54.31,8.29,52.94,6.81a.77.77,0,0,1,.83-.45c.34.48.67,1,1,1.45Z"/><path class="cls-34" d="M53.33,23.13c-.3.48-.72.64-1.13.23s-.19-.84.22-1.16A.84.84,0,0,0,53.33,23.13Z"/><path class="cls-39" d="M51.93,24.58H47.15c-.58-.38-1.2-.73-1.42-1.46C49.1,22,50.73,22.43,51.93,24.58Z"/><path class="cls-40" d="M45.73,23.11c.91.06,1,.9,1.42,1.46-1,.08-1.82-.2-2-1.39Z"/><path class="cls-41" d="M51,7.33a1.7,1.7,0,0,0,0,.39c-1.78,1-2.31,3.19-4,4.33l-.85.12c-.44-.59.28-1.35-.3-1.91-.73-.8-1.94-.21-2.67-1,.14-1.61,2.09-.81,2.59-1.95a3.78,3.78,0,0,1,1.66-.92c1,.43,1.81,1.19,3,.86Z"/><path class="cls-42" d="M50.47,3.92c.19,1.23,1.52.32,2,1L49.94,6.3C48.3,5.11,50.38,4.73,50.47,3.92Z"/><path class="cls-43" d="M14,23.14c.16-1.23.38-2.46.47-3.7.21-3,.2-3,2.87-1.6l.24.26c-.05.56.28,1.2-.34,1.64l-.43.91-2.31,2.5Z"/><path class="cls-43" d="M17.35,17.84c-1.25-2.92,1.34-3.53,2.87-4.78a15.25,15.25,0,0,1-1.89,3.84c-.42.23,0,1.21-.92,1Z"/><path class="cls-14" d="M17.41,17.89l.92-1a3.44,3.44,0,0,1-1.08,2.84C17.3,19.13,17.35,18.51,17.41,17.89Z"/><path class="cls-44" d="M18.67,5.35c-.33,0-.66,0-.66-.48a.58.58,0,0,1,.55-.64c.17,0,.41.24.5.43C19.23,5,19.06,5.26,18.67,5.35Z"/><path class="cls-45" d="M46.16,10.18c2,.62-.16,1.33.05,2-.67,1.17-2.26.8-3,1.81-.1.2-.22.22-.37.06l-1.91-.53C39.78,12.24,38.7,11,40,9.17c.6,0,.78-.4.88-.89a1.49,1.49,0,0,1,1.16-.49c.82.1,1.17-.9,2-.87.64,0,1.26.13,1.9.19l.28.16c-.09,2-2.1,1.05-3,1.88-.17.47-.66.66-.91,1a.54.54,0,0,0,.21.69C43.91,11.38,44.89,10,46.16,10.18Z"/><path class="cls-46" d="M47.06,12.05c1.14-1.61,1.19-4.21,4-4.33.58.54.48,1.23.45,1.91-.34,1.25-1.81,1.41-2.36,2.44-.13.51.22.51.56.52.69,1.59-1.2,1.31-1.4,2.28C47.07,14.11,48.14,12.66,47.06,12.05Z"/><path class="cls-47" d="M48.58,12.11c.42-1.45,1.83-1.76,2.89-2.48.29.33.59.65.89,1l-1.43,1.45-1,0C49.49,11.74,49,12.53,48.58,12.11Z"/><path class="cls-48" d="M42.82,14a.6.6,0,0,1,.37-.06c.68.1,1.53,0,1.5,1.07a.77.77,0,0,1-.92.85C42.64,15.74,43.1,14.68,42.82,14Z"/><path class="cls-49" d="M48.58,12.11c.45-.08.91-.79,1.37,0l-.28.49c-.29.5-.72.89-1.26.51C48.06,12.86,48.45,12.44,48.58,12.11Z"/><path class="cls-50" d="M44.25,7.29c-.83-.06-1.07,1.08-1.94.94a.58.58,0,0,1,0-.89,1.59,1.59,0,0,0,.91-1c.49-.1,1-.74,1.48,0C45,6.88,44.62,7.08,44.25,7.29Z"/><path class="cls-51" d="M42.35,7.34c0,.3,0,.6,0,.89l-1.4,0C40.94,7.28,41.64,7.3,42.35,7.34Z"/><path class="cls-52" d="M47.49,6.42c-.16.68-.7.8-1.28.85h0c-.4-.28-.92-.43-1.06-1l.09-.79L47,5.24Z"/><path class="cls-41" d="M45.15,6.28c.55.11,1,.3,1.06,1a1.53,1.53,0,0,1-2,0l.49-1Z"/><path class="cls-53" d="M6.32,8.74l.82,1A3,3,0,0,1,8.8,9.9c1,.7,2.26.85,3.22,1.6-.39,3.61-3.19,2.26-5.21,2.54a1.83,1.83,0,0,1-1.5-.55c-.47-.55-1.25-1.1-.74-1.81.69-.95,1.13.36,1.75.43a2.74,2.74,0,0,0,1.8.52c1.24.1-.23-.5.14-.67-.54-1.19-2.35-1.28-2.45-2.85Z"/><path class="cls-54" d="M12,11.5a3.78,3.78,0,0,1-3.35-1.23c.26-.68,1.08-.49,1.49-.93C11.16,9.73,12.29,10,12,11.5Z"/><path class="cls-55" d="M10.16,9.34c0,1.1-.89.79-1.49.93L7.14,9.71c.35-1.06,1.16-1,2-.84Z"/><path class="cls-56" d="M8.26,12c.65.28,2,.14,1.62,1.19s-1.35.17-2.06,0a1.93,1.93,0,0,1-1.5-1Z"/><path class="cls-57" d="M6.39,2.36A1.55,1.55,0,0,1,7.7,3.49C6.94,3.48,6.29,3.36,6.39,2.36Z"/><path class="cls-58" d="M46.16,10.18c-1.26,1.21-2.63,1.91-4.37,1,.36-.32.42-.64,0-1,.12-.87.78-1,1.46-1,.84,0,1.69,0,2.53.06S46.31,9.75,46.16,10.18Z"/><path class="cls-59" d="M41.8,10.19c.57.09,1.6-.24,1.61.36,0,1-1.06.38-1.62.6C41.28,10.82,41.41,10.5,41.8,10.19Z"/></g></g></svg>