<svg xmlns="http://www.w3.org/2000/svg" viewBox="0 0 52.39 24.11"><defs><style>.cls-1{fill:#8a8482;}.cls-2{fill:#5a5957;}.cls-3{fill:#1e1d1c;}.cls-4{fill:#2f2b2a;}.cls-5{fill:#726f6f;}.cls-6{fill:#201f1e;}.cls-7{fill:#333130;}.cls-8{fill:#736f6e;}.cls-9{fill:#403e3d;}.cls-10{fill:#373736;}.cls-11{fill:#2b2a28;}.cls-12{fill:#787474;}.cls-13{fill:#4c4947;}.cls-14{fill:#363635;}.cls-15{fill:#181b1a;}.cls-16{fill:#4a4948;}.cls-17{fill:#161514;}.cls-18{fill:#77706d;}.cls-19{fill:#4f4c49;}.cls-20{fill:#242120;}.cls-21{fill:#322f2e;}.cls-22{fill:#32302f;}.cls-23{fill:#444141;}.cls-24{fill:#5f5957;}.cls-25{fill:#242323;}.cls-26{fill:#7f7977;}.cls-27{fill:#3f3d3d;}.cls-28{fill:#484442;}.cls-29{fill:#4d4a49;}.cls-30{fill:#736c6b;}.cls-31{fill:#323231;}.cls-32{fill:#666462;}.cls-33{fill:#171615;}.cls-34{fill:#969392;}.cls-35{fill:#8a8886;}.cls-36{fill:#646160;}.cls-37{fill:#4a4949;}.cls-38{fill:#848081;}.cls-39{fill:#bcbabb;}.cls-40{fill:#767474;}.cls-41{fill:#4f4f4f;}.cls-42{fill:#c3c0c1;}.cls-43{fill:#504c4c;}.cls-44{fill:#b1b0b0;}.cls-45{fill:#e5e7e9;}.cls-46{fill:#969493;}.cls-47{fill:#393736;}.cls-48{fill:#787674;}.cls-49{fill:#a8a7a6;}.cls-50{fill:#686565;}.cls-51{fill:#151413;}.cls-52{fill:#7d7a7a;}.cls-53{fill:#484848;}.cls-54{fill:#868383;}.cls-55{fill:#939290;}.cls-56{fill:#908a89;}.cls-57{fill:#6b6665;}.cls-58{fill:#767372;}.cls-59{fill:#797676;}.cls-60{fill:#adabaa;}.cls-61{fill:#aba7a7;}.cls-62{fill:#9a9696;}.cls-63{fill:#8d8988;}.cls-64{fill:#716e6d;}.cls-65{fill:#a09e9f;}.cls-66{fill:#7e7c7d;}.cls-67{fill:#3e3c3b;}.cls-68{fill:#2d2d2c;}.cls-69{fill:#a9a8a7;}.cls-70{fill:#bab8b8;}.cls-71{fill:#464140;}.cls-72{fill:#cac9ca;}.cls-73{fill:#eaeff1;}.cls-74{fill:#d5d6d8;}</style></defs><title>shoes1</title><g id="Layer_2" data-name="Layer 2"><g id="Layer_1-2" data-name="Layer 1"><path class="cls-1" d="M22.62,13.93l-.46.18-.09-.17.1-.15c-.83-.38-1.35-.9-.88-1.88a1.15,1.15,0,0,1,.51-.44,1,1,0,0,0,.39-.05l.48.14.85.61C24.33,13.32,23.08,13.43,22.62,13.93Z"/><path class="cls-2" d="M46.18,3.87c.06.32.11.64.17,1a1.3,1.3,0,0,1-.63.43c-1.33.18-2.41,0-2.33-1.7a1.15,1.15,0,0,1,.4-.64l1.4.57C45.41,3.91,45.81,3.85,46.18,3.87Z"/><path class="cls-3" d="M30.67,13.55l-.33-.07c-.44-.4,0-1.07-.47-1.46l-.13-.95.16-.49c.18-.25.27-.59.65-.65a.8.8,0,0,1,.55.32,5.67,5.67,0,0,1,.65,1.92,2.41,2.41,0,0,1-.05.71C31.51,13.33,31.33,13.82,30.67,13.55Z"/><path class="cls-4" d="M9.08,2.84c.17-.37.38-.79.83-.7.17,0,.25.51.37.78,0,.1-.08.2-.1.3s0,.11,0,.17c0,.64,0,1.28,0,1.92C8.69,5,9.25,3.75,9.08,2.84Z"/><path class="cls-5" d="M40.43,21.12a1.22,1.22,0,0,1-2-.36c-.14-1-.91-1.39-1.61-1.89s-1.59-.82-1.38-1.93c.62-.72-.15-.85-.49-1.17-.54-.52-1.35-.94-.76-1.92a3.7,3.7,0,0,1,2.61.57c1.61,1.81,3.37,3.35,6.07,2.84a2.59,2.59,0,0,1,1,.18.87.87,0,0,1,.55.75c-.22,1.66,1.34.78,1.91,1.32s2.08.1,1,1.53a9.32,9.32,0,0,1-4.33.12c-.73,0-1.23-1.18-2.12-.43A2,2,0,0,1,40.43,21.12Z"/><path class="cls-6" d="M50.94,9.15c.37.54,0,1.33.59,1.79.08,1.57.68,3.14.14,4.73A.77.77,0,0,1,51,16c-1-.9-.35-2.23-.88-3.24-.52-.73-.92-.22-1.34.13a3,3,0,0,1-1.67,1c-1.35-.13-1.06-.8-.51-1.55.32-.42.7-.78,1-1.18a1.23,1.23,0,0,0-.08-1.63c-.88-1.17-1.71-.94-2.52.07a20.85,20.85,0,0,1-1.45,1.91,1.11,1.11,0,0,1-1,.3c-1.2-.9-.44-1.8,0-2.67a6,6,0,0,1,1.71-2.25,3.66,3.66,0,0,1,2.69-1,2.08,2.08,0,0,1,1.2.66c.84.46.51,1.95,1.79,2C50.53,8.46,50.73,8.81,50.94,9.15Z"/><path class="cls-7" d="M35.62,16.83c.24,1.21,1.37,1.4,2.19,2s1.62.95.6,2l-3.2-2a2.7,2.7,0,0,0-1.51-1.25c-1-.18-1.41-.95-2-1.6l-1-2.32a1.17,1.17,0,0,0,.67-1.08C33.49,13.21,33.83,15.73,35.62,16.83Z"/><path class="cls-8" d="M51.89,17.75c.39,2.91-1.72,3.36-3.79,3.86-.28-.56.36-1,.24-1.48-.34-.78-1.73-.18-1.78-1.34a11.65,11.65,0,0,1,2.5-1.85,7.82,7.82,0,0,0,1.38-1.19.44.44,0,0,1,.54.12h0C51.75,16.28,51.57,17.14,51.89,17.75Z"/><path class="cls-9" d="M49,20.24c.17.76-.73.83-.9,1.37-2.64,1.28-5.17.61-7.67-.49,0-.14,0-.28,0-.42.63-1,.74-1,2-.09h5.1C48,20.25,48.39,19.89,49,20.24Z"/><path class="cls-10" d="M51.89,17.75A2.61,2.61,0,0,1,51,15.88c1-1.56.22-3.31.55-4.94A9.12,9.12,0,0,1,51.89,17.75Z"/><path class="cls-11" d="M50,8.65c-.14.42-.28.84-.51,1.51L48.11,6.75c0-.5.09-.81.68-.58L50,7.3A1,1,0,0,1,50,8.65Z"/><path class="cls-10" d="M48.79,6.17l-.68.58-.87-.45c-.37-.27-.85-.47-.58-1.09.86-.5,1.22.57,1.91.62A4,4,0,0,0,48.79,6.17Z"/><path class="cls-10" d="M50,8.65c0-.45,0-.9,0-1.35a2.35,2.35,0,0,1,.92,1.85Z"/><path class="cls-12" d="M31.35,12c-.17-.63-.35-1.26-.52-1.89-.67-.63-.44-1.44-.46-2.2-.13.77.22,1.66-.56,2.26-1.06-1.91-.57-3.85-.08-5.78.13-.51.28-.47,2.48.49,0,.63-.32,1.22-.3,1.86a17.48,17.48,0,0,0,.09,2C32,9.9,33.11,11.23,31.35,12Z"/><path class="cls-13" d="M37.54,6.69a4.33,4.33,0,0,0,3.29-.53,1,1,0,0,1,.74.74,1.75,1.75,0,0,1-1.23,1.72,6.68,6.68,0,0,1-1.89.19,2.92,2.92,0,0,1-1.84-.48.6.6,0,0,1,0-.71,5.16,5.16,0,0,1,2.83.06c-1.14-.59-2.41.26-3.35-.61l.09-.36Z"/><path class="cls-14" d="M31.35,6.26c-.14-.73.27-1.12.86-1.39l2.45,1.4c.18.64-.31.75-.72.92a4,4,0,0,1-.68.09A3.16,3.16,0,0,1,31.94,7C31.63,6.86,31.53,6.53,31.35,6.26Z"/><path class="cls-15" d="M29.81,10.16c.49-1.25-.64-2.73.54-3.89a6.75,6.75,0,0,1,0,3.83l-.45.48A.62.62,0,0,1,29.81,10.16Z"/><path class="cls-16" d="M33.65,6.83a1.18,1.18,0,0,0,1-.56,1.19,1.19,0,0,1,1.48.44L36,6.89a1.87,1.87,0,0,1-.73.58,2.25,2.25,0,0,1-.62.15,1.52,1.52,0,0,1-.9-.23A.45.45,0,0,1,33.59,7C33.6,6.89,33.62,6.83,33.65,6.83Z"/><path class="cls-17" d="M41.41,6.77l-.58-.61a2.39,2.39,0,0,0,.48-2.65c-.28-.55-1-.75-1.1-1.45.5-.42-1.44-2,.75-1.61l.9,1c.37.71,1.14,1.14,1.38,1.94a9.2,9.2,0,0,1,0,1.74,2.45,2.45,0,0,1-1.2,1.68A.76.76,0,0,1,41.41,6.77Z"/><path class="cls-18" d="M41,.45c-1.07.09.1,1.21-.67,1.44-.06.26-.16.29-.32.07L39,.91C39.58.34,40-.55,41,.45Z"/><path class="cls-19" d="M42.81,3.37c-.3-.63-1.06-1-1-1.89l1.93,1.43v.48A.66.66,0,0,1,42.81,3.37Z"/><path class="cls-20" d="M9.08,2.84c1.08.5.17,1.9,1.1,2.47.38,1.74,2.18,1.5,3.23,2.31.85-.23.82.33.8.89a1.25,1.25,0,0,1-1.34.54A8.27,8.27,0,0,1,10,7.58c-1.88-2.21-1.88-2.2-3.92,0A13.14,13.14,0,0,0,4.65,9.39c-1.47,1.5-1.84,3.65-3.06,5.3-1.07.57-1.39.23-1.07-.88,0-2.09,1.67-3.42,2.43-5.16l.47-.56A4.16,4.16,0,0,1,5.81,5.28l1-.94Z"/><path class="cls-21" d="M2.46,22.13a.92.92,0,0,1-.9-.51C.77,19.78-.38,18,.12,15.86c.56-.82,1-.62,1.34.17s.1,1.61.59,2.29a9.44,9.44,0,0,1,1.3,3C3.25,21.76,3.21,22.31,2.46,22.13Z"/><path class="cls-22" d="M1.59,18.74c-.82-.57-.5-1.43-.5-2.17s-.24-1-1-.71a2.7,2.7,0,0,1,.4-2c0,.64.25,1,1,.61.94.92.67,2.08.65,3.2A1.91,1.91,0,0,1,1.59,18.74Z"/><path class="cls-23" d="M21.28,14.61a9.72,9.72,0,0,1-2.81,2.76,4.36,4.36,0,0,0-1.67,1.21c-.49.45-1.09.77-1.63.26s0-1.1.3-1.6A23.51,23.51,0,0,1,17.94,15a10.91,10.91,0,0,0,1.45-1.17c.45-.4.64-1.28,1.53-.84A1.39,1.39,0,0,1,21.28,14.61Z"/><path class="cls-24" d="M16,17.33l-.75,1.23c1.52.52,1.91-1.58,3.26-1.19a12,12,0,0,1-3,2.83c-.26.27-.58.21-.9.19a3.2,3.2,0,0,1-1.18-1.1,1.45,1.45,0,0,1-.09-.65,2.6,2.6,0,0,1,1.17-2A1.34,1.34,0,0,1,16,17.33Z"/><path class="cls-25" d="M21.28,14.61,20.72,13a1.51,1.51,0,0,1-.4-.6,8.2,8.2,0,0,1-.19-2.15A15.47,15.47,0,0,0,20,7.76a1.27,1.27,0,0,1,.25-.65.8.8,0,0,1,1,.11l.05.76c.41,1.32-.06,2.71.3,4-.39.78.42,1.17.58,1.78Z"/><path class="cls-26" d="M14.42,20.18l1.07,0a2.57,2.57,0,0,1-.06.4l-1.35.63a.85.85,0,0,1-.67-.69C13.6,20,13.91,19.82,14.42,20.18Z"/><path class="cls-27" d="M14,8.61a1.14,1.14,0,0,0-.59-1l1.12-.8a8.58,8.58,0,0,0,3.24-2.52c.74-.22.78.31.86.81a2.45,2.45,0,0,1-.56,1.31A6,6,0,0,1,14,8.61Z"/><path class="cls-19" d="M40,2a1.65,1.65,0,0,0,.32-.07l1,1.62C40.6,3.22,40,2.87,40,2Z"/><path class="cls-28" d="M2.46,22.13a1,1,0,0,0,.54-1c.46-.23.84,0,1.23.2a5.63,5.63,0,0,0,3.84,1,2.72,2.72,0,0,1,.64-.05,1.78,1.78,0,0,1,.6.16c.43.29,1,.35,1.39.68l-.5,1L7.3,24C5.71,23.36,3.78,23.53,2.46,22.13Z"/><path class="cls-29" d="M18.34,5.28a1,1,0,0,0-.57-1c.21-.29.43-.57.65-.86A4.37,4.37,0,0,1,20.8,4.82a3.47,3.47,0,0,1,.44,2.4h-.95c-.38.55-.64,1.78-1.42.31A4.81,4.81,0,0,1,18.34,5.28Z"/><path class="cls-30" d="M20.8,4.82c-.92-.26-2.08-.09-2.38-1.39.61-1.81,1.22-.54,1.83,0C20.4,3.91,20.93,4.23,20.8,4.82Z"/><path class="cls-31" d="M21.59,12c-.68-1.3-.3-2.68-.3-4,.6,1.1.33,2.33.51,3.49Z"/><path class="cls-32" d="M13.51,20.59l.57.64c-.49,1.05-1.65,1.19-2.44,1.84L11.11,23a.8.8,0,0,1-.14-.87,3.85,3.85,0,0,1,.92-.83C12.38,21,12.78,20.4,13.51,20.59Z"/><path class="cls-33" d="M11.23,22.09l-.12.9a3,3,0,0,0-.41.09c-.54.07-1.33.93-1.43-.44a2.07,2.07,0,0,1,1.07-1.51A1,1,0,0,1,11,21,.69.69,0,0,1,11.23,22.09Z"/><path class="cls-34" d="M41.73,6.66l1.2-1.34c1-.86,2.27.34,3.24-.51h.18c.24,0,.38.13.31.39.19.37.39.73.58,1.09a4,4,0,0,0-2.51.85C43.83,6.34,42.57,7.79,41.73,6.66Z"/><path class="cls-35" d="M46.17,4.81c-.87,1.46-2.21,0-3.24.51l-.12-1.95,1,0C43.71,5.32,45.14,4.74,46.17,4.81Z"/><path class="cls-36" d="M33.65,6.83a1.93,1.93,0,0,1,.06.36c.17.17.36.43.27.61-1.07,2.09-.18,4.11.2,6.15.1,1.13,1.29,1.28,1.83,2,.42.59.27.8-.39.85-2.39-.51-2.77-3-4.28-4.36a2.57,2.57,0,0,1,0-.48c1.09-1.12,0-2.23,0-3.35a1.87,1.87,0,0,0,.84-.83,2.19,2.19,0,0,1,1.06-1A1.72,1.72,0,0,1,33.65,6.83Z"/><path class="cls-37" d="M30.35,10.1V6.27c1.08,1.16.13,2.58.48,3.83Z"/><path class="cls-38" d="M42.85,17.77c-2.84.7-4.69-.78-6.24-2.88a3.69,3.69,0,0,1-.43-3.42,1.05,1.05,0,0,1,.5-.54c1.1.17,1.63,1.32,2.67,1.6C40.93,14,43.12,15.06,42.85,17.77Z"/><path class="cls-39" d="M42.85,17.77A10.23,10.23,0,0,0,39,13c-.16-.43.1-.62.42-.78,1.58-.17,3.23-.62,4.2,1.3.34.68,1,.06,1.48.1a2,2,0,0,1,.64.14c.9.53,2.24.31,2.71,1.59.43,2-1,1.15-1.81,1.2-1.12.09-2.48-.36-2.88,1.31Z"/><path class="cls-40" d="M36.59,11.07c0,1.28,0,2.55,0,3.82L34.18,14c-2.08-2.12-1.41-4.43-.47-6.76l.94.07A1.4,1.4,0,0,1,34.92,9C34.05,10.87,35,11.22,36.59,11.07Z"/><path class="cls-41" d="M49,20.24l-1.48.36a8.71,8.71,0,0,0-3.6-1c-.49-.08-1-.37-.85-.93s.8-.35,1.23-.46c.66-.53,1.27-.15,1.89.1a1,1,0,0,1,.43.5,1.55,1.55,0,0,0,1.55.3C49.37,18.84,49,19.67,49,20.24Z"/><path class="cls-42" d="M46.18,18.69c-.71.21-1.23-.38-1.88-.45l-.51-.42c-.2-.6-1.44-1.41.42-1.57a12.71,12.71,0,0,1,2.47-.38.48.48,0,0,1,.15.49c-.1.08-.27.26-.24.29s.29,0,.45,0C48.69,18.18,46.8,18.16,46.18,18.69Z"/><path class="cls-43" d="M42.42,20.61c-.69-.12-1.4-.84-2,.09-.33-.36-.42-.78.12-.9C41.28,19.63,42.14,19.51,42.42,20.61Z"/><path class="cls-44" d="M45.34,13.88c-.9.77-1.72,1.15-2.37-.29-.75-1.63-2.31-.82-3.51-1.09-.3-.66-.91-1.19-.81-2A4,4,0,0,1,40.4,8.17c.34-.47.68-.93,1-1.4a.76.76,0,0,1,.32-.11,20.36,20.36,0,0,0,2.48-.41c1.54-.43.15.72.52.9C44,8.56,42,9.44,42.82,11.55,43.89,12.08,45,12.6,45.34,13.88Z"/><path class="cls-45" d="M43.4,10.9c.53-.68,1.09-1.33,1.59-2,1.21-1.71,2.18-1.4,3,.31a1.86,1.86,0,0,1,0,2.31l-.88.91C45.26,13.39,44.06,12.83,43.4,10.9Z"/><path class="cls-46" d="M48.09,15.41c-.18-1.48-2.27.12-2.38-1.47.43-.47,1.08-.07,1.55-.4l1.34-1c.78.29,1.7.35,2.13,1.24a5.29,5.29,0,0,1-.15,2,1.65,1.65,0,0,1-1,1.51.94.94,0,0,1-.23-.83c0-.16.6-.41,0-.51A4.08,4.08,0,0,1,48.09,15.41Z"/><path class="cls-47" d="M47.26,13.54c-.42.52-1,.35-1.55.4l-.18-.07h-.19c-.93-.68-2.08-1.12-2.52-2.33l.58-.65c1.14.73,2,2.17,3.7,1.5C47.3,12.76,45.73,13.36,47.26,13.54Z"/><path class="cls-48" d="M50.5,13.47c-1,.57-1.46-.19-1.9-.9.47-.64.8-1.81,1.81-.5C50.92,12.5,50.79,13,50.5,13.47Z"/><path class="cls-10" d="M50.5,13.47l-.09-1.4c1.17,1.12.37,2.54.57,3.8a1.35,1.35,0,0,1-.4-.08C50.56,15,50.53,14.24,50.5,13.47Z"/><path class="cls-47" d="M48,11.49c0-.77,0-1.54,0-2.31A1.36,1.36,0,0,1,48,11.49Z"/><path class="cls-49" d="M48.09,15.41c1.64-.25,2.19.33,1.45,1.89-1.06.35-1.64,1.61-2.92,1.54a1.76,1.76,0,0,1-.44-.15c-.22-.72,2.29-.73.49-1.86-.15-.11-.2-.21-.16-.32s.1-.16.15-.16c0-.16,0-.32,0-.48C47,15.3,48.19,17.3,48.09,15.41Z"/><path class="cls-37" d="M32.75,8.19c-.28.73-.73.92-1.39.45,0-.8,0-1.59,0-2.38l.44.48C32.28,7.11,32.25,7.82,32.75,8.19Z"/><path class="cls-50" d="M40.4,8.17c-.48.8-.95,1.6-1.43,2.39s-1,1.12-1.88.53l-.5,0c-.58.43-1,1.39-2,.64a1.71,1.71,0,0,1-.48-2.46,3.23,3.23,0,0,0,.49-2l.47,0c.66-.31,1,.17,1.43.54,0,.12.06.24.08.36.12.56,1,.45,1,1.12a1.21,1.21,0,0,0-.13.13s0,0,.19,0a4.29,4.29,0,0,0,.8-1.13Z"/><path class="cls-51" d="M36.55,7.78l-1.43-.54c.17-.43.5-.43.87-.35,1.06.75,2.35.08,4,.7Z"/><path class="cls-52" d="M37.55,9.63c-.22-.55-.73-.71-1.19-1-.76-.47.11-.35.27-.49l1.86.08c.63,1.11-.49,1-1,1.4Z"/><path class="cls-53" d="M32.75,8.19c-1,0-1-.75-1-1.45l1.47,0Z"/><path class="cls-54" d="M14,8.61l3.85-2.43c.47.41.33,1,.53,1.53.3.76,0,1.73,1.4,2,1,.21.21,1.91.86,2.76a.82.82,0,0,1,.08.46l-1,1.44a14.34,14.34,0,0,0-3.46-.25.83.83,0,0,1-.57-.29c-.74-1.34-.05-2.53.49-3.8-1.5,0-2.95.68-4.21-.42a.9.9,0,0,1,.64-1.09A1.67,1.67,0,0,0,14,8.61Z"/><path class="cls-34" d="M4.41,9.1C5.24,7.15,7.1,6.15,8.48,4.49L10.16,7.3c.42.88,1.65,1.17,1.7,2.33a.75.75,0,0,1-.24.58c-1,.23-1.8-.46-2.68-.74A3.16,3.16,0,0,0,6,9.91a2.42,2.42,0,0,1-1.34.34C4.16,10,4,9.59,4.41,9.1Z"/><path class="cls-55" d="M4.41,9.1a1.12,1.12,0,0,0,.45,1,7.41,7.41,0,0,1,0,3.91c-1.52,1.08-1.38,2.71-1.44,4.28a1.42,1.42,0,0,1-.36.54c-.86.19-1-.63-1.52-1,0-1.13,0-2.26,0-3.39C2.35,12.58,2.73,10.48,4.41,9.1Z"/><path class="cls-56" d="M11.63,9.63c-.32-.88-1.74-1.08-1.47-2.33l2.49,1.25-.54,1.06A.29.29,0,0,1,11.63,9.63Z"/><path class="cls-57" d="M1.51,17.81l1.46,1a1.92,1.92,0,0,1,.91,2.9L3,21.13,1.59,18.74C1.56,18.43,1.53,18.12,1.51,17.81Z"/><path class="cls-58" d="M16,14h.47c1,0,1.46.65,1.85,1.42l-2.31,2-1.39-.47C13.8,15.3,14.68,14.53,16,14Z"/><path class="cls-59" d="M18.27,15.36l-1.85-1.42c1.22-.59,2.4-1,3.34.46Z"/><path class="cls-60" d="M16,14c-.57.91-1.41,1.7-1.38,2.91l-1,1.88a.42.42,0,0,1-.58,0,.83.83,0,0,1-.15-.45c.24-2.78,0-3-2.69-2.82-.6-1.22.5-1.81,1-2.62.68-.79.16-1.8.49-2.66l.05-.55.48,0c1.56.59,3.59-1,4.56.19C17.33,10.59,15.47,12.36,16,14Z"/><path class="cls-61" d="M13,18.71l.49,0,0,.55c.17.42-.11.61-.4.8a11.76,11.76,0,0,1-2.51.84c-1-1-2.16.32-3.22-.12a.77.77,0,0,1-.22-.63c.8-1.26,2.14-1.79,3.37-2.47C11.7,17.21,12.65,17.26,13,18.71Z"/><path class="cls-62" d="M13.15,19.68l.35-.39c.65-.06,1,.17.92.89l-.91.41-1.39,1C11.18,20.26,12.42,20.11,13.15,19.68Z"/><path class="cls-59" d="M20.64,12.5c-.27-.38-1.38-.19-.73-1.25a1.07,1.07,0,0,0-.53-1.38c-.71-.23-.37,1-1.28,1,.43-1.6-.8-3-.25-4.69l.49-.9a3.49,3.49,0,0,1,1,2c.31,1.21.63-.2,1,0,0,.16,0,.32,0,.48.49.76,0,1.68.37,2.45C20.65,10.94,20.65,11.72,20.64,12.5Z"/><path class="cls-29" d="M20.65,10.15a3.33,3.33,0,0,1-.37-2.45C21,8.43,20.68,9.31,20.65,10.15Z"/><path class="cls-63" d="M3.88,21.68A8,8,0,0,0,3,18.78l0-.1A1.18,1.18,0,0,1,4,18.47c1.17.35,1.84,1.44,2.87,2,.37.81,2.48.43,1.48,2.17C6.59,23.45,5.26,22.43,3.88,21.68Z"/><path class="cls-46" d="M8.31,22.62c.25-1.22-1.24-1.1-1.49-1.93a.29.29,0,0,1,.48,0c1.12-.28,2.25-1,3.37,0,.14.11.19.22.15.35s-.07.18-.12.18h0a15.15,15.15,0,0,0-2,1.4A1.63,1.63,0,0,1,8.31,22.62Z"/><path class="cls-64" d="M8.75,22.59c.47-.72.89-1.51,2-1.4L9.27,22.64Z"/><path class="cls-64" d="M10.7,21.2l0-.53c.75-.52,1.44-1.19,2.48-1-.52.54-1.27,1-1,1.91a.9.9,0,0,1-.89.5Z"/><path class="cls-65" d="M37.09,11.09A2.8,2.8,0,0,0,39,10.56c-.16.73,1.15,1.09.49,1.94-.15.15-.29.3-.43.46C38.2,12.52,37.08,12.4,37.09,11.09Z"/><path class="cls-38" d="M35,12.54c.58.23.87.4.78.75,0,.16-.3.27-.46.4a2.56,2.56,0,0,1-.48-.68C34.8,12.85,35,12.62,35,12.54Z"/><path class="cls-39" d="M46.66,16.35v.48c-.16.34-.33.69-.77.68-.11,0-.33-.16-.33-.24C45.57,16.56,46.29,16.65,46.66,16.35Z"/><path class="cls-66" d="M37.54,9.62c0,.49-.13,1-.78.89-.11,0-.3-.18-.29-.25.12-.59.63-.56,1.08-.63Z"/><path class="cls-67" d="M11.58,10.18c.3.93,1.08,1.85,0,2.79-.49.22-.81-.05-1.12-.37-.45-.91-.88-1.84-2-2.15-.71-.27-1.48-.2-2.2-.44a1.13,1.13,0,0,1-.49-.43C7.93,7.76,9.73,9.19,11.58,10.18Z"/><path class="cls-68" d="M5.79,9.58l.63.07c.4,1.73-.59,3.28-.67,4.95a1.05,1.05,0,0,1-.5.52,1.18,1.18,0,0,1-.72,0,.48.48,0,0,1-.15-.64,10.42,10.42,0,0,1,.48-4.33Z"/><path class="cls-69" d="M4.38,14.43a.59.59,0,0,1,.08.39C4,16.1,5,17.58,3.92,18.77L3,18.68c0-1.37-.39-2.76.42-4.07C3.77,14.08,4,14.31,4.38,14.43Z"/><path class="cls-70" d="M13,18.71a1.53,1.53,0,0,0-2.39-.46c-1.05-.13-2.61.56-2.44-1.53a2.67,2.67,0,0,1,.23-1,1,1,0,0,1,1.57-.4c.9,1,1.14-2.44,3-.14C14.51,17,12.72,17.61,13,18.71Z"/><path class="cls-71" d="M10,15.28l-1.31.49c-1.06.91-1.87.64-2.47-.54,0-.44.31-.6.65-.74a3.71,3.71,0,0,0,2.27-1A4.69,4.69,0,0,1,9.62,13a1.8,1.8,0,0,1,1.13-.54l.84.47Z"/><path class="cls-70" d="M14.45,13.89c-.17.27-.24.51-.4.62s-.43,0-.43-.27a.89.89,0,0,1,.26-.56C13.94,13.62,14.21,13.8,14.45,13.89Z"/><path class="cls-70" d="M3.92,18.77c.36-1.29-.86-2.8.54-3.95a1.16,1.16,0,0,1,.44.12c.33.37.9.35,1.22.7.49.53.28.81-.36.89.22.33.42,0,.55-.07.69-.32,1.34-.61,1.83.28.53,1.35-.31,2.37-.82,3.47,0,.15,0,.3,0,.45a3.87,3.87,0,0,0-.48,0C5.35,20.81,5,19.29,3.92,18.77Z"/><path class="cls-72" d="M7.32,20.21c-.17-.28-1.54.15-.64-.53a2.92,2.92,0,0,0,1.1-2.86.67.67,0,0,1,1,0c0,.69-.1,1.51,1,.95.54-.26.86-.14.87.5Z"/><path class="cls-73" d="M7.3,14.87l-1.16-.1a.41.41,0,0,1-.59.13c-.41-1.87.22-3.56.87-5.25a2.87,2.87,0,0,1,2.33.44,2.52,2.52,0,0,1,1,3.42h0A27.89,27.89,0,0,1,7.3,14.87Z"/><path class="cls-74" d="M9.74,13.51c-.46-1.1-.07-2.45-1-3.42,1.52.1,2,1.06,2,2.41Z"/><path class="cls-69" d="M5.55,14.9l.59-.13c.48,1.29,1.48,1.25,2.56,1,0,.34,0,.69,0,1l-1,0c-.11-.1-.26-.3-.33-.28-1.54.55-2.22-.25-2.55-1.6Z"/><path class="cls-74" d="M7.3,14.87A2.93,2.93,0,0,1,9.75,13.5,2.68,2.68,0,0,1,7.3,14.87Z"/></g></g></svg>