<svg xmlns="http://www.w3.org/2000/svg" viewBox="0 0 42.5 45.93"><defs><style>.cls-1{fill:#655c54;}.cls-2{fill:#7c6a58;}.cls-3{fill:#bba58f;}.cls-4{fill:#867a72;}.cls-5{fill:#635b54;}.cls-6{fill:#6b6460;}.cls-7{fill:#cba279;}.cls-8{fill:#c9a077;}.cls-9{fill:#cfa982;}.cls-10{fill:#c59a70;}.cls-11{fill:#766657;}.cls-12{fill:#6f6359;}.cls-13{fill:#6f645c;}.cls-14{fill:#72665c;}.cls-15{fill:#756961;}.cls-16{fill:#bc9672;}.cls-17{fill:#c8a15d;}.cls-18{fill:#cfa67e;}.cls-19{fill:#c69a6c;}.cls-20{fill:#c19974;}.cls-21{fill:#c8a27d;}.cls-22{fill:#cca784;}.cls-23{fill:#e5d6c4;}.cls-24{fill:#fde6c9;}.cls-25{fill:#d5b18d;}.cls-26{fill:#d3ae89;}.cls-27{fill:#d0a981;}.cls-28{fill:#c09e7a;}.cls-29{fill:#c99d70;}.cls-30{fill:#d8b695;}.cls-31{fill:#c6a789;}.cls-32{fill:#ddbfa3;}</style></defs><title>shorts</title><g id="Layer_2" data-name="Layer 2"><g id="Layer_1-2" data-name="Layer 1"><path class="cls-1" d="M23.55,4.71a6.11,6.11,0,0,0,3.18-1C28.19,2.27,30.16,1.91,32,1.29a.21.21,0,0,0,.06-.3A1.14,1.14,0,0,1,32.9.27c.88-.09,1.77-.6,2.63.08a1.55,1.55,0,0,1-.34,2.13A4.08,4.08,0,0,1,33.74,3c-3.09,1.56-6.06,3.44-9.64,3.74-1.62.07-3,.92-4.54,1.32a13.88,13.88,0,0,1-6.34.44c-2-.55-4-.19-6.06-.28a8.17,8.17,0,0,1-3-.45c-.69-.18-1.24-1-2.11-.14S.81,7.48.45,6.83a1.72,1.72,0,0,1,.77-1.9,3.19,3.19,0,0,1,2.21.25,10.25,10.25,0,0,0,3.4.25C12.46,6.4,18,5.7,23.55,4.71Z"/><path class="cls-2" d="M35.35.43l.54.44c1.09,1.07.91,2.58,1.36,3.88a7.5,7.5,0,0,1,.17,2,8.89,8.89,0,0,0-.19,4.66l.07.92c.17.9.71,1.85-.39,2.56-1.15-.41-1.14-1.42-1.24-2.38-.17-1.79-.43-3.57-.74-5.33-.28-1.11-.11-2.27-.44-3.36a1.73,1.73,0,0,1,.28-1.46C35.55,1.87,35.28,1.1,35.35.43Z"/><path class="cls-3" d="M36.24,12.37a3.88,3.88,0,0,0,.59,2.32,6.06,6.06,0,0,1,.81,2.8c.16.29.4-.16.11,0-.13.05-.21,0-.2-.12,0-.44-.21-.95.33-1.26l.42,1.53c.12,1.45.23,2.9.34,4.35-.2.2-.52-.27-.54,0,0,.76.51,1.67-.72,2-1.49-3.32-1.85-6.86-2.12-10.43C35.41,13,35.48,12.35,36.24,12.37Z"/><path class="cls-4" d="M37.88,16.07c-.09.53-.18,1.06-.38,2.29-.31-1.68-.49-2.68-.67-3.67.76-.69.26-1.62.47-2.41C37.92,13.47,37.68,14.8,37.88,16.07Z"/><path class="cls-4" d="M37.23,11.36c-.88-1.53-.26-3.19-.42-4.79a.45.45,0,0,1,.62,0,1,1,0,0,1-.13,1.31C37.27,9.07,37.25,10.22,37.23,11.36Z"/><path class="cls-5" d="M38.17,44.94l-.89.58a20.37,20.37,0,0,1-5.67.36,8.27,8.27,0,0,0-3.9-.93,1.77,1.77,0,0,1-1.9-1.05,90.18,90.18,0,0,1-2-16.12c-.2-1-.53-2,.17-3,1.23.09,1.36,1.14,1.73,2a4.91,4.91,0,0,1,.17.78c.33,3.78,1,7.53,1.22,11.32a7.48,7.48,0,0,1,.2,1.42c.08.92-.23,1.92.59,2.67a4.86,4.86,0,0,0,.54.33,34.38,34.38,0,0,0,5.36.62,5.84,5.84,0,0,0,4.8-2,10.22,10.22,0,0,1,1.71-1.77c.54-.37.93-1.18,1.74-.84.41.17.27.65.1,1Z"/><path class="cls-6" d="M24.21,24.79c-.71.92-.19,2-.41,3-.2-.68-.38-1.37-.61-2-.34-1-1.18-1-2-.88s-.87.83-.77,1.46c.73,4.6.42,9.23.57,13.85-.34,1,.51,2.34-1,2.87s-1.06-.61-1.16-1.3c0-.94,0-1.88,0-2.82-.08-4.07.17-8.13-.16-12.19a4.06,4.06,0,0,1-.19-.8c-.12-1.42.11-2.87,1.63-3.25a3.68,3.68,0,0,1,4.22,1.73Z"/><path class="cls-7" d="M35.83,13.28a62,62,0,0,0,1.91,10.56,1.72,1.72,0,0,1,.92,1.55,18.52,18.52,0,0,0,1.27,6.24,2.29,2.29,0,0,1-.5,2.62c-1.69-.29-3.48.09-5.12-.68a1.65,1.65,0,0,1-.38-1c.51-1.81,1.74-3.53.71-5.79.65,3.67.13,4.77-2.15,4.93a2.57,2.57,0,0,1-1-2.53,5.52,5.52,0,0,0-1-4,2.06,2.06,0,0,1-.35-1.58c.24-.77.88-1.52.18-2.37a2.67,2.67,0,0,1-.24-.61,5.44,5.44,0,0,1-.06-2A3.08,3.08,0,0,1,30.3,18a17.83,17.83,0,0,1,1.48-1.89,1.8,1.8,0,0,1,.59-.33c.72-.11,1.43-.21,1.82.18-1.6-.41-1.91-1.8-1.85-3.48.1-2.61.63-5.22-.33-7.81-.41-1.12,1.13-1.41,1.42-2.31l1.34,0,.15,1.34a14.12,14.12,0,0,0,.36,4.93C35.49,10.14,35.09,11.78,35.83,13.28Z"/><path class="cls-8" d="M13.32,8A19,19,0,0,0,22,6.51a4.14,4.14,0,0,1,2.33-.36,2.23,2.23,0,0,1-2.11,2.41c-1.75.4-3.1,1-2.21,3.26.29.76-.47.84-1,1a3.26,3.26,0,0,0-2.67,1.29c-1.46,1.95-2.8,1.44-4.26.1a5,5,0,0,0-.59-.38c-.18-.13-.35-.27-.52-.41a5.17,5.17,0,0,0-2.64-.91c-2.13-.21-2.6.4-2.14,2.46.38,1.66.93,3.4-.92,4.64a2.85,2.85,0,0,1-1.8-1.06,9.13,9.13,0,0,1-.73-2.4,19.17,19.17,0,0,0-.42-2.48,14.51,14.51,0,0,0-.17-1.46,5.18,5.18,0,0,1,.17-2.18c.28-.69.73-.73,1.32-.35s1.22.36,1.53-.44c.7-1.79,2.38-1.59,3.41-1,1.51.81,3.3,1.2,4.48,2.68.15-1.58.16-1.61-1.16-1.78C11,9,10,9.15,9.2,8.06A7.72,7.72,0,0,1,13.32,8Z"/><path class="cls-9" d="M21.92,8c1.49.28,1.47-1.37,2.36-1.86,3.37-.51,6.26-2.15,9.15-3.8-1.51,1.61-.29,3.49-.31,5.18,0,1.4-.24,2.8-.15,4.2s-.74,3.23,1.65,3.63c.15,0,.2.71.41,1.55A4.3,4.3,0,0,0,32,16.15c-.22-.15-.39-.48-.76-.29a.8.8,0,0,1,.76.29,2.2,2.2,0,0,1-1.43,1.93,6.64,6.64,0,0,1-2.11-.33c-.69-.1-1.58,0-1.83-.85-.31-1,.73-1,1.23-1.48.7-.61,1.73-5,1.24-5.79S28,7.89,26.49,8.52C24.3,9.44,22.94,9.1,21.92,8Z"/><path class="cls-10" d="M13.32,8H10v.51c.78,0,1.57,0,2.34,0,1.94-.16,2.2.85,1.64,2.36-.18.48-.1,1.22-.81,1.35s-.7-.61-.91-1.09C11.76,10,7.62,8.18,6.48,8.5c-.31.09-.68.15-.68.53C5.73,12.6,4,10.58,2.68,10,1.21,9.48,1.82,8.41,2,7.51S3,6.76,3.67,7c2.33.74,4.75.34,7.12.55C11.64,7.67,12.55,7.37,13.32,8Z"/><path class="cls-11" d="M3.67,7c-2.42.27-1.33,1.72-1,2.93,0,.79,0,1.57,0,2.36a.82.82,0,0,1-1,0A12.75,12.75,0,0,1,.57,7.28L.84,7c.33,0,.64,1.05.85.26C2.23,5.2,3,6.61,3.67,7Z"/><path class="cls-11" d="M3.19,5.59A7.37,7.37,0,0,1,6.67,6C5.5,6,4.25,6.52,3.19,5.59Z"/><path class="cls-11" d="M.25,5.67c.22-.4.5-.67,1-.51A2.75,2.75,0,0,0,.83,7l-.1.08C-.21,6.88-.09,6.32.25,5.67Z"/><path class="cls-12" d="M5,42.13A2.29,2.29,0,0,0,4.67,42q-.52-9-1.06-18c0-.94-.87-2,.57-2.66,1.76,1.81,1.34,4.27,1.43,6.34.18,4.28.95,8.54.62,12.84C6.09,41.27,6.13,42.14,5,42.13Z"/><path class="cls-13" d="M4.1,21.44c-.74.76-.29,1.74-.49,2.6-.62-.37-.14-1.33-.87-1.64-.67-1.23.12-2.64-.47-3.88h0c-.23-2-.45-3.92-.68-5.88a.23.23,0,0,1,.15-.33l.91,0c0,.46.05.92.07,1.37.51.76-.12,1.72.46,2.46a5.55,5.55,0,0,1,.52,2.4C4.32,19.46,5,20.34,4.1,21.44Z"/><path class="cls-14" d="M5,42.13c.63-.35.54-1,.59-1.55,1.23.31,1.34,2.05,2.74,2.11,2.32,1.11,4.69.5,7,.2,1.49.31,2.51-1.38,4-.94-.05.48-.39,1.11.55,1.09l-1,.88-7.27,1.95c-1.18-.11-2.43.1-3.37-.89C7.66,43.55,5.11,44.27,5,42.13Z"/><path class="cls-15" d="M39.2,34.4A4.32,4.32,0,0,0,39,30.55c-1.17-2.08-.44-4.54-1.24-6.71V21c.71,0,.43.82.9.95l.54,1.9c0,4.32,1.54,8.33,2.31,12.5a2.35,2.35,0,0,0,.62,1.89c0,.68.85,1.35,0,2-1-2-.89.74-1.51.36a2.88,2.88,0,0,1-.65-.7,3.13,3.13,0,0,1-.24-.6,22.56,22.56,0,0,0-.48-2.45,8.86,8.86,0,0,1-.1-2.18C39.17,34.6,39.18,34.5,39.2,34.4Z"/><path class="cls-16" d="M35.83,13.28c-2.1-1.24-.58-3.2-.95-4.79.25-.47,0-1.1.51-1.5a18.89,18.89,0,0,1,.85,5.38C36.11,12.67,36,13,35.83,13.28Z"/><path class="cls-17" d="M35.39,7c-.07.54,0,1.14-.51,1.5-.46-1.61-1-3.23,0-4.84C35.74,4.67,35.22,5.88,35.39,7Z"/><path class="cls-18" d="M39.65,36.81a5.62,5.62,0,0,1,.54,2.85c-1.38.28-2.86.21-3.85,1.58-.3.43-1,.35-1.51,0-.17-.71-.45-1-1.27-.65s-1.93,0-2.69.8c-1.09.62-.8,3.32-3.13,2.1l0,0c-.4-.91,0-2.1-1-2.81,0-.45,0-.91,0-1.37a6.27,6.27,0,0,1-.1-3.73c.85-2.51-.83-4.95.17-7.45.56-1.4-1.59.46-1.47-.9a.73.73,0,0,1-.05-.39A3.32,3.32,0,0,1,25.49,24c.5-.47,1.09-.26,1.67-.2a6.29,6.29,0,0,1,2.2,5.71,34.88,34.88,0,0,0,.07,7.64c.08.79.1,1.46,1.13,1.42a5.18,5.18,0,0,0,2.31-.27c1.17-2,3.16-1.55,5-1.71C38.45,36.47,39,37.17,39.65,36.81Z"/><path class="cls-19" d="M27.74,43.5c.53-.21,1.55.6,1.51-.8,0-.82.67-1.21,1.3-1.58a8.55,8.55,0,0,0,4.32,0c.54,0,1.3.12,1.48-.4.8-2.31,2.33-1.56,3.84-1.05h0c.33,1.11-1.3,1.32-1.09,2.37-1.3,2.18-3.38,2.54-5.68,2.51A15.88,15.88,0,0,1,27.74,43.5Z"/><path class="cls-20" d="M25.27,27.2c.74.88,1.11-1.39,1.95-.2a1.93,1.93,0,0,1-.17,2.59c-.17.24-.38.71-.27.87,2.11,3-.92,5.88-.11,8.82A106.36,106.36,0,0,1,25.27,27.2Z"/><path class="cls-19" d="M26.72,40.65c2,.37,1.51,1.58,1,2.81C26.22,42.94,26.87,41.66,26.72,40.65Z"/><path class="cls-20" d="M25.75,23.85c-.18,1-.35,2-.53,3-.34-.67-.67-1.35-1-2l.24,0a2.62,2.62,0,0,1,.71-1A.6.6,0,0,1,25.75,23.85Z"/><path class="cls-18" d="M39.09,42c-.75-1.31,1-1.46,1.09-2.37.46.18.47.57.44,1Z"/><path class="cls-21" d="M25.28,23.84a.9.9,0,0,1-.83,1,4.71,4.71,0,0,0-3.3-1.69c-2-.43-2.08,1.14-2.09,2.57-.65.53-.27,1.49-.86,2-2.15-.31-3.1-2-2-3.68.91-1.43,2.62-2,3.63-3.31.63-.39,1.65.19,2-.82a1.41,1.41,0,0,1,.59-.25c1.79,0,3.16,1.8,5.14,1.19.37-.11.78.49.81,1a1.33,1.33,0,0,1-.86,1.3C26.81,23.55,26,23.41,25.28,23.84Z"/><path class="cls-22" d="M19.44,42c-1.29.38-2.15,1.88-3.76,1.43a.74.74,0,0,1-.08-.93c1.66-2.45,2.15-5,.63-7.73a1.81,1.81,0,0,1,0-1.39,1.21,1.21,0,0,1,.46-.56,1.87,1.87,0,0,1,2.06.69c.71,1.84.26,3.82.67,5.7C19.45,40.09,19.45,41,19.44,42Z"/><path class="cls-23" d="M19.45,39.16c-.3-1.9-.61-3.8-.91-5.71a1.39,1.39,0,0,1-.24-.79c.33-2.15-.44-4.44.78-6.5A79.54,79.54,0,0,1,19.45,39.16Z"/><path class="cls-24" d="M19.08,26.16c-.39,2.25.46,4.58-.45,6.8a5.7,5.7,0,0,1-.54-5.27c.11-.77-.32-1.8,1-2A.9.9,0,0,1,19.08,26.16Z"/><path class="cls-25" d="M21.92,8a6.29,6.29,0,0,0,5.37-.38c.74-.35,1.83-1.49,1.32.67,0,.15.75.48,1.14.76s1,.69.48,1.1c-1.13.94-.73,2.37-.94,3.42-.32,1.6-.47,2.79-2.94,2.89,1.72,1,3.36.3,4.2,1.61v.48c-2.5,1.09-4,.82-5.37-1.17a12.62,12.62,0,0,0-2.06-2c-.63-1.68,1-1,1.46-1.53a10.51,10.51,0,0,0-2.48.1c-.15.79.67.82.86,1.28-.57,1.52-.4,3.21-1,4.71h0c-1.12.8-2,.39-2.5-.69a8.81,8.81,0,0,1-.38-7c.33-.57.33-.57-1-.84C19.68,10.49,19.28,7.74,21.92,8Z"/><path class="cls-9" d="M21.92,20c-.15-1.69-1-3.51,1-4.8a3,3,0,0,1,3,2.12c.84,2.14,3.06,1,4.67,1.24,0,.8,0,1.6,0,2.4-.95,1.41-1.85,2.88-3.84,2.89-.33.53-.65,0-1,0h-.47c.54-.77,1.48-.79,2.23-1.18a.73.73,0,0,0,.42-1,1.48,1.48,0,0,0-.46-.46c-2.11,1.72-3.22-.87-4.86-1.1Z"/><path class="cls-26" d="M26.72,23.85c1.75-.33,2.1-2.54,3.84-2.89a2,2,0,0,1,0,2.41c0,.52-.09,1.09.47,1.44.28,2.19.85,4.36.67,6.6-.59.55-.89-.26-1.41-.42-.1,2-.24,3.92.53,5.75a2.15,2.15,0,0,1-.26,2.46c-1.3,0-2.16.49-1.82-2,.43-3.18-.08-6.57.09-9.89C28.89,26.22,27.46,25,26.72,23.85Z"/><path class="cls-9" d="M31.52,31.52c.1-2.25-1.22-4.41-.49-6.71,2.24,1.86.43,4.59,1.45,6.71.52.56,1.43.34,1.92,1v1c.2,1.68,1.71,1.52,2.78,2,.47.37,1.75.15,1.06,1.39a1.62,1.62,0,0,1-1.73.46,2.47,2.47,0,0,0-3.08,1.94,4.76,4.76,0,0,1-1.29-4.09C32.4,33.8,31,32.83,31.52,31.52Z"/><path class="cls-18" d="M37.28,35.84c-.46-.11-1-.42-1.37-.31-2.41.63-1.8-.83-1.51-2.09a10.68,10.68,0,0,0,3.05-.07c1.17-.37,1.22.63,1.75,1h0C40.35,37.28,38.05,35.54,37.28,35.84Z"/><path class="cls-18" d="M34.4,32.48c-.83.05-1.56-.08-1.92-1,2.59-.3,1.86-2.26,1.81-3.79,0-.88-.74-1.74,0-2.66C36.17,27.24,36.06,29.33,34.4,32.48Z"/><path class="cls-9" d="M30.56,23.37V21Q32.48,22.16,30.56,23.37Z"/><path class="cls-27" d="M19,12.33c.53,2.15-.09,4.41.85,6.57.5,1.14,1.17,1.08,2,1.11.54,2.68-1.46.28-1.92,1-2.53,1.08-4.05-1-5.93-1.94-.74-.36-.61-1.2-.11-2-1.62.47-2.66,1.63-4.19,1.65-1.08,0-2.63-.23-1.58,1.77.06.12,0,.43-.09.44-1.58.18-.83,1.51-1.14,2.3-.18.45-.37.91-1,.66-.77-1-.26-2.27-.75-3.32a2.19,2.19,0,0,1-.2-.66l.12-.34c1.61-2.4.82-4.54-.73-6.6,2.62-1.51,5.38-1.37,6.78.67a2.09,2.09,0,0,0-.18.31,4.23,4.23,0,0,0,.22-.42c.1-.31.43-.09.14-.16-.12,0-.27.36-.18.27,2.29,1.25,4.21,1.83,5.84-1C17.34,12,18.34,12.39,19,12.33Z"/><path class="cls-28" d="M5.6,20c1,1.18.26,2.57.48,3.84a.81.81,0,0,1,.23.61,6.91,6.91,0,0,0,.16,2.64,15.62,15.62,0,0,1-.2,5.62c0,.32.39,0,.07,0-.06,0,0-.08,0-.23,0-.32,0-.74.25-.84.65-.25.78.35.9.77a9.86,9.86,0,0,1-.26,5.11c-.53,2,.78,3.69.75,5.6C6.37,43,6.12,41.7,5.63,40.58c-.28-6.39-.34-12.81-1.53-19.14-.12-1-.25-1.92-.38-2.88a1.46,1.46,0,0,1,1.4,1,.59.59,0,0,0,0,.84C5.31,20.51,5.4,20.09,5.6,20Z"/><path class="cls-11" d="M3.2,16.16c-.81-.69-.38-1.62-.46-2.46C3.37,14.43,3.1,15.33,3.2,16.16Z"/><path class="cls-7" d="M30.13,16.16c.5-.49,1-1,1.63-.63.15.1.16.42.24.63Z"/><path class="cls-29" d="M8,43.13c-1.88-1.61-1.36-3.8-1.43-5.85.22-.24,0,0,.21-.11.87-.44.65-2.14,1.83-1.92S9.82,37,10.19,38,11,39.82,12,40a5.74,5.74,0,0,1,3.66,2.56c0,.27,0,.54,0,.81C13.09,43.9,10.5,44.68,8,43.13Z"/><path class="cls-7" d="M37.28,35.84c.3-.21.79-.67.89-.6,1.46,1,.93-.28,1-.83.73.69.36,1.59.45,2.4-.48.72-.95.6-1.41,0C38.47,35.93,37.49,36.27,37.28,35.84Z"/><path class="cls-30" d="M31.52,31.52c2,2.23.77,5.24,1.91,7.68H30.56c0-2.56-1.57-4.92-1-7.57.17-.73-.23-1.59.57-2.17C31.15,29.8,30.75,31,31.52,31.52Z"/><path class="cls-31" d="M34.87,41.11c-1.43,1.33-2.87,1.63-4.32,0a.93.93,0,0,1,1.11-.93,5.19,5.19,0,0,0,3.68-1C36,40.15,34.64,40.41,34.87,41.11Z"/><path class="cls-25" d="M15.66,42.57c-.75,0-.74,0-1.44-1.27a.47.47,0,0,0-.39-.15c-1,.07-1.79-.59-2.69-.79C9.86,40.08,10,39,9.66,38.21S9,36.47,8.71,35.58c-1.17.15-.27,2.65-2.16,1.7A10.9,10.9,0,0,0,6.92,32c-.71.25-.06,1.08-.85,1.51.27-2.35-.51-4.54,0-6.77a2.82,2.82,0,0,1,0-2.41c0-.16,0-.31,0-.47.53-.39.46-1,.48-1.52,0-.73,0-.73,1-1.27.68-.4.31-1-1.22-1.91.25-.88,1.18-.95,1.71-.93a8.44,8.44,0,0,0,5.25-1.72c.55-.39,1.28-.58,1.71,0s-.3.81-.69,1.18c-.75.72-.09,1,.57,1.21,1.72.67,3.06,2.3,5.15,2a5.5,5.5,0,0,1-2.21,2.17c-2,1-1.77,2.74.3,4.55L18.63,33l-.09.49L16.64,33a10.47,10.47,0,0,1-2.27-7.57c0-1.09.12-1.73-1.22-1.55A2.58,2.58,0,0,1,10.74,23c1.53,3.88-2.1,7.5-.42,11.22.44.15.73,0,.71-.21-.33-2.84,2.18-1.7,3.36-2.41.23-.13.42.13.55.34.45.7-.16,3.22-.93,3.85,1.55-.23.76-1.47,1-2.27.13-.5.29-1,.84-1s.48.71.82,1c-.27,1.55,1.23,2.62,1.07,4.21-.11,1.13,1.38,2.64-1,3.07-.27.05-.26.33-.09.55C18,43,16.26,42.35,15.66,42.57Z"/><path class="cls-32" d="M16.63,33.44c-.54-.47-1.19-1.15-1.39.21a20.22,20.22,0,0,0,0,2.83l-3-1c3.5.07,2.14-2.05,2.58-3.55-1.12.36-.83,1.38-1.47,1.79-.93-.17-.42-1.53-1.53-1.72V34.1c0,.73-.24,1.22-1.08,1.24s-1.17-.19-1.31-1a9.36,9.36,0,0,1,.16-5.13,7.8,7.8,0,0,0,.47-5.52,1.16,1.16,0,0,1,.64-1.59c.93-.39.62.53.9.87.6.76,1.43.43,2.17.16,1.25-.45,2,.46,1.62,1.24-1.32,3,.3,5.35,1.18,7.9a2.84,2.84,0,0,1,.06.72C16.64,33.13,16.63,33.28,16.63,33.44Z"/><path class="cls-9" d="M27.16,13.79c-2.12.6-3.54,1.06-5,1.39a1.11,1.11,0,0,1-1.47-.83c-.11-.8.6-1.06,1.26-1C23.45,13.36,25,13,27.16,13.79Z"/><path class="cls-8" d="M11.34,13.22a2,2,0,0,1-1.23,2.21C9.72,14.19,10.68,13.82,11.34,13.22Z"/><path class="cls-8" d="M5.6,20v1.81c-.8-.94-1.34-1.48-.48-2.3Z"/><path class="cls-8" d="M6.07,24.32c0,.8,0,1.61,0,2.41A1.63,1.63,0,0,1,6.07,24.32Z"/></g></g></svg>