<svg xmlns="http://www.w3.org/2000/svg" viewBox="0 0 73.2 46.13"><defs><style>.cls-1{fill:#da6983;}.cls-2{fill:#937bab;}.cls-3{fill:#8d70ab;}.cls-4{fill:#886ca8;}.cls-5{fill:#767197;}.cls-6{fill:#8767a9;}.cls-7{fill:#a790b8;}.cls-8{fill:#a68dc1;}.cls-9{fill:#947ca9;}.cls-10{fill:#a98dbb;}.cls-11{fill:#de6383;}.cls-12{fill:#d17d8e;}.cls-13{fill:#9678aa;}.cls-14{fill:#db728b;}.cls-15{fill:#f3e5ec;}.cls-16{fill:#e7d6e2;}.cls-17{fill:#e8dae8;}.cls-18{fill:#cf8393;}.cls-19{fill:#edcfde;}.cls-20{fill:#eecad5;}.cls-21{fill:#ce5f7a;}.cls-22{fill:#eddae5;}.cls-23{fill:#d5778d;}.cls-24{fill:#db6284;}.cls-25{fill:#d48197;}.cls-26{fill:#d98291;}.cls-27{fill:#e5dae7;}.cls-28{fill:#d9cede;}.cls-29{fill:#8d74a4;}.cls-30{fill:#ded4e3;}.cls-31{fill:#8f7bad;}.cls-32{fill:#b9a6cd;}.cls-33{fill:#c1b2d3;}.cls-34{fill:#b19bc5;}.cls-35{fill:#9477af;}.cls-36{fill:#a38bb8;}.cls-37{fill:#b698c7;}.cls-38{fill:#8d6ca7;}.cls-39{fill:#d2beda;}.cls-40{fill:#9c8481;}.cls-41{fill:#b69db5;}.cls-42{fill:#cfbcd8;}.cls-43{fill:#ccb8d2;}.cls-44{fill:#9475ac;}.cls-45{fill:#ccbbd9;}.cls-46{fill:#b9a7cd;}.cls-47{fill:#727d9f;}.cls-48{fill:#7d65a6;}.cls-49{fill:#eae2ed;}.cls-50{fill:#cdc5d9;}.cls-51{fill:#bf9fca;}.cls-52{fill:#a48ab8;}.cls-53{fill:#ead7e1;}.cls-54{fill:#f0d2e1;}.cls-55{fill:#ddcee1;}.cls-56{fill:#e7cfdb;}.cls-57{fill:#f7eaf0;}.cls-58{fill:#9579ad;}.cls-59{fill:#cf7e8a;}.cls-60{fill:#e5d7ea;}.cls-61{fill:#dceaf3;}.cls-62{fill:#ea4e77;}.cls-63{fill:#efe2eb;}.cls-64{fill:#eae5ec;}.cls-65{fill:#d77d90;}.cls-66{fill:#f5e4ec;}.cls-67{fill:#f5d6df;}.cls-68{fill:#d05e78;}.cls-69{fill:#d1c2d8;}.cls-70{fill:#9b80ab;}.cls-71{fill:#c6b5d7;}.cls-72{fill:#987bb1;}.cls-73{fill:#bdaacf;}.cls-74{fill:#d3c4d7;}.cls-75{fill:#dd909c;}.cls-76{fill:#e4d2df;}.cls-77{fill:#d77988;}.cls-78{fill:#d9b4b9;}.cls-79{fill:#d4bac0;}.cls-80{fill:#eccdd7;}.cls-81{fill:#f7c9ce;}.cls-82{fill:#d396a0;}.cls-83{fill:#e9788f;}.cls-84{fill:#fbf1f4;}.cls-85{fill:#d4eef7;}</style></defs><title>skirt</title><g id="Layer_2" data-name="Layer 2"><g id="Layer_1-2" data-name="Layer 1"><path class="cls-1" d="M33.31,46.13l-2.25,0c-1-.37-2.09-.1-3-.62a2.52,2.52,0,0,1-1.16-1.37,1.29,1.29,0,0,1,.79-1.49c1.83.36,3.54,1.31,5.53,1,1.36-.23,2.67-.46,3.6-1.6.7-.69,1.36,0,2,.07.48.14.87.5,1.39.54a23.73,23.73,0,0,0,2.53,0h.63a4.56,4.56,0,0,0,2.11-.22A3.58,3.58,0,0,0,47.27,41c.47-.83-.14-1.54-.27-2.3a.89.89,0,0,1,1.09-.94c1.06.42,1.64,1.45,2.56,2,.07,1.3-1.75,1.3-1.75,2.55a3.54,3.54,0,0,1-1.06,1.36,5.77,5.77,0,0,1-3,1.19,8.42,8.42,0,0,1-4.92,0,3.66,3.66,0,0,0-3,.19C35.84,45.73,34.47,45.57,33.31,46.13Z"/><path class="cls-2" d="M60.26,5.7c.54.48,1,1.11,1.79,1.16a2.75,2.75,0,0,1,2,1.46h0c.7.23,1.44.58,1,1.43-.57,1-1.52.17-2.3.24A2.77,2.77,0,0,1,62,9.89,2.3,2.3,0,0,1,61,9.18c-.62-1.65-2.48-1.88-3.53-3C55.84,4.09,54,2.75,51.18,3.6c-1.17-.45-.66-2-1.6-2.56-.1-.85.76-.59,1.1-.95A1.72,1.72,0,0,0,51.12,0c3.07.57,5.16,2.82,7.63,4.43C59.49,4.57,59.83,5.19,60.26,5.7Z"/><path class="cls-3" d="M41,14.43H43c-.53,1.47-1.6.47-2.24.68.72.42,1.81-.26,2.74.27,0,1.06-.85,1.13-1.5,1.1-1.66-.07-3.12.64-4.66,1a31.38,31.38,0,0,0-4.74.41,28.7,28.7,0,0,1-8.22-.3A2.09,2.09,0,0,0,22,18a1.63,1.63,0,0,1-1.31.53,1.13,1.13,0,0,1-.57-.39c-1.35-2.77-2.1-2.85-4.5-.49a3.18,3.18,0,0,1-.49.48,2,2,0,0,1-2.26.27c-1.26-2.2.71-2.77,2-3.69-.91-.07-1.81,0-2.16-1,.59-.73,1.61-.48,2.29-1,3.14.36,6.31.56,9.25,1.89a1.84,1.84,0,0,0,1.47.68,45.58,45.58,0,0,0,14-.77A1,1,0,0,1,41,14.43Z"/><path class="cls-4" d="M43.46,15.45H40.33c.93-.86,2.11-.06,2.64-1A7.17,7.17,0,0,1,44.31,14c2.5-.32,3.78-1.48,3.5-4.23a21.11,21.11,0,0,1,.45-4.44c.48-1.28,1-2.56,1.42-3.83l.21-.47C52.05,1,50,3,51.16,3.51c.45,1.64-.32,3.13-.57,4.68a28.15,28.15,0,0,1-.92,3.53c-.61,1.19,0,2.79-1.21,3.77a3.52,3.52,0,0,1-1.82.14C45.59,15.43,44.47,16.29,43.46,15.45Z"/><path class="cls-5" d="M10.82,17.81c.17-1.92-.14-4,1.89-5.27l1,.36.94.2c-.44.7-1.49.12-1.89.89a5.25,5.25,0,0,1-1.28,3.91l-.33.07Z"/><path class="cls-6" d="M55,21.16c3,3,6,6.16,10.34,7.46,2.6.78,5.21.61,7.82.78a3.22,3.22,0,0,1-.89,2.38c-.27.18,0-.07-.15.17-.49.82-1.31.38-2,.6,1,.22,1.08.7.47,1.44-2.57,1.68-5.48.85-8.24,1.11a3.39,3.39,0,0,1-1.1,0c-1.39-.41-1.94-1.68-2.72-2.7a3,3,0,0,1-.41-1.59,3.88,3.88,0,0,0-3.46-4.1c-1.68-1.82-3.27-3.7-3.44-6.34C52.86,18.69,52.86,18.69,55,21.16Z"/><path class="cls-7" d="M62.26,34.7c.59,1.6.54,3.43,1.79,4.78a9.13,9.13,0,0,0,1.57,2.85.41.41,0,0,1-.24,0,2.48,2.48,0,0,1-3.16.12c-.54-1,.56-1.91,0-2.87-.17-.42-.37-.81-.57-1.21-.37-1.2-1.19-2.34-.48-3.68Z"/><path class="cls-8" d="M71.28,33.69l-.51-.07c-.29-1.37-1.62.3-2-.81.88-1.23,2.47-.36,3.56-1C72.44,32.67,71.63,33.06,71.28,33.69Z"/><path class="cls-9" d="M66.46,21.66c0,1-.5,1.91,0,2.86-1.64.1-2.83-1-4.06-1.76A39.3,39.3,0,0,0,55,19.19l-.22-.08c-.7-.21-1.95.48-2-.48s1.22-.8,2-.95a11.87,11.87,0,0,1,5.92,2,9.46,9.46,0,0,1,.78.64,13.05,13.05,0,0,0,2.32,1.52c1.12.15.56-.68.66-1.13.44-2.18-.66-4.14-.86-6.23a1.32,1.32,0,0,1,1.64.08c.77.56.58,1.48.84,2.23C66.34,18.38,65.88,20.07,66.46,21.66Z"/><path class="cls-10" d="M55,18.25l-2.14.16c.67.68,1.58.1,2.05.78-1.69.72.44,1.3.07,2-1.16-.22-1.75-2.59-3.43-.93a1.07,1.07,0,0,1-1.24.25c-.09-1-.88-1.75-.92-2.76.21-.85,0-1.88,1-2.41a1,1,0,0,1,.83.47c.44,1.82,2.1,1.3,3.29,1.7A.78.78,0,0,1,55,18.25Z"/><path class="cls-11" d="M1.13,30.21C1.27,28.85,2.44,28.08,3,27c1.18-1.45,2-3.18,3.58-4.31.52-.4.86-.18,1.11.33a4.09,4.09,0,0,1-1.46,2.89c-1.43,1.61-2.52,3.46-3.94,5.06a1.28,1.28,0,0,1-.72.11C1.15,30.88.9,30.66,1.13,30.21Z"/><path class="cls-12" d="M7.45,23.15a1,1,0,0,0-.91-.51,3.05,3.05,0,0,1,1.37-1.95c.29-.34.65-.6,1-.92l.47-.46a.66.66,0,0,1,.62-.13,1,1,0,0,1,.55.81C10,21.52,9.18,22.78,7.45,23.15Z"/><path class="cls-13" d="M62.14,41.87c1,.85,2.16.28,3.24.42,0,1.5-.81,1.77-2.14,1.58-1.59-.23-2.94-1.06-4.45-1.48l-.43-.23c-1.08-.87-1.62-2.46-3.32-2.53-.43-.16-.64-.54-.89-.89-.35-.53-.68-1.08-1-1.6-.57-.84-1-1.75-1.61-2.56-2.36-4.36-3.46-9.11-4.37-13.92.66-1.24,1.42-.57,2.18-.11a34.75,34.75,0,0,1,1.78,6.38,19.49,19.49,0,0,0,4.49,8.78c2.43-.43,1.82,2,2.82,2.95A7.22,7.22,0,0,0,60,40.07C60.74,40.64,61.67,41,62.14,41.87Z"/><path class="cls-14" d="M54.59,38.47,55,39.63c-.85,1.57-2,2.65-3.89,1.76-1.13-.53-1.51.28-2.06.88l-.38-.07c.08-1.22,1.23-1.53,1.92-2.23A8.35,8.35,0,0,1,54.59,38.47Z"/><path class="cls-15" d="M54.59,38.47a4.62,4.62,0,0,1-4,1.5c-1.36,0-1.73-1.17-2.37-2-.55-.43-.65-1.15-1.08-1.66-.79-1.79-2-3.41-2.06-5.48.81-3.21.81-3.23-2.7-2.68-1.31.2-2-.26-1.38-1.53s-.18-3,1.26-3.68c-1,.34-2.35,1.51-3.31-.45.22-.73.85-.83,1.46-1,2.27-.34,4.49-1.07,6.83-.74a1.26,1.26,0,0,1,.9,1.25c.4,4.49,2.1,8.57,3.89,12.63.65,1.49-1.42,1.71-1.32,2.9a2.68,2.68,0,0,1,2.76-.5Z"/><path class="cls-16" d="M37.15,41.84c.34,1.2-.52,1.53-1.36,1.83A9.48,9.48,0,0,1,27.57,43c-1.15-1.18-.74-2.2.33-3.14.51.19.61.66.75,1.11.82,1.43,1.09,1.53,2.32.85.13-1-.86-1-1.31-1.46s-1.21-1-.63-1.78,1.18-.43,1.7,0a2.71,2.71,0,0,0,2.69.26,1.62,1.62,0,0,1,.91.2,4.15,4.15,0,0,0,1.74.33A2.89,2.89,0,0,1,37.15,41.84Z"/><path class="cls-17" d="M47.29,38.93c1.21.64,1.14,1.47.35,2.41a1,1,0,0,1-1.3.15c-1.3-.91-2.55-.53-3.86-.06-3,1.1-3.36,1-5.18-1.5a5.27,5.27,0,0,1-.92-1.5,2.12,2.12,0,0,1,.12-1.71c.8-.58,1-2.37,2-1.95s.32,1.82.16,2.79c-.14.78.47,1.33.58,1.92,2.14-.59,4.14-1.73,6.47-1.75C46.18,38.24,46.49,38.89,47.29,38.93Z"/><path class="cls-18" d="M28,39.86a4.46,4.46,0,0,0-.45,3.08c-.15.4-.29.8-.44,1.19-.85.36-1.29-.93-2.15-.53a1.13,1.13,0,0,1-.87-.43,1.09,1.09,0,0,1,0-1A5,5,0,0,0,26,37.76c0-2.62-.06-5.23,0-7.84a1.61,1.61,0,0,1,.83-1.6c.67-.28,1,.22,1.24.76.47,2.62,0,5.28.32,7.9C28.41,38,28.65,39,28,39.86Z"/><path class="cls-19" d="M37.58,39.47c1.31,2.26,2.94,2.51,5.17,1.14,1.67-1,3.33,0,4.89.73-.21,1-1.2,1-1.8,1.45-.75.56-1.71-.07-2.46.45a1.09,1.09,0,0,1-.44-.06,3.48,3.48,0,0,0-3.33,0l-1-.87C37.57,41.63,36.91,40.8,37.58,39.47Z"/><path class="cls-20" d="M47.29,38.93a1.06,1.06,0,0,1-1.58.29c-.48-.36,0-.81.13-1.22-.44-1-1.63-1-2.3-1.71a1.53,1.53,0,0,1,.11-2.15,12.33,12.33,0,0,1,1.8-.62c1.47.25.82,2.29,2.21,2.61.86.39.52,1.18.6,1.82C47.54,37.89,47.21,38.21,47.29,38.93Z"/><path class="cls-21" d="M37.58,39.47c0,1.08.7,1.89,1.07,2.82-.85,1-1-.44-1.5-.45-.88-.6-.66-1.77-1.29-2.5a.66.66,0,0,1-.07-1,1.11,1.11,0,0,1,1.1.06Z"/><path class="cls-17" d="M39.61,43.16c1.12-1.34,2.23-1.4,3.33,0Z"/><path class="cls-14" d="M43.38,43.24c.71-.72,1.6-.51,2.46-.45C45.14,43.59,44.21,43.17,43.38,43.24Z"/><path class="cls-22" d="M26.58,38.44c-.07,1.72-.16,3.42-2.34,3.85-3.13.75-5.9-.34-8.64-1.62-.57-.42-.95-1.34-1.92-.76-.33-.46-.65-.92-1-1.39a9.71,9.71,0,0,0,1.1-2.24c.45-.87.61-1.94,1.64-2.41a2.31,2.31,0,0,1,3.17.62c1.83,2.19,4.63,2.16,6.66,0C26.89,35.44,25.86,37.23,26.58,38.44Z"/><path class="cls-23" d="M1.13,30.21l.67.66a2.88,2.88,0,0,0,2,2.43,14.51,14.51,0,0,0,2,1.06c1.27,1,3.24.81,4.13,2.44-.84.85-1.69.42-2.57.07-1.1-.43-2.21-.84-3.32-1.26C2.72,35.37,1.89,34.24.7,33.74-1,32.34.9,31.37,1.13,30.21Z"/><path class="cls-24" d="M15.57,39.92c2.55,2,5.8,1.49,8.67,2.37,0,.31,0,.62,0,.92-.09.1-.19.2-.28.31a7.74,7.74,0,0,1-4-.27l-2.45-.93c-.9-.71-2.32-.62-2.89-1.85C14.53,39.6,15,39.59,15.57,39.92Z"/><path class="cls-25" d="M4.05,35.61a8,8,0,0,1,3.4,1c.79.33,1.58.86,2.38,0a1,1,0,0,1,.85-.36c.93.27,1.45-.61,2.22-.79.59,0,.87.47,1.18.88l.12.28c-.4.71.14,2.16-1.49,1.92-1.89-1.2-4.22-.65-6.18-1.55A6.69,6.69,0,0,1,4.05,35.61Z"/><path class="cls-26" d="M15.57,39.92a1,1,0,0,0-1,.55l-.9-.56C14.32,38.25,14.94,39.46,15.57,39.92Z"/><path class="cls-27" d="M57.73,5.9c1,1.18,3.6.77,3.38,3.25-.82,1.14-2.26,1-3.35,1.58a22.72,22.72,0,0,0-5.47,4.07,1.74,1.74,0,0,1-1.63.4c-.24,0-.61-.21-.56-.33.82-2-.37-4.3.63-6.33C52.61,6.47,55.3,6.52,57.73,5.9Z"/><path class="cls-28" d="M57.73,5.9c-1.31,1.38-3.18,1.38-4.84,1.79a4,4,0,0,0-1.77,1c-.53.22-.82-.05-1-.51a17.22,17.22,0,0,1,1-4.7C53.36,1.92,55.61,2.74,57.73,5.9Z"/><path class="cls-29" d="M52,14.47a14.41,14.41,0,0,1,9.08-5.32l1,.48c-.81,1.32-.81,1.32-4,2.07-1.05.09-.8.82-.73,1.47-.55.87-1.51,1-2.37,1.29a16.3,16.3,0,0,1-2.08.42A1.25,1.25,0,0,1,52,14.47Z"/><path class="cls-30" d="M57.93,11.13c1.42-.46,3-.52,4.22-1.5h.46c-.13.73-.22,1.45.51,2C60.78,12.75,59.12,12.6,57.93,11.13Z"/><path class="cls-31" d="M57.93,11.13c1.65,1,3.48,0,5.19.46l1,.42a.44.44,0,0,1,.57,0c.27,1,1.24,1.83.37,2.93l-1.48-.45c-2.28.47-4.13-.95-6.2-1.42C55.28,11.77,57,11.58,57.93,11.13Z"/><path class="cls-32" d="M20.4,18.31a1,1,0,0,0,1-.47,2.83,2.83,0,0,1,3.42-.42c-.22.95-1.62,1.62-.68,2.84.07.32.51-.09.2,0,0,0-.06,0-.08-.05-.77-1.52.29-2.08,1.39-2.63,2.18.44,4.36-.09,6.54,0a1.94,1.94,0,0,1,.25,2.91c-.79.88-1.95-1.05-3.12,0,.77,1.14,2.78-.2,3.16,1.53-1.66,1.25-3.51.72-5.28.48a10,10,0,0,0-3.54-.05,2.06,2.06,0,0,1-1.74-.29c-.2-1.2-1.4-1.4-2.12-2.09A1.85,1.85,0,0,1,20.4,18.31Z"/><path class="cls-33" d="M32.43,21.7c-.88,0-1.76,0-2.64,0-.65,0-1.7.25-1.57-.87a1.62,1.62,0,0,1,2.1-1.43,7.86,7.86,0,0,1,1.87,1.05l.22-2.55c-.29-.19-.28-.35,0-.48,1.51-.87,3.16-.4,4.75-.5A3.9,3.9,0,0,1,38,21.43a13.82,13.82,0,0,1-2.53.73C34.43,22.29,33.35,22.54,32.43,21.7Z"/><path class="cls-34" d="M38.15,21.18c-.32-1.43-.64-2.87-.95-4.3,1.91-1.23,4.26-.58,6.26-1.43,1.15.08,2.18-.75,3.35-.46a1.46,1.46,0,0,0,1.94,1.42,1.41,1.41,0,0,1-.35,2.23,8.54,8.54,0,0,1-4.78.08,13.62,13.62,0,0,0-1.72-1.16c-1.26-.48-1.27.31-1.22,1.17-.73.55-1.52,1.08-.94,2.19a.66.66,0,0,1-.35.53A1.06,1.06,0,0,1,38.15,21.18Z"/><path class="cls-35" d="M15.13,17.38A3.93,3.93,0,0,1,17,15.63c1.54-.87,2.83,0,3.41,2.2-1.19,1-2.36.42-3.53,0C16.42,17.15,15.62,17.89,15.13,17.38Z"/><path class="cls-35" d="M11.28,17.81,12.72,14a5.76,5.76,0,0,1,2.57.69c-1.08,1.1-2.45,1.93-2.57,3.61l-.31.15A1.2,1.2,0,0,1,11.28,17.81Z"/><path class="cls-35" d="M32.45,17.38c0,.16,0,.32,0,.48-2.41,0-4.81.64-7.21,0-.16.2-.31.2-.45,0-1.14-1-2.26-.14-3.39,0,.47-.72.86-1.58,2-1.18C26.32,17.71,29.41,17.24,32.45,17.38Z"/><path class="cls-36" d="M16.56,17.35c1.3,0,2.51.73,3.84.48v.48L20,20.22a3.29,3.29,0,0,1-3.48-1.09C17,18.57,16.51,17.94,16.56,17.35Z"/><path class="cls-37" d="M16.56,17.35c.16.58,1.2.48,1,1.25,0,.14-.67.14-1,.21a.87.87,0,0,1-1,.18c-.4-.29-.73-.61-.48-1.17l0-.44C15.61,17.48,16.07,16.82,16.56,17.35Z"/><path class="cls-36" d="M15.1,17.82l.51,1a2.53,2.53,0,0,1-1.53.85c-.64.08-1.23.05-1.56-.63a.7.7,0,0,1,.2-.67v0Z"/><path class="cls-38" d="M48.24,18.33c.77-.64.6-1.3,0-2a.61.61,0,0,1-.05-.92c.93-1.13,0-2.7.9-3.85,1.44,1.93.13,4.12.6,6.14-.29.9,2.05,1.36.41,2.48-.17.44-.4.75-.94.51-.63.18-1.3-.91-1.92,0a38.37,38.37,0,0,1-6.73,1.34c-.5-.25-.79-.59-.48-1.18A19.5,19.5,0,0,1,48.24,18.33Z"/><path class="cls-30" d="M49.73,17.73c-1.12-2-.23-4.11-.6-6.14.32-1.12.65-2.25,1-3.38l1,.51c-.13,2.1-.25,4.19-.38,6.29a.37.37,0,0,1-.08.46C49.69,16,50.63,17.22,49.73,17.73Z"/><path class="cls-39" d="M48.23,15.44c0,.31,0,.61.05.92-.34,1.42-1.33.53-1.76.29-1.05-.62.18-1.1.29-1.66A1.89,1.89,0,0,1,48.23,15.44Z"/><path class="cls-40" d="M9.82,19.28l.51-1,.49-.49h0A1.48,1.48,0,0,1,11,19.61a.49.49,0,0,1-.67.16Z"/><path class="cls-41" d="M10.75,19.64l.06-1.82a3.73,3.73,0,0,0,.47,0l1.44.52,0,.49a3.59,3.59,0,0,1-.39.39c-.38.25-.58.76-1.13.77A.56.56,0,0,1,10.75,19.64Z"/><path class="cls-42" d="M49.2,20.72l.94-.51,1.45,0c.51,2.41,2.1,4.24,3.35,6.25A1.2,1.2,0,0,1,55.7,28a6.57,6.57,0,0,0-.11,6.11c.43.82.89,1.76-.17,2.53C51.25,32.12,50,26.52,49.2,20.72Z"/><path class="cls-43" d="M61.19,34.65c.32,1.27.65,2.54,1,3.81-.36,1.2-1,.73-1.24.06-.36-1.09-.44,0-.65,0-1.94-1.47-2.9-4.32-2.08-6.08a1.88,1.88,0,0,1,.58-.38Z"/><path class="cls-44" d="M55.52,27.85c-.19-.46-.38-.91-.58-1.37a3.34,3.34,0,0,0,.6-.37c.49-.46.69-.2,1.05.25,2.76,3.4,2.92,3.64,2.5,3.88-1,.57,0,1.29-.31,1.84a2.46,2.46,0,0,0,0,.26C57.11,31.28,55.74,30,55.52,27.85Z"/><path class="cls-45" d="M60.24,38.45a2.48,2.48,0,0,1,.58-1.91c1.11.24-.68,2.36,1.35,1.92a.93.93,0,0,1,.4,1c-.67,1.1-1.54,1.6-2.81,1-.6-.33-1.34-.5-1.47-1.35C58.31,36.75,59.65,38.85,60.24,38.45Z"/><path class="cls-46" d="M59.76,40.39c1.15.3,1.79-.9,2.81-1,1,1,.59,1.78-.43,2.45A4.77,4.77,0,0,1,59.76,40.39Z"/><path class="cls-47" d="M64.59,12.11c1.87.35,1.07,2.57,2.34,3.34h0c0,1.29,1,2.56.09,3.87-.15.65,0,1.38-.5,1.94-1.13-1.45,0-3.37-1-4.84-.79-.28.1-1.11-.47-1.46C65.48,13.91,63.82,13.2,64.59,12.11Z"/><path class="cls-48" d="M65.51,16.41c1.56,1.36.74,3.21,1,4.84a.49.49,0,0,1-.06.41C64.61,20.19,65.91,18.15,65.51,16.41Z"/><path class="cls-30" d="M57.36,13.08c2.31-.59,4.15.89,6.2,1.42,1.47,1.84,1.53,4,1.44,6.19-.31.44-.42,1.06-1.09,1.17-.58-1.14-1.78-.83-2.71-1.15l-.5-.41c-1.33-1.62-1.16-3.13.51-4.57-1.34-1-2.92,1.65-4-.39-.42-1-2.27.29-2.3-1.38Z"/><path class="cls-49" d="M57.35,14.94c.57.63,1,.89,1.89.21.69-.53,1.83-1.18,2.69.09.26.38.81.84,0,1-2.58.71-1.5,2.48-1.28,4-1.81-.89-3.57-1.93-5.66-2.05l-.55-.43c.77-.89.74-2.19,1.55-3.06C56.48,14.74,57,14.57,57.35,14.94Z"/><path class="cls-50" d="M61.2,20.71a3.28,3.28,0,0,0,.91-.23c1.39-.78,1.88-.15,2,1.19.09.42,0,.66-.5.52A5.51,5.51,0,0,1,61.2,20.71Z"/><path class="cls-51" d="M63.57,22.19l.5-.52.93-1c-.1.74.44,1.66-.37,2.18C64.17,23.16,63.83,22.59,63.57,22.19Z"/><path class="cls-30" d="M55.92,15c.5,2,.5,2-1.43,2.86A17.36,17.36,0,0,1,52,17.68c-1-.18-1.55-.7-.85-1.76a1.28,1.28,0,0,1,.59-.43C53.15,15.54,54.43,14.4,55.92,15Z"/><path class="cls-52" d="M51.58,15.9l-.45,0-.47-.45a2.33,2.33,0,0,1,.08-.46L52,14.47h1C53.32,15.75,52.09,15.45,51.58,15.9Z"/><path class="cls-53" d="M10.75,19.64l.53.12c.35.26.91.08,1.15.56a1.46,1.46,0,0,1,0,1c-.42.89-.42,2.08-1.74,2.33a.86.86,0,0,0-.67.9c.31,1.84-1.13,2.87-2.17,3.61A12.32,12.32,0,0,0,4.47,32,1.81,1.81,0,0,1,2.18,30.8c1-3,3.69-5,5.27-7.65a17.69,17.69,0,0,0,2.9-3.38Z"/><path class="cls-54" d="M2.18,30.8c.9,0,1.32,1.27,2.37,1,1.09,1.28.94,1.58-1,1.93C2.37,33.14.6,33,1.8,30.87A1.59,1.59,0,0,1,2.18,30.8Z"/><path class="cls-55" d="M60.24,38.45c0,1-.62.39-.8.2-.73-.78-.88-.07-1.15.39-1.51-.34-1.54-1.34-1.07-2.49-.68-.69-1.17,1.06-1.8,0,.36-1.47-.64-2.61-1-3.92-.44-1.79-.41-3.46,1.07-4.82l3.28,4.49a2.12,2.12,0,0,0-.1,2.83A18.24,18.24,0,0,1,60.24,38.45Z"/><path class="cls-56" d="M53.51,37c-.8,1.35-2.53-.19-3.32,1.35-.3-1.93,1.15-2.64,1.88-3.75A6.22,6.22,0,0,1,53.51,37Z"/><path class="cls-57" d="M35.86,38.5v.84c-.48.61-1,.8-1.53.09,0-.44,0-.88,0-1.32-.16.28-.19.65-.5.83-1.37.89-1.37.89-4.53-.3,0,1.7,3.15,1.52,2.14,3.66a6.44,6.44,0,0,1-3.34-.95c0-.5-.05-1-.07-1.49a3.43,3.43,0,0,1,0-2.28c-.15-2.21-.71-4.44.43-6.57a1.69,1.69,0,0,1,.58-.44c1.54.2,2.58-.08,2.43-2-.08-1,.12-2,.08-3.08a1.78,1.78,0,0,1,2.34-1.62c.77.4.24.84.12,1.37s.54.18.82.3a1.28,1.28,0,0,1,1,1.13c.27,1.75.34,1.74,2.71,1.4a3.47,3.47,0,0,1-1-3.59A4.14,4.14,0,0,1,37.81,23c.3-.49.67-.77,1.25-.41,1.55,1.23,3.23-.51,5.14.3-1.36.19-2.5.35-2.2,1.89.2,1-.3,1.93-1.1,3.33,2.12-1.09,3.92-1.81,5.34-.41,1.13,1.11-.56,2-.84,3.05l-.27-.14L45,30.48c-.08-.23-.23-.23-.2,0a2.94,2.94,0,0,0,.45,1.27c.05.63.71,1.21.17,1.89-.14,1.19-.8.9-1.49.51-.69-.86-.62-2.48-2.32-2.33a1.73,1.73,0,0,0-.75-.52c-.44-.12-.67-1-1.31-.33-.16.17-.25.31-.1.56.51.88,1,.18,1.52,0a.69.69,0,0,1,.44.06c.83.45.68,1.32.94,2,.32.91.36,2.08,1.57,2.45.94.34,2.28.27,1.94,1.91-1.89.41-3.59,1.6-5.58,1.44-.68-.06-.47,1.59-1.1.56-.43-.72-1.56-1.2-1.1-2.45.28-.77.87-1.57.44-2.49-1,0-.27,2.14-1.83,1.54l-.17-.27c.14-1.26.11-2.46-1.12-3.26-1-.52-1-1.52-1.28-2.37,0,.07,0-.25-.05,0s.1.26.16.4c.16,1.2.73,2.28,1,3.45.26,1,.64,1.94.89,2.93A1.49,1.49,0,0,1,35.86,38.5Z"/><path class="cls-58" d="M39.06,22.61l-.94.44a2.18,2.18,0,0,1-1.49.7c-3.72.05-7.44.39-11.13-.44-.86-.19-1.73-.31-2.22-1.17,1.23-.92,2.54-.42,3.84-.23,1.78.26,3.57.62,5.31-.21l3.29,0c1.23-.61,2.64.21,3.87-.48h0a.33.33,0,0,1,.5,0l.47.9C40,22.22,39.45,22.12,39.06,22.61Z"/><path class="cls-59" d="M45.4,33.62l-.55-1.86c-.27-.53-.37-1,.48-.93l.07-.06c.75,1.79,1.51,3.57,2.26,5.36,0,.46-.11.94-.56.34A32.46,32.46,0,0,1,45.4,33.62Z"/><path class="cls-60" d="M28.09,41.35c1.19,0,2.49-.29,3.34.95.27.21.34.76.16.7C30.35,42.63,28.6,43.24,28.09,41.35Z"/><path class="cls-61" d="M33.82,38.94V36.49c.91,1.28,1.36,2,.51,2.94Z"/><path class="cls-62" d="M35.86,38.5l-.2-.85c-.16-.5-.22-1,.36-1.27a.63.63,0,0,1,.66.22h0c.08.6.15,1.2.22,1.8Z"/><path class="cls-57" d="M26.58,38.44c-1.06-1-.48-2.7-1.38-3.81-.45-1.59-.19-3.26-.67-4.87a10,10,0,0,0-2.58,1c-1.46,1-2.78.12-2.74-1.73a12.2,12.2,0,0,0-.31-2.11,4.43,4.43,0,0,1,0-1.36,1.57,1.57,0,0,1,.25-.65c.82-1.23,1.44,1.88,2.44.07a1.9,1.9,0,0,1,2.71-.57,3.39,3.39,0,0,1,.49.51,1.93,1.93,0,0,0,1.6.84c2.92.48,3.76,2.1,2.63,5h0c-1.63.66-.93-.93-1.38-1.42-.16-.25-.32-.72-.48-.71-.7,0-.52.63-.53,1C26.61,32.62,26.6,35.53,26.58,38.44Z"/><path class="cls-63" d="M27.66,29.37c.56.38.34,1.5,1.38,1.42-1.53,2.09-.76,4.52-1,6.79C27.33,34.87,27.74,32.11,27.66,29.37Z"/><path class="cls-64" d="M43.9,36.09c-2.39.47-1.64-1.78-2.29-2.78-.19-.29.22-1-.09-1.55h0c2.16-1,2.34-.83,2.39,2.39A1.68,1.68,0,0,0,43.9,36.09Z"/><path class="cls-63" d="M19.44,27c-.11.76,1.14,1.14.29,2.29-.74,1,1.12,1.69,1.36,1.39,1.05-1.28,2.49-1.41,4-1.57,0,1.69,1.21,3.58.14,5.56.18,1.43-.37,2.06-1.88,1.95a9.62,9.62,0,0,0-2.83.21c-.79.19-1.41-.07-1.6-.65a2.7,2.7,0,0,0-3.31-2c-.31-1.32.7-2.21,1.07-3.3.19-.39.38-.77.58-1.15a13.63,13.63,0,0,1,1.62-2.79A.49.49,0,0,1,19.44,27Z"/><path class="cls-65" d="M17.14,30.83l-1.56,3.28L14.2,36.6l-.11-.13a7.55,7.55,0,0,1-.76-1.5,3.48,3.48,0,0,1,.45-2.34c.74-1.11,1-2.7,2.67-2.93C17,29.91,17,30.38,17.14,30.83Z"/><path class="cls-66" d="M14.22,32.76c-.19.77-.39,1.54-.59,2.31a.58.58,0,0,1-.42.57c-.92.08-1,2.22-2.46,1-1.69-.85-3.27-2-5.3-1.95a2.8,2.8,0,0,1-1.86-1c.4-.6,2-.61,1-1.93a1.67,1.67,0,0,0,.22-1.58c-.28-.6.32-1.49.46-1.43,2.3.93,2.12-2.26,3.86-2.27.51,0,.22-.65.26-1,.12-1.19-.43-2.71,1.79-2.57.56,0,0-1.54,1.09-1.72l.27.09c.42.24.93.4.93,1-.62,2.11-.94,4.28-2.47,6.11a4.16,4.16,0,0,0-.93,3.8c.87.38.7-.57,1.06-.83C12.76,30.21,13.22,30.41,14.22,32.76Z"/><path class="cls-67" d="M5.45,34.67a12.33,12.33,0,0,1,1.84-1c1.85-.61.92,1.5,1.39,1.6.82.18,2-1,2.24.86,0,.14-.11.29-.17.44l-.92,0C8.34,36,6.74,35.7,5.45,34.67Z"/><path class="cls-68" d="M13.21,35.64l.42-.57c.56.33.55.85.46,1.4C13.45,36.55,13.26,36.17,13.21,35.64Z"/><path class="cls-69" d="M51.58,15.9l1.47-1.42A3.13,3.13,0,0,1,54.93,14c.6.79,1.28.46,2,.25.92-.26.47.37.39.73l-1.43,0C54.52,15.49,53.17,16.24,51.58,15.9Z"/><path class="cls-63" d="M29,30.79c-.05-.7-.07-1.41-.14-2.11-.18-1.58-.66-2.72-2.67-2.24a1.45,1.45,0,0,1-2-1.42l.25-.36c.17-.26.34-.51,0-.77-.08-.07-.17-.11-.19-.09-.18.23.06.53-.12.76-.86,0-1.72-.11-2.31.8C21,26.8,20.08,27.48,19.76,25c-.07,0-.19,0-.2.07a3.33,3.33,0,0,0-.13.45.76.76,0,0,1-.93.12c-.32-.43-.18-1.13-1.2-1-1.63.18-2.62-.75-2.8-2.43.09-.45,1-.54.7-1A1.37,1.37,0,0,0,13.33,21c-.33.22-.65.49-1.09.24h0c0-.32,0-.64,0-1a1.07,1.07,0,0,1,0-1.4h.44c.34.5.89.45,1.38.56,2.88-.21,5.28,1.15,7.74,2.33a1.55,1.55,0,0,0,1.46.43,38,38,0,0,0,13.44,1c.9.91.36,2,.28,3,0,.31.5-.1.19,0-.21-.85-.12-1.51,1-1.56.06,1-1,2.43,1.09,2.67.32,0,.44.71.21,1-.87,1.22-2.23.33-3.31.69-.91.31-.91-.4-.86-.94.18-1.76-.55-2.44-2.73-1.85l1.49-1.71c-1.31-.08-2.27-.05-2,1.75a20.22,20.22,0,0,1-.18,4.65c-.07.9-.66,1-1.35.61A2.89,2.89,0,0,0,29,30.79Z"/><path class="cls-70" d="M21.82,21.71c-2.77-.16-5.06-1.88-7.74-2.33.34-.63.95-.58,1.53-.6l.94,0c1,.83,2.32.81,3.4,1.41C20.76,20.48,22.46,19.63,21.82,21.71Z"/><path class="cls-71" d="M24.75,17.81a3.4,3.4,0,0,1,.45,0c-.55,1-2.21,2.23.74,2.27-.81.76-1.79.91-2.26.34a3.23,3.23,0,0,1-.43-2.37C23.33,17.59,24.23,17.93,24.75,17.81Z"/><path class="cls-72" d="M39.59,21.18c-1.19,1-2.58.29-3.87.48.7-.71,1.62-.33,2.43-.48Z"/><path class="cls-72" d="M40.08,21.2l-.5,0a1.55,1.55,0,0,1-.65-2c.34-.79,1.09-.27,1.63-.45a2.77,2.77,0,0,1,2.88-.46l4.8,0Z"/><path class="cls-73" d="M43.44,18.31a4.7,4.7,0,0,1-2.88.46c-.39-.5-1.17-.8-.57-1.72s1-.37,1.61-.21C42.4,17.08,43.32,17.2,43.44,18.31Z"/><path class="cls-74" d="M12.26,18.83c0,.47,0,.93,0,1.4a1,1,0,0,1-.94-.47C11.69,19.55,11.32,18.49,12.26,18.83Z"/><path class="cls-64" d="M41.52,31.76c-1.12-.11-.77,1.26-1.71,1.58-.26-.94-.51-2-2.42-1.51,2.85-2,2.85-2,4.13-.08Z"/><path class="cls-17" d="M36.68,36.6a1.09,1.09,0,0,1-.36-.12c-.93-.64-1-1.72-1.34-2.66a1.11,1.11,0,0,1,.72-1.08C37.49,33.65,37.32,35.06,36.68,36.6Z"/><path class="cls-75" d="M35.7,32.74l-.38.9c-.34.29-.1.9-.6,1.11a12.54,12.54,0,0,1-1-3.9c-.14-.5.07-.64.54-.5C34.84,31.1,34.69,32.26,35.7,32.74Z"/><path class="cls-76" d="M38.16,24.55l-1.44,2.19V23.1l1.4-.05C38.13,23.55,38.15,24.05,38.16,24.55Z"/><path class="cls-77" d="M34.72,34.75a1.3,1.3,0,0,1,.6-1.11,7.06,7.06,0,0,1,1,2.84c-.49.24-.55.72-.66,1.17A7.23,7.23,0,0,1,34.72,34.75Z"/><path class="cls-78" d="M45.33,30.83c-.43.17-.43.57-.48.93a3.79,3.79,0,0,1-.79-3.1A2.44,2.44,0,0,1,45.33,30.83Z"/><path class="cls-79" d="M34.3,30.35l-.54.5c-.54-.56-.61-1.32.11-1.53S34.21,30,34.3,30.35Z"/><path class="cls-80" d="M24.22,24.56c-.17-.55-1-.48-1.06-1.3,1.11-.38,1.88.23,2.86.93L24.25,25Z"/><path class="cls-81" d="M18.48,25.51h.95c0,.48,0,1,0,1.44L19,27c-.43-.07-1,.4-1.27-.28A1,1,0,0,1,18.48,25.51Z"/><path class="cls-82" d="M18,27c.34-.07.68-.54,1,0L17.59,29.9a1.38,1.38,0,0,1-.76-1.06A1.77,1.77,0,0,1,18,27Z"/><path class="cls-83" d="M17,28.86c.43.22.48.64.56,1l-.45.93a1.17,1.17,0,0,1-.62-1.1C16.29,29.2,16.31,28.82,17,28.86Z"/><path class="cls-84" d="M17,28.86l-.51.87c-1.23.66-1.43,2.09-2.3,3-1-.39-1.27-2.77-3-1a3.75,3.75,0,0,1-1.44.94c-.52-.08-1-.26-.71-.91.7-1.84.74-3.87,2.51-5.36,1.3-1.09.2-3.43,1.58-4.77l.31-.13a1.24,1.24,0,0,1,1.13.61c1,1,1.36,3.38,3.5,1.36.11-.1.53-.1.59,0,.49.72,0,1.35-.25,2-.15.49-.31,1-.46,1.47Z"/><path class="cls-85" d="M9.82,32.71c0-1,.74-1,1.44-.94-.08.71-.2,1.41-1,1.66C10.19,33.45,10,33,9.82,32.71Z"/><path class="cls-53" d="M12.24,21.2l.95-.5c.51-.29,1.26-.46,1.36.14.17.93-.89.54-1.35.83h0C12.68,21.91,12.21,22.07,12.24,21.2Z"/><path class="cls-66" d="M13.2,21.67l1-.75-1.05-.22c-.13-.45-.43-1,.5-.71s2.1.28,2.36,1.32c.16.66-.81.73-1.41.84Z"/></g></g></svg>