<svg xmlns="http://www.w3.org/2000/svg" viewBox="0 0 40.28 60.62"><defs><style>.cls-1{fill:#4a7c50;}.cls-2{fill:#5d8058;}.cls-3{fill:#396440;}.cls-4{fill:#d1e4d1;}.cls-5{fill:#72a25e;}.cls-6{fill:#3b6a40;}.cls-7{fill:#576e57;}.cls-8{fill:#688864;}.cls-9{fill:#3e6044;}.cls-10{fill:#505d4d;}.cls-11{fill:#2c6a3a;}.cls-12{fill:#66895e;}.cls-13{fill:#5d9f5a;}.cls-14{fill:#4b724c;}.cls-15{fill:#5b7d50;}.cls-16{fill:#306e3e;}.cls-17{fill:#236339;}.cls-18{fill:#487147;}.cls-19{fill:#607559;}.cls-20{fill:#4c744c;}.cls-21{fill:#276a3a;}.cls-22{fill:#456a48;}.cls-23{fill:#649160;}.cls-24{fill:#247241;}.cls-25{fill:#7ab06f;}.cls-26{fill:#61785b;}.cls-27{fill:#6dab64;}.cls-28{fill:#65a660;}.cls-29{fill:#5da255;}.cls-30{fill:#75ac63;}.cls-31{fill:#58a655;}.cls-32{fill:#a7cca6;}.cls-33{fill:#295e33;}.cls-34{fill:#1e6c3e;}.cls-35{fill:#2e8443;}.cls-36{fill:#568256;}.cls-37{fill:#4da24f;}.cls-38{fill:#7ab079;}.cls-39{fill:#63a75b;}.cls-40{fill:#3e6443;}.cls-41{fill:#1c6233;}.cls-42{fill:#46994e;}.cls-43{fill:#699771;}.cls-44{fill:#60a75b;}.cls-45{fill:#55a352;}.cls-46{fill:#6aa85f;}.cls-47{fill:#66aa5f;}.cls-48{fill:#549551;}.cls-49{fill:#b3d4b2;}.cls-50{fill:#5d875a;}.cls-51{fill:#8bb185;}.cls-52{fill:#77ab71;}.cls-53{fill:#418543;}.cls-54{fill:#6ea865;}.cls-55{fill:#b5d3ab;}.cls-56{fill:#458948;}.cls-57{fill:#91c18e;}.cls-58{fill:#327b46;}.cls-59{fill:#7c9773;}.cls-60{fill:#6aaa61;}.cls-61{fill:#5da658;}.cls-62{fill:#2f713d;}.cls-63{fill:#70a86a;}.cls-64{fill:#186b35;}.cls-65{fill:#62a260;}.cls-66{fill:#458549;}.cls-67{fill:#447e4c;}.cls-68{fill:#559d55;}.cls-69{fill:#89b383;}.cls-70{fill:#adc9a3;}.cls-71{fill:#7bb171;}.cls-72{fill:#7aae6e;}.cls-73{fill:#72ad67;}.cls-74{fill:#89ba7e;}.cls-75{fill:#7cb273;}.cls-76{fill:#78b06f;}.cls-77{fill:#499f4a;}.cls-78{fill:#55a250;}.cls-79{fill:#346c3b;}.cls-80{fill:#2b7a48;}.cls-81{fill:#79b06e;}.cls-82{fill:#84b473;}.cls-83{fill:#6bac64;}.cls-84{fill:#52a652;}.cls-85{fill:#457b42;}.cls-86{fill:#2e6d37;}.cls-87{fill:#497b47;}.cls-88{fill:#8cb876;}.cls-89{fill:#84b77b;}.cls-90{fill:#2f6333;}.cls-91{fill:#4f8248;}.cls-92{fill:#83b780;}.cls-93{fill:#96bb80;}.cls-94{fill:#8bb87d;}.cls-95{fill:#407344;}.cls-96{fill:#6cab67;}.cls-97{fill:#91bd88;}.cls-98{fill:#82b676;}.cls-99{fill:#86b778;}.cls-100{fill:#a1be81;}.cls-101{fill:#89b982;}.cls-102{fill:#8bbb82;}.cls-103{fill:#59a965;}.cls-104{fill:#51a351;}.cls-105{fill:#72ad69;}.cls-106{fill:#4a7647;}.cls-107{fill:#89b87f;}.cls-108{fill:#d0c15e;}.cls-109{fill:#597f52;}.cls-110{fill:#99c18b;}.cls-111{fill:#d0c468;}.cls-112{fill:#c4c06b;}.cls-113{fill:#85b87d;}.cls-114{fill:#8bb984;}.cls-115{fill:#39633b;}.cls-116{fill:#acc898;}.cls-117{fill:#efc640;}.cls-118{fill:#91c49f;}.cls-119{fill:#84c3a8;}.cls-120{fill:#b9c377;}</style></defs><title>sleevlessjacket</title><g id="Layer_2" data-name="Layer 2"><g id="Layer_1-2" data-name="Layer 1"><path class="cls-1" d="M5,41.24,3.81,39.36l-.63-1.28c0-.3,0-.6,0-.9.14-.59.21-1.25,1.09-1.1.84,1.32,1.38,2.81,2.23,4.13.11.82.18,1.63-.9,1.88C5.13,42,4.83,41.78,5,41.24Z"/><path class="cls-2" d="M36.37,11.22c-.86.42-.84,1.16-.85,2,0,3.47-.16,6.93-.24,10.39-.78,1.88.66,3.25,1.11,4.85l.47.9a1,1,0,0,1,.19,1,1.17,1.17,0,0,1-.79.65c-.72-.13-.82-.74-1-1.28a6.58,6.58,0,0,0-.91-1.84A5.65,5.65,0,0,1,33.79,25c0-.9,0-1.79,0-2.69A5.5,5.5,0,0,1,34,21.14a18.32,18.32,0,0,0,0-6.48,5.31,5.31,0,0,1,.53-3.24c.35-.75.8-1.62,1.93-1a.76.76,0,0,1-.1.74Z"/><path class="cls-3" d="M32.55,3.45l1.9.39a1.06,1.06,0,0,1,1.4.64,8.32,8.32,0,0,1,1.58,2.89l.55.9a.67.67,0,0,1-.16.62,1,1,0,0,1-1.36-.52c-.16-.27-.29-.55-.44-.81a4.35,4.35,0,0,0-1.11-1.34C34.09,5.45,33,5,32.37,4A.66.66,0,0,1,32.55,3.45Z"/><path class="cls-4" d="M25.77.55A1.59,1.59,0,0,1,28.1.47C29.34,1.75,31,2.12,32.48,2.88l0,.23c-1.53.91-2.91.42-4.23-.48-.61-.48-1-1.22-1.78-1.48A1.37,1.37,0,0,1,25.77.55Z"/><path class="cls-5" d="M25.77.55l.95.07a1.53,1.53,0,0,1,.84,1.44,1.47,1.47,0,0,1-.27.63c-.82.55-1.54,1.38-2.71,1.07-1-.87.41-1.43.29-2.18l.55-.9A.63.63,0,0,0,25.77.55Z"/><path class="cls-6" d="M35.23,59.57c-4.36.59-8.71,1.39-13.15.88A10.62,10.62,0,0,1,21,60.21a.94.94,0,0,1-.14-1,1.62,1.62,0,0,1,.56-.42,5.59,5.59,0,0,1,1.35-.21c1,.1,1.07-.82,1.5-1.35a.76.76,0,0,1,.61-.08,3.23,3.23,0,0,1,.69,1c1.08.73,2.2-.64,3.28.05a1.74,1.74,0,0,1,0-.68,1,1,0,0,1,.4-.48c1.24-.31,1.92,1.28,3.17.91.4,0,.8,0,1.2,0,.68-.07.64-.61.7-1.08A3.51,3.51,0,0,1,36,53.73a2.08,2.08,0,0,1,1.34-.2,1.3,1.3,0,0,1,.56.35.89.89,0,0,1,0,.62c-.3.38-.74.65-1,1.1s-.14.64.39.46a2.12,2.12,0,0,1,.54-.13,1.63,1.63,0,0,1,.58.08c.28.16.49.35.33.71A12.48,12.48,0,0,1,35.23,59.57Z"/><path class="cls-7" d="M37.78,37.08c.71,1.81,1.67,3.55,1.36,5.62-.15,1-.19,2.06-1.33,2.55L37.54,45a5.41,5.41,0,0,1-.38-2.55,11.41,11.41,0,0,0-1-5.18,1.1,1.1,0,0,1,.14-.71C37,36.12,37.42,36.5,37.78,37.08Z"/><path class="cls-8" d="M37.89,46.57a12.85,12.85,0,0,1,1.28,4c-.51.35.33,1.65-1,1.42a2.8,2.8,0,0,1-.57-1.6c0-1.11-1.13-1.88-1-3.05C37.07,47.09,37.61,47.05,37.89,46.57Z"/><path class="cls-9" d="M38.35,52l.82-1.46c.34.89-.3,2,.58,2.75a.88.88,0,0,1-.31,1.3A1.19,1.19,0,0,1,37.85,54l-.05-.06c-.36-.52-.08-1,.1-1.47A.94.94,0,0,1,38.35,52Z"/><path class="cls-10" d="M39.19,54.39c.45-.22.5-.65.56-1.08.74,1.46,1,2.77-1,3.41l-.53-.46C38,55.34,38.73,54.94,39.19,54.39Z"/><path class="cls-11" d="M37.89,46.57c-.07.65-.29,1.06-1,.61-.66-1.09-.54-1.81.9-1.91l0,0C37.83,45.69,37.86,46.13,37.89,46.57Z"/><path class="cls-12" d="M3.29,18.83l-.53-1c-.39-.5-.24-.83.34-1a4.59,4.59,0,0,1,2.38,2,4.42,4.42,0,0,1,.65,2c-.08.58,0,1.27-.87,1.34-.53-.79-.39-2-1.55-2.39C3.63,19.45,3.76,19,3.29,18.83Z"/><path class="cls-13" d="M7.6,3.05l-.15-.58C7.9,1.33,8.17,0,10,.57c-.11,1.8,1.86,2.32,2.32,3.78A2.3,2.3,0,0,1,12.46,6c-.61.66-.89,2.21-2.27.86a1,1,0,0,1-.1-.21c-.08-.42-.26-.56-.54-.39-.56.33-.85-.08-1.18-.39C7.55,5.09,7.7,4,7.6,3.05Z"/><path class="cls-14" d="M11.88,4.38c-.57-.62-1.15-1.24-1.71-1.87S9.07,1.32,10,.57c1.39,1.65,2.45,3.67,4.8,4.23l.56.57a1,1,0,0,1-.67.69A4.3,4.3,0,0,1,11.88,4.38Z"/><path class="cls-15" d="M24.87,1.58c1.35,1-.65,1.18-.52,1.9a1.43,1.43,0,0,1-.44.88c-1.08.74-1.94,1.85-3.38,2a7.53,7.53,0,0,0-2.32.07c-.79-.08-1.78.28-2-1,2.26-.12,4.47-.39,6.24-2Z"/><path class="cls-16" d="M16.18,5.47c.69.77,1.59.33,2.39.44a1.81,1.81,0,0,1,.55,1,12.17,12.17,0,0,1,.11,1.91,3.75,3.75,0,0,1-.48,2.2c-.36.31-.66.17-.92-.15a9,9,0,0,0-3.07-5l.56-.5Z"/><path class="cls-17" d="M.94,8.31C2.44,6.39,3.76,4.23,6.57,4c.23.51-.05.9-.32,1.29a15.1,15.1,0,0,0-4.13,5.18c-.25.51-.32,1.33-1.24,1.2a3.15,3.15,0,0,1-.1-2.55Z"/><path class="cls-18" d="M.78,9.14C1,10,.45,11,1.29,11.65A4.77,4.77,0,0,1,2,15.93a.54.54,0,0,1-.73.12L.35,15A8.58,8.58,0,0,1,.78,9.14Z"/><path class="cls-19" d="M17.17,60.07c0-.11-.05-.22-.07-.33a.55.55,0,0,1,.07-.73,3.17,3.17,0,0,1,2-.47,2.21,2.21,0,0,1,1.88.69l-.09,1Z"/><path class="cls-20" d="M13.26,59.22l-1.36-.1-2.44-.83L6.64,57.18c-.69-.66-1.79-1-1.53-2.34a.81.81,0,0,1,.57-.25c1.07.08,1.47,2,2.91,1.06,1.34-.61,2.34,1.13,3.68.54.48.67.6,1.56,1.25,2.14A.82.82,0,0,1,13.26,59.22Z"/><path class="cls-21" d="M5.74,54.82l-.63,0c-.32-1.26-.63-2.52-.94-3.78-.26-.56-.43-1.1.2-1.54,2.09.83,3,2.82,4,4.54.77,1.4-.78,1-1.53,1.06C6.45,55.07,6.21,54.54,5.74,54.82Z"/><path class="cls-22" d="M4.56,49.59c-.48.4-.3,1-.39,1.47-.31-.65-.63-1.31-.94-2,.12-1.75-.59-3.59.53-5.25.65-.11.75.38.9.82a34.85,34.85,0,0,0,.13,4.68Z"/><path class="cls-23" d="M4.15,30.35a4.94,4.94,0,0,0,1.42-2.88l.14,0a7.11,7.11,0,0,0,0-3.37l0-.49a1.06,1.06,0,0,1,1-.26,1.06,1.06,0,0,1,.54.48c.39,2.53,1.4,5.22-1.67,6.91-.47.17-.94.37-1.42,0C4.15,30.65,4.15,30.5,4.15,30.35Z"/><path class="cls-24" d="M4.14,30.8l1-.4a8.33,8.33,0,0,1-1,5.72l-1,1.06v0a5.2,5.2,0,0,1,0-3C3.4,33.1,3.63,32,3.85,31A.8.8,0,0,0,4.14,30.8Z"/><path class="cls-1" d="M3.17,34.18c0,1,0,2,0,3l-.52-1C2.84,35.5,2.59,34.73,3.17,34.18Z"/><path class="cls-25" d="M6.58,23.63l-.91,0c-.13-.49-.27-1-.41-1.47.44-.39.35-.91.37-1.41a.82.82,0,0,1,1-.16,1.84,1.84,0,0,1,.7,1.16A2.11,2.11,0,0,1,6.58,23.63Z"/><path class="cls-25" d="M5.7,24.14a3.2,3.2,0,0,1,0,3.37C5.71,26.39,5.7,25.26,5.7,24.14Z"/><path class="cls-26" d="M4.23,44.84c-.15-.33-.31-.67-.47-1,0-1.08.89-1.71,1.28-2.59l.58.67c.26.44.07.85,0,1.27C5.2,43.8,5.28,44.78,4.23,44.84Z"/><path class="cls-27" d="M4.15,36.12a17.15,17.15,0,0,1,1-5.72c2.24-.83,2-2.72,1.89-4.52-.06-.75-.5-1.49.05-2.23l.24-.2a3.53,3.53,0,0,1,2.88,1C9.83,29.31,8,34,7.74,38.84a1.33,1.33,0,0,1-1,1.39A1,1,0,0,1,6.08,40C4.59,39.12,4.39,37.61,4.15,36.12Z"/><path class="cls-28" d="M6.08,40l.51,0a8,8,0,0,1,.77,5.24c-.47,3.08.38,5,2.56,6.09,1.17,1,.61,2.9,2,3.77a1.59,1.59,0,0,1,.52.89c0,.11-.07.22-.11.34-1.19.69-2.4,1.5-3.12-.54l-.33.57c-1-.2-2.17-.07-2.24-1.56l1.57-.16-3.66-5a.85.85,0,0,1,.24-.09c.42-2.19-.09-4.44.36-6.63l.47-.95C6.31,41.4,6.06,40.66,6.08,40Z"/><path class="cls-29" d="M37.76,8.79l-1.4,1.89c-2.23.53-1.47,2.5-1.9,3.91a21.68,21.68,0,0,1,0,6.63c0,.35,0,.7,0,1.05a.44.44,0,0,1-.48.06c-1.15,0-1.5-.72-1.52-1.73a5.79,5.79,0,0,1,0-1,4.9,4.9,0,0,0-.05-3.83c-.5-1.22-.81-2.59.17-3.82a13,13,0,0,0,2-2.65c.58-.72,1.05-1.66,2.24-1.47A1,1,0,0,0,37.76,8.79Z"/><path class="cls-30" d="M36.35,35.15l0,.54c-.52.37-.38,1.16-.94,1.52a1.33,1.33,0,0,1-1.17-.38,11.94,11.94,0,0,1-1.63-2c-.36-.81-.61-1.66-.89-2.5-.06-1.1-1.89-2.71.85-3,.77.78,1.59,1.92,1.87-.31a1.34,1.34,0,0,1,.51-1,2.28,2.28,0,0,1,.86,1.55c-.32,1.66.46,3.12.86,4.65A1.1,1.1,0,0,1,36.35,35.15Z"/><path class="cls-31" d="M34.91,28c0,.48,0,1,0,1.42-.08.71.37,1.75-.84,1.88s-1.56-.79-1.55-1.85c-.34-1.71-.22-3.29,1.22-4.52a.77.77,0,0,1,.71.19A5.12,5.12,0,0,0,34.91,28Z"/><path class="cls-32" d="M36.36,34.27a4.07,4.07,0,0,1-.59-4.75l.52,1.38c.52.36.5.92.54,1.47A2,2,0,0,1,36.36,34.27Z"/><path class="cls-33" d="M34.45,21.22c0-2.21,0-4.42,0-6.64A10.62,10.62,0,0,1,34.45,21.22Z"/><path class="cls-34" d="M36.39,32.25c0-.45-.07-.9-.1-1.35l.55-.58a1.64,1.64,0,0,0,.38.1c0,.6,0,1.21.05,1.81A.51.51,0,0,1,36.39,32.25Z"/><path class="cls-35" d="M34.43,25.09H34a2,2,0,0,1,0-2.82,2.06,2.06,0,0,1,.43,0C34.42,23.21,34.42,24.15,34.43,25.09Z"/><path class="cls-36" d="M28.18,2.07a8,8,0,0,0,4.34,1,2,2,0,0,1,0,.34c0,.16,0,.32,0,.48a1.47,1.47,0,0,1-1.25.56,3.16,3.16,0,0,1-1-.14c-.76-.63-2.25-.25-2.4-1.73A1,1,0,0,1,28.18,2.07Z"/><path class="cls-37" d="M36.78,7.81c-1.91.88-2.06,3.3-3.8,4.33C31.1,10,31.52,8.41,34.35,7a2.14,2.14,0,0,1,2,.35Z"/><path class="cls-38" d="M31.1,4l1.43-.08,2.85,2c.61,1.42-.41.92-1,.89A11.24,11.24,0,0,1,31,4.61.52.52,0,0,1,31.1,4Z"/><path class="cls-39" d="M34.41,6.39c.49.2,1,.42,1-.46a2.68,2.68,0,0,1,.95,1.41h-1.9l-.19-.2A.59.59,0,0,1,34.41,6.39Z"/><path class="cls-40" d="M28.18,2.07a2.52,2.52,0,0,0-.06.47c-.5.23-.63-.21-.87-.47-.17-.48-.35-1-.53-1.45C28,.36,27.79,1.5,28.18,2.07Z"/><path class="cls-41" d="M27.25,2.07l.87.47c.18,1.13,1.64.47,2,1.4,0,1.58-1.36,2.26-2.18,3.29C27.06,8,26.36,9,25,8.5a4.44,4.44,0,0,1-.5-2.12,1.29,1.29,0,0,1,.27-.58c.75-.45,2.36.1,2-1.69a2.44,2.44,0,0,1,.43-1.62Z"/><path class="cls-42" d="M27.13,2.49l.1,2c-.61,1.16-1.49.74-2.35.39a2.15,2.15,0,0,1-1-.87l.48-.5C25.51,3.8,26,2.29,27.13,2.49Z"/><path class="cls-43" d="M36.39,32.25l.88,0,.5.54c-.07,1,0,2.15-1.42,2.38,0-.29,0-.58,0-.88Z"/><path class="cls-44" d="M38.22,52.4l-.42,1.5-1.44,0c-2-.79-4-1.19-6-.22a1.66,1.66,0,0,1-1.81-.24,2.26,2.26,0,0,1-.45-1.1c.08-3.12-.7-6.22-.13-9.34.41-1.36-.93-2.87.32-4.17a1.82,1.82,0,0,1,1.49-.22,1.24,1.24,0,0,1,.59.42c1.08,2.34.59,5.25,2.64,7.24a2,2,0,0,1,.33.59,2.11,2.11,0,0,1-.52,1.72c-1.05,1.63-.81,2.06,1.17,2.3.55.06,1.1.05,1.64.14a3.25,3.25,0,0,0,.93.12c-.14-.23-.42-.36-.42-.67a.94.94,0,0,1,.28-.6,1.12,1.12,0,0,1,1.49.52C38.2,51,37.8,51.79,38.22,52.4Z"/><path class="cls-45" d="M28.67,53.41c1.68.14,3-1.45,4.77-1,1.1.29,2.47,0,2.92,1.49a3.37,3.37,0,0,0-1.46,3.35c-.48.35-.6,1.17-1.41,1-.29-.26-.57-.71-1-.1-1.69,1.64-2.07-1.25-3.37-1C28.32,56.06,27.73,54.84,28.67,53.41Z"/><path class="cls-46" d="M21,59.23l-2-.08c-.37-1.33-2.26-1.39-2.41-2.9a2,2,0,0,1,.29-1.31A1.1,1.1,0,0,1,18,54.65c2.21.43,2-.71,1.43-2.13a1.36,1.36,0,0,1,.5-.42c.83-.19.92-.88,1.09-1.57.13-.52.21-1.39,1.16-.71,1,1.72-.28,3.83.9,5.52,2.46-.24,3,.16,2.41,1.71a.51.51,0,0,1-.75.26,1.36,1.36,0,0,1-.29,0c-.42.32-.71.85-1.33.86-.79-.07-1.2.52-1.67,1A2.71,2.71,0,0,0,21,59.23Z"/><path class="cls-47" d="M24.74,57.31c.62-.42.79-1.39.36-1.51-.65-.19-1.49.28-2.25.46-.61-.78-.36-1.7-.41-2.58a2.33,2.33,0,0,1,.2-1,1.51,1.51,0,0,1,2-.15c1.45,1.43,2.72.49,4.05-.05v1c.16,1.29.32,2.57.49,3.85h0c-1-.08-2.39-1.39-2.41,1.1,0,1-1.15.62-1.86.31Z"/><path class="cls-45" d="M24.88,58.67c.31-.37,1.43.78,1.19-.66a1.74,1.74,0,0,1,1.27-2.13c1.25-.41,1.2.93,1.81,1.38,0,.59.07,1.19.13,2.34C27.85,57.46,26.17,60.2,24.88,58.67Z"/><path class="cls-48" d="M21.45,59.14c.12-.85-.37-2.33,1.46-1.41a1,1,0,0,1,0,1.42Z"/><path class="cls-47" d="M22.92,59.15c0-.47,0-.95,0-1.42l1.54-.45C24.27,58.18,24.49,59.39,22.92,59.15Z"/><path class="cls-49" d="M39.19,54.39c.24.93-.59,1.28-1,1.87l-.31,0a1.25,1.25,0,0,1-.11-1.86.9.9,0,0,0,.08-.4Z"/><path class="cls-50" d="M37.77,54.36c0,.62.07,1.24.11,1.86l-.5.08c-.94.34-.75-.53-1-.93A1.44,1.44,0,0,1,37.77,54.36Z"/><path class="cls-51" d="M36.38,55.37l1,.93c-.12.44-.24,1-.82.77C35.7,56.67,35.94,56,36.38,55.37Z"/><path class="cls-52" d="M33.49,58.22c.49-.29.66-1,1.41-.94.18,1.09-.26,1.55-1.36,1.36-.17-.08-.24-.17-.2-.27S33.44,58.22,33.49,58.22Z"/><path class="cls-53" d="M33.49,58.22a1,1,0,0,0,0,.42l-1-.41c.09-.38-.29-1,.36-1.06S33.41,57.78,33.49,58.22Z"/><path class="cls-54" d="M37.76,50.54l-1.41-.49c-.86-.83-.62-1.93-.65-2.93-.06-2.31-.33-4.61-.51-6.91a3.4,3.4,0,0,1,.38-2.53.74.74,0,0,1,.67-.26c1.07,1.44.77,3.3,1.48,4.85l.05,3c-.93.34-1,1.07-.9,1.91l1.35,2.93A.91.91,0,0,1,37.76,50.54Z"/><path class="cls-55" d="M37.72,42.27c-1.57-1.25-.93-3.15-1.41-4.71q-.15-.16-.06-.27a.21.21,0,0,1,.14-.09A6.12,6.12,0,0,1,37.72,42.27Z"/><path class="cls-56" d="M36.39,37.2a.94.94,0,0,1-.08.36,3.4,3.4,0,0,0-.45,0c-.43.1-.59-.08-.52-.5,0-.66,0-1.39,1-1.4,0,.27,0,.55.08.83Z"/><path class="cls-57" d="M37.76,50.54l.46-.43c0,.64.09,1.27.13,1.91,0,.13-.08.26-.13.38C37.53,51.92,37.86,51.17,37.76,50.54Z"/><path class="cls-58" d="M13.26,59.22c0-.35,0-.69,0-1-.45-.86-.3-1.84.74-1.22s2.45,1,3.14,2.19c0,.2,0,.4,0,.59l-1.37-.11c-.76-.53-1.71,0-2.48-.41Z"/><path class="cls-59" d="M1.22,16.05,1.83,16a.81.81,0,0,1,.95-.2,1.16,1.16,0,0,1,.56.83L3.22,17c-.39.19-.43.55-.46.92Z"/><path class="cls-60" d="M2.77,16H1.83a17.2,17.2,0,0,1-.54-4.34A9.89,9.89,0,0,1,6.11,5c2-.64,2.2,1.2,3,2.18C8.75,8.22,8.2,9,6.86,8.46c-.27-.11-.69-.68-.7.17,0,1.82.09,3.63.14,5.45,0,1,.93,1.38,1.57,1.94A4.94,4.94,0,0,1,8,23.17c-.59-.3-.74-.9-1-1.44a1,1,0,0,1-.47-1c0-.87,1-1.82-.51-2.55-1.08-.51-.52.63-.94.63A5.38,5.38,0,0,1,3.22,17l0,0C3.52,16.39,3.21,16.16,2.77,16Z"/><path class="cls-61" d="M5.14,18.85c.05-.65-.6-1.35.16-1.94C6,18.11,10,18.19,6.59,20.77h-1C5.47,20.13,5.3,19.49,5.14,18.85Z"/><path class="cls-62" d="M9,7.33C7.94,6.63,7.65,5,6.11,5L6.57,4l1-1c1.22.58-.12,2.58,1.77,2.73l.28-1.55c1.26.67.6,1.75.84,2.58a1.36,1.36,0,0,1-1,.7A.82.82,0,0,1,9,7.33Z"/><path class="cls-63" d="M14.76,5.86c2.46.67,3.33,2.44,3.33,4.82a1.16,1.16,0,0,1-.93.39,1.79,1.79,0,0,1-.64-.21c-.19-.14-.43-.29-.48-.51-.38-1.58-1.18-.71-1.91-.35A2.5,2.5,0,0,1,12,8.21,2.48,2.48,0,0,1,12.28,6c-.13-.54-.27-1.08-.4-1.62A9.71,9.71,0,0,1,14.76,5.86Z"/><path class="cls-64" d="M12.28,6l.08,2.28c.12,2.27-1.28.46-1.91.71-.6-.34-1.12-.75-1-1.55a1.2,1.2,0,0,1,1.08-.63C11.63,7.75,11.32,5.47,12.28,6Z"/><path class="cls-65" d="M23.87,4a.93.93,0,0,1,.93.44,1.82,1.82,0,0,1,0,1.48,3.27,3.27,0,0,0,0,.44c-.13.2-.12.57-.25.63-1.24.62-2.11,1.8-3.48,2.2a10,10,0,0,1,.53,4.43c-.07,1,.43,2.26-.86,3-1.34-1-.68-2.47-.86-3.74.22-.9-.48-1.3-1-1.79a8.38,8.38,0,0,0-.19-2.29l-.06-1.86c.44-.7,1.37-.45,1.91-1C21.91,5.73,22.57,4.3,23.87,4Z"/><path class="cls-66" d="M20.52,5.91a1.81,1.81,0,0,1-1.91,1c0-.32,0-.64,0-1C19.22,5.41,19.87,5.89,20.52,5.91Z"/><path class="cls-67" d="M17.15,10.69h1l.44.44.13.35c-.64.89-1.44.78-2.29.37C15.71,10.83,16.89,11.07,17.15,10.69Z"/><path class="cls-67" d="M18.67,8.73c.65.72.3,1.59.38,2.4a.28.28,0,0,1-.43.08l-.08-.09C18.58,10.32,18.63,9.53,18.67,8.73Z"/><path class="cls-68" d="M17.15,59.15c-1.07-.57-2.38-.45-3.23-1.76-.49-.75-.48.44-.65.79-2,.21-.92-1.11-.93-1.88l0-.07a2,2,0,0,1,2-.33c.77.48,1.31.13,1.76-.51.9-.4.67.54,1,.83.09.5.27,1,.85,1,1.8-.13,1.41.92,1.12,1.95Z"/><path class="cls-69" d="M6.65,54.77c.49.9,1.56.95,2.24,1.56-1.73.93-2.33-.52-3.15-1.51,0-.2,0-.55.13-.58C6.3,54.12,6.48,54.45,6.65,54.77Z"/><path class="cls-70" d="M5.16,42.87c0,2.22,1.42,4.51-.36,6.63-1.29-1.42-.69-3.07-.57-4.66Z"/><path class="cls-27" d="M7.06,21.73a1.62,1.62,0,0,1,1,1c-.27.36-.65.62-.95.95h0l-.49,0A3.43,3.43,0,0,1,7.06,21.73Z"/><path class="cls-25" d="M7.08,23.64A.86.86,0,0,1,8,22.69c.85-3.75,2-5.19-1.71-6.78-.79-.34-.68-1-.68-1.62,0-2.46,0-4.92,0-7.52.79.32,1.06,1,1.44,1.49a9.22,9.22,0,0,0,1.49,3.89c.43.51.75.78,1.57.24-.82-.07-1.52-.22-1.36-1.09a2.66,2.66,0,0,1,2.17-2.23A6.81,6.81,0,0,1,14,10.47c1.1,1.89.94,2.57-1,3.29-.87.31-1.38.71-1.39,1.63,0,.48,0,1,.43,1.29s.75-.29,1.07-.58c.68-.6,1.25-1.48,2.39-1a4.81,4.81,0,0,1,.76,1.75c.05,3.14.56,6.3-.3,9.41-.78.6-1-.07-1.13-.58a20.1,20.1,0,0,1-.2-3.1c-.11-.94.82-2.42-1.41-2.37-1.79,0-2.61.72-2.82,2.38,0,.31,0,.64-.07.95a1.18,1.18,0,0,1-.36.56C8.85,24.82,8.07,23.58,7.08,23.64Z"/><path class="cls-71" d="M10,24.13v-.49c1.17,0,1.61.75,1.75,1.73a5.79,5.79,0,0,0,.51,2c.43,1,1,1.95,1.38,3a1.83,1.83,0,0,1,0,.66,3.62,3.62,0,0,1-1.82,2.34c-1.17.49-1.3,1.36-1.43,2.35C8.08,36.47,8.73,38.4,8.65,40c0,.9.29,1.78.22,2.68s-.32,1.7-.45,2.56c-.18,1.18-.22,2.28.91,3.16a2.77,2.77,0,0,1,.83,2.8l-.22.26A3.85,3.85,0,0,1,6.67,47a62.44,62.44,0,0,0-.08-7c1.19-2.15,1.07-4.62,1.27-6.9.13-1.47,2.24-2.92.35-4.51C10.08,27.6,8.63,25.32,10,24.13Z"/><path class="cls-72" d="M11.86,55.34c-2.4-.4-1.29-2.55-1.92-3.84v0c1-1.63,3.16-1.3,4.39-2.54a1.57,1.57,0,0,1,.61,0c.17-.24.27.71.43,0,.1-.48.06-1,.77-.86.74.64.63,1.52.67,2.36a4,4,0,0,1-.3,1.77c-2.21.51-.46,1.8-.53,2.74a1.1,1.1,0,0,1-.33.57A2.23,2.23,0,0,1,13,54.72c-.95-1-.36.7-.86.48Z"/><path class="cls-72" d="M14.72,56.32l-2.36-.09-.5-.89,0,0c1.19-.73,2,0,2.94.64Z"/><path class="cls-39" d="M27.73,6.88l2.36-2.94,1,.07c0,.14,0,.28,0,.42.38,1.81,2.31,1.83,3.34,2.9h0C32.31,8.44,32,10.08,33,12.14a2.67,2.67,0,0,0-.12,3.07c.7,1.55,1,3,.12,4.61a.65.65,0,0,1-.84-.61C32,17,30.26,15.56,29.91,13.5c-.09,1.7-.64,3.32-.61,5s-.29,3.34,1.57,4.44c.89.52.67,1.71.68,2.67,0-3.06.24-3.77,1.43-4.83,0,.3-.06.73.11.87.44.37.3-.37.47-.36.75,0,.22.67.42,1,0,.94,0,1.88,0,2.82-1.22,1.2-.66,3-1.47,4.34-2.29.61.29,2-.47,2.87-.94.93-1.43,2.57-3.26,2.12a1,1,0,0,1-.36-.58,2,2,0,0,1,.74-1.44A4.41,4.41,0,0,0,30.27,28a10.92,10.92,0,0,1-.4-2.88c0-.43-.45,0-.15-.12.09,0,.14,0,.15.16a10.59,10.59,0,0,1-.5,4.9c-.25.65-.38,1.41-1.29,1.5a1,1,0,0,1-.64-.34,39.23,39.23,0,0,1-1.78-5.8c-.91-3.31-.23-6.55.4-9.78a20.17,20.17,0,0,0-1.8-6.41.61.61,0,0,1,.54-.7c1.89-.37,2.61.49,2.55,2.32a5.38,5.38,0,0,0,.33,2.79C28.41,11.37,27.42,9.12,27.73,6.88Z"/><path class="cls-73" d="M33,20.77a16.79,16.79,0,0,0-1,6.3c-1-.48-.9-1.3-.91-2.05s0-1.56-.53-1.76c-3.74-1.52-1.36-4.57-1.7-6.88a17.87,17.87,0,0,1,.32-3c0-.47-.37-1.28.53-1.29.64,0,.8.61.92,1.2.48,2.29,2.19,4.15,2.36,6.56Z"/><path class="cls-74" d="M33,34.7a5,5,0,0,1,1.45,1.91c.18.27.42.56.39.86-.35,3.91.62,7.7,1,11.55a3.16,3.16,0,0,1-.11,1.18.84.84,0,0,1-.52.49c-1.81-.5-1.64-2.08-1.84-3.45a2.12,2.12,0,0,0-.39-.55h0c-.72-1.56-2.56-2.88-1-4.91-1.34-.43-1.22-1.86-1.87-2.76h0c-1.52-2.1-1.21-3.58.91-4.82A1.26,1.26,0,0,1,33,34.7Z"/><path class="cls-75" d="M35.38,50.52A45.65,45.65,0,0,0,34,42.3c-.39-2,.58-3.77.41-5.69l.91.48c.17.17.34.34.52.5-.2,4.17.81,8.29.49,12.46v.48A.67.67,0,0,1,35.38,50.52Z"/><path class="cls-76" d="M33,34.7A2.48,2.48,0,0,0,29.66,37a12.43,12.43,0,0,0,.45,2H28.67a4.25,4.25,0,0,1,0-4.79c1.67.32,1.78-2.07,3.35-1.93A4.67,4.67,0,0,1,33,34.7Z"/><path class="cls-77" d="M34.43,7.33C33,7.77,32.31,6.22,31,6.13c-.62,0-.54-1.13.09-1.7l3.32,2C34.42,6.71,34.42,7,34.43,7.33Z"/><path class="cls-78" d="M27.73,6.88c1.51,1.21.58,2.93.87,4.39.14.71-.38,1.47,0,2.3.24.57.24,1.45-.56,1.56s-1-.8-1.07-1.35a14.68,14.68,0,0,1-.16-3.31c.09-1.44-.59-1.84-1.86-1.68-.18-.06-.25-.13-.2-.22s.1-.14.16-.14C26.1,8.44,26.76,7.36,27.73,6.88Z"/><path class="cls-79" d="M24.87,8.43c0,.12,0,.24,0,.36l-.54.47c-.31,1-1.41,1.13-2,1.83-.47,1.12-.16,2.31-.27,3.46-.08.89.16,1.91-.88,2.47a.38.38,0,0,1-.3-.56A32.3,32.3,0,0,0,20.4,8c.77-.25,1,1.11,1.27.56a4.12,4.12,0,0,1,3.11-2.18A3.13,3.13,0,0,1,24.87,8.43Z"/><path class="cls-80" d="M24.82,5.9a1.41,1.41,0,0,1,0-1.48c.81.09,1.61.75,2.43,0C27.71,7.07,26,6,24.82,5.9Z"/><path class="cls-81" d="M26.27,25.57a23.29,23.29,0,0,1,1.43,5.75c-.39,1.58-1.16,3.18.41,4.6a1.12,1.12,0,0,1,.24,1.33c-1.19,2-.18,3.77.31,5.62-.65,3.19.29,6.38,0,9.57-1.54,2.17-1.66,2.11-4,.59-.32-.22-1.18-.26-1.73-.6-.77-.78-.54-1.7-.34-2.61.55-.38,1.15-.56,1.17-1.56.05-2.58-.22-5.25,1.15-7.65a1.12,1.12,0,0,0,.13-.93c-1.39-3.16.45-6.42-.33-9.61a5.31,5.31,0,0,1,.12-2.37,7.32,7.32,0,0,1,.74-2.07A.48.48,0,0,1,26.27,25.57Z"/><path class="cls-39" d="M28.66,42.87c-.56-1.79-2.54-3.37-.69-5.52.57-.66-.23-1.05-.69-1.49-1.28-1.24-1.08-3.11.42-4.54l0,0c1,.74.15,2.07.94,2.86l0,0c0,1.6,0,3.19,0,4.79C27.45,40.29,29.14,41.58,28.66,42.87Z"/><path class="cls-54" d="M35.38,50.52h1c0,.37,1.33.86.07,1a10.34,10.34,0,0,1-4-.24c-1.36-.35-1.6-1.4-.72-2.55.5-.66,1.47-1,1.24-2.1h.46c.54,1.26-.1,3,1.46,3.83Z"/><path class="cls-76" d="M30.11,39c.6,1.37,3.06,1.81,1.76,4.22-.49.91,1.37,2.05,1.13,3.45-1.65-.47-1.82-2.08-2.25-3.3A22.47,22.47,0,0,1,30.11,39Z"/><path class="cls-82" d="M21.91,49.55c-.62.55-.48,1.3-.42,2,.12,1.36-.71,1-1.46.93-1.12-.65-1.21-2.4-2.76-2.59a1.41,1.41,0,0,1-.45-.52A1.84,1.84,0,0,1,17,47.68a.94.94,0,0,1,.67-.16c.59.08,1.26.55,1.76-.05.65-.76-.18-1.26-.48-1.84a1.39,1.39,0,0,1-.13-.7c.62-1.67,1.72-2.21,3.39-1.44a9.47,9.47,0,0,1,0,5.77Z"/><path class="cls-83" d="M17.19,49.55c2.4-.45,2.25,1.58,2.84,2.9h-.49c-.85.64-.7,2.75-2.65,1.78-.61-1.17-.07-2.4-.2-3.6A1.36,1.36,0,0,1,17.19,49.55Z"/><path class="cls-84" d="M17.18,54.36c1.33,0,.63-2.45,2.36-1.9a3.49,3.49,0,0,0,.59.72c.57.39,1,.82.75,1.56s-1.05.53-1.64.59a3.46,3.46,0,0,1-2.06-.46.36.36,0,0,1-.1-.34C17.11,54.41,17.14,54.36,17.18,54.36Z"/><path class="cls-85" d="M17.18,54.36v.51c0,.45-.06.9-.08,1.35l-.89-.9L16,55c-.14-.87-.57-1.75.15-2.57l.1-1.9a.56.56,0,0,1,.87,0C17.12,51.8,17.15,53.08,17.18,54.36Z"/><path class="cls-86" d="M22.88,53.41l0,2.85c-1.17-.17-.89-1.09-.9-1.82,0-1.63,0-3.26,0-4.89l.07.06c1,0,.59.83.67,1.33C22.78,51.76,22.45,52.62,22.88,53.41Z"/><path class="cls-87" d="M22.88,53.41c-1.08-1.08.19-2.72-.9-3.8,0-2.09,0-4.19,0-6.28-.73-1.16,0-2.39-.19-3.58C22.11,38.68,21,37,23,36.64c1,1.48.38,3.16.6,4.74-.18,2.48.15,5-.2,7.46a1.71,1.71,0,0,1-.47.74c0,1,0,1.9,0,2.85C22.93,52.76,22.91,53.09,22.88,53.41Z"/><path class="cls-88" d="M2.77,16c.41-.12.9-.7,1.21-.09s-.29.81-.74,1C3.08,16.61,2.92,16.3,2.77,16Z"/><path class="cls-89" d="M10.92,9.21c-.67.8-1.88,1.24-1.71,2.54.88.86.73-1.86,1.58-.43.46.77-.19,1.54-.9,2-.88.53-1.7.17-1.76-.78-.11-1.78-.85-1.39-1.91-.4-.08-1.58,1.29-2.52.85-3.83,1,.45,1.09-1,1.9-.94a2.18,2.18,0,0,1,.44.11l1.05,1.32A1.17,1.17,0,0,1,10.92,9.21Z"/><path class="cls-90" d="M10.92,9.21l-.46-.45c.39-1.12,1.65,1.2,1.9-.48a4.87,4.87,0,0,0,1.91,1.45,4.65,4.65,0,0,1,2.43.92,2.28,2.28,0,0,1,.45,0l-.9,1-.29.12a1.72,1.72,0,0,1-.91-.21,2.8,2.8,0,0,1-1.27-.85Z"/><path class="cls-91" d="M16.7,10.65a4.38,4.38,0,0,1-2.43-.92c.84-.41.12-1.31.48-1.94C16.36,8.21,15.91,9.85,16.7,10.65Z"/><path class="cls-92" d="M20.92,16.46c0,.15.07.29.11.44,1.72,2.26,1,4.81.9,7.29-.38.83-.94,1.26-1.87.8a8.09,8.09,0,0,0-2.14-1.07c-1-.59-1.61-1.73-.31-2.09,2.48-.68,2.13-2.11,1.62-3.83a15.41,15.41,0,0,0-.08-4.18c-.12-.81-.32-2.05,1.3-1.69C20.74,13.55,20.08,15.09,20.92,16.46Z"/><path class="cls-93" d="M20.45,12.13c-1.19.26-.91,1.07-.69,1.86a5.93,5.93,0,0,1-.21,4.38c-.41.92-.56.91-1.29-.07a3.7,3.7,0,0,1,.26-1.8c.41-1.59-.4-1.72-1.63-1.35a.8.8,0,0,1-.53-.38,4.48,4.48,0,0,1-.12-3.06h0c.8-.14,1.69.21,2.37-.5a2.31,2.31,0,0,0,.43-.08C20.12,10.61,20.66,10.84,20.45,12.13Z"/><path class="cls-72" d="M16.21,55.32c-.05.68.07,1.48-.81,1.72-.53.15-.57-.36-.68-.72l0,0c.28-.34.63-.61.93-.94l0,0c.16-.21.31-.2.47,0Z"/><path class="cls-94" d="M11.87,27.49c-1.42-.89-.07-3.16-1.92-3.85C8.63,21.28,11.19,20.5,11.87,19c1,.48,2,1,3.15.43a8.86,8.86,0,0,1,.2,2.16c0,1.67,0,3.33,0,5l-.24.24C14,27,13.09,28,11.87,27.49Z"/><path class="cls-95" d="M17.1,50.53h-.87c-.14-.83.16-1.73-.47-2.47-1.33-1.91-.53-4-.62-6.09.29-1,0-2,.17-3.06.37-1.69-.4-3.31-.27-5,0-1.66-.5-3.28-.47-4.95a3.32,3.32,0,0,1,.68-2.43h0c1-3.32.17-6.7.41-10-.05-1.16-1-2.39.23-3.48.88.47.28,1.37.68,1.94l.19,0a3,3,0,0,1,.59,2.11c.34,3-.5,6-.5,9a97,97,0,0,0,1,12,15.19,15.19,0,0,1,0,3.09,16.6,16.6,0,0,1-.48,5.39c-.32,1-.77,2-.25,3l.08,0Z"/><path class="cls-96" d="M13.78,10.77l1.39.45c.93,1.25.24,2.53,0,3.8-.6.85-1.82,1-2.11,2.34-.18.84-1.14.66-1.67,0A3.27,3.27,0,0,1,11,14.41c.24-.95.83-1.25,1.91-1.29C14.75,13.06,14.27,11.84,13.78,10.77Z"/><path class="cls-67" d="M15.21,15c0-1.27,0-2.54,0-3.8l1.07.49A5.49,5.49,0,0,1,16.58,15l-.91-1.89V16.5C15.2,16.1,15.25,15.55,15.21,15Z"/><path class="cls-97" d="M15.76,39.07c-.2.79.65,1.58,0,2.37-1.16,0-1.22-1.26-2.17-1.52-.18.23.33.73,0,1.09-1.4,1.46-1.07,2.33.9,2.61.76.11,1,.5,1,1.27,0,1.44-.59,2.78-.73,4.2h0c-.47.17-1-.18-1.39,0-1,.37-2,1.67-3.12.42s-2.36-2.76-2-4.79c.11-.61-.17-1.26.23-1.83C8.36,41.89,7.85,41,8,40c.66-1.38-.18-3.56,2.13-4.09.15,0,.37-.16.45-.1C12.21,37.06,14.29,37.6,15.76,39.07Z"/><path class="cls-98" d="M15.25,26.55c-.28,2.58.45,5.1.42,7.67-.59.5-1.11,1.35-2,.9-1.46-.74.68,1.17-.65.83a7,7,0,0,0-2.31-.1l-.26-.2c-.69-1.1-1.94-2.24.73-2.52,1-.11,1.51-1.43,2.15-2.29a1.32,1.32,0,0,0,.35-.67.73.73,0,0,0-.37.21,5.56,5.56,0,0,1-1.42-2.89C13,27,13.93,26.17,15.25,26.55Z"/><path class="cls-99" d="M8.5,42.85c0,2.23.18,4.36,1.85,6.1.6.62,1.42.94,1.77.26.92-1.79,1.75-.41,2.63-.12C13.68,51,11.6,50.78,10,51.48a7.34,7.34,0,0,0-1.81-3.22C7,47.15,7.62,44.65,8.5,42.85Z"/><path class="cls-98" d="M10.43,36.13C8.44,36.67,9,38.82,8,40c0-1,.05-2,.15-3.06.14-1.46,1-1.8,2.25-1.26h0c.16.11.21.22.16.32S10.48,36.13,10.43,36.13Z"/><path class="cls-100" d="M13.29,30.38c.13-.56-.25-1.26.76-1.87.28,1.07.31,1.81-.74,2.33A3.54,3.54,0,0,0,13.29,30.38Z"/><path class="cls-101" d="M14.75,49.09c.15-1.12-1.09-2.24.41-3.43.8-.64-.39-1.33-1.1-1.72-1.43-.79-.3,1.24-1.41,1-.82-.81.26-2.43-1-3.29-.25-.18,0-.68.38-.64,2.35.27.81-1.08.77-1.84,1.62-.06,2.35,1,2.9,2.27q0,3.31,0,6.62c0,.67-.08,1.33-.13,2.14Z"/><path class="cls-102" d="M15.69,55.34a.83.83,0,0,1-.93.94,4.75,4.75,0,0,0-2.88-1c0-.29.16-.7,0-.87-.37-.44-.53-.82,0-1.19s.87.06,1.08.5A2.64,2.64,0,0,0,15.69,55.34Z"/><path class="cls-103" d="M16.19,55.33h-.47c0-.84-.93-1.14-1-2-.12-1.44.43-1.42,1.41-.88Z"/><path class="cls-104" d="M28.66,34.2c-1.73-.48-.63-1.91-.94-2.86,1.77-1.36,1.4-3.49,1.88-5.3a12.2,12.2,0,0,0,0-2.53c.7,1.53.47,2.57.91,3.51,1.05,2.21.87,4.33-1.15,6A1.65,1.65,0,0,0,28.66,34.2Z"/><path class="cls-81" d="M26.27,25.57h-.49c-1.15.09-.92-1.12-1.5-1.58a2.83,2.83,0,0,1-.33-.62A10.45,10.45,0,0,1,26.1,15a.43.43,0,0,1,.64,0,7.64,7.64,0,0,1-.61,3.73C25.07,21,26.39,23.29,26.27,25.57Z"/><path class="cls-105" d="M26.74,15h-.48a1.26,1.26,0,0,1-1.78-1,4.59,4.59,0,0,0-2.57-3.17.36.36,0,0,1,.1-.59l2.36-1c.94.14,2.94-.36.92,1.54C26.63,11.91,26,13.71,26.74,15Z"/><path class="cls-75" d="M34.91,50.53c-2.08-.67-1.23-2.45-1.45-3.83C34.23,47.87,34,49.42,34.91,50.53Z"/><path class="cls-106" d="M22,10.24a2.34,2.34,0,0,0-.07.45A2,2,0,0,1,22.55,12c-.08,3.82.75,7.62.42,11.45-.73,1.46.16,3.28-1,4.63-1.78-.94-1.07-2.2-.45-3.45A39.73,39.73,0,0,0,21,16.9c.9-1.27.22-2.72.43-4.06C21.6,12,21.07,10.94,22,10.24Z"/><path class="cls-107" d="M23,41.42l-.09-4.78a.45.45,0,0,1,.08-.59c1.38.44.17,1.88.9,2.39-.54-2.7,0-5.63-.41-8.51A2.8,2.8,0,0,1,25,27.42l.33.07c0,3.14-.39,6.41-.1,9.36.26,2.66-.34,4.75-.7,7.16a44.55,44.55,0,0,0-.22,7.26c-1.27-.22-.63-1.4-1.34-1.69,0-.17,0-.33,0-.49A22.2,22.2,0,0,0,23,41.42Z"/><path class="cls-107" d="M24.83,23.66c.78.4.18,1.5,1,1.91-.06.67.23,1.42-.47,1.92h0a10.51,10.51,0,0,1-.92-.73C22.62,25.07,22.65,24.81,24.83,23.66Z"/><path class="cls-101" d="M16.72,46.57c.56-1.68.3-3.44.47-5.16,1.74.05,3.44,0,4.62-1.6a.54.54,0,0,1,.57.24A9.31,9.31,0,0,1,22,43.33c-1,.57-2.52.31-2.88,1.86a2.92,2.92,0,0,1-1.87,1.74A.53.53,0,0,1,16.72,46.57Z"/><path class="cls-108" d="M17.11,46.72l2-1.53c.94.69,2.1,1.3,1,2.73s-2,.2-3-.32A.61.61,0,0,1,17.11,46.72Z"/><path class="cls-85" d="M17.11,46.72c0,.29,0,.59,0,.88,0,.66,0,1.31,0,2-.8-.92-.33-2-.39-3A.93.93,0,0,0,17.11,46.72Z"/><path class="cls-109" d="M22.38,40.05a1.82,1.82,0,0,0-.4-.11c-1.15-1.29-.72-2.86-.73-4.32a36.09,36.09,0,0,1,.16-5,26.41,26.41,0,0,0,1-5.58.54.54,0,0,1,.74.28A28.14,28.14,0,0,1,23,36.15l-.09.49C22,37.68,22.65,38.93,22.38,40.05Z"/><path class="cls-81" d="M23,41.42a10.13,10.13,0,0,1,0,7.67C23,46.53,23,44,23,41.42Z"/><path class="cls-110" d="M22,30.32l0,9.62c-.27.28-.72.53-.78.85-.32,1.91-1.36,1.77-2.69,1.08a9.8,9.8,0,0,0-1.32-.46c.07-5-1.13-9.92-.91-14.92.14-3.16.33-6.32.5-9.48.83-.15,1.3.4,1.81.89.09.61.2,1.2,1,.47.15.27.31.53.46.79,1,1.65,1.28,2.79-1.39,2.7-1.1,0-1.81.73-.51,1.75.2.67-.48,1.66.55,2,.74.24.87-.74,1.39-1a1.23,1.23,0,0,0,1.43,0c.15,1.15-.24,2.36.42,3.45A2.59,2.59,0,0,1,22,30.32Z"/><path class="cls-111" d="M20.05,24.61c-.14.71.27,1.69-.88,1.89a1.36,1.36,0,0,1-1.62-.63c-.53-1-.1-1.63.56-2.26C18.87,23.73,19.88,23.37,20.05,24.61Z"/><path class="cls-112" d="M18.59,17.9A1.84,1.84,0,0,1,16.78,17c0-.69,0-1.38,0-2.07.54-.58,1.11-1.27,2-.67a1.55,1.55,0,0,1,.43,2.1C18.93,16.86,18.78,17.39,18.59,17.9Z"/><path class="cls-101" d="M10.43,36.13v-.48h2.36c0-.7-.6-.34-1-.77l3.92-.66c-.2,1.62,1,3.22.09,4.85-1-.21-1.71-1.21-3-.67-.7.31-1.44-.23-1.18-1.17C11.94,36,11.1,36.19,10.43,36.13Z"/><path class="cls-113" d="M22.88,25.14l-.4-.11a1,1,0,0,1-.08-1.35c0-4.34-.84-8.64-.46-13,1.67.13,2.95.7,2.89,2.67,0,1,.74,1.29,1.43,1.66a4.13,4.13,0,0,1-1.07,2.79c-1.2,1.54-.83,3.83-.83,5.83C23.85,24.13,23.17,24.44,22.88,25.14Z"/><path class="cls-114" d="M22.88,25.14c-.06-1.05.36-1.61,1.48-1.5l.47,0c-2.57,1.61.62,2.51.47,3.83-2.52,2-.7,4.68-1,7-.19,1.47-1,3.23.64,4.56.11.09-.16.91-.76,1C23,39,23.85,37.31,23,36.15Q22.93,30.64,22.88,25.14Z"/><path class="cls-115" d="M22.4,23.68c0,.45.05.9.08,1.35-.35,1.75.46,3.6-.47,5.29,0-.76-.07-1.52-.11-2.27C22.23,26.61,21.46,25,22.4,23.68Z"/><path class="cls-116" d="M17.63,30.38c-.15-.44-1.05-.08-.91-.84a1.32,1.32,0,0,1,1.14-1.06c2.81-.73,3.94.65,3.12,3.82a.65.65,0,0,1-.95,0v-1C19.5,30.32,18.58,30.33,17.63,30.38Z"/><path class="cls-117" d="M20,34.23a4.53,4.53,0,0,0,.21.9,1.36,1.36,0,0,1-.63,1.78,1.2,1.2,0,0,1-1.09,0,1.43,1.43,0,0,1-.62-1.8,9.08,9.08,0,0,0,.22-.9,1.09,1.09,0,0,1,1.46,0,2.28,2.28,0,0,0,.45,0Z"/><path class="cls-118" d="M17.63,30.38c.54-.4.89-1.21,1.76-.88s.55,1.17.63,1.83C19.18,31.13,17.94,31.92,17.63,30.38Z"/><path class="cls-119" d="M20,32.31H21c-.06.78.31,1.77-1,1.93h0C20,33.59,20,33,20,32.31Z"/><path class="cls-120" d="M19.56,34.19H18.1c.07-.39.12-.8.61-.86S19.48,33.7,19.56,34.19Z"/></g></g></svg>