<svg xmlns="http://www.w3.org/2000/svg" viewBox="0 0 85.55 69.23"><defs><style>.cls-1{fill:#fae7d9;}.cls-2{fill:#c1accd;}.cls-3{fill:#aa86b5;}.cls-4{fill:#ccb0ce;}.cls-5{fill:#dbcbdc;}.cls-6{fill:#f8ddcc;}.cls-7{fill:#fae7cc;}.cls-8{fill:#e5614d;}.cls-9{fill:#d39183;}.cls-10{fill:#ee9a7d;}.cls-11{fill:#ec6f44;}.cls-12{fill:#f8e3d6;}.cls-13{fill:#f3bca6;}.cls-14{fill:#e5805f;}.cls-15{fill:#c09cc3;}.cls-16{fill:#8f74ae;}.cls-17{fill:#e7523f;}.cls-18{fill:#e37659;}.cls-19{fill:#d98c78;}.cls-20{fill:#e88569;}.cls-21{fill:#e96f4c;}.cls-22{fill:#e45544;}.cls-23{fill:#eb937c;}.cls-24{fill:#ebcab5;}.cls-25{fill:#e87e63;}.cls-26{fill:#e94736;}.cls-27{fill:#eb634c;}.cls-28{fill:#db956e;}.cls-29{fill:#dc795e;}.cls-30{fill:#ea886c;}.cls-31{fill:#e27d64;}.cls-32{fill:#ec683e;}.cls-33{fill:#cba7ca;}.cls-34{fill:#a476aa;}.cls-35{fill:#e1715a;}.cls-36{fill:#e0533e;}.cls-37{fill:#eea18d;}.cls-38{fill:#ef6947;}.cls-39{fill:#e8614d;}.cls-40{fill:#f19a81;}.cls-41{fill:#d66f55;}.cls-42{fill:#da7e66;}.cls-43{fill:#9174ae;}.cls-44{fill:#decbe2;}.cls-45{fill:#9c85b7;}.cls-46{fill:#9775af;}.cls-47{fill:#ae91b9;}.cls-48{fill:#d9d4aa;}.cls-49{fill:#e6563a;}.cls-50{fill:#f4bfa4;}.cls-51{fill:#f3ae88;}.cls-52{fill:#df6554;}.cls-53{fill:#f0946f;}.cls-54{fill:#f5a57f;}.cls-55{fill:#ee826a;}.cls-56{fill:#eda484;}.cls-57{fill:#e84338;}.cls-58{fill:#e97964;}.cls-59{fill:#e15d44;}.cls-60{fill:#ed5229;}.cls-61{fill:#827a88;}.cls-62{fill:#e95b31;}.cls-63{fill:#977bab;}.cls-64{fill:#9e7cb1;}.cls-65{fill:#4ca24b;}.cls-66{fill:#729771;}.cls-67{fill:#ec6437;}.cls-68{fill:#ed5c30;}.cls-69{fill:#fbd9c8;}.cls-70{fill:#f7ac92;}.cls-71{fill:#fac1a4;}.cls-72{fill:#f5af8d;}.cls-73{fill:#f29871;}.cls-74{fill:#ed774a;}.cls-75{fill:#ec8c64;}.cls-76{fill:#ec6a50;}.cls-77{fill:#f3c5af;}.cls-78{fill:#ef784d;}.cls-79{fill:#ee8156;}.cls-80{fill:#eb663f;}.cls-81{fill:#ec412e;}.cls-82{fill:#f5a27b;}.cls-83{fill:#f4a482;}.cls-84{fill:#f3c0a8;}.cls-85{fill:#f5ae8f;}.cls-86{fill:#f7d0bb;}.cls-87{fill:#eb7448;}.cls-88{fill:#a96f93;}.cls-89{fill:#896da5;}.cls-90{fill:#7d8ba2;}.cls-91{fill:#edab96;}.cls-92{fill:#d75833;}.cls-93{fill:#f8eae0;}.cls-94{fill:#df725a;}.cls-95{fill:#9b81b5;}.cls-96{fill:#7f9d82;}.cls-97{fill:#9c8cba;}.cls-98{fill:#838490;}.cls-99{fill:#f7ceb9;}.cls-100{fill:#fad8c4;}.cls-101{fill:#e88964;}.cls-102{fill:#f7c9b1;}.cls-103{fill:#ec815b;}.cls-104{fill:#e7cab9;}.cls-105{fill:#f0a989;}.cls-106{fill:#f2aa8b;}.cls-107{fill:#ef7b5a;}.cls-108{fill:#f19974;}.cls-109{fill:#ec9068;}.cls-110{fill:#f49d79;}.cls-111{fill:#f6b89b;}.cls-112{fill:#f5b291;}.cls-113{fill:#a8619a;}.cls-114{fill:#936ba2;}.cls-115{fill:#e5b1c7;}.cls-116{fill:#9782b8;}.cls-117{fill:#727ca3;}.cls-118{fill:#129f5c;}.cls-119{fill:#9896a9;}.cls-120{fill:#c2adcd;}.cls-121{fill:#a994c4;}.cls-122{fill:#f7cbb4;}.cls-123{fill:#f1a37f;}.cls-124{fill:#f7c1a5;}.cls-125{fill:#f19975;}.cls-126{fill:#f9bfa1;}.cls-127{fill:#f0885d;}.cls-128{fill:#df7c5a;}.cls-129{fill:#f4b397;}.cls-130{fill:#f9e2d4;}.cls-131{fill:#fcddcb;}.cls-132{fill:#ee7f54;}.cls-133{fill:#f7d4c1;}.cls-134{fill:#faf1e9;}.cls-135{fill:#f6dfd0;}.cls-136{fill:#a0729e;}.cls-137{fill:#b49ec5;}.cls-138{fill:#eeb4c3;}.cls-139{fill:#4ea24b;}.cls-140{fill:#34a24c;}.cls-141{fill:#877794;}.cls-142{fill:#9d76ae;}.cls-143{fill:#90968e;}.cls-144{fill:#788ba0;}.cls-145{fill:#6ca34a;}.cls-146{fill:#b8a3c9;}.cls-147{fill:#5ca15b;}.cls-148{fill:#5ea161;}.cls-149{fill:#a996c2;}.cls-150{fill:#919b9e;}.cls-151{fill:#7d9d80;}.cls-152{fill:#48a057;}.cls-153{fill:#bfb5d1;}.cls-154{fill:#08a04d;}.cls-155{fill:#56a25f;}.cls-156{fill:#66a350;}.cls-157{fill:#a1a199;}.cls-158{fill:#f7c6ae;}.cls-159{fill:#f8c7ae;}.cls-160{fill:#f5ac8d;}.cls-161{fill:#f8c8ae;}.cls-162{fill:#f3bba3;}.cls-163{fill:#f19971;}.cls-164{fill:#ec8b5d;}.cls-165{fill:#bc7175;}.cls-166{fill:#f5ab88;}.cls-167{fill:#f9b998;}.cls-168{fill:#f69f78;}.cls-169{fill:#f8c5a9;}.cls-170{fill:#f1b499;}.cls-171{fill:#a694bf;}.cls-172{fill:#956e98;}.cls-173{fill:#de735d;}.cls-174{fill:#8e7fae;}.cls-175{fill:#b697c2;}.cls-176{fill:#8e7a8d;}.cls-177{fill:#9a7db6;}.cls-178{fill:#a66689;}.cls-179{fill:#649c73;}.cls-180{fill:#7d6caf;}.cls-181{fill:#7c9579;}.cls-182{fill:#6aa44f;}.cls-183{fill:#00a04b;}.cls-184{fill:#928b6c;}.cls-185{fill:#5da050;}.cls-186{fill:#6e9a82;}.cls-187{fill:#dfb8cc;}.cls-188{fill:#61965f;}.cls-189{fill:#b9acb3;}.cls-190{fill:#f6b598;}.cls-191{fill:#f29467;}.cls-192{fill:#f1b593;}.cls-193{fill:#f0af92;}.cls-194{fill:#fac298;}.cls-195{fill:#f9cfb8;}.cls-196{fill:#fcdcc8;}.cls-197{fill:#e7aa89;}.cls-198{fill:#dd8c6b;}.cls-199{fill:#e08971;}.cls-200{fill:#b1758b;}.cls-201{fill:#957ab3;}.cls-202{fill:#5ba04c;}.cls-203{fill:#a790c0;}.cls-204{fill:#c0aed2;}.cls-205{fill:#e2afc7;}.cls-206{fill:#f2b3c4;}.cls-207{fill:#9880b7;}.cls-208{fill:#90aaa6;}.cls-209{fill:#89a688;}.cls-210{fill:#0aa15b;}.cls-211{fill:#3e9e5b;}.cls-212{fill:#c4abca;}.cls-213{fill:#b5b4bf;}.cls-214{fill:#96a5b2;}.cls-215{fill:#dec9dc;}.cls-216{fill:#a6b3ba;}.cls-217{fill:#e79e7e;}.cls-218{fill:#e39371;}.cls-219{fill:#45a154;}.cls-220{fill:#b2a1c9;}.cls-221{fill:#8b88a7;}.cls-222{fill:#dab0c9;}.cls-223{fill:#91a0a3;}.cls-224{fill:#5c9f5e;}.cls-225{fill:#0ba454;}.cls-226{fill:#a494c2;}.cls-227{fill:#b4b0d5;}.cls-228{fill:#2ca257;}.cls-229{fill:#60a148;}.cls-230{fill:#808b90;}.cls-231{fill:#679977;}.cls-232{fill:#7375a9;}.cls-233{fill:#efb3c6;}.cls-234{fill:#f0bac7;}</style></defs><title>sweater1</title><g id="Layer_2" data-name="Layer 2"><g id="Layer_1-2" data-name="Layer 1"><path class="cls-1" d="M13.54,67.32c-.19.44-.38.89-.58,1.33l-1.9.58-.52-.12c-.1-1,.78-1.13,1.28-1.62a2.22,2.22,0,0,1,1.5-.4A2.39,2.39,0,0,1,13.54,67.32Z"/><path class="cls-2" d="M25.44,4.42l.52-.6c.22-.47.92-.75.56-1.45,0-.16,0-.33,0-.5,1.75-.9,2.9.85,4.46,1a36.77,36.77,0,0,1,6.1,1.84c-1.11,1.3-2.73.07-4,.8A3.57,3.57,0,0,1,31.58,6C30,5.92,28.85,4.1,27.07,5a1.41,1.41,0,0,1-.95.1A1.41,1.41,0,0,1,25.44,4.42Z"/><path class="cls-3" d="M33.18,5.26c-.17-.44-.46-1,.44-.68a8.32,8.32,0,0,0,3.44.17l2.31.08c1.2.66,2.77-.61,3.83.74a.79.79,0,0,1,.14.68c-1.43,1.31-3.35.74-5,1.29C36.65,6.72,34.44,7.05,33.18,5.26Z"/><path class="cls-4" d="M43.21,5.75c-1.22-.54-2.69-.07-3.84-.92a18,18,0,0,0,6.24-1.94,3.53,3.53,0,0,1,2.54,0,1.18,1.18,0,0,1,.08,1,1.86,1.86,0,0,1-.72.75C46.11,5.15,44.83,6.1,43.21,5.75Z"/><path class="cls-5" d="M48,2.88a1.88,1.88,0,0,1-2.38,0c.92-1.37,2-2.43,3.83-2.38.58.57.58.57,2.33-.51.46.61.09,1.12-.2,1.64A5.37,5.37,0,0,1,48,2.88Z"/><path class="cls-6" d="M9.62,30.74c.51-1.35,1.79-2.31,1.93-3.84a.45.45,0,0,1,.66.11,3.5,3.5,0,0,1-1.51,4,1.35,1.35,0,0,1-1.1-.22Z"/><path class="cls-7" d="M12.07,26.9h-.52c-.21-.9.44-1.38.94-1.94l.57.06a.88.88,0,0,1,.12.87A2.42,2.42,0,0,1,12.07,26.9Z"/><path class="cls-8" d="M74.84,63.41a5.49,5.49,0,0,0-1.78-2,10.89,10.89,0,0,0-2.93-3.86,10.64,10.64,0,0,0-2-2.82c-.35-.28-.77-.51-.84-1,.19-2.21-1.13-3.86-2.17-5.59a34.43,34.43,0,0,1-2.08-3.94,2.5,2.5,0,0,1-.14-1c.1-.49.27-.92.85-1,2.29,2,3.45,4.77,4.71,7.44.45.76,1,1.49,1.45,2.22.57,1.31,1.64,2.32,2.22,3.63,1.11,3.06,3.95,4.7,5.84,7.13a4.58,4.58,0,0,1,.67.84c.23.48.39.95-.22,1.29a2.16,2.16,0,0,1-2.53-.41Z"/><path class="cls-9" d="M63.4,44.19c1.57,3.12,4.6,5.57,4.32,9.53-1.53.1-1.41-1.38-2-2.16a11,11,0,0,1-1.34-2.18c-.5-1.09-1-2.18-1.51-3.26-.42-.46-.89-.92-.78-1.6C62.27,43.51,62.72,43.34,63.4,44.19Z"/><path class="cls-10" d="M61.4,47.61l.51,0A1,1,0,0,0,62,48c.14,1.12.51,2.24-.19,3.31-.65,1.86-1.47,3.56-3.75,3.86a1,1,0,0,1-.67-1c.46-1,1.58-1.44,2.14-2.37.13-.17.28-.32.42-.48C61.28,50.41,60.5,48.68,61.4,47.61Z"/><path class="cls-11" d="M57.57,54.24c.16.31.33.62.49.94l-.44.54-1.9.49C55.54,54.81,55.83,53.85,57.57,54.24Z"/><path class="cls-12" d="M61.81,51.32c.06-1.1.13-2.21.19-3.31C62.59,49.15,62.9,50.28,61.81,51.32Z"/><path class="cls-13" d="M1.86,66.34A3.07,3.07,0,0,1,0,65.3c0-.32,0-.64,0-1l.54-1a.57.57,0,0,1,.61.08,5.66,5.66,0,0,1,1.06,2.4A.8.8,0,0,1,1.86,66.34Z"/><path class="cls-14" d="M71.56,27c.64,2.57,2.53,4.42,3.81,6.62.14.64.29,1.27.43,1.91a1.22,1.22,0,0,1-1.38.21,2.23,2.23,0,0,1-1-1c-1.67-4.3-4.79-7.88-6.15-12.34a11.51,11.51,0,0,0-1.33-2.37A2,2,0,0,1,66,18.35a.74.74,0,0,1,1-.18l1.12,2.13a.83.83,0,0,1,.42.87C69.33,23.23,69.91,25.41,71.56,27Z"/><path class="cls-15" d="M59.47,5.37a9.69,9.69,0,0,0,2.46,2.36c1.41,1.82,2.84,3.61,4.2,5.46.47.63,1.37,1.21.68,2.22-1.08-.61-2.44-.74-3.2-1.89a5.17,5.17,0,0,0-1.94-2.7c-1-1.61-2.52-2.74-3.57-4.28A4.31,4.31,0,0,1,58,4.75a1.09,1.09,0,0,1,.58-.2A1,1,0,0,1,59.47,5.37Z"/><path class="cls-16" d="M63.88,13.45c.82.89,2.62.31,2.92,2L67,18.17l-.76.08a1.17,1.17,0,0,1-.91.37,1.6,1.6,0,0,1-.63-.2,26.23,26.23,0,0,0-2.43-2c.15-1.34-.56-2.63-.23-4a1.21,1.21,0,0,1,.41-.51C63.61,11.79,63.4,12.93,63.88,13.45Z"/><path class="cls-17" d="M83.12,50.43l.27.5c.21.62.43,1.24.65,1.86.67,1.26.07,1.67-1.13,1.66-.54,0-1.11.09-1.52-.4s-.58-1.31-.93-1.94a2.86,2.86,0,0,1-.21-.58,12.23,12.23,0,0,0-.49-1.77c-.74-1.48-.33-3.38-1.68-4.65a2.26,2.26,0,0,1-.24-1c-.28-1.81-1.39-3.3-1.89-5-.21-.7-1.18-1.75.4-2.19,1,.93,1.23,2.29,2,3.37.76.4.44,1.32.9,1.85Z"/><path class="cls-18" d="M82.62,53.79c.88.25,1.56.2,1.42-1,2.71,1.55,1.08,3.47.45,5.31-.57.21-.92-.1-1.21-.54C84.05,56.13,81.91,55.21,82.62,53.79Z"/><path class="cls-19" d="M82.54,63.32,80.69,64A5.21,5.21,0,0,1,80,62.53a1.26,1.26,0,0,1,0-.64,5,5,0,0,1,2-2,1,1,0,0,1,.62.1,1.12,1.12,0,0,1,.2.58,1,1,0,0,1-.2.55c.18.12.14-.13.25-.16.32-.52,0-1.51,1.12-1.38C84.48,61.18,83.58,62.28,82.54,63.32Z"/><path class="cls-20" d="M84,59.55c-.79.39-.17,1.52-1,1.89-.36-.2-.16-.67-.45-.9l0-.58c-.29-.54-.21-1.19-.53-1.72.3-.69.7-1.15,1.51-.64l1,.5C84.61,58.67,84.26,59.09,84,59.55Z"/><path class="cls-21" d="M27.37,55.14a5.37,5.37,0,0,1-3.08-4.2c.59-.4.78.16,1.16.6a4.88,4.88,0,0,1-.74-4.33c.87-.82,1.4-.21,1.84.48a11.16,11.16,0,0,0,1.27,1.94,1.19,1.19,0,0,1,.24.63c-.08.58-.55,1-.73,1.49s.09,1.22.56.93c1.33-.82,2.22.42,3.33.48a1.21,1.21,0,0,1,.29.6,1.76,1.76,0,0,1-.75,1.46C29.63,55.47,28.52,54.46,27.37,55.14Z"/><path class="cls-22" d="M25,47a11.55,11.55,0,0,0,.35,3.5c.41,1.73-.68.36-1.08.42q-.39-2.64-.77-5.3c-.33-2.35-.89-4.68-.56-7.08a2.49,2.49,0,0,1,.09-.46c.25-.66.47-1.62,1.25-1.52s.8,1.07.82,1.78c.08,1.9,0,3.8,0,5.7,0,.71,0,1.43.06,2.14A1.37,1.37,0,0,1,25,47Z"/><path class="cls-23" d="M23.52,38.45v7.19c-.74-.67-.33-1.59-.5-2.38A1.79,1.79,0,0,1,23,41c-.91,1.07,0,3-1.82,3.33a1.66,1.66,0,0,1-.8-1.17c.15-1.55,0-3.21,1.4-4.33.35-.38.19.88.61.19C22.69,38.57,23,38.22,23.52,38.45Z"/><path class="cls-24" d="M21.18,44.22c1.44-.7.46-2.56,1.84-3.62v2.66a22.93,22.93,0,0,0-2.35,6.2l-1.4,1.94c-1.07-1.38.24-2.48.44-3.72.41-1,.66-2,1-3A1.17,1.17,0,0,1,21.18,44.22Z"/><path class="cls-25" d="M30.26,56.65l-1.93-.81-1-.7c1.17-2,2.25-.41,3.37.07l.29.15C31.76,56.38,30.77,56.37,30.26,56.65Z"/><path class="cls-26" d="M.94,63.4a2.57,2.57,0,0,0-.4-.08v-.86C1,61.7.46,60.76,1,60c.56-1.73.56-3.62,1.39-5.29.71-2,.76-4.11,1.61-6,.26-.57.3-1.69,1.15-1.54s.74,1.23.77,2a5.36,5.36,0,0,1-.09.7c-.61,3.68-1.46,7.31-2.29,10.94a5,5,0,0,1-1.15,2.36A1.26,1.26,0,0,1,.94,63.4Z"/><path class="cls-27" d="M5.3,49.93V47.45c-2,2.16-1.55,5.08-3,7.26a41.31,41.31,0,0,1,3.4-12.48c.93-.8.16-2.75,2-2.94a1.42,1.42,0,0,1,.43.92c.05,1.26-.75,2.23-1.13,3.35a3.64,3.64,0,0,0-.1,2.56,2.66,2.66,0,0,1-.32,1.32C6.08,48.22,6.86,49.7,5.3,49.93Z"/><path class="cls-28" d="M7.68,39.34c-1.28.54-.76,2.28-1.94,2.89.29-1.26.57-2.52.85-3.78L7.7,35.54c.42-.59.3-1.44,1-1.91l.08,0c.25-.46.5-.93,1.09-.37C10.16,35.67,8.72,37.44,7.68,39.34Z"/><path class="cls-13" d="M1,60a3.09,3.09,0,0,1-.41,2.46C.45,61.6.26,60.73,1,60Z"/><path class="cls-29" d="M46.5,59.47l-2.36-.09c-1.46.27-2.94-.31-4.43.17a1.28,1.28,0,0,1-1.59-1.06c.37-2,1.93-1.11,3.07-1.27a18.13,18.13,0,0,0,4.71.27.81.81,0,0,1,.66-.57.87.87,0,0,1,.77.55A1.7,1.7,0,0,1,47,59.06a3,3,0,0,1-.52.42Z"/><path class="cls-30" d="M38.41,58.14c.19,1.17,1.11.82,1.83.91,1.3.16,2.65-.36,3.9.33-1,1.11-2.23-.18-3.32.18a2,2,0,0,1-2.41,0L36,59.5c-1.34-.82-3.18-.53-4.29-1.9a2.49,2.49,0,0,1,2.13-.53,4.46,4.46,0,0,1,.73.13,8.89,8.89,0,0,0,2.52.32A1.76,1.76,0,0,1,38.41,58.14Z"/><path class="cls-31" d="M18.25,53.78c0,.3,0,.6,0,.91-1.67,1.89-1.75,4.38-2.45,6.64-.47,1.24-.42,2.65-1.24,3.79-1.3.83-1.94.47-1.78-1.07a11.52,11.52,0,0,1,.72-2.48c.71-1.88,1.46-3.74,2.21-5.61a9.38,9.38,0,0,0,.58-2.67,1.83,1.83,0,0,1,.42-.94C17.83,52.14,17.9,53.12,18.25,53.78Z"/><path class="cls-32" d="M13,25.94c0-.31,0-.61.07-.92l.38-.05c.74-.64,1.06-1.67,2-2.13a1.15,1.15,0,0,1,1,.08,7.62,7.62,0,0,0,3.1,3.58,1.6,1.6,0,0,1,.44.53,6.72,6.72,0,0,1-.78,3.73c-.48.78-.7,1.77-1.7,2.11-.36-.06-.83,0-.69-.62-.33.29,0,.56,0,.84a2.35,2.35,0,0,1-.11,1.15,1,1,0,0,1-.45.46c-1.5.11-2.07-.68-1.75-2a7.64,7.64,0,0,0-.41-3.74A13.61,13.61,0,0,0,13,25.94Z"/><path class="cls-33" d="M26,4.82h.8c.5,1.88-1.4,2.53-2,3.87-.18.28-.37.54-.57.8-1.2,1.67-2.08,3.61-3.94,4.73-.77.26-1.08,1.41-2.14,1.12.26-2.05,1.9-3.38,2.77-5.13a2.93,2.93,0,0,0,.15-2.39,2.61,2.61,0,0,0,2.44-.56C24.33,6.39,24.88,5.31,26,4.82Z"/><path class="cls-34" d="M18.21,15.34c.72-.39.91-1.48,1.94-1.47A1.23,1.23,0,0,1,20,15.4c-1.8,2.29-3.59,4.55-2.64,7.77a.91.91,0,0,1-1-.06l-.94,0a.73.73,0,0,1-1.13,0A24.91,24.91,0,0,1,18.21,15.34Z"/><path class="cls-35" d="M14.25,23l1.13,0A2.46,2.46,0,0,1,13.44,25Z"/><path class="cls-36" d="M57.57,54.24c-1.23.08-1.44,1.13-1.85,2l-.94.47a9,9,0,0,1-4.86.71,1,1,0,0,1-.6-.33c-.23-1.52,1-1.44,1.87-1.57a7.56,7.56,0,0,0,5.27-2.91,2.74,2.74,0,0,1,3.6-.69A5.21,5.21,0,0,1,57.57,54.24Z"/><path class="cls-37" d="M49.49,57A2.47,2.47,0,0,0,50,57c1-.32,1.76-.1,1.93,1.1l-.5.47c-.32.35-.78.21-1.17.32a7,7,0,0,1-2.21-1,1.51,1.51,0,0,1-.33-.54,1.78,1.78,0,0,1,0-1,.92.92,0,0,1,.45-.44C49.1,55.69,49.07,56.65,49.49,57Z"/><path class="cls-11" d="M51.89,58.14A2.5,2.5,0,0,0,50,57c1.57-.64,3.25.32,4.82-.36C54.1,57.73,52.73,57.41,51.89,58.14Z"/><path class="cls-38" d="M76.35,37c-.57,2.3,1.27,3.86,1.81,5.82.13.49.78.87.1,1.4-1.28.24-1.26-.91-1.69-1.57-.1-.2-.19-.39-.27-.59-.45-1.23-1-2.43-1.46-3.63-.18-.95-1.14-1.79-.41-2.87l1.37,0Z"/><path class="cls-39" d="M18.25,53.78c-1.06.07-.8-1-1.26-1.47-.66-.6-.18-1.29-.14-1.94a5,5,0,0,1,.26-.64C18,48,18.2,46,18.92,44.23c.4-.62.82-1.23,1.71-1a1.27,1.27,0,0,1,.55,1c0,.14-.05.28-.08.42a12.92,12.92,0,0,0-.87,2.92c0,1.36-1.16,2.44-1,3.84A5.18,5.18,0,0,1,18.25,53.78Z"/><path class="cls-40" d="M1.86,66.34l0-.53C3.72,65.76,5.19,67.09,7,67c.54,0,1.08-.11,1.63-.07a3,3,0,0,1,1.47.59c.34,1.27-1.18.84-1.44,1.56-1.56,0-3.17.31-4.47-.93Z"/><path class="cls-41" d="M8.66,69.12c-.69-1.71,1.42-.48,1.47-1.41A1.17,1.17,0,0,1,11.67,67c.37.19.62.44.44.9l-1.57,1.26Z"/><path class="cls-42" d="M12.11,67.85l-.61-.68a1.43,1.43,0,0,1,1.44-1.56c.75,0,.85.56.58,1.19,0,.14,0,.28-.06.42Z"/><path class="cls-43" d="M26,4.82a4.93,4.93,0,0,1-2.45,2.44c.08-1.31,1.07-2,1.87-2.85Z"/><path class="cls-43" d="M26.52,2.37c1.46,1.13-.16,1-.56,1.45C26.15,3.34,26.33,2.86,26.52,2.37Z"/><path class="cls-43" d="M24.43,8.63c.35-1.55,2.09-2.23,2.39-3.81.37-1.19,1.15-1.12,2-.64s1.89,1.07,2.84,1.61c2.25.3,4.4,1.09,6.65,1.39,1.51-.9,3.26-.58,4.87-.94.52-.94,1.51-.6,2.29-.82a1.56,1.56,0,0,1,.65.24c-.22,1.19.53,2.79-1.42,3.23-1.29.29-2.32,1.2-3.9-.1-.67-.57-2.93.75-4.44,1.27-.29.1-.54.32-.85.42a4.13,4.13,0,0,1-2.06-.16A8.58,8.58,0,0,1,31.82,10c-1.3-1.22-2.48.37-3.75.18C27.14,9,25.43,9.65,24.43,8.63Z"/><path class="cls-44" d="M38.34,7.18a9.23,9.23,0,0,1-6.65-1.39c.35-.58.94-.48,1.48-.53C34.8,6.17,36.81,6,38.34,7.18Z"/><path class="cls-45" d="M45.62,5.78a4.12,4.12,0,0,0-2.41.46V5.75c1.44-.47,2.76-1.32,4.32-1.43C47.66,5.81,46.24,5.27,45.62,5.78Z"/><path class="cls-46" d="M45.62,5.78l1.91-1.46L48,3.84c1.23-1.11,2.52-2,4.31-1.42l.51.47c.84.87,2.61.21,3,1.81a2.88,2.88,0,0,1-1.71,1.57,16.92,16.92,0,0,0-6.3.32,1.43,1.43,0,0,1-1.72-.81Z"/><path class="cls-47" d="M52.31,2.42C50.67,2.27,49.57,3.77,48,3.84c0-.32,0-.64,0-1,.87-1.11,2.28-.86,3.39-1.36C51.41,2.11,52.52,1.58,52.31,2.42Z"/><path class="cls-48" d="M9.64,33.17l-.91.48.87-2.84,1,0C11.14,31.93,10.6,32.63,9.64,33.17Z"/><path class="cls-49" d="M9.64,33.17c.32-.8.65-1.59,1-2.39a7.2,7.2,0,0,0,1.46-3.88,1,1,0,0,1,.92-1c1.9.26,1,1.9,1.43,2.88l-.27.19a.68.68,0,0,1-.65-.17c-.54,3.26-2.67,6-3.1,9.29a1.47,1.47,0,0,1-.33.57c-1,.22-.73,2.33-2.37,1.64,0-.33,0-.66,0-1C7.52,37,9.69,35.45,9.64,33.17Z"/><path class="cls-50" d="M71.6,55.66c-.33-1.43-1.94-2.19-2-3.77a5.8,5.8,0,0,1-.62-3.7,4.55,4.55,0,0,0-1.34-4.13c.1-1.58,1.52-2,2.49-2.87,1.77.6,1.76,2.48,2.66,3.7.21.4.4.8.6,1.21.34.93,1,1.81.52,2.9-1.12.52-1.27-.47-2-1.51.42,1.62-.51,2.84.48,4a1.64,1.64,0,0,1,.34.55c.24.44-.68,1.05.21,1.4a2.4,2.4,0,0,1,.37.47c.45.68,1.36.56,1.89,1.09.72.56,1.46,1.1,1.46,2.19.6-.32.74-.83,1.15-1.08,1.86.93,1.6,2.84,2,4.43a2,2,0,0,1-1.09,1.54c-.64.09-1-.41-1.43-.71C74.8,60.08,73.28,57.79,71.6,55.66Z"/><path class="cls-51" d="M67.69,43.71c1.66.63,2,1.92,2,3.54s0,3.1,0,4.64c-.85-.36-1-1.27-1.45-1.92-.39-1.43-.4-3-1.44-4.22a1.35,1.35,0,0,1,0-1.54,2,2,0,0,1,.41-.53l.33-.12Z"/><path class="cls-52" d="M63.36,43.25A16.31,16.31,0,0,1,61,38.49a5.48,5.48,0,0,1-1.5-2.72,13.4,13.4,0,0,1-.74-2.3c.54-1.65,1.28-.75,1.74,0,.83,1.27,1.17,2.79,1.87,4.13a14.38,14.38,0,0,1,1.74,4.07,1,1,0,0,1-.21.63A1.09,1.09,0,0,0,63.36,43.25Z"/><path class="cls-53" d="M63.85,42.26c0-.16,0-.31,0-.47.72-.5,1.19-.06,1.45.52.4.91,1.26,1.27,1.92,1.88-.11.37-.39,1-.31,1.07.85.52,2,.85.86,2.16,2,.57.16,1.72.38,2.55Z"/><path class="cls-54" d="M71.6,55.66c.45.07,1.14,0,1.24.46.57,2.76,3,3.51,5,4.84,0,.65.69,1.32,0,1.95C75.5,60.68,72.92,58.71,71.6,55.66Z"/><path class="cls-55" d="M80.14,62.41c1.37.1.67.93.55,1.56-.56.53-1.26.37-1.93.4l-.53-1C78.65,62.67,79,61.86,80.14,62.41Z"/><path class="cls-56" d="M80.14,62.41l-1.91,1-.46-.5c.25-.64-.52-1.31,0-1.95l.9,1a1,1,0,0,1,1.46.06A2.58,2.58,0,0,1,80.14,62.41Z"/><path class="cls-11" d="M49.49,57c-.56-.13-.73-1-1.44-.82a3.24,3.24,0,0,1-2.69,0c-.5-.25-1.21-.76-.8-1.16,1.27-1.25-1-.15-.47-.79a.73.73,0,0,1,.09-.64c1.12-.7,2.3-.42,3.47-.21.93.16,1.85.54,2.78,0,1.79-1.57,4.16-2.36,5.71-4.26.2-.26.68-.51.64-.66-.71-3.07,3.54-5,1.91-8.21a1.94,1.94,0,0,1,.09-1c2-1.11,1.12,1,1.7,1.54v1c.2,2.76-.49,5.52,0,8.28A2.63,2.63,0,0,1,60,51.89h0c-1.58.11-3,.48-3.93,2-1.19,1.94-3.33,1.84-5.2,2.28C50.33,56.29,49.6,56.1,49.49,57Z"/><path class="cls-57" d="M60,51.89a21.71,21.71,0,0,1,.45-10.1.64.64,0,0,1,.05.41c.55.92-.2,2,.48,2.94.28.8-.44,1.76.39,2.47C61.53,49.22,61.94,50.92,60,51.89Z"/><path class="cls-58" d="M60.48,40.82C59.7,40.67,60.4,39,59,39.44a.68.68,0,0,1-.76-.44,12.92,12.92,0,0,1-.38-1.85c0-.1,0-.21,0-.31a1,1,0,0,1,.26-.54c.62-.27,1-1,1.86-.75l1,2.94C60.06,39.12,60.79,40.07,60.48,40.82Z"/><path class="cls-11" d="M61,45.14c-.91-.86-.43-1.94-.48-2.94C61.2,43.1,61,44.13,61,45.14Z"/><path class="cls-59" d="M7.22,67.7a9.83,9.83,0,0,1-5.31-1.89c-.44-.76-1.19-1.39-1-2.41l1-.48c1.42,1.16,2.93,2.19,4.43,3.24a2.9,2.9,0,0,1,.53.39C7.19,66.88,7.51,67.21,7.22,67.7Z"/><path class="cls-60" d="M74.43,35.53c.32,1,.63,1.92.94,2.88a7.51,7.51,0,0,0,1.45,3.85h0c.36,1.1.39,2.32,1.2,3.26a2.46,2.46,0,0,1,.26.7c.07,1.67.16,3.34-1.62,4.31a.6.6,0,0,1-.55-.35,8.39,8.39,0,0,0-3.36-5.93c-2.42-3.08-3.37-6.9-5.2-10.29-.9-1.67-1.71-3.41-2.54-5.13A26,26,0,0,0,64.26,23a2.16,2.16,0,0,1,.91-.45c.87.07,1.56-1.08,2.53-.4C69.4,26.84,72.51,30.89,74.43,35.53Z"/><path class="cls-61" d="M65.25,18.29l1,0c0,.64,0,1.28.07,1.92a1.58,1.58,0,0,1-.92,2.24,1.34,1.34,0,0,1-1.1-.19,1.23,1.23,0,0,1-.21-1C64.61,20.27,64.6,19.14,65.25,18.29Z"/><path class="cls-62" d="M65.28,22.09a3.11,3.11,0,0,0,1-1.92A2.4,2.4,0,0,1,67.7,22.1c-.92,0-1.37,1.29-2.44.94A.68.68,0,0,1,65.28,22.09Z"/><path class="cls-63" d="M58.13,6.24A13,13,0,0,1,62,10.54c.18.49.75.85.46,1.48h0a1,1,0,0,1-.92.28,6.35,6.35,0,0,1-2.07-1.06A5.46,5.46,0,0,1,58.32,9a2.2,2.2,0,0,0-.76-1.22,1,1,0,0,1,.26-1.41Z"/><path class="cls-63" d="M55.7,4.79c-.58-1.2-2.56-.3-2.88-1.9a7.87,7.87,0,0,1,5.31,2,1.32,1.32,0,0,1,0,1.37l-.06,0C56.81,6.53,56.2,5.74,55.7,4.79Z"/><path class="cls-64" d="M62.42,12c-.15-.5-.3-1-.46-1.48,1,.71,2.21,1.33,1.92,2.91Z"/><path class="cls-65" d="M65.25,18.29c-.2,1,.78,2.34-.91,2.85a1.08,1.08,0,0,1-1.25.24c-.42-.32-.14-1.13-.86-1.26a1.08,1.08,0,0,1,.05-1A8.1,8.1,0,0,1,63.92,18a.94.94,0,0,1,.93.21Z"/><path class="cls-66" d="M64.85,18.24l-1,0a2.71,2.71,0,0,0-1.44.92v1a.84.84,0,0,1-.68.21A1.33,1.33,0,0,1,61,19.22a3.88,3.88,0,0,1,.17-1.85c.28-.53.47-1.19,1.3-1.07A2.49,2.49,0,0,1,64.85,18.24Z"/><path class="cls-64" d="M62.42,16.3l-.94,1a2.43,2.43,0,0,0-.25-.2A7,7,0,0,1,60.64,15a2.72,2.72,0,0,1,.08-.63c.41-.72.33-1.61.79-2.32h.9C62,13.44,63.72,14.87,62.42,16.3Z"/><path class="cls-67" d="M83.52,57.6a1.41,1.41,0,0,0-1.39,1l-.33.12c-2-.35-2.94-1.73-3.65-3.41-.12-.86-1-1.58-.46-2.56a5.83,5.83,0,0,0,3-.92v0c.35.62.29,1.44,1,1.91.32.55.66,0,1,0C83,55,84,56.14,83.52,57.6Z"/><path class="cls-68" d="M80.66,51.84c-.46,1.82-1.39,2.23-2.89,1-.52.25-.74-.17-1-.45a3.68,3.68,0,0,1-.37-.51c-.25-.48-.49-1,0-1.44,1.49-1.11,1.4-2.74,1.44-4.33,1.92.59,1.23,2.79,2.39,3.85C80.88,50.44,80.59,51.19,80.66,51.84Z"/><path class="cls-38" d="M80.18,49.94c-1.76-.68-1.26-2.77-2.39-3.85,0-.15,0-.31,0-.47a.57.57,0,0,1,.48-.49c.72-.36.95,0,1.08.67C79.59,47.18,79.9,48.56,80.18,49.94Z"/><path class="cls-68" d="M78.26,45.13l-.48.49c-1.75-.71-.65-2.23-1-3.35.69.48.44,1.67,1.44,1.92Z"/><path class="cls-38" d="M81.62,53.77c-1.3-.15-.87-1.16-1-1.91A2.63,2.63,0,0,1,81.62,53.77Z"/><path class="cls-69" d="M80.18,62,78.72,62c-.08-.76.64-.94,1-1.37a1.57,1.57,0,0,1,1.91-1.36c.37.16.66.35.48.82C81.47,60.7,80.83,61.36,80.18,62Z"/><path class="cls-70" d="M82.58,60.54a.85.85,0,0,1,.45.9c-.42.14-.42.85-1,.74C81.83,61.5,82.39,61.08,82.58,60.54Z"/><path class="cls-71" d="M82.12,60l-.58-.58c-.09-.48.22-.68.58-.85h0c1.31.09.24.91.41,1.35A2.07,2.07,0,0,1,82.12,60Z"/><path class="cls-72" d="M27.81,50.41c0-.16,0-.31.05-.47-.13-1.36-1.76-2.25-1.21-3.82a17,17,0,0,1-.82-2.69c-.22-.83,0-1.38.83-1.63a5.66,5.66,0,0,1,2-.18.84.84,0,0,1,.41.51c-.29,1.39,1.19,2.63.25,4.19-.22.37.71,1.5,1.7,1.68,0-2-.29-4,.68-5.94A2.23,2.23,0,0,1,34,42.2a3.43,3.43,0,0,1,1,.88.45.45,0,0,1,.1.4c.38-.12-.06-.34.06-.51a1.88,1.88,0,0,1,.19-.58c.68-1.08,1.57-.9,2.39-.3a4.1,4.1,0,0,0,1.74,1.07c1.66,1.89,1.62,2.12-.59,2.93a8.44,8.44,0,0,0-1.54.67,1.59,1.59,0,0,0-.53.47c1.91.23,1.36,1.4,1,2.51-.47.81,0,1.94-.88,2.61-1.88-.48-2.42-1.11-2.48-3.13-1.16,2.6-3.47,1.2-5.16,1.83-.3,0-.24-1.24-.89-.22C28.24,51.15,27.74,51,27.81,50.41Z"/><path class="cls-73" d="M29.32,50.87c.85.05,1.48-1.38,2.48-.37.57-.69,3.37.24,1-2.64,2.83.88,2.11,3.93,4.19,4.46l.15.3c0,.72-.32,1.28-1.12,1.41-.59.1-1.16-1.29-1.76,0a1.14,1.14,0,0,1-.55-.05c-.18-.25-.38-.5-.49.05a1.32,1.32,0,0,1-.7.51,1.07,1.07,0,0,1-1.24-.79,3.4,3.4,0,0,0,0-.45C30.1,52.87,29.2,52.27,29.32,50.87Z"/><path class="cls-74" d="M31.25,53.74l1.39.49c.53,0,1.27.67,1.46-.45.64-1,1.28-.49,1.91,0,1.23.92,1.94,0,2.82-.7s2-1.56,2.42.49a2.09,2.09,0,0,1-.41.52c-1.25.63-1.38,2.27-2.62,2.91a7.64,7.64,0,0,1-4.08.06,22.85,22.85,0,0,0-3.4-1.86h0Z"/><path class="cls-75" d="M29.32,50.87c.63.81,1.26,1.62,1.9,2.42-.08,0-.18,0-.24,0-1,.73-2.15-1.14-3.12.18-.28-.62-1.35-.14-1.42-1-.09-1,.62-1.57,1.37-2.06C28.08,51.31,29.26,49.27,29.32,50.87Z"/><path class="cls-75" d="M27.37,46.11c.12.69-1,1.56.57,2,1.22.38.5,1.2-.08,1.78-.92.08-1.39-.28-1.51-1.26A1.65,1.65,0,0,0,25,47L25,46.58a1,1,0,0,1-.15-.91C26,44.09,26.51,46,27.37,46.11Z"/><path class="cls-76" d="M25,45.62c0,.32,0,.64,0,1-1-2.25-.23-4.62-.44-6.93-.08-.85,0-1.72,0-3.24-.5,1-.74,1.54-1,2-.62-.29-.63,1.52-1.47.42-.85-1.71.43-2.89,1-4.25,1.37-1.27,1.82-1.19,2.35.42a5.19,5.19,0,0,1,.21,1.66c0,2.14-.05,4.29,0,6.44A4.21,4.21,0,0,1,25,45.62Z"/><path class="cls-77" d="M23.52,35c-.56,1.27-1.42,2.41-1.47,3.87-1.09,1.23-.64,3-1.42,4.31l-1.34,1.06L19,44.08c-.17-.17-.44-.44-.37-.57.91-1.63-.54-3.43.34-5-.27-1.11-1.94-2.31.17-3.3,1.65,0,2.06-1.49,2.9-2.47.47-.33.74-1.22,1.45-.88s.63,1,.41,1.65S23.93,34.56,23.52,35Z"/><path class="cls-23" d="M20.23,47.56a3.17,3.17,0,0,1,.87-2.92A5.21,5.21,0,0,1,20.23,47.56Z"/><path class="cls-21" d="M30.74,55.22c1.62-.69,2.38.62,3.36,1.42a1.59,1.59,0,0,1,0,.94l-2.4,0-1.47-1C30.56,56.22,31.27,55.93,30.74,55.22Z"/><path class="cls-78" d="M5.3,49.93c1-.72,0-2.14,1-2.87l.22.22c-.3-.13.34.14,0,.26-.11,0,.14.32.14.3.2-.8.79-1,1.51-1.05.29,0,1.15,1.18.92-.46-.09-.69,1-.46,1.48,0a3.3,3.3,0,0,1,.56,2.51,4.12,4.12,0,0,1-.18,1c-.16.54-.34,1.07-.49,1.61A15.08,15.08,0,0,1,9,55.61a2,2,0,0,1-.49.44C7.62,56.4,7.41,57.29,7,58a.67.67,0,0,1-.58.22c-2.22-.37-1.72,1.41-2,2.56-.13.49-.08,1.2-.85,1.14-.47,0-.39-.61-.59-.92Z"/><path class="cls-79" d="M2.92,61c.32,0,.77,1.21.94-.1.13-1-.18-2,.73-3,1.16-1.31,1.58-.7,2.2.29.51,1.32-.53,2.14-1,3.14-1.31,2.33-1.31,2.37,1,2.54a1.21,1.21,0,0,1,1.28,1.11c.15,1-.18,1.72-1.33,1.8-1.87-.93-4-1.57-4.78-3.82C2.28,62.28,2.6,61.63,2.92,61Z"/><path class="cls-78" d="M6.26,47.06l.48-1c-.32-1.43.09-2.34,1-3.67a19.16,19.16,0,0,0,2.32-4h0a.44.44,0,0,1,.63.05c.71,1.48,0,2.8-.55,4.09A9.25,9.25,0,0,0,9.2,45a2.26,2.26,0,0,1-2.94,2.09Z"/><path class="cls-32" d="M10.09,38.42c.05,1.83-1.47,2.91-2.27,4.29A6.68,6.68,0,0,0,6.74,46.1C6,46,6,45.7,6,45c.2-1.7,1.37-3,1.66-4.64C9,40.36,8.38,37.93,10.09,38.42Z"/><path class="cls-80" d="M38.43,56.67c.58-1.14.58-2.76,2.38-2.89,1,1,2.2.61,3.37.47.65.07.67.07.7.85,0,.55.55.45.79.69.72.71,1.73-.5,2.38.41h0a2.22,2.22,0,0,1-1.47.94l-.49.46c-1.32.53-2.69.16-4,.24C41.08,56.72,39.45,57.62,38.43,56.67Z"/><path class="cls-81" d="M38.43,56.67c1.1.3,2.58-.78,3.32.89-.07.23-.2.28-.4.12-.93.44-2.08-.48-2.94.46L37,58.1c-.71-.58-1.66,0-2.39-.45a3.65,3.65,0,0,0-.46-.07c-.09-.31-.55-.61,0-.94Z"/><path class="cls-82" d="M41.35,57.68l.4-.12,4.34,0A5.37,5.37,0,0,1,41.35,57.68Z"/><path class="cls-82" d="M49,59.05l-2.35.06c.14-.51.29-1,.44-1.53a.66.66,0,0,1,.94,0l.07,0C48.11,58.28,49.28,58.19,49,59.05Z"/><path class="cls-11" d="M48,57.6l-.94,0-.47-.45,1.47-.94Z"/><path class="cls-29" d="M34.59,57.65c.82.06,1.71-.29,2.39.45C36.18,58,35.28,58.39,34.59,57.65Z"/><path class="cls-83" d="M6.73,66.74c.41-.54,1.18-.91.9-1.78-.1-.34-.42-1-.66-.62-1.1,1.81-1.76-.66-2.66-.19,0-1.17-.12-2.36,1.09-3.09,1.73.64,3.82.4,5,2.29.31.49.85.12,1.09-.4a14.34,14.34,0,0,1,.84-2,1,1,0,0,1,1.5.21l.11.33c-.23.91-.49,1.82-.7,2.73-.38,1.66.54.78,1.11.56a2.66,2.66,0,0,1-.86,2c-1.09-2.1-1.29.56-2,.37l-1.37.54c-.54,0-1.13.08-1.48-.5-.62-.24-1.37.07-1.92-.45Z"/><path class="cls-84" d="M16.81,53.3l-.49,2.86c-1.53.71-1.46,2.92-3.21,3.42-.71-.46-.69-1.17-.66-1.88.46-1.63,2.07-2.49,2.71-4A1.45,1.45,0,0,1,16.81,53.3Z"/><path class="cls-85" d="M13.45,59.54c.68-1.36.85-3.16,2.87-3.38L14,61.51l-.05-.09a2.43,2.43,0,0,1-.5-1.6Z"/><path class="cls-77" d="M16.81,53.3l-1.41.48c-.65-.65-.38-1.4-.23-2.14.29-1.1.34-2.63,2.1-1.24A2.87,2.87,0,0,1,17,52.31Z"/><path class="cls-86" d="M19.22,35.54c-.8,1.3-.8,1.32.37,1.56.52.11,1,.31.84.88s-.77.38-1.21.44c-1.62.3-2.13-1.55-3.46-1.8a1.25,1.25,0,0,1-.19-1,1.65,1.65,0,0,1,.81-1v0c.36-.62.22-1.5,1-1.92.43-.68.85-1.37,1.27-2.06a.88.88,0,0,1,.46.43c.23.52.05,1.32.45,1.57C21.53,33.89,20.36,34.69,19.22,35.54Z"/><path class="cls-86" d="M18.62,30.63c.36-1.23.71-2.46,1.07-3.69a1.05,1.05,0,0,1,1.12-.39,2.07,2.07,0,0,1,.58.23,10.87,10.87,0,0,0,1.3.92c.52.36,1.57.24,1.34,1.29a2.53,2.53,0,0,1-1.61,2.16,7,7,0,0,1-2.33.16,2.1,2.1,0,0,1-1.31-.53Z"/><path class="cls-87" d="M16.38,34.64a1.05,1.05,0,0,1-.43,1,2.66,2.66,0,0,1-3.77-1.18c0-2.19,1.25-3.83,2.24-5.6h0c.56,1,1.21,2.17.69,3.29C14.4,33.66,15.36,34.1,16.38,34.64Z"/><path class="cls-35" d="M16.32,23.11l.95,0A8.16,8.16,0,0,1,19.49,26a1,1,0,0,1-.26.94C17.7,26.06,16.26,25.16,16.32,23.11Z"/><path class="cls-87" d="M17.35,32.69a3.26,3.26,0,0,1-1,1.92c0-.56,0-1.12,0-1.67C16.29,31.26,17,32.64,17.35,32.69Z"/><path class="cls-88" d="M19.23,26.89v-1c1.1-.57,1.82-.42,1.89,1l-1.44,0A3.59,3.59,0,0,1,19.23,26.89Z"/><path class="cls-89" d="M21.13,26.92c-.34-.89-1.07-1-1.89-1-.83-.82-1.87-1.51-2-2.84-1.84-2.75-.31-4.84,1.37-6.86a7,7,0,0,0,1.51-2.36c1.64-1.29,2.57-3.16,3.85-4.75.42-.2.62.06.79.38.25,1-.27,2,0,3a1.78,1.78,0,0,1-.13,1c-.44.62-1.23.82-1.7,1.41a8,8,0,0,1-1.17,1.08c-.78,1-2.51,1.73-.6,3.19a1.32,1.32,0,0,1,.22.94c-.11,1.05-1.24,1.74-1,2.91.83.87,1.81.37,2.74.29,2.51-.86,3-.4,2.52,2.41-1.44.78-2.7,2.21-4.62,1.25Z"/><path class="cls-90" d="M24.5,9.59,24,9.12l.43-.49c1.42.19,3.23-.67,3.92,1.46a.51.51,0,0,1,0,.62,1.57,1.57,0,0,1-.63.25,1.93,1.93,0,0,1-1-.2C26.06,10.25,25.11,10.26,24.5,9.59Z"/><path class="cls-91" d="M49,59.05c-.25-.5-1-.65-.9-1.4a3.4,3.4,0,0,1,2,1Z"/><path class="cls-92" d="M76.82,42.26c-.94-1.11-2.32-2.06-1.45-3.85A13.89,13.89,0,0,1,76.82,42.26Z"/><path class="cls-93" d="M17.27,50.4c-1.57-.58-1.4.53-1.42,1.45-.31.32-1.21-.28-1.1.44.45,3-2.64,2.06-3.71,3.36-.26.32-.75-.17-.77-.58-.06-1.25-.68-2.46-.19-3.73,0-.52,0-1.07.48-1.45a24.66,24.66,0,0,0,4.22-3.4c.79-.67,1.54-1.14,2.55-.48a1.62,1.62,0,0,1,.42.93c0,1-.3,2-.35,3C17.36,50.12,17.31,50.26,17.27,50.4Z"/><path class="cls-77" d="M17.4,50c-1.31-.93-.06-1.94-.1-2.91.75-.89.15-2.63,1.84-2.93l.15.11C18.89,46.22,18.67,48.27,17.4,50Z"/><path class="cls-94" d="M6.73,66.76c.67,0,1.41-.25,1.92.45l-1.43.49Z"/><path class="cls-45" d="M46.1,5.78A3.14,3.14,0,0,0,48,6.25c0,.11.07.21.1.31a10.18,10.18,0,0,1-1.35,2.18c-.45.38-1,.59-1.36,1.15s-.62,1.34-1.32,1.7c-1.28-.56-2.51.36-3.77.11-.76-.52-1.12-2-2.5-1a2.48,2.48,0,0,1-.57.27A2.56,2.56,0,0,1,36,11a1.46,1.46,0,0,1-.54-.31.42.42,0,0,1,.1-.54c.58-.56.89-1.31,2.09-1.1,1.56.28,2.63-1.25,4.26-1.94-.59,1.84-.32,2.38,1.56,1.78C45.14,8.32,45.45,7,46.1,5.78Z"/><path class="cls-95" d="M28.34,10.57c0-.16,0-.32,0-.48,1-.66,1.89-2.69,3.35-.49a1,1,0,0,1,.26,1c-.23.55-.48,1.08-1.21,1C30,11.18,29,11.28,28.34,10.57Z"/><path class="cls-96" d="M31.67,10.55l0-1,1.88,0a3.46,3.46,0,0,1,.61,2.75C34,13,33.84,13.63,33,13.64,31.83,12.93,32.73,11.31,31.67,10.55Z"/><path class="cls-97" d="M33.71,12.5c0-.95-.09-1.91-.13-2.87l2,.48c0,.16,0,.32,0,.48C34.86,11.16,35.29,12.78,33.71,12.5Z"/><path class="cls-98" d="M55.7,4.79l2.37,1.48c-.13.45-.26.89-.4,1.34l-.26.19c-.4,0-.74-.26-1.21-.25.28.58.93.52,1.31.85a1,1,0,0,1,.35.59c-.08,1-.79,1.08-1.54,1.13A4.6,4.6,0,0,1,53.81,9c-1.24-1.07-.35-2.16,0-3.25Z"/><path class="cls-45" d="M53.79,5.78c.72,1-.75,1.89,0,2.83.16.9.25,1.74-1.12,1.46A5.12,5.12,0,0,1,52,8.69c-.11-.28-.21-.56-.33-.83-.47-.75-1.26-.45-1.92-.61a2.47,2.47,0,0,1-1.74-1h0c1.54-.37,3-1.67,4.67-.4C53.08,6.16,53.43,5.9,53.79,5.78Z"/><path class="cls-32" d="M14.42,28.82c.07,2.16-1.58,3.73-1.93,5.75a6,6,0,0,1-1.92,3.84H10.1a3.42,3.42,0,0,1,.23-2.64,23.72,23.72,0,0,0,2.45-6.38C13.13,27.62,13.83,28.83,14.42,28.82Z"/><path class="cls-99" d="M70.14,41.24c-.07,1.56-1.61,1.67-2.45,2.47h0A1.56,1.56,0,0,0,66.46,43a.61.61,0,0,1-.36-.45c.4-1-.11-1.35-.93-1.58a6,6,0,0,1-1.46-2.09c.29-1.21,1.25-.42,1.95-.63a5.15,5.15,0,0,1-2.06-.4,1.1,1.1,0,0,1-.4-.48,2.24,2.24,0,0,0-1-1.82,3.12,3.12,0,0,1-.44-.92c-.35-2.31.2-3.06,2.23-3.1a1.45,1.45,0,0,1,.69.09c.86.44.42,1.24.51,1.9,1-1,1.38.27,2,.65C68.46,36.37,70.12,38.46,70.14,41.24Z"/><path class="cls-62" d="M70.14,41.24a39.64,39.64,0,0,0-3.33-6.68c-.59-1.84-2.59-3.23-1.75-5.52l.28-.26a48.52,48.52,0,0,1,4.82,9.64,36.55,36.55,0,0,0,2.58,4.64A4.36,4.36,0,0,1,73,44.18c.32.57.34,1-.5,1Z"/><path class="cls-100" d="M77.77,56.19a1.38,1.38,0,0,1-1.44,1.67c-1.35,0,0-.88-.24-1.25a8.74,8.74,0,0,0-1.21-1.39c-.38-.81-.53-1.92-1.89-1.45h0c-.62-.51.06-1.36-.49-1.89h0c.06-1.45.23-1.53,2.23-1.1a2.19,2.19,0,0,1,.64.34c.58.57.76,1.41,1.33,2A4.32,4.32,0,0,1,77.77,56.19Z"/><path class="cls-101" d="M77.77,56.19l-1.46-2.87c-.2-.51-.78-.92-.46-1.59a.79.79,0,0,1,1,.13h0a9.73,9.73,0,0,0,1.93,3.36c.46,1.79,1.89,2.61,3.38,3.39-.2.28-.39.56-.58.85l-1.81,1.12C78.57,59.35,79.09,57.36,77.77,56.19Z"/><path class="cls-102" d="M75,51.31c-.8.37-2.06-1.38-2.52.56-.73,0-1.42,0-1.21-1.13.24-1.37.26-2.78.38-4.17,1.31.31.88,2.22,2.28,2.41a2.26,2.26,0,0,0,.26.16,4.6,4.6,0,0,1,.88,1.59A.78.78,0,0,1,75,51.31Z"/><path class="cls-68" d="M72.48,45.15a1,1,0,0,0,.5-1c1.7.32,3.85,4,3.33,5.79-1.25.15-1.5-.95-2-1.67a12.67,12.67,0,0,0-1.37-2.18Z"/><path class="cls-103" d="M72.94,46.12c1.73.76,1.89,2.88,3.37,3.85l0,.45c.16.48.32,1,.47,1.44h-.9c-.25-.06-.23-.45-.54-.45L75,51.32c0-.14-.06-.28-.1-.42-.34-.63-.4-1.4-1-1.91h0Z"/><path class="cls-104" d="M73,53.77a1,1,0,0,1,.24,0c1.41.16-.46-2.09,1-1.55,1,.37.52,1.66.62,2.56a3.73,3.73,0,0,1,0,.47C74.59,54.29,72.25,56,73,53.77Z"/><path class="cls-102" d="M72.49,51.87c.71.49.41,1.24.49,1.89l-1.51-.64C71.77,52.66,72.63,52.64,72.49,51.87Z"/><path class="cls-105" d="M63.85,38.9a2.33,2.33,0,0,1,1.46,1.91c.86.37.75,1.23,1,1.92h0c.32.32.89.39,1,1,0,.16,0,.32,0,.48-1.11.1-2-.16-2.31-1.39-.14-.58-.37-1-1.06-1l-2-3.83a1,1,0,0,1,.93-.77.73.73,0,0,1,.55.28h0C63.93,37.81,63.54,38.47,63.85,38.9Z"/><path class="cls-50" d="M67.22,43.71a1.67,1.67,0,0,1-1-1c.69,0,2.06-1,1.43,1Z"/><path class="cls-106" d="M62.91,37.45l-1,.51c-.6-1.42-1.17-2.86-1.83-4.26-.18-.38-.52-1.61-1-.11-.5.35-1,.74-1.44,1.11-1.6,0-.94-1.76-1.86-2.27-1.12-.42-1.8,1.34-3,.62a3.88,3.88,0,0,1-1.35-.84c-.24-.78.43-1.14.76-1.65.56-1,1.66-1.33,2.48-2S56.25,27,57.51,27c.83.46,2.06-.58,2.65.73a2.49,2.49,0,0,1-.92,1.37c.37.42-2.06.09-.24.92a4.67,4.67,0,0,1,1.24,1c1.33.82.9,2.71,2.17,3.56l0,.93C63,36.09,63.48,36.64,62.91,37.45Z"/><path class="cls-107" d="M57.54,34.58c0-1.13.35-1.64,1.5-1,.28.67,1.05,1.11,1,2-.52.51-1,1.14-1.85.94-.76.21-.81-.37-1-.85A1.37,1.37,0,0,1,57.54,34.58Z"/><path class="cls-108" d="M59.09,40.31a4.56,4.56,0,0,1-.64,5c-.58.81-1.86,1-.5,2.52.81.9-1.13,1-1.77,1.58a2.2,2.2,0,0,1-.63-1.61c-.18-2-.69-4,1-5.64a4.67,4.67,0,0,1,.13-.65,1.29,1.29,0,0,1,1.43-1.08C58.48,40.87,58.8,40.69,59.09,40.31Z"/><path class="cls-109" d="M50.91,53.79c-.63,1.33-1.75.51-2.5.37a20.73,20.73,0,0,0-4.23-.37,1.18,1.18,0,0,1-.91.3.82.82,0,0,1-.68-.63,3.5,3.5,0,0,1,.7-1.42,3,3,0,0,1,1.12-1c.45-.21.82-.55,1.27-.77a3.84,3.84,0,0,1,1.22,0,8.52,8.52,0,0,1,1.58.25,4.09,4.09,0,0,1,1.48.69.79.79,0,0,1,.08.64c-.36.36-1.06.28-1.23.94C50.2,51.69,50.57,52.7,50.91,53.79Z"/><path class="cls-110" d="M50.91,53.79c-.68.34-1.06-2.56-1.93-.18a2.32,2.32,0,0,1-.59-.29.64.64,0,0,1-.12-.85c.38-.66,1-.61,1.68-.61,1-.1.39-1.16.89-1.58a2.51,2.51,0,0,1,.87-.46c1.48-.49,3.36-.35,3.84-2.45,0-.11.43,0,.61.15l0,1.94c-.31.85-2.2,1.86-2.48,2.3C53,52.88,51.7,53,50.91,53.79Z"/><path class="cls-74" d="M43.23,53.79h1v.46c-1.31,1.15-2.56,1.92-3.37-.47h0C41.64,53.39,42.43,54.22,43.23,53.79Z"/><path class="cls-111" d="M59.09,40.31c-.16.18.22.9-.51.5-.78-.63-1.56-1.26,0-1.9l.45.53C59,39.73,59.06,40,59.09,40.31Z"/><path class="cls-112" d="M58.57,38.91c-.86.64-.23,1.27,0,1.9-.71,0-1.4,0-1.45,1-.74.24-.9-.74-1.54-.72a1.58,1.58,0,0,1-.56-.17,5.44,5.44,0,0,1-.91-1.12,2.94,2.94,0,0,0-1-.54,1.06,1.06,0,0,1-.42-.42.87.87,0,0,1,.47-.73l.48-.29c.39-.31.2-.6,0-.89-1-1.47.56-1.41,1.16-1.92,1.16-.95,1.95-.07,2.79.56,0,.4.13.78.57,1,0,.15,0,.31,0,.46-.39.55-.69,1.23-1.3,1.22.73.18.87-.72,1.3-1.22C58.74,37.5,58.53,38.23,58.57,38.91Z"/><path class="cls-62" d="M64.35,23.16c2.52,1.49.76,3.73,1,5.62l-.1.1a.68.68,0,0,1-.7-.06c-1.07-1.4-1.88-2.88-1.5-4.75C63.35,23.6,63.46,22.82,64.35,23.16Z"/><path class="cls-113" d="M64.35,23.16l-1,.85a.87.87,0,0,1-1.17,0c-.49-.59-.85-1.3-.25-1.92a1.74,1.74,0,0,1,2.39,0h.93c0,.32,0,.63,0,.95Z"/><path class="cls-62" d="M67.25,25.7c.51,1.26,1.69,1.85.93,3a.67.67,0,0,1-1.05.1C66.48,27.93,66.62,27,67.25,25.7Z"/><path class="cls-114" d="M64.35,22.09c-1.4-.07-2.79-.14-1.91,2a.68.68,0,0,1,.05.69,5.47,5.47,0,0,1-4.92,2.39c-1.6.24-2.79,1.37-4.24,2s-2.56,1.2-3.86,1.75a5.87,5.87,0,0,1-2.67.54c-2-.12-4.11.36-6.13-.27-1.22-1.19-.15-1.8.64-2.47a1.48,1.48,0,0,1,.69-.12c.75.13,1.36.72,2.17.63a2.55,2.55,0,0,0,2-1.38,8.24,8.24,0,0,0,.61-1.09A2.42,2.42,0,0,0,47,24a.87.87,0,0,1,.11-.63A1.35,1.35,0,0,1,48.58,23c1,.87-.06,2.63,1.43,3.27a.87.87,0,0,1,.27.27c.07-.32-.27-.3-.4-.46-1-.91-.4-1.57.33-2.21a1.34,1.34,0,0,1,1.25-.05,1.83,1.83,0,0,0,1.87.37c.56-.63.26-1.57.79-2.21a1.82,1.82,0,0,1,1.51-.56,1.48,1.48,0,0,1,.88.74c1,2.08,2.35,1.91,3.93.76.35-.63,0-1.17-.21-1.73a2.68,2.68,0,0,1-.09-1.61,1.22,1.22,0,0,1,.37-.53.71.71,0,0,1,.88.17l.52,1c.27.41.73.57,1.09.87l1.34.06Z"/><path class="cls-115" d="M61.51,12A1.75,1.75,0,0,1,61,14.43c-1.21.84-2.09.31-2.77-.73s-.81-2.07.53-2.77a.92.92,0,0,1,.79.07A2.94,2.94,0,0,1,61.51,12Z"/><path class="cls-116" d="M59.55,11l-.5.07a2.13,2.13,0,0,1-2.4-.08,1.17,1.17,0,0,1-.44-1.3c.66-.06,1.37,0,1.5-.94a.54.54,0,0,1,.87-.07Z"/><path class="cls-117" d="M58.58,8.68l-.87.07-.09-.1a.66.66,0,0,1,0-1l.08-.08C58.06,7.89,59.41,7.37,58.58,8.68Z"/><path class="cls-118" d="M62.44,19.19c0-.56-.29-1.29.4-1.58.22-.09.68.42,1,.66C63.82,19.24,63.15,19.25,62.44,19.19Z"/><path class="cls-61" d="M63,21.08c-.58,0-1.55.44-1.09-.87l.53-.05C63.13,20.16,63.22,20.53,63,21.08Z"/><path class="cls-119" d="M61.39,19.23l-.91-.06c-.42-1-.19-1.7,1-1.92l0,.05Z"/><path class="cls-120" d="M56.65,10.6a4.66,4.66,0,0,0,2.4.47c-.45.56-1.29.94-.67,1.92A2.46,2.46,0,0,0,61,14.43c0,.15,0,.3,0,.45-.33.47-.76.86-1.07,1.35a2.8,2.8,0,0,0-.6,1.22,2.67,2.67,0,0,1-.86,1.08,9,9,0,0,1-.76.88,2.81,2.81,0,0,1-.54.29q-.6.24-1.17.51a2.25,2.25,0,0,1-2.27.08c-.76-2.45-.63-2.85,1.48-3.52.76-.24,1.13-.46.84-1.28s.38-1.33.48-2C56.71,12.52,56.36,11.54,56.65,10.6Z"/><path class="cls-121" d="M58.09,18.22l1-.91c.1-.36.4-.61.47-1-.11-1,.36-1.53,1.41-1.45a3.59,3.59,0,0,1,.49,2.37,3.11,3.11,0,0,0-1,1.92v0a.76.76,0,0,1-.8.26,1.75,1.75,0,0,1-.52-.28C58.81,18.87,58.33,18.68,58.09,18.22Z"/><path class="cls-103" d="M78.74,55.22a3.66,3.66,0,0,1-1.93-3.36l1,1Z"/><path class="cls-111" d="M53.3,38.41l-.48.48c-.35.6-.73,1.32-1.57.89s-.33-1.05-.11-1.62,0-1-.75-1c-1,1.1-3.33.51-3.36,2.76-.45,1.67-1.57,1.63-2.88,1.14-.5-.13-1.11.14-1.51-.4s.49-1.52-.51-1.85c-.52-.17-.87.16-1,.73-.22.2.22.2.11,0s.19-.64.51-.64c1.24,0,.59,1,.76,1.55a1.45,1.45,0,0,0,.09.22c.5.5.27,1.19.44,1.78a1.63,1.63,0,0,1-.21.94c-1.23,1.46-2.29-.8-3.48-.16-.53.26-1,1.64-1.53-.15-.37-1.34-1.4-1.22-2.32-.34a1.35,1.35,0,0,1-.7-.09c-.76-.48-2-.67-1.86-1.85s1.36-.78,2.14-1a3.29,3.29,0,0,1,1.62-.2c.62.32,1,1,1.41,1.18.35-1.73,1-3.39,2.79-4,1.05-.34.27-.85.5-1.2.4-1,.75-2,2.07-1.93,1.53,0,.57-2.13,2-2.27a2.14,2.14,0,0,1,.67-.18,27.62,27.62,0,0,1,3.86,0c.5.13.68.68,1.13.88l.26,0c.53,0,1.09-.08,1.45.47A20.26,20.26,0,0,1,53.3,38.41Z"/><path class="cls-122" d="M37,39.85c-.43.19-1,.26-1.27.57-.73.81-2.06-.73-2.27.37s1.59,1.05,2.1,2h0a1.17,1.17,0,0,1-1.44,0,3.87,3.87,0,0,0-2.4-.48,1.81,1.81,0,0,1-2.89-.48h0c-1.59-.19-1.35-1.86-2.17-2.68a1.21,1.21,0,0,1-.26-1.26c.94-.21.92-.21.83-.84-.06-.36.21-.54.49-.67a2.24,2.24,0,0,1,1.61.49c.42.17-.23,1.49,1,.88.45-.22.87.08,1.18.52.16.23-.12.85.43.66.14,0,0-.74.15-1.12,1.45-2.27,2.85-.17,4.22.13A1.13,1.13,0,0,1,37,39.85Z"/><path class="cls-123" d="M39.39,43.23c.8-.3,1.78-2.06,2.26.27l1.08-.29c.58-.49,1.08-.17,1.58.15a3.44,3.44,0,0,1,1.07,1.32,2.63,2.63,0,0,1-1.14,3.18c-.31.45-.56.94-.91,1.36-1.9,1.37-2.51,1.24-3.15-.84a2.36,2.36,0,0,0-.9-1.56c-.31-.33-.62-.68-.39-1.19C41.3,45.29,39.61,44.11,39.39,43.23Z"/><path class="cls-124" d="M28.81,41.78a5,5,0,0,0,2.89.48c.48,2.1-1.11,4.39.75,6.32-2.38.74-3.17-.87-4-2.4-.66-1.21.84-.78,1.08-1.52C27.33,44.22,28.39,42.94,28.81,41.78Z"/><path class="cls-125" d="M25,45.62l0-9.11c.85-.19,1,.46,1.25,1a13.45,13.45,0,0,0,.94,4.09,1,1,0,0,1-.24.65c-1.54.93.33,1.89,0,2.87-.09.24.29.65.46,1C26.38,46.86,26,44.65,25,45.62Z"/><path class="cls-126" d="M38.89,45.63l.49.94c.47.35,1.41.31.81,1.41A5.17,5.17,0,0,1,38.09,50a.62.62,0,0,1-.63-.1l.26-2c-.85-.42-.79,1-1.6.65C35.77,46.38,37.26,45.94,38.89,45.63Z"/><path class="cls-73" d="M37.46,49.93a3.85,3.85,0,0,0,.48,0c1-.3,1.44.25,1.7,1.09-.39,1.43-1.4,1.63-2.65,1.34l0,0C37.13,51.53,37.29,50.73,37.46,49.93Z"/><path class="cls-124" d="M26.91,42.26c0-.16,0-.32,0-.48.3-1-.64-1.93,0-2.89,1.56.36.53,2.4,1.88,2.9A3.32,3.32,0,0,1,26.91,42.26Z"/><path class="cls-111" d="M34.1,42.74h1.44v1.85A9.93,9.93,0,0,0,34.1,42.74Z"/><path class="cls-127" d="M37,52.35c.88-.33,1.95-.37,2.4-1.43.32-.68.75-.77,1.28-.22.28,1.19,1.71,1.46,2.08,2.58l.48.51c-.81,1.13-1.6.58-2.4,0,.43-1.5-.69-1-1.13-.71a4.24,4.24,0,0,0-2.08,2.74L36,53.8C36.33,53.31,36.66,52.83,37,52.35Z"/><path class="cls-21" d="M34.1,53.78c.15.48.78,1.17.31,1.4-.74.37-1.25-.46-1.77-1l.49-.46c.16-.23.33-.22.51,0Z"/><path class="cls-128" d="M33.64,53.76h-.51c0-.4-.67-1-.09-1.14C33.88,52.43,33.47,53.34,33.64,53.76Z"/><path class="cls-129" d="M25.93,37.46l-1-1c-.06-.86.11-1.77-.6-2.46l-.84,1V32.17c-.64.18-.67,1.12-1.42,1l-.21-.2c-.24-.6-.79-.75-1.34-.91a1.07,1.07,0,0,1-.6-.71.72.72,0,0,1,.24-.58,4.09,4.09,0,0,1,.7,0,2.06,2.06,0,0,0,2.6-1.63c.35-1.33-1.62-.06-1.39-1.24,2.24-1.53,3.59.3,5.15,1.35a3.89,3.89,0,0,1,1.21,1.11c1.07,1.09,3.24.32,3.83,2.23a1.45,1.45,0,0,1-.43.49c-1,.55-2.06,1-2.23,2.31s-1.36.48-1.79,1.11.11,2-1.39,1.48C26.16,37.92,26.1,37.64,25.93,37.46Z"/><path class="cls-130" d="M19.14,44.13c-.95.77-.56,2.37-1.84,2.93,0-.32,0-.64,0-1,0-.1-.05-.2-.08-.3a4.36,4.36,0,0,1-.88-2.71c-.06-1.17-.46-2.32-.27-3.09s-.31-.44,0-.44c.06,0,0,.07,0,.23-.08.76-.06,1.76-1.07.52a5.89,5.89,0,0,1-.84-1.14c0-1.23.17-2.36,1.66-2.67,1.65-.3,2.1,1.53,3.37,1.92.62.86-1.42,2.89,1.27,2.92.21,0,0,.81-.42.82C18.35,42.19,19.13,43.33,19.14,44.13Z"/><path class="cls-131" d="M20.19,30.74c0,.16,0,.31-.05.46-.53.85.15.91.69,1.06a2.69,2.69,0,0,1,1.27.88h0c-.49,1.37-.9,2.83-2.88,2.4-.73-1.26,1-.8,1.06-1.7-2-.2-1.55-1.73-1.5-3.06Z"/><path class="cls-132" d="M15.85,36.5a5.61,5.61,0,0,0-1.42,2.88c.36.84-.12,1.52-.44,2.22a39.62,39.62,0,0,0-2.15,5.71C11.65,48,11.72,49,10.58,49c-.17-.93.45-2.12-1-2.76C9,47.13,10,48.07,9.42,49a5.42,5.42,0,0,0-.71-1.51.86.86,0,0,0-1.51.33c-.07.51,1,1.5-.27,1.45s-.47-1.43-.67-2.21c1.55-.36,2.2-1.18,2.53-2.9.37-1.92,2-3.56,1.78-5.75a9.73,9.73,0,0,1,1.92-3.84,7.41,7.41,0,0,0,3.46,1C15.91,35.9,15.88,36.2,15.85,36.5Z"/><path class="cls-133" d="M13,57.62c.07.66-.22,1.42.48,1.92h0c.73,1.14-.56,1-.91,1.49.5,1.17-.4,2.13-.78,3-.51,1.19-1.55.21-2-.37-.86-1.11-1.52-2.1-3.21-1.38-.67.29-.91-.67-1.15-1.23.47-1,.93-1.94,1.39-2.91h0c.49-.8.67-1.79,1.44-2.43l.41-.08C9.71,57.07,11.55,56.88,13,57.62Z"/><path class="cls-134" d="M10.58,49c1.27-3.21,2-6.64,3.85-9.6,1.22-.68.73.8,1.24,1,.44-.5-.11-1.28.86-1.91-.74,1.81.77,3.14.29,4.74-1,1.14.72,1.85.48,2.87h0c-1.74-.49-2.68,1.15-3.31,2-.87,1.14-2.59,1.15-3.08,2.69-.08.25-.13-.6-.34-.87C10.57,49.59,10.57,49.29,10.58,49Z"/><path class="cls-135" d="M13,57.62c-.52.33-.91,2.55-1.64.11-.16-.54-.36-.89-1.16-.51-1.8.86-1.66-.44-1.55-1.59l1.46-4.29c-.17,1.41,1.34,2.5.27,4.2,1.38-.36,1-3.5,2.91-1.18.46-.48,1.24-.74,1.06-1.67-.11-.56-1.33-1.07-.22-1.68.82-.46,1.22.45,1.75.84a3.2,3.2,0,0,0-.45,1.93C15.28,55.5,13.87,56.4,13,57.62Z"/><path class="cls-79" d="M8.21,55.71c-.26.94-.44,1.93-1.44,2.43C6.79,57.05,6.79,56,8.21,55.71Z"/><path class="cls-84" d="M12.54,61c.2-.56,1-.75.91-1.49.71.49.42,1.23.47,1.88Z"/><path class="cls-136" d="M27.4,29.79c-1.79-.55-3-2.73-5.3-1.91-.32-.33-.65-.65-1-1,1.63.47,2.62-1.86,4.34-1l.26.16c.36.94,1,.7,1.6.33a2,2,0,0,1,1.63.45,2.75,2.75,0,0,0,2.1,1.34c.67,0,1.47,0,1.72.91C31.22,31.32,29.29,30.38,27.4,29.79Z"/><path class="cls-137" d="M33.71,12.5c1.11-.16.36-2.09,1.82-1.91h0c.18,1.12.89,2,1.15,3.13-.21,1.59-1.07,3-1.41,4.55a2.68,2.68,0,0,1-1.16.83,6.38,6.38,0,0,1-2.81.29,1.73,1.73,0,0,1-.63-1,.9.9,0,0,0-1.27-.65c-.53.2-1,.52-1,1.16s.65.79,1.2.87.95,0,1.24.5c-.07.88-.68,1.18-1.42,1.35-1.93.41-3.3-1.72-5.27-1.15a2.54,2.54,0,0,1-1.46-.89c-.63-.73-1.88-1-1.61-2.38a.93.93,0,0,1,.66-.19c1,.15,2.1.5,2.56-.84.53-1.52-1.25-1-1.65-1.76a2.23,2.23,0,0,1,1.84-1,10,10,0,0,0,3.38-2.84l.45,0c.82.22,2-.56,2.39.87a2.93,2.93,0,0,0-.05.29,1.18,1.18,0,0,0,.09,1.32c.13.13.26.26.4.38a1.16,1.16,0,0,0,1.26.12l.27-.06C33.33,13.47,33.58,13.05,33.71,12.5Z"/><path class="cls-138" d="M22.67,14.44c.87.11,2.08-.51,2.43.71a2.34,2.34,0,0,1-.52,2.19c-1.14,1.11-2.29.33-3.42-.07-.65-.82.19-1.28.47-1.88Z"/><path class="cls-139" d="M20.11,23.09c-.51-.13-.9-.32-.46-.92l1.48-2c1.84-1,2.43.17,2.87,1.63a1.61,1.61,0,0,1-.49,1.37,1.26,1.26,0,0,1-.63.16,1.76,1.76,0,0,0-1.93,0A.89.89,0,0,1,20.11,23.09Z"/><path class="cls-140" d="M24.5,9.59c.94.15,2.18-.53,2.6,1,0,1.78-.62,2.83-2.63,2C23.36,11.55,24.53,10.58,24.5,9.59Z"/><path class="cls-141" d="M23.05,23.05a1.11,1.11,0,0,0,.55-1,2,2,0,0,1,.58-.37,3.22,3.22,0,0,1,2.76,1.17,2,2,0,0,1,.41.93,4.25,4.25,0,0,1,0,1,2.34,2.34,0,0,1-.23,1,1.08,1.08,0,0,1-.49.43,1.1,1.1,0,0,1-1.22-.29h0v-.47c0-2.69,0-2.69-2.42-1.46A.66.66,0,0,1,23.05,23.05Z"/><path class="cls-142" d="M21.63,15.39c-.16.63-.31,1.26-.47,1.88.27,1,1.33,1.22,1.89,1.93a1.33,1.33,0,0,1-1.91,0c-1.68.08-2.44-.23-1.1-2C20.54,16.6,20.79,15.75,21.63,15.39Z"/><path class="cls-143" d="M24.47,12.55c1.51.2,2.24-.66,2.62-2l.8,0c-.45,1.75-1.22,3.12-3.38,2.84C24.5,13.15,24.48,12.85,24.47,12.55Z"/><path class="cls-144" d="M21.14,19.22l1.91,0,1,1a1.34,1.34,0,0,1,0,1.88,3.44,3.44,0,0,1-.46,0,2,2,0,0,0-2.47-1.93Z"/><path class="cls-145" d="M23.05,23.05c0,.32,0,.64,0,1-1-.26-2.44.92-2.93-.92l1,0a1,1,0,0,1,1.37,0Z"/><path class="cls-146" d="M40.36,11.53c1.28-.3,2.54-1.81,3.85,0,.07.09.13.18.21.27.18,1,.44,2-.25,2.89-1.21.91-2.76,1.44-3.35,3-.73.73-1.62,1.77-2.61,1.17-1.46-.88-.89-2.51-.74-3.9.17-.94,1.42-1,1.6-1.93a1.83,1.83,0,0,1,.41-.78A2.56,2.56,0,0,1,40.36,11.53Z"/><path class="cls-147" d="M44.21,11.49a2.86,2.86,0,0,1,.87-1.94,2.48,2.48,0,0,1,2-.3,1.49,1.49,0,0,1,.67.51c.54,1.42.21,2.57-1.24,3.12-1.19.45-2-.17-2.32-1.35Z"/><path class="cls-148" d="M39.8,12.45l-.36.52c-.33,1.39-1.33.88-2.19.78a2.18,2.18,0,0,1-.15-3.13.92.92,0,0,0,.37,0C39.56,10.06,39.78,10.24,39.8,12.45Z"/><path class="cls-149" d="M47.4,9.69a1.28,1.28,0,0,1-.34-.07,1.19,1.19,0,0,1-.48-1A3.5,3.5,0,0,1,48,6.26L50,6.75a.79.79,0,0,1,.19.86,1.35,1.35,0,0,1-.42.44,3.71,3.71,0,0,0-.92.71,5.3,5.3,0,0,1-.84.8A1.1,1.1,0,0,1,47.4,9.69Z"/><path class="cls-97" d="M37.1,10.62,37,13.43l-.14.17h-.22l-.17-.14c-1.35-.62-1.53-1.63-.95-2.89Z"/><path class="cls-150" d="M39.8,12.45c-.07-1.51-.9-2.07-2.33-1.88,1.42-1.6,2-1.4,2.89,1C40.31,11.93,40.27,12.32,39.8,12.45Z"/><path class="cls-151" d="M46.58,8.62a1.08,1.08,0,0,1,.48,1l-2-.06C45.18,8.59,45.91,8.66,46.58,8.62Z"/><path class="cls-152" d="M31.67,10.55c2.67.17.92,1.88,1,2.94v0a1.48,1.48,0,0,1-1.94-.07h0a1.48,1.48,0,0,1,0-2l0-.07Z"/><path class="cls-153" d="M56.65,10.6c.8.84.14,1.93.49,2.84a1,1,0,0,1-1.23.28c-.52-1.4-1.94-1-2.94-1.48a1,1,0,0,1-.46-.46,1.88,1.88,0,0,1,0-1.3.66.66,0,0,1,.5-.39c.77-.22.32-1.1.79-1.48l2.43,1.08C56.36,10,56.5,10.3,56.65,10.6Z"/><path class="cls-154" d="M57.59,7.69l0,1A2.08,2.08,0,0,1,55,7.08C56.1,6.33,56.88,6.88,57.59,7.69Z"/><path class="cls-155" d="M49.56,7.74a.78.78,0,0,0,.37-.06,1.78,1.78,0,0,1,2.39.07l.06.82c.23,2.27-1.31,1.5-2.45,1.45A1.31,1.31,0,0,1,49.56,7.74Z"/><path class="cls-156" d="M49.91,9.63c.89-.19,2.18.53,2.47-1.06.55.37.42,1,.61,1.52l-.2.44a2.3,2.3,0,0,1-2.36.48,1.43,1.43,0,0,1-.62-.38A.84.84,0,0,1,49.91,9.63Z"/><path class="cls-157" d="M52.32,7.75l-2.39-.07c0-.31,0-.62,0-.93C50.8,7,52.07,6.13,52.32,7.75Z"/><path class="cls-158" d="M64.85,28.8l.39.08c-.16,2.08,1.53,3.65,1.57,5.68-.47-1-2.38-.81-2.18-2.45a5.65,5.65,0,0,0-2.31.34c-.85.56-.17,1.43.09,2.15C60.79,34.05,61,32.23,60,31.22c.58-1.17-1.12-1.42-1-2.41l1-1c.53-.72,1.39-.86,2.13-1.23a1.78,1.78,0,0,1,1.57,1.2C63.87,28.3,64.5,28.84,64.85,28.8Z"/><path class="cls-159" d="M63.85,38.9c-.57-.34-.46-.91-.48-1.43.95.44,2.27-.11,3,1.22C65.55,39.27,64.53,37.74,63.85,38.9Z"/><path class="cls-50" d="M66.26,42.73c-.31-.64-.63-1.28-1-1.92.6.2,1.41-.53,1.76.07S66.47,42.07,66.26,42.73Z"/><path class="cls-159" d="M62.91,37.45c-.15-.64-.31-1.28-.46-1.92,1.74,0,1.49.88.92,1.94Z"/><path class="cls-160" d="M75.37,51.4c.39-.22.39-.22.54.45.14.49.27,1,.4,1.47A1.78,1.78,0,0,1,75.37,51.4Z"/><path class="cls-50" d="M73.93,49c.91.34,1,1.09,1,1.91A2.68,2.68,0,0,1,73.93,49Z"/><path class="cls-161" d="M53.3,38.41c-.59-1.28-1.36-2.55-.11-3.76-.44-.88-1.46.34-1.6-.58a1.23,1.23,0,0,1,1.24-1.42c1.32.44,1.93-1.67,3.34-.94.43,1.46-.71,2.53-1,3.83a1.9,1.9,0,0,0-1.53.71l.56.25c.52.81-.06,1.34-.47,1.92Z"/><path class="cls-162" d="M62,26.88c-.47.71-1.27.71-2,1-.65-1-1.83.71-2.43-.49-.14-.1-.19-.21-.14-.31s.1-.14.15-.14a8.91,8.91,0,0,0,4.79-2.43C63.54,25.5,63.45,26,62,26.88Z"/><path class="cls-163" d="M50.42,31.7l-4.78,0c-.12-1.23,1-.35,1.38-.84a4.7,4.7,0,0,0,2.43-.61c1-.18,2.11-.71,2.88.51.08.75-.65.95-.95,1.45h0C50.84,32.46,50.68,32,50.42,31.7Z"/><path class="cls-162" d="M59.05,28.81c.28.82,3.74.36,1,2.41a20.75,20.75,0,0,0-3.63-1.55Z"/><path class="cls-111" d="M55.22,35.54a5.37,5.37,0,0,1,1-3.83c1.28.56,0,2.36,1.37,2.87l0,1C56.79,36.66,56,34,55.22,35.54Z"/><path class="cls-164" d="M52.33,30.73a5.5,5.5,0,0,0-2.88-.51c1.26-.51,2.34-1.46,3.79-1.47a1.16,1.16,0,0,1,1.52.08C54.49,30.16,52.84,29.72,52.33,30.73Z"/><path class="cls-165" d="M54.76,28.83l-1.52-.08a6.93,6.93,0,0,1,4.35-1.84c0,.15,0,.3,0,.45C56.39,27.36,56,28.84,54.76,28.83Z"/><path class="cls-112" d="M56.16,47.52c-.43.07-.72.22-.58.76C56,50,54.82,50.38,53.75,50s-1.2.68-1.89.45c-1.57-.62-2.87-1.77-4.53-2.29-1.07-.34-1.06-1.76-1.19-2.69s.71-1.67,1.76-1.89c.44-.6.3,1.44,1,.19s1.27-.44,1.86.15A3.61,3.61,0,0,1,53,47.23c.86-.3.59-.59.34-1.08-1-2,.49-3.58.89-5.35.08-.34.68-.29,1,0h0c.68.4,1.23,1,1.88,1.43,0,.38,0,1-.13,1.12C54.67,44.38,56,46.06,56.16,47.52Z"/><path class="cls-111" d="M57.1,42.25c-.87-.17-1.74-.31-1.88-1.43,1.58-1.57,1.32.54,1.91,1A3.83,3.83,0,0,1,57.1,42.25Z"/><path class="cls-166" d="M48,43.7c-2.25,1.06-.57,2.7-.84,4.25,1.7-1.24,1.72-1.24,1.93.37.09.72.19.85,1,.59,1-.31,1.86.18,1.74,1.5h-1c-.37.28-.49.81-1,1-.53,0-1.09.05-1.44-.5a1.31,1.31,0,0,0-1.91,0l-.94-.45c-.52-.73.39-1.29.24-2-.26.55-.41,1.26-1.22,1.05-1-.27-.7-1.26-.95-1.94a2.9,2.9,0,0,0,1.41-2.92c-.15-.48-.32-.94-.94-.93l-1.45-.49v-.94c-.1-1.08.92-1.32,1.45-1.93.92.43,1.91,1.27,2.4-.47,1-.32,1.88.5,2.94.46s.89,1,.81,1.81C49.81,43,48.85,43.29,48,43.7Z"/><path class="cls-72" d="M40.35,50.89c-.34-.5-.64,0-1,0l-1.45-1c-.08-1,1-.85,1.41-1.41s1-1.27,0-1.94c.7,0,1.47-.06,1.35,1-.26,2.43.89,2.32,2.48,1.36,1.2.37,2.79.51,1.45,2.4l-1,.95C42.09,53,41.72,50.76,40.35,50.89Z"/><path class="cls-167" d="M44.66,51.38c.58-1.44-.58-1.83-1.45-2.4l.5-1.43c.69.33.27,1.46,1.21,1.64,1.17-.54-.4-1.39.2-2,1.6.92,1.6.92.52,3.26A.85.85,0,0,1,44.66,51.38Z"/><path class="cls-168" d="M40.35,50.89c1.79-1.08,2.06,1.34,3.34,1.44a1.53,1.53,0,0,1-.94,1C41.67,52.76,40.48,52.36,40.35,50.89Z"/><path class="cls-112" d="M49.93,51.4a.89.89,0,0,1,1-1c-.12.66.79,1.32.11,1.93s-.65-.43-1.06-.49C49.94,51.71,49.93,51.55,49.93,51.4Z"/><path class="cls-112" d="M46.58,50.9c.58-2.24,1.65-.2,2.48-.29,0,.07-.06.17-.12.19a3.27,3.27,0,0,1-.45.1Z"/><path class="cls-169" d="M55.21,40.82c-1.81,1-2,4.69-.35,5.9a6.34,6.34,0,0,1-1.26,1c-.53.22-1.64,1.34-1.17-.7.31-1.3-1.16-2-2-2.82-.52-.69.08-1.51-.22-2.23,0-1.81-1.32-3.68.22-5.44,1.78.23,2,1,.8,2.84.73.52,1-.72,1.61-.45h0c.55.51,1.31.22,1.91.5Z"/><path class="cls-111" d="M58.12,37c0,.79-.15,1.41-1.09,1.57-.45.07-.87.45-1.33,0a.66.66,0,0,1-.09-.86c.44-.88.73.25,1.09.08s.95-.55,1.42-.83Z"/><path class="cls-111" d="M53.78,38.42c.16-.64.31-1.28.47-1.92C54.93,37.35,55.13,38.07,53.78,38.42Z"/><path class="cls-111" d="M54.73,39.39a1.36,1.36,0,0,1-1.91-.5C53.48,39,54.24,38.66,54.73,39.39Z"/><path class="cls-170" d="M62,26.88c.65-.71,1.54-1.38.42-2.4a2.9,2.9,0,0,0,.06-.41l.94-.06c-.16,1.79,1,3.2,1.47,4.79-.38.08-.82.09-.75.66,0,.37,1.18.87,0,1a.85.85,0,0,1-.89-1.26C63.74,27.94,63,27.33,62,26.88Z"/><path class="cls-171" d="M48.49,23.08l-1.31.46a3,3,0,0,0-2,.74c-1,1.17-2.06,1.1-3.23.36a2.14,2.14,0,0,1-.83-.59,1.27,1.27,0,0,1,0-1c.74-1.45,2.38-1.61,3.52-2.49.87-1.06,2.3-1,3.37-1.6a2.29,2.29,0,0,1,1.72.77c.49.43,1,.15,1.55.13.8-.05,1.4.16,1.3,1.15a3.16,3.16,0,0,1-1.44,1.24,2.78,2.78,0,0,1-.6.19C49.79,22.49,49.25,23.11,48.49,23.08Z"/><path class="cls-172" d="M41.78,28.82c-.51.59-1.31,1-1.44,1.87-1.34,1.15-2.86.69-4.35.5-1-.51-1.32-1.72-2.35-2.17a1,1,0,0,1-.19-1,1.53,1.53,0,0,1,.5-.48,5.69,5.69,0,0,1,1.34-.32c.58-.07,1-.54,1.55-.67C38.61,27,40.52,27.24,41.78,28.82Z"/><path class="cls-173" d="M35.54,30.73l4.8,0,6.68.14-1.38.84-.08,0c-2.12,2.11-4.75,1.58-7.32,1.42-.62-1.43-2.59-.91-3.27-2.25A.38.38,0,0,1,35.54,30.73Z"/><path class="cls-174" d="M41.78,28.82l-5.19-1.93c-.82-1.05-1.29-2.51-3-2.6A1.28,1.28,0,0,1,33,23.17c1.21-1.18,2.6-.52,3.93-.37.51.9,1.93.23,2.33,1.33-.38,2.4,1.3,3.1,3.08,3.73a.75.75,0,0,1-.08.94Z"/><path class="cls-175" d="M52.34,21.14c-.14-1.07-.74-1-1.53-.69-.45.18-1.15,1-1.35-.27.39-.58.75-1.19,1.49-1.38a2.64,2.64,0,0,1,1.71.1c.57.25.67.9,1.1,1.26l2.39-.46a1.46,1.46,0,0,1-.47,1.89l-1.42.52L54,22.3a1.06,1.06,0,0,1-.56-.2A4.29,4.29,0,0,1,52.34,21.14Z"/><path class="cls-176" d="M55.68,21.59l.48-1.89a.86.86,0,0,1,1-.35c.11,2.09.88,3.52,3.3,3.3a1.27,1.27,0,0,1,.53.42C58.78,25.43,57.45,25.06,55.68,21.59Z"/><path class="cls-177" d="M48.49,23.08c.64-.35.74-1.7,1.92-1,.68.67.09,1.34,0,2-.33.57-1.07,1-.47,1.84.12.11.16.21.12.32s-.09.15-.13.15C47.46,26.16,49,24.17,48.49,23.08Z"/><path class="cls-178" d="M46.58,27.88a2.36,2.36,0,0,1-2.39,1.89c-.39-.6-1.78-.4-1.4-1.5s1.44-1,2.38-1A1.84,1.84,0,0,1,46.58,27.88Z"/><path class="cls-179" d="M50.41,24.1c-.85-.68.12-1.35,0-2h.48a2.51,2.51,0,0,1,2.89,0h0a1.22,1.22,0,0,1,0,1.53,1.38,1.38,0,0,1-.64.12c-.72,0-1.48-.35-2.14.24Z"/><path class="cls-172" d="M45.15,27.84c-.67.08-1.41-.17-2,.49,0,.71,1.32.54,1.08,1.44a1.71,1.71,0,0,1-1.95-1v-1c0-.12,0-.24,0-.36.84-1.45,1.84-1.31,2.93-.3A.63.63,0,0,1,45.15,27.84Z"/><path class="cls-180" d="M49.93,26.41c0-.16,0-.31,0-.47.77,0,1.48.06,1.39,1.11,0,.43-.27.78-.76.69C49.79,27.6,50,26.92,49.93,26.41Z"/><path class="cls-181" d="M47.19,24c1.73,1,.5,2-.11,3l-.23-.2a2.23,2.23,0,0,1-.28-1.19,3.07,3.07,0,0,1,.17-1.2A.63.63,0,0,1,47.19,24Z"/><path class="cls-182" d="M53.72,24.92c-.86-.09-2,.61-2.37-.87a1.88,1.88,0,0,1,1.89-.5h.08C53.7,23.94,54,24.34,53.72,24.92Z"/><path class="cls-183" d="M53.24,23.55a3.08,3.08,0,0,1-1.89.5L51,24C51.47,22.53,52.3,22.73,53.24,23.55Z"/><path class="cls-184" d="M45.15,27.84l0-.48a.45.45,0,0,1,.11-.66,1.46,1.46,0,0,1,1.78.16l.07.09c-.16.31-.33.62-.5.93Z"/><path class="cls-185" d="M45,24c.5-1.23,1.26-1.29,2.21-.49a.69.69,0,0,0,0,.45L47,24a1.48,1.48,0,0,1-1.53.39A1.17,1.17,0,0,1,45,24Z"/><path class="cls-186" d="M53.72,24.92c-.13-.45-.27-.9-.4-1.36.52-.37.44-.94.46-1.47a2.57,2.57,0,0,1,.48,0C54,23,54.72,24.14,53.72,24.92Z"/><path class="cls-61" d="M61,23.07l-.52,0a1.45,1.45,0,0,1-.19-1.68l.26-.24C61,21.7,61.8,22.19,61,23.07Z"/><path class="cls-61" d="M59.51,19.27l1-.06c0,.63,0,1.26,0,1.9l-.06.05C59.3,21,59.13,20.26,59.51,19.27Z"/><path class="cls-187" d="M53.76,20.16a.86.86,0,0,1-1-.93c-.86-1.1-.49-2.58-1.18-3.73a2.06,2.06,0,0,1,1.06-2.14c1-.19,2-.66,3,.1l1.44,0c.08,1.08-1.5,2.22.1,3.3.07.05-.51.59-.9.53C53.88,16.83,53.55,18.25,53.76,20.16Z"/><path class="cls-188" d="M59.51,19.27a2.94,2.94,0,0,0,1,1.89c0,.62,0,1.24,0,1.87-3.84.13-4.31-.39-3.31-3.68.15-.07.29-.15.43-.23a1.55,1.55,0,0,1,2,.1Z"/><path class="cls-119" d="M59.53,19.22l-2-.1a1,1,0,0,1,.51-.9C58.77,18.27,59.51,18.23,59.53,19.22Z"/><path class="cls-189" d="M59.54,16.33c.74.76.14.87-.47,1C58.33,16.55,58.92,16.44,59.54,16.33Z"/><path class="cls-190" d="M31.65,32.69l.54,0a3.06,3.06,0,0,1,3.34-.47c.19.19-.11.73.6.6,1-.19,2.18-.43,1.9,1.36a1.4,1.4,0,0,0,1.93.38c1-.74,1.54,0,1.81,1,0,.65.6.91.8,1.4s.07,1.08-.64.78c-2.52-1.06-2.13,1.67-3.2,2.49-.34.26.35.21.57.32.76.38.59,1.2,0,1.1-.91-.17-2.44,0-2.35-1.74a3.6,3.6,0,0,0-4.8-1.92c-1.05,0-.68-.6-.49-1.13.41-.56,1-1.06.23-1.8A1.6,1.6,0,0,1,31.65,32.69Z"/><path class="cls-191" d="M41.77,35.5c-.53-.22-.73-1.22-1.55-.74-.6.35.17.87-.17,1.45-.8-.46-1.2-1.61-2.41-1.45-.51.07-1.21-.16-.17-.85.73-.49-.11-.63-.52-.76-.84-.26-1.42.52-2.19.59-.08-.69.39-.87.81-1.08,1-.89,1.9-.55,2.85,0,2.41-.1,4.9.41,7.14-.95-.09.48-1.06.58-.53,1.36.86,1.25-.53,1.52-.94,1.32C42.67,33.66,42.42,34.91,41.77,35.5Z"/><path class="cls-192" d="M50.41,36.5c-.4,1.92.05,3.84,0,5.75a.32.32,0,0,1-.48,0c-.27-.51.78-2-1.12-1.3-.86.32-1.46-.77-2.24-1.1C46.39,37.07,49.24,37.74,50.41,36.5Z"/><path class="cls-193" d="M42.74,40.82c-.71-.29-.2-1.21-.79-1.58-.13.11-.29.18-.35.29-.26.49.72,1.34-.4,1.55a.64.64,0,0,1-.68-.78c.15-.66.1-1.52.94-1.78.66-.22,1.38-.05,1.54.69a4.27,4.27,0,0,1-.26,1.61Z"/><path class="cls-194" d="M46.59,33.8c.68-.08,1.42-.49,1.72.36,0,.14-.16.48-.33.58C46.89,35.39,47.5,33.42,46.59,33.8Z"/><path class="cls-123" d="M44.18,40.34a5.49,5.49,0,0,1-1.45,1.93c-.77-.49-.11-1,0-1.45h0Z"/><path class="cls-106" d="M50.42,31.7l1,.48c-.21.41-.45.88-1,.75C50.31,32.91,50.41,32.13,50.42,31.7Z"/><path class="cls-195" d="M31.65,32.69c.13.66-.16,1.46.62,1.9,1.58.87.89,1.62-.11,2.36-.95-.16-1.89,1.14-2.86,0-.54,0-1.11.07-1.46-.5-.2-.33-.4-.67-.77-1.27,1.07.31,2.24,1.06,2.18-.91A2.9,2.9,0,0,1,31.65,32.69Z"/><path class="cls-196" d="M29.3,37a3.23,3.23,0,0,0,2.19-.49c.49-.39.62,0,.67.46-.44.34-.47.66,0,1a6.59,6.59,0,0,1,.42,1.12c.09.56.08,1.21-.73,1.2s-1-.42-.78-1.13c.12-.4.16-.85-.29-1-.82-.33-.65.32-.73.76,0,.12-.44.3-.5.25A1.48,1.48,0,0,1,29.3,37Z"/><path class="cls-197" d="M25.93,37.46l.52.5.48.93c.36,1,.9,1.93,0,2.89C25.35,40.63,26.13,38.93,25.93,37.46Z"/><path class="cls-124" d="M29.68,40.38c-.27.16-.44.34-.61.35-.33,0-.6-.18-.49-.53.05-.13.37-.25.56-.23S29.45,40.19,29.68,40.38Z"/><path class="cls-198" d="M44.18,43.7c.3-.41.7-.64,1.12-.27s-.06.8-.18,1.2A1.55,1.55,0,0,1,44.18,43.7Z"/><path class="cls-199" d="M38.42,32.65H35.57c-1.12-.63-2.25.36-3.38,0-1.08-1-2.59-1-3.9-1.52a.24.24,0,0,1-.06-.21c0-.06.09-.11.15-.17a7.52,7.52,0,0,1,6.67.05C36,31.66,38.06,30.63,38.42,32.65Z"/><path class="cls-200" d="M35.05,30.8c-2.22,0-4.45-.45-6.68-.05l-1-1c1.75-.39,3.78.85,5.27-.95a.64.64,0,0,1,.92-.06c1.44-.13,2.19.41,1.95,1.95Z"/><path class="cls-77" d="M22.1,33.14l-1.44-.49a.61.61,0,0,1,0-.92C21.67,31.64,22.66,31.59,22.1,33.14Z"/><path class="cls-86" d="M20.64,31.73c0,.31,0,.61,0,.92-.51,0-1.16.15-1.33-.58s.32-.78.81-.87C20.3,31.38,20.47,31.56,20.64,31.73Z"/><path class="cls-93" d="M17.3,46.09c-.45-.91-1.66-1.69-.48-2.87C16.28,44.29,18.2,45,17.3,46.09Z"/><path class="cls-201" d="M33.59,28.78l-.92.06a18,18,0,0,0-2.08,0c-1.47.15-1.93-.57-1.77-1.91a2.43,2.43,0,0,0,.2-.25c1.54-.54.84-2.22,1.6-3.16.88.09,1.57-.91,2.52-.44l.48.95c.27.43,0,.81-.12,1.2a17.24,17.24,0,0,1-.64,1.69c0,.19-.53.14-.23.49a1.71,1.71,0,0,1,.68.17.57.57,0,0,1,.29.42Z"/><path class="cls-202" d="M26.93,25,27,24a2.35,2.35,0,0,1,2.51-.36c1.34,1.4.45,2.34-.67,3.23l0,0L27,26.87a.65.65,0,0,1-.14-.94l.13,0A.62.62,0,0,0,26.93,25Z"/><path class="cls-89" d="M26.81,25.93c0,.32.09.63.14.94a6.17,6.17,0,0,1-.58.79,2,2,0,0,1-.91-1.72Z"/><path class="cls-203" d="M33.14,23.07c-.79.16-1.35,1.54-2.39.46a3.47,3.47,0,0,1-1.68-1.46.9.9,0,0,1,.21-.91,1.48,1.48,0,0,0,1.45-1c-.32-.55-.29-.93.46-1a5.28,5.28,0,0,1,2.9-.46.72.72,0,0,1,.1.62c-.45.92-.83,1.81.52,2.31a3,3,0,0,0,2.14-.18,1.72,1.72,0,0,1,1.63.08c.1,1.12-.6,1.43-1.52,1.52Z"/><path class="cls-204" d="M37.93,14.45c0,.31,0,.63,0,.94.09,1-.47,2.35.29,3,1,.81,1.53-1.08,2.58-1.06a.86.86,0,0,1,.67.65,15.64,15.64,0,0,1-.9,3.14,1.46,1.46,0,0,1-.53.42c-.8.37-1.55-.19-2.33-.13a.63.63,0,0,1-.45-.44c0-.49.3-1-.25-1.43-.57-.55-1.45-.61-2-1.26-.27-1.81.56-3.29,1.42-4.77h0c.29.27.5.65,1,.73A.7.7,0,0,1,37.93,14.45Z"/><path class="cls-205" d="M37.49,20.64l0,.5a3.06,3.06,0,0,1-.49.95c-.81-.1-1.61,1-2.42,0a3.07,3.07,0,0,1-.47-2.88,3.84,3.84,0,0,0,0-.48,1.07,1.07,0,0,1,1-.5,2.48,2.48,0,0,1,2.41,1A1.09,1.09,0,0,1,37.49,20.64Z"/><path class="cls-206" d="M31.19,19.2a1,1,0,0,0-.46,1c-1.26.4-2.68.64-3.18-.87-.44-1.33.87-1.93,1.89-2.27C31.73,16.29,31.1,18.08,31.19,19.2Z"/><path class="cls-207" d="M29.28,21.16v.92c-.53.66-1.41.53-2.07.91l-.32.07c-1.06,0-1.69-1.22-2.84-1,0-.62,0-1.25,0-1.88a2.34,2.34,0,0,1,3.16.29A2.64,2.64,0,0,0,29.28,21.16Z"/><path class="cls-208" d="M30.7,11.51l0,2C29.39,12.84,29.4,12.19,30.7,11.51Z"/><path class="cls-209" d="M30.76,13.45l1.94.06a.93.93,0,0,1-1.14.88C31,14.34,30.77,14,30.76,13.45Z"/><path class="cls-210" d="M22.51,23l-1.37,0c0-.51.14-1,.79-.91S22.49,22.6,22.51,23Z"/><path class="cls-211" d="M29.78,24H27l-.06-1h0C28.09,22.69,29.47,21.68,29.78,24Z"/><path class="cls-211" d="M26.93,25c.43.09,1.13-.16,1.14.5s-.7.41-1.13.5C26.94,25.63,26.93,25.29,26.93,25Z"/><path class="cls-212" d="M41.28,17.77l-.47-.48c-.11-2.4,1.89-2.34,3.37-2.88a.43.43,0,0,1,.58,0c0,1.34-1.38,2.79.35,4a3.17,3.17,0,0,1,0,2.74,15.82,15.82,0,0,0-3.85,1.94L41,23a2.07,2.07,0,0,1-.59-.69c-.15-.37-.36-.74-.08-1.15l0,0a1,1,0,0,1,.4-.25c.83-.27,2.19.25,2.31-1.11C43.16,18.7,42.22,18.14,41.28,17.77Z"/><path class="cls-213" d="M44.65,14.41h-.47c0-1-.4-1.92,0-2.88.63.78,1.41,1.4,2.4.86s1-1.65.81-2.7l.17-.09c2.19.9,1.12,2.19.4,3.43a3.42,3.42,0,0,1-.78.69A3.82,3.82,0,0,1,44.65,14.41Z"/><path class="cls-214" d="M37.93,14.45a3.71,3.71,0,0,0-.47,0c-.88.1-.72-.41-.55-.92l.1-.07c.84,0,1.74.32,2.43-.46C40.17,14.72,38.71,14.24,37.93,14.45Z"/><path class="cls-153" d="M47.53,13c.61-1.11,1.42-2.22,0-3.36a1.51,1.51,0,0,1,.93-.95c1.25.06.51,1.63,1.46,1.91h0c.84.7,2.3.17,2.84,1.44l0,0a2.32,2.32,0,0,1,0,1.45l-1,1.89a1.08,1.08,0,0,1-.64,1.07.65.65,0,0,1-.56-.21c-.31-.65-.94-.59-1.51-.68C48.54,14.73,47.59,14.13,47.53,13Z"/><path class="cls-213" d="M50,10.56c-1.38,0-.66-1.51-1.46-1.91,0-.68.4-1,1.06-.91-.05.66-.23,1.35.35,1.89C49.93,9.94,49.94,10.25,50,10.56Z"/><path class="cls-137" d="M36.91,13.5l.55.92c-.05.31-.15.8-.46.7-.84-.27-.36-1.07-.5-1.64A1.88,1.88,0,0,1,36.91,13.5Z"/><path class="cls-215" d="M52.83,13.48a1.23,1.23,0,0,1,0-1.45c1,.43,3.2-1.63,2.87,1.43C54.74,13.3,53.79,14.22,52.83,13.48Z"/><path class="cls-216" d="M52.79,12c-.9-.57-2.17-.41-2.84-1.44l2.84,0Z"/><path class="cls-217" d="M49.94,42.27l.48,0c.88.65-.2,1.28,0,1.92C50,44,49.67,43,49,44.07c-.83,1.46-.66-.29-1-.37A2.58,2.58,0,0,1,49.94,42.27Z"/><path class="cls-218" d="M48,42.08c0,.39-.27.58-.62.46a.74.74,0,0,1-.44-.48.55.55,0,0,1,.56-.61C47.82,41.44,48,41.74,48,42.08Z"/><path class="cls-219" d="M42.24,27.84c-3,.16-4-.91-3.3-3.73a1.21,1.21,0,0,1,.57-.48,1.88,1.88,0,0,1,1.81.33l.84.11c1.11,1.24.65,2.51.07,3.78Z"/><path class="cls-220" d="M45.14,21.13a8.93,8.93,0,0,0-.47-2.86c-.19-1-.92-2.36,1.18-2.09.89.11,1.08-1.52,2.19-.89.42,1,0,2,.29,3a1.05,1.05,0,0,1-.31.94C47.67,20.77,45.67,19.85,45.14,21.13Z"/><path class="cls-221" d="M42.23,27.85c0-1.26,0-2.52-.07-3.78A2,2,0,0,0,45,24h.26c.42.64.1,1.36.24,2a1.06,1.06,0,0,1-.31.81c0,.17,0,.33,0,.5A1.94,1.94,0,0,0,42.23,27.85Z"/><path class="cls-222" d="M48,19.21l0-.94.26-.2c1.5.39,1.36-1.73,2.62-1.72h0a2.07,2.07,0,0,1,0,2.86c-.49.31-.68,1.06-1.43,1Z"/><path class="cls-186" d="M53.78,22.09H50.89a1.52,1.52,0,0,1,1.45-.95C53,21.19,53.74,21.11,53.78,22.09Z"/><path class="cls-223" d="M41.32,24,39.39,24c.07-1.42.81-1.54,1.89-1h0Z"/><path class="cls-224" d="M33.12,25l.5-1c2.32-.42,3,.88,3,2.87-.12.58-.36,1-1.06,1-.45-.52-.92-.39-1.39,0L33.6,28v-.11A3.59,3.59,0,0,1,33.12,25Z"/><path class="cls-225" d="M34.14,27.82c.27-.27.5-.72.8-.77.5-.1.57.41.59.81Z"/><path class="cls-226" d="M41.28,23.06c-.82-.06-1.55.08-1.89,1l-.45.08c-.87.06-1.95.52-2-1,.48-.49,1-1,1.46-1.46a3.15,3.15,0,0,1,2.39.47Z"/><path class="cls-227" d="M50.89,19.2l0-2.86c.31-.32.63-.64.94-1,1.61,1,.76,2.54.93,3.86Z"/><path class="cls-228" d="M45.08,26c-.72-.71.11-1.29.15-1.93H47l0,1.43C46.57,26.27,45.94,26.57,45.08,26Z"/><path class="cls-229" d="M45.08,26a3.12,3.12,0,0,0,2-.51L47,26.86H45.16C45.13,26.56,45.1,26.25,45.08,26Z"/><path class="cls-230" d="M29.78,24c-.49-1.77-1.93-.59-2.87-.93.26-1.62,1.55-.75,2.38-1,.6.37,1.43.51,1.46,1.45-.45,1.23,1,3.58-1.95,3.35C29.15,25.93,29.85,25.1,29.78,24Z"/><path class="cls-231" d="M33.12,25a7.53,7.53,0,0,1,.48,2.9l-.92,0a.67.67,0,0,1-.06-1C32.75,26.23,32.47,25.48,33.12,25Z"/><path class="cls-232" d="M32.62,26.88l.06,1c-.53,0-1.1.18-1.59-.24C31.31,26.75,32,27,32.62,26.88Z"/><path class="cls-137" d="M34.09,19.22a5,5,0,0,1,.47,2.88C32.7,21.35,32.58,20.59,34.09,19.22Z"/><path class="cls-146" d="M40.81,22.1a4.06,4.06,0,0,1-2.39-.47L37,22.09a1,1,0,0,1,.49-.95h2.86Z"/><path class="cls-233" d="M41.28,17.77c1.89-1.11,2.12.95,2.58,1.69.61,1-.51,1.5-1.45,1.89-.79.32-1.36-.25-2-.23A5.33,5.33,0,0,1,41.28,17.77Z"/><path class="cls-146" d="M39.5,19.32c.12.3.27.48.26.67,0,.35-.24.55-.57.37-.13-.07-.2-.39-.16-.57S39.29,19.52,39.5,19.32Z"/><path class="cls-146" d="M37.49,20.64c0-.47,0-.95,0-1.42C38.93,19.68,38.23,20.16,37.49,20.64Z"/><path class="cls-153" d="M48,15.38c-1.07.09-1.13,2.51-3,1.22-.34-.24.53,1.27-.38,1.67C42,17,44,15.7,44.65,14.41a5,5,0,0,1,2.41-.95C47.56,14,48.22,14.48,48,15.38Z"/><path class="cls-222" d="M48,15.38c-.5-.55-1.13-1-.94-1.92.16-.16.32-.33.47-.5,1.12.44,1.44,1.5,1.93,2.43.54,1.46-.9,1.93-1.43,2.86l0,0C47.1,17.31,47.6,16.34,48,15.38Z"/><path class="cls-234" d="M48,18.25c-.48-1.43,1.34-1.71,1.43-2.86.42-.14.54-.94,1-.69.69.33.29,1.08.37,1.65a3.48,3.48,0,0,0-.51,1C50.07,18.92,49.3,19.19,48,18.25Z"/></g></g></svg>