<svg xmlns="http://www.w3.org/2000/svg" viewBox="0 0 85.52 69.1"><defs><style>.cls-1{fill:#666364;}.cls-2{fill:#5d5a5c;}.cls-3{fill:#454445;}.cls-4{fill:#625f61;}.cls-5{fill:#545152;}.cls-6{fill:#414142;}.cls-7{fill:#5b5757;}.cls-8{fill:#474849;}.cls-9{fill:#4d4a4a;}.cls-10{fill:#333131;}.cls-11{fill:#060605;}.cls-12{fill:#494949;}.cls-13{fill:#272827;}.cls-14{fill:#b5b4b6;}.cls-15{fill:#a6a5a8;}.cls-16{fill:#a7a6a9;}.cls-17{fill:#9fa1a2;}.cls-18{fill:#4a4a4a;}.cls-19{fill:#282d2c;}.cls-20{fill:#3c3b3b;}.cls-21{fill:#161616;}.cls-22{fill:#302f30;}.cls-23{fill:#9c9d9d;}.cls-24{fill:#4a4a49;}.cls-25{fill:#6a6568;}.cls-26{fill:#666165;}.cls-27{fill:#3d3e3e;}.cls-28{fill:#635f60;}.cls-29{fill:#2d2c2c;}.cls-30{fill:#b1b1b3;}.cls-31{fill:#111112;}.cls-32{fill:#6c6869;}.cls-33{fill:#373838;}.cls-34{fill:#302e2e;}.cls-35{fill:#323936;}.cls-36{fill:#2f3931;}.cls-37{fill:#86898c;}.cls-38{fill:#2b2a2b;}.cls-39{fill:#070606;}.cls-40{fill:#1f1c1d;}.cls-41{fill:#222521;}.cls-42{fill:#424040;}.cls-43{fill:#1d1d1d;}.cls-44{fill:#3e3c3c;}.cls-45{fill:#383736;}.cls-46{fill:#a5a5a6;}.cls-47{fill:#515251;}.cls-48{fill:#363232;}.cls-49{fill:#141111;}.cls-50{fill:#373535;}.cls-51{fill:#040302;}.cls-52{fill:#383636;}.cls-53{fill:#585555;}.cls-54{fill:#565957;}.cls-55{fill:#3d4c44;}.cls-56{fill:#434e47;}.cls-57{fill:#b3b3b5;}.cls-58{fill:#89898b;}.cls-59{fill:#a9a9ac;}.cls-60{fill:#464646;}.cls-61{fill:#a2a1a2;}.cls-62{fill:#9e9fa1;}.cls-63{fill:#2f2e2e;}.cls-64{fill:#343132;}.cls-65{fill:#98999c;}.cls-66{fill:#8b8d8e;}.cls-67{fill:#585755;}.cls-68{fill:#dee6e7;}.cls-69{fill:#6c6a6c;}.cls-70{fill:#b6b7b8;}.cls-71{fill:#c6c6c6;}.cls-72{fill:#c3c3c5;}.cls-73{fill:#b4b4b6;}.cls-74{fill:#c3c2c4;}.cls-75{fill:#d0d0d0;}.cls-76{fill:#adaeb1;}.cls-77{fill:#111011;}.cls-78{fill:#333232;}.cls-79{fill:#bab9bb;}.cls-80{fill:#c3c3c4;}.cls-81{fill:#e0e8ec;}.cls-82{fill:#a2a5a6;}.cls-83{fill:#7e8283;}.cls-84{fill:#848686;}.cls-85{fill:#8a898b;}.cls-86{fill:#282c2c;}.cls-87{fill:#737275;}.cls-88{fill:#b7b5b6;}.cls-89{fill:#5a5657;}.cls-90{fill:#a4a4a6;}.cls-91{fill:#898d8f;}.cls-92{fill:#474446;}.cls-93{fill:#9e9a9f;}.cls-94{fill:#212324;}.cls-95{fill:#02180f;}.cls-96{fill:#bcbdbe;}.cls-97{fill:#b1b2b4;}.cls-98{fill:#b2b1b3;}.cls-99{fill:#9d9c9f;}.cls-100{fill:#99989b;}.cls-101{fill:#2a2a29;}.cls-102{fill:#9b9e9f;}.cls-103{fill:#bdbec0;}.cls-104{fill:#a2a3a5;}.cls-105{fill:#aeadb0;}.cls-106{fill:#919091;}.cls-107{fill:#b4b3b5;}.cls-108{fill:#a3a2a4;}.cls-109{fill:#414e49;}.cls-110{fill:#39413e;}.cls-111{fill:#464545;}.cls-112{fill:#161917;}.cls-113{fill:#191c1c;}.cls-114{fill:#2d2e2d;}.cls-115{fill:#b1b5b5;}.cls-116{fill:#8d8789;}.cls-117{fill:#050505;}.cls-118{fill:#e6ecef;}.cls-119{fill:#7a7878;}.cls-120{fill:#cccccd;}.cls-121{fill:#323332;}.cls-122{fill:#807f7f;}.cls-123{fill:#c6c5c7;}.cls-124{fill:#c7c7c8;}.cls-125{fill:#c6c7c7;}.cls-126{fill:#464645;}.cls-127{fill:#050303;}.cls-128{fill:#2e2d2d;}.cls-129{fill:#1f2222;}.cls-130{fill:#5b5756;}.cls-131{fill:#b9babc;}.cls-132{fill:#b0afb2;}.cls-133{fill:#373737;}.cls-134{fill:#bcbcbe;}.cls-135{fill:#838282;}.cls-136{fill:#343636;}.cls-137{fill:#cbcacb;}.cls-138{fill:#cac9c9;}.cls-139{fill:#696465;}.cls-140{fill:#d4d4d7;}.cls-141{fill:#cbcbcd;}.cls-142{fill:#0b0b0b;}.cls-143{fill:#c4c7c9;}.cls-144{fill:#bebfc1;}.cls-145{fill:#a19d9f;}</style></defs><title>sweater2</title><g id="Layer_2" data-name="Layer 2"><g id="Layer_1-2" data-name="Layer 1"><path class="cls-1" d="M48,45.07a3,3,0,0,0-.5-1.92c-.68-1.53-.64-3.2-.95-4.8L46,36.43A20.94,20.94,0,0,1,45.1,33v0c-.87-1.18-.59-2.63-1-3.93-.81-1.22-.32-2.73-.93-4-.26-.54-.45-.74-1-.61a1.62,1.62,0,0,1-.8-1.1A22.77,22.77,0,0,0,41.86,19c.24-.68.19-1.5,1-1.91,1.51,1,1,2.74,1.51,4.09a23.91,23.91,0,0,1,.69,3A47.78,47.78,0,0,0,46.52,30a4.5,4.5,0,0,1,.15.73c1.29,4.58,2.63,9.14,3.68,13.77a2.07,2.07,0,0,1-.29,1.42c-.78-.18-1-.08-1.16.6C48.4,46.17,47.91,45.8,48,45.07Z"/><path class="cls-2" d="M70.15,57.57,69,55.64l-.42-1.87a.63.63,0,0,1-.07-.65.9.9,0,0,1,.85-.5c1.81,1.43,2.33,3.67,3.36,5.57a11.06,11.06,0,0,0,2.66,3.49c-.66,1.16.33,1.15,1,1.37,1.29.76,1.76,1.76.89,3.13L76,66.1l-.81-.86c-1-.77-2.44-1.17-2.85-2.63A53.63,53.63,0,0,0,70.15,57.57Z"/><path class="cls-3" d="M48.9,46.54l.1-1.67L49.9,46a2.2,2.2,0,0,1,1.41,1.35c.47,1.82,2.09,2.88,3,4.43a1.9,1.9,0,0,1-1.12.77,2.72,2.72,0,0,1-2.85-1.69l0,0c-1.54-.43-.91-2.19-1.83-3C48.61,47.42,48.76,47,48.9,46.54Z"/><path class="cls-4" d="M72.87,62.5c-.87,0-.73-1-1.33-1.28l-1-1.75c-.15-.63-.29-1.27-.44-1.9C71.54,59,72.09,60.79,72.87,62.5Z"/><path class="cls-5" d="M38.79,51.29l0,1.46c-.93,0-1.13-.67-1.42-1.32a29.87,29.87,0,0,1,0-6.75,59.92,59.92,0,0,0,.8-9,4,4,0,0,1,.58-2.57c.68-.44,1,.59,1.59.43l-1,7.18c-.53,1.4-.07,2.86-.29,4.27A38.64,38.64,0,0,0,38.79,51.29Z"/><path class="cls-6" d="M40.33,33.57c-.61.27-1,.22-1.06-.58A1.6,1.6,0,0,1,39,31.52c.38-1.46.63-2.95.9-4.43.17-.92.4-1.91,1.46-2.31,1,.25.5,1.08.65,1.66,0,.93.23,1.9-.33,2.76C41.2,30.66,40.76,32.11,40.33,33.57Z"/><path class="cls-7" d="M38.81,45.14c.26-1.45-.47-3,.5-4.39,0,3,0,6,0,9.08a2.22,2.22,0,0,1-.39.12A9.56,9.56,0,0,1,38.81,45.14Z"/><path class="cls-8" d="M41.81,26.53c-.13-.56,0-1.2-.54-1.61-.51-.69-.21-1.12.45-1.44.45.2.46.62.51,1l0,1.83A.29.29,0,0,1,41.81,26.53Z"/><path class="cls-9" d="M17.73,49.87l-1.88,3.48a1.5,1.5,0,0,1-.76-1.1C15,50.8,16,49.71,16.4,48.44c.32-.72.68-1.43,1-2.16,1.42-2.49,1.87-5.49,4.06-7.56a2,2,0,0,1,.89,1.48,1,1,0,0,1-.31,1A72.45,72.45,0,0,0,17.73,49.87Z"/><path class="cls-10" d="M31.15,55.18c-1.13.28-1.92-.61-2.89-.85-1.41-1-3.73-.79-4.31-3A3.31,3.31,0,0,1,24,48.43L24,47a6.08,6.08,0,0,1,0-3.84l0-.94a.47.47,0,0,1,.68.17c.89,2.24.09,4.61.52,6.88a3.17,3.17,0,0,0,1.31,2.14c.52.38,1.07.71,1.61,1.05,1,.83,2.68.65,3.27,2.13A.82.82,0,0,1,31.15,55.18Z"/><path class="cls-11" d="M11.92,68l-.9.56a7.73,7.73,0,0,1-3.91,0h0c-.83-.24-1.71-.13-2.52-.45L3.33,68.1a.7.7,0,0,1-.23-.61c.29-.78,1-.9,1.67-1a7.89,7.89,0,0,0,2.76.55c.31,0,.62,0,.92,0a5.2,5.2,0,0,1,.88.14,1.76,1.76,0,0,0,1.09,0A1.6,1.6,0,0,1,11.53,67C11.88,67.28,12.15,67.57,11.92,68Z"/><path class="cls-12" d="M11.92,68l-.44-.82a2.87,2.87,0,0,1-.66-1c-.21-.48-.77-.64-1-1.1a1.12,1.12,0,0,1,.08-.93,7.71,7.71,0,0,0,1.2-1.34c.59-1,1.06-.49,1.47.21.12.41,0,.87.28,1.26h0a11,11,0,0,1-.42,3.78Z"/><path class="cls-13" d="M7.11,68.63l3.91,0A4.22,4.22,0,0,1,7.11,68.63Z"/><path class="cls-13" d="M4.62,68.19c.88-.1,1.81-.46,2.52.45C6.1,69.61,5.44,68.41,4.62,68.19Z"/><path class="cls-14" d="M44.53,24.46c-1-2.29-.8-4.89-1.88-7.15-.91-.09-.83-.73-.76-1.36a3.44,3.44,0,0,1,.84-1.12c.65-.8.13-1.66.14-2.5,0-.5.16-.95.69-1.1s1.15,0,1.14.5c-.06,2.27,2.1,3.68,2.17,5.87a6.88,6.88,0,0,0,.72,6.15c.7,1.11.15,2.61-.92,3.65-.69.32-1.09.16-1.38-.62S45.2,25.09,44.53,24.46Z"/><path class="cls-15" d="M49.88,44.59q-1.91-7-3.79-13.93c.59-.44.82-1.23,1.53-1.55a1.43,1.43,0,0,1,1.06,1.64c-.57,2.91,1.33,5.08,2.13,7.57a5.45,5.45,0,0,1,.16,1c-.37,1.83,1.29,3.54.33,5.4A1.19,1.19,0,0,1,49.88,44.59Z"/><path class="cls-16" d="M41.72,23.48a2,2,0,0,0-.45,1.44c-1.36,2-.67,4.63-2,6.65a4.55,4.55,0,0,1-1.13-1.9,1.76,1.76,0,0,1,.55-1.44c.13-1.29,1.07-2.4.84-3.77-.57-.93-1.11-.73-1.62.06a.79.79,0,0,1-.62,0c-1-1.31-.45-2.44.44-3.53a4.81,4.81,0,0,0,1.91-1A3.14,3.14,0,0,0,41,18.78c.39-.4.75-.25,1.1.08l.12.3A5.48,5.48,0,0,1,41.72,23.48Z"/><path class="cls-17" d="M49.88,44.59h1.44c1.39-.15,2.09,1.17,3.19,1.68a9.24,9.24,0,0,0,4.52.84,1.21,1.21,0,0,1,1.19.62c.46,1.48-.34,2.1-1.63,2.29a8.31,8.31,0,0,1-7.77-2.55L49.9,46C49.89,45.54,49.88,45.07,49.88,44.59Z"/><path class="cls-18" d="M42.38,15.75a1.51,1.51,0,0,0,.27,1.56c0,.64.24,1.37-.46,1.85h0c-.39-.71-1.11-1.21-1.33-2s-.26-1.63-.54-2.41a11.29,11.29,0,0,1-.22-1.83c0-1-.48-2-.46-3a3.48,3.48,0,0,1,.54-2.31c.32-.56-.22-1.4.58-1.81l.34.13a2.26,2.26,0,0,1,.72,1.63C41.86,10.27,43,13,42.38,15.75Z"/><path class="cls-15" d="M44.53,24.46c.62.16.74.57.82,1.18s.06,1.63,1.17,1.66c.31-.37.57-.88,1.16-.34a1.77,1.77,0,0,1,.09,1.46c-.89.28.09,2.38-1.72,1.78A18.83,18.83,0,0,1,44.53,24.46Z"/><path class="cls-14" d="M46.05,30.2c1.35,0,.61-1.54,1.42-1.93a.65.65,0,0,1,0,1c.09,1-.29,1.56-1.38,1.43A.66.66,0,0,1,46.05,30.2Z"/><path class="cls-19" d="M83.5,56.59c0,1.56,2.14,1.87,2,3.49-1,.75-.31,2.53-1.86,2.89-.91-.55-.17-1.41-.4-2.09,0-.44.34-.87,0-1.34-.22.42.09.86-.07,1.28a1.19,1.19,0,0,1-.14.61c-1.13.31-1.84-1-2.94-.8A1.85,1.85,0,0,1,79.06,60c-.1-.67.42-.95.8-1.32.94-.72,1.57-1.8,2.71-2.28A1.07,1.07,0,0,1,83.5,56.59Z"/><path class="cls-20" d="M83.5,56.59h-1C80.08,56,80,53.62,78.91,52a1.88,1.88,0,0,1-.06-1,1.77,1.77,0,0,1,.78-1c1.44,1.42,2,3.36,2.82,5.1.24.49.27,1.1,1,1.08Z"/><path class="cls-21" d="M83.47,60.87c.51.66,0,1.33,0,2,.27.89-.59,1-1,1.4-1,.54-2,1.36-3.33,1a.64.64,0,0,1-.1-.55,1.77,1.77,0,0,1,.78-.82,10.36,10.36,0,0,0,.94-.58c.28-.24.51-.53.78-.79a9.93,9.93,0,0,1,1.36-1.06l.08-.63C83.17,60.67,83.32,60.69,83.47,60.87Z"/><path class="cls-22" d="M79.26,64.84a3.43,3.43,0,0,1-.09.44c-.16,1.33-1.2.79-1.93.9-.73-.81.32-2.22-1-2.84a.39.39,0,0,1-.15-.36c0-.13.06-.2.09-.2,1.31-.22,1.81,1,2.71,1.52A1.38,1.38,0,0,1,79.26,64.84Z"/><path class="cls-23" d="M82.5,64.26l1-1.4c1.16-.57.91-2.17,2-2.78C85.37,62.1,84.65,63.69,82.5,64.26Z"/><path class="cls-24" d="M69.17,52.62l-.52.56c-1-1.07-1.25-2.58-2.08-3.75-1.07-2.25-2.13-4.5-3.2-6.76a3.85,3.85,0,0,1-.91-2.48h0a1.64,1.64,0,0,1-.65-.9c0-1-1.07-2.18.44-3,1.78,1.48,2,3.75,2.9,5.69,1,2.2,2.09,4.33,2.9,6.6a11.17,11.17,0,0,0,.88,2.12C69.17,51.34,69.57,51.93,69.17,52.62Z"/><path class="cls-25" d="M62.72,52.71H60.91c-.16-.61.25-1.22,0-1.84a25.89,25.89,0,0,0-.38-3.29,3.75,3.75,0,0,1,0-1.7,8.58,8.58,0,0,1,.42-1.27,2,2,0,0,1,.37-.55.36.36,0,0,1,.53.16c.1,1.1-.21,2.27.56,3.25a6.94,6.94,0,0,1,.38,2.43c0,.62.56,1.24,0,1.85C62.05,52.06,62.7,52.39,62.72,52.71Z"/><path class="cls-4" d="M66.57,49.43c1.19,1,1.56,2.41,2.08,3.75,0,.2-.05.39-.08.59A14.4,14.4,0,0,1,66.57,49.43Z"/><path class="cls-26" d="M61,40.7a3.26,3.26,0,0,1,.38.18c.05.59.11,1.19.16,1.78a.85.85,0,0,1-.12,1.07C59.93,42.9,59.55,41.93,61,40.7Z"/><path class="cls-27" d="M23.48,7.48l1.4-1.34.27.16a2.15,2.15,0,0,1,.55,1.13A3.08,3.08,0,0,1,25.24,9c-.9,1.34-.8,3.34-2.69,4-.59-.57-.17-1.15-.12-1.55a2.89,2.89,0,0,0-.06,2.47,2,2,0,0,1-1,2c-.64.11-1.31.39-1.88-.2l.55-1.88Z"/><path class="cls-28" d="M.46,61.88l-.12-.5c.85-4.61,3.44-8.57,4.79-13,.49-1.58,1.07-3.13,1.61-4.7a4.82,4.82,0,0,0,1-2.4.47.47,0,0,1,.54-.1c.41.26,1,.34,1.11,1-.13,1.73-1.16,3.12-1.74,4.68C6.2,49.77,5.47,53,4.28,56c-.72,1.38-1.56,2.74-.72,4.38.19.68-.62,1.29-.17,2A2.25,2.25,0,0,1,2,63a1.24,1.24,0,0,1-.6-.09C1,62.68,1.42,61.67.46,61.88Z"/><path class="cls-29" d="M79.63,49.94a1,1,0,0,1-.59,1c-1.23,0-1.47-1-1.81-1.89a26.55,26.55,0,0,0-1.53-3.18,7.1,7.1,0,0,1-1.31-3.74c.14-.48.24-1,1-.86L76,42.66C77.82,44.8,78.37,47.54,79.63,49.94Z"/><path class="cls-30" d="M69.17,52.62l-.6-1.76a1.9,1.9,0,0,1-.09-1.53,2.51,2.51,0,0,1,.42-.87.82.82,0,0,1,.62-.17,1.55,1.55,0,0,1,.48.44c.57.64-.16,2.27,1.56,2,.5.54.37,1.37,1.46,1.73a4.43,4.43,0,0,1,2.13,2.67c.36,1,.56,2.48,2.25,2.23a4.22,4.22,0,0,0,.25-.53c.35-.79-.23-1.17-.68-1.61a5.25,5.25,0,0,1-1.77-3.56,2.12,2.12,0,0,0-.56-1.54c-1.54-1.25-2.24-3.05-3.21-4.67-1.13-1.17-.72-2.09.47-2.89.59-.26,1.21-.12,1.39.44.66,2.12,2.82,3.27,3.42,5.41.59,1.21,2.4,2,1.37,3.77a.94.94,0,0,1-.62.22c-.31-.09-.44-.38-.65-.58a2.68,2.68,0,0,0,.2.32,1,1,0,0,0,.79.39c1.26.07,2.06.46,2,2s.69,2.94.28,4.47L79,59.85a3.85,3.85,0,0,1-3.66,2.08c-1.51-.38-2.22-1.46-2.83-2.85C71.53,56.87,70.29,54.77,69.17,52.62Z"/><path class="cls-31" d="M75.34,61.93,79,59.85c.44.11.93.15,1.18.63L80,60.7a5.74,5.74,0,0,1-.68.51,8.45,8.45,0,0,1-1,.6l-.73.43a6.43,6.43,0,0,1-1.33.55l0,.55-2.39-.41Z"/><path class="cls-32" d="M55.12,5.79c2.16,1.45,3.05,4,4.81,5.74.46.79.93,1.58,1.4,2.37.56.26.93.63.74,1.32-.16.42-.24.88-.66,1.15-.69.08-1-.45-1.35-.87-1.53-2.81-3.76-5.1-5.61-7.68a1.82,1.82,0,0,1-.08-1A1.74,1.74,0,0,1,55.12,5.79Z"/><path class="cls-33" d="M74.08,38.76c0,.5.46.41.76.52l.51,1.94a1.12,1.12,0,0,0-.55,1,.69.69,0,0,1-.64,0,7.09,7.09,0,0,1-1.62-2.94,1.48,1.48,0,0,1,.24-1,1,1,0,0,1,1-.16A.72.72,0,0,1,74.08,38.76Z"/><path class="cls-34" d="M66.2,22l2.4,4.81.48,1.91c.36.53.25.93-.35,1.17a1.32,1.32,0,0,1-1.29-.86C65.93,26,64,23.1,62.87,19.8a1.24,1.24,0,0,1,.62-1.23c.8-.06.91.64,1.23,1.11h0C65.71,20.13,65.85,21.15,66.2,22Z"/><path class="cls-35" d="M68.64,29.7c.15-.32.3-.64.44-1l1.38,2.56,1.25,3.17a.88.88,0,0,1-.64.31c-1.95-.66-2.06-2.57-2.77-4.08A1,1,0,0,1,68.64,29.7Z"/><path class="cls-36" d="M53.22,3.82c.86.07.83,1,1.41,1.38l.49.59a1,1,0,0,1-.48.94c-1.5,0-2-1.2-2.49-2.3C52.3,3.88,52.87,4,53.22,3.82Z"/><path class="cls-37" d="M60.92,47.47c.91,1.17.3,2.53.45,3.8-.25.78-.92.92-1.6,1a15.66,15.66,0,0,1-4.88,0,1.38,1.38,0,0,1-.65-.49,6,6,0,0,1-3.42-4.29c2.4,1.09,4.7,2.34,7.54,2,1.47-.19,1.69-.83,1.59-2l.24-.11C60.44,47.36,60.65,47.59,60.92,47.47Z"/><path class="cls-38" d="M54.24,51.76a1.54,1.54,0,0,1,.43.05c1.72.56,3.5,0,5.23.32a.49.49,0,0,1,.09.71l-.52.36a7.89,7.89,0,0,1-4.76-.07h0l-1.57-.75A1.22,1.22,0,0,1,54.24,51.76Z"/><path class="cls-39" d="M31.15,55.18v-.5c.89-.84,2-.63,3.05-.6a1.65,1.65,0,0,1,1.34.72c.11.52-.32.62-.65.79l-.86.06Z"/><path class="cls-7" d="M38.27,55l-1.84.11a.93.93,0,0,1,0-.23c.15-.59.7-.32,1-.5a1.21,1.21,0,0,1-1.09-.16,5.2,5.2,0,0,1,1.58-2.43l.87,1c.4.75-.67,1.2-.4,1.93A.34.34,0,0,0,38.27,55Z"/><path class="cls-40" d="M33.46,3l.89.37c.3.51,1.26.42,1.15,1.3,0,.08-.09.17-.14.26a3.11,3.11,0,0,0-1,1.8,1.24,1.24,0,0,1-.38.5,1.37,1.37,0,0,1-1.6-.86c-.06-.42,0-.85,0-1.27-.1-1.45-1.86-1.15-2.34-2.2-.15-.56.19-.81.64-1l-.06-.09Z"/><path class="cls-41" d="M53.22,3.82a.89.89,0,0,1-.89.43c-1.24.23-2.46-.52-3.71,0a3.2,3.2,0,0,1-1.24-.38,5.15,5.15,0,0,1-1.07-.72,2.6,2.6,0,0,1-.88-1.28c0-.14.09-.28.14-.41.93,0,.53-1.06,1-1.41C49.45.17,51.26,2.12,53.22,3.82Z"/><path class="cls-42" d="M40.76,5.75l0-.93c1.64,0,2.43-1.48,3.69-2.15a1.06,1.06,0,0,1,.79.86,7.23,7.23,0,0,1,0,1.8c-.21.48-.46.92-1,1-.31-.09-.63-.38-.93,0a1.56,1.56,0,0,1-.67.49,1,1,0,0,1-.56-.08,6.11,6.11,0,0,0-1.35-1.08Z"/><path class="cls-43" d="M45.12,3.63l-.64-1a1.39,1.39,0,0,1,1-.85l1.08.8A1.89,1.89,0,0,0,47,4c.29.42.7.79.67,1.37a1.44,1.44,0,0,1-1.51,1,1.11,1.11,0,0,1-.82-.92C45.67,4.8,45.09,4.26,45.12,3.63Z"/><path class="cls-44" d="M19.51,15.75c.52.22,1.16-.56,1.62.2A4.8,4.8,0,0,1,21,18.33c-1.22,2.19-1.88,4.65-3.25,6.77a2.7,2.7,0,0,1-.45.56c-.95.51-1.42.39-1.06-.81.1-1.68,1-3.09,1.52-4.65C18.79,18.9,18.76,17.17,19.51,15.75Z"/><path class="cls-45" d="M14.92,56.12c-.38,1.1-.75,2.19-1.12,3.29-.22.38-.81.5-.74,1.07l-.33.09a1,1,0,0,1-.67-.7c-.2-1.65.84-2.95,1.27-4.42.08-.2.17-.4.26-.6.51-.9.51-2.17,1.76-2.57l.5,1.07C15.48,54.25,14.71,55,14.92,56.12Z"/><path class="cls-46" d="M32.49,6.25A2.13,2.13,0,0,0,34,7.09.71.71,0,0,1,34.66,7c1.19,1,2.43.14,3.65.11.53.56,1.24.34,1.87.43L40.27,10a.48.48,0,0,1-.56.11,1,1,0,0,0-1.71,0,2,2,0,0,1-.58.25,3.72,3.72,0,0,1-.66.08c-2.25.75-4.21.42-5.62-1.64-1-1.51-2.34-1.32-3.77-.76-.77.31-1.44,1.11-2.4.51l.51-1.38a1.7,1.7,0,0,1,.64-1.15C27.14,4.94,28.26,4,30,4.36a4.8,4.8,0,0,1,1.2.54A3.21,3.21,0,0,1,32.49,6.25Z"/><path class="cls-47" d="M38.31,7.13c-1.25,1.36-2.55,1.75-3.91.14.32-.54,1.11-.21,1.41-.78a2.17,2.17,0,0,1,1-.65,2.06,2.06,0,0,1,1.23,0,.69.69,0,0,1,.4.45Z"/><path class="cls-48" d="M37.85,5.05c.53.18,1.37-.15,1.45.73,0,.45-.51.46-.88.54A.73.73,0,0,0,38.27,6c-.34-.15-.57-.36-.38-.77Z"/><path class="cls-49" d="M38.81,45.14,38.9,50l-.11,1.34A8.18,8.18,0,0,1,38.81,45.14Z"/><path class="cls-50" d="M.46,61.88c1.5-.82.79.54,1,1,.8,1,.23,2.22.57,3.3a1,1,0,0,1-.7.62c-1.08-.25-1.32-1-1.32-2C.62,63.89,0,62.8.46,61.88Z"/><path class="cls-13" d="M1.32,66.8c.2-.21.39-.42.59-.62a2.31,2.31,0,0,0,.28-.48c.16-.55.17-1.16.67-1.56a.81.81,0,0,1,.57.09c.51.6.36,1.56,1.1,2a1,1,0,0,1,.3.51c-.39.54-1.29.23-1.57.94l-1.87-.57A1.36,1.36,0,0,1,1.32,66.8Z"/><path class="cls-51" d="M37.89,5.26l.38.77-1.19,0c-.74-.17-1.69-.08-1.59-1.28V4.71C36.41,4.39,37,5.31,37.89,5.26Z"/><path class="cls-52" d="M60,52.84l0-.6c-.17-.09-.22-.18-.16-.26s.12-.13.18-.13l1.4-.58c1,.85-.36.94-.46,1.44Z"/><path class="cls-53" d="M63.84,18.66c-.47.19-.5.63-.59,1C61.84,19,61,18,61.38,16.3a1.09,1.09,0,0,1,.51-1l.47.47a.93.93,0,0,0,.88,1l.14.46C63.83,17.61,64.3,18,63.84,18.66Z"/><path class="cls-54" d="M16.24,24.85c.06.61.3.92.93.53a.91.91,0,0,1,.32.94c-.74,1.31-1.22,2.74-1.92,4.07-2,2.24-2.85,5-4.12,7.67-.64,1.31-.86,2.91-2.38,3.65-.61.33-1,.23-1-.54-.51-.81-.14-1.39.49-1.91l.56-.83c.22-1.57,1.09-2.92,1.51-4.42a12.54,12.54,0,0,1,2.67-3.86Z"/><path class="cls-55" d="M30.18,4.84c-1.81-.55-2.73.83-3.86,1.77-.39-.31-.93,0-1.31-.28l-.13-.19c.62-1,1.15-2,2.37-2.39a2.91,2.91,0,0,1,1.82-.06C29.6,3.92,30.41,3.87,30.18,4.84Z"/><path class="cls-56" d="M28.78,4.25l-1.53-.5a.69.69,0,0,0,0-.45l.52-.48a.92.92,0,0,1,.83-.18C29.11,3.14,28.94,3.7,28.78,4.25Z"/><path class="cls-57" d="M37.42,24.42h.48a3.72,3.72,0,0,1,1.69-.09c.34.09,1-.3,1,.17-.14,1.43-1.64,2.59-.89,4.24l-1-.42c-.47.13-1-.25-1.41.06-.23.41.08.58.34.77a2.19,2.19,0,0,1,.65.52,1.64,1.64,0,0,1,1,1.89c0,.48,0,1,0,1.42a3.55,3.55,0,0,0-.48,2.38c-.41,1.42-.25,2.93-.64,4.35-.55,1.16-.06,2.44-.42,3.63a.8.8,0,0,1-.53.45A1.26,1.26,0,0,1,36.14,43a4,4,0,0,0-1-1.89,1.29,1.29,0,0,1-.29-.54A1,1,0,0,1,35,40c.6-.93-.66-1.29-.64-2.05a1,1,0,0,1,.6-.72c1.7.17,1.54-.7,1-1.78-.17-.62-.52-1.24,0-1.87a4.5,4.5,0,0,0,.64-.67c-.26.19-.42.49-.69.68-.78-.94-2.62-1.71-.53-3.13a.49.49,0,0,0,.25-.58C34.92,27.64,36.54,26.16,37.42,24.42Z"/><path class="cls-58" d="M37.35,43.6c.26-1.27-.37-2.65.47-3.85a9.35,9.35,0,0,1,.06,4.84q0,3.6,0,7.19a1.83,1.83,0,0,1-1.57,2.31c-.49.72-1.2.23-1.81.33-1.75-.61-3.75-.26-5.37-1.4a4.73,4.73,0,0,1,4.47-1c.68.15.7-.41,1.08-.44,1.21-.28,1.46-1.26,1.68-2.27C37.27,47.52,36.1,45.37,37.35,43.6Z"/><path class="cls-7" d="M37.88,44.59l-.06-4.84a10.84,10.84,0,0,1,1-4.38A34.47,34.47,0,0,1,37.88,44.59Z"/><path class="cls-59" d="M21.56,38.84l-3.8,7.74-.3-.15c-1-1.13-1.84-2.28-.34-3.66a.72.72,0,0,0,.25-.63,10.13,10.13,0,0,1,1-6.42,1.09,1.09,0,0,1,.4-.52,5,5,0,0,0,3.48-2.67c.77-1.21-.55-.53-.45-.9a2.45,2.45,0,0,1-.46-2.27c.19-.46.77-.16,1.09-.84a5.6,5.6,0,0,1,4.59-3.07,2.29,2.29,0,0,1,.33,1.37,13,13,0,0,1-1.1,3.87A26.07,26.07,0,0,0,23.59,36,5.56,5.56,0,0,1,21.56,38.84Z"/><path class="cls-60" d="M21.56,38.84c1.57-2.67,2.06-5.9,4.28-8.23a2,2,0,0,1,.22,2.54c-1,1.23-.88,3.07-2.15,4.18l-1.82,3C21.49,40,21.57,39.38,21.56,38.84Z"/><path class="cls-61" d="M15.35,52.28l-1.46,2.89c-.93-1.72-.26-3.54-.31-5.32.72-1.16,1.09-3,3.14-1.65l.14.33C16.35,49.78,15.85,51,15.35,52.28Z"/><path class="cls-61" d="M17.76,46.58l-.9,2-.18-.2c-.32-.73-1.15-1.45-.36-2.29.5-.53,1-.12,1.33.35Z"/><path class="cls-62" d="M37.35,43.6c0,1.49,0,3,0,4.48,0,.77.16,1.65-1,1.8-.52.54-.84,1.23-1.34,1.78-.72,1.84-2.38.64-3.55,1.06a7.77,7.77,0,0,1-2.32.07l-.31,0a13.86,13.86,0,0,0-2.56-1,1.75,1.75,0,0,1-1.4-1.91,88.62,88.62,0,0,1,.5-11.29c.14-1.61-.17-3.35.72-4.88.47-.48.95-.31,1.44,0a.89.89,0,0,1,.38.6c0,.69-.54,1.26-.52,2s0,1.3-.13,2a3,3,0,0,0,.31,2.69c.34,1.16-.65,2-.61,3.22.08,2.63,2,3.64,3.81,4.82,1.2.78,1.2.78.3,1.77,1.18-1.63,3.26-1.9,4.64-3.21a2.27,2.27,0,0,0,.08-2c-.16-.37-.47-.67-.51-1.1.28-.79.93-.77,1.6-.74A1.9,1.9,0,0,0,37.35,43.6Z"/><path class="cls-63" d="M26.78,33.48C26.49,35.73,26,38,26,40.25a79.74,79.74,0,0,1-1,9.64c-1.08-2.55-.17-5.23-.56-7.83l.13-2.21c.19-2.27,0-4.59.87-6.77.8-.7.41-1.63.46-2.47l1-3.76c1,0,.89.8,1.06,1.4a8.12,8.12,0,0,1-.15,2.36C27.36,31.54,27.69,32.72,26.78,33.48Z"/><path class="cls-64" d="M29.21,52.79c1.66.89,3.78,0,5.3,1.43.16.09.21.19.16.29s-.1.14-.16.14l-3.35,0c-.82-1.15-2.5-.79-3.37-1.89a1,1,0,0,1,1.43,0Z"/><path class="cls-58" d="M29.22,52.79H27.79l-1.45-1A2.35,2.35,0,0,1,29.22,52.79Z"/><path class="cls-65" d="M25.38,33.08c-.32,2.25-.25,4.55-.87,6.77-.37-.8.46-1.88-.6-2.52A10.72,10.72,0,0,1,25.38,33.08Z"/><path class="cls-13" d="M10,64.34l0,.85c.19.9.37,1.79-.49,2.48l-.89,0C7.8,67,8.65,66,7.91,65.36a2.29,2.29,0,0,0-1.1-.09c-.15,0-.32.13-.32.28s.18.21.37.13c.4-.12.78-.18,1,.24a1.55,1.55,0,0,1-.17,1.63c-1.07.13-2.16.29-2.91-.77,0-.07-.11-.13-.16-.19-.67-.78-.44-1.84-.85-2.69s.08-1.42,1-1.6a9.23,9.23,0,0,1,4.06.61A1.69,1.69,0,0,1,10,64.34Z"/><path class="cls-66" d="M7.74,67.55l-.15-1.82c-.22-.57.23-.73.58-1,1.61.73.1,1.92.42,2.85Z"/><path class="cls-67" d="M9.48,67.67c.22-.81-.22-1.76.49-2.48.54.08,1.21-.11,1.43.66a2.39,2.39,0,0,0-.86,1.83C10.19,68.15,9.84,68,9.48,67.67Z"/><path class="cls-68" d="M10.54,67.68c-.86-1.15-.55-1.75.86-1.83l.08,1.37Z"/><path class="cls-69" d="M10,64.34a1.68,1.68,0,0,1-1-1c.37-.46,1.35,0,1.39-1.12a1.8,1.8,0,0,1,1.49-1.91c.63.37.2,1.1.54,1.56l0,1.44c-.32.06-.72-1.23-.93,0C11.31,64.29,10.62,64.2,10,64.34Z"/><path class="cls-70" d="M46,6.08a2,2,0,0,0,1.51-.79,1.39,1.39,0,0,1,.9-.94,1.83,1.83,0,0,1,2.49,1c.54.92,1.83,1.48,1.34,2.87-.21.13-.47.31-.66.23-2.22-1-3.3.55-4.35,2-.52.73-.8,1.32-2,.9-2.1-.72-2.53-.15-2.09,2.12.11.56.64,1.18,0,1.77l-.78.44a50.07,50.07,0,0,1-1.09-8.62,1.23,1.23,0,0,1,1-.52,1.15,1.15,0,0,0,.37.12C43.82,6.87,44.83,6.06,46,6.08Z"/><path class="cls-71" d="M43.16,15.31l-.52-1.81c-.2-.73-.85-1.72.08-2.11s1.69-1.57,2.8-.5c.34.32.92.46.85,0-.3-1.71,2-1.56,2-3.09,0-.48.93-.74,1.62-.37a4,4,0,0,0,2.24.67.72.72,0,0,1,.63.61c-.22.69-1.1.84-1.28,1.57-.9.68-2.4.56-2.7,2a1.56,1.56,0,0,1-.46,2.27c-1.15.76-1.21,1.92-1.36,3.08a.41.41,0,0,1-.58,0c-.37-2.05-2.75-3.32-2.24-5.73a.35.35,0,0,0-.41-.43c-.34,0-.62.19-.53.59a15.83,15.83,0,0,0,.49,2.06C44.08,14.91,43.89,15.24,43.16,15.31Z"/><path class="cls-72" d="M46.51,17.71H47c1.33,1.66,2.29,3.42,1.87,5.68-.2,1.1.69,2.13.44,3.28-.23.69-.32,1.47-1.19,1.71-.7-.3-.11-1.15-.66-1.52l-.93.44c.49-1.49,1.09-2.78-.06-4.49C45.51,21.41,44.86,19.39,46.51,17.71Z"/><path class="cls-73" d="M60,47.47c-1.77,0-3.49,1-5.34-.65a10.78,10.78,0,0,0-3.26-1.55c-.07,0,0-.44,0-.68,0-1.82-1.22-3.42-1-5.28,1-.22.35-2.42,1.8-1.82,1.1.46.54,1.85.58,2.84.08,1.88.31,3.82,2.83,3.12.89-.25.37,2.18,1.38.45.29-.5.53-.37,1.54,1.11-.42-1.63-2.05-2.6-2.22-4.33a1.25,1.25,0,0,1,.28-1c.75-.1,1.17.21,1.14.76,0-2.47-1.13-5.09-.3-7.83,1.28-.29,1,.88,1.4,1.46a5.23,5.23,0,0,1,.18.68,9.7,9.7,0,0,0,.54,2.37c.63,1.87.47,3.86.91,5.76,0,.75.41,1.41.38,2.16-.19.83-.1,1.75-.85,2.38Z"/><path class="cls-74" d="M56.6,40.75c.75,1.59,2.28,2.82,2.33,5.13l-1.71-2c-.1.69-.17,1.21-.28,2-.72-.85-.75-2.31-2.5-1.46-.68.33-2.26-1-2.24-2.62,0-1.31,0-2.63,0-4-1.17.25-.67,1.15-.91,1.71-.4.91-.59-.21-.93-.15,0-.32,0-.64,0-1a5.61,5.61,0,0,1,1.12-3.12.73.73,0,0,1,.89-.28c1.29,1.3,2.6,2.54,2,4.69-.2.73-.23,1.75.57,2.14S55.84,40.78,56.6,40.75Z"/><path class="cls-73" d="M51.8,35.47c-.48,1-.95,1.92-1.43,2.89-1-2.33-3.06-4.3-2.13-7.25a2,2,0,0,0-.77-1.88v-1c0-.47,0-.94,0-1.41.61.3.48.87.51,1.39,1.53.22,2,1.34,2.34,2.64.23,1,.4,2,.63,3A2.91,2.91,0,0,0,51.8,35.47Z"/><path class="cls-75" d="M37.42,24.42c0,1,.07,1.91-.93,2.69s.17,2.84-.64,3.41c-1.91,1.36-.08,2,.23,2.91.11.72.23,1.44.34,2.16A5.5,5.5,0,0,1,35,37.34l-.48.58c-1.61.55.29,1.61-.34,2.31-.67,1.21-.35,2.57-.54,3.86a1.4,1.4,0,0,1-.58.41c-3.61-.38-4.41-2.35-2.48-6.11.65-1,.09-2,.26-2.54a5.22,5.22,0,0,1-.2,2.48c-1.35-.21-1-1.32-1.09-2.14-.14-1,.1-2-.81-2.79a1.63,1.63,0,0,1-.37-1c.08-1.24.18-2.49.33-3.74a3,3,0,0,1,1.08-1.74,2.9,2.9,0,0,1,.29-.19l.33-.07c1,.42,2,0,3-.07s1.19-1,1.41-1.67-.32-1.12-1-1.42c-1.47-.7-1.49-1.4.13-1.89,1.19-.36,1.23-1.28,1.31-2.27.12-1.4-.39-2.88.56-4.17a1.3,1.3,0,0,1,1.61.42A3.34,3.34,0,0,1,38,16.94c0,.8.62,1.47.6,2.29a2.65,2.65,0,0,1-.74,1.88A5,5,0,0,0,37.42,24.42Z"/><path class="cls-76" d="M38.35,19.13c-.25-.68-1.13-1.08-.9-2,.8,0,1.53-.17,1.85-1,.55-.4.92-1,1.51-1.38l.49,2.5a1.32,1.32,0,0,1,0,1.32c-.25.74.3,2.24-1.46,1.56A1.79,1.79,0,0,1,38.35,19.13Z"/><path class="cls-29" d="M38.35,19.13a1.64,1.64,0,0,1,1.5,1c-.23,1.2-1,1.41-2,1A1.75,1.75,0,0,1,38.35,19.13Z"/><path class="cls-77" d="M39.59,24.34c-.55.27-1.09.77-1.69.09.2-.59-.31-1.63.74-1.66S39.57,23.63,39.59,24.34Z"/><path class="cls-78" d="M38.29,29.68h-.84a1.28,1.28,0,0,1-.59-1.89c.94-1,1.25.29,1.85.53C38.85,28.86,38.53,29.26,38.29,29.68Z"/><path class="cls-1" d="M41.31,18.55c0-.44,0-.88,0-1.32a2.88,2.88,0,0,1,.89,1.93Z"/><path class="cls-79" d="M39.75,10l.52,0c.09,1,.58,1.86.36,2.86-.48.13-.89-.52-1.4-.14s-.88,1.06-1.59,1.25a2,2,0,0,1-1.17-2.14c.1-.71.65-1.19.92-1.82L38,10A2.2,2.2,0,0,1,39.75,10Z"/><path class="cls-80" d="M39.27,12.54c.12-.25.23-.7.34-.7.65,0,.57.79,1,1.05l.18,1.85c0,.94-.26,1.68-1.45,1.52-.52.32-.89,0-1.27-.3a1.44,1.44,0,0,1-.4-1.58A3.33,3.33,0,0,0,39.27,12.54Z"/><path class="cls-81" d="M42.25,6.61a.86.86,0,0,1-1,.52l-.55-1.44C41.32,5.86,42.16,5.62,42.25,6.61Z"/><path class="cls-82" d="M80.13,59c-1-1.18-.76-2.77-.81-4-.06-1.44-.7-1.76-1.61-2.23-.16-.11-.22-.22-.16-.33s.11-.16.16-.16h0a2.37,2.37,0,0,1,1.47-.52c1.19,1.55,1.75,3.52,3.27,4.85A9.84,9.84,0,0,1,80.13,59Z"/><path class="cls-83" d="M82.93,61.48c-.08.81-.41,1.33-1.33,1.18-.81-.51-1.69-1-1.42-2.19h0C81.65,59.3,82.09,60.93,82.93,61.48Z"/><path class="cls-84" d="M83.47,60.87l-.23,0L83,60.85c0-.15,0-.31-.06-.46-.12-.62-1.12-1.06-.37-1.84.36-.38.56-.23.91.11C84.3,59.46,84.07,60.14,83.47,60.87Z"/><path class="cls-46" d="M79.18,51.75c-.34.59-.92.51-1.47.52,1-1.75-.52-2.43-1.43-3.36.33-.81-.6-1.22-.61-1.93,0-.55-.55-1.3.55-1.41,1.45,1.51,1.08,4,2.82,5.32C79.08,51.18,79.13,51.46,79.18,51.75Z"/><path class="cls-85" d="M78.23,61.41l.93-.48c1.6.31,2.08,1.39,2,2.88l-1,.4A2.61,2.61,0,0,1,78.23,61.41Z"/><path class="cls-22" d="M78.23,61.41c.65.93,1.31,1.86,2,2.8l-.94.63-.08-.07c-.73-.83-2.08-1.33-1.46-2.84C77.88,61.75,78.05,61.58,78.23,61.41Z"/><path class="cls-86" d="M81.15,63.81a6.07,6.07,0,0,0-2-2.88,1,1,0,0,1,1-.46l1.42,2.19C81.56,63.08,81.56,63.53,81.15,63.81Z"/><path class="cls-87" d="M77.71,61.93c.49.94,1,1.89,1.46,2.84-1.38,0-1.83-1.42-2.85-2A1.46,1.46,0,0,1,77.71,61.93Z"/><path class="cls-88" d="M64.74,42.21l-2.43-5.75a2.83,2.83,0,0,1-1.25-2.77c.24-1,.53-1.93,1.83-1.74,1.14.16.79,1.12,1,1.85a14.06,14.06,0,0,0,2.91,5.35c1.25,1.47,1.2,2.46-.22,3.68-1-.22-1.15-1.09-1.2-2-.13-.24-.38.26-.09.12C65.43,41.52,65.82,42.18,64.74,42.21Z"/><path class="cls-89" d="M61.43,33.54c.29,1,.58,2,.88,2.92-1,1,.44,2,0,2.94a5.71,5.71,0,0,1-1.45-2.95c-.57-.34-.31-1.46-1.32-1.39a1.25,1.25,0,0,1-.35-1.48s.1-.08,0-.12c-.31-.09.09,0-.15.2-1.22-.49-.72-2-1.61-2.69a.78.78,0,0,1,.34-.57,2.92,2.92,0,0,1,2.19-.14C61.26,31,61.43,32.21,61.43,33.54Z"/><path class="cls-90" d="M64.74,42.21c.6-.3.39-1,.76-1.67a3.26,3.26,0,0,0,1.16,2.12A8.67,8.67,0,0,1,67.22,44c.72,1.43,2.58,2.37,1.85,4.4v1c-.62.29-1-.06-1.36-.51Z"/><path class="cls-91" d="M67.71,48.88l1.36.51c-.16.49-.33,1-.5,1.47A2.84,2.84,0,0,1,67.71,48.88Z"/><path class="cls-92" d="M59,33.55l.1-1.31c.61,1.09,0,2.14.8,2.77s.26,1.3.52,1.92c.3,1.24-.28,2.61.54,3.77a2.36,2.36,0,0,0,.46,2.93.47.47,0,0,1,.05.4.81.81,0,0,0-.14.43c-1.29.42-.89-.87-1.32-1.31-.35-2.06-.71-4.12-1.06-6.17-.48-.75.2-1.73-.48-2.44h0C58.23,34,58.64,33.79,59,33.55Z"/><path class="cls-17" d="M60,47.47,60.46,45c.42-.09.61,0,.5.49,0,.65,0,1.29,0,1.94C60.59,49.08,60.27,47.2,60,47.47Z"/><path class="cls-26" d="M61,45.53l-.5-.49A3.08,3.08,0,0,1,60,43.15c.59.29.54,1.22,1.32,1.31A1,1,0,0,1,61,45.53Z"/><path class="cls-93" d="M60.41,36.93c-.58-.53-.39-1.27-.52-1.92.14-.19.35-.7.37-.53.11.69,1.16,1.11.6,2Z"/><path class="cls-79" d="M25,8.61a12.08,12.08,0,0,1,3.1-1.53,4.06,4.06,0,0,1,4,1.77c1.08,1.41,2.24,2.2,4,1,.17-.12.59.12.89.19-.47,1.56-.72,3.28-3.18,2.26-.69-.29-1.68.31-2.55.48-.7.13-1.53.31-2-.42-.66-1.11.81-1.1,1.11-1.82-1.83-.39-1.46,1-1.49,1.87-.06,1.31-2.15,3.65-3.24,3.19-1.47-.62-1.67.25-2.12,1.14-.59,1.16-1.43,1.92-2.86,1.46.13-.75-.17-1.61.52-2.24a3.25,3.25,0,0,0,.93-2.06c-.36-.57.06-.77.45-1C23.89,11.79,23.82,9.85,25,8.61Z"/><path class="cls-94" d="M22.51,12.91l-.45,1c-1-1.67.38-2.72,1-4C23.3,11,22.26,11.83,22.51,12.91Z"/><path class="cls-95" d="M25,6.33c.44.07,1.11-.93,1.31.28l-.84.62A.72.72,0,0,1,25,6.33Z"/><path class="cls-96" d="M17.65,46.39c-2.75-.55,0,1.61-1,2-1.71-.9-1.94.9-2.81,1.53-.76,1.76-1.13,3.69-3.09,4.78-.86.48-.89,1.78-1.13,2.79-.54,2.24-1.54,3.14-3.08,2.86-2.29-.42-3.2-1.8-2.82-4.27A72.89,72.89,0,0,1,7.13,46.5c3.24.67,4.48-.25,4.23-3.14,0-.36.14-.88-.44-.92s-1.66.3-1.28-.93a3.59,3.59,0,0,1,2.2-2.64c1.14-.34,1.36.79,1.82,1.49A1.53,1.53,0,0,1,13.59,42c-1.17,1.54-.47,2.75.79,3.86-.18-1.25-1.63-2.19-1-3.64a1.46,1.46,0,0,0,.37-1.91c-.33-.82.22-1.82.79-1.58,1.61.67,1.38-.77,1.93-1.32s1-1.86,2.2-1.91c-.09.87,1.4,2.26-.8,2.43.7,1.23-.44,2.43-.05,3.72.15.51.66,1.3-.69,1.91S17.77,45.33,17.65,46.39Z"/><path class="cls-97" d="M13.39,40.27c-1.68-1.44-2.28-1.16-3.5,1.66,1,.77,1.09-.92,2-.77-.09,2.18.74,4.59-1.36,6.16-1.16.86-2.49.35-3.42-.82.64-1.6,1.29-3.19,1.94-4.79,1.37-2.93,2.79-5.84,4.1-8.81a6.45,6.45,0,0,1,2.11-2.77c.75,1.32,1.16,2.38,0,4S14.08,38.22,13.39,40.27Z"/><path class="cls-98" d="M3.75,56c.16,1.43.32,2.67,2.1,3.24S8.72,59.61,9,57.8c.33-2.06.19-4.27,3-4.76.49-.09.37-.8.45-1.26.15-.87.3-1.76,1.42-1.91.48,1.77.05,3.54,0,5.3h0c-.18.48-.41-.5-.88.12a8.76,8.76,0,0,0-1.93,4.24c-.19,2.28-1.58,2.76-3.29,2.88s-3.69.24-4.51-2C1.4,58.76,3.12,57.45,3.75,56Z"/><path class="cls-99" d="M3.29,60.44C5.11,62.6,7.42,62,9.67,61.52c.48-.1.55-.52.67-1a13.31,13.31,0,0,1,2.36-5.56c1.31-1.66.75.85,1.2.26-.51,1.56-1,3.11-1.54,4.67-.07.25-.09.52-.42.56a4.09,4.09,0,0,0-1.06,2.1c-.28,1.11-1.08.9-1.85.84l-4.27-.52c-.35-.48-1.09.05-1.39-.54C2.21,61.72,3.34,61.05,3.29,60.44Z"/><path class="cls-100" d="M2.27,66.11l-.36.07c-1.28-1-.26-2.21-.46-3.3l.48-.1.33.19C3,64,2.64,65.06,2.27,66.11Z"/><path class="cls-101" d="M3.37,62.29a1.6,1.6,0,0,1,1.39.54c-.75,0-.82.32-.48.89a.91.91,0,0,1-1,.55H2.88c-.39-.45-.34-1.18-1-1.48h0C2.28,62.22,2.87,62.38,3.37,62.29Z"/><path class="cls-102" d="M76.22,45.57c-1.35,1.14,1.21,2.21.06,3.34-.51-2.25-3-3.3-3.38-5.67-.06-.43-.55-.52-1-.56l-.18-.28c.67-1.49,1.45-.74,2.21-.11.19.17.18.18.4-.15l.42.12A7,7,0,0,0,76.22,45.57Z"/><path class="cls-74" d="M66.68,43.63c-.05-.32-.55-.63,0-1,.76-1.4.33-2.16-.69-3.54-1.21-1.64-3.38-3.38-2.62-6,.11-.39.11-.61-.24-.72-1-.3-1.21.67-1.68,1.19L60,30.64a1.44,1.44,0,0,1-.54-.93,4.18,4.18,0,0,1,.18-1.4c.6-3.2.59-3.2,4-2.21a.72.72,0,0,1,.28.59c-.41.64-1.5.48-1.68,1.46.6-.23.76-1.18,1.58-1,3,2.58,4,6.15,4.82,9.78.14.59.63.89,1,1.32a12.19,12.19,0,0,1,2.31,4.39h0c.12.8-1.82,1.6,0,2.39a1,1,0,0,1-.56,1.26C68.87,47.09,67.93,45.09,66.68,43.63Z"/><path class="cls-103" d="M71.47,46l.48-1c.71,2.92,4.26,4.34,4.06,7.81a2.73,2.73,0,0,0,1.46,2c1.9.85,1.06,1.7.24,2.65h0c0,.28.31.82,0,.77-.82-.12-1.76-.19-2.26-1.07a18.87,18.87,0,0,1-2-3.62c-.57-2.21-1.27-.4-2-.42V50.83c-1.24-.32-1.22-1.64-1.92-2.4h0C68.16,46,70.45,46.52,71.47,46Z"/><path class="cls-88" d="M71.47,46c-.93.57-2.38.72-1.92,2.4h-.48c.05-2-2.52-2.75-2.39-4.81C68.32,44.35,69.18,46.62,71.47,46Z"/><path class="cls-88" d="M69.55,48.43c1,.52,1.1,1.75,1.92,2.4-.94-.17-.77,1.12-1.62,1.23C69.13,50.89,70.4,49.55,69.55,48.43Z"/><path class="cls-46" d="M77.71,52.27v.49c-1.65-.2-1.43-1.34-1.4-2.52C77.69,50.44,76.84,51.89,77.71,52.27Z"/><path class="cls-104" d="M61.38,16.3a12,12,0,0,0,1.87,3.4c1.79,3.34,3.23,6.87,5.39,10l0,.94c.23.47-.07.6-.43.69-2.74-.33-2.5-3.07-3.64-4.67s-2.38-3.41-4.25-4.47c-.7-.76-1.23-1.5.1-2.17.11-.05.12-.12-.07-.26a2.28,2.28,0,0,1-.76-2.52,3.53,3.53,0,0,1,.87-1.92Z"/><path class="cls-105" d="M60.43,15.32c-.07.66.24,1.41-.47,1.91-1.19.15-1.3-.53-1.1-1.45,0-.24,0-.25-.47-.23-1.25-1.38-3.16-2.1-3.92-4,.32-1.52-1.71-1.67-1.74-3l-.47-.46c-.63-.82-1.27-1.63-1.9-2.44,2.16-1,3.09.85,4.35,1.91A30.49,30.49,0,0,1,60.43,15.32Z"/><path class="cls-106" d="M54.71,7.61c-1.53-.46-2.56-2.06-4.35-1.91a1.29,1.29,0,0,0-1.91-.94.58.58,0,0,1,0-.94c1.34-.36,2.7-.87,3.85.43l2.31,2.48C54.66,7,54.68,7.31,54.71,7.61Z"/><path class="cls-107" d="M60.46,22a2.5,2.5,0,0,1,1.95.69c2.93,2.27,2.48,6.59,5.71,8.45a7.92,7.92,0,0,1,1.43,3.3c.31,2,2.39,3.12,3.28,4.9a8.5,8.5,0,0,1,1.55,2.79V44c-1-2.07-1.13-2.12-2.44-1.31C70.47,41,68.38,39,68.2,37.38c-.3-2.73-2.46-4.57-2.43-7.22,0-.66,0-.86-1-.66-1.87.35.17-1.79-1-2.18-.17-.11-.22-.22-.17-.33s.11-.16.17-.16v-.48C60.89,25.13,60.36,24.45,60.46,22Z"/><path class="cls-108" d="M72.83,39.35c-.37.11-1,1-1,.39.07-2.31-2.75-2.77-3-5.08-.06-.69,1.38-1.51-.11-2.08-.39-.13-.34.83-1,.55-.4-.7.43-1.27.34-2l.49-.51,2.23,4a4.55,4.55,0,0,1,2,3.75Z"/><path class="cls-109" d="M72.84,38.36a17.33,17.33,0,0,1-2-3.75l.87-.14,1.8,2.44c.1.48.2,1,.29,1.46Z"/><path class="cls-3" d="M60,51.85c0,.13,0,.26,0,.39-1.76-.14-3.58.53-5.28-.43Z"/><path class="cls-10" d="M34.51,54.65v-.43l1.85-.13,1.24.2-1.17.81-.94.09A1.11,1.11,0,0,0,34.51,54.65Z"/><path class="cls-110" d="M28.75,2.82l1.47,0c1,.72,3.05.29,2.86,2.44-.65.61-1.33-.08-2,0l-.91-.47c-.28-.66-.87-.55-1.4-.59A1.2,1.2,0,0,1,28.75,2.82Z"/><path class="cls-111" d="M35.49,4.77l1.59,1.28-1.21.59a1.46,1.46,0,0,1-1.82,0C34,5.58,33.91,4.54,35.49,4.77Z"/><path class="cls-112" d="M31.09,5.31c.65-1.15,1.33.26,2,0a1,1,0,0,1-.59,1C31.73,6.38,31.49,5.73,31.09,5.31Z"/><path class="cls-113" d="M34.05,6.64c.6.27,1.21-.46,1.82,0,.07.28.29.73.2.81-.59.53-1.1-.14-1.67-.18A1.22,1.22,0,0,1,34,7.09C34,6.94,34,6.79,34.05,6.64Z"/><path class="cls-114" d="M48.48,3.82l0,.94-.94.53-1-1.09a3.58,3.58,0,0,1,.93-.89Z"/><path class="cls-115" d="M49,2.29c-.11.15-.23.44-.35.44a1.16,1.16,0,0,1-1-.74c-.14-.31,0-.61.39-.59S48.72,1.81,49,2.29Z"/><path class="cls-116" d="M47.48,3.31c0,.67-.24,1-.93.89-.09-.52-.88-1,0-1.58Z"/><path class="cls-117" d="M46,6.08c-1,.67-2,1.82-3.38.65l.59-.57a.55.55,0,0,1,.79,0c.61,0,.6-.73,1.07-.88.23-.17.39-.13.46.16Z"/><path class="cls-118" d="M44,6.11l-.79,0c-.09-.42-.37-1,.28-1.07S43.92,5.71,44,6.11Z"/><path class="cls-119" d="M45.53,5.39l-.46-.16c.12-.53-.73-1.09,0-1.59C45.46,4.17,46.17,4.62,45.53,5.39Z"/><path class="cls-80" d="M20.61,18.19c1.1-.51,2.58-.64,2.49-2.4.79,0,.9-2.53,2.27-.62a.9.9,0,0,0,.86,0c.29-.44-.34-.31-.46-.53-.3-.55.07-.8.48-.73,2.52.39,2.11-1.15,1.8-2.66-.16-.8.05-1.56.94-1.51s1.78-.63,2.41.41c.45.76.09,1.07-1.9,1.63.25,1,.93.51,1.49.47,1.41-.1,2.75-1.51,4.24-.14.29.26.67-.11.52-.43-.59-1.28.89-1,1.16-1.66h.48c.55.72-.21,1-.48,1.44-.39,1.19.05,2.87-2.43,2.4-1-.19-2.5,1.07-3.94,1.29-.6.09-.9.81-1,1.48C29,18.9,28.6,19.07,26.57,18a3.64,3.64,0,0,0-1.81-.77c1.28,1.31,3.15,2.39,1.61,4.28-.72.88-1.13-.32-1.69-.7-.23.95-.24,1.88-.43,3.16.65-.64.66-1.54,1.43-1.58,1-.05,1,.86,1.39,1.41a2.31,2.31,0,0,1,.16.69,1.14,1.14,0,0,1-.45.93C26,26.94,24,27,23.07,28.35c-.39.61-.19,1.91-1.5.9a1.32,1.32,0,0,1-.93-.35c-.67-.91.05-1.39.56-2A1.34,1.34,0,0,0,21.25,25c-.81-.61-.92.43-1.22.88s-.55.78-1.12.59a.64.64,0,0,1-.46-.74c.66-1.69-1.1,0-1.08-.8C18.7,22.8,19,20.17,20.61,18.19Z"/><path class="cls-120" d="M17.37,24.92c.8.12,1-.86,1.66-1,.37.74-.26,1.39-.13,2.22,1.07-.25.55-1.24,1-1.7s.49-1.11.95-.65,1.75,0,1.38,1.18c-.3,1,.52,2.43-1.25,2.82-.36.07-.26.66.13.94s.39.91.18,1.06c-1.25.91-.68,1.93-.28,3A1.56,1.56,0,0,1,20.71,34c-.62.49-1.78-1-2.18.68-.15.62-.92.24-1.4-.1-1.39-1-1.17-2.47-1.13-3.87,0-.3.08,0,0-.22-.26-1.4,1.65,1.29,1.09-.6A14,14,0,0,1,17,27.1a2.79,2.79,0,0,1,.21-.92v-.8Z"/><path class="cls-12" d="M11.94,60.41l.42-.56.51.56.05,1-.47.49C11.82,61.55,12,60.93,11.94,60.41Z"/><path class="cls-121" d="M39.75,10A1,1,0,0,1,38,10c0-.56.14-1.19.79-1.25C39.62,8.66,39.69,9.38,39.75,10Z"/><path class="cls-122" d="M3.31,64.27a1,1,0,0,1,1-.55c.93.85.38,1.9.39,2.87C2.42,66.87,3.86,65,3.31,64.27Z"/><path class="cls-28" d="M1.92,62.79c1,.09.91.81,1,1.48-.23.61.28,1.45-.61,1.84A5.33,5.33,0,0,0,1.92,62.79Z"/><path class="cls-123" d="M17.16,26.18c.72,1.73.33,3.57.59,5.45-.77-.08-.46-1.24-1.33-1,0,1.54-.14,3.18,1.66,4,1.21-.57-.24-1.31,0-1.93,1.32-.23,1.65,1,2.53,1.32.57,2.07-1.49.68-1.91,1.45h0c-.77,1.48-2.6,2.33-2.44,4.34-.74-.07-.95-1.29-1.81-.7s-.25,1,.05,1.6c.6,1.12-.26,1.32-1.09,1.47h0c0-.64,0-1.28,0-1.92A7.85,7.85,0,0,1,14.5,34c1.2-1.52.5-2.63.78-3.88A10.16,10.16,0,0,1,17.16,26.18Z"/><path class="cls-124" d="M33.57,44.13c-.53-1.37-1-2.73.47-3.86l.2.21c0,.46.14.75.62.3l.2,0c.51.58.71,1.39,1.37,1.85.17.34.34.67.52,1l-1.53.9a1.21,1.21,0,0,1-1,.69A1,1,0,0,1,33.57,44.13Z"/><path class="cls-125" d="M34,40.27a14.1,14.1,0,0,1-.91-1.77,1,1,0,0,1,.42-1.2c.6-.32.76.25,1,.62a10,10,0,0,1,1.24,1c1.12,1.23.2,1.32-.79,1.35a.65.65,0,0,1-1,0Z"/><path class="cls-126" d="M35,37.34a1.41,1.41,0,0,1,1.39-1.75c.52.65,1.37,1.17.46,2.2S35.67,37.35,35,37.34Z"/><path class="cls-127" d="M36.08,33.43c.06-.65-.4-1.55.67-1.73a.77.77,0,0,1,.9.87C37.58,33.61,36.83,33.55,36.08,33.43Z"/><path class="cls-128" d="M36.43,42.65c-1.63.25-1.72-.64-1.37-1.85C36.33,40.82,36.48,41.67,36.43,42.65Z"/><path class="cls-16" d="M36.86,27.8a2.45,2.45,0,0,0,.59,1.89C36,29.45,36.3,28.67,36.86,27.8Z"/><path class="cls-75" d="M34,40.27h1c0,.17-.09.34-.13.51-.2.31-.39.63-.58.94C33.74,41.32,34.16,40.75,34,40.27Z"/><path class="cls-129" d="M35.08,51.66c-.26-1.12-.19-2,1.34-1.78C37.46,51.6,36.82,52,35.08,51.66Z"/><path class="cls-96" d="M18.68,35.48c.38-.83,1.94-.09,1.91-1.45V32.59a.88.88,0,0,1,.32-1.37c.52-.36.84,0,1.11.41.31.17,1.07-.35.91.51C22.52,34.45,21.26,35.42,18.68,35.48Z"/><path class="cls-123" d="M22,31.63c-1.05-.54-1.36,0-1.43,1-.48-1.05-2.24-2.27.4-2.93.09,0,.06-.59.08-.91l.5.5Z"/><path class="cls-130" d="M26.78,25.38l.12-.81c.35-.87.8-.9,1.24-.09a4.18,4.18,0,0,1,.27,2.05,3.68,3.68,0,0,1-.19,1.14.93.93,0,0,1-.83.69c-.2-.49,0-1.14-.53-1.51Z"/><path class="cls-131" d="M33.57,44.13l.89.93a1.19,1.19,0,0,1,.46.43,5.05,5.05,0,0,0,1.5,1.93c0,.23,0,.62-.12.68-2,1-3.67,2.6-6.12,2.82.17-.87,1.13-.32,1.2-1.12-1.61-.94-4-1.47-4.6-3.18a6.42,6.42,0,0,1,.53-5.86c-.24-.87.47-1.32.83-1.93a.78.78,0,0,1,.63-.09,1.33,1.33,0,0,1,.43,2.18,2.63,2.63,0,0,0-.47,1.76c.08,2.53.3,2.81,2.81,3,.68.07,1.46-.19,1.87.71-.3-.8-1.15-1.65.15-2.31Z"/><path class="cls-131" d="M26.84,38.35l0-2.39c.41-.66.81-1.35,1.78-1.16,1.58,1.8,1.47,2.93-.38,4h0C27.31,40.07,27.15,39,26.84,38.35Z"/><path class="cls-132" d="M28.75,32.11l0,1a.41.41,0,0,1,.16.34c0,.13,0,.19-.06.19a1.28,1.28,0,0,1-1.1.45,1,1,0,0,1-1-.57,6.09,6.09,0,0,1,.48-2.83C28.18,30.7,28.42,31.46,28.75,32.11Z"/><path class="cls-133" d="M36.42,47.42c-1.57.38-1.55-.87-1.83-1.81.44-.82,1-1.13,1.78-.4A3.23,3.23,0,0,1,36.42,47.42Z"/><path class="cls-132" d="M26.84,38.35c.43.3.72,1,1.43.49.21.91-.45,1.38-1,1.92C26.1,40.16,26.33,39.28,26.84,38.35Z"/><path class="cls-131" d="M27.77,34.05a1,1,0,0,1,1-.5c.25-.11.52,0,.52.2a.93.93,0,0,1-.85,1,.8.8,0,0,1-.64-.21C27.79,34.36,27.78,34.2,27.77,34.05Z"/><path class="cls-132" d="M27.79,34.51h.48c.14.11.19.21.15.32s-.1.16-.14.16l-1.41,1A1.4,1.4,0,0,1,27.79,34.51Z"/><path class="cls-58" d="M36.37,45.21a1.4,1.4,0,0,0-1.78.4c-.05-.18-.09-.37-.13-.55l1-.51C35.85,44.61,36.27,44.67,36.37,45.21Z"/><path class="cls-134" d="M28.75,32.11c-.88-.09-.93-1-1.49-1.46,0-.77.09-1.53.13-2.29l.39-.57c1.17-.7,1,.52,1.45,1A8.68,8.68,0,0,1,28.75,32.11Z"/><path class="cls-135" d="M6.76,66.19c-.17.31-.18.94-.69.7-.72-.34-.36-1.09-.35-1.67,0-.79.43-.92,1.06-.49A1.4,1.4,0,0,1,6.76,66.19Z"/><path class="cls-136" d="M6.76,66.19c0-.49,0-1,0-1.46l1.39,0-.58,1Z"/><path class="cls-71" d="M42.91,8.65c.35,0,.6.21.55.58s-.31.58-.65.47a.71.71,0,0,1-.43-.48C42.3,8.86,42.57,8.68,42.91,8.65Z"/><path class="cls-137" d="M48.92,26.83c-.81-3-.52-6.24-1.93-9.12a2.12,2.12,0,0,1,1-3.34c.94-.48,1-1.13.49-1.94,1.55-.46,1.92.4,1.5,1.61a17.87,17.87,0,0,0-.9,3.43c1.32.64,3.63-.82,4,1.93.06.47.62.35,1,.19a8.12,8.12,0,0,1,2.26-.75c2.42.95,1.2,2.82,1.08,4.4-.06.81-1.12,1.44-.42,2.39a1.76,1.76,0,0,1,.38,1.54c-.6.71-.31,1.49-.24,2.28.09,1.14.06,2.42-1.32,2.71-1.18.24-2.5.58-3.37-.95a30.46,30.46,0,0,0-3.28-4.09Z"/><path class="cls-75" d="M56.12,19.15c-.28.48-.81.45-1.24.64-2.54,1.13-2.53,1.13-2.73-1.94-1,2.24-2.6-1.29-3.77,1.6.16-2.38-.05-3.95,1-5.32.89-1.19.08-1.51-.92-1.7,0-.37-1.08-.66-.27-1,1.19-.49,2.12-1.71,3.62-1.4a.75.75,0,0,1,.62.7,1.76,1.76,0,0,0,.17,2.17,18.57,18.57,0,0,0,3.55,3.48c.58.43,1.28.72,1.2,1.62C57.2,18.67,56.54,18.79,56.12,19.15Z"/><path class="cls-70" d="M52.26,10.52,51.79,10c-.7-1.15.8-.85.94-1.44.9.15,1.17,2.4,2.54.49.38,1.16-.78,1.56-.59,2.38C53.79,11.36,52.67,11.84,52.26,10.52Z"/><path class="cls-14" d="M50.35,34.51c-.56-2.18-.18-4.71-2.39-6.26l1-1.42h0a8.57,8.57,0,0,1,2.51,5.44C51.44,33.13,51.71,34.25,50.35,34.51Z"/><path class="cls-72" d="M50.35,34.51c.95-1.68.54-3.27-.26-4.87-.45-.91-.79-1.87-1.17-2.81,2,.52,2.93,2.34,3.67,3.85.9,1.82,2.36,1.06,3.21.93,1.05-.16.86-1.62.63-2.66-.14-.67-1.06-1.65.62-1.64a1.42,1.42,0,0,1,.53.91,5,5,0,0,1-.15,2.47l.15.46a1,1,0,0,1,0,1.37c-.26,2.92,1.12,5.77.31,8.76-.59-.37-.51-1.33-1.31-1.48.44-1.74-1.76-3.27-.41-5.1-1.3.2-2.7-1-3.91.29l-.48.48C51.1,35.48,50.4,35.49,50.35,34.51Z"/><path class="cls-138" d="M52.28,35c.1-.51-.25-1.1.26-1.54.68,1.72,1.59-1,2.71.21.81.86,1.78.83,1,2.51-.33.73,1.34,2.24.32,3.63v1c-.82.54.11,2.54-1.48,2.17A2.14,2.14,0,0,1,53.77,40C54.72,37.78,52.57,36.71,52.28,35Z"/><path class="cls-139" d="M57.6,32.52c0-.46,0-.91,0-1.37.6,0,1.34-.13,1,1A1.19,1.19,0,0,0,59,33.55l-.53,1C58.17,33.87,57.89,33.2,57.6,32.52Z"/><path class="cls-139" d="M58.46,34.54c.88.67.49,1.59.48,2.44A4.15,4.15,0,0,1,58.46,34.54Z"/><path class="cls-140" d="M36,15.31c0,1.43-.05,2.86,0,4.28.1,1.89-.49,3.05-3.06,2.61,1.1,1.11,3.13.62,2.85,2.35a11.57,11.57,0,0,1-1.32,2.9c-1.26-1.22-3.13,1.64-4.24-.62-.44-3.13-2.22-6.28.2-9.35.2-.25.13.08.11-.2-.13-2.12,1.21-2.5,2.91-3.19S35.5,14.11,36,15.31Z"/><path class="cls-141" d="M36,15.31c-1.32-2.32-3.13.35-5.1-.91,2,2.36-.15,3.29-.69,4.61-.16.38-1,.49-.61,1.22,1.17,2.11.44,4.4.65,6.6h0c-.71.19-.7-.22-.63-.68-.26.62.26.85.63,1.16-.29.5-1,.7-1,1.45-.49-.31-.69-1.05-1.45-1l.13-.94c.72-1.19-.57-2.7.58-3.83-.5.42-1.18.51-1.69.91-.81,0-.51-1.33-1.1-1.21-1,.19-.28,1-.33,1.6,0,.39,0,.92-.57.85a1.34,1.34,0,0,1-1.21-1.3c0-1.34.27-2.68.44-4a.62.62,0,0,1,.64-.58.65.65,0,0,1,.66.56c.13.49-.06,1.11,1,1.81-.11-1.43.82-2.59-1.15-3a1.32,1.32,0,0,1-.89-2.2c.73-1.11,1.09.1,1.59.44A10.59,10.59,0,0,0,27.65,18c.82.33,1.64.49,1.39-.94-.29-1.65.32-2.68,2.12-2.66,1.1,0,2.08-.06,2.57-1.27.12-.29.53-.55.78-.31,2.26,2.2,1.59-.89,2.4-1.31a2.83,2.83,0,0,0,1,2.39L38,14l-.08.21c.13.5.27,1,.41,1.52a.54.54,0,0,1-.76.13Z"/><path class="cls-124" d="M28.28,35c0-.16,0-.32,0-.48.3-.25,1.07-.26.49-1,0-.16,0-.32,0-.48,1.19-.09,1.4.59,1.46,1.62.06,1.22-.5,2.55.44,3.66A8.67,8.67,0,0,1,30.53,40c-.74,2.57.23,3.91,3,4.15-.58.73,0,1.23.24,1.88s-.31,1.35-1.25,2c.47-1.36.43-1.89-1.15-1.64-.9.15-3-.1-2.95-1.15.08-1.48-1.59-3.13.28-4.53,1-.76.26-1.35-.45-1.82C29.51,37.55,29.89,36.27,28.28,35Z"/><path class="cls-78" d="M37.59,15.88l.76-.13,1,.51c.19.6.41,1.21-.38,1.58s-1.09-.29-1.53-.69C37.5,16.73,37.54,16.3,37.59,15.88Z"/><path class="cls-134" d="M30.19,27.31c-1.63-.38-.6-1.79-1.25-2.55,1.27.3.35,1.62,1.25,2.07Z"/><path class="cls-124" d="M30.74,38.35V35.1C31,36.2,31.5,37.3,30.74,38.35Z"/><path class="cls-142" d="M37.94,14.23a.4.4,0,0,0-.08-.36c.07-.86.18-1.69,1.41-1.33.2.48.76.91.37,1.48S38.53,14.31,37.94,14.23Z"/><path class="cls-139" d="M57.43,30.69c-.64-.74-.31-1.62-.37-2.44,1-.63,1.68,0,2.38.6a4.53,4.53,0,0,0,.52.84l.06.95Z"/><path class="cls-143" d="M13.39,42.19a12.7,12.7,0,0,0,1.2,2.58c.51.68.61,1.12-.1,1.53-1.11.65-.41-.56-.74-.79C12,44.29,12,43.56,13.4,42.19Z"/><path class="cls-144" d="M60,29.69l-.44-.52c-.79-1.27-1.18-2.92-3-3.28-.28-.49-2.24-.28-.47-1.64,1.5-1.15,1.32-3.88,0-5.1a1.64,1.64,0,0,1,1-1c1.08-.66,0-2.39,1.44-2.87a2.44,2.44,0,0,1,.52-.45c.57-.25.44.27.36.44-.35.82-.43,1.52.57,1.92.12,1.6,1,3.12.5,4.78.4,2,1.91,3.13,3.33,4.34a10,10,0,0,1-2.13-.17c-1.27-.36-2-.53-1.06,1.16C61.12,28.24,59.56,28.73,60,29.69Z"/><path class="cls-144" d="M63.79,26.83v.49a5,5,0,0,0-.79.8c-.3.45.74,1.27-.37,1.5a.91.91,0,0,1-1.07-.71A1.55,1.55,0,0,1,62.41,27,3.84,3.84,0,0,1,63.79,26.83Z"/><path class="cls-30" d="M77.72,57.55l-1.08-.2c.1-.18.15-.46.29-.52.68-.26.7.28.78.72Z"/><path class="cls-71" d="M58.51,15.32a2.15,2.15,0,0,0-.31,1.78c.49,1.22-.46,1-1.13,1.09C55.52,16.26,53.39,15,51.8,13c-1.23-1.54-.59-1.8.46-2.45.61.81,1.78.2,2.42,1a2.56,2.56,0,0,1,1.46,1.74C58.51,12.14,57.2,15.2,58.51,15.32Z"/><path class="cls-141" d="M21.88,18.69c1.93,1.24,1.94,1.37.35,4.48C22.1,21.47,22,20.22,21.88,18.69Z"/><path class="cls-134" d="M26.8,23.93c.34-1.39,1.72-1,2.67-1.52a2.84,2.84,0,0,0-.95,3.47c.25.6-.07.86-.61,1,0-.68,0-1.36-.1-2s-.51-.52-.91-.25C26.86,24.36,26.83,24.14,26.8,23.93Z"/><path class="cls-96" d="M15.67,36.43c-.14,1.09-.25,1.77-1.15,1.82-.15,0-.45-.27-.44-.39C14.16,37.07,14.73,36.77,15.67,36.43Z"/><path class="cls-145" d="M56.55,25.89c.42-.39,2.23.25,2.48,1a15.92,15.92,0,0,1,.49,2.3l-2.46-.92c0-.31,0-.63,0-.94C56.88,26.83,56.71,26.36,56.55,25.89Z"/><path class="cls-141" d="M32.11,20c-.2.14-.38.36-.51.33a.6.6,0,0,1-.35-.45c0-.32.17-.59.53-.48C31.92,19.44,32,19.75,32.11,20Z"/></g></g></svg>