<svg xmlns="http://www.w3.org/2000/svg" viewBox="0 0 41.75 76.05"><defs><style>.cls-1{fill:#876ba7;}.cls-2{fill:#8f75a8;}.cls-3{fill:#9e87b4;}.cls-4{fill:#a28db6;}.cls-5{fill:#856ca4;}.cls-6{fill:#846a96;}.cls-7{fill:#8f78a4;}.cls-8{fill:#957db3;}.cls-9{fill:#876ca6;}.cls-10{fill:#9a86ae;}.cls-11{fill:#8769a9;}.cls-12{fill:#8f76a9;}.cls-13{fill:#9e89af;}.cls-14{fill:#8577a7;}.cls-15{fill:#fdfaf8;}.cls-16{fill:#fdfbfb;}.cls-17{fill:#393739;}.cls-18{fill:#f2eff1;}.cls-19{fill:#3e3a3d;}.cls-20{fill:#d9cfe5;}.cls-21{fill:#967cb3;}.cls-22{fill:#9078aa;}.cls-23{fill:#cabdd9;}.cls-24{fill:#fdfbf1;}.cls-25{fill:#f8f4f4;}.cls-26{fill:#ab97bf;}.cls-27{fill:#a693bd;}.cls-28{fill:#977fb1;}.cls-29{fill:#967ab2;}.cls-30{fill:#b5a1c7;}.cls-31{fill:#a78dbc;}.cls-32{fill:#ece8ea;}.cls-33{fill:#9078af;}.cls-34{fill:#e1d6e5;}.cls-35{fill:#ac98c4;}.cls-36{fill:#c4b6d7;}.cls-37{fill:#d8c9e2;}.cls-38{fill:#3a3838;}.cls-39{fill:#9a7eb6;}.cls-40{fill:#9b7bb2;}.cls-41{fill:#4d454b;}.cls-42{fill:#8e72aa;}.cls-43{fill:#b396c0;}.cls-44{fill:#c8bcdb;}.cls-45{fill:#c1b2d4;}.cls-46{fill:#ae9bc6;}.cls-47{fill:#b5a3cb;}.cls-48{fill:#ece8ed;}.cls-49{fill:#ad99c7;}.cls-50{fill:#b19dc7;}.cls-51{fill:#a58ebd;}.cls-52{fill:#cdc0d8;}.cls-53{fill:#c4b0d3;}.cls-54{fill:#b49ec9;}.cls-55{fill:#4d4a4b;}.cls-56{fill:#8a74a4;}.cls-57{fill:#d0cbcb;}.cls-58{fill:#c8cbd9;}.cls-59{fill:#afadb2;}.cls-60{fill:#b4b3b1;}.cls-61{fill:#5f585d;}.cls-62{fill:#d3d3dc;}.cls-63{fill:#c2b3d5;}.cls-64{fill:#cdc2db;}.cls-65{fill:#363435;}.cls-66{fill:#3b3a3a;}.cls-67{fill:#a690c2;}.cls-68{fill:#aa95c3;}.cls-69{fill:#b59ec9;}.cls-70{fill:#c2b8cd;}.cls-71{fill:#bfb1d4;}.cls-72{fill:#646162;}.cls-73{fill:#7c7876;}.cls-74{fill:#9b86aa;}.cls-75{fill:#af9cc9;}.cls-76{fill:#dfe3e7;}.cls-77{fill:#444142;}.cls-78{fill:#454344;}.cls-79{fill:#595655;}.cls-80{fill:#686564;}</style></defs><title>swimsuit</title><g id="Layer_2" data-name="Layer 2"><g id="Layer_1-2" data-name="Layer 1"><path class="cls-1" d="M3.42,40.11c.63-.51.43-1.22.44-1.88L5.75,24.3a7.34,7.34,0,0,1-.16-2.6.48.48,0,0,1,.47-.46c1.88,1.18,1.11,3.19,1.5,4.82.07.16-.39.52.19.5A2,2,0,0,1,8.8,27.8c.58,1.57,1.5,2.32,3.25,1.65.66-.25,1.19,0,1.81.6.82.78,1.63.45,1.44-.93,0-.81-.1-1.7.88-2.13,1.09.34.36,2.37,2,2.18s1.14-2,1.9-2.91c1.66,0,1.07,1.39,1.24,2.22a1.43,1.43,0,0,1-1.25,1.85c1.31-.85,3.35-.54,5-1.55a6,6,0,0,1,2.61-.62c1.74.16,3.06-.66,4.6-2.14-1.28.83-2.16,1-2.92.07a2.19,2.19,0,0,1-.7-1.94c.23-.94,1-.48,1.57-.57-1.39.26-2.57-.81-3.95-.59-1.22-.53-2-1.33-1.75-2.78a5.22,5.22,0,0,1,3.7-1.4,5.2,5.2,0,0,0,3-.7c.49-.25.81-.93,1.52-.62.79,1.51-.15,3.5,1.34,4.83.19.93.38,1.87.56,2.8.62,1.22,0,2.06-.86,2.83a6.66,6.66,0,0,1-1.36,1.84,4.09,4.09,0,0,1-1.17.7c-.87.32-1.76.6-2.63,1-2.8,1-5.88,1-8.6,2.36a17.13,17.13,0,0,1-6.69-.32,3.55,3.55,0,0,1-.72-.15l-.45-.15C6.84,31.44,6.61,31.59,6,37.11a15.11,15.11,0,0,0-.1,3.49,8.52,8.52,0,0,1-.06,2.47c-.15,1.5-1,3.07.91,4.23.74.46-.23,1-.45,1.5C7.64,49,8.72,50,10.12,50a8.48,8.48,0,0,1,1,.15c.68.17,1.34.38,2,.57,1,.31,2.12.55,3.15.94a44.81,44.81,0,0,0,4.45.72c.84.08,1.83,0,2.05,1.19a1.44,1.44,0,0,1-1.46,1A25.23,25.23,0,0,1,8.65,52.4l-.37-.27c-1.15-.86-2.3-1.53-3.48,0a2,2,0,0,0-.36-.17l-.69-5.2A15.09,15.09,0,0,1,3,44.66a8.87,8.87,0,0,1-.19-2.3,2.61,2.61,0,0,1,.63-1.83A1.19,1.19,0,0,0,3.42,40.11Z"/><path class="cls-2" d="M2,13.18c-.48-1.6-3-2.57-1.45-4.8a.66.66,0,0,1,.53-.24c.4,0,.83,0,1.14.34A12.62,12.62,0,0,1,3,10.2c-.35,1.8,1.88.87,2.14,2a1.88,1.88,0,0,1,0,.67c-.56.94-.09,1.8.21,2.68a11.81,11.81,0,0,1,.93,5.22,1.88,1.88,0,0,1-.41.56h0a.37.37,0,0,1-.63.08C4.17,18.65,4.26,15.45,2,13.18Z"/><path class="cls-3" d="M5.16,21.42l.63-.08c0,1,0,2,0,3C5.2,23.41,5.39,22.38,5.16,21.42Z"/><path class="cls-4" d="M28.84,74.61c0,.12,0,.24-.05.35-1-.06-1.59.65-2.33,1.09a3.25,3.25,0,0,1,0-.44c-.4-.5-1.09-.7-1.38-1.32-1.12-2.16-1.12-2.25,1-2,.85.09,1-.48,1.47-.84a1.68,1.68,0,0,1,.91-.5,1.62,1.62,0,0,1,1.56.75,1.3,1.3,0,0,1-.2,1.59c.09.58-1.35-.6-.72.62A.69.69,0,0,1,28.84,74.61Z"/><path class="cls-5" d="M32,4c1.53,1,.67,2.51.76,3.73.2,2.6,0,5.22-.07,7.84-1.75-.44-.81-2.06-1.34-3-.24-1.48-.2-3.11-2-3.75l-.83-.49C27,8.09,25.68,6.89,24,7.27a2.69,2.69,0,0,1-1.62-.4c-.6-.34-1.28-.58-1.57-1.3-.05-1-.17-2.08,1.4-1.2.34.22.65.49,1,.69s.89,0,1.3-.21a1.39,1.39,0,0,1,.61,0c.73.33,1.37.93,2.26.77a2.47,2.47,0,0,1,.94.09,7.41,7.41,0,0,1,.84.44c.44.17,1.09.45,1.24-.06.25-.86-.73-1-1.22-1.43a6.48,6.48,0,0,1-.57-.33c-.37-.25-.78-.47-.86-1,.17-.53.61-.66,1.09-.75A3.75,3.75,0,0,1,32,4Z"/><path class="cls-6" d="M31.71,12.22c1.12.89-.14,2.49,1,3.37,0,.63,0,1.27,0,1.9l-1,1A6.34,6.34,0,0,1,31.71,12.22Z"/><path class="cls-7" d="M25.48,74.15c.31.49,1.05.7.95,1.46-2.49.31-3.84-1.64-5.47-2.88C16.62,69.45,12.4,66,8.14,62.64l-.45-1.4a.56.56,0,0,1-.08-.57C8.52,59.3,9.19,58.41,11,60c1.37,1.22,3,2.64,5.16,2.69a.67.67,0,0,1,.67.8,4.58,4.58,0,0,1-3.55.79c1.05.94,2.17,1.83,3.26,2.76,1.17,1.09,2.47,2,3.58,3.18.86.87.7-.23,1-.41.49-.24.84,0,1.18.33A9.52,9.52,0,0,0,25.48,74.15Z"/><path class="cls-5" d="M3.88,5a1.49,1.49,0,0,0,.91-1,3.85,3.85,0,0,1,.48,0C5.94,3.32,7,3.21,7.68,2.52c1-.62,1.58.57,2.45.51a5.19,5.19,0,0,0,3.35,1.09c.79-.28,1.57-.8,2.4-.1h.95c.26-.35.72-.19,1-.4l.89-.57a2.69,2.69,0,0,0,1.95-1.5C21.57-.74,22.8-.08,24.16.93c1.25.39,2.72.31,3.48,1.7-.07.69-.56,1-1.12,1.15-1.42.14-2.47-.67-3.54-1.4-.45-.16-.75.1-1,.4s-.43.47-.66.69a16.38,16.38,0,0,1-1.25,1.1c-3,2.1-6.11,3.05-9.55,1.06-1-1-2.06-1.49-3.14,0a4.24,4.24,0,0,1-3.13.68C3.73,6,3.47,5.58,3.88,5Z"/><path class="cls-8" d="M39.89,42.48l.51.54a4.86,4.86,0,0,0,.39,2.89l.57,8.54c-.63.23-1-.11-1.31-.58a11.41,11.41,0,0,1-.57-4.22c.78-2.19-.72-4.36,0-6.54A1.33,1.33,0,0,1,39.89,42.48Z"/><path class="cls-9" d="M39.89,42.48l0,.44a.8.8,0,0,1-.94.17c-.69-1.73-1.7-2.09-3.54-1.38s-4,.9-5.9,1.85a21.09,21.09,0,0,1-10.71,1.07,34.49,34.49,0,0,0-5-.11,5,5,0,0,1-1.09-.16,6.61,6.61,0,0,0-2.69-.3c-1.41.33-2.63-1.37-4.1-.39a.77.77,0,0,1-.58-.26c0-.93,0-1.86,0-2.79.62-.66,1.33-.3,2-.11,7.73,2.21,15.4,1.48,23-.44A12.57,12.57,0,0,0,33.6,38.9a6.53,6.53,0,0,1,.56-.35c2-.52,2.3-2.19,2.53-3.9.19-.3.41-.53.81-.36.07.32.14.64.22,1-.13.31.1.39.3.5C38.38,38.06,40.08,40,39.89,42.48Z"/><path class="cls-10" d="M37.5,34.29l-.55.57c-1.51-.7-1.52-2.28-2-3.55a11.65,11.65,0,0,0-1.72-3.63c.18-1,2.08-1.08,1.41-2.56A53,53,0,0,1,37.5,34.29Z"/><path class="cls-11" d="M40.36,54l1,.47c.46.38.4.89.38,1.4-.54.35-.42.92-.5,1.43a4.7,4.7,0,0,1-1.21,2c-.24.58-1.2.62-1.1,1.45a.88.88,0,0,1-.64.2,1,1,0,0,1-.66-.72,11.58,11.58,0,0,1,0-1.37c-.87.83-1.6,1.61-2.41,2.29a6.6,6.6,0,0,1-1.82,1.22,21.25,21.25,0,0,1-16.33,1.51l-.25-.32c-2.75-.62-5.28-1.64-7.09-4-.27-.35-.56-.06-.83.06-.48.22-.48.52-.19.93s.55.76-.12.85c-.26,0-.57-.47-.86-.72C7.16,59.43,5.93,58.12,8,57a5.1,5.1,0,0,1,2,.66c6.17,3.16,12.69,2.69,19.23,1.79,3.53-.49,6.22-2.82,9.2-4.49C39.11,54.65,39.59,54.06,40.36,54Z"/><path class="cls-12" d="M38,60.21l.66.59c.13.66-.06,1.12-.77,1.27A6,6,0,0,0,36,64.89a2.31,2.31,0,0,0-.88,1.57v0c-.55.91-.37,2.23-1.52,2.82l-1,1.81c-1.39,1-2.08,2.79-3.76,3.5v-.92a.54.54,0,0,1,.46-.51c.58-.35.46-.92.48-1.45.46-1.7,1.82-2.87,2.55-4.42a21.66,21.66,0,0,0,1.71-3c.49-1.1,1.57-1.77,2.12-2.84C36.67,60.89,36.92,60,38,60.21Z"/><path class="cls-13" d="M8.12,57.36c-1.94.92-.36,2.21-.35,3.33,0,.18-.06.36-.08.55Q6.24,56.66,4.8,52.09c1-2.7,2.45-1.3,3.84-.43-2.27.76-2.23.74-1.24,3.13C7.73,55.6,8.61,56.3,8.12,57.36Z"/><path class="cls-14" d="M7.68,2.52C7.31,3.72,6.19,3.72,5.27,4c0-.67.64-.88,1-1.31Z"/><path class="cls-15" d="M8.12,57.36c-.49-1-1-2-1.47-3S5.25,52.54,6,51.6s1.75.31,2.67.06a22.91,22.91,0,0,0,14,1.93,2.35,2.35,0,0,1,1.93-.79c4.63-.37,8.81-2.19,13-4a2,2,0,0,1,2.14.48c0,.12.09.24.14.36.16,1.43.32,2.87.49,4.3a21.76,21.76,0,0,1-12.19,6.39C21.2,61.39,14.37,61.25,8.12,57.36Z"/><path class="cls-16" d="M31.22,40.5C22.6,43,14,43.53,5.31,40.62c-.53-1.15-.06-2.29.06-3.44.94-.62,1.09-1.64,1.43-2.6.6-1.68,2.06-1.49,3.37-1.24s1.65,1.08,1,2.28c-.47.68-1.26.54-1.94.71,0,.4.32.08.4.2,1.53,2.16,3.82,1.75,5.91,1.57,2.75-.23,5.21,1.34,7.34,1-3-1.22-6.76-1-10.48-1-1.6,0-2.17-.82-1.38-2.34a2.85,2.85,0,0,1,2.22-.67c.65,0,1.39.32,1.11-1-.14-.67.82-.48,1.34-.53,1.49-.14,3,.29,4.48-.26C22.75,31.42,26,32,28.79,30.92c.7-.63,2.34,1.27,2.46-.92l.83-.57c2.49.44,2.16,2.74,2.79,4.36a1.81,1.81,0,0,1-1.07,2.55c-.94.41-1,.92-.16,1.55a1.06,1.06,0,0,1,.51,1.23h0C33.24,39.72,31.89,39.39,31.22,40.5Z"/><path class="cls-17" d="M24.57,20.35l1.79,2.53c1.24.55,1.84,1.73,2.61,2.72,1.45,1.91,1.38,2-1.07,3L25,29c-1,.21-1.16-.64-1.4-1.22-.6-1.45-1.39-2.8-1.95-4.26-.4-1.19-.91-2.33-1.37-3.49a27.35,27.35,0,0,1-1.57-4,11,11,0,0,1-.36-1.28,1.67,1.67,0,0,1,.39-1.54.77.77,0,0,1,.63-.06,4.46,4.46,0,0,1,1.2,1.46c.42.59.92,1.11,1.36,1.68.69.77,1.21,1.67,1.9,2.43C24.21,19.18,24.78,19.6,24.57,20.35Z"/><path class="cls-18" d="M24.57,20.35l-1-1.44a.89.89,0,0,1,.31-.94c3.61-1.89,3.44-5.69,4.48-8.88.2-.45.35-1,1-.78,2.27.41,2.58,2,2.33,3.91a31.73,31.73,0,0,0,0,6.24,2.07,2.07,0,0,1-2,1C27.85,19.17,26.23,19.82,24.57,20.35Z"/><path class="cls-19" d="M20.2,26.16c-.31,1.07.57,2.44-.68,3.25a2.58,2.58,0,0,1-2.47.47c-1.21-.58-.44-1.85-.74-2.76-1-1.66-.13-3.44-.31-5.15a4.85,4.85,0,0,1,.42-1.07c.68-2-.22-4.12.62-6.09.5-.58.91-.24,1.32.12a12.17,12.17,0,0,1,.7,1.76c.19,1.23.88,2.34.82,3.63.08,1.83.73,3.62.39,5.47C20.25,25.91,20.23,26,20.2,26.16Z"/><path class="cls-20" d="M13,51.14l-1.86-.53a1.67,1.67,0,0,1-.75-2.35c.66-1,1.67-.74,2.59-.64,1.65.16,3.31.34,5,.43.63,0,1.26,0,1.89,0a29.85,29.85,0,0,1,6.87-.42c.77.07,1.85.06,1.81,1.1s-1.11.92-1.89.91a2.45,2.45,0,0,0-2,.57c-2.38,2.37-5.34,2.17-8.25,1.6A19.62,19.62,0,0,0,13,51.14Z"/><path class="cls-21" d="M5.8,21.34l.07-.61c1-.73,2.6.95,3.26-.9,1.3-.13,1.55,1.11,2.28,1.72.63.9,1.88.43,2.6,1.16a10.25,10.25,0,0,0,1.85,6.78c-.13.47.64,1.21-.24,1.38-.71.15-2,.45-2.15-.25-.29-1.38-1.19-.75-1.55-.57-2.16,1-3-.31-3.62-1.94-.24-.61-.39-1.21-1.06-1.49h0C6.32,25,7.44,22.78,5.8,21.34Z"/><path class="cls-22" d="M38,49.17a34.36,34.36,0,0,1-15.31,4.42c-1.71-1-3.69-.52-5.49-1-.45-.12-1-.05-1.28-.49,2.86-.4,5.76-.19,8.62-.66A16.46,16.46,0,0,0,28,50.8a5.79,5.79,0,0,1,1.09-.27c2-.19,3.67-1.41,5.58-1.87,1.23-.38,1.92-1.79,3.5-1.62.87.09.48-.8.34-1.25a2.82,2.82,0,0,1,.43-2.85l.93,0c-.53,2.26,1.37,4.5,0,6.76h0A1.23,1.23,0,0,0,38,49.17Z"/><path class="cls-23" d="M28.38,51.15a3.85,3.85,0,0,1-3.08.92c-3.14,0-6.28.47-9.42,0L13,51.14c.88-.28,1.53-.77,2.7-.14a7,7,0,0,0,8.55-1.87A1.69,1.69,0,0,1,26,48.79c.72.14,1.42.7,2.37-.26-3.07-.7-5.84-.15-8.62.17-.26-.7-.49-1.39.49-1.75a11.28,11.28,0,0,0,4.72-.45,3.72,3.72,0,0,1,2.58.19C29.91,47.48,30.25,49.26,28.38,51.15Z"/><path class="cls-24" d="M11.08,35.74c.24-1.64-.61-2-2.06-2s-1.95.72-1.77,2c.24,1.7-.57,1.86-1.88,1.38.93-6.55-.08-6.77,7.24-4.36,0,.17-.42.38,0,.51s.3-.26.41-.44a27.54,27.54,0,0,0,7.19.44c-1.67,1.17-3.72-.06-5.49.77.23,1.17,1.56.24,1.9,1.32-1.82.65-3.7.17-5.53.32Z"/><path class="cls-25" d="M34.15,39.12a4.85,4.85,0,0,0-1-1c-1.65-.84-.9-2,.07-2.23,1.93-.53,1.42-1.51.88-2.65-.62-1.3-.58-3-2-3.84a3.55,3.55,0,0,0,1.14-1.75c1.26-.16,1.34.9,1.65,1.66.72,1.83,1.39,3.68,2.08,5.52C37.64,37.35,36.39,38.56,34.15,39.12Z"/><path class="cls-26" d="M22.1,23.27,25,29v.9c-2.3-.12-4.43,1-7.18,1.1,3.46-1.64,3.46-1.64,2.38-4.84h0C19.7,23,19.85,22.8,22.1,23.27Z"/><path class="cls-27" d="M15.86,29.49c-.88,0-1.59.22-1.58-1.25,0-1,0-2.28-.87-3.08-1.33-1.17-.27-1.79.48-2.5a1.2,1.2,0,0,1,1-1.52,1.84,1.84,0,0,1,1.51.71,16.94,16.94,0,0,1-.12,5.27C15.61,27.8,16,28.7,15.86,29.49Z"/><path class="cls-28" d="M27.9,28.58c1.48-.72,2-1.54.53-2.9a7.59,7.59,0,0,1-2.07-2.8c.3-.24.79-.74.89-.68,1.4.95,3,1,5.07.6a3.07,3.07,0,0,1-3.21,1.14c.7,2.86,1.08,3,3.39,1.16C32.38,27.51,30.74,28.75,27.9,28.58Z"/><path class="cls-29" d="M5.32,43.41H5.8c.75,1.37,2.53,2.2,2.18,4.15,0,1.52,2.1,1.56,2.16,3-1.83.26-3.06-1.82-5-1.29a1.16,1.16,0,0,1-.2-.57c.18-.8,1.18-.28,1.59-1C3.74,47,5,45.08,5.32,43.41Z"/><path class="cls-30" d="M10.14,50.61c-1-.91-2.59-1.25-2.89-2.87,1.11-1.69,2.27-1.43,3.46-.08a.44.44,0,0,1-.09.57,3.86,3.86,0,0,0,.47,2.38Z"/><path class="cls-25" d="M31.25,30c.23.49,1.33.76.5,1.5a1.41,1.41,0,0,1-2.1.05c-.26-.31-.43-.6-.86-.63A4.69,4.69,0,0,1,31.25,30Z"/><path class="cls-16" d="M13,32.89c0,.34.86.6.35.83s-1.6.39-1.82-.46c-.17-.6.69-.28,1.07-.44A.44.44,0,0,1,13,32.89Z"/><path class="cls-21" d="M7.24,26.62c0,.43.15,1-.42,1.18-.09,0-.41-.21-.43-.36-.1-.64.36-.75.85-.82Z"/><path class="cls-31" d="M4.38,6c.94-.37,2-.3,2.88-1,1.43-.59,1.58.63,2,1.43-.65,2.75-3.62,4.43-6.84,3.85A3.14,3.14,0,0,1,2,8.38c-.11-1.27.57-1.71,1.73-1.63.39.41.64,1.07,1.42.86-.3-.39-.88-.17-1.16-.57S3.94,6.23,4.38,6Z"/><path class="cls-32" d="M9.14,20c.06.61.58,1.42-.76,1.34a9.24,9.24,0,0,1-2.51-.56,16.53,16.53,0,0,0-1.26-5.24c-.41-.86-1.38-2,.14-2.86,1.25-.13,1,1.09,1.46,1.64C6.74,16.39,8.78,17.74,9.14,20Z"/><path class="cls-33" d="M2.45,10.29c2.64-.56,5.37-1,6.72-3.82l.34-.07c.6.37.6.93.53,1.53A3.06,3.06,0,0,1,8.85,9.58,17.88,17.88,0,0,0,6.08,12a1.17,1.17,0,0,1-1.23.28C2.9,12.11,2.9,12.11,2.45,10.29Z"/><path class="cls-14" d="M3.88,6.94A2.37,2.37,0,0,0,2,8.38c-.33.06-.67.54-1,0,0-.3,0-.61,0-.91L3.88,5a1,1,0,0,0,.5,1l-.5.94Z"/><path class="cls-34" d="M4.85,12.23l.91-.55c.47-.13.66.16.79.54a3,3,0,0,1-.75,2.41c-.81-.43-.17-1.61-1-2C4.79,12.5,4.82,12.37,4.85,12.23Z"/><path class="cls-35" d="M32.69,67.44a10.76,10.76,0,0,1-2.9,4.29l-1.45-.49c-.21-.44,0-.84.12-1.26-.25-1.32-.05-2.68-.3-4,2-1.52,2.19-1.45,4.29,1.26Z"/><path class="cls-36" d="M28.85,70.3l-.5.94-.51.45c-1.14,1.09-2.28,0-3.41,0-.86-.31-1.59-.82-1.54-1.81s1-1,1.73-1.18l.77-.15C28.24,67.55,29,67.92,28.85,70.3Z"/><path class="cls-35" d="M24.52,71.27c1.14-.11,2.16.72,3.32.42-.46,2.2-1.83,1.17-3.23.52.39.88.63,1.41.87,1.94-1.82-.67-3.24-1.7-3.39-3.84C23.22,69.82,23.4,71.74,24.52,71.27Z"/><path class="cls-37" d="M29.31,73.18l-.46.51-.82,0a1.84,1.84,0,0,1,.19-.6C28.59,72.68,29,72.65,29.31,73.18Z"/><path class="cls-38" d="M28.82,9.38c-.49,2-1,4-1.46,6-.39,1.74-2.06,2.06-3.2,3-1.47.07-1.42-1.5-2.27-2.1-.39-.63-1-1.09-1.22-1.87s-.9-.87-1.43-1.22h0c-.47-1.56.84-1.65,1.72-2.09,1,.08,1.57,1,2.66,1.54-.17-1.29,1.8-1.87.59-3.3a5.14,5.14,0,0,1-1.85-1.94,1,1,0,0,1,.25-1L24,7c1.47-.35,2.5.83,3.8,1.07C28.39,8.31,28.49,8.94,28.82,9.38Z"/><path class="cls-39" d="M23.07,1.67a8.19,8.19,0,0,0,3.37,1.9,1.21,1.21,0,0,1,1.46,0,1,1,0,0,1,1,.47c-.46.58-.24,1.34-.53,2L27.4,6C26.47,6,26,4.91,25,5h-.48c-.48.15-.69,1.12-1.44.48L22.13,5c-.05-.78-1-1.08-1-1.91l.48-.49C22.26,2.52,22.23,1.43,23.07,1.67Z"/><path class="cls-40" d="M29.29,4.1a8.87,8.87,0,0,1,1,.62c.53.45,1.61.76.88,1.71s-1.52,1.08-2.3,0C29,5.69,28.65,4.79,29.29,4.1Z"/><path class="cls-41" d="M22.61,6.43v1a1.82,1.82,0,0,1-1.94.46,1.74,1.74,0,0,1-.61-.34,2.69,2.69,0,0,1-.48-1.63.84.84,0,0,1,.67-.68.85.85,0,0,1,.88.37Z"/><path class="cls-42" d="M27.83,8.42,24,7c1.87-1.25,3.15,1,4.83.82A1,1,0,0,1,27.83,8.42Z"/><path class="cls-43" d="M29.29,4.1c-.19.78.89,1.81-.45,2.37L28.33,6c-.17-.74-2-1.93.53-2Z"/><path class="cls-42" d="M21.14,5.56l-.9-.07a1.29,1.29,0,0,1-.06-1.35,1.66,1.66,0,0,1,1-1c.52.54,1.15,1,1,1.91l-.86-.52Z"/><path class="cls-42" d="M25,5a2,2,0,0,1,2.4,1C26.16,6.78,25.62,5.81,25,5Z"/><path class="cls-42" d="M27.9,3.57H26.44l1-1,1.42,0c0,.15,0,.3,0,.44A1,1,0,0,0,27.9,3.57Z"/><path class="cls-42" d="M23.08,5.5a1.14,1.14,0,0,0,1-.71c.44-.76.35,0,.46.23C24.33,6,23.88,6.29,23.08,5.5Z"/><path class="cls-44" d="M27.83,8.42a1.2,1.2,0,0,1,1-.62l.53.51c-.45.22-.46.66-.56,1.07Z"/><path class="cls-45" d="M16.35,67.43a15.26,15.26,0,0,1-4.19-3.61l4.7-.29,0,.09c1.7.94,4.12,1.11,4.11,3.87-.46,1.05-1.32.93-2.16.69S17.18,67.64,16.35,67.43Z"/><path class="cls-46" d="M16.35,67.43a1.76,1.76,0,0,1,2.31.06,1.33,1.33,0,0,0,2-.06c1-1.43,2.94-1.58,4.86-.34,1.18.76.83,1.53-.07,2.25H25c-1.07-.67-2.24.17-3.32-.19a.46.46,0,0,0-.5.43c0,.08,0,.17,0,.25,0,.53.08,1.07.14,1.94A29.28,29.28,0,0,1,16.35,67.43Z"/><path class="cls-47" d="M21.16,68.38c1.21.59,2.69.13,3.84,1-.57.11-1.43-.32-1.65.42s.6,1.13,1.17,1.51c-1.34,1-1.49-1-2.43-1l-.92-.48h0A1.06,1.06,0,0,1,21.16,68.38Z"/><path class="cls-48" d="M20.18,4.14a1,1,0,0,1,.06,1.35l-.59.36c0,.11-.08.22-.11.33A6.64,6.64,0,0,1,17.1,7.42C14.57,8.5,11.81,8.79,9.22,9.65a1,1,0,0,1-.64-.31L9.72,8c.56-1-.33-1.76-.28-2.67.28-.47.61-.76,1.12-.26C14,7.3,17.08,5.55,20.18,4.14Z"/><path class="cls-49" d="M10.56,5.07c-.38,0-.75,0-.93.44-.27.26-.08.75-.46,1h0C8.31,6.27,8.28,5,7.26,5,8.4,2.91,9.48,4.15,10.56,5.07Z"/><path class="cls-42" d="M23.07,1.67c-.49.29-.69,1-1.43.94C22.1,2.28,21.85.84,23.07,1.67Z"/><path class="cls-50" d="M13.47,43.93c3.31-.48,6.57.51,9.91.26,2.23-.17,4.26-.94,6.42-1.27,1.6-.07,2.95-1.54,4.7-.86,1,.72,0,2,.72,2.79a1.27,1.27,0,0,1,.14.61,1.21,1.21,0,0,1-.54.83,3.4,3.4,0,0,1-2.27.6c-4.64-.58-9.37-.35-13.93-1.56A13.26,13.26,0,0,0,15.3,45C14.57,44.87,13.61,45.08,13.47,43.93Z"/><path class="cls-8" d="M34.6,42.47c-1.7-.95-3.14.93-4.8.45,2.29-1.45,5-1.59,7.53-2.34,1.71-.5,1.55,1.22,1.6,2.36a11,11,0,0,0,.39,3.77c.32.78.17,1.83-1.34,1.11-1.35-.64-1.86,1-2.91,1.36a1,1,0,0,1-.3-.85,3.5,3.5,0,0,1,.12-.63c-.06-1,.77-1.85.2-2.84h0C34.47,44.15,35.22,43.17,34.6,42.47Z"/><path class="cls-51" d="M10.58,47.72c-1.11-.32-2.23-1.15-3.33,0,0-.81.87-1.78-.86-2.06-1.19-.19.09-1.6-.59-2.26a1.51,1.51,0,0,1,2.5-.37c.42.37.77.72,1.36.41a1.7,1.7,0,0,1,.45.75c.07.19.13.39.19.58.26.63,1,.77,1.32,1.33s-.15.94-.56,1.26A2.62,2.62,0,0,1,10.58,47.72Z"/><path class="cls-52" d="M13.47,43.93c.52.65,1.27.37,1.93.47,1,.79,1.4,1.53-.14,2.15a1.57,1.57,0,0,1-.7-.2c-.93-.64-2.1-.23-3.08-.66A1.16,1.16,0,0,1,11,43.8a1.65,1.65,0,0,1,1.5.08Z"/><path class="cls-25" d="M31.22,40.5c-.24-.28-.68-.56-.68-.83,0-.51.45-.12.7-.15l2.91-.4C33.36,40,32.23,40.09,31.22,40.5Z"/><path class="cls-50" d="M12.54,43.88l-1.44.06c-.42.33-.8.79-1.44.46v-.94C10.64,43.49,11.67,43.12,12.54,43.88Z"/><path class="cls-47" d="M25.48,69.34c.62-1.14.68-2-1-1.94-1.26,0-2.53-1.79-3.79,0-.45-2.12-2.74-2.37-3.85-3.81,1.64.15,3.29.34,4.93.44a22,22,0,0,0,11.87-2.42c.35.53,1.46-.07,1.44.84s-.7,1.2-1.44,1.3a7.92,7.92,0,0,0-2,.74c-1.2.48-2.59.26-3.72.77-.79.36.49.31.41.69,0,1,1,.82,1.66,1.26l-1.77.33c.67.85,1.76,1.59.6,2.73C28.32,68,28.06,67.94,25.48,69.34Z"/><path class="cls-53" d="M31.72,64.07c.53-.38.81-1.23,1.75-.83.65.27,1.29-.21,1.23-.68-.1-.72-.74.17-1.1-.09s0-.55,0-.83l1.38-1c.94-.3,1.93-.67,1.52,1l-1.95,2.85c-.9.31-1.12,1.54-2.2,1.6C31.42,65.69,31.07,65,31.72,64.07Z"/><path class="cls-54" d="M36.54,61.68c-.06-1-.82-1-1.52-1,.63-.67,1.27-1.34,1.91-2,.43-.46,1-1.1,1.56-.65.78.58-.25,1-.38,1.53-.06.23-.1.46-.15.68Z"/><path class="cls-47" d="M32.68,66c.36-.84.78-1.61,1.91-1.45a10.59,10.59,0,0,1-1.9,2.91l0-.06A1,1,0,0,1,32.68,66Z"/><path class="cls-8" d="M38,49.17c.86-.64,1.6-.87,1.91.51Z"/><path class="cls-24" d="M11.08,35.74c-.18,1.44.4,2,1.89,1.95,2.07-.11,4.16,0,6.24,0,2.41,0,4.43,1.75,7,1.39-2.56.34-5,1.08-7.56,0-2-.9-4.26-.3-6.39-.33-1.29,0-2.16-.26-2.28-1.63-1.08-.05-.5,1.16-1.25,1.29-.63-.18-.47-.74-.46-1.17C8.28,34.89,10,36,11.08,35.74Z"/><path class="cls-55" d="M21.15,11.27c-.37.91-1.82.73-1.91,1.91-.6.36-.43,1-.52,1.53a.77.77,0,0,1-.51.4l-.86-.47c-.44,0-1,.39-1.25-.3a1,1,0,0,1,.22-.85c.94-.48.85-1.16.36-1.91a12.71,12.71,0,0,1,3.48-4.19l.08.07c.58.63.18,1.45.45,2.14S21.5,10.58,21.15,11.27Z"/><path class="cls-56" d="M22.1,23.27c-2.31-.15-1.85,1.53-1.9,2.87a23.36,23.36,0,0,1-.89-5.81c.38-.51,1.27.58,1.47-.48A12.07,12.07,0,0,1,22.1,23.27Z"/><path class="cls-57" d="M20.78,19.85c-.15,1.19-.92.5-1.47.48l-.63-3.66c-.06-.43-.47-1,.43-1Z"/><path class="cls-58" d="M22.13,16.06l2,2.31-.6.54a6.26,6.26,0,0,1-2-2.29C21.41,16.08,21.65,16,22.13,16.06Z"/><path class="cls-59" d="M22.13,16.06l-.55.56-1.45-2c-.2-.38-.21-.83.2-1s.67.21.75.63Z"/><path class="cls-55" d="M21.08,14.29c-.5-.43-.84-.39-.95.33l-.89-1.44C20.17,13,21.28,12.58,21.08,14.29Z"/><path class="cls-60" d="M19.11,15.64c-.14.34-.28.69-.43,1-.15-.52-.31-1-.47-1.56l.51-.4Z"/><path class="cls-61" d="M16.39,14.64c.32-.08.64-.55,1,0-.19,2.23.46,4.53-.52,6.7a1.69,1.69,0,0,1-.52-1,8.16,8.16,0,0,1-.09-1.1A12.21,12.21,0,0,0,16,16,1.45,1.45,0,0,1,16.39,14.64Z"/><path class="cls-62" d="M16.73,20.4l.1.94-.4.51c-.53-.09-1.15.08-1.52-.51-.16-.37.07-.54.36-.68C15.76,20.58,16.21,20.27,16.73,20.4Z"/><path class="cls-63" d="M14.93,46.29c1.56-.28.74-1.16.47-1.89,3.62.05,7.1,1.06,10.66,1.51.31,0,.68.39.88.29,2.67-1.19,5.48.87,8.13-.36a2.69,2.69,0,0,1,0,2.38h0c-1.5,1.45-3.28.26-4.77.55.85,1.2.26,1.89-1,2.33l-.94,0c.43-1,1.39-2.15.24-3.21A3.33,3.33,0,0,0,25,47.11a6.93,6.93,0,0,1-5.25.15A10.36,10.36,0,0,0,17.8,48.7c-2.4,0-4.75-.84-7.18-.47,0-.17,0-.33,0-.51l0-.45C12,46.52,13.7,47.55,14.93,46.29Z"/><path class="cls-64" d="M17.8,48.7c.23-1,.49-2,1.92-1.44a1.26,1.26,0,0,1,0,1.44Z"/><path class="cls-65" d="M20.16,7.39c-.7,1.75-2.09,3-3.29,4.37.37.52.15.89-.31,1.2a1.73,1.73,0,0,1-1,.08,3.34,3.34,0,0,1-1.44-.76c-1-.93-1.47-.25-1.88.61C9.34,15,9.31,15.76,12,18.23c.3.27.65.46,1,.7a2.53,2.53,0,0,1,.74,3.1c-.64,1.17-1.8.24-2.7-.17L9.14,20A17.69,17.69,0,0,1,5.8,14.63c.18-.77.37-1.54.55-2.3A4.92,4.92,0,0,1,9.22,9.38c2.39-1.72,5.48-1.2,8-2.49.82-.33,1.9,0,2.43-1h0A1.49,1.49,0,0,1,20.16,7.39Z"/><path class="cls-66" d="M15.4,12.7h1a.64.64,0,0,1,0,.94c0,.33,0,.66,0,1s0,.91,0,1.36c0,.83,0,1.66,0,2.48-.21.8-.21,1.7-1,2.21l-.38.65-1,1.32c-1-.12-2.33,1-2.88-.8.23-.07.5-.25.67-.19.61.24,1.11,1,1.86.25-1.11-.55.45-2.12-1-2.54A6,6,0,0,1,10,17.1C8.31,15.18,9,13.94,12,12.7c.46.58.08,1-.29,1.41-.71,1.15.27,1.93.63,2.83.38.37.53.1.64-.26.39-1.21,1.16-2.24,1.59-3.43A1.08,1.08,0,0,1,15.4,12.7Z"/><path class="cls-67" d="M12.16,28.82C11,27.38,8.71,27.37,8,25.37c-.17-.5-1.22-1-.25-1.51.79-.4,1.41-1.68,2.68-.77A6.34,6.34,0,0,1,12.16,28.82Z"/><path class="cls-68" d="M29.32,51.1c.16-.17.45-.32.47-.51.37-3.26,2.62-2.42,4.63-2.16.21,0,.44-.13.66-.21,0,.32,0,.64,0,1C33.07,49.57,31.39,50.91,29.32,51.1Z"/><path class="cls-69" d="M3.88,6.94a1.82,1.82,0,0,1,.7,0c.54.24,1.49-.83,1.65.48.09.7-.43,1-1.06.94-.92,0-1.87,0-1.29-1.43Z"/><path class="cls-70" d="M9.22,9.38,6.35,12.33l-.59-.65c.85-.89,1.48-2,2.82-2.34Z"/><path class="cls-31" d="M9.17,6.47a1,1,0,0,1,.46-1c.53.81.84,1.63.09,2.49C9.62,7.46,9.77,6.83,9.17,6.47Z"/><path class="cls-71" d="M32.68,66c0,.47,0,.93,0,1.4-.52,0-1.46,1.31-1.49-.15,0-2.81-1.55-1.6-2.81-1.25-.58-.36-1.72.86-1.84-.49-.1-1.18,1-.86,1.75-.95l3.45-.47C31.68,64.89,31.81,65.62,32.68,66Z"/><path class="cls-72" d="M21.15,11.27l-1-1.43c1.24-1.25,3-.09,4.34-1,1.45.35,1,1.29.65,2.17-.07.16-.49.16-.59.33C23.28,13.49,23.29,13.5,21.15,11.27Z"/><path class="cls-73" d="M24.52,8.87c.14.48.32,1-.5,1l-3.84,0c-.81-.81.32-1.58.06-2.38l2.38-.08Z"/><path class="cls-74" d="M21.16,68.38c0,.48,0,1,0,1.44C20.44,69.35,19.6,68.87,21.16,68.38Z"/><path class="cls-41" d="M19.65,5.86c-.38,1.35-1.45,1.08-2.43,1Z"/><path class="cls-68" d="M34.6,42.47c.8.66.35,1.58.49,2.39-.35,0-.93.55-.78-.4C34.42,43.8,34.51,43.13,34.6,42.47Z"/><path class="cls-68" d="M35.08,48.22c0-.79,0-1.59,0-2.38,0-.33,0-.66,0-1A2.82,2.82,0,0,1,35.08,48.22Z"/><path class="cls-75" d="M14.93,46.29c0,2-1.65,1-2.53,1.3-.51.16-1.19-.2-1.79-.32l1-1a1.26,1.26,0,0,1,.94-.45c.81.17,1.61-.54,2.41,0C14.91,46,14.92,46.14,14.93,46.29Z"/><path class="cls-50" d="M12.52,46.3h-1c-.59-.54-1.86-.19-1.89-1.46a3.48,3.48,0,0,1,1.4,0l.48.47C11.78,45.77,12.81,45.36,12.52,46.3Z"/><path class="cls-63" d="M11.07,44.88a1.17,1.17,0,0,1-1.4,0c0-.15,0-.3,0-.44l1.44-.46Z"/><path class="cls-63" d="M12.52,46.3l-1-.95c1.12.18,2.36-.47,3.36.49Z"/><path class="cls-71" d="M22.31,65.6c1.48-.74,2.35-.76,3.37-.08C24.7,66.29,23.81,66,22.31,65.6Z"/><path class="cls-61" d="M16.37,13.65c0-.31,0-.63,0-.94l.49-1c.58.05,1.21.12,1.1.89S17.16,13.73,16.37,13.65Z"/><path class="cls-76" d="M15.29,20.69a4.54,4.54,0,0,1,.61-2.22c.93-.26.54.65.85.94l0,1C16.29,20.66,16,21.88,15.29,20.69Z"/><path class="cls-62" d="M16.75,19.41l-.85-.94c.1-.83-.29-1.75.45-2.47C17.51,17,16.75,18.26,16.75,19.41Z"/><path class="cls-77" d="M15.4,12.7l-.47.48a2.39,2.39,0,0,0-2.14,1.07c-.8,1-1.58.92-1.72-.58a.89.89,0,0,0,1-1c.09-1.65.52-2.55,2.13-1C14.55,12.06,15,12.36,15.4,12.7Z"/><path class="cls-77" d="M14.92,9.82H12.4c1.72-1.28,2-1.26,2.52,0Z"/><path class="cls-78" d="M14.92,9.82c.41.23.87.43.75,1a.4.4,0,0,1-.34.19c-.59-.24-.34-.78-.41-1.21Z"/><path class="cls-79" d="M11.07,13.67c.5.75,1.06,1.4,1.43,0,.52-2,1.42-1.38,2.43-.47.25,1.56-1.26,2.45-1.44,3.84-.45.25-1.29-.75-1.43.46C11.66,16.22,10.06,15.29,11.07,13.67Z"/><path class="cls-80" d="M12.06,17.48c.1-.51-.33-1.28.28-1.48s.6.83,1.15,1c-.05.43.15,1-.4,1.2S12.45,17.66,12.06,17.48Z"/></g></g></svg>