<svg xmlns="http://www.w3.org/2000/svg" viewBox="0 0 53.63 56.28"><defs><style>.cls-1{fill:#ebf6fb;}.cls-2{fill:#d1dfe6;}.cls-3{fill:#bedbe6;}.cls-4{fill:#d9ebf4;}.cls-5{fill:#e3f1f5;}.cls-6{fill:#c8e3e9;}.cls-7{fill:#e4edf4;}.cls-8{fill:#a8dce6;}.cls-9{fill:#c9dfe9;}.cls-10{fill:#d7dfe7;}.cls-11{fill:#c9e6ef;}.cls-12{fill:#e3f2f8;}.cls-13{fill:#bee1ec;}.cls-14{fill:#dee7ea;}.cls-15{fill:#c8e4ee;}.cls-16{fill:#afdee8;}.cls-17{fill:#d1e5ea;}.cls-18{fill:#d3e4eb;}.cls-19{fill:#ebf5fa;}.cls-20{fill:#cfe4e8;}.cls-21{fill:#d1d7d2;}.cls-22{fill:#cfe9f2;}.cls-23{fill:#cbdfe1;}.cls-24{fill:#b7dfe9;}.cls-25{fill:#d7e5e8;}.cls-26{fill:#fefefe;}.cls-27{fill:#f6f6fa;}.cls-28{fill:#bed6dc;}.cls-29{fill:#ebedef;}.cls-30{fill:#f9f6f6;}.cls-31{fill:#cdd8e2;}.cls-32{fill:#d4dce2;}.cls-33{fill:#bdd4d2;}.cls-34{fill:#dae7ec;}.cls-35{fill:#f7f5f9;}.cls-36{fill:#edf6f9;}.cls-37{fill:#fdfafa;}.cls-38{fill:#f2f8fb;}.cls-39{fill:#b6dce9;}.cls-40{fill:#f7f9fb;}.cls-41{fill:#fdfafb;}.cls-42{fill:#b0dee9;}.cls-43{fill:#f2f2f5;}.cls-44{fill:#fbfbfc;}.cls-45{fill:#e3dce3;}.cls-46{fill:#e5eaf2;}.cls-47{fill:#f7f7f8;}.cls-48{fill:#cde6ee;}.cls-49{fill:#fcfcfc;}.cls-50{fill:#d5ecf6;}.cls-51{fill:#dff0f9;}.cls-52{fill:#a7daeb;}</style></defs><title>tshirt1</title><g id="Layer_2" data-name="Layer 2"><g id="Layer_1-2" data-name="Layer 1"><path class="cls-1" d="M6.76,33.26a2.2,2.2,0,0,1-2.67-.76,2.55,2.55,0,0,0-2.6-1.18c0-.48,0-.95,0-1.43,0-.17,0-.33,0-.49,1.45-.16,2.2,1.31,3.51,1.49a2.62,2.62,0,0,1,.54.35c.5.53,1.18.93,1.34,1.72Z"/><path class="cls-2" d="M28.38,4.48C30.06,4,30.71,2.25,32.2,1.56c1.07-1.34,3-.12,4.09-1.34a7.23,7.23,0,0,1,2.93,0c.22.08.58.15.61.32.24,1.56,1.42,1.32,2.49,1.41S45,1.64,45.25,3.5a1.27,1.27,0,0,1-.61.36c-2.15-.29-4.3.05-6.45-.12-1.13-.1-1.57.31-1.63,1.46s0,2.43-1.24,3.19c-1.59-.82,0-2.76-1.31-3.69-.63-.68-1.21-.41-1.86,0C30.91,5.53,29.45,6,28.34,7a2.16,2.16,0,0,1-2.65.38,1.53,1.53,0,0,1-.88-1.57c.15-.78.82-.65,1.35-.63A3,3,0,0,0,28.38,4.48Z"/><path class="cls-3" d="M39.43.68,42.28.56l2.88,0a20.15,20.15,0,0,1,2.38,2.91l0,.92-.25.24a1.57,1.57,0,0,1-2.15-1.2c-.59-1.24-1.73-1-2.73-.94C41,2.56,39.58,2.69,39.43.68Z"/><path class="cls-4" d="M28.38,4.48c-.18,1.17-1.11.84-1.85.94-.53.07-1.5-.26-1.22.81a1.33,1.33,0,0,0,1.66,1,6,6,0,0,0,1.39-.86c.81.06,1.89-.36,2.32.53s-.52,1.28-1.16,1.67c-.5.12-1,.37-1.44-.17.07.55,1.27.61.7,1.49-1.71.67-2.62-1.19-4.09-1.27a2.17,2.17,0,0,1-.52-.43c-.31-.82-1.65-.72-1.65-1.83.5-.68,1.51-.25,2-.93C25.68,4.57,27.15,5,28.38,4.48Z"/><path class="cls-5" d="M16.48,1.57c1.36.81,3.08,1.14,3.74,2.86A1.13,1.13,0,0,1,19,4.75c-.82-1.13-2.82-.51-3.29-2.18A1.21,1.21,0,0,1,16.48,1.57Z"/><path class="cls-6" d="M18.77,4.44h1.45a3.26,3.26,0,0,1,2.44.93c-.52.68-1.39.8-2,1.29a1.63,1.63,0,0,1-1.41-.12A1.83,1.83,0,0,1,18.77,4.44Z"/><path class="cls-7" d="M34.59.6l.58,0L36,.8c-1,1.53-2.73-.36-3.84.76C31.87-1.57,33.85,1.05,34.59.6Z"/><path class="cls-8" d="M20.71,6.31C20.88,5,22,5.56,22.66,5.36l1.86.06c-.14,1.32-1.2.82-1.92,1A1.27,1.27,0,0,1,20.71,6.31Z"/><path class="cls-9" d="M47.57,4.44l.94,0c.79,1,.46,2.45,1.45,3.35h0A10.18,10.18,0,0,1,51.07,13a20.84,20.84,0,0,0,.78,6,2.08,2.08,0,0,1-.16.73c-.95,1.06-1.43,2.48-2.49,3.48l-.69.64c-.5.46-.94,1.22-1.76.8s-.69-1.16-.61-1.88c.36-1.34,1.54-2.19,2-3.47.86-3.23.31-6.41-.39-9.57A16.31,16.31,0,0,1,47,6.31a2.55,2.55,0,0,1,.62-1.87Z"/><path class="cls-10" d="M47.6,38.91l-.21.1h-.23a28.53,28.53,0,0,0-.22,8.7c-.2.72-.21,1.53-.9,2A1.4,1.4,0,0,1,44.35,49a146,146,0,0,1-1-16.32,1.09,1.09,0,0,1,.53-.55c1.3-.09,1.48.93,1.87,1.8.61,1.38.8,2.94,1.8,4.15Z"/><path class="cls-11" d="M52.37,19.79c2,3,1.64,5-.92,5.79-.64.45-.92,1.77-2.12.86.73-2.19,1.48-4.37,2.06-6.61l0,0A.65.65,0,0,1,52.37,19.79Z"/><path class="cls-10" d="M47.57,52c-2.86,1.59-5.63,3.44-9.12,3.33-.2-.89.7-.92,1.07-1.37,1.12-.84,2.55-1,3.74-1.65a6.1,6.1,0,0,1,.57-.29c1.21-.24,1.45-1.57,2.38-2.11,1,.1.75,1.2,1.36,1.59Z"/><path class="cls-12" d="M47.54,38C46,38,46,36.6,45.76,35.63a7.26,7.26,0,0,0-1.54-3.35c-.51-1.3.46-1.31,1.28-1.46a1.49,1.49,0,0,1,1.11.51c-.48,1.44-.73,2.78.6,4C47.94,36,47.49,37.13,47.54,38Z"/><path class="cls-13" d="M47.57,51.48c-1.06.11-.81-1.08-1.42-1.43a.3.3,0,0,1-.15-.32q.06-.18.12-.18c.07-.66-.2-1.41.48-1.92s-.8-2.11.9-2.35l.11,1.3c0,1.38,2,2.29.91,3.94A.87.87,0,0,0,47.57,51.48Z"/><path class="cls-14" d="M50.47,27.52c-.6,1.32-1.87,1.95-2.9,2.84a1.16,1.16,0,0,1-.35-1c.32-1.18,1.31-1.65,2.27-2.14A1,1,0,0,1,50.47,27.52Z"/><path class="cls-15" d="M47.56,29.41v.95a.89.89,0,0,1-1,1h-1c-.56-.85-.11-1.47.49-2A1.12,1.12,0,0,1,47.56,29.41Z"/><path class="cls-16" d="M50.47,27.52l-1,0a.77.77,0,0,1-.61-.58c.07-.32.21-.54.59-.41l2-.93C51.32,26.32,51.73,27.35,50.47,27.52Z"/><path class="cls-17" d="M15,2.65l.92-.1c.51,1.32,2.8-.08,2.88,1.89a3.29,3.29,0,0,1,.48,1.88c-.93.39-1.29-.49-1.89-.84C16,5.09,16.62,6.61,16,6.88c-1,.35-.83-1.36-1.82-1C9.28,5.37,6.61,8.17,4.67,12.1a1.61,1.61,0,0,1-.95.46,1.8,1.8,0,0,1-1-.19,3.07,3.07,0,0,1-.25-.26c1.65-5.57,4.22-7.63,9.85-8.22C13.18,3.79,14.68,4.34,15,2.65Z"/><path class="cls-18" d="M1.47,27.52c-2.57-.19-1-2.28-.82-2.77C2.29,21.15,1.89,17.38,2,13.64c0-.56,0-1.12.46-1.53l0,0c1,1.33.49,2.88.61,4.34a9.58,9.58,0,0,0,.23,2.56c.14.18.27.37.41.56.49.74,1.32,1.23,1.57,2.15.15,2.64,2.51,2.62,4.17,3.46a1.39,1.39,0,0,1,.49.53,1.58,1.58,0,0,1-.56,2A2.2,2.2,0,0,1,8,27.89c-1.29-.34-2-1.38-2.95-2.23-1.69-1.6-1.86-1.55-2.49.89a2,2,0,0,1-.41.94A.53.53,0,0,1,1.47,27.52Z"/><path class="cls-19" d="M1.47,27.52l.51,0c1.92-.59,3.11,1,4.51,1.69,1.24.64,2.18,1.44,3.47.16a1.1,1.1,0,0,1,1.67.18c-.3,3.21-1.39,4-4.22,2.9a8,8,0,0,1-2.08-1.09h0C4,30.22,2.45,29.45,1.49,28,1.49,27.82,1.48,27.67,1.47,27.52Z"/><path class="cls-20" d="M1.49,28c1.41,1,3.21,1.49,3.83,3.35-1.69.19-2.62-1.14-3.83-1.92Z"/><path class="cls-21" d="M11.06,47.56a23.46,23.46,0,0,0,0-8.52.86.86,0,0,1,.69-.25,2.66,2.66,0,0,1,1.67,1.51c.14,3.23,1.45,6.33,1.07,9.62a11.43,11.43,0,0,1-.3,1.15c-.15.48-.41.94-1,.92s-.89-.57-.94-1.17a8.4,8.4,0,0,1,0-2.6c.15-.68-.64-.14-.72-.54Z"/><path class="cls-22" d="M11.59,47.68c.34.29,1.44-1.09,1.14.5-.14.77.38,1.52-.09,2.31a.8.8,0,0,0,.49,1.17c1,.22.28-.94.84-1.13,1.87.56,3.89.87,4.85,2.93a1.69,1.69,0,0,1-2.18,0c-.86-.52-1.76-.17-2.64-.23,2.62-.15,2.62-.14,2.57,1.47a4.38,4.38,0,0,1-4-.33h0A26.46,26.46,0,0,1,11.59,47.68Z"/><path class="cls-23" d="M39.88,54.35l-1.43,1-2.42,1c-4.22,0-8.44.19-12.63-.45-.48-.07-1-.06-1.3-.47.74-.77,1.83-.76,2.7-1.24,2.5,0,5,.34,7.48-.24a26.78,26.78,0,0,1,4.9-.17c.41,0,.82,0,1.23,0A2,2,0,0,1,39.88,54.35Z"/><path class="cls-24" d="M19.75,55.32a3.47,3.47,0,0,0-2.91-1c-.74-1.61-2.41-.58-3.81-1.3,2.16-.57,3.93.4,5.75.32a1.34,1.34,0,0,1,1.36-.3,5,5,0,0,0,2.71.67,2.11,2.11,0,0,1,1.68.64c-.34,1.53-1.6.69-2.43,1Z"/><path class="cls-25" d="M12,31.33c-1,2.73-3.07,2.48-5.27,1.91-.21-.84-1.5-.86-1.44-1.91a13.71,13.71,0,0,1,1.6.31c3.25,1,3.24,1,4.63-2.24l.27-.19a.69.69,0,0,1,.84.32A1.89,1.89,0,0,1,12,31.33Z"/><path class="cls-26" d="M37.49,54.34l-5.28,0a15,15,0,0,0-4.28-.31c-1.35-.06-2.75.15-3.84-.94-.49-.48-1-.22-1.55-.06-1.19.34-2.19.28-2.35-1.34-.11-1-1-.53-1.51-.55-1.67-.09-2.54-.86-2.41-2.56.11-1.44-1.61-2.38-.92-4A14.64,14.64,0,0,0,16.22,40c.4-4.82-1.59-9.44-1-14.25a8.39,8.39,0,0,1,.92-4.23,4.85,4.85,0,0,0-.07-2.23c-1.53.61-1.44,2.29-2.26,3.31a1.06,1.06,0,0,1-.58.31c-2.07.07-2.47-2.17-4-2.87-1.3-2.74-.91-5.62-.37-8.4C9.21,10,11.52,9.44,13,10.17a10.61,10.61,0,0,0,5.31,1.24c.33,0,.57-.28.84-.44a2.81,2.81,0,0,1,1-.34c1.32-.36,3.21.71,3.81-1.51a1.45,1.45,0,0,1,.61-.79C26.4,7.54,27.2,10,28.85,9.72c.76-.75,1.74-.61,2.66-.63a4.49,4.49,0,0,0,2.86-.87.68.68,0,0,1,.7,0,5.11,5.11,0,0,0,.82-4c-.23-.85,0-1.32.84-1.19,2.64.4,5.36-.57,8,.46a10.56,10.56,0,0,1,2.83,2.9,41.87,41.87,0,0,1,1.83,9.79,5.77,5.77,0,0,1-.85,3.59c-1.34.65-1.68,2.1-2.5,3.17-.32.41-.26,1.05-.56,1.53a.93.93,0,0,1-.54.37,2.09,2.09,0,0,1-2.09-2.17c.06-1.71-.87-3-1.33-4.51-.2-.66-.46-1.71-1.3-1.34-1.24.54.18,1.27.17,2a19.67,19.67,0,0,1,.21,4.6c-.22,4,.31,7.91.49,11.86.05,1.18-.39,2.28-.16,3.54.28,1.58-.26,3.34,1.88,4.09.5.17.61,1.09.2,1.5-2,2-.81,4.27-.64,6.45.27.72,1.56.56,1.41,1.63h0a3.93,3.93,0,0,1-3,.22,15.12,15.12,0,0,0-5.53-.7c.76.12,1.75-.28,2.51.52A1.57,1.57,0,0,1,37.49,54.34Z"/><path class="cls-27" d="M29.33,8.28l1.24-1c-.71-.77-1.75-.08-2.21-.92,1.19-1.42,3.16-1.58,4.51-2.86.79-.74,1.15.19,1.27,1a1.4,1.4,0,0,1,.23.82C34.1,9,32.7,9.86,29.33,8.28Z"/><path class="cls-28" d="M34.11,4.93a3.87,3.87,0,0,1,0-.48c.66.06,1.45-.13,1.17,1.08a17.52,17.52,0,0,0-.24,2.72,2.14,2.14,0,0,1-.43.07C33.25,7.37,34,6.1,34.11,4.93Z"/><path class="cls-29" d="M47.52,6.4C46,6,45.68,4.42,44.69,3.5l.48,0c.75.44,1.38,1.19,2.4,1Z"/><path class="cls-30" d="M17.81,4.92a2.75,2.75,0,0,0,1.44,1.41l1.46,0,1.89.09c.43.75,1.92.06,1.92,1.4a9,9,0,0,1-3.46,2.07c-2.44,1-4.26-.14-4.7-2.88C16.61,6.14,15.82,4.56,17.81,4.92Z"/><path class="cls-31" d="M16.83,7.35c.62,2.1,2.34,2.93,4.23,1.9A11.07,11.07,0,0,1,24.52,7.8c0,.18,0,.35.05.53s0,.61,0,.91c-1,1.23-2.17,2-3.85,1.61-1.39-.38-2.74.13-4.11.2-2.51-1.07-3.23-3-2.13-5.64,1.63-.67.56,1.36,1.44,1.44A1,1,0,0,1,16.83,7.35Z"/><path class="cls-32" d="M34.11,4.93c.23,1.12-.45,2.38.53,3.39-.52,1.66-1.93,1.36-3.17,1.41-.87,0-1.75,0-2.62,0-.19-.54-1.24-.52-1-1.15s1-.18,1.5-.29,1,0,1.43,0c1.89.18,3.33-.11,2.94-2.57C33.67,5.49,34,5.2,34.11,4.93Z"/><path class="cls-33" d="M47.5,45.28c-.76.79-.24,1.8-.45,2.69,0,.06-.08.1-.12.14l-.33-.48A11.36,11.36,0,0,1,47.16,39,29.26,29.26,0,0,1,47.5,45.28Z"/><path class="cls-34" d="M39.9,23.63l0-5.25c-.28-.38-.3-.77.17-.94s.89.22,1.14.6c.81,1.22.82,2.68,1.16,4a4.73,4.73,0,0,0,.62,2c.57.69,1.26,1.23,2.2.52h0c.59-.55.07-1.94,1.44-1.91l.17,1.93L49,22.69c.92,2.15-1.32,2.82-2.11,4.16.76.67,1.46-.14,2.11.15l.46.5-1.92,1.91H46.13l-.31-.07c-1.06-.39-2.17-.49-2.63-2s-1,.14-1.58.23C40,26.72,40.89,24.77,39.9,23.63Z"/><path class="cls-35" d="M49,27c-.52.35-1,.68-1.54,1.05a.67.67,0,0,1-1.14-.31c-.27-.73-.59-1.78.41-2,1.68-.43,1.85-1.76,2.27-3,1.08-.71.76-2.59,2.37-2.86a7.69,7.69,0,0,1-1.93,6.68C49.31,26.67,49.16,26.83,49,27Z"/><path class="cls-36" d="M46.6,22.69,45.16,24.6c0-.7-.16-1.52.36-2,1.24-1.22,2.1-2.5,1-4.46,1.37.15,1.09,1.58,2,1.68C48.19,21,47.21,21.7,46.6,22.69Z"/><path class="cls-37" d="M39.9,23.63c1.77.73.76,2.83,1.9,3.87s1.13,2.43,1.93,3.52c.19.42.38.85,0,1.27.45,5.59,1,11.17,1,16.78.52,2.47,0,2.9-2.89,2.42a7.92,7.92,0,0,1,.84-7.23c.42-.72,0-1.31-1-1.43-1.72-.21-2-1.23-1.43-2.74s.17-3.17.11-4.53C40.15,31.59,39.89,27.62,39.9,23.63Z"/><path class="cls-38" d="M41.81,51.49c1.85.26,2.94-.4,2.89-2.41l1.42.47,0,.5a2.44,2.44,0,0,1-2.41,2.4C43.32,51.67,42.22,52.27,41.81,51.49Z"/><path class="cls-39" d="M43.72,32.29a1.06,1.06,0,0,0-.47-1c-.35-2.47.16-2.81,2.88-1.91h0c-.16.64-.32,1.28-.49,1.92-.68,0-1.39,0-1.42,1Z"/><path class="cls-38" d="M37.49,52.45h-5l0-.86c2.58-.07,5.15-.46,7.73.3a9.11,9.11,0,0,0,3.46.56c-1,1.23-2.75.89-3.85,1.9l-1.44,0c-.13-.11-.27-.33-.21-.39C39.75,52.55,37.69,53,37.49,52.45Z"/><path class="cls-40" d="M14.44,5.41c.15,2.05-.35,4.39,2.35,5.3.84.08,1.77-.3,2.46.5-.48,2-2.28,1-2.84.72-1.44-.8-2.59-.89-3.68.15-1.15-.41,1.12-1.85-.77-1.85-1.3,0-2.62.79-2.66,1.85-.12,2.56-.66,5.2.35,7.73a1.37,1.37,0,0,1-.78,2.12A1.64,1.64,0,0,1,7,21.31a5.49,5.49,0,0,1-1.34-3.74C5.53,16,6,14.38,5.16,12.9a2.14,2.14,0,0,1-.8-.78C6.08,7,8.47,5.4,14.44,5.41Z"/><path class="cls-41" d="M4.36,12.12h1c1,2.54.69,5.24.32,7.76-.32,2.19-1.4-.64-2.2-.11l-.07,0a13.1,13.1,0,0,1,.08-7.67Z"/><path class="cls-42" d="M3.45,12.13c0,2.56-.05,5.12-.08,7.67-1.15-.17-.92-1.07-.92-1.81,0-1.95,0-3.89,0-5.84Z"/><path class="cls-5" d="M16.83,7.35a1,1,0,0,1-.95-.5c.06-2.59.06-2.59,1.93-1.93C16.26,5.24,17.06,6.5,16.83,7.35Z"/><path class="cls-43" d="M3.44,19.78l1.23-1c.43.4-.12,1.09.65,1.55V12.13c1.47.3.84,1.48,1,2.33.28,1.93-.6,4,.66,5.81.4.57.61,1.47,1.49,1.36s1.07-1,1.22-1.82c.53,0,1.27-.11,1.34.64.16,1.56,1.55,1.62,2.49,2.23a.76.76,0,0,1,.14.91c-.76.15-1.53.08-2,1a1.65,1.65,0,0,1-1.95,1l-.48,0c-.49-.65.12-1.33,0-2q-2.64,1.14-4.3-1.82C4.65,20.88,3.33,20.85,3.44,19.78Z"/><path class="cls-44" d="M11.56,29.4c-.31,0-.81-.07-.92.1-2.06,3-3.75.36-5.45-.42C4.12,28.58,3.11,27.9,2,27.49v-1c1.08-1.8,2.09-2,3.43-.52a5.48,5.48,0,0,0,2.32,1.49l1.4,0c.77.41,1.68-.13,2.43.37a1,1,0,0,1,0,1.5Z"/><path class="cls-45" d="M11.08,28c-.8.52-1.48.5-1.95-.43.73-.5.46-1.27.52-2,.53-.83,1.9-.74,1.84-2.47,0-1,1.24.43,2,.52a4,4,0,0,1-.4,3.81C12.44,27.71,11.55,27,11.08,28Z"/><path class="cls-46" d="M4.85,21.73c1.27.85,2.36,2.1,4.2,1.61.75-.2.8.22.12,2.22C7.18,24.9,4.62,24.89,4.85,21.73Z"/><path class="cls-19" d="M7.73,27.49c-1.06,0-2,.12-2.69-1.19s-2.1-.81-3.06.22c.1-1.07,0-2.36,1.24-2.78s1.48.89,2.12,1.51S6.93,26.74,7.73,27.49Z"/><path class="cls-47" d="M15.88,25.56c-.63,5,1.56,9.72,1,14.67-.16,1.39,0,2.71-.76,4.12-1.07,1.95,1.14,3.73,1,5.79,0,.38.8.38,1.28.38h3.12c.43.91-1.74,1-.64,2,.9.79,1.52.31,2-.67.22-.45,1.13-.43,1.25-.08,1.12,3.07,3.69,1.15,5.52,1.67.89.25,2.2-.61,2.56,1a13.74,13.74,0,0,1-7.68,0l-1.91-.07c-.7-.57-1.72-.33-2.42-.91l-1.42,0c-.14-.19-.27-.52-.42-.53-1.81-.13-3.11-1.22-4.39-2.33.32-3.57-1.4-7-1-10.55.18-4.43,1.41-8.72,1.81-13.12C14.89,26.27,15,25.55,15.88,25.56Z"/><path class="cls-48" d="M15.88,25.56c-.64,3.87-1.32,7.72-1.88,11.6-.16,1-.11,2.06-1,2.82-.75.05-.95-.66-1.42-1,0-.31,0-.62,0-.92.35-2.23,1.6-4.39.48-6.72a3.19,3.19,0,0,1,.48-1.91c.24-.65-1.31-1.29,0-1.93.83-1.16.39-2.64,1-3.86v-.95h0c1.32.1.54,1,.67,1.41.41-.85.27-2,.89-3,.32-.5.38-1.38,1.19-1.25s.13,1,.6,1.41C16.61,22.71,15.41,24,15.88,25.56Z"/><path class="cls-49" d="M37.49,52.45H40c-.61.69-1.68.73-1.58,1.88h-.95Z"/><path class="cls-50" d="M20.2,53.42c.93,0,1.9-.14,2.42.91C21.68,54.39,20.71,54.51,20.2,53.42Z"/><path class="cls-19" d="M12.52,27.49c-.28.64,1.17,1.28,0,1.93l-1,0c0-.53.08-1.1-.48-1.44,0-.6-.12-1.41.62-1.57S12.45,27,12.52,27.49Z"/><path class="cls-36" d="M45.16,24.6c-1.35,1.49-2.41,1.24-2.95-.63-.48-1.65-.69-3.37-1.15-5C41,18.69,41,17,39.87,18.38c-1.17-.22-1-1.06-.81-1.84s.88-.54,1.41-.56c.71,0,1.26.16,1.33,1,.17,2,2.09,3.46,1.55,5.75C43.14,23.58,44.15,24.35,45.16,24.6Z"/><path class="cls-43" d="M16.83,21.26c-.41.32-.48-2.37-1.16-.13a31.28,31.28,0,0,1-1.3,3.09c-.69-.36-.19-1.29-.89-1.54a6.72,6.72,0,0,1,1.59-3.63c.39-.38.66-1.05,1.29-.9s.43.91.47,1.43A15.69,15.69,0,0,1,16.83,21.26Z"/><path class="cls-51" d="M20.71,10.7c1.65.49,2.41-1.32,3.82-1.46-.42,3-2.74,1.63-4.34,1.91C20.14,10.73,20.18,10.43,20.71,10.7Z"/><path class="cls-52" d="M20.71,10.7l-.52.45-.94.06c-.81-.18-1.76.28-2.45-.5A3.6,3.6,0,0,1,20.71,10.7Z"/><path class="cls-15" d="M46.13,29.4c-1.3.12-3.18-.63-2.88,1.91A8.08,8.08,0,0,1,41.8,27.5C42,27,41.44,26,42.24,26c.48,0,1.82,0,1.71.75-.24,1.62.66,1.7,1.76,1.87C45.89,28.67,46,29.14,46.13,29.4Z"/></g></g></svg>