<svg xmlns="http://www.w3.org/2000/svg" viewBox="0 0 87.45 90.38"><defs><style>.cls-1{fill:#f7c857;}.cls-2{fill:#f3ce61;}.cls-3{fill:#f7d065;}.cls-4{fill:#f7d166;}.cls-5{fill:#fdcf82;}.cls-6{fill:#f9bd52;}.cls-7{fill:#f2c73d;}.cls-8{fill:#f7cf5c;}.cls-9{fill:#f7cf65;}.cls-10{fill:#f1d37b;}.cls-11{fill:#f7cb5e;}.cls-12{fill:#faeabd;}.cls-13{fill:#ecce52;}.cls-14{fill:#f3cb52;}.cls-15{fill:#f2c919;}.cls-16{fill:#fce49e;}.cls-17{fill:#ebc755;}.cls-18{fill:#f6cd5d;}.cls-19{fill:#e6cf37;}.cls-20{fill:#f5cd5a;}.cls-21{fill:#e9c755;}.cls-22{fill:#fada7c;}.cls-23{fill:#f5c925;}.cls-24{fill:#f6e1a3;}.cls-25{fill:#f0cc39;}.cls-26{fill:#f5d87b;}.cls-27{fill:#f8d881;}.cls-28{fill:#f4c850;}.cls-29{fill:#f7c64a;}.cls-30{fill:#e2ab6c;}.cls-31{fill:#f5c840;}.cls-32{fill:#f8dc94;}.cls-33{fill:#f5dc8e;}.cls-34{fill:#f9e2a5;}.cls-35{fill:#f8cf58;}.cls-36{fill:#f5cf60;}.cls-37{fill:#fceab3;}.cls-38{fill:#f7ca59;}.cls-39{fill:#f1ce68;}.cls-40{fill:#f7c441;}.cls-41{fill:#fbc21c;}.cls-42{fill:#f1cb18;}.cls-43{fill:#f3c75f;}.cls-44{fill:#fade99;}.cls-45{fill:#f5ca42;}.cls-46{fill:#f7c63e;}.cls-47{fill:#f8c558;}.cls-48{fill:#fdda88;}.cls-49{fill:#f6c840;}.cls-50{fill:#f6cb4e;}.cls-51{fill:#f6cc3a;}.cls-52{fill:#f6ca4b;}.cls-53{fill:#edcd7a;}.cls-54{fill:#f3ca64;}.cls-55{fill:#f7c61a;}.cls-56{fill:#f6cc4f;}.cls-57{fill:#f7c45c;}.cls-58{fill:#f9ca69;}.cls-59{fill:#f3be34;}.cls-60{fill:#f8ca3a;}.cls-61{fill:#f7cc25;}.cls-62{fill:#f6c637;}.cls-63{fill:#e9d074;}.cls-64{fill:#f9f0bb;}.cls-65{fill:#f9cf71;}.cls-66{fill:#fbe1a5;}.cls-67{fill:#f6bc3a;}.cls-68{fill:#f4cc47;}.cls-69{fill:#f7cf68;}.cls-70{fill:#fac73e;}.cls-71{fill:#f7bc5c;}.cls-72{fill:#fed47c;}.cls-73{fill:#fee2b8;}.cls-74{fill:#f9ca67;}.cls-75{fill:#fdd582;}.cls-76{fill:#f5d26b;}.cls-77{fill:#fbe39f;}.cls-78{fill:#f2cb2c;}.cls-79{fill:#fad367;}.cls-80{fill:#fad98f;}.cls-81{fill:#feecbb;}.cls-82{fill:#f5c655;}.cls-83{fill:#f3cc4d;}.cls-84{fill:#facc58;}.cls-85{fill:#eec838;}.cls-86{fill:#fbd787;}.cls-87{fill:#f7c66a;}.cls-88{fill:#fad579;}.cls-89{fill:#fcc43e;}.cls-90{fill:#fddd92;}.cls-91{fill:#f5c56e;}.cls-92{fill:#f2c729;}.cls-93{fill:#fccd66;}.cls-94{fill:#fad986;}.cls-95{fill:#f5cd56;}.cls-96{fill:#fbd365;}.cls-97{fill:#f5cd5b;}.cls-98{fill:#f5cd71;}.cls-99{fill:#f3c444;}.cls-100{fill:#f9d47d;}.cls-101{fill:#f9ce6f;}.cls-102{fill:#f8e3a5;}.cls-103{fill:#f5cc6f;}.cls-104{fill:#fee9aa;}.cls-105{fill:#f1c16f;}.cls-106{fill:#f5c94b;}.cls-107{fill:#f4c83c;}.cls-108{fill:#f5cd4a;}.cls-109{fill:#fbd77c;}.cls-110{fill:#f3c934;}.cls-111{fill:#f5d065;}.cls-112{fill:#fee799;}.cls-113{fill:#fbc934;}.cls-114{fill:#f4c94a;}.cls-115{fill:#f9d678;}.cls-116{fill:#f9d572;}.cls-117{fill:#f9cb33;}.cls-118{fill:#eecc58;}.cls-119{fill:#f8d278;}.cls-120{fill:#f5c051;}.cls-121{fill:#f3cf59;}.cls-122{fill:#fbe9b7;}.cls-123{fill:#fad151;}.cls-124{fill:#f8d470;}.cls-125{fill:#f9da89;}.cls-126{fill:#f3c81b;}.cls-127{fill:#fbd27c;}.cls-128{fill:#f6c64a;}.cls-129{fill:#fad884;}.cls-130{fill:#f6ca79;}.cls-131{fill:#f8c66e;}.cls-132{fill:#f4cf56;}.cls-133{fill:#fbd05d;}.cls-134{fill:#f6bc64;}.cls-135{fill:#f7c450;}.cls-136{fill:#fbd880;}.cls-137{fill:#f2c53f;}.cls-138{fill:#f7c560;}.cls-139{fill:#fad185;}.cls-140{fill:#f8d18e;}.cls-141{fill:#fcd380;}.cls-142{fill:#fbcc79;}.cls-143{fill:#ca9b5b;}.cls-144{fill:#f2c975;}.cls-145{fill:#f6c657;}.cls-146{fill:#f8cc4e;}.cls-147{fill:#f6bf37;}.cls-148{fill:#ebb243;}.cls-149{fill:#fcd484;}.cls-150{fill:#f4ce5b;}.cls-151{fill:#f9c549;}.cls-152{fill:#efce39;}.cls-153{fill:#f5b64d;}.cls-154{fill:#f9d582;}.cls-155{fill:#f6bc6f;}.cls-156{fill:#f8c05a;}.cls-157{fill:#f9dd94;}.cls-158{fill:#c0925d;}.cls-159{fill:#f9c859;}.cls-160{fill:#f2a84d;}.cls-161{fill:#fcd26e;}.cls-162{fill:#ec903e;}.cls-163{fill:#fde3a8;}.cls-164{fill:#f2d57f;}.cls-165{fill:#f8df9c;}.cls-166{fill:#eec541;}.cls-167{fill:#f9de9a;}.cls-168{fill:#e45f2d;}.cls-169{fill:#fbe1a1;}.cls-170{fill:#fee3ae;}.cls-171{fill:#f2a956;}.cls-172{fill:#f3b030;}.cls-173{fill:#f4c354;}.cls-174{fill:#f1bc24;}.cls-175{fill:#f9dfb0;}.cls-176{fill:#f8c52f;}.cls-177{fill:#f9b25e;}.cls-178{fill:#f7ad40;}.cls-179{fill:#f6c45a;}.cls-180{fill:#f5ad37;}.cls-181{fill:#f0b33c;}.cls-182{fill:#fce1a2;}.cls-183{fill:#fce3c4;}.cls-184{fill:#f6c843;}.cls-185{fill:#fad073;}.cls-186{fill:#fdce70;}.cls-187{fill:#f6ca31;}.cls-188{fill:#fdda7c;}.cls-189{fill:#f0c732;}.cls-190{fill:#f9cf66;}.cls-191{fill:#f7dd9f;}.cls-192{fill:#f7c846;}.cls-193{fill:#fbd06b;}.cls-194{fill:#f9cb56;}.cls-195{fill:#fbd560;}.cls-196{fill:#f8db8e;}.cls-197{fill:#fad87f;}.cls-198{fill:#f4c853;}.cls-199{fill:#f4c837;}.cls-200{fill:#f2c91b;}.cls-201{fill:#fcdab3;}.cls-202{fill:#f6b986;}.cls-203{fill:#f3d869;}.cls-204{fill:#fad46e;}.cls-205{fill:#fad998;}.cls-206{fill:#f7d076;}.cls-207{fill:#fdd9a2;}.cls-208{fill:#f9d06f;}.cls-209{fill:#e99348;}.cls-210{fill:#f5d05a;}.cls-211{fill:#f9df9d;}.cls-212{fill:#f9de91;}.cls-213{fill:#f7d16c;}.cls-214{fill:#de6f35;}.cls-215{fill:#fbd087;}.cls-216{fill:#fac937;}.cls-217{fill:#fbcc7e;}.cls-218{fill:#f5d244;}.cls-219{fill:#fcd494;}.cls-220{fill:#fbd378;}.cls-221{fill:#f3af6b;}.cls-222{fill:#f9d084;}.cls-223{fill:#f9e19f;}.cls-224{fill:#fce0a6;}.cls-225{fill:#f9cf7a;}.cls-226{fill:#e35e30;}.cls-227{fill:#f6c645;}.cls-228{fill:#fdd686;}.cls-229{fill:#fdc56e;}.cls-230{fill:#f0dc92;}.cls-231{fill:#fee7a7;}.cls-232{fill:#f9df98;}.cls-233{fill:#f0c239;}.cls-234{fill:#f6dd94;}.cls-235{fill:#f4c84b;}.cls-236{fill:#eeb532;}.cls-237{fill:#f3c72b;}.cls-238{fill:#fbd572;}.cls-239{fill:#fcc82a;}.cls-240{fill:#fcd68c;}.cls-241{fill:#fbd886;}.cls-242{fill:#f7db8f;}.cls-243{fill:#fedc97;}.cls-244{fill:#f9d38b;}.cls-245{fill:#fce6ab;}.cls-246{fill:#facf5c;}.cls-247{fill:#efd368;}.cls-248{fill:#f5c637;}.cls-249{fill:#fad780;}.cls-250{fill:#e56a38;}.cls-251{fill:#fae1a4;}.cls-252{fill:#eb4925;}.cls-253{fill:#e45e30;}.cls-254{fill:#f5c726;}</style></defs><title>winterJacket</title><g id="Layer_2" data-name="Layer 2"><g id="Layer_1-2" data-name="Layer 1"><path class="cls-1" d="M70.86,11.67c.25.94,0,2,.63,2.84h0c-.21,1.56.33,3.19-.43,4.71a2.33,2.33,0,0,1-.71-1.63c-.5-1.79-.58-3.67-1.24-5.42a6,6,0,0,1-.37-.6A5.42,5.42,0,0,1,68,7.8a1,1,0,0,1,.63-.28c1.59.52,1.09,2.23,1.84,3.23Z"/><path class="cls-2" d="M16.42,65.84c-.05.15-.11.29-.17.44s-.18.26-.28.38c-.65.76-.78,2.54-2.3,1.69-1.17-.66-.35-1.89,0-2.79a7.92,7.92,0,0,1,1.68-3.11c.57-.22.88.2,1.24.49a2.25,2.25,0,0,1,.41.55c.24.68-.25,1-.65,1.43a1,1,0,0,0,.05.44Z"/><path class="cls-3" d="M85.48,56.65a1,1,0,0,1,.44.07c0,.39,0,.78.4,1s.33.56.22.91c-.8.79-.9,3.14-2.91,1.34-.5-.74-1.25-1.34-1.31-2.34a3.46,3.46,0,0,1,.61-1.91C84,55.45,84.31,57.25,85.48,56.65Z"/><path class="cls-4" d="M7.18,49.94a1.78,1.78,0,0,0,.46,0c.62.64.22,1.28,0,1.91s-.71,1.36-1,2.06-.67,1.34-1,2c-.33.42-.53,1-1.26.79.19-.94.38-1.88.58-2.82C6,52.75,6.43,51.26,7.18,49.94Z"/><path class="cls-5" d="M2.92,69.17c-.76-.66-1.58-1.26-2.26-2S-.58,65.73,1,65.36c.67,1,1.86,1.52,2.59,2.48a1.29,1.29,0,0,1,.27,1.26l0,.17Z"/><path class="cls-6" d="M84,53.72l.45,1.08a1.35,1.35,0,0,1-1.26.41c-1.58-.16-1.18-2.5-2.83-2.57-.95.44-.46,1.53-1,2.17a1.64,1.64,0,0,1-.56.45A2.14,2.14,0,0,1,76,53.74c-.93-2.7-2.41-5.38-1.41-8.42,2.14-1.36,2.62.92,3.77,1.72a11,11,0,0,1,1,1c.59.76.49,2.27,2.1,1.92a.7.7,0,0,1,.59.12h0C83.11,51,83.37,52.49,84,53.72Z"/><path class="cls-7" d="M83,54.8h1.43a3,3,0,0,1,1,1.85c-1.08,1.49-1.16,1.46-2.4-.92A.61.61,0,0,1,83,54.8Z"/><path class="cls-8" d="M16.86,63.46l-.53,0c-.22-1.95,1.29-3.65.79-5.64a7.74,7.74,0,0,1,.47-3.45c.71-1.47-.11-2.72-.42-4,.43-1.46,2.14-.36,2.79-1.39.65.23,1,.89,1.68,1.1.37,1.45-.88,2.5-1,3.83-1.45,2.27-1.31,5-2,7.45C18.36,62.31,18.15,63.31,16.86,63.46Z"/><path class="cls-9" d="M27.32,61.59c-1.11-4.22-.71-8.62-1.49-12.88-.27-1.48.38-3.3-1.3-4.38-.7-.74-.46-1.41.18-2a1,1,0,0,1,.75-.13,3.17,3.17,0,0,1,1.37,1.39A32.89,32.89,0,0,1,28.27,53.8c-.63,1.61-.13,3.28-.26,4.92C27.93,59.71,28.22,60.8,27.32,61.59Z"/><path class="cls-10" d="M28.33,80.72c-.34-1-.67-1.93-1-2.89.94-4.15-.42-8.33.1-12.48,1.72-.77,1.9.5,2,1.61a28.94,28.94,0,0,1-.08,5.66,5.73,5.73,0,0,0,.26,3,3,3,0,0,1,.08,1.23C29.06,78.1,30.19,79.93,28.33,80.72Z"/><path class="cls-11" d="M29.27,75.93a2.78,2.78,0,0,1-.7-3c.53-2.08.12-4.24.21-6.37,0-1-.55-1.2-1.36-1.19l-.06-2.87c.28-.09.7.09.55-.55A1.9,1.9,0,0,1,28.29,60c.94-.09,1.09.79,1.57,1.27a1.89,1.89,0,0,1,.26.72c-.3,2.86-.16,5.73-.18,8.59a2.33,2.33,0,0,0,.62,2A1.87,1.87,0,0,1,30.8,75,3.54,3.54,0,0,1,29.27,75.93Z"/><path class="cls-12" d="M16.86,63.46a5.85,5.85,0,0,0,1.83-4.18,9.79,9.79,0,0,1,2-5.43c-.66,3-1.21,5.95-2,8.87a2.86,2.86,0,0,1-2.24,2.2C16.54,64.43,16.7,63.94,16.86,63.46Z"/><path class="cls-13" d="M28.33,60.06a18.25,18.25,0,0,1,0,2.34c-.16,1.32-.62,0-.94.08,0-.3,0-.59,0-.89,0-2,0-4.07-.13-6.1a1.75,1.75,0,0,1,.63-1.65,1.87,1.87,0,0,1,.69.92A8,8,0,0,1,29,57.82,2.88,2.88,0,0,1,28.33,60.06Z"/><path class="cls-14" d="M25,42.33a2.78,2.78,0,0,0-.44,2,2.39,2.39,0,0,1-1,1.83c-.4.61-.48,1.39-1,2l-.88,1A1.56,1.56,0,0,1,20.83,48c.07-2.24,2.14-3.6,2.5-5.71a1.26,1.26,0,0,1,1-.36A1.12,1.12,0,0,1,25,42.33Z"/><path class="cls-15" d="M21.11,48.07l.57,1.08c0,.29,0,.58,0,.87-1,.43-1.46.11-1.44-1A1.21,1.21,0,0,1,20.59,48,.41.41,0,0,1,21.11,48.07Z"/><path class="cls-8" d="M22.56,48.11a2.55,2.55,0,0,1,1-2C23.51,47,23.48,47.76,22.56,48.11Z"/><path class="cls-16" d="M49.93,90.29l-.51.09a1.31,1.31,0,0,0-.44-.07c-.74-1.81-2.84-.73-3.91-1.83,1.87-1.39,4-.6,6-.69.68.15,1.48.3,1.37,1.22-.1.77-.86.76-1.46.84A2,2,0,0,0,49.93,90.29Z"/><path class="cls-17" d="M13.39,35.67c.86-1.62,1-3.57,2.39-5A2.27,2.27,0,0,1,17,31.82c.3,1.1-.42,1.94-.75,2.88-.28,1.42-2.1,2.29-1.41,4a3.71,3.71,0,0,1-.19,2.46.9.9,0,0,1-.59.39c-.92,0-1.11-.77-1.4-1.42a4.4,4.4,0,0,1-.18-1.69C12.8,37.55,13.09,36.61,13.39,35.67Z"/><path class="cls-18" d="M10,44.21c0-1.42,1.23-2.51,1.07-4,0-.58.42-.79.91-.9.44.25.09,1.32,1.06,1a4.54,4.54,0,0,1,.25,1.55,1.24,1.24,0,0,1-.31.56,3.43,3.43,0,0,1-.86.42c-.76.22-1,1.05-1.54,1.45A.65.65,0,0,1,10,44.21Z"/><path class="cls-19" d="M12.94,40.39c-.22.18-.56.56-.64.52-.63-.39-.11-1-.31-1.56,0-.39.07-.74.51-.86.54.34.45.89.47,1.4.13.12.17.23.12.34S13,40.39,12.94,40.39Z"/><path class="cls-20" d="M12,20.63a13.77,13.77,0,0,1,.89-5.24c.89.78.52,2.11,1.3,2.94a5,5,0,0,1,.33,1.84c.09,2.4,1.48,4.5,1.6,6.9-.11.74-.31,1.32-1.23.83-.63-1.29-1.25-2.58-1.87-3.86C11.88,23.15,12.56,21.71,12,20.63Z"/><path class="cls-21" d="M15.9,29.84l-.09-.94c0-1.13,1.33-1.31,1.61-2.24a1.27,1.27,0,0,1,.53-.42,1,1,0,0,1,1,.29c.69,2-.34,3.25-1.76,4.37C16.38,31,16.32,30.19,15.9,29.84Z"/><path class="cls-22" d="M17.69,26.89c.27,1.51-1.46,1.15-1.88,2a1.42,1.42,0,0,1-.89-1c.62,0,.93-.32.88-.95l.26-.24A1.42,1.42,0,0,1,17.69,26.89Z"/><path class="cls-23" d="M15.9,29.84c.67,0,.9.45,1,1a.61.61,0,0,1-.11.87c-.7,0-.89-.46-1-1Z"/><path class="cls-24" d="M17.27,5.82c.8-.17.85-1.07,1.44-1.43a2.52,2.52,0,0,1,.83,1.79,2.05,2.05,0,0,1-.1.65c-.67,1.07-1.93,1.68-2.32,3-.45.75-.7,1.65-1.57,2.08a1.49,1.49,0,0,1-1,0,.78.78,0,0,1-.36-.54,7.48,7.48,0,0,1,2.54-4.52Z"/><path class="cls-25" d="M13.9,18.31c-1.74-.5-.56-2-1-2.92l.06-.88a1.09,1.09,0,0,1,.69-.34c1.3.19,1.22,1.14,1.15,2.09A3.52,3.52,0,0,1,13.9,18.31Z"/><path class="cls-24" d="M13.91,11.58a2.34,2.34,0,0,0,.46,0l.12.11c.75,1.35-.26,2-1.07,2.76l-.43.07C12.77,13.36,13.56,12.54,13.91,11.58Z"/><path class="cls-26" d="M19.21,6.33a3.4,3.4,0,0,1-.5-1.94,13.08,13.08,0,0,1,3.85-2.88A2.24,2.24,0,0,1,24.64,2a1.56,1.56,0,0,1-.58,2.1A8.42,8.42,0,0,1,19.21,6.33Z"/><path class="cls-27" d="M84.93,64.36c-.5.28-.64,1.11-1.42,1-.21-2.26.43-3.25,2.43-3.8,0,.32,0,.64,0,1C85.62,63.12,85.28,63.74,84.93,64.36Z"/><path class="cls-28" d="M69.86,24a4,4,0,0,1,.64,2.52.89.89,0,0,1-.9.26c-.64-.22-1.29-.82-1.9.08-1,.77-1.68.25-2.27-.58-1.5-1.85-1.72-4.32-3.06-6.25a5,5,0,0,1-.86-.52,9.13,9.13,0,0,1-2.43-4.72c-.19-1.37-1.37-2.23-2.07-3.35,1.28-1.22,2.61-1.92,4.16-.43-.09,1-.74,2,.24,2.91a90,90,0,0,1,5.6,9,1.09,1.09,0,0,0,.9.58A10.52,10.52,0,0,0,69.38,23C70,23.09,69.77,23.6,69.86,24Z"/><path class="cls-29" d="M69.59,26.48h.91c.35,1.11.7,2.21,1.06,3.32,0,.11,0,.22,0,.33-.37.87.31,2-.69,2.73A4.61,4.61,0,0,1,67.93,27C68.38,26.45,69,26.5,69.59,26.48Z"/><path class="cls-30" d="M69.86,24l-.32-.89A1.5,1.5,0,0,1,69.23,21c.64-1,.35-2.05.47-3.08.23-.62.57-1,1.29-.62,0,.63.05,1.27.07,1.9C71,20.89,69.81,22.26,69.86,24Z"/><path class="cls-29" d="M72.4,30.86c.06.61.11,1.23.17,1.84-2.11-.22-1.31-1.61-1.12-2.76l.11-.14Z"/><path class="cls-31" d="M51.35,88.37l-6.28.11-1.36-.15a45.91,45.91,0,0,0-6-1.77c-.2-1.57-.2-1.57,2.45-1.68a6.89,6.89,0,0,1,1.86.2c2.3.78,4.62,1.53,7.12,1.11a4.59,4.59,0,0,1,2.16,1.55A.64.64,0,0,1,51.35,88.37Z"/><path class="cls-32" d="M28.33,80.72c1.15-1.08-.2-2.76.93-3.84l.28.2a6.35,6.35,0,0,1,1.33,3.42c.07,1.42,2.18,1.93,1.64,3.63a1.06,1.06,0,0,1-.42.49C30.19,83.94,28.67,82.89,28.33,80.72Z"/><path class="cls-33" d="M37.92,86.45a9.93,9.93,0,0,1,5.79,1.88c-4-.85-8.32-.7-11.62-3.71l.15-.13C34.86,83.06,36.22,85.25,37.92,86.45Z"/><path class="cls-34" d="M46.55,10.61c.28-.65,1.07-1,1-1.9a2.12,2.12,0,0,0,0-.44c.61-1.84,2.6-2.61,3.38-4.32,1.09,1.8-.33,3-1,4.41-1.13,1.1-1.28,3.25-3.45,3.24A.79.79,0,0,1,46.55,10.61Z"/><path class="cls-35" d="M68.64,80.72h.5c.16,3.88,0,4.54-3.58,5.58-1.43.41-1,2.44-2.63,2.13a1.34,1.34,0,0,1-1.16.23c-1.4-.78-2.94-.5-4.43-.56-1,0-2.07.16-3-.43-.33-2.11.31-3.24,2.13-3.68a4.13,4.13,0,0,0,1.78-.56c.74-.38,1.44-.86,2.2-1.21a8.47,8.47,0,0,1,2-.51,1.74,1.74,0,0,1,.94.16A2,2,0,0,1,62.93,80a3.33,3.33,0,0,0-.28-2.53c.44-1.57,1.69-1.18,2.73-1.06a2.18,2.18,0,0,1,1.8,2,17.24,17.24,0,0,1,0,5C68.23,82.65,67.83,81.34,68.64,80.72Z"/><path class="cls-36" d="M58.56,83.6c-.07.41-.23.94-.64.87-2.42-.43-3,1.32-3.68,3,1.14.85,2.45.36,3.68.48s2.69-.29,3.94.44l1.07.06-.09.86c-4.37-.57-8.55,1.44-12.91,1,.07-1,.89-.8,1.52-1,1.25-.39.63-.69-.1-.93,0-.15,0-.3,0-.45l.12-.24a.69.69,0,0,0-.11-.93,1,1,0,0,1-.19-.56,1.08,1.08,0,0,1,.29-.56,12,12,0,0,1,2-1.79A4.38,4.38,0,0,1,58.56,83.6Z"/><path class="cls-37" d="M81.59,67.25c-.16.33-.31.66-.46,1a1.6,1.6,0,0,0-1,1l-.51-.06C79.3,67.53,80,66.91,81.59,67.25Z"/><path class="cls-38" d="M73.06,65.26c-.19-.6-.39-1.21-.58-1.82a3.09,3.09,0,0,1,2.07.68c.85-.31.18-1.39.88-1.76a5.75,5.75,0,0,1,2.89,1,1.16,1.16,0,0,1,.16,1c-.63,1.39-2.16,2.16-2.55,3.72a2.7,2.7,0,0,1-.32.93l-.24.23C74,68.21,74.46,66.2,73.06,65.26Z"/><path class="cls-39" d="M81.59,67.25a2.13,2.13,0,0,0-1.93,1.92c-1,.22-2.1-.23-3,.7-.51.52-1.15.15-1.25-.68l0-.06a5.83,5.83,0,0,0,1.2-1.23A2.47,2.47,0,0,1,78,66.78c.84-.1,1.26-1,2.11-1.08.64.31,1.47,0,2,.64A1,1,0,0,1,81.59,67.25Z"/><path class="cls-40" d="M71,17.32a1,1,0,0,0-.91,1c-.69.49-.23,1.56-1,2-1-.14-1.35-.9-1.61-1.73.43-1.63.48-3.34.85-5a10.2,10.2,0,0,1,1.31-2.05Q70.31,14.46,71,17.32Z"/><path class="cls-41" d="M68.1,7.79l1.06,3.78a.69.69,0,0,1-.69.13c-1.41-.85-1.59-2.46-2.25-3.75-.36-.7-.18-1.42.86-1.47A1.15,1.15,0,0,1,68.1,7.79Z"/><path class="cls-42" d="M68.61,11.59l.55,0,.46,0c-.11.76.31,1.79-1,1.95a.59.59,0,0,1-.66-.23C67.72,12.57,67.4,11.79,68.61,11.59Z"/><path class="cls-43" d="M68.1,7.79l-.9-1a1.77,1.77,0,0,1-.75-1.54.69.69,0,0,1,.35-.45,4.67,4.67,0,0,1,1.87,3Z"/><path class="cls-44" d="M14.89,72.12,14.34,72c-.84-1.51-2.51-1-3.76-1.58-.57-.55-1-1.08.11-1.5.34-.25,1.3.6,1.1-.62a12.46,12.46,0,0,1-.13-2,2,2,0,0,1,.12-.9,4,4,0,0,1,.32-.52,15.11,15.11,0,0,1,1.38-2.45c.1-.2.21-.4.32-.59a24.34,24.34,0,0,1,1.46-3.4c.44-.66.83-1.42,1.78-.62.61,1.82-.44,3.21-1.21,4.67s-1.33,2.86-1.95,4.31c-.17.4-.58,1,0,1.28s1-.21,1.24-.71.5-1,1.16-1.07C15.8,68.23,15.34,70.17,14.89,72.12Z"/><path class="cls-45" d="M15.83,62.47c-.21-1.71,1.22-3.08,1-4.79a.65.65,0,0,1,.92,0c.41,2.15-.49,4-1.43,5.8A1,1,0,0,1,15.83,62.47Z"/><path class="cls-46" d="M82.12,66.34c-.6-.43-1.64.92-2-.5-.15-.59.31-.87.62-1.23,1-1.06.62-2.55,1.13-3.77.41-1,.71-2,2.13-1.25.44.83,1,1.07,1.36,0,.21-.54.41-1,1-1h0c1,1.16.8,2.11-.49,2.88l0,0c-1.53.8-2,2.3-2.43,3.8Z"/><path class="cls-47" d="M84,59.59c-2.15,0-1.51,1.89-1.85,3s-.08,2.06-1.06,2.75a1.83,1.83,0,0,1-.37-1.48,4.27,4.27,0,0,0-1.24-4.69,3.17,3.17,0,0,1-.29-4.33v0c.73.05,1.49.76,2.17-.12a2.45,2.45,0,0,1,1.21,3Z"/><path class="cls-48" d="M82.58,57.65a6.61,6.61,0,0,0-1.44-2.87c-.89-.76-1.61-1.58-1-2.86,2.28-.36,1.67,2.17,2.88,2.88,0,.31,0,.62,0,.93C83,56.38,83.29,57.15,82.58,57.65Z"/><path class="cls-43" d="M65.78,3.91l.91.06c0,.28.07.55.11.83l-.1.1c-.43.33-.52,1-1.19,1.08-1-.4-1.56-1-1.08-2.17A1.1,1.1,0,0,1,65.78,3.91Z"/><path class="cls-3" d="M85.92,61.51c.49-.9,1.06-1.79.49-2.88C87.92,60.38,87.82,61,85.92,61.51Z"/><path class="cls-49" d="M10.58,70.14a19.45,19.45,0,0,0,2.16,0c1.45-.13,1.87.55,1.6,1.86a20.35,20.35,0,0,1-4.68,0c-.62-1.2-2.23-.82-3-1.84-.36-.51-1-.64-1.46-1l-.42-.06A1.63,1.63,0,0,1,4.13,68,1.44,1.44,0,0,1,4.94,67c1.3-.47,2.2.41,3.22.91S9.7,69.47,10.58,70.14Z"/><path class="cls-50" d="M4.8,67.27l-.49,1a.64.64,0,0,1-1,0c-.66-1.07-2.75-1-2.4-2.87a.87.87,0,0,1,.42,0l.15.14-.13-.16.12-1.84c1.51-2,2.87-4.07,2.79-6.74h0l1-1c1.07,1-.13,2.4.76,3.39a6.76,6.76,0,0,1-.17,2.37,13.61,13.61,0,0,1-1,2.84C4.09,65.32,5.61,66.3,4.8,67.27Z"/><path class="cls-4" d="M4.3,56.71c.57,2.54-.7,4.56-1.89,6.59-.1.17-.59.1-.9.15C1.91,61,4.16,59.28,4.3,56.71Z"/><path class="cls-51" d="M10.56,44.24c.19-.86.27-1.79,1.43-1.91.73.7.22,1.56.29,2.34-.12.6,0,1.23-.16,1.83a26,26,0,0,0-2.93,5.7c-.5.45-.94,1.07-1.73.79-.53-.18-.58-.61-.26-1.07.14-.66.29-1.33.44-2a21.72,21.72,0,0,1,1.83-4.79A2.65,2.65,0,0,0,10.56,44.24Z"/><path class="cls-52" d="M10.56,44.24c.52,1.37-.51.86-1.09.9l.54-.93Z"/><path class="cls-53" d="M3.35,68.23h1a1,1,0,0,1,.51.93l-1-.07Z"/><path class="cls-54" d="M5.24,69.23c.72,0,1.43-.07,1.46,1A1.55,1.55,0,0,1,5.24,69.23Z"/><path class="cls-55" d="M5.76,59.13c-2.09-.84.22-2.34-.5-3.38a3.2,3.2,0,0,1,1-1.94c1.3-.44,1.34.46,1.41,1.32a2.78,2.78,0,0,1-.19.64A3.63,3.63,0,0,0,6.69,58a2.49,2.49,0,0,1-.2.58A1.05,1.05,0,0,1,5.76,59.13Z"/><path class="cls-56" d="M7.19,55.75c-.1-.76.32-1.77-1-1.94a2.7,2.7,0,0,1,1-1.89c.64,2,1.26-.58,1.89,0a1,1,0,0,1,.31,1C8.8,53.94,8.87,55.52,7.19,55.75Z"/><path class="cls-57" d="M78.64,44.14l.55,1.11a.91.91,0,0,1,.2.89,4,4,0,0,1-1.18,1.45C77,46.94,76.67,45,74.88,45.2c-.84,1.06-1,.38-1.35-.42-.54-1.28.37-2.84-.82-4a1.15,1.15,0,0,1,.25-.6,3.2,3.2,0,0,1,.57-.32c1.21-.58.41-1.26,0-1.87-.67-1.13-1.06-2.23-.14-3.41.67,1.14,1.34,2.28,2,3.42a1.32,1.32,0,0,1,.85,1.39C76.54,41.27,78.15,42.43,78.64,44.14Z"/><path class="cls-58" d="M73,40.4c2.09,1,.93,2.88,1.1,4.35.11.93.4.56.82.45-.51,2.58.76,4.9,1.19,7.33.22,1.27,1.12,2.85,3.12,2.29,0,2-.24,3.82,2,5.15.91.54.72,2.62-.08,4-.92-.65-.23-2.35-1.72-2.62S77.76,60,77.5,58.85a31,31,0,0,1-4-8.9c-.83-3.21-.91-6.66-3-9.48a1,1,0,0,1,0-1.12C71.72,38.76,72.51,39.18,73,40.4Z"/><path class="cls-59" d="M80.16,51.92c.33.95.65,1.9,1,2.86-.14.56.24,1.27-.44,1.71-.9-.23-.79-1.33-1.5-1.69C79.53,53.84,78.4,52.39,80.16,51.92Z"/><path class="cls-60" d="M81.59,50c-.28,1.27-.78,1-1.56.34a2.53,2.53,0,0,1-.84-2.28.74.74,0,0,1-.11-.92c.85-.39,1.11.52,1.68.76.69.48.34,1.43.89,2Z"/><path class="cls-61" d="M79.22,47.1l0,1a1,1,0,0,1-1-.48c.05-.65,0-1.41,1-1.41A.61.61,0,0,1,79.22,47.1Z"/><path class="cls-62" d="M73.44,34.63a4.8,4.8,0,0,0,1,3.71c.77.93,1.2,2.3-1,2-.45-1.64-2.33-2.19-2.87-3.77.26-1.28-.15-2.65.45-3.89-.17-1-.74-2,.42-2.78.19,1-.32,2.27,1.12,2.76A3.18,3.18,0,0,1,73.44,34.63Z"/><path class="cls-63" d="M79.22,47.1l0-.92v-.93l.89,1,.47,1c.41.29.36.61,0,.94C79.87,48.14,79.69,47.41,79.22,47.1Z"/><path class="cls-64" d="M80.59,48.12c0-.32,0-.63,0-.94,1.08.61,1,1.68,1.1,2.71C80.92,49.52,81.09,48.62,80.59,48.12Z"/><path class="cls-65" d="M17.76,57.64l-.92,0c-1.35.51-1.36,1.93-1.93,3-.33.61-.39,1.37-1,1.85l-.16-.16c-.06,0,0,0,.16.17l-1.47,2.85c-.17-.15-.29-.38-.56-.37a3.81,3.81,0,0,0,.13.42l0,.92a1.53,1.53,0,0,1-2,.16C9.2,65.4,9.41,64.19,9.57,63c.51-1.44,2.16-2.2,2.33-3.91,0-.49.71-.8,1.36-.59.11,0,.32.28.29.13-.21-1.08-.59-2.12-.79-3.21,1.13-2,2.92-3.54,4.19-5.47l.33.07c1.16,1.48,1.92,3,.76,4.89C17.62,55.61,17.83,56.71,17.76,57.64Z"/><path class="cls-65" d="M20.69,48.11c0,.38-.09.75-.49.94-.36,2.21-1.91.74-2.92,1h0c0-1.88-.27-3.83,1.43-5.25.65.53.8,1.35,1.2,2A11.85,11.85,0,0,1,20.69,48.11Z"/><path class="cls-66" d="M27.88,54.81l-.06-1a86.2,86.2,0,0,0-1.49-10.59,2.18,2.18,0,0,1-.42-1.15c0-1-.06-2.06,1.47-1.85,1.53,2.55,1.23,5.47,1.55,8.24a30.29,30.29,0,0,0,.82,5.37,6.14,6.14,0,0,1-.18,3.6.64.64,0,0,1-.64.35C28,57,29.21,55.47,27.88,54.81Z"/><path class="cls-67" d="M25,42.33l-.48,0c-1.06-1.4-.69-3-.51-4.51.11-.3-.08.07.05-.23.4-.88.61-2.32,1.88-1.9s.86,1.78.5,2.83a10.76,10.76,0,0,0-.51,2.75,1.34,1.34,0,0,1-.47,1.08H25Z"/><path class="cls-14" d="M25.43,42.33l0-1a.41.41,0,0,1,.51-.13c.27.31.12.77.37,1.08v.95C25.71,43.26,25.46,42.91,25.43,42.33Z"/><path class="cls-68" d="M29.27,75.93a.89.89,0,0,1,1-1,2,2,0,0,1,.42,2.16c-.11.37-.3.78-.76.68s-.35-.64-.61-.92h0C29.26,76.56,29.27,76.24,29.27,75.93Z"/><path class="cls-69" d="M29.29,76.88c.31,0,.75,1.25.94-.06a14.42,14.42,0,0,0,0-1.86,1.16,1.16,0,0,0,0-1.92c-.8-1.12-.39-2.38-.42-3.59.6-1.08.29-2.72,1.93-3.16a2.72,2.72,0,0,1,.58,1.84,11.64,11.64,0,0,0,.23,3.33c-.26,2.17,1.78,3.41,2.17,5.32-.91.41-2.17.49-1.7,2.1a.82.82,0,0,1-.79,1,1.24,1.24,0,0,1-.63-1.05c-.23.89-.08,1.94-1.35,1.9C30.66,79.26,29.1,78.29,29.29,76.88Z"/><path class="cls-70" d="M30.25,69.2c0,1.28,0,2.56,0,3.84-.52-.09-.94-.31-.92-.89.11-3.55-.49-7.12.44-10.63a.5.5,0,0,1,.68.12,8.91,8.91,0,0,1,.64,3.79C30.54,66.63,30.88,68,30.25,69.2Z"/><path class="cls-71" d="M30.23,61.53h-1c-.31-1.28-.81-2.57,0-3.87V53.86c.07-.4.19-.85.6-.94.6-.12.8.41.91.85A11.4,11.4,0,0,1,30.23,61.53Z"/><path class="cls-72" d="M29.23,57.64c0,1.29,0,2.58,0,3.87l-.94-1.45c0-.81,0-1.62.05-2.44.16-.18.29-.16.41,0A2.13,2.13,0,0,0,29.23,57.64Z"/><path class="cls-73" d="M28.79,57.66h-.2l-.21,0a5.92,5.92,0,0,0-.5-2.81C29.56,55.32,28.49,56.71,28.79,57.66Z"/><path class="cls-74" d="M24.48,37.52c0,1.6,0,3.2,0,4.79h-1a.83.83,0,0,1-1.06,0,1.78,1.78,0,0,1-.38-1.06,15.1,15.1,0,0,0-.53-8.13,3.92,3.92,0,0,1-.32-.65,4.06,4.06,0,0,1-.13-1.73c.24-.84.64-1.63,1.59-.83.6.5,1.31.42,1.91.75.54.79.86,1.72,2,.35,1.32-1.6,3.2-2.71,2-5.35-.35-.79,1.08-1.66,1.39-2.8a26.18,26.18,0,0,1,3.86-8.67c1,0,1.35.7,1.66,1.47a39.36,39.36,0,0,1,.25,6.42c-.42,1.66.76,3.67-1.1,5-1-.12-.91-.91-.84-1.6a13.85,13.85,0,0,0,0-3.28c-.38,1.63-1.09,3.27.37,4.79.15,2.37-1.18,4.18-2.3,6.06-2.24,2-1.37,4.52-1.21,6.92.06.88.89,1.84-.34,2.54-1.17.19-1.47-.62-1.63-1.5a15.07,15.07,0,0,0-1.13-3.27c0-.31,0,.06-.09-.22-.41-.89.48-2.54-1.23-2.65S25,36.59,24.48,37.52Z"/><path class="cls-75" d="M22.56,42.33h1c.44,2.44-2,3.68-2.4,5.75l-.42,0a.93.93,0,0,1-1-1c-.58-.91.26-1.41.57-2.07C20.92,44.05,21.33,42.84,22.56,42.33Z"/><path class="cls-76" d="M13.93,41.36h.47a3.62,3.62,0,0,0,0-2.87c-1.45-2,1.39-2.41,1.38-3.87a1.47,1.47,0,0,1,.58.91,15.72,15.72,0,0,0,.92,3.07c.22,2.29-1.42,4.12-1.58,6.31-1,.79-1.94,0-2.9-.19a1.59,1.59,0,0,1-.3-.66A2.09,2.09,0,0,1,13,42.32h0A11,11,0,0,1,13.93,41.36Z"/><path class="cls-77" d="M15.85,35.59c0-.33,0-.65-.07-1,.33-1,.66-1.91,1-2.87,0-.29.07-.58.11-.87,1-1.32,2.05-2.63,1.89-4.44a.44.44,0,0,1-.16-.53A18.39,18.39,0,0,0,19.53,24c.48-.56.57-1.33,1-1.89a1.06,1.06,0,0,1,.94-.19,1.29,1.29,0,0,1,.73.7,3,3,0,0,1-.35,1.68c-.8,1.63-1.24,3.41-2.09,5-.66,1.46-.28,3.32-1.72,4.47C17.27,34.3,17.22,35.76,15.85,35.59Z"/><path class="cls-78" d="M13.93,41.36a.87.87,0,0,1-1,1c0-.64,0-1.28,0-1.93l0-.5Z"/><path class="cls-18" d="M14.4,38.48a2.17,2.17,0,0,1,0,2.87Z"/><path class="cls-52" d="M13,42.32l0,1.91a1.1,1.1,0,0,1-1,.49c-.85-.8.35-1.59,0-2.39Z"/><path class="cls-79" d="M18.74,26.14a.93.93,0,0,1,0,.29l-1,.05c-.67,0-1.44-.5-1.86.46H15.8A27.62,27.62,0,0,1,14,20.21c1.41-.77.88-2.25,1.2-3.4.27-1,0-2.07.31-3.08A8.38,8.38,0,0,1,18,10.59a11.33,11.33,0,0,1,2.2-.65,1.27,1.27,0,0,1,.66.16,1,1,0,0,1,.35,1.23,11.9,11.9,0,0,0-2.33,4c-.17.55-.26,1.29-1.15,1.16a1,1,0,0,1-.34-.83c-.37.87.45,1.28.73,1.91,0,2.3-.18,4.62,1.07,6.72A2.7,2.7,0,0,1,18.74,26.14Z"/><path class="cls-80" d="M15.83,13.53A15.35,15.35,0,0,1,15,20.24c-.52,1.21-.7,0-1,0,0-.63,0-1.27,0-1.9s-.17-1.41.48-1.93c.79-.82-.51-2.44,1.12-2.94Z"/><path class="cls-81" d="M15.89,26.94c0-.52-.32-1.35.18-1.47s1.19.52,1.68,1a3.12,3.12,0,0,1-.06.41Z"/><path class="cls-82" d="M29.28,1a13.14,13.14,0,0,1,5.26,3c-.77.77-1.76.59-2.7.64H30.29c-1.94.2-4.15-.72-5.63,1.37-1.55.73-3.37.56-4.86,1.49-.42,0-.73-.14-.62-.66,0-.15,0-.29,0-.44,1.17-1.21,3-1.27,4.21-2.48.56-.56,1.24-1,1-1.9.26-1.21,1.2-.84,2-.86.32.59.25,1.39,1.42,1.36S29,1.77,29.23,1.1Z"/><path class="cls-83" d="M18.25,10.65a10.46,10.46,0,0,1-2.42,2.88h0c-.86-.47-1.64-1-.47-1.95l1.39-1.92c.64-.67,1.1-1.73,2.36-1.15a1,1,0,0,1,.36,1C19.35,10.14,18.67,10.26,18.25,10.65Z"/><path class="cls-79" d="M15.36,11.58c-.61.84.23,1.32.47,1.95-1.46.45-.46,2.16-1.45,2.85-.05-.78.31-1.76-1-1.94.1-1,1.18-1.66,1.07-2.76Z"/><path class="cls-84" d="M19.19,8.71c-1-.2-1.64.59-2.44.95.15-1.52,1.39-2.12,2.43-2.89l.5.51A1.07,1.07,0,0,1,19.19,8.71Z"/><path class="cls-85" d="M29.23,1.1l.66,1.78h-4.1c.23-.66.42-1.23.62-1.79Z"/><path class="cls-86" d="M57.12,11.57c1.08-.13,1.53.58,1.89,1.42.92,2.12,1.36,4.47,2.91,6.3a2.6,2.6,0,0,1,.57,2.88c-1.92,3.15.41,4.77,2.16,6.61a9,9,0,0,1,1.46,1.85,9.13,9.13,0,0,1,1.08,2.22,2.26,2.26,0,0,1-.28,1.72c-.28.22-.77.3-.86.07-.91-2.44-3.64-2.28-5.23-3.75-1.38-1.26-2.44.54-3.72.62-1.78-.93-1.77-2.74-2-4.34-.66-4-.72-8.11-1.27-12.15.17-1.7,1.63-2.42,2.63-3.49A.66.66,0,0,1,57.12,11.57Z"/><path class="cls-57" d="M71,32.72a5,5,0,0,1,0,3.84c-.53.93.08,1.2.8,1.47A1.71,1.71,0,0,1,73,40.39h0c-.75-.44-1.39-1.16-2.4-1a10,10,0,0,1-2.92-4.08c.28-2.43-1.34-4.3-1.91-6.48-.26-1-.83-1.93,0-2.88.54.58,1.09,1.13,1.93.48.43-.1.6,0,.47.48A5.65,5.65,0,0,0,71,32.72Z"/><path class="cls-87" d="M65.76,26a8.36,8.36,0,0,0,1.43,4.9,8.63,8.63,0,0,1,1,4.7c-1.72-.34-.59-2.11-1.44-2.88-.27-.67-1-1.09-1-1.92-.55-2-2.4-3.25-3-5.3a11,11,0,0,1,.06-6.17C63.83,21.55,64.79,23.77,65.76,26Z"/><path class="cls-88" d="M62.86,19.33c-.16,3.48.14,6.82,2.59,9.64.35.39.22,1.21.31,1.83-1.61-1.94-4-3.25-4.68-6-.1-.44-.63-1-.14-1.29,1.91-1.1.75-2.83,1-4.26Z"/><path class="cls-89" d="M57.12,11.57a3.71,3.71,0,0,1-.47,0c-1.35-.74.12-1.51,0-2.27A2.8,2.8,0,0,1,59,7.24a2.52,2.52,0,0,1,1.43.25c.83.54.87,1.63,1.57,2.26.93.71,2.16,1.16,2.31,2.57,0,.81-.2,1.49-1.24,1.4A19.91,19.91,0,0,0,61,11.58C59.7,9.55,58.41,11.43,57.12,11.57Z"/><path class="cls-90" d="M66.73,23.59c-1.56-3.42-4-6.32-5.78-9.6-.25-.42-.41-.9,0-1.28s.86-.11,1.23.19.52.77.91,1a58.16,58.16,0,0,1,4,6.77C67.39,21.54,68.57,22.83,66.73,23.59Z"/><path class="cls-91" d="M66.73,23.59c.9-1.63-.3-2.8-1-4-1-1.83-2.47-3.42-2.9-5.55l.34-.11a9.82,9.82,0,0,1,4.54,5.6c.22,1.53,1.07,3.07,0,4.58A1,1,0,0,1,66.73,23.59Z"/><path class="cls-92" d="M67.7,24.08c.28-1.65-.63-3.18-.5-4.81.18-.13.19-.45.49-.47.75.21.84,1.07,1.41,1.45a2.25,2.25,0,0,0,.49,1c-.47.61,0,1.24,0,1.86C69.08,23.69,68.59,24.25,67.7,24.08Z"/><path class="cls-91" d="M62.87,14c-.65.55-1.25-2.8-1.92,0-.55-.81-1.85-1.62,0-2.41,1.47-.19,2.09.47,1.93,1.92.16.11.21.22.16.32S63,14,62.9,14Z"/><path class="cls-93" d="M68.16,27l-.47-.48c0-.42-.14-1.11.38-1.15.68,0,1.06.69,1.52,1.15C69.25,27.05,68.69,26.94,68.16,27Z"/><path class="cls-28" d="M69.59,21.21c-.81,0-.73-.43-.49-1,.13-.74-.32-1.78,1-1.92C70.29,19.35,70.47,20.37,69.59,21.21Z"/><path class="cls-94" d="M42.23,85.54l-1.88-.05a1,1,0,0,1-.63-.74.78.78,0,0,1,.42-.49c.94-.33,2,.32,3-.45A4.91,4.91,0,0,1,40,83.9a1.2,1.2,0,0,1-.46-.46c-.66-2.09,1.09-2.22,2.42-2.55-.59-1.22-1.9-.37-2.33-1.34a1,1,0,0,1,.36-1,2.12,2.12,0,0,1,.65-.29c3.44-.64,3.41-.64,3.34-4.21-.05-2.08-1.05-4-1-6.08-.43-1.86-1.44-.75-2.29-.44a2.44,2.44,0,0,1-1,.06c-1.2-.47-2.74.31-3.7-1,.53-1.11,1.6-.84,2.49-.86s1.25-.44,1.21-1.29c1.81-1.4,3.64-2.8,4.15-5.24a3.41,3.41,0,0,1,1.2-.78,1.33,1.33,0,0,1,1.72.36,1.45,1.45,0,0,1-.11,1.78,7.4,7.4,0,0,1-1.14.86,2.12,2.12,0,0,0-.64,2,4.19,4.19,0,0,0,.1.71c.09.43-.37,1.48.85.59.45-.32,1,.59,1.28,1.17,1,1.9,1.57,4,2.66,5.88a14.62,14.62,0,0,1,1,2.82,4.74,4.74,0,0,1,.16.65,3.51,3.51,0,0,1-.13,1.67c-.7,1.79-1.44,3.59.88,4.84a1.58,1.58,0,0,1,0,1.36c-.7,1-1.57.68-2.44.29-1.4-.1-2.39.79-3.3,1.58A3,3,0,0,1,42.23,85.54Z"/><path class="cls-95" d="M39.82,84.57c.18.31.35.62.53.92-.74.49-2.25-1-2.43,1-2-.43-3.41-2.4-5.68-2,.47-1.85-2-2.14-2-3.77.81-.61.85-1.58,1.08-2.49.68.33.74.94.83,1.53.32.23.86.21,1,.52C34.63,82.92,37.42,83.44,39.82,84.57Z"/><path class="cls-96" d="M42.23,85.54a4.33,4.33,0,0,0,3.53-1.13c1.06-.89,2.07-2,3.67-1.77.42,1.21,1.09,2.37.67,3.73a.42.42,0,0,1-.66.11C46.83,87.79,44.56,86.44,42.23,85.54Z"/><path class="cls-97" d="M49.44,86.48h.49a1,1,0,0,1,1.43,0l0,0a1,1,0,0,1,0,1.42h0A2.26,2.26,0,0,1,49.44,86.48Z"/><path class="cls-34" d="M52.28,2c.17-.32.34-.63.52-.94C54.32-.42,56.24.23,58,0l.12.09a.89.89,0,0,1,0,1.07,4.54,4.54,0,0,1-2.84.88C54.31,1.11,53.25,3,52.28,2Z"/><path class="cls-98" d="M58.59,0c1.46.15,2.63,1.44,4.22,1.08a1.27,1.27,0,0,1,.54.76,11,11,0,0,1,.24,1.72c0,.09-.24.36.15.28a.4.4,0,0,1,.42-.06l.17.15c.39.7.57,1.55,1.42,1.91A2.75,2.75,0,0,1,66,8.39c-1.3.25-1.6-1-2.33-1.58a4,4,0,0,0-1-.67,3,3,0,0,1-1.71-1.33c-.7-.87-.64-2.17-1.65-2.87-.4-.31-.92-.45-1.21-.91l.06-.92A2.47,2.47,0,0,0,58.59,0Z"/><path class="cls-99" d="M49.41,8.25C50.1,6.88,51,5.6,50.92,4l.88-1a2.33,2.33,0,0,1,2.12-.32.92.92,0,0,1,.47.5c-.08.85-1,1.17-1.21,1.94a16.49,16.49,0,0,1-.92,2.42c-.53.79-.55,1.94-1.64,2.34a2,2,0,0,1-1.27-1A.5.5,0,0,1,49.41,8.25Z"/><path class="cls-100" d="M54.23,3l-2.43,0a1,1,0,0,1,.48-1c1,.26,1.86-1.06,3-.41C55.4,2.38,54.93,2.76,54.23,3Z"/><path class="cls-101" d="M41.75,11.15l1.91.48c1,.85,1.28,2.3,2.59,2.85a2.73,2.73,0,0,1-.78,3c-.56.09-.85-.33-1.2-.64a23.12,23.12,0,0,1-2.79-5A1.16,1.16,0,0,1,41.75,11.15Z"/><path class="cls-102" d="M46.06,14.45c-2.4.43-1.83-1.68-2.4-2.82,1.18.28,1.93-.66,2.89-1,0,.33,0,.66,0,1A1.83,1.83,0,0,1,46.06,14.45Z"/><path class="cls-103" d="M41.75,11.15v.49a.65.65,0,0,1-.62,0,1.35,1.35,0,0,1-.69-1.39c.22-.91-.6-.24-.73-.56C38.86,8.37,36.92,7.79,37,5.82l.91,0a5.11,5.11,0,0,1,2.47,1.85C42.11,8.33,41.62,9.87,41.75,11.15Z"/><path class="cls-104" d="M40.35,7.72c-.86-.57-1.89-.91-2.47-1.85l.53,0A2.12,2.12,0,0,1,40.35,7.72Z"/><path class="cls-105" d="M46.06,14.45c.17-.95.34-1.89.5-2.84,1.4-.74,1.75-2.37,2.85-3.36l.06.48c.85,1.69,1,3.31-.44,4.79-.52-.12-1.07-.69-1.26.5-.15,1-.61,1.91-.87,2.89a6.85,6.85,0,0,1-1.34,2.49.65.65,0,0,1-.66-.26,1.4,1.4,0,0,1,.23-1.78C45.81,16.5,45.76,15.42,46.06,14.45Z"/><path class="cls-106" d="M68.72,57.56l-.13-.84c-.5-1.61-1.93-2.76-2.24-4.44,0,0,.07-.16-.09-.07a4.34,4.34,0,0,1-.19,2.55c-.78.85-.44,2.16-1.25,3-2.45-1.09-1.56-3.43-1.91-5.27-.13-.72.29-1.54-.21-2.26-.6-2.63-.41-5.31-.5-8,0-.45,0-.94-.38-1.28-1.48-1.17-1.36-2.62-.73-4.17a1.22,1.22,0,0,1,.52-.51A1.41,1.41,0,0,1,63,36.5,52.35,52.35,0,0,1,66,45c-.17.73-1.5.69-1.19,1.71.17.58.7.43,1.15.32a1.54,1.54,0,0,1,.64-.07,1.27,1.27,0,0,1,.53.38c1.14,1.75,1.25,4,2.78,5.57a7.54,7.54,0,0,1,.38,1.61,7.41,7.41,0,0,1,.84,2.78c0,.62.15,1.16.91,1.26A1.91,1.91,0,0,1,73,59.91c.07,1,.17,2.07-1,2.62L71.53,62c-.65-.55-.4-1.67-1.32-2A20.79,20.79,0,0,1,68.72,57.56Z"/><path class="cls-107" d="M68.64,80.72c-.08,1.29.39,2.76-1.12,3.61a1.21,1.21,0,0,1-1.34,0c-.45-.32-.13-.69.07-1,.9-1.47.37-3.09.41-4.63,0-.79-.29-1.72-1.25-1.75s-2.14-.71-2.54.86l-.28.2c-.93.06-1.18-.57-1.35-1.3a2.12,2.12,0,0,1,.59-1.25c.27-.28.56-.65.93-.68,2.33-.2,2.61-1.74,2.43-3.61.4-1.19-.49-2.32-.18-3.52.18-2.67,0-5.34.09-8a4.94,4.94,0,0,1,.6-2.94c1.22,0,.71,1,.75,1.58.18,2.37-.23,4.77.22,7.13Q67.66,73.07,68.64,80.72Z"/><path class="cls-108" d="M72,62.53a4.89,4.89,0,0,0,.51-2.93.48.48,0,0,1,.54-.11c.54.45.77,1.15,1.31,1.6a5.49,5.49,0,0,1,.4.43,2.92,2.92,0,0,1,.62,1c.16.9.83,2-.29,2.56-.92.45-1.21-.72-1.74-1.24a2.79,2.79,0,0,0-.84-.37A1,1,0,0,1,72,62.53Z"/><path class="cls-108" d="M70.47,60.59c0-.32,0-.63,0-1,1.41.28.66,1.58,1.1,2.32A2,2,0,0,1,70.47,60.59Z"/><path class="cls-109" d="M58.56,83.6c-1.81,0-3.7-.31-5.29,1A2.39,2.39,0,0,1,52.92,82a1.09,1.09,0,0,1,1.64-.36,4.54,4.54,0,0,0,2.41.25c-.68,0-1.62.43-1.87-.52s.75-1.06,1.41-1.23C58.22,79.66,59.6,79,59,76.81a1.34,1.34,0,0,1,1.25-.26c1.06.07,1.09,2.29,2.68,1.28h0c1.38.34,1.15,1.09.49,1.94-.35,1.57-2.24,1.6-2.88,2.88C59.94,83.16,59.46,83.79,58.56,83.6Z"/><path class="cls-110" d="M61.86,88.36c-1.94,0-3.89,0-5.84,0-.74,0-1.64.21-1.78-1h5.42C60.52,87.45,61.43,87.33,61.86,88.36Z"/><path class="cls-111" d="M60.48,82.64c0-1-.15-2,1.34-1.91.78.06,1-.64,1.54-1C64.05,82.37,62.27,82.51,60.48,82.64Z"/><path class="cls-112" d="M59.63,87c.64-1.08,1-1.91,2.19-1.68.16,0,.44.41.4.5C61.75,86.81,60.83,86.78,59.63,87Z"/><path class="cls-113" d="M63.66,84.65c.4,0,.58.32.45.65s-.39.86-.66.91c-.52.09-.54-.43-.52-.83S63.15,84.63,63.66,84.65Z"/><path class="cls-114" d="M53.27,81.68v2.88c-.64.46-.83,1.53-1.9,1.43-.9-.94-.56-1.91,0-2.87l0-1.44a2.58,2.58,0,0,1-.59-1.94,10.36,10.36,0,0,0-.34-2.54c0-.11,0-.22,0-.32V75c.13-.12.37,0,.46-.22,0,0-.06-.06-.13,0a.76.76,0,0,0-.33.23c-.71-.83-.61-1.93-1-2.88A10.49,10.49,0,0,1,49,65.78c.59-.85,1.27-1.63,1.91-2.45a.64.64,0,0,1,.69.26c.91,4.17.93,8.44,1.48,12.65a4.76,4.76,0,0,1,.2.74c.2,1.21.06,2.47.34,3.68A1.32,1.32,0,0,1,53.27,81.68Z"/><path class="cls-115" d="M51.33,83.12c0,1,0,1.91,0,2.87,0,.16,0,.32,0,.48H49.93a10,10,0,0,1-.5-3.83C50,83.16,50.48,83.82,51.33,83.12Z"/><path class="cls-31" d="M51.36,87.92c0-.47,0-1,0-1.42.58,0,1.2.2,1.21.81C52.61,88.11,51.85,87.85,51.36,87.92Z"/><path class="cls-116" d="M75.35,62.49a.89.89,0,0,1-1-1c1.23-1,1.84-2.89,3.85-2.89.22.83-.6,2.45,1.44,1.92.8,1.71.94,3.36-.34,4.93-.9-.4-.47-1.51-1.1-2A3.78,3.78,0,0,1,75.35,62.49Z"/><path class="cls-117" d="M78.25,67.28c-.75-.08-1,.67-1.44,1a1,1,0,0,1-1.43,0c-.12-2.08,1.73-2.67,2.86-3.81a1.52,1.52,0,0,1,.48,1A2,2,0,0,1,78.25,67.28Z"/><path class="cls-58" d="M78.29,65.37l-.05-1v-1a1.64,1.64,0,0,1,1,1.9A.6.6,0,0,1,78.29,65.37Z"/><path class="cls-118" d="M75.38,68.2l1.43,0c-.08.94-.7,1-1.41.88C75.39,68.82,75.38,68.51,75.38,68.2Z"/><path class="cls-119" d="M78.29,65.37l.9,0c.58-1.55.37-3.18.49-4.78,1.8.55,1.35,2.08,1.45,3.36,0,.47,0,.94,0,1.4a1.1,1.1,0,0,0-1,.52c-.6.51-.82,1.52-1.87,1.44C78.26,66.65,78.27,66,78.29,65.37Z"/><path class="cls-98" d="M63.84,2.14,64.33,2l.48.06c-.11.85.67,1.25,1,1.89l-1.45,0,0,0C63.88,3.39,63.25,2.92,63.84,2.14Z"/><path class="cls-120" d="M62.9,14V13.5c1,0,.93-.76,1-1.42.7-.46,1,.83,1.75.37.82.4,1,1.29,1.59,1.9.76.86.29-.4.59-.42a1,1,0,0,1,.45-.47l.38.08c.07,1.82.18,3.65-.94,5.26l-.49.47c0-.31,0-.86-.1-.9C64.93,17.63,64.89,14.87,62.9,14Z"/><path class="cls-1" d="M65.74,8.26c.43-.81-.22-1.62,0-2.42,0-.6.31-1,1-.94.17.63.33,1.26.5,1.89-.94.07-.68.68-.45,1.15.59,1.23,1.23,2.43,1.86,3.65-.67.52-.39,1.22-.37,1.87l-.14.09c-1.09-.13-1-1.28-1.6-1.85a3.38,3.38,0,0,1-.33-.92C66.11,9.92,65.38,9.18,65.74,8.26Z"/><path class="cls-121" d="M10.09,66.33l1.92,0c.83.65-.15,1.27,0,1.91a1.07,1.07,0,0,1-1,1c-.84,0-.71.46-.43,1a4.84,4.84,0,0,1-2.43-1.89,4.52,4.52,0,0,1,1-1.13A2.93,2.93,0,0,1,10.09,66.33Z"/><path class="cls-122" d="M11,69.17l1-1c.61.09,1.22.39.8,1S11.57,69.81,11,69.17Z"/><path class="cls-123" d="M12,65.39c-.76-.08-1.09-.5-.91-1.24,0-.18.31-.46.39-.44.79.25.85.95,1,1.63Z"/><path class="cls-124" d="M9.6,67.28a1.48,1.48,0,0,1-1.45,1c-1.25.13-2-1.43-3.35-1,.25-1-1.77-1.66-.47-2.86.44.11.73.63,1.29.44C8.67,63.79,9.13,64.07,9.6,67.28Z"/><path class="cls-125" d="M9.6,67.28c-.39-.08-.94-.14-.78-.64.4-1.28-.48-1.77-1.31-2.11s-1,.47-1.38,1.12c-.48.89-1,.6-1.8-1.24.32-1,.63-1.92,1-2.89a16.93,16.93,0,0,0,1-2.86v0c.6-.87.18-2.06.93-2.89h0l1.93-2.88c1,0,2.42-.74,2.88.19a5.49,5.49,0,0,1,.21,4.63c-.69,1.6-1.42,3.19-2.13,4.79,0,1.28,0,2.56,0,3.85A1,1,0,0,1,9.6,67.28Z"/><path class="cls-56" d="M6.26,58.66a3.31,3.31,0,0,1-1,2.86l.48-2.39Z"/><path class="cls-126" d="M1.39,65.29c.44.17,1.14-.18,1.25.61,0,.09-.15.27-.26.3-.75.19-.89-.35-1-.89Z"/><path class="cls-127" d="M10.08,62.48a7,7,0,0,1,.25-1.86c1-2.34,2.17-4.64,1.27-7.47-.81.61-1.77.93-2.48-.28l0-1C9,49.48,10.58,47.85,12,46.15c.32-.48.16-1.28,1-1.43,1-.73,1.74-.42,2.4.48,1.52,2,1.53,3.61,0,5.39a6,6,0,0,0-.91,1.35c-.28.76-1.29,1.15-1.06,2.16a1.87,1.87,0,0,1-.4,1.18c.52.8,1.19,1.55.95,2.61-.1.47.57,1.67-.95,1-.55-.25-1,.56-.91,1.1C12.47,61.72,11.41,62.18,10.08,62.48Z"/><path class="cls-18" d="M13,44.72c-.32.48-.64,1-1,1.43a1.28,1.28,0,0,1,0-1.43,1,1,0,0,1,1-.49C13,44.39,13,44.56,13,44.72Z"/><path class="cls-56" d="M7.19,55.75a3.2,3.2,0,0,1-.93,2.89C6.56,57.68,5.46,56.26,7.19,55.75Z"/><path class="cls-128" d="M73,40.39a2.14,2.14,0,0,0-1.34-2c-.92-.33-1.49-.9-.6-1.87.89,1.22,3,1.65,2.42,3.82Z"/><path class="cls-129" d="M78.24,58.64c-1.54.63-2,2.73-3.85,2.89h0c-.54-.6-.92-1.31-1.45-1.92h-.46l-.92-1a2.73,2.73,0,0,1-1-1c.22-1.11-.47-1.93-.91-2.83.6-1.29.77-2.5-.66-3.39a1.6,1.6,0,0,1-.66-2.13c.08-.15.22-.32.34-.28,2,.7,3.18.33,3.2-2A1.07,1.07,0,0,1,72.6,46c1.19,1.07.38,2.8,1.32,4,1,2.23,2.08,4.42,2.81,6.72C77,57.67,78.36,57.54,78.24,58.64Z"/><path class="cls-130" d="M73.92,50c-1.45-.91-.44-2.74-1.44-3.82-.49.15-.76-.16-.94-.52-1.64-3.34-3.2-6.71-4.79-10.07a1.67,1.67,0,0,1,0-.94c0-.64,0-1.28,0-1.92,1.11.64.61,2.09,1.44,2.88.61,1.4,2.27,2.14,2.4,3.84C73,42.55,73.48,46.26,73.92,50Z"/><path class="cls-131" d="M13,55.28V53.84c.07-.65.56-1,1-1.44.05-1,0-1.84,1.26-2.65,1.59-1,.44-3,.18-4.55-.64-2.48,1.64-4.34,1.44-6.72a1,1,0,0,1,.58-.29c2-.44,3.83-.55,3.94,2.31,0,.73.78.63,1.24.86v1L20.65,45.2c-.64-.22-1.28.22-1.92,0-.89,1.47-.31,3.39-1.45,4.79A13.69,13.69,0,0,1,13,55.28Z"/><path class="cls-132" d="M13.93,62.49a.89.89,0,0,1-.87-1.27c0-.15.36-.39.44-.35.71.36.29,1.07.43,1.61Z"/><path class="cls-131" d="M17.14,54.38c-.08.14-.15.4-.31.5-.43.25-.53-.17-.61-.43s.08-.48.2-.52C16.73,53.81,17,53.94,17.14,54.38Z"/><path class="cls-133" d="M18.73,45.21c.64-.36,1.27-2.07,1.92,0l-1,1.91A2.54,2.54,0,0,1,18.73,45.21Z"/><path class="cls-134" d="M27.84,37.52A4.82,4.82,0,0,1,29.28,41c0,.69.17,1.23,1,1.29,1.44,2.33.62,5,1,7.47.7,4.45.22,9,.58,13.51a3,3,0,0,1-.38,1.85.56.56,0,0,1-.76.21,11,11,0,0,1-.47-3.83c-.19-2.47.56-4.91.08-7.43-.3-1.57-.7-.32-1.07-.24-1.52-3.66-.71-7.65-1.59-11.41a8.46,8.46,0,0,1-.29-2.06,3.36,3.36,0,0,1-.69-2.48C26.91,37.33,27.27,37.12,27.84,37.52Z"/><path class="cls-74" d="M26.88,38c.8.67.37,1.59.48,2.39-1.26.15-.84,1.2-1,1.92l-.42-1C25.48,40,25.58,38.83,26.88,38Z"/><path class="cls-135" d="M26.88,38a5.58,5.58,0,0,0-1,3.36h-.46a6.83,6.83,0,0,1,.42-3.28c.36-.66,1-1.64,0-2s-.64,1.22-1.4,1.49c0-.47,0-.94,0-1.41,0-1.16.55-2.19,1.65-2,.85.14,2.39.54,1.73,2.25a3.51,3.51,0,0,0,0,1.17A1,1,0,0,0,26.88,38Z"/><path class="cls-136" d="M39.82,84.57c-3.66.17-5.93-1.88-7.65-4.81a1,1,0,0,0,.41-1.28c-1.1-2.76.2-2.48,2-1.62a1.37,1.37,0,0,1,1.31-.31,1.91,1.91,0,0,1,1.29,1.09,1.15,1.15,0,0,1-.1.66,1.72,1.72,0,0,1-1.24.19c-1,0-1.18.33-.61,1.14a2.48,2.48,0,0,1,.25.58,2.67,2.67,0,0,0,2,2.38c.8.31,1.73.34,2.37,1h0a.65.65,0,0,1,0,1Z"/><path class="cls-137" d="M36,76.9l-1.41,0c-1.14-1.61-3-2.9-2.47-5.28-.52-1.06.19-2.29-.43-3.35V66.32a.83.83,0,0,1-.1-1A1.38,1.38,0,0,1,33,65.11a6.13,6.13,0,0,1,1.75,1.24c.2,1.63-1.09,2.91-.72,4.75s.76,3.5,2.19,4.78A1,1,0,0,1,36,76.9Z"/><path class="cls-138" d="M31.7,65.38l0,.94c-.83.79-.33,2.23-1.43,2.88.19-1.28-.47-2.65.45-3.84h.52A.3.3,0,0,1,31.7,65.38Z"/><path class="cls-138" d="M31.68,68.23c.91,1,.32,2.23.43,3.35C31.28,70.56,31.85,69.35,31.68,68.23Z"/><path class="cls-139" d="M31.7,65.38l-.48,0q-.48-11.52-1-23c0-2.15-1-4.25-.45-6.39.29-1.19-.34-3.08,1.88-3.21a2.45,2.45,0,0,1,1,2.7c-.33,1,.61.43.71.79a2,2,0,0,1,.42,1.33c0,.19-1.1.8.23.64.8-.09,1.92.55,1.9,1.18-.05,2.25,1.72,2.34,3.06,3,.09,1.92-1.65,2.75-2.51,4.09-.42.64-1.11-.24-1.62-.52-1.21-.68-1.87-.64-2.4.92-.76,2.26-.26,4.41,0,6.59a12.29,12.29,0,0,1-.31,6.11A4,4,0,0,0,32.72,63c.38.69,1,1.27.63,2.16l-.24.27Z"/><path class="cls-140" d="M19.23,28.91c1.23-1.4,1-3.48,2.37-4.83.53-.29.62-1.33,1.56-.95.95,1.43-.4,2.32-.74,3.48.56-1.09,1.44-2,1.64-3.27.17-1,.53-1.6,1.72-1.25,1,.3,1.26-.4,1.18-1.21a4.61,4.61,0,0,1,.95-3.36c1.12-1.41.66-2.41-.56-3.35-.26-.47,0-.94,0-1.48-.94-.33-1.67,2.37-2.73.26-.07-1.25.86-1.92,1.57-2.71C28.3,8.89,29,9,31.12,11.35a4.82,4.82,0,0,1,.38,3c-.38,2.12-1.64,4.05-.94,6.43.29,1-.73,2-1.59,2.8a4.16,4.16,0,0,0-1.53,4.26,4,4,0,0,1-.75,2.9c-.8,1.54-1.46,1-2.22,0-.7-.07-1.68,1.67-2.13-.47-.15-.73-.61.05-.75.46-.54.43-1,1.28-1.79.91C18.55,31.09,19.81,29.77,19.23,28.91Z"/><path class="cls-141" d="M24.47,30.8A2,2,0,0,0,27,28.23c-.67-2.31.15-3.8,1.86-5.29,1-.91,2.17-2.24.77-3.88-.47-.55-.27-1.12.17-1.71a6.31,6.31,0,0,0,1-5.77A1.17,1.17,0,0,1,32,11.33c.83.5,1.05,1.4,1.44,2.2a2.08,2.08,0,0,1,.14,1c-.1,2.88-2.19,5-2.83,7.75-.16.68-.59,1.24-.24,2a.69.69,0,0,1-.42,1c-.44.16-1.26-.36-1.22.61s1.2,0,1.53.84C28.89,28,29,30.59,26.89,31.75c-.56.3-.92,1.1-1.73.87C24.18,32.35,24.58,31.46,24.47,30.8Z"/><path class="cls-142" d="M19.23,28.91c.84.64.16,1.67.63,2.44a2.57,2.57,0,0,1,1.73-.56c0,.64,0,1.28,0,1.93-.21.23-.49.38-.7.6a4,4,0,0,0,.7-.6c1.86,2.26,1.46,4.89,1.26,7.49a6.71,6.71,0,0,1-.3,1.15c-.64.37-1.86,1.92-1.78,0,.13-3-1.48-3-3.5-2.86.95-1.53.75-3.17.47-4.81C18.84,32.27,18.69,30.48,19.23,28.91Z"/><path class="cls-143" d="M35,22.15V15.44c-.11-.56.13-.95.68-.95.76,0,1,.66,1.21,1.22.32,2.93.46,5.88,1,8.78.41,1.94,0,3.92.35,5.87a4,4,0,0,1,.13.77,1.81,1.81,0,0,1-.33,1.1c-.71.38-1.25,0-1.79-.39a3.35,3.35,0,0,1-.74-1.39C35,27.7,35.65,24.89,35,22.15Z"/><path class="cls-144" d="M35,22.15a41.09,41.09,0,0,1,1,8.63C35,31,35.27,30,34.81,29.64c-.41.95-.18,1.61,1,1.83.75.55.15.91-.17,1.31-.14.16-.29.31-.43.46-.58.54-.5,1.34-.76,2a1.31,1.31,0,0,1-1.3.84c-.33.06-1,.35-.86-.17.43-1.25-.53-2.11-.58-3.19L34.08,27h0C36.12,25.7,34.53,23.72,35,22.15Z"/><path class="cls-145" d="M34.08,27c-1,.06-1.45-.31-1.45-1.36a11.56,11.56,0,0,1,1.22-5.3c1.15,2.42.75,4.54.23,6.66Z"/><path class="cls-146" d="M36.44,15.45c-.47-.36-.92-1.24-1.4,0-.5-.29-.69-1-1.45-.95-.15-.17-.3-.33-.46-.49a2.14,2.14,0,0,1,.62-.89c.81-.47,1.59-1.21,2.58-.44s1.42,1.51.77,2.66A.52.52,0,0,1,36.44,15.45Z"/><path class="cls-147" d="M31.67,3.92h2.87a1.45,1.45,0,0,1,1,.9c0,1.23,2.28,1.48,1.38,3.12-2,1.07-2.83-.7-4-1.6a5.43,5.43,0,0,1-.53-.42C32,5.32,31,4.89,31.67,3.92Z"/><path class="cls-148" d="M37,7.78c.12-1.26-2.08-1.42-1.4-2.95l1.42,1c.63,1.53,2.62,2,2.88,3.84.17.42-.08.6-.42.73A1.67,1.67,0,0,1,38.19,10C37.64,9.3,36.69,8.89,37,7.78Z"/><path class="cls-149" d="M17.75,33.67c1.44,1.76,1.91,3.42-.47,4.81H16.8a3.51,3.51,0,0,1-1-2.89C16.94,35.4,16.49,33.69,17.75,33.67Z"/><path class="cls-150" d="M23.05,23.15c-.51.26-.7,1-1.45.93.15-.48.3-1,.46-1.45a6.11,6.11,0,0,1,0-2.59,1.44,1.44,0,0,1,1.37-1.19,1.54,1.54,0,0,1,1.08.4A3.36,3.36,0,0,1,23.05,23.15Z"/><path class="cls-151" d="M21.59,22.11l-1,0-.24-.24c-.28-.84-.3-1.58.72-1.93a1.19,1.19,0,0,1,.64.15A1.23,1.23,0,0,1,21.59,22.11Z"/><path class="cls-152" d="M18.74,26.14l0-2.06a.67.67,0,0,1,.84-.17l.2.25C19.73,25,19.87,25.88,18.74,26.14Z"/><path class="cls-140" d="M21.59,22.11c0-.63.48-1.24,0-1.87a.66.66,0,0,1,1,0,3.82,3.82,0,0,1-.5,2.39Z"/><path class="cls-152" d="M20.63,22.15c-.11.75.37,1.75-.87,2l-.08-.08c-.24-.45.1-1-.24-1.42.2-.67.55-1,1.21-.49Z"/><path class="cls-151" d="M19.64,23.09c.57.3.1.65,0,1h-1c-2.12-2-1.18-4.42-1-6.74a.65.65,0,0,1,0-.93c1-1.82,1-4.31,3.34-5.3.62-2,2.55-2.18,4.06-2.86.76-.34,1.61-.59,2.41-.92,2.22-.34,4.09.06,5.11,2.33a2.08,2.08,0,0,1-.54,2l-1.42,0c-1.28-1.08-2.45-2.65-4.33-.94-2.15.07-3.42,1.43-4.48,3.1a13.54,13.54,0,0,0-1.69,4A27.08,27.08,0,0,0,19.64,23.09Z"/><path class="cls-153" d="M19.19,8.71c.16-.47.33-1,.49-1.43,1.18-1.86,3.06-1.42,4.79-1.44.78.32,1.8.3,2,1.41a2.14,2.14,0,0,1-1,.86c-1.74.41-3.06,1.79-4.85,2.05h-.48c-.55.29-1,.4-1-.48Z"/><path class="cls-84" d="M20.64,10.16a10.27,10.27,0,0,1,4.79-2.4,1.74,1.74,0,0,1,1.94,0C26.1,9.16,24.05,8.92,22.6,10c-.47.35-1,.73-1.49,1.08Z"/><path class="cls-154" d="M17.77,16.41c0,.31,0,.62,0,.93-1.17-1.14-1.21-1.42-.41-3.68C18,14.57,17.63,15.54,17.77,16.41Z"/><path class="cls-84" d="M19.2,9.68a1,1,0,0,0,1,.48c-.39,1.15-1.24.48-1.91.49A1.58,1.58,0,0,1,19.2,9.68Z"/><path class="cls-155" d="M26.4,7.27c-.41-.79-1.93-.09-1.93-1.43s.63-2,2-1.93,2.51,0,3.76,0c.82.61,1.56,1.33,2.41,1.91h0a.8.8,0,0,1,0,1C30.6,7.15,28.49,7.06,26.4,7.27Z"/><path class="cls-156" d="M32.64,5.84a2.38,2.38,0,0,1-2.41-1.91h1.44Z"/><path class="cls-157" d="M66.73,34.64C69,38.29,70.4,42.4,72.48,46.17a12.67,12.67,0,0,1-.31,1.63c-.22.7.89,1.7-.3,2.08A2.69,2.69,0,0,1,68.64,49c-.72-.42-1.49-.81-1-1.87,1.18-.23,2-.62.93-2-1,.38-.21,1.54-.94,2a.65.65,0,0,1-.91-.05h0c-.71-1.49-.7-3.23-1.65-4.63,2.49-1.53,2.84-2.18,2-4-.32-.7-.69-1.64-1.52-1.66S65,38,64.43,38.48c-1.64.11-.94-1.45-1.51-2.1-.5-.3-.84-.84-1.43-1s-.86.44-1.37.33a2.25,2.25,0,0,1-1.1-2,2.85,2.85,0,0,0-1.28-2.14l-.17-.28c1.4-2,3.1-2.11,4-.13.3.64.71.61,1.1.27,1.59-1.42,1.92-.35,2.28,1A3.13,3.13,0,0,0,66.73,34.64Z"/><path class="cls-158" d="M54.21,14.49c1,4.1.78,8.35,1.51,12.48.28,1.56.11,3.37,1.85,4.34h0a.45.45,0,0,1-.13.68,2.29,2.29,0,0,1-2.33,0c-1.38-1.46-1.3-3.44-1.84-5.2a91.81,91.81,0,0,1-.94-10.85,2.16,2.16,0,0,1,1.15-1.59A.79.79,0,0,1,54.21,14.49Z"/><path class="cls-28" d="M54.21,14.49l-.48-.11a1.69,1.69,0,0,1-1.15-1.5,2,2,0,0,1,.67-1.48,9.56,9.56,0,0,0,2.93-1.93.91.91,0,0,1,.93.19c.33.76-1,1.12-.46,1.94C56.38,13,54.87,13.4,54.21,14.49Z"/><path class="cls-159" d="M61.42,4.38c-.07,1,1.12.84,1.46,1.47A1.19,1.19,0,0,1,63,7.3a2.73,2.73,0,0,1-2.57.46H59c.12-.77.47-1.67-1-1.28A2.84,2.84,0,0,0,56.42,8c-.77.79-1.06,2.38-2.74,1.69.47-2.42,1.1-4.71,4-5.32C58.91,4.26,60.17,3.91,61.42,4.38Z"/><path class="cls-160" d="M60.47,7.76c.67-.79,1.58-.37,2.39-.49.55-.1.52-.81,1-1l1.86,2a6.63,6.63,0,0,1,1,2.39c-.85.27-1.76.34-2.6.64C63.19,11,63,9,61.44,10.15A4.79,4.79,0,0,1,60.47,7.76Z"/><path class="cls-161" d="M56.16,7.75c.82-2.18,1.56-2.42,4.56-1.48C60.51,7.16,59.4,7,59,7.76a2,2,0,0,0-1.93,1.9l-.94,0C55.81,9,56.36,8.39,56.16,7.75Z"/><path class="cls-162" d="M61.44,10.15c0-1.36.44-2,1.62-.73a19.59,19.59,0,0,1,1.25,1.7,1.24,1.24,0,0,1,1.16.54.79.79,0,0,1-.16.92c-.74.57-.9-.52-1.44-.5C63.45,11,62.2,10.85,61.44,10.15Z"/><path class="cls-163" d="M39.85,64.41c1,1.56.4,2-1.23,1.92-.87,0-1.75,0-2.62,0l-.36-.07a10.45,10.45,0,0,1-3.27-3.38C31,61,31.7,59.41,34,59a2.68,2.68,0,0,0,1.3-.47c-1.31-2.27-1-4.2,1-6.15,1-1,.75-3.46,3.29-2.71a3,3,0,0,1,1.27,1.16c-.27,1.26,1.32,2.25.51,3.59-1.62.55-2.81,1.35-2.38,3.4.31,1.48-1.29,3.23.75,4.53A1.33,1.33,0,0,1,39.85,64.41Z"/><path class="cls-164" d="M49.46,65.35l0,6.72c-1.52-1.67-1.85-3.91-2.85-5.84-.7-1.37-.61-1.42-1.77-.26-.22-.84-.44-1.66-.67-2.47a.7.7,0,0,1,.65-.16c.6.1,1.33.4,1.6-.43s-.45-1.06-1-1.34a2,2,0,0,1-.74-.56,2.29,2.29,0,0,1,.78-.42c.87-.1,1.38-.54,1-1.37-.45-1-1.09-.35-1.68,0a7.43,7.43,0,0,1-1.06.39.47.47,0,0,1-.66-.07c-.36-2.11.46-3.76,2-4.14,1.74-.41,3.18.49,3.85,2.4.33,1.32,0,2.8.93,4A3.86,3.86,0,0,1,49.46,65.35Z"/><path class="cls-165" d="M43.2,59.59h.49c.38,2.2-.61,3.43-3.84,4.81,0-.47.09-1.24-.14-1.37-4-2.21-.21-5.58-1.24-8.23-.25-.66.48-1.26,1.19-.62s1.21.41,1.62-.35c.74-.48,1.09,0,1.35.59C42.9,56.14,41.31,58.06,43.2,59.59Z"/><path class="cls-166" d="M39.85,67.26h.94c1-.47,1.93-1.28,2.89,0-.23,2.89,1.14,5.56,1.06,8.48-.06,2.28-.42,3.53-3,3a8.64,8.64,0,0,0-1.9,0l-.28-.12a1.1,1.1,0,0,1-.39-.79,8.23,8.23,0,0,1,.39-1.77.86.86,0,0,1,.44-.4,1.4,1.4,0,0,1,.61.07,14.14,14.14,0,0,0,2.25.83c1.64-1.24,0-2.84.48-4.21-.34.19-.36.76-.88.74a1.18,1.18,0,0,1-.9-1.25c.1-2.37-1.43-2.87-3.35-3-1-.1-2.29.37-2.89-1C36.64,66.24,38.3,67.23,39.85,67.26Z"/><path class="cls-167" d="M39.84,83.6c-3.84-.07-4.78-.83-4.8-3.84a4.22,4.22,0,0,1,4.79,0,7.48,7.48,0,0,1,1.82-.38c.85,0,1.18.81,1.29,1.49.17,1.06-.76.83-1.28.78C40.15,81.52,39.67,82.22,39.84,83.6Z"/><path class="cls-69" d="M39.85,67.26c-1.41.46-3.21-.92-4.3.95a1.92,1.92,0,0,1-.33.55c-.94,3.09-.16,5.14,2.21,5.8a9.22,9.22,0,0,1,2.35.7.45.45,0,0,1,.06.64V76a3.2,3.2,0,0,1-3.83-.1c-1.73-.61-2.29-1.87-2.45-3.65-.19-2.12-.41-4.14,1-5.94a1,1,0,0,1,.54-.33,1.36,1.36,0,0,1,.91.31v0C37.09,67.44,38.76,66.16,39.85,67.26Z"/><path class="cls-168" d="M44.64,61a4.91,4.91,0,0,1,1.6.14A1.54,1.54,0,0,1,47,63.48c-.9,1.68-1.91.59-2.88,0A3.47,3.47,0,0,1,44.64,61Z"/><path class="cls-169" d="M51.31,79.28c0,.8,0,1.6,0,2.4-1.58.58-1.91-.3-1.92-1.61s-.06-2.34,1-3.19h0C50.77,77.66,51,78.49,51.31,79.28Z"/><path class="cls-170" d="M39.83,79.76H35c-.85-1.23.09-1.55,1-1.89l1,.46a2.9,2.9,0,0,1,2.86.48h0Z"/><path class="cls-167" d="M39.86,84.55l0-1a15.08,15.08,0,0,0,3-.24c.51-.14.76-.41,1,.22s-.06.77-.58,1C42.13,85.05,41,84.63,39.86,84.55Z"/><path class="cls-69" d="M43.68,67.28c-1-.78-1.93.17-2.89,0C41.76,65.84,42.73,65.75,43.68,67.28Z"/><path class="cls-171" d="M57.6,4.87c-2.66.5-2.42,3.29-3.8,4.8.42.59.18,1.07-.27,1.5-1.13.89-1.22,2.29-1.75,3.48-.25.67-.11,1.69-1.15,1.71-.65,0-.67-.71-.8-1.21A9.08,9.08,0,0,1,50,12a7.67,7.67,0,0,0,1.84-4.68c.6-.69.21-1.77,1-2.4,1.67.69.57-1.34,1.43-1.44V3l1-1.4L58.06,1c.52.06,1.1-.09,1.45.48-.74.89-2.1.57-2.87,1.48C56.56,3.81,58,3.87,57.6,4.87Z"/><path class="cls-172" d="M57.6,4.87a1.06,1.06,0,0,1-.11-.21c-.28-1.08-2.25-.28-2-1.44.31-1.38,1.9-1.39,3.09-1.68a4.77,4.77,0,0,1,.93,0c1.45.41,1,2.06,1.91,2.87A9,9,0,0,1,57.6,4.87Z"/><path class="cls-173" d="M63.84,2.14c.16.59.31,1.18.47,1.77L63.8,4a.28.28,0,0,1-.44,0c-.16-.62-.33-1.23-.5-1.85Z"/><path class="cls-174" d="M63.88,6.3c-.22.45.38,1.76-1,1,0-.47,0-.94,0-1.42A1,1,0,0,1,63.88,6.3Z"/><path class="cls-175" d="M63.36,3.91a3.27,3.27,0,0,0,.44,0c0,.43-.07.82-.56.88-.15,0-.33-.19-.5-.3Z"/><path class="cls-176" d="M50.42,11.6l0,3.84c-1.26,1.27.16,2.35.23,3.53a2.47,2.47,0,0,1-.86,1.11c-.84.57-.49,2.6-2,2.09-1.23-.41-.73-1.9-.84-3,0-.23,0-.47,0-.7A6.3,6.3,0,0,1,47,17.36c.36-1.34.57-2.75,1.59-3.81,1.39-1.4.72-3.19.92-4.82.63,0,.91.35.94.95A1.38,1.38,0,0,1,50.42,11.6Z"/><path class="cls-177" d="M50.42,11.6c0-.64,0-1.28,0-1.92.9-.55.67-1.77,1.43-2.41A3.53,3.53,0,0,1,50.42,11.6Z"/><path class="cls-178" d="M54.23,3.43c-.11,1.05.32,2.18-.31,3.16-1.13-.2-.61-1.26-1.12-1.72A1.36,1.36,0,0,1,54.23,3.43Z"/><path class="cls-179" d="M45.13,17.36v1.89c-1,.86-2.23.81-3.36,1.18-.73-.08-1.05-.61-1.32-1.2a5.74,5.74,0,0,1-.27-1.84,11.56,11.56,0,0,1,.12-2.2,2.2,2.2,0,0,1,.3-.64c.87.1.85-.79,1.3-1.15,1.44,1.19,1.15,3.39,2.46,4.17a1,1,0,0,1,.26-1.16A1,1,0,0,1,45.13,17.36Z"/><path class="cls-180" d="M44.62,16.41v1.42c-2.35-.61-2.15-2.76-2.84-4.33-1-.3-1.45-.86-1.1-1.91a.39.39,0,0,1,.61,0,3.06,3.06,0,0,1,.45.06Z"/><path class="cls-181" d="M41.29,11.58l-.54.05c-1.38.39-1.52-.42-1.41-1.47l.51-.5C41.65,9.31,40.37,11.27,41.29,11.58Z"/><path class="cls-182" d="M47.45,17.36l0,.9c-.4.75-.09,1.56-.22,2.32s-.18,1.81-1.42,1.79a1.09,1.09,0,0,1-.7-.8c-.14-.81-.57-1.68.43-2.26a3.5,3.5,0,0,1,.94-2.48A3.79,3.79,0,0,1,47.45,17.36Z"/><path class="cls-183" d="M47.45,17.36c-.62.36-.91.14-.94-.53-.06-1.92,1.15-3.37,2-5v1.72A10,10,0,0,1,47.45,17.36Z"/><path class="cls-184" d="M45.57,19.31c-.49.62.07,1.27,0,1.9-.41.95-1.64-.68-1.95.62a2.23,2.23,0,0,1-1.94-.56.84.84,0,0,1,.08-1c.9-1.12,2.18-1,3.4-1A3.11,3.11,0,0,1,45.57,19.31Z"/><path class="cls-185" d="M60.47,35.59a.85.85,0,0,1,1-.93,1.36,1.36,0,0,1,0,1.89h0c-1.53,2.3-.55,3.92,1.42,5.28a40.6,40.6,0,0,0,.5,8.17c.34,3.08-1.78,5.23-2.91,7.76C58.67,56.54,59,54.71,59.4,53.1a18.73,18.73,0,0,0-.58-10.52A6.51,6.51,0,0,1,60.47,35.59Z"/><path class="cls-186" d="M60.48,57.68a3.77,3.77,0,0,1,.88-3.07,8.87,8.87,0,0,0,2-4.6c.88,1.73-.26,3.6.42,5.39a5.72,5.72,0,0,0,1,2.31c1,2.41.44,4.9.36,7.36-.54.78-1.06.58-1.55,0-.12-.09,0-.37-.24-.39s.13-.1,0,.2a1.25,1.25,0,0,1-.45.71,1.3,1.3,0,0,1-1.31,0c.14-2.34.24-4.68-.82-6.88A2,2,0,0,1,60.48,57.68Z"/><path class="cls-187" d="M64.78,65.33c0-2.54,0-5.08,0-7.62.4-.94-.74-2.39,1-2.9,0,.6.07,1.2.1,1.8,0,3.06,0,6.13-.07,9.19,0,.83.3,1.76-.48,2.45-.75.06-.84-.51-1-1A2.29,2.29,0,0,1,64.78,65.33Z"/><path class="cls-188" d="M62.89,36.07c.75.64.52,1.86,1.42,2.41.9,1.13,1.6,2.32,1,3.83.94,1.47,1.81,2.95,1.43,4.81h-.48c-.66-.52-1-1.1-.48-1.92-1.05-2.85-2.53-5.55-2.9-8.62a.3.3,0,0,1-.1-.35C62.8,36.12,62.85,36.07,62.89,36.07Z"/><path class="cls-188" d="M67.67,47.13c.33.63.65,1.27,1,1.91.09.75-.32,1.76,1,1.92a1.35,1.35,0,0,1,0,1.95c-2.2-1.31-1.86-3.88-2.85-5.79h1Z"/><path class="cls-189" d="M65.76,45.2l.48,1.92c-.13,1-.82,1.15-1.52.76a1.73,1.73,0,0,1-.82-1.82C64.06,44.87,65.05,45.3,65.76,45.2Z"/><path class="cls-190" d="M62.86,41.84c-3.11-1.38-3.4-2.43-1.42-5.28C60.54,38.69,62.12,40.15,62.86,41.84Z"/><path class="cls-157" d="M69.57,52.91l0-1.95c1.59,1.23,1.46,2.51.09,3.81Z"/><path class="cls-190" d="M62.89,36.07l0,.51-1.42,0c0-.63,0-1.26,0-1.89C62.41,34.63,62.53,35.47,62.89,36.07Z"/><path class="cls-191" d="M66.72,51.92l-1-.49c0-.44-.1-1.2.33-1.16C67.08,50.38,66.58,51.33,66.72,51.92Z"/><path class="cls-108" d="M70.6,57.6a1,1,0,0,1,1,1C70.49,59,70.67,58.17,70.6,57.6Z"/><path class="cls-192" d="M60.47,76.89H59c-1.7,1-2.62-.07-3.44-1.31a5.24,5.24,0,0,1-1-3.33,2.64,2.64,0,0,1,.3-1.07c1.51-1.79,1.54-2.94.12-5.35a.82.82,0,0,1,.21-.67,2.37,2.37,0,0,1,1-.4,20.21,20.21,0,0,1,3.81,0,2,2,0,0,1,.67.25c.24.86,1.93,1.08,1.08,2.43a1.83,1.83,0,0,1-.63.3,2.56,2.56,0,0,1-.95.11c-2-.25-2.78.56-2.53,2.54a5.35,5.35,0,0,1-.16,2.14c-.61,2.15-.32,2.59,1.49,2.19a1.69,1.69,0,0,1,1-.11c.74.25,1.56.36,1.87,1.25l-.48,1A.69.69,0,0,1,60.47,76.89Z"/><path class="cls-193" d="M57.13,73c0-.47,0-.94,0-1.41.08-5-.77-4.31,4.31-4.33a4.13,4.13,0,0,0,1.83.8,1.24,1.24,0,0,1,.5.34c.59.95,1.72,1.51,2,2.69,0,.47,0,.94,0,1.4.1,1.47,0,2.71-2,2.47-.77-.1-1.2.67-1.84.92L60,75a8.9,8.9,0,0,1,3.61-1.73,19.31,19.31,0,0,0-2.54-3.83,1.63,1.63,0,0,0-1.92-.57c-.85.29-.9,1-.91,1.75s.48,1.73-.13,2.56A.83.83,0,0,1,57.13,73Z"/><path class="cls-194" d="M65.76,71.12c-.77-1-2.46-1.2-2.4-2.88.32-.54.59-1.17,1.43-.95a1,1,0,0,0,.48,1C65.74,69.15,66.37,70,65.76,71.12Z"/><path class="cls-195" d="M60.47,76.89h1c.49.29.69,1,1.44,1C61.94,79.07,61.64,79,60.47,76.89Z"/><path class="cls-116" d="M72.94,59.61a2.16,2.16,0,0,1,1.45,1.92C73.29,61.35,73.13,60.47,72.94,59.61Z"/><path class="cls-196" d="M55.19,72.08c.28,3.36,1.24,4.56,3.84,4.82,1.7,2.56,1.52,2.78-3.6,4.21.48,1,1.47.3,2.2.77a5.29,5.29,0,0,1-4.36-.2c0-.31,0-.61,0-.92-.57-1.24.2-2.65-.46-3.88h0c-.49-1.38-.15-2.82-.27-4.23A1.68,1.68,0,0,1,54,71C54.88,70.72,54.86,71.61,55.19,72.08Z"/><path class="cls-197" d="M55.19,72.08c-1.86-1.68-2.11.12-2.33,1.23a19.29,19.29,0,0,0-.07,3.57,72.19,72.19,0,0,1-1.47-13.44,84.75,84.75,0,0,1-1.58-10.26,16,16,0,0,0-.27-3.08c0-2.61-1.62-5-.87-7.72a3.12,3.12,0,0,0,.47-2.73,21.51,21.51,0,0,1-.29-5,8.7,8.7,0,0,1,.28-3.22c.37-.84.83-.87,1.16.07a3.76,3.76,0,0,1,.29,3.72,3.39,3.39,0,0,0-.22-3.63,13.85,13.85,0,0,0-2.2-4.89c-.87-2.71.73-5,1.42-7.37a.91.91,0,0,0,.88-.53,1,1,0,0,1,.62-.28c.85.18,1.68.53,1.27,1.56-1,2.62.16,5.22-.1,7.81.15,1.17-.48,2.34,0,3.5.47,1,.8,2,1.27,2.94a3.56,3.56,0,0,1,.23.62,5.6,5.6,0,0,1,.14,1c-.17,1.05.49,2.52-1.41,2.73-.48,0-.35.63-.43,1-.59,2.73-.93,5.46,0,8.18a3.64,3.64,0,0,1-.29,3.41c1.07.31,1.64-1,2.57-.45C56.06,52.34,56,54.11,55,56c-.45.9-1.15,1.74.17,2.67.72.51.45,1.37-.2,2.08-1.61,1.73-1.53,2.74.18,4.58v.48a5,5,0,0,1,.06,5.28Z"/><path class="cls-198" d="M49.93,50c.51,4.48,1.7,8.9,1.39,13.46h-.43c-.81-.76-.59-1.78-.66-2.71a3.42,3.42,0,0,0-1.06-2.58,2.08,2.08,0,0,1-.43-.59A34.32,34.32,0,0,0,47,51.2a1.91,1.91,0,0,1,.22-1c1.37-.69,1.25.83,1.87,1.27.3-.37.26-.88.55-1.26Z"/><path class="cls-199" d="M49.4,57.69c1.64.5,1.32,1.94,1.46,3.12.09.87,0,1.75,0,2.63s.12,2.07-1.43,1.91c0-1.29-.05-2.58-.08-3.87A4.06,4.06,0,0,1,49.4,57.69Z"/><path class="cls-200" d="M50.4,75c.14-.55-.27-1.25.59-1.75a2.09,2.09,0,0,1,.15,2.26L50.4,75Z"/><path class="cls-197" d="M52.79,76.88c1,1.2.3,2.59.46,3.88C52.35,79.55,53,78.17,52.79,76.88Z"/><path class="cls-94" d="M51.31,79.28a2.92,2.92,0,0,1-.91-2.4A2.57,2.57,0,0,1,51.31,79.28Z"/><path class="cls-201" d="M65.31,12.58l-.15-1a1.22,1.22,0,0,1,1.61-.07c1.25.14.66,1.49,1.33,2,0,.83.32,1.69-.24,2.62C66.45,15.31,66.6,13.4,65.31,12.58Z"/><path class="cls-202" d="M66.77,11.54l-1.61.07a.88.88,0,0,1-.85-.49c.6-1.22,1.48-1,2.42-.47C66.74,10.94,66.76,11.24,66.77,11.54Z"/><path class="cls-65" d="M13.92,52.4a1.45,1.45,0,0,1-1,1.44C12.11,52.58,13.21,52.62,13.92,52.4Z"/><path class="cls-203" d="M74.18,58.09a.66.66,0,0,1,.78-.36c.29,0,.7.06.59.51s-.44.4-.76.36S74.14,58.54,74.18,58.09Z"/><path class="cls-92" d="M36,75.92l3.83.1c0,.66.22,1.4-.53,1.86a1.92,1.92,0,0,1-2.34,0l-1-.95C36,76.57,36,76.25,36,75.92Z"/><path class="cls-94" d="M37,77.85l2.35,0,.51.93A4.89,4.89,0,0,1,37,78.32Z"/><path class="cls-167" d="M36,77.87c-.56.51-1.15,1-1,1.89-.82-.09-1.1-.6-.85-1.31C34.52,77.54,35.36,77.93,36,77.87Z"/><path class="cls-204" d="M35.05,66.3l-.5,0c-.68,0-1.37,0-1.44-.94l0-.08C34.17,64.88,34.84,65.15,35.05,66.3Z"/><path class="cls-205" d="M35.05,66.3a3.12,3.12,0,0,0-1.92-1,2.27,2.27,0,0,0-.84-1.87A3.33,3.33,0,0,1,31.43,60c1.58-3.19.55-6.37,0-9.37-.38-2.21,1.11-3.79.83-5.78-.06-.4.64-.67.91-.42.9.85,2.52.39,3.14,1.89-.09-2,2.29-2.27,2.55-4a.82.82,0,0,1,1-.15,1.49,1.49,0,0,1,.39.56,6.73,6.73,0,0,1,.22,1.73c0,.83,0,1.65,0,2.48,0,1.07.32,2.2-.66,3.06-1.4-.14-2.5-.06-2.52,1.86A2,2,0,0,1,35.74,54c-1,.27-1,2.8-.22,3.53.34.33,1.41,0,1,.89a2,2,0,0,1-1.66,1.21c-.92.14-2.22-.63-2.68.83-.51,1.67.64,2.83,1.7,3.67A9.41,9.41,0,0,1,36,66.31Z"/><path class="cls-206" d="M39.84,42.32H35.55c.7-2.85.23-3.45-3.62-4.16,2-.3,1.35-1.26,1.19-2.09l1-1a1,1,0,0,1,.89.13c2.29,1,2.53.95,3.39-1.35a3.34,3.34,0,0,1,.41-.85,2,2,0,0,1,1.9-.54,22.87,22.87,0,0,0,2.65,3.16,18.08,18.08,0,0,0-.5,3.8c-1.23-.25-1.77.31-1.77,1.49C41.05,41.78,40.73,42.3,39.84,42.32Z"/><path class="cls-207" d="M23.05,23.15l1.41-3.88.09-.27A5.73,5.73,0,0,0,25,18a2.6,2.6,0,0,1,.64-1,6.55,6.55,0,0,0,1.5-2.7l.22-.23c2.63,1.07,2.6,1.06,1.15,3.54a5.14,5.14,0,0,0-1,3.55c.29,2-.53,2.37-2.67,1.27-.08,2.36-1.65,3.95-2.89,6.28-.43-1.51-.73-2.49.42-3.31C23.17,24.78,23,23.93,23.05,23.15Z"/><path class="cls-208" d="M25.91,17.35a1,1,0,0,0-.48,1c-.32.31-1.29,0-.92,1l-.05,0h-1a1.29,1.29,0,0,1-.14-1.67c-.71.43-.53,1.93-1.9,1.63a2.21,2.21,0,0,1-.31-1.68,4.4,4.4,0,0,1,1-1.83c.91-.93,1.28-2.41,2.78-2.73.4.52.81.48,1-.1.38-1,1.14-1.55,1.94-1,1.07.79-.4,1.34-.53,2.07h0C26.77,15.07,26.71,16.37,25.91,17.35Z"/><path class="cls-209" d="M24.91,13c-.78,1-1.57,2-2.35,2.95-2.06-.09-.87-1.51-1-2.39.49-2.12,2.43-2.68,4-3.63.59-.37.76.24.84.72C26.07,11.52,25,11.93,24.91,13Z"/><path class="cls-210" d="M32.15,11.62l0-2c1-.63,2-.07,3,.05a1.51,1.51,0,0,1,.3.92c-.16,1.27-1.53,1.74-1.89,2.88l-.47.49C32.81,13.21,32.48,12.42,32.15,11.62Z"/><path class="cls-74" d="M21.6,32.72a4.15,4.15,0,0,1-.23.89c-.24.47-.41,1.08-1.16.9-.37-.08-.46-.39-.49-.71,0-.82.45-1.08,1.18-1.08Z"/><path class="cls-211" d="M43.23,35.63c-1.55-.35-2.52-1.18-2.44-2.9-.6-1.21-1.83-1.14-2.89-1.45a1.09,1.09,0,0,1,0-.44c-.1-1.67,1.48-2.64,1.73-4.17a2.06,2.06,0,0,1,2,.1c.68.52.66,1.41,1.22,2.21a8,8,0,0,0,.2-2.28c.24-2.07.79-2.33,2.75-1.3a2.76,2.76,0,0,1,.36.65c.87,2.08.23,4.38.92,6.49a3.46,3.46,0,0,1-2.24,3.86A1.33,1.33,0,0,1,43.23,35.63Z"/><path class="cls-212" d="M39.36,27c1.38,2-1.34,2.45-1.46,3.88-.86-2-.21-4.19-.49-6.27a4.32,4.32,0,0,1,1.53-5c.61-.53,1.14-.86,1.86-.3l.93,1,.06.91c1.35.55,2.13,1.88,3.42,2.52.7.5,1,1.08.35,1.83-1.22-.71-1.93-.56-1.89,1.05,0,1.3,0,2.61,0,4.43a4.58,4.58,0,0,1-1.92-4c0-.11.05-.22.07-.33A3.06,3.06,0,0,0,42,24.57a2.29,2.29,0,0,0-2.13-1.47c-1.06,0-.24,1.08-.37,1.67s0,1.24-.07,1.86Z"/><path class="cls-213" d="M40.8,19.27a5.58,5.58,0,0,0-3.39,5.3,32.18,32.18,0,0,1-1-9.12l.53,0,.24.23c.36.25.36,1.07.41,1,1.83-3,2.43-.82,3.18.72Z"/><path class="cls-214" d="M38.86,33.21c.07,1.29,0,2.65-1.34,3.23-1.44.65-2.51-.31-3.44-1.33,0-.93-.17-1.92.93-2.43.56.46.29,1.18.54,1.74a1,1,0,0,0,1.06.72.75.75,0,0,0,.66-.57c.17-.56-.14-.89-.61-1.09s-1.23-.26-1.66-.79l1-.92a.32.32,0,0,1,.46-.08l1.41.53A1.11,1.11,0,0,1,38.86,33.21Z"/><path class="cls-215" d="M36.46,31.69a3.69,3.69,0,0,1-.46.08L33.68,32c.56-1.28.1-2.67,1-3.75,1.08.59.42,1.92,1.32,2.49Z"/><path class="cls-212" d="M38.86,33.21l-1-1,0-.94c1.54-.66,2.68-.52,2.89,1.45Z"/><path class="cls-216" d="M33.6,13.51c-1.22-1.81,1.31-1.73,1.45-2.86a.91.91,0,0,1,1-.19c1.28,1,2.94,1.77,3.14,3.73C39,15.52,38.12,15.76,37,15.43h0C36.68,12.9,36.47,12.78,33.6,13.51Z"/><path class="cls-156" d="M36,10.61l-.94,0c0-.32,0-.64,0-1-1-.81-2.71-1-2.4-2.88v-1c.55,0,1.2-.07,1.42.57.52,1.47,1.7,1.4,2.89,1.37L38.41,9.7c.32.59.78,1.14.58,1.89-.56.45-1,.2-1.4-.25A1.61,1.61,0,0,0,36,10.61Z"/><path class="cls-217" d="M38.88,11.6a3,3,0,0,1-.47-1.9l.93.46c.38.58.5,1.4,1.41,1.47,0,.8.69,1.25,1,1.87-.08.57.26,1.55-1,1A3,3,0,0,1,38.88,11.6Z"/><path class="cls-218" d="M21.6,19.27c.74-.52.45-1.9,1.7-2,.41.64.14,1.34.17,2a.85.85,0,0,0-.91,1h-1A.68.68,0,0,1,21.6,19.27Z"/><path class="cls-219" d="M21.6,19.27c0,.32,0,.64,0,1-1.24.19-.85,1.18-.94,1.93-.67-.05-1,.28-1,.92-.91-1.92-.43-3.83.06-5.73a1.85,1.85,0,0,1,1.89,0Z"/><path class="cls-220" d="M32.64,6.81c.52,1.19,2,1.62,2.4,2.88-1,1.67-1.91-.43-2.87,0-1.1-1.88-2.93-2-4.8-1.89H25.43a1,1,0,0,1,1-.49A7.38,7.38,0,0,1,32.64,6.81Z"/><path class="cls-221" d="M21.59,17.39a1.59,1.59,0,0,1-1.89,0,8.9,8.9,0,0,1,1.88-3.82c.83.6-.51,2.07,1,2.4Z"/><path class="cls-222" d="M60.47,65.33H56.16a2.91,2.91,0,0,1,1.21-3.92c1.66-.87,1.37-1.83,1.12-3.11a5.29,5.29,0,0,0-1.14-2.85C55,53.06,55,50.21,55.69,47.24a20.51,20.51,0,0,0,.38-5.94c-.12-1.58-.43-3,1.32-3.89.39-.2.5-.79.44-1.3a3.53,3.53,0,0,1-.11-.65,8,8,0,0,0-.16-3.74c0-.14,0-.28,0-.41,1.24.1,2,.58,2,2a2.59,2.59,0,0,0,.94,2.27c-.57,2-2.25,4-1.28,6.13a13.14,13.14,0,0,1,1.08,4.44c.22,2.43.73,4.81-.29,7.23-.61,1.42-.13,2.91.5,4.29l.48.48C61.18,60.57,61.54,63,60.47,65.33Z"/><path class="cls-223" d="M65.29,42.31c-.32-1.27-.65-2.55-1-3.83a8.72,8.72,0,0,1,.22-2.12c.23-.68,1-1,1.51-.43a6.67,6.67,0,0,1,2.09,5.22C67.92,43.16,66.27,42,65.29,42.31Z"/><path class="cls-224" d="M67.67,47.12c-.12-.45-.28-.91-.37-1.37-.16-.8-.07-1.44,1-1.49s1.34.32,1.33,1.24c0,.63,0,1.27,0,2.1-.7-.05-1.24-.72-1.92-.47Z"/><path class="cls-225" d="M51.84,27.92a1.63,1.63,0,0,1-.43-2c1-2-1.32-4.22.48-6.21.42-.47-.66-.65-1-1a3.39,3.39,0,0,1,1.93-3.29l1,11.46-.2.24A8.35,8.35,0,0,1,51.84,27.92Z"/><path class="cls-222" d="M53.27,34.63c-1-.72-.85-2-1.43-2.87,2-1,.95-3.32,1.9-4.78l0,0c.49,1.6,1,3.2,1.48,4.81.11,1.83.54,3.42,2.72,3.75l.11.13c-.84,2.66-1.71,3.28-4,2.88-.64-.86.1-2.1-.79-2.91v-1c.22-.23,0,.1.16-.17C53.49,34.42,53.42,34.46,53.27,34.63Z"/><path class="cls-226" d="M58,35.5c-3.21.26-3.72-.44-2.72-3.75l2.3,0C59.39,32.79,58.45,34.17,58,35.5Z"/><path class="cls-227" d="M52.78,15.48c-.64,1.1-1.28,2.2-1.93,3.3h-.46c-1-1.11-2.41-2.22,0-3.35l.24.63c.16-.12.44-.22.46-.36.07-.42-.33-.92.25-1.23S52,13.23,52.8,13l.93,1.34Z"/><path class="cls-228" d="M53.28,11.11c.17-.48.34-1,.52-1.44,1.37.08,1.32-1.59,2.36-1.92,1.6.64-.09,1.29,0,1.94a2.5,2.5,0,0,1-2.89,1.92q-.22-.16-.15-.33C53.18,11.17,53.23,11.11,53.28,11.11Z"/><path class="cls-229" d="M53.28,11.11v.5L52.8,13c-.35.61-.49,1.46-1.47,1.44C51.72,13.2,52.06,11.91,53.28,11.11Z"/><path class="cls-94" d="M39.83,50c0-1,.4-1.93,0-2.9.45-.61.73-2.32,1.6-.27.45,1.07,1.41,1.82,1.77,2.93a2,2,0,0,0,2.19.31c.83-.81.33-1.76.33-2.66s.16-1.8,1.47-1.26a2.59,2.59,0,0,1,.45,1.41c.34,1.14-.68,2.22-.17,3.37.89,2.15,1.86,4.28,1.5,6.71a.32.32,0,0,1-.52,0,2.74,2.74,0,0,0-3.11-1.78c-1.87.27-2.18,2-2.16,3.69-1.46-.26-2.08-1-1.5-2.5a18.66,18.66,0,0,0,.55-2.29c1.9-2.18-.66-2.68-1.45-3.84A.87.87,0,0,1,39.83,50Z"/><path class="cls-230" d="M40.8,51c1.86-.1,2.45,1.48,3,2.68.35.77-.67,1.23-1.56,1.16a.89.89,0,0,0-1-1c-.6-.24.31-1.06-.7-1.37C38.91,51.94,40.74,51.49,40.8,51Z"/><path class="cls-231" d="M48.47,57.68l.52,0,.41,0c0,1.26,0,2.53,0,3.79C47.55,60.58,48.88,58.92,48.47,57.68Z"/><path class="cls-232" d="M37.41,75c-1-.12-2.81.36-2.68-1.13.17-1.87-2-3.91.31-5.6,1.36.57,2.81.37,4.23.52,2,.23,2.41.85,2,3.07-.36.75-1.43.54-1.87,1.4.83.77,2.57.52,2.64,2.16-.32,1-1,.94-1.73.54a1.71,1.71,0,0,1-.45,0c0-.14,0-.29,0-.44C39.12,74.83,38.14,75.51,37.41,75Z"/><path class="cls-94" d="M40.8,72.08c.54-2.56.34-2.84-2.26-2.87a5.43,5.43,0,0,1-3.5-1l.51,0c.87,0,1.75,0,2.62.06,3.2.12,3.75.67,3.85,3.9,0,.48.32.69.69.88a3,3,0,0,1,0,3.81c-.93,0-1.9.14-2.42-.92.68,0,1.43,0,1.47-1C41.38,74,40,73.42,40.8,72.08Z"/><path class="cls-233" d="M42.71,76.86V73.05a2.11,2.11,0,0,1,.81-1.6,19.49,19.49,0,0,1,.63,5.32c0,.51-.14,1-.79,1S42.79,77.25,42.71,76.86Z"/><path class="cls-234" d="M37.41,75c.82.09,1.75-.36,2.42.48C39,75.33,38.1,75.72,37.41,75Z"/><path class="cls-235" d="M46.57,32.71c-.9-2.17-.11-4.56-.88-6.74a2,2,0,0,0,0-2.41c-.29-.46-.57-1,0-1.48,2.22-.5.7-2.79,1.82-3.82v4.16c1.35-1.16.91-2.63,2-3.1-.25,2.56-1.43,5-1,7.65.83,2.44.26,5,.46,7.45a5.24,5.24,0,0,1-.2,1.93c-.38.56-.86.35-1.32.16C46,35.51,47.37,33.86,46.57,32.71Z"/><path class="cls-236" d="M38.88,11.6c.65,1,1.29,1.91,1.94,2.87,0,.16,0,.32,0,.48-1.15.74-1.31-.52-1.89-.94-.47-1.56-2.41-1.85-2.9-3.39.41-1.38,1.11-1.06,1.73-.23C38.06,10.86,38.06,11.61,38.88,11.6Z"/><path class="cls-146" d="M38.89,14l1.89.94c0,.81,0,1.61,0,2.41-.08,0-.19,0-.23,0-1.71-1.85-1.85-1.82-3,.54A2.87,2.87,0,0,1,37,15.43C37.57,14.91,38.79,15.23,38.89,14Z"/><path class="cls-237" d="M45.66,22.08c.05,1.3,2.29,2.57,0,3.89,0-.15-.09-.3-.13-.45,0-.69,0-1.36-.9-1.46-.57-.69-1.24-1.34-1-2.38.09-2.28,1.39.3,1.86-.47Z"/><path class="cls-238" d="M43.68,21.68c.33.8.65,1.59,1,2.38a8.19,8.19,0,0,1-2.87-2.89A3.35,3.35,0,0,1,43.68,21.68Z"/><path class="cls-185" d="M60.47,65.33c0-2.4-.33-4.83.49-7.17,1,2.33,2.38,4.64.48,7.17a.31.31,0,0,1-.47.06Z"/><path class="cls-192" d="M64.79,67.29c-.49.3-.69,1-1.43.95h0a2.17,2.17,0,0,1-.87-1.17,1.79,1.79,0,0,1,.39-1.74V64.4a.64.64,0,0,1,.95,0c0,.6.31.95,1,.93C64.78,66,64.78,66.64,64.79,67.29Z"/><path class="cls-106" d="M63.08,56c.9,1.75.27,3.33,0,4.91C63.3,59.34,62.13,57.77,63.08,56Z"/><path class="cls-239" d="M62.88,65.33v1.93a.63.63,0,0,1-.94,0c.37-1-1.71-.71-1-1.88a3.78,3.78,0,0,0,.47-.06Z"/><path class="cls-106" d="M63.83,64.4h-.95c0-.58-.13-1.22.39-1.72C64.11,63.13,63.73,63.84,63.83,64.4Z"/><path class="cls-240" d="M54.24,38.48c1.35-.29,3.1,0,2.92-2.31,0-.16.61-.36.93-.54,1.45,1.51,0,2.21-.94,2.8-.56.33-.86.42-.7,1.16.63,3.07.06,6-.43,9.11-.29,1.83-.61,4.19,1.45,5.82,1.84,1.46,1.62,3.83,2,5.9.07.39-.07.91-.52.95-2.48.25-2.21,2.41-2.81,4l-1,0c-.83,0-2.15.14-1.8-1.12s-1.66-3.41,1.22-3.85c.54-.08.57-.48.55-.88s-.09-.7-.5-.67c-2.63.21-1-1.39-.67-1.95,1.23-2,1.55-3.88.26-5.92a14.92,14.92,0,0,0-.3-5.83C53.5,43,53.16,40.65,54.24,38.48Z"/><path class="cls-241" d="M58.06,73.06a27.31,27.31,0,0,1-.44-2.81c0-.8-.31-1.77,1-2,1.14-.23,2-.42,2.94.7,1.23,1.5,1.67,3.57,3.54,4.73C63.21,73.55,61.8,75,60,75l-.94,0C58.15,74.6,57.54,74.13,58.06,73.06Z"/><path class="cls-107" d="M55.25,71.11l-.06-5.28c2.15.69,1.29,2.5,1.44,3.93C56.74,70.76,56.22,71.18,55.25,71.11Z"/><path class="cls-107" d="M58.06,73.06c0,.81.68,1.23,1,1.86,0,.34.42.82-.2,1a1.57,1.57,0,0,1-2.05-1.11c-.2-.61-1.23-1.45.33-1.74Z"/><path class="cls-194" d="M61.93,67.27h.94a1,1,0,0,1,.49,1c-1.46,1.33-1.26-.69-1.93-.95Z"/><path class="cls-197" d="M53.43,76c-.12-1.28-.42-2,.39-2.79C54.52,74.08,54.09,74.75,53.43,76Z"/><path class="cls-242" d="M54.24,38.48a64,64,0,0,0,.93,10.42c.11.76.39,1.84-.93,2.06-.65,0-.91.56-1.35.86s-.66,1.13-1.32.67-1-1.21-.61-1.67c1.66-2.26,0-4.3-.28-6.41s1.06-4,1-6.07c2.1,0,1.51-1.56,1.59-2.74C55,36.09,53.91,37.52,54.24,38.48Z"/><path class="cls-243" d="M48.51,34.65c.05-2.56-.7-5.12,0-7.68,2.14,1,1.87,3,1.9,4.79h0c-.32,0-.79-1.24-.94.07a26.5,26.5,0,0,0,0,2.82A.62.62,0,0,1,48.51,34.65Z"/><path class="cls-244" d="M53.74,27a5.8,5.8,0,0,0,.06,1.87c.72,1.95-.13,2.73-2,2.91-1.1-1.28-.17-2.56,0-3.84S53,27,53.74,27Z"/><path class="cls-245" d="M48.51,34.65h.92a23.93,23.93,0,0,0,.42,5.65c.21.74.4,1.82-.91,2.05a.58.58,0,0,1-.75-.26c-.49-1.86-.75-3.72.21-5.54C48.44,35.92,48.47,35.28,48.51,34.65Z"/><path class="cls-246" d="M48.52,42.27l.42.08c-.26,2.62,1.28,5,1,7.63l0,.05C47.92,48.73,47.23,44.87,48.52,42.27Z"/><path class="cls-247" d="M50.4,31.76c1.85,1.29,1,2.77,0,4.87V31.76Z"/><path class="cls-248" d="M48.52,42.27c0,2.66-.13,5.36,1.39,7.76a3.17,3.17,0,0,1-.69,2.52L47.52,50c-.55-.74.08-1.7-.45-2.45V46.16c-1.07-3.41-.36-6.74.43-10.07l.91.46Z"/><path class="cls-249" d="M47.07,47.55c.72.71.29,1.64.45,2.45l0,.94C46.63,49.9,47.2,48.69,47.07,47.55Z"/><path class="cls-249" d="M47.49,36.09c-.14,3.36-.29,6.71-.43,10.07-1.31.18-.8,1-.66,1.74.2,1.11.64,2.38-.89,3a2.25,2.25,0,0,1-.12-.21c-.38-.86.53-2.4-1-2.57s-.85,1.65-1.59,2.3c-.16-1.64-2.58-2.1-1.76-4.41l-1.21,1.08V44.24c.32-.64.64-1.28,0-1.91h0c1-1.35.67-3.08,1.29-4.58.94.24.38,1.89,1.68,1.65a4,4,0,0,0,1.75-3.26c1.33-.75,2.23-1.76,2-3.42C47.62,33.63,46.79,35.07,47.49,36.09Z"/><path class="cls-139" d="M39.84,42.33c1.68.62.35,1.27,0,1.91C39.84,43.6,39.84,43,39.84,42.33Z"/><path class="cls-250" d="M44.56,36.13c.77,1.82.58,3.12-1.75,3.26-.91-1.37-1-2.66.42-3.76Z"/><path class="cls-140" d="M25.91,17.35c.35-1.17.47-2.44,1.45-3.35A3.29,3.29,0,0,1,25.91,17.35Z"/><path class="cls-140" d="M24.51,19.29c-.15-.44-.56-1.1-.4-1.29.46-.56.77.57,1.32.31A.87.87,0,0,1,24.51,19.29Z"/><path class="cls-212" d="M41.76,27h-2.4c-.26-.71-.63-1.77.32-1.85S42.17,25.13,41.76,27Z"/><path class="cls-251" d="M41.76,27c-.09-1.36-1.59-.73-2.11-1.49-.55.41-.18,1-.29,1.49-.83-.79-.44-1.81-.46-2.72,0-2,0-1.62,2.05-1.29,2.6.42,1.62,2,1.68,3.35C42.65,26.74,42.17,26.89,41.76,27Z"/><path class="cls-252" d="M35,32.69c.78.11,1.6-.15,2.34.27A1.34,1.34,0,0,1,38,34.77c-.21.66-.47,1.25-1.22,1.23a2.14,2.14,0,0,1-1.88-1.25c-.42-.76.28-1.37.15-2.07Z"/><path class="cls-197" d="M53.27,34.63c.14-.56-.28-1.29.64-1.72.39.85.54,1.5-.62,1.74Z"/><path class="cls-253" d="M42.82,50.44c0-.47-.14-.94-.15-1.41a1.56,1.56,0,0,1,1.72-1.8,1.7,1.7,0,0,1,1.66,2.13,8.49,8.49,0,0,1-.54,1.56A4.41,4.41,0,0,1,42.82,50.44Z"/><path class="cls-234" d="M40.8,72.08l1,2.88a4,4,0,0,0-1.2-.7c-.87-.17-2,.09-1.93-1.32C38.74,71.31,40.09,72.43,40.8,72.08Z"/><path class="cls-254" d="M47.26,26.88c.33,1.63.45,2.86-.31,4.06C46.66,29.7,46.16,28.45,47.26,26.88Z"/><path class="cls-222" d="M58,59.62c0,.45-.1.8-.59.85a.59.59,0,0,1-.68-.51.78.78,0,0,1,.48-1C57.72,58.83,57.86,59.26,58,59.62Z"/></g></g></svg>